<svg width="87" height="54" viewBox="0 0 87 54" fill="none"
    xmlns="http://www.w3.org/2000/svg">
    <g clip-path="url(#clip0_58_5266)">
        <path d="M43.5001 52.6772C20.2573 52.6772 1.34717 41.1596 1.34717 27.0012C1.34717 12.8428 20.2573 1.32275 43.5001 1.32275C66.7429 1.32275 85.6531 12.8404 85.6531 27.0012C85.6531 41.162 66.7429 52.6772 43.5001 52.6772ZM43.5001 1.56326C20.392 1.56326 1.59209 12.9751 1.59209 26.9988C1.59209 41.0225 20.392 52.4343 43.5001 52.4343C66.6082 52.4343 85.4081 41.0225 85.4081 26.9988C85.4081 12.9751 66.6082 1.56326 43.5001 1.56326Z" fill="#009D3C"/>
        <path d="M43.5001 45.7893C25.4692 45.7893 10.7986 37.3596 10.7986 26.9988C10.7986 16.638 25.4668 8.21075 43.5001 8.21075C61.5335 8.21075 76.2017 16.6404 76.2017 27.0012C76.2017 37.3621 61.531 45.7917 43.5001 45.7917V45.7893ZM43.5001 8.45126C25.6039 8.45126 11.0435 16.7726 11.0435 27.0012C11.0435 37.2298 25.6039 45.5512 43.5001 45.5512C61.3963 45.5512 75.9567 37.2298 75.9567 27.0012C75.9567 16.7726 61.3963 8.45126 43.5001 8.45126Z" fill="#009D3C"/>
        <path d="M23.7962 10.5172L23.7448 10.9958C22.819 10.9909 21.6752 10.6085 21.0066 9.6297L20.9502 9.64894C21.0286 10.8106 20.4971 11.7052 19.3289 12.446L19.2162 12.3137C20.2008 11.5706 20.6049 10.7504 20.5657 9.7716L18.6211 10.3921L18.5549 10.1901L19.2799 9.95919L18.7582 8.3815L20.1273 7.94378L19.8334 7.05633L20.1983 6.94089L20.4922 7.82834L21.8417 7.39784L22.3634 8.97554L23.0933 8.74225L23.1594 8.94427L21.1829 9.57439C21.7683 10.2286 22.7357 10.5604 23.7986 10.5172H23.7962ZM20.5486 9.55515C20.5143 9.22566 20.4335 8.87934 20.3085 8.50656L20.1885 8.1434L19.1574 8.47289L19.6154 9.85337L20.5486 9.55515ZM20.5535 8.02555L20.7127 8.50415C20.8204 8.83124 20.8939 9.13667 20.9282 9.43249L22.0156 9.08617L21.5576 7.70569L20.551 8.02796L20.5535 8.02555Z" fill="#009D3C"/>
        <path d="M43.0665 5.16117C43.1645 4.90864 43.2551 4.56713 43.3041 4.27372L42.78 4.29296L42.8681 6.68115C42.8828 7.07797 42.6551 7.35696 41.6901 6.97215L41.7317 6.81102C42.4322 6.91924 42.513 6.89519 42.5008 6.6138L42.415 4.30498L41.499 4.33865L41.4917 4.13663L42.7971 4.09093C42.5938 3.86486 42.2803 3.55942 42.0281 3.32373L42.126 3.19386C42.2803 3.27804 42.4738 3.39348 42.6502 3.52094C42.8143 3.27563 42.9857 2.96298 43.069 2.72729L41.6068 2.7802L41.5995 2.58539L43.0616 2.53248L43.1767 2.4483L43.5515 2.65273C43.3482 3.00867 43.0494 3.38626 42.7996 3.62917C42.922 3.71575 43.0322 3.80714 43.1106 3.8841L42.9196 4.09334L43.2747 4.08131L43.38 3.99233L43.7376 4.15347C43.5955 4.54548 43.3482 5.02649 43.1988 5.23332L43.0616 5.16839L43.0665 5.16117ZM44.5605 6.11115L44.9034 6.32761C44.4895 6.69317 43.8503 7.04911 43.2698 7.2343L43.1988 7.08278C43.6666 6.88076 44.1932 6.5176 44.5605 6.11115ZM44.7001 2.74412L43.6494 2.7826L43.6421 2.57577L46.2186 2.48438L46.226 2.69121L45.0993 2.7321C44.9989 2.96779 44.8838 3.20589 44.7932 3.36943L45.91 3.32854L46.008 5.94521L43.958 6.01976L43.8601 3.4031L44.6046 3.37664C44.6462 3.18424 44.6756 2.93893 44.7001 2.74653V2.74412ZM45.5671 3.5498L44.2127 3.5979L44.2348 4.16549L45.5892 4.11739L45.5671 3.5498ZM45.5941 4.32422L44.2397 4.37232L44.2617 4.97117L45.6161 4.92307L45.5941 4.32422ZM45.6259 5.1299L44.2715 5.17801L44.2936 5.7985L45.648 5.7504L45.6259 5.1299ZM46.515 6.72444L46.2946 7.07076C46.0055 6.84228 45.4839 6.48874 45.0651 6.24584L45.1361 6.09432C45.5892 6.23141 46.1109 6.47431 46.515 6.72444Z" fill="#009D3C"/>
        <path d="M46.2848 49.6205C46.0571 49.5748 45.7681 49.4954 45.4668 49.3848L45.528 51.0587L45.1778 51.0707L45.168 50.8206L42.8707 50.9024L42.8805 51.1621L42.5351 51.1741L42.4714 49.4906C42.1849 49.6229 41.891 49.7383 41.6044 49.8297L41.5457 49.6782C42.2486 49.4136 43.096 48.9447 43.5026 48.4372L41.6534 48.5045L41.6461 48.2977L43.0274 48.2472C42.8584 48.062 42.6723 47.872 42.5278 47.7397L42.589 47.658C42.491 47.6676 42.3955 47.6748 42.3025 47.6796L42.2755 47.5209C43.4634 47.3934 44.443 47.1505 44.9329 46.9701L45.2684 47.2491C44.9476 47.3357 44.5239 47.4247 44.0634 47.4944L44.0904 48.2087L44.5067 48.1943C44.661 47.9827 44.8447 47.6724 44.9745 47.403L45.2929 47.5714C45.1019 47.8119 44.9157 48.0308 44.732 48.1847L46.182 48.1318L46.1893 48.3386L44.1785 48.4107C44.808 48.9038 45.697 49.1419 46.4293 49.2429L46.2873 49.6181L46.2848 49.6205ZM42.0845 47.848L41.7293 47.86L41.6926 46.8691L43.9801 46.7874C43.6985 46.6431 43.3483 46.4915 43.0568 46.3809L43.1009 46.227C43.4046 46.2679 43.8773 46.3569 44.2275 46.4988L44.0977 46.785L46.0546 46.7152L46.0913 47.7013L45.7362 47.7133L45.7068 46.9389L42.0551 47.0687L42.0845 47.848ZM45.2807 49.3126C44.8423 49.1323 44.3941 48.8773 44.1026 48.5599L44.1271 49.2068L43.772 49.2188L43.7499 48.6248C43.4952 48.9158 43.096 49.178 42.6502 49.4064L45.2831 49.3126H45.2807ZM43.3311 48.1101L43.2013 48.2424L43.7352 48.2232L43.7107 47.5449C43.3776 47.5882 43.0274 47.6267 42.6894 47.6556C42.9196 47.7734 43.1548 47.9418 43.3336 48.1101H43.3311ZM43.794 49.5724L42.8241 49.606L42.8388 50.0341L43.8087 50.0005L43.7916 49.5724H43.794ZM43.8185 50.2073L42.8486 50.241L42.8658 50.6955L43.8356 50.6619L43.8185 50.2073ZM45.1215 49.5243L44.1393 49.5604L44.1565 49.9884L45.1386 49.9524L45.1239 49.5243H45.1215ZM45.146 50.1592L44.1638 50.1953L44.181 50.6498L45.1631 50.6138L45.146 50.1592Z" fill="#009D3C"/>
        <path d="M22.0035 45.0172L21.5504 46.8018C21.4353 47.2539 21.0214 47.2395 20.3503 46.7921L20.414 46.6551C21.0949 46.9052 21.1684 46.9052 21.2418 46.619L21.619 45.1375C21.3668 45.2072 21.1194 45.265 20.8818 45.3058L20.8083 44.921C21.068 44.9018 21.3839 44.8705 21.7023 44.8176L22.0035 43.6343L21.2712 43.454L21.3227 43.2544L22.055 43.4347L22.3146 42.4126L22.6501 42.4944L22.3905 43.5165L22.9563 43.656L22.9048 43.8556L22.3391 43.7161L22.0746 44.7503C22.2558 44.7142 22.4346 44.6685 22.5962 44.6228L22.6379 44.7695C22.4419 44.8633 22.2264 44.9475 22.006 45.0196L22.0035 45.0172ZM25.141 47.771L24.896 48.1029C24.6462 47.9874 23.7719 47.4728 23.6763 46.4699H23.6714C23.1645 47.2347 22.366 47.403 21.526 47.3188L21.5137 47.1697C22.3195 47.1986 22.9195 46.9797 23.3212 46.3833L22.0182 46.0634L22.0697 45.859L23.4363 46.1957C23.5196 46.0418 23.598 45.8638 23.6616 45.6618L24.0021 45.7676C23.9408 45.96 23.8698 46.1332 23.7866 46.2823L25.3099 46.6575L25.2585 46.8619L23.8453 46.5156C24.0437 47.1553 24.6683 47.5642 25.1434 47.7734L25.141 47.771ZM24.1025 42.807L24.4258 43.0187C24.3156 43.1437 24.2152 43.2568 24.1123 43.3578L24.7662 43.5189L24.8936 43.478L25.1875 43.7402C25.0038 43.9398 24.6805 44.1827 24.4429 44.3222L25.4961 44.5819L25.0479 46.34L24.7172 46.2582L25.114 44.6998L23.3237 44.2597L22.922 45.8325L22.5913 45.7508L23.0077 44.1154C22.8926 44.1683 22.775 44.2164 22.655 44.2573L22.5913 44.1154C23.1547 43.8484 23.7033 43.3938 24.1 42.8022L24.1025 42.807ZM24.3719 44.6324C24.3009 44.7358 24.2323 44.8272 24.1564 44.9138C24.4111 45.1615 24.6217 45.4429 24.7417 45.6522L24.4527 45.8277C24.3499 45.5776 24.2054 45.2962 24.0437 45.0341C23.7743 45.301 23.4682 45.4838 23.1277 45.5968L23.0591 45.4477C23.4829 45.2289 23.8208 44.9258 24.0903 44.4569L24.3719 44.6348V44.6324ZM23.2134 44.0216L24.225 44.2693C24.4111 44.1081 24.5972 43.8965 24.7221 43.7185L23.9311 43.5237C23.6886 43.733 23.4535 43.8917 23.2159 44.0192L23.2134 44.0216Z" fill="#009D3C"/>
        <path d="M65.457 43.858C65.408 44.036 65.3492 44.2164 65.2807 44.3871L67.6319 43.6367L68.445 46.0971L68.0972 46.2077L67.9846 45.871L65.9003 46.5372L66.0179 46.8955L65.6676 47.0062L65.0014 44.9956C64.7786 45.4189 64.4994 45.8085 64.1883 46.1356L64.0561 46.0273C64.5459 45.4141 64.9035 44.7094 65.0798 43.9783L63.7303 44.4088L63.6642 44.2067L65.1362 43.7353C65.1606 43.5886 65.1876 43.4419 65.1998 43.2928L63.8087 43.7378L63.7426 43.5405L65.2145 43.0692C65.2268 42.9152 65.2243 42.7589 65.2145 42.6074C64.6782 42.8359 64.1173 43.0475 63.6177 43.2014L63.5466 43.0571C64.901 42.5352 65.9787 41.9532 66.6767 41.4554L67.1077 41.6454C66.7722 41.869 66.2162 42.1577 65.5991 42.4342C65.6088 42.605 65.6162 42.7757 65.6039 42.9465L67.5241 42.3332L67.5902 42.5304L65.5893 43.1702C65.5721 43.3217 65.5452 43.4684 65.5109 43.6175L68.0262 42.8142L68.0923 43.0162L65.4545 43.858H65.457ZM67.3478 43.9494L65.2635 44.6156L65.408 45.0485L67.4923 44.3823L67.3478 43.9494ZM67.5559 44.5747L65.4717 45.2409L65.6211 45.6906L67.7054 45.0244L67.5559 44.5747ZM67.7666 45.2096L65.6823 45.8758L65.8366 46.34L67.9209 45.6738L67.7666 45.2096Z" fill="#009D3C"/>
        <path d="M67.9528 11.2723C67.7569 11.1497 67.5168 10.9693 67.2793 10.7577L66.7135 12.3378L66.3829 12.2247L66.4661 11.989L64.2986 11.2387L64.2104 11.484L63.8847 11.3709L64.4554 9.78122C64.1394 9.80046 63.8235 9.80527 63.5222 9.78362V9.62008C64.2766 9.6273 65.2391 9.49502 65.8073 9.16794L64.061 8.56428L64.1321 8.36947L65.435 8.81921C65.3469 8.58592 65.244 8.34301 65.1607 8.16745L65.2489 8.11454C65.1558 8.08808 65.0628 8.06163 64.9746 8.03036L65.0089 7.87403C66.1624 8.18188 67.1642 8.30934 67.6883 8.31656L67.894 8.69655C67.5634 8.66048 67.1372 8.59314 66.6817 8.48972L66.4392 9.16553L66.8311 9.30021C67.0539 9.15832 67.3381 8.93706 67.5609 8.73263L67.7961 9.0044C67.5291 9.15832 67.2744 9.2954 67.0466 9.37477L68.4157 9.84856L68.3447 10.0434L66.4465 9.38679C66.8482 10.0698 67.5854 10.611 68.232 10.9693L67.9577 11.2675L67.9528 11.2723ZM65.4375 10.9308L64.5215 10.6134L64.3672 11.0439L65.2832 11.3613L65.4375 10.9308ZM64.7027 8.10973L64.3672 7.99429L64.7027 7.05873L66.8605 7.80429C66.6523 7.571 66.3829 7.30164 66.1551 7.09481L66.2531 6.96494C66.52 7.11405 66.9266 7.36657 67.2009 7.62391L66.9731 7.84277L68.8198 8.4801L68.4867 9.41085L68.1512 9.2954L68.4132 8.56428L64.9672 7.37379L64.7027 8.10973ZM65.653 10.3296L64.737 10.0121L64.5925 10.4161L65.5085 10.7336L65.653 10.3296ZM67.1323 10.623C66.7919 10.2983 66.471 9.89907 66.3167 9.49743L66.0988 10.1083L65.7632 9.99286L65.9641 9.43249C65.6187 9.61046 65.1485 9.71147 64.6488 9.76438L67.1323 10.623ZM65.7657 8.80237L65.5942 8.87933L66.0988 9.0525L66.329 8.41276C66.0032 8.33339 65.6628 8.24441 65.3371 8.14821C65.5085 8.34301 65.6628 8.58111 65.7657 8.80237ZM66.689 11.3637L65.7632 11.0439L65.6089 11.4744L66.5347 11.7942L66.689 11.3637ZM66.9045 10.7625L65.9788 10.4426L65.8342 10.8466L66.76 11.1665L66.9045 10.7625Z" fill="#009D3C"/>
        <path d="M29.9388 6.73889C30.0956 6.42623 30.2548 6.01738 30.3895 5.55321C30.1054 5.69511 29.7747 5.837 29.5249 5.9332L29.373 5.61815L29.6474 5.56283C29.7551 5.12512 29.8457 4.53588 29.8751 3.93463L30.2572 3.97311C30.1543 4.495 29.9804 5.12512 29.8237 5.51713C30.0343 5.46422 30.2474 5.4065 30.4433 5.34638C30.5021 5.12271 30.5536 4.88702 30.5927 4.64652L30.9601 4.72588C30.7911 5.38486 30.4629 6.1689 30.147 6.66914C30.4042 6.58496 30.6711 6.49117 30.9209 6.39256C30.8279 6.26029 30.7348 6.13282 30.654 6.02459L30.7764 5.92599C31.0165 6.12801 31.3128 6.42142 31.4989 6.68598L31.2295 6.87838C31.1634 6.77256 31.0899 6.65231 31.0116 6.53205C30.6074 6.78458 30.076 7.05154 29.7723 7.17179L29.5984 6.82787C29.7037 6.80142 29.8188 6.77496 29.9388 6.73889ZM30.1176 7.31369H30.2719C30.3748 7.87406 30.3821 8.41759 30.316 8.79278L29.929 8.70139C30.0539 8.34063 30.1372 7.85482 30.12 7.31369H30.1176ZM30.6393 7.15255C30.8352 7.49166 31.0703 8.01836 31.1854 8.31418L30.8377 8.44645C30.7593 8.12177 30.6123 7.58305 30.4948 7.20065L30.6393 7.15015V7.15255ZM31.5994 7.67685L31.3177 7.85722C31.1805 7.559 31.0213 7.2728 30.8744 7.00825L31.0067 6.92167C31.2222 7.14534 31.4181 7.40267 31.6018 7.67444L31.5994 7.67685ZM32.5913 6.29877L31.5602 6.50079L31.1169 4.32424L32.0427 4.14146C32.0672 3.93703 32.0745 3.70856 32.072 3.47046L32.4541 3.48248C32.3929 3.69413 32.3145 3.92501 32.2337 4.10298L33.6567 3.824L34.1 6.00054L32.6329 6.28915C32.9244 6.39978 33.2819 6.58256 33.5636 6.78218L33.3554 7.0828C33.0885 6.83268 32.7676 6.5994 32.5154 6.42142L32.5888 6.29877H32.5913ZM31.8492 6.23383L32.1088 6.18333L32.0353 6.09434C32.2557 5.90915 32.4639 5.68549 32.628 5.41131C32.4762 5.34397 32.3243 5.27663 32.1749 5.2141C32.099 5.3584 32.0157 5.48827 31.9349 5.60131L31.8026 5.52435C31.8712 5.39688 31.9275 5.27182 31.9716 5.13955C31.8884 5.10828 31.8051 5.07461 31.7218 5.04815L31.7586 4.90626L32.0304 4.96638C32.0892 4.76677 32.1333 4.55753 32.1602 4.33146L31.4891 4.46373L31.8516 6.23624L31.8492 6.23383ZM31.7586 6.97458L31.9226 6.96977C32.0084 7.4171 32.0108 7.82836 31.9153 8.22519L31.5455 8.10975C31.7145 7.72976 31.7757 7.42672 31.7586 6.97458ZM33.8036 7.01546C34.0975 7.67204 34.0779 7.92937 33.691 8.03279C33.4289 8.10013 33.1644 8.15304 32.9391 8.1819C32.4958 8.24203 32.3684 8.14342 32.29 7.75381L32.0647 6.65231L32.4076 6.58496L32.6256 7.65039C32.6672 7.85722 32.7505 7.88608 32.9538 7.86203C33.1301 7.83798 33.353 7.7995 33.5514 7.73938C33.7546 7.67925 33.7767 7.63596 33.6444 7.05635L33.8012 7.02027L33.8036 7.01546ZM33.3628 4.09336L32.2582 4.31222L32.4835 4.33867C32.459 4.43968 32.4419 4.53588 32.41 4.62968L32.8435 4.5431L32.9391 4.44209L33.2501 4.53348C33.1938 4.82449 33.1105 5.0698 33.0052 5.27423C33.1962 5.35119 33.3775 5.42815 33.5563 5.51713L33.3922 5.79852C33.2281 5.69992 33.0517 5.61093 32.868 5.51713C32.6745 5.80814 32.4468 6.01016 32.2239 6.16168L33.7277 5.86586L33.3652 4.09336H33.3628ZM32.2655 5.02651C32.4223 5.0698 32.5815 5.12031 32.7407 5.17562C32.8044 5.03372 32.8509 4.8774 32.8852 4.70424L32.3513 4.81006C32.3219 4.88702 32.2925 4.95676 32.2631 5.02651H32.2655ZM34.6755 7.34255L34.3988 7.55419C34.2004 7.2247 33.9996 6.92407 33.7497 6.61623L33.86 6.51281C34.1612 6.75091 34.4502 7.02989 34.6731 7.34255H34.6755Z" fill="#009D3C"/>
        <path d="M12.0574 15.2743L10.8622 16.0944L11.0997 16.4287L10.7911 16.6404L9.44409 14.7452L10.9479 13.7134L10.3478 12.8717L10.6662 12.6528L11.2663 13.4946L12.775 12.4604L14.1049 14.3291L13.7987 14.5384L13.5783 14.2305L12.3758 15.0554L13.5563 16.7149L13.2379 16.9338L12.0574 15.2743ZM11.9276 15.0915L11.0801 13.901L9.88495 14.7211L10.7324 15.9116L11.9276 15.0915ZM13.4485 14.0477L12.6011 12.8572L11.3985 13.6822L12.246 14.8727L13.4485 14.0477Z" fill="#009D3C"/>
        <path d="M57.5167 8.13861L56.1819 7.81153L55.9345 8.77835L55.5892 8.69417L55.8341 7.72736L54.6144 7.42673C54.2225 8.03039 53.5588 8.16266 52.7236 8.0376L52.7334 7.86925C53.4878 7.92457 53.9605 7.81153 54.2642 7.33774L52.9612 7.01787L53.0126 6.81826L54.3695 7.15015C54.4258 7.03952 54.4748 6.90965 54.5164 6.76534L53.8258 6.59459L54.2838 4.79563L57.3942 5.56043L56.9362 7.35939L56.3337 7.21027L56.2333 7.6071L57.5681 7.93419L57.5167 8.1338V8.13861ZM53.5147 4.86778L53.4388 4.72829C53.8968 4.44209 54.394 3.90818 54.7026 3.37186L55.0357 3.57388C54.9475 3.70375 54.8471 3.83362 54.732 3.95868L56.1182 4.3002L56.0668 4.49981L55.1606 4.27855C55.2561 4.44931 55.332 4.63209 55.403 4.85816L55.0528 4.9255C55.0259 4.65614 54.994 4.45652 54.9524 4.22804L54.5654 4.13184C54.2397 4.45171 53.8576 4.72829 53.5147 4.86778ZM54.2176 6.48155L56.6472 7.078L56.7354 6.72927L54.3058 6.13282L54.2176 6.48155ZM54.3523 5.94764L56.7819 6.54408L56.8701 6.19535L54.4405 5.59891L54.3523 5.94764ZM54.4895 5.41132L56.9191 6.00776L57.0048 5.67346L54.5752 5.07702L54.4895 5.41132ZM55.888 7.52533L55.9884 7.1285L54.8691 6.85433C54.8275 6.99623 54.7785 7.1261 54.7222 7.23913L55.8904 7.52533H55.888ZM55.6186 4.95677C55.9859 4.73551 56.4072 4.35311 56.7134 3.86489L57.0318 4.07412C56.9313 4.2064 56.8162 4.32665 56.706 4.43728L58.3396 4.83892L58.2882 5.03854L57.1787 4.76677C57.2767 4.94955 57.3648 5.15157 57.431 5.37524L57.0832 5.43056C57.0562 5.16119 57.0269 4.95196 56.9803 4.71626L56.515 4.60082C56.226 4.83652 55.9296 4.99765 55.692 5.09866L55.6186 4.95436V4.95677Z" fill="#009D3C"/>
        <path d="M54.0364 47.0495L53.6862 47.1192L53.4878 46.1476L55.7312 45.7051C55.43 45.6065 55.0602 45.5127 54.754 45.4477L54.7712 45.2866C55.0773 45.2794 55.5598 45.2938 55.9296 45.378L55.8488 45.681L57.769 45.3034L57.9674 46.2703L57.6171 46.34L57.4628 45.5824L53.8821 46.2871L54.0364 47.0519V47.0495ZM58.4743 48.139C58.2417 48.1317 57.9429 48.0981 57.6269 48.0355L57.9625 49.6782L57.6196 49.7455L57.5681 49.5002L55.3149 49.9427L55.3663 50.1977L55.0283 50.265L54.6903 48.6127C54.4283 48.7883 54.1589 48.9494 53.8895 49.0841L53.8062 48.9446C54.4577 48.5743 55.2145 47.9754 55.5353 47.4102L53.7205 47.7686L53.6788 47.5666L55.0332 47.2996C54.8373 47.1433 54.6218 46.987 54.4577 46.8787L54.5042 46.7873C54.4111 46.8114 54.3156 46.8354 54.2274 46.8523L54.1736 46.7008C55.3271 46.3881 56.2529 45.9937 56.706 45.7363L57.0807 45.96C56.7795 46.0947 56.3754 46.251 55.9296 46.3905L56.0741 47.0928L56.4807 47.0134C56.5983 46.7801 56.7281 46.4458 56.8138 46.1596L57.1567 46.2751C57.0073 46.542 56.8603 46.7873 56.7036 46.9701L58.1266 46.6911L58.1682 46.8932L56.1941 47.2828C56.8946 47.67 57.8106 47.7638 58.5503 47.7493L58.4719 48.1438L58.4743 48.139ZM55.31 47.112L55.2022 47.2635L55.7263 47.1601L55.5916 46.4939C55.2708 46.5901 54.9304 46.6839 54.6022 46.7633C54.8495 46.8451 55.1067 46.9725 55.3124 47.1096L55.31 47.112ZM57.431 47.9923C56.9681 47.884 56.4856 47.7036 56.1452 47.4343L56.275 48.0692L55.9247 48.139L55.8072 47.5569C55.6039 47.884 55.2512 48.2063 54.8495 48.5021L57.431 47.9947V47.9923ZM56.008 48.4829L55.0553 48.6705L55.141 49.0913L56.0937 48.9038L56.008 48.4829ZM56.1354 49.1058L55.1826 49.2934L55.2732 49.7407L56.226 49.5531L56.1354 49.1058ZM57.3085 48.2279L56.346 48.4179L56.4317 48.8388L57.3942 48.6488L57.3085 48.2279ZM57.4359 48.8508L56.4734 49.0408L56.564 49.4882L57.5265 49.2982L57.4359 48.8508Z" fill="#009D3C"/>
        <path d="M31.8516 46.6214L30.938 50.2097L30.5976 50.1255L31.3593 47.1385C31.0899 47.3838 30.7935 47.5954 30.4727 47.7614L30.3943 47.6123C31.1192 47.1024 31.7168 46.3256 32.2165 45.39L32.5643 45.5944C32.3487 45.9624 32.1161 46.3087 31.8516 46.6214ZM32.9169 48.0091C32.5839 48.5719 32.0426 49.2356 31.4646 49.6469L31.3593 49.517C31.8222 49.0793 32.2679 48.4348 32.5716 47.7974L32.9194 48.0091H32.9169ZM33.9872 47.0543L33.1692 50.2626C33.0541 50.7147 32.65 50.7965 31.7144 50.1399L31.7879 50.0004C32.65 50.354 32.7651 50.3323 32.841 50.0341L33.6223 46.9653L32.8778 46.7825C32.5986 47.1409 32.2704 47.4583 31.925 47.7012L31.8124 47.5714C32.3634 47.0735 32.792 46.4073 33.108 45.6546L33.4803 45.8325C33.3529 46.0899 33.1913 46.352 33.0125 46.6021L34.9228 47.0711L35.0747 47.0158L35.4078 47.3261C35.1212 47.6171 34.7122 47.9153 34.4305 48.0572L34.3252 47.9225C34.5285 47.7373 34.7636 47.468 34.891 47.2756L33.9799 47.0519L33.9872 47.0543ZM34.7734 50.2145L34.3497 50.2842C34.3154 49.6758 34.1807 48.7835 34.0607 48.2303L34.2126 48.1798C34.4526 48.7474 34.6804 49.6156 34.7734 50.2121V50.2145Z" fill="#009D3C"/>
        <path d="M72.2607 15.9549L75.7337 19.1344L75.5867 19.2883L72.1138 16.1089L72.2607 15.9549ZM74.4699 15.005L76.5345 16.8953L75.3344 18.1579L73.2698 16.2676L74.4699 15.005ZM73.5172 14.5841L73.5735 14.4253C74.3425 14.6731 75.3883 14.7765 76.1157 14.5769L74.852 13.42L74.9965 13.2685L76.4856 14.6322L77.0195 14.0694L77.2962 14.3219L76.7623 14.8847L78.2465 16.2435L78.102 16.3951L76.728 15.1372C76.6742 15.9646 76.9656 16.7823 77.3991 17.4701L76.9681 17.6048C76.5933 16.8424 76.4194 15.9068 76.5835 15.0723L75.7582 15.9405L75.4814 15.688L76.2553 14.8751C75.4692 15.0963 74.3278 14.916 73.5196 14.5865L73.5172 14.5841ZM73.6739 16.3542L75.2144 17.7635L75.6259 17.3306L74.0854 15.9213L73.6739 16.3542ZM74.2323 15.7673L75.7729 17.1767L76.1255 16.8039L74.585 15.3946L74.2323 15.7673Z" fill="#009D3C"/>
        <path d="M7.67076 30.6039C7.26664 30.6039 6.87722 30.4428 6.59311 30.1614C6.30901 30.4428 5.91714 30.6039 5.51547 30.6039C4.67785 30.6039 3.99453 29.9329 3.99453 29.1104C3.99453 28.8651 4.05576 28.6246 4.17577 28.4081C3.57816 28.1917 3.1814 27.6361 3.1814 27.006C3.1814 26.1835 3.86472 25.5125 4.70234 25.5125C4.8297 25.5125 4.95461 25.5269 5.07707 25.5582C5.12115 24.7765 5.78978 24.1488 6.59556 24.1488C7.40134 24.1488 8.06997 24.7765 8.11406 25.5606C8.23652 25.5293 8.36387 25.5125 8.48878 25.5125C9.32641 25.5125 10.0097 26.2172 10.0097 27.0854C10.0097 27.7155 9.63745 28.2903 9.07659 28.5356C9.15496 28.7208 9.19415 28.9132 9.19415 29.1104C9.19415 29.9329 8.51083 30.6039 7.6732 30.6039H7.67076ZM6.59066 30.0123L6.62985 30.0532C6.89926 30.3394 7.27644 30.5029 7.67076 30.5029C8.45205 30.5029 9.08638 29.88 9.08638 29.1128C9.08638 28.9132 9.0423 28.716 8.95658 28.5308L8.93454 28.4827L8.98597 28.4634C9.53459 28.2494 9.90441 27.6962 9.90441 27.0878C9.90441 26.2773 9.27007 25.6183 8.48878 25.6183C8.35163 25.6183 8.21203 25.6399 8.07977 25.6808L8.01364 25.7025V25.6327C8.00629 24.8727 7.36951 24.2547 6.59801 24.2547C5.82652 24.2547 5.19218 24.8703 5.18238 25.6279V25.6953L5.11625 25.676C4.98155 25.6351 4.84439 25.6159 4.70479 25.6159C3.9235 25.6159 3.28916 26.2388 3.28916 27.006C3.28916 27.6121 3.68348 28.1436 4.27128 28.3312L4.33251 28.3504L4.29823 28.4057C4.16842 28.6198 4.09984 28.8651 4.09984 29.1104C4.09984 29.8776 4.73418 30.5005 5.51547 30.5005C5.90734 30.5005 6.28697 30.337 6.55638 30.0508L6.59556 30.0099L6.59066 30.0123Z" fill="#009D3C"/>
        <path d="M7.6708 30.3875C7.30587 30.3875 6.96544 30.2408 6.71562 29.9762C6.65194 29.9089 6.52948 29.9089 6.4658 29.9762C6.21599 30.2408 5.878 30.3875 5.51062 30.3875C4.79301 30.3875 4.21255 29.8151 4.21255 29.1128C4.21255 28.8867 4.27623 28.6631 4.39379 28.4658C4.42073 28.4226 4.42563 28.3696 4.40604 28.3215C4.38644 28.2734 4.34971 28.2374 4.29827 28.2229C3.75945 28.0522 3.39697 27.564 3.39697 27.0084C3.39697 26.3037 3.97988 25.7337 4.69504 25.7337C4.8224 25.7337 4.94976 25.753 5.07222 25.7891C5.12365 25.8035 5.17998 25.7939 5.22162 25.765C5.26325 25.7337 5.29019 25.6856 5.29019 25.6327C5.29754 24.9377 5.88045 24.3725 6.58826 24.3725C7.29608 24.3725 7.87898 24.9401 7.88633 25.6351C7.88633 25.688 7.91327 25.7386 7.95736 25.7674C8.00144 25.7987 8.05777 25.8059 8.10921 25.7915C8.23167 25.753 8.35657 25.7337 8.48393 25.7337C9.20154 25.7337 9.782 26.3422 9.782 27.0902C9.782 27.6505 9.44401 28.1604 8.93948 28.3576C8.8954 28.3745 8.86111 28.4081 8.84396 28.4514C8.82682 28.4947 8.82927 28.5428 8.84641 28.5837C8.92724 28.7545 8.96642 28.9324 8.96642 29.1176C8.96642 29.8223 8.38352 30.3923 7.66835 30.3923L7.6708 30.3875ZM6.59071 29.8439C6.65929 29.8439 6.72542 29.8728 6.77195 29.9233C7.00707 30.1734 7.32547 30.3105 7.66835 30.3105C8.34188 30.3105 8.8905 29.7718 8.8905 29.1128C8.8905 28.9396 8.85131 28.7713 8.77783 28.6126C8.74844 28.5524 8.74844 28.4827 8.77294 28.4202C8.79743 28.3576 8.84886 28.3095 8.91254 28.2855C9.38768 28.1003 9.70608 27.6193 9.70608 27.0902C9.70608 26.3855 9.15746 25.8107 8.48638 25.8107C8.36882 25.8107 8.25126 25.8299 8.13615 25.8636C8.06267 25.8877 7.9794 25.8732 7.91572 25.8299C7.85204 25.7842 7.81285 25.7121 7.81285 25.6351C7.80551 24.981 7.25934 24.4471 6.59316 24.4471C5.92698 24.4471 5.38081 24.9786 5.37347 25.6303C5.37347 25.7073 5.33428 25.7794 5.27305 25.8227C5.20937 25.8684 5.12855 25.8804 5.05507 25.8588C4.93996 25.8251 4.81995 25.8083 4.70239 25.8083C4.02886 25.8083 3.48025 26.347 3.48025 27.0084C3.48025 27.5303 3.82068 27.9897 4.32766 28.1508C4.39869 28.1724 4.45747 28.2253 4.48441 28.2951C4.51135 28.3648 4.504 28.4418 4.46727 28.5043C4.35705 28.6895 4.29582 28.8988 4.29582 29.1128C4.29582 29.7742 4.84444 30.3105 5.51797 30.3105C5.86085 30.3105 6.17925 30.1734 6.41437 29.9233C6.4609 29.8728 6.52703 29.8439 6.59561 29.8439H6.59071Z" fill="#009D3C"/>
        <path d="M6.59065 28.1676C6.19633 28.1676 5.87549 27.8526 5.87549 27.4654C5.87549 27.0781 6.19633 26.7631 6.59065 26.7631C6.98497 26.7631 7.30581 27.0781 7.30581 27.4654C7.30581 27.8526 6.98497 28.1676 6.59065 28.1676ZM6.59065 26.8665C6.25511 26.8665 5.9808 27.1359 5.9808 27.4654C5.9808 27.7948 6.25511 28.0642 6.59065 28.0642C6.92619 28.0642 7.2005 27.7948 7.2005 27.4654C7.2005 27.1359 6.92619 26.8665 6.59065 26.8665Z" fill="#009D3C"/>
        <path d="M6.56621 26.0199V26.8184C6.56621 26.8184 6.58335 26.8184 6.59315 26.8184C6.60295 26.8184 6.6103 26.8184 6.62009 26.8184V26.0199C6.71561 26.0079 6.78909 25.9286 6.78909 25.8299C6.78909 25.7241 6.70092 25.6375 6.59315 25.6375C6.48539 25.6375 6.39722 25.7241 6.39722 25.8299C6.39722 25.9286 6.47069 26.0079 6.56621 26.0199Z" fill="#009D3C"/>
        <path d="M5.98315 26.1474L6.30399 26.881C6.31868 26.8737 6.33583 26.8665 6.35297 26.8617L6.03213 26.1282C6.1154 26.0801 6.15214 25.9767 6.11295 25.8877C6.07132 25.7891 5.95376 25.7458 5.85579 25.7867C5.75537 25.8276 5.71129 25.943 5.75292 26.0392C5.79211 26.1282 5.89253 26.1739 5.98559 26.1474H5.98315Z" fill="#009D3C"/>
        <path d="M5.11379 27.4966H5.92936C5.92936 27.4966 5.92936 27.4774 5.92936 27.4678C5.92936 27.4606 5.92936 27.4533 5.92936 27.4461H5.11379C5.10154 27.3523 5.02072 27.2802 4.9203 27.2802C4.81254 27.2802 4.72437 27.3668 4.72437 27.4726C4.72437 27.5784 4.81254 27.665 4.9203 27.665C5.02072 27.665 5.10154 27.5928 5.11379 27.499V27.4966Z" fill="#009D3C"/>
        <path d="M4.94722 27.1118C5.04029 27.1431 5.14316 27.1022 5.18479 27.0156L5.95384 27.2778C5.95874 27.2609 5.96363 27.2441 5.97098 27.2297L5.20194 26.9675C5.22153 26.8737 5.1701 26.7799 5.07458 26.7463C4.97171 26.7102 4.8615 26.7655 4.82476 26.8641C4.78802 26.9627 4.84436 27.0733 4.94477 27.1094L4.94722 27.1118Z" fill="#009D3C"/>
        <path d="M7.04624 26.0897L6.78418 26.8449C6.80132 26.8497 6.81602 26.8569 6.83316 26.8617L7.09523 26.1065C7.19074 26.1258 7.28626 26.0728 7.3181 25.9814C7.35239 25.8804 7.29851 25.7722 7.19564 25.7361C7.09278 25.7025 6.98256 25.7554 6.94583 25.8564C6.91399 25.9478 6.95807 26.0488 7.04379 26.0897H7.04624Z" fill="#009D3C"/>
        <path d="M7.88388 26.7679L7.16382 27.1407C7.17362 27.1551 7.18096 27.1695 7.18831 27.1864L7.90837 26.8112C7.9647 26.8881 8.07002 26.9146 8.15819 26.8689C8.25371 26.8184 8.29044 26.703 8.23901 26.6092C8.18758 26.5154 8.07002 26.4793 7.9745 26.5298C7.88633 26.5755 7.84959 26.6765 7.88388 26.7655V26.7679Z" fill="#009D3C"/>
        <path d="M7.0437 26.9916C7.05595 27.0036 7.06819 27.0156 7.08044 27.0276L7.656 26.4625C7.73192 26.5202 7.84214 26.5154 7.91316 26.4456C7.98909 26.3711 7.98909 26.2484 7.91316 26.1739C7.83724 26.0993 7.71233 26.0993 7.6364 26.1739C7.56538 26.2436 7.56048 26.3518 7.61926 26.4264L7.0437 26.9916Z" fill="#009D3C"/>
        <path d="M5.52773 26.4625L6.10329 27.0276C6.11554 27.0156 6.12778 27.0036 6.14003 26.9916L5.56447 26.4264C5.62325 26.3518 5.61835 26.2436 5.54732 26.1739C5.4714 26.0993 5.34649 26.0993 5.27057 26.1739C5.19464 26.2484 5.19464 26.3711 5.27057 26.4456C5.34159 26.5154 5.45181 26.5202 5.52773 26.4625Z" fill="#009D3C"/>
        <path d="M8.23397 27.8285C8.1409 27.7972 8.03804 27.8381 7.9964 27.9247L7.22491 27.6602C7.22001 27.677 7.21266 27.6914 7.20776 27.7083L7.97926 27.9728C7.95966 28.0666 8.0111 28.1604 8.10661 28.1941C8.20948 28.2301 8.31969 28.1748 8.35643 28.0762C8.39317 27.9752 8.33684 27.867 8.23642 27.8309L8.23397 27.8285Z" fill="#009D3C"/>
        <path d="M7.65357 28.4779L7.07311 27.9079C7.06087 27.9199 7.04862 27.9319 7.03638 27.944L7.61683 28.514C7.55805 28.5885 7.56295 28.6967 7.63398 28.7665C7.7099 28.841 7.83481 28.841 7.91074 28.7665C7.98666 28.6919 7.98666 28.5693 7.91074 28.4947C7.83971 28.425 7.7295 28.4202 7.65357 28.4779Z" fill="#009D3C"/>
        <path d="M7.19796 28.7929L6.87467 28.0522C6.85997 28.0594 6.84283 28.0666 6.82568 28.0714L7.14898 28.8122C7.0657 28.8603 7.02897 28.9637 7.06815 29.0527C7.10979 29.1513 7.22735 29.1946 7.32532 29.1537C7.42328 29.1128 7.46982 28.9974 7.42818 28.9012C7.389 28.8122 7.28858 28.7665 7.19551 28.7929H7.19796Z" fill="#009D3C"/>
        <path d="M8.26346 27.2778C8.16304 27.2778 8.08222 27.3499 8.06997 27.4437H7.25439C7.25439 27.4437 7.25439 27.4581 7.25439 27.4654C7.25439 27.475 7.25439 27.4846 7.25439 27.4942H8.06997C8.08222 27.588 8.16304 27.6602 8.26346 27.6602C8.37122 27.6602 8.45939 27.5736 8.45939 27.4678C8.45939 27.3619 8.37122 27.2754 8.26346 27.2754V27.2778Z" fill="#009D3C"/>
        <path d="M6.61765 28.9228V28.1171C6.61765 28.1171 6.60051 28.1171 6.59071 28.1171C6.58091 28.1171 6.57357 28.1171 6.56377 28.1171V28.9228C6.46825 28.9348 6.39478 29.0142 6.39478 29.1128C6.39478 29.2186 6.48295 29.3052 6.59071 29.3052C6.69847 29.3052 6.78664 29.2186 6.78664 29.1128C6.78664 29.0142 6.71317 28.9348 6.61765 28.9228Z" fill="#009D3C"/>
        <path d="M6.14493 27.9464C6.13268 27.9343 6.12043 27.9223 6.10819 27.9103L5.52773 28.4803C5.45181 28.4225 5.34159 28.4274 5.27057 28.4971C5.19464 28.5717 5.19464 28.6943 5.27057 28.7689C5.34649 28.8434 5.4714 28.8434 5.54732 28.7689C5.61835 28.6991 5.62325 28.5909 5.56447 28.5163L6.14493 27.9464Z" fill="#009D3C"/>
        <path d="M6.13764 28.853L6.40215 28.0907C6.38501 28.0858 6.36786 28.081 6.35317 28.0738L6.08865 28.8362C5.99314 28.817 5.89762 28.8699 5.86578 28.9613C5.83149 29.0623 5.88537 29.1705 5.98824 29.2066C6.0911 29.2403 6.20132 29.1873 6.23805 29.0863C6.26989 28.9949 6.22581 28.8939 6.14009 28.853H6.13764Z" fill="#009D3C"/>
        <path d="M5.29737 28.1724L6.01988 27.7973C6.01008 27.7828 6.00273 27.7684 5.99539 27.7516L5.27288 28.1267C5.21654 28.0498 5.11123 28.0233 5.02306 28.069C4.92754 28.1195 4.8908 28.235 4.94224 28.3288C4.99367 28.4226 5.11123 28.4586 5.20675 28.4081C5.29492 28.3624 5.33166 28.2614 5.29737 28.1724Z" fill="#009D3C"/>
        <path d="M12.3585 41.0032C11.9544 41.0032 11.565 40.8421 11.2809 40.5607C10.9968 40.8421 10.6049 41.0032 10.2032 41.0032C9.36559 41.0032 8.68227 40.3322 8.68227 39.5097C8.68227 39.2644 8.7435 39.0239 8.86351 38.8075C8.26591 38.591 7.86914 38.0354 7.86914 37.4053C7.86914 36.5828 8.55246 35.9118 9.39009 35.9118C9.51744 35.9118 9.64235 35.9262 9.76481 35.9575C9.8089 35.1759 10.4775 34.5482 11.2833 34.5482C12.0891 34.5482 12.7577 35.1759 12.8018 35.9599C12.9243 35.9286 13.0516 35.9118 13.1765 35.9118C14.0141 35.9118 14.6975 36.6165 14.6975 37.4847C14.6975 38.1148 14.3252 38.6896 13.7643 38.9349C13.8427 39.1201 13.8819 39.3125 13.8819 39.5097C13.8819 40.3322 13.1986 41.0032 12.3609 41.0032H12.3585ZM11.2809 40.4116L11.32 40.4525C11.5895 40.7387 11.9666 40.9022 12.3609 40.9022C13.1422 40.9022 13.7766 40.2793 13.7766 39.5121C13.7766 39.3125 13.7325 39.1153 13.6468 38.9301L13.6247 38.882L13.6762 38.8628C14.2248 38.6487 14.5946 38.0956 14.5946 37.4871C14.5946 36.6766 13.9603 36.0176 13.179 36.0176C13.0418 36.0176 12.9022 36.0393 12.77 36.0802L12.7038 36.1018V36.0321C12.6965 35.2721 12.0597 34.654 11.2882 34.654C10.5167 34.654 9.88237 35.2697 9.87258 36.0272V36.0946L9.80645 36.0753C9.67174 36.0345 9.53459 36.0152 9.39498 36.0152C8.61369 36.0152 7.97935 36.6381 7.97935 37.4053C7.97935 38.0114 8.37367 38.5429 8.96148 38.7305L9.02271 38.7497L8.98842 38.8051C8.85861 39.0191 8.79003 39.2644 8.79003 39.5097C8.79003 40.2769 9.42437 40.8998 10.2057 40.8998C10.5975 40.8998 10.9772 40.7363 11.2466 40.4501L11.2858 40.4092L11.2809 40.4116Z" fill="#009D3C"/>
        <path d="M12.3585 40.7868C11.9936 40.7868 11.6532 40.6401 11.4034 40.3756C11.3397 40.3082 11.2172 40.3082 11.1535 40.3756C10.9037 40.6401 10.5657 40.7868 10.1984 40.7868C9.48075 40.7868 8.9003 40.2144 8.9003 39.5122C8.9003 39.2861 8.96398 39.0624 9.08154 38.8652C9.10848 38.8219 9.11338 38.769 9.09378 38.7209C9.07419 38.6728 9.03745 38.6367 8.98602 38.6223C8.4472 38.4515 8.08472 37.9633 8.08472 37.4078C8.08472 36.7031 8.66762 36.1331 9.38279 36.1331C9.51014 36.1331 9.6375 36.1523 9.75996 36.1884C9.81139 36.2028 9.86772 36.1932 9.90936 36.1644C9.951 36.1331 9.97794 36.085 9.97794 36.0321C9.98529 35.337 10.5682 34.7719 11.276 34.7719C11.9838 34.7719 12.5667 35.3394 12.5741 36.0345C12.5741 36.0874 12.601 36.1379 12.6451 36.1668C12.6892 36.198 12.7455 36.2052 12.797 36.1908C12.9194 36.1523 13.0443 36.1331 13.1717 36.1331C13.8893 36.1331 14.4697 36.7416 14.4697 37.4895C14.4697 38.0499 14.1318 38.5598 13.6272 38.757C13.5831 38.7738 13.5489 38.8075 13.5317 38.8508C13.5146 38.8941 13.517 38.9422 13.5342 38.983C13.615 39.1538 13.6542 39.3318 13.6542 39.517C13.6542 40.2216 13.0713 40.7916 12.3561 40.7916L12.3585 40.7868ZM11.2809 40.2433C11.3495 40.2433 11.4156 40.2721 11.4621 40.3226C11.6973 40.5728 12.0157 40.7099 12.3585 40.7099C13.0321 40.7099 13.5807 40.1711 13.5807 39.5122C13.5807 39.339 13.5415 39.1706 13.468 39.0119C13.4386 38.9518 13.4386 38.882 13.4631 38.8195C13.4876 38.757 13.5391 38.7089 13.6027 38.6848C14.0779 38.4996 14.3963 38.0186 14.3963 37.4895C14.3963 36.7849 13.8477 36.2101 13.1766 36.2101C13.059 36.2101 12.9415 36.2293 12.8263 36.263C12.7529 36.287 12.6696 36.2726 12.6059 36.2293C12.5422 36.1836 12.503 36.1114 12.503 36.0345C12.4957 35.3803 11.9495 34.8464 11.2834 34.8464C10.6172 34.8464 10.071 35.3779 10.0637 36.0297C10.0637 36.1066 10.0245 36.1788 9.96324 36.2221C9.89956 36.2678 9.81874 36.2798 9.74527 36.2582C9.63015 36.2245 9.51014 36.2077 9.39258 36.2077C8.71906 36.2077 8.17044 36.7464 8.17044 37.4078C8.17044 37.9296 8.51088 38.389 9.01786 38.5501C9.08888 38.5718 9.14766 38.6247 9.1746 38.6944C9.20155 38.7642 9.1942 38.8411 9.15746 38.9037C9.04725 39.0889 8.98602 39.2981 8.98602 39.5122C8.98602 40.1735 9.53464 40.7099 10.2082 40.7099C10.551 40.7099 10.8694 40.5728 11.1046 40.3226C11.1511 40.2721 11.2172 40.2433 11.2858 40.2433H11.2809Z" fill="#009D3C"/>
        <path d="M11.2808 38.5669C10.8865 38.5669 10.5657 38.2519 10.5657 37.8647C10.5657 37.4775 10.8865 37.1624 11.2808 37.1624C11.6752 37.1624 11.996 37.4775 11.996 37.8647C11.996 38.2519 11.6752 38.5669 11.2808 38.5669ZM11.2808 37.2658C10.9453 37.2658 10.671 37.5352 10.671 37.8647C10.671 38.1942 10.9453 38.4635 11.2808 38.4635C11.6164 38.4635 11.8907 38.1942 11.8907 37.8647C11.8907 37.5352 11.6164 37.2658 11.2808 37.2658Z" fill="#009D3C"/>
        <path d="M11.254 36.4169V37.2154C11.254 37.2154 11.2711 37.2154 11.2809 37.2154C11.2907 37.2154 11.298 37.2154 11.3078 37.2154V36.4169C11.4034 36.4049 11.4768 36.3255 11.4768 36.2269C11.4768 36.1211 11.3887 36.0345 11.2809 36.0345C11.1731 36.0345 11.085 36.1211 11.085 36.2269C11.085 36.3255 11.1584 36.4049 11.254 36.4169Z" fill="#009D3C"/>
        <path d="M10.6733 36.5467L10.9942 37.2803C11.0089 37.2731 11.026 37.2658 11.0432 37.261L10.7223 36.5275C10.8056 36.4794 10.8423 36.376 10.8031 36.287C10.7615 36.1884 10.6439 36.1451 10.546 36.186C10.4456 36.2269 10.4015 36.3423 10.4431 36.4385C10.4823 36.5275 10.5827 36.5732 10.6758 36.5467H10.6733Z" fill="#009D3C"/>
        <path d="M9.80153 37.8936H10.6171C10.6171 37.8936 10.6171 37.8743 10.6171 37.8647C10.6171 37.8575 10.6171 37.8503 10.6171 37.8431H9.80153C9.78928 37.7493 9.70846 37.6771 9.60804 37.6771C9.50028 37.6771 9.41211 37.7637 9.41211 37.8695C9.41211 37.9753 9.50028 38.0619 9.60804 38.0619C9.70846 38.0619 9.78928 37.9898 9.80153 37.896V37.8936Z" fill="#009D3C"/>
        <path d="M9.63741 37.5112C9.73048 37.5424 9.83334 37.5015 9.87498 37.415L10.644 37.6771C10.6489 37.6603 10.6538 37.6434 10.6612 37.629L9.89212 37.3669C9.91172 37.2731 9.86028 37.1793 9.76476 37.1456C9.6619 37.1095 9.55169 37.1648 9.51495 37.2635C9.47821 37.3621 9.53454 37.4727 9.63496 37.5088L9.63741 37.5112Z" fill="#009D3C"/>
        <path d="M11.734 36.4866L11.4719 37.2418C11.4891 37.2466 11.5038 37.2538 11.5209 37.2587L11.783 36.5035C11.8785 36.5227 11.974 36.4698 12.0058 36.3784C12.0401 36.2774 11.9863 36.1692 11.8834 36.1331C11.7805 36.0994 11.6703 36.1523 11.6336 36.2534C11.6017 36.3448 11.6458 36.4458 11.7315 36.4866H11.734Z" fill="#009D3C"/>
        <path d="M12.5741 37.1673L11.854 37.5401C11.8638 37.5545 11.8711 37.5689 11.8785 37.5858L12.5986 37.2106C12.6549 37.2875 12.7602 37.314 12.8484 37.2683C12.9439 37.2178 12.9806 37.1023 12.9292 37.0085C12.8778 36.9148 12.7602 36.8787 12.6647 36.9292C12.5765 36.9749 12.5398 37.0759 12.5741 37.1649V37.1673Z" fill="#009D3C"/>
        <path d="M11.7314 37.3885C11.7437 37.4005 11.7559 37.4126 11.7682 37.4246L12.3437 36.8594C12.4197 36.9171 12.5299 36.9123 12.6009 36.8426C12.6768 36.768 12.6768 36.6454 12.6009 36.5708C12.525 36.4963 12.4001 36.4963 12.3241 36.5708C12.2531 36.6406 12.2482 36.7488 12.307 36.8233L11.7314 37.3885Z" fill="#009D3C"/>
        <path d="M10.2155 36.8618L10.791 37.427C10.8033 37.4149 10.8155 37.4029 10.8278 37.3909L10.2522 36.8257C10.311 36.7512 10.3061 36.6429 10.2351 36.5732C10.1591 36.4986 10.0342 36.4986 9.95831 36.5732C9.88239 36.6477 9.88239 36.7704 9.95831 36.845C10.0293 36.9147 10.1396 36.9195 10.2155 36.8618Z" fill="#009D3C"/>
        <path d="M12.9217 38.2279C12.8286 38.1966 12.7258 38.2375 12.6841 38.3241L11.9127 38.0595C11.9078 38.0763 11.9004 38.0908 11.8955 38.1076L12.667 38.3722C12.6474 38.466 12.6988 38.5598 12.7944 38.5934C12.8972 38.6295 13.0074 38.5742 13.0442 38.4756C13.0809 38.3746 13.0246 38.2663 12.9242 38.2303L12.9217 38.2279Z" fill="#009D3C"/>
        <path d="M12.3438 38.8772L11.7633 38.3073C11.7511 38.3193 11.7388 38.3313 11.7266 38.3433L12.307 38.9133C12.2482 38.9879 12.2531 39.0961 12.3242 39.1658C12.4001 39.2404 12.525 39.2404 12.6009 39.1658C12.6768 39.0913 12.6768 38.9686 12.6009 38.8941C12.5299 38.8243 12.4197 38.8195 12.3438 38.8772Z" fill="#009D3C"/>
        <path d="M11.8881 39.1923L11.5649 38.4515C11.5502 38.4588 11.533 38.466 11.5159 38.4708L11.8392 39.2115C11.7559 39.2596 11.7192 39.363 11.7583 39.452C11.8 39.5506 11.9175 39.5939 12.0155 39.553C12.1135 39.5122 12.16 39.3967 12.1184 39.3005C12.0792 39.2115 11.9788 39.1658 11.8857 39.1923H11.8881Z" fill="#009D3C"/>
        <path d="M12.9512 37.6771C12.8508 37.6771 12.77 37.7492 12.7577 37.843H11.9421C11.9421 37.843 11.9421 37.8575 11.9421 37.8647C11.9421 37.8743 11.9421 37.8839 11.9421 37.8935H12.7577C12.77 37.9873 12.8508 38.0595 12.9512 38.0595C13.059 38.0595 13.1471 37.9729 13.1471 37.8671C13.1471 37.7613 13.059 37.6747 12.9512 37.6747V37.6771Z" fill="#009D3C"/>
        <path d="M11.3054 39.3197V38.514C11.3054 38.514 11.2883 38.514 11.2785 38.514C11.2687 38.514 11.2613 38.514 11.2515 38.514V39.3197C11.156 39.3317 11.0825 39.4111 11.0825 39.5097C11.0825 39.6155 11.1707 39.7021 11.2785 39.7021C11.3862 39.7021 11.4744 39.6155 11.4744 39.5097C11.4744 39.4111 11.4009 39.3317 11.3054 39.3197Z" fill="#009D3C"/>
        <path d="M10.8327 38.3433C10.8204 38.3313 10.8082 38.3193 10.7959 38.3073L10.2155 38.8772C10.1396 38.8195 10.0293 38.8243 9.95831 38.8941C9.88239 38.9686 9.88239 39.0913 9.95831 39.1658C10.0342 39.2404 10.1591 39.2404 10.2351 39.1658C10.3061 39.0961 10.311 38.9879 10.2522 38.9133L10.8327 38.3433Z" fill="#009D3C"/>
        <path d="M10.8254 39.25L11.0899 38.4876C11.0727 38.4828 11.0556 38.478 11.0409 38.4708L10.7764 39.2332C10.6809 39.2139 10.5854 39.2668 10.5535 39.3582C10.5192 39.4592 10.5731 39.5675 10.676 39.6035C10.7788 39.6372 10.8891 39.5843 10.9258 39.4833C10.9576 39.3919 10.9136 39.2909 10.8278 39.25H10.8254Z" fill="#009D3C"/>
        <path d="M9.98511 38.5718L10.7076 38.1966C10.6978 38.1821 10.6905 38.1677 10.6831 38.1509L9.96062 38.5261C9.90429 38.4491 9.79897 38.4226 9.7108 38.4683C9.61528 38.5188 9.57855 38.6343 9.62998 38.7281C9.68141 38.8219 9.79897 38.858 9.89449 38.8074C9.98266 38.7618 10.0194 38.6607 9.98511 38.5718Z" fill="#009D3C"/>
        <path d="M81.6827 30.6039C81.2786 30.6039 80.8892 30.4428 80.6051 30.1614C80.321 30.4428 79.9291 30.6039 79.5274 30.6039C78.6898 30.6039 78.0065 29.9329 78.0065 29.1104C78.0065 28.8651 78.0677 28.6246 78.1877 28.4081C77.5901 28.1917 77.1934 27.6361 77.1934 27.006C77.1934 26.1835 77.8767 25.5125 78.7143 25.5125C78.8417 25.5125 78.9666 25.5269 79.089 25.5582C79.1331 24.7765 79.8017 24.1488 80.6075 24.1488C81.4133 24.1488 82.0819 24.7765 82.126 25.5606C82.2485 25.5293 82.3758 25.5125 82.5007 25.5125C83.3384 25.5125 84.0217 26.2172 84.0217 27.0854C84.0217 27.7155 83.6494 28.2903 83.0886 28.5356C83.1669 28.7208 83.2061 28.9132 83.2061 29.1104C83.2061 29.9329 82.5228 30.6039 81.6852 30.6039H81.6827ZM80.6026 30.0123L80.6418 30.0532C80.9112 30.3394 81.2884 30.5029 81.6827 30.5029C82.464 30.5029 83.0984 29.88 83.0984 29.1128C83.0984 28.9132 83.0543 28.716 82.9685 28.5308L82.9465 28.4827L82.9979 28.4634C83.5466 28.2494 83.9164 27.6962 83.9164 27.0878C83.9164 26.2773 83.282 25.6183 82.5007 25.6183C82.3636 25.6183 82.224 25.6399 82.0917 25.6808L82.0256 25.7025V25.6327C82.0183 24.8727 81.3815 24.2547 80.61 24.2547C79.8385 24.2547 79.2041 24.8703 79.1943 25.6279V25.6953L79.1282 25.676C78.9935 25.6351 78.8564 25.6159 78.7168 25.6159C77.9355 25.6159 77.3011 26.2388 77.3011 27.006C77.3011 27.6121 77.6954 28.1436 78.2833 28.3312L78.3445 28.3504L78.3102 28.4057C78.1804 28.6198 78.1118 28.8651 78.1118 29.1104C78.1118 29.8776 78.7461 30.5005 79.5274 30.5005C79.9193 30.5005 80.2989 30.337 80.5683 30.0508L80.6075 30.0099L80.6026 30.0123Z" fill="#009D3C"/>
        <path d="M81.6828 30.3875C81.3178 30.3875 80.9774 30.2408 80.7276 29.9762C80.6639 29.9089 80.5414 29.9089 80.4778 29.9762C80.2279 30.2408 79.89 30.3875 79.5226 30.3875C78.805 30.3875 78.2245 29.8151 78.2245 29.1128C78.2245 28.8867 78.2882 28.6631 78.4058 28.4658C78.4327 28.4226 78.4376 28.3696 78.418 28.3215C78.3984 28.2734 78.3617 28.2374 78.3102 28.2229C77.7714 28.0522 77.4089 27.564 77.4089 27.0084C77.4089 26.3037 77.9918 25.7337 78.707 25.7337C78.8344 25.7337 78.9617 25.753 79.0842 25.7891C79.1356 25.8035 79.1919 25.7939 79.2336 25.765C79.2752 25.7337 79.3022 25.6856 79.3022 25.6327C79.3095 24.9377 79.8924 24.3725 80.6002 24.3725C81.308 24.3725 81.891 24.9401 81.8983 25.6351C81.8983 25.688 81.9252 25.7386 81.9693 25.7674C82.0134 25.7987 82.0697 25.8059 82.1212 25.7915C82.2436 25.753 82.3685 25.7337 82.4959 25.7337C83.2135 25.7337 83.794 26.3422 83.794 27.0902C83.794 27.6505 83.456 28.1604 82.9514 28.3576C82.9074 28.3745 82.8731 28.4081 82.8559 28.4514C82.8388 28.4947 82.8412 28.5428 82.8584 28.5837C82.9392 28.7545 82.9784 28.9324 82.9784 29.1176C82.9784 29.8223 82.3955 30.3923 81.6803 30.3923L81.6828 30.3875ZM80.6027 29.8439C80.6713 29.8439 80.7374 29.8728 80.7839 29.9233C81.019 30.1734 81.3374 30.3105 81.6803 30.3105C82.3538 30.3105 82.9025 29.7718 82.9025 29.1128C82.9025 28.9396 82.8633 28.7713 82.7898 28.6126C82.7604 28.5524 82.7604 28.4827 82.7849 28.4202C82.8094 28.3576 82.8608 28.3095 82.9245 28.2855C83.3996 28.1003 83.718 27.6193 83.718 27.0902C83.718 26.3855 83.1694 25.8107 82.4983 25.8107C82.3808 25.8107 82.2632 25.8299 82.1481 25.8636C82.0746 25.8877 81.9914 25.8732 81.9277 25.8299C81.864 25.7842 81.8248 25.7121 81.8248 25.6351C81.8175 24.981 81.2713 24.4471 80.6051 24.4471C79.9389 24.4471 79.3928 24.9786 79.3854 25.6303C79.3854 25.7073 79.3462 25.7794 79.285 25.8227C79.2213 25.8684 79.1405 25.8804 79.067 25.8588C78.9519 25.8251 78.8319 25.8083 78.7144 25.8083C78.0408 25.8083 77.4922 26.347 77.4922 27.0084C77.4922 27.5303 77.8326 27.9897 78.3396 28.1508C78.4106 28.1724 78.4694 28.2253 78.4964 28.2951C78.5233 28.3648 78.516 28.4418 78.4792 28.5043C78.369 28.6895 78.3078 28.8988 78.3078 29.1128C78.3078 29.7742 78.8564 30.3105 79.5299 30.3105C79.8728 30.3105 80.1912 30.1734 80.4263 29.9233C80.4729 29.8728 80.539 29.8439 80.6076 29.8439H80.6027Z" fill="#009D3C"/>
        <path d="M80.6026 28.1676C80.2083 28.1676 79.8875 27.8526 79.8875 27.4654C79.8875 27.0781 80.2083 26.7631 80.6026 26.7631C80.9969 26.7631 81.3178 27.0781 81.3178 27.4654C81.3178 27.8526 80.9969 28.1676 80.6026 28.1676ZM80.6026 26.8665C80.2671 26.8665 79.9928 27.1359 79.9928 27.4654C79.9928 27.7948 80.2671 28.0642 80.6026 28.0642C80.9382 28.0642 81.2125 27.7948 81.2125 27.4654C81.2125 27.1359 80.9382 26.8665 80.6026 26.8665Z" fill="#009D3C"/>
        <path d="M80.5782 26.0199V26.8184C80.5782 26.8184 80.5953 26.8184 80.6051 26.8184C80.6149 26.8184 80.6223 26.8184 80.6321 26.8184V26.0199C80.7276 26.0079 80.8011 25.9286 80.8011 25.8299C80.8011 25.7241 80.7129 25.6375 80.6051 25.6375C80.4973 25.6375 80.4092 25.7241 80.4092 25.8299C80.4092 25.9286 80.4827 26.0079 80.5782 26.0199Z" fill="#009D3C"/>
        <path d="M79.9951 26.1474L80.316 26.881C80.3306 26.8737 80.3478 26.8665 80.3649 26.8617L80.0441 26.1282C80.1274 26.0801 80.1641 25.9767 80.1249 25.8877C80.0833 25.7891 79.9657 25.7458 79.8678 25.7867C79.7673 25.8276 79.7232 25.943 79.7649 26.0392C79.8041 26.1282 79.9045 26.1739 79.9976 26.1474H79.9951Z" fill="#009D3C"/>
        <path d="M79.1257 27.4966H79.9413C79.9413 27.4966 79.9413 27.4774 79.9413 27.4678C79.9413 27.4606 79.9413 27.4533 79.9413 27.4461H79.1257C79.1135 27.3523 79.0327 27.2802 78.9323 27.2802C78.8245 27.2802 78.7363 27.3668 78.7363 27.4726C78.7363 27.5784 78.8245 27.665 78.9323 27.665C79.0327 27.665 79.1135 27.5928 79.1257 27.499V27.4966Z" fill="#009D3C"/>
        <path d="M78.9616 27.1118C79.0547 27.1431 79.1576 27.1022 79.1992 27.0156L79.9682 27.2778C79.9731 27.2609 79.978 27.2441 79.9854 27.2297L79.2163 26.9675C79.2359 26.8737 79.1845 26.7799 79.089 26.7463C78.9861 26.7102 78.8759 26.7655 78.8392 26.8641C78.8024 26.9627 78.8588 27.0733 78.9592 27.1094L78.9616 27.1118Z" fill="#009D3C"/>
        <path d="M81.0582 26.0897L80.7961 26.8449C80.8133 26.8497 80.828 26.8569 80.8451 26.8617L81.1072 26.1065C81.2027 26.1258 81.2982 26.0728 81.3301 25.9814C81.3644 25.8804 81.3105 25.7722 81.2076 25.7361C81.1047 25.7025 80.9945 25.7554 80.9578 25.8564C80.9259 25.9478 80.97 26.0488 81.0558 26.0897H81.0582Z" fill="#009D3C"/>
        <path d="M81.8983 26.7679L81.1782 27.1407C81.188 27.1551 81.1954 27.1695 81.2027 27.1864L81.9228 26.8112C81.9791 26.8881 82.0844 26.9146 82.1726 26.8689C82.2681 26.8184 82.3048 26.703 82.2534 26.6092C82.202 26.5154 82.0844 26.4793 81.9889 26.5298C81.9007 26.5755 81.864 26.6765 81.8983 26.7655V26.7679Z" fill="#009D3C"/>
        <path d="M81.0557 26.9916C81.0679 27.0036 81.0802 27.0156 81.0924 27.0276L81.668 26.4625C81.7439 26.5202 81.8541 26.5154 81.9251 26.4456C82.001 26.3711 82.001 26.2484 81.9251 26.1739C81.8492 26.0993 81.7243 26.0993 81.6484 26.1739C81.5773 26.2436 81.5724 26.3518 81.6312 26.4264L81.0557 26.9916Z" fill="#009D3C"/>
        <path d="M79.5397 26.4625L80.1153 27.0276C80.1275 27.0156 80.1397 27.0036 80.152 26.9916L79.5764 26.4264C79.6352 26.3518 79.6303 26.2436 79.5593 26.1739C79.4834 26.0993 79.3585 26.0993 79.2825 26.1739C79.2066 26.2484 79.2066 26.3711 79.2825 26.4456C79.3536 26.5154 79.4638 26.5202 79.5397 26.4625Z" fill="#009D3C"/>
        <path d="M82.2459 27.8285C82.1529 27.7972 82.05 27.8381 82.0084 27.9247L81.2369 27.6602C81.232 27.677 81.2246 27.6914 81.2197 27.7083L81.9912 27.9728C81.9716 28.0666 82.0231 28.1604 82.1186 28.1941C82.2214 28.2301 82.3317 28.1748 82.3684 28.0762C82.4051 27.9752 82.3488 27.867 82.2484 27.8309L82.2459 27.8285Z" fill="#009D3C"/>
        <path d="M81.668 28.4779L81.0875 27.9079C81.0753 27.9199 81.063 27.9319 81.0508 27.944L81.6312 28.514C81.5725 28.5885 81.5774 28.6967 81.6484 28.7665C81.7243 28.841 81.8492 28.841 81.9251 28.7665C82.0011 28.6919 82.0011 28.5693 81.9251 28.4947C81.8541 28.425 81.7439 28.4202 81.668 28.4779Z" fill="#009D3C"/>
        <path d="M81.2099 28.7929L80.8866 28.0522C80.8719 28.0594 80.8548 28.0666 80.8376 28.0714L81.1609 28.8122C81.0777 28.8603 81.0409 28.9637 81.0801 29.0527C81.1217 29.1513 81.2393 29.1946 81.3373 29.1537C81.4353 29.1128 81.4818 28.9974 81.4401 28.9012C81.401 28.8122 81.3005 28.7665 81.2075 28.7929H81.2099Z" fill="#009D3C"/>
        <path d="M82.2754 27.2778C82.175 27.2778 82.0942 27.3499 82.0819 27.4437H81.2664C81.2664 27.4437 81.2664 27.4581 81.2664 27.4654C81.2664 27.475 81.2664 27.4846 81.2664 27.4942H82.0819C82.0942 27.588 82.175 27.6602 82.2754 27.6602C82.3832 27.6602 82.4714 27.5736 82.4714 27.4678C82.4714 27.3619 82.3832 27.2754 82.2754 27.2754V27.2778Z" fill="#009D3C"/>
        <path d="M80.6296 28.9228V28.1171C80.6296 28.1171 80.6125 28.1171 80.6027 28.1171C80.5929 28.1171 80.5855 28.1171 80.5757 28.1171V28.9228C80.4802 28.9348 80.4067 29.0142 80.4067 29.1128C80.4067 29.2186 80.4949 29.3052 80.6027 29.3052C80.7104 29.3052 80.7986 29.2186 80.7986 29.1128C80.7986 29.0142 80.7251 28.9348 80.6296 28.9228Z" fill="#009D3C"/>
        <path d="M80.1569 27.9464C80.1446 27.9343 80.1324 27.9223 80.1202 27.9103L79.5397 28.4803C79.4638 28.4225 79.3536 28.4274 79.2825 28.4971C79.2066 28.5717 79.2066 28.6943 79.2825 28.7689C79.3585 28.8434 79.4834 28.8434 79.5593 28.7689C79.6303 28.6991 79.6352 28.5909 79.5764 28.5163L80.1569 27.9464Z" fill="#009D3C"/>
        <path d="M80.1496 28.853L80.4141 28.0907C80.397 28.0858 80.3798 28.081 80.3651 28.0738L80.1006 28.8362C80.0051 28.817 79.9096 28.8699 79.8777 28.9613C79.8435 29.0623 79.8973 29.1705 80.0002 29.2066C80.1031 29.2403 80.2133 29.1873 80.25 29.0863C80.2819 28.9949 80.2378 28.8939 80.152 28.853H80.1496Z" fill="#009D3C"/>
        <path d="M79.3093 28.1724L80.0318 27.7973C80.022 27.7828 80.0147 27.7684 80.0074 27.7516L79.2848 28.1267C79.2285 28.0498 79.1232 28.0233 79.035 28.069C78.9395 28.1195 78.9028 28.235 78.9542 28.3288C79.0056 28.4226 79.1232 28.4586 79.2187 28.4081C79.3069 28.3624 79.3436 28.2614 79.3093 28.1724Z" fill="#009D3C"/>
        <path d="M77.1593 40.3635C76.7552 40.3635 76.3657 40.2024 76.0816 39.921C75.7975 40.2024 75.4057 40.3635 75.004 40.3635C74.1664 40.3635 73.4831 39.6925 73.4831 38.87C73.4831 38.6247 73.5443 38.3842 73.6643 38.1677C73.0667 37.9513 72.6699 37.3957 72.6699 36.7656C72.6699 35.9431 73.3533 35.2721 74.1909 35.2721C74.3182 35.2721 74.4431 35.2865 74.5656 35.3178C74.6097 34.5362 75.2783 33.9084 76.0841 33.9084C76.8899 33.9084 77.5585 34.5362 77.6026 35.3202C77.725 35.2889 77.8524 35.2721 77.9773 35.2721C78.8149 35.2721 79.4983 35.9768 79.4983 36.845C79.4983 37.4751 79.126 38.0499 78.5651 38.2952C78.6435 38.4804 78.6827 38.6728 78.6827 38.87C78.6827 39.6925 77.9994 40.3635 77.1617 40.3635H77.1593ZM76.0792 39.7719L76.1184 39.8128C76.3878 40.099 76.765 40.2625 77.1593 40.2625C77.9406 40.2625 78.5749 39.6396 78.5749 38.8724C78.5749 38.6728 78.5308 38.4756 78.4451 38.2904L78.4231 38.2423L78.4745 38.2231C79.0231 38.009 79.3929 37.4559 79.3929 36.8474C79.3929 36.0369 78.7586 35.3779 77.9773 35.3779C77.8402 35.3779 77.7006 35.3996 77.5683 35.4404L77.5022 35.4621V35.3923C77.4948 34.6324 76.858 34.0143 76.0865 34.0143C75.315 34.0143 74.6807 34.63 74.6709 35.3875V35.4549L74.6048 35.4356C74.4701 35.3947 74.3329 35.3755 74.1933 35.3755C73.412 35.3755 72.7777 35.9984 72.7777 36.7656C72.7777 37.3717 73.172 37.9032 73.7598 38.0908L73.821 38.11L73.7868 38.1653C73.6569 38.3794 73.5884 38.6247 73.5884 38.87C73.5884 39.6372 74.2227 40.2601 75.004 40.2601C75.3959 40.2601 75.7755 40.0966 76.0449 39.8104L76.0841 39.7695L76.0792 39.7719Z" fill="#009D3C"/>
        <path d="M77.1593 40.147C76.7944 40.147 76.454 40.0003 76.2042 39.7358C76.1405 39.6684 76.018 39.6684 75.9543 39.7358C75.7045 40.0003 75.3665 40.147 74.9991 40.147C74.2815 40.147 73.7011 39.5747 73.7011 38.8724C73.7011 38.6463 73.7648 38.4226 73.8823 38.2254C73.9093 38.1821 73.9142 38.1292 73.8946 38.0811C73.875 38.033 73.8382 37.997 73.7868 37.9825C73.248 37.8118 72.8855 37.3235 72.8855 36.768C72.8855 36.0633 73.4684 35.4933 74.1836 35.4933C74.3109 35.4933 74.4383 35.5126 74.5607 35.5486C74.6122 35.5631 74.6685 35.5535 74.7101 35.5246C74.7518 35.4933 74.7787 35.4452 74.7787 35.3923C74.7861 34.6973 75.369 34.1321 76.0768 34.1321C76.7846 34.1321 77.3675 34.6997 77.3749 35.3947C77.3749 35.4476 77.4018 35.4981 77.4459 35.527C77.49 35.5583 77.5463 35.5655 77.5977 35.551C77.7202 35.5126 77.8451 35.4933 77.9725 35.4933C78.6901 35.4933 79.2705 36.1018 79.2705 36.8498C79.2705 37.4101 78.9325 37.92 78.428 38.1172C78.3839 38.134 78.3496 38.1677 78.3325 38.211C78.3153 38.2543 78.3178 38.3024 78.3349 38.3433C78.4158 38.514 78.4549 38.692 78.4549 38.8772C78.4549 39.5819 77.872 40.1519 77.1569 40.1519L77.1593 40.147ZM76.0792 39.6035C76.1478 39.6035 76.2139 39.6324 76.2605 39.6829C76.4956 39.933 76.814 40.0701 77.1569 40.0701C77.8304 40.0701 78.379 39.5314 78.379 38.8724C78.379 38.6992 78.3398 38.5309 78.2664 38.3721C78.237 38.312 78.237 38.2423 78.2615 38.1797C78.286 38.1172 78.3374 38.0691 78.4011 38.0451C78.8762 37.8599 79.1946 37.3789 79.1946 36.8498C79.1946 36.1451 78.646 35.5703 77.9749 35.5703C77.8573 35.5703 77.7398 35.5895 77.6247 35.6232C77.5512 35.6472 77.4679 35.6328 77.4043 35.5895C77.3406 35.5438 77.3014 35.4717 77.3014 35.3947C77.294 34.7406 76.7479 34.2066 76.0817 34.2066C75.4155 34.2066 74.8693 34.7381 74.862 35.3899C74.862 35.4669 74.8228 35.539 74.7616 35.5823C74.6979 35.628 74.6171 35.64 74.5436 35.6184C74.4285 35.5847 74.3085 35.5679 74.1909 35.5679C73.5174 35.5679 72.9688 36.1066 72.9688 36.768C72.9688 37.2899 73.3092 37.7492 73.8162 37.9104C73.8872 37.932 73.946 37.9849 73.9729 38.0547C73.9999 38.1244 73.9925 38.2014 73.9558 38.2639C73.8456 38.4491 73.7844 38.6583 73.7844 38.8724C73.7844 39.5338 74.333 40.0701 75.0065 40.0701C75.3494 40.0701 75.6678 39.933 75.9029 39.6829C75.9494 39.6324 76.0156 39.6035 76.0841 39.6035H76.0792Z" fill="#009D3C"/>
        <path d="M76.0792 37.9272C75.6849 37.9272 75.364 37.6122 75.364 37.225C75.364 36.8378 75.6849 36.5227 76.0792 36.5227C76.4735 36.5227 76.7943 36.8378 76.7943 37.225C76.7943 37.6122 76.4735 37.9272 76.0792 37.9272ZM76.0792 36.6261C75.7436 36.6261 75.4693 36.8955 75.4693 37.225C75.4693 37.5545 75.7436 37.8238 76.0792 37.8238C76.4147 37.8238 76.689 37.5545 76.689 37.225C76.689 36.8955 76.4147 36.6261 76.0792 36.6261Z" fill="#009D3C"/>
        <path d="M76.0547 35.7772V36.5756C76.0547 36.5756 76.0719 36.5756 76.0817 36.5756C76.0915 36.5756 76.0988 36.5756 76.1086 36.5756V35.7772C76.2041 35.7651 76.2776 35.6858 76.2776 35.5872C76.2776 35.4814 76.1894 35.3948 76.0817 35.3948C75.9739 35.3948 75.8857 35.4814 75.8857 35.5872C75.8857 35.6858 75.9592 35.7651 76.0547 35.7772Z" fill="#009D3C"/>
        <path d="M75.4717 35.907L75.7925 36.6406C75.8072 36.6334 75.8244 36.6261 75.8415 36.6213L75.5207 35.8878C75.6039 35.8397 75.6407 35.7363 75.6015 35.6473C75.5598 35.5487 75.4423 35.5054 75.3443 35.5463C75.2439 35.5872 75.1998 35.7026 75.2414 35.7988C75.2806 35.8878 75.3811 35.9335 75.4741 35.907H75.4717Z" fill="#009D3C"/>
        <path d="M74.6023 37.2539H75.4179C75.4179 37.2539 75.4179 37.2346 75.4179 37.225C75.4179 37.2178 75.4179 37.2106 75.4179 37.2034H74.6023C74.5901 37.1096 74.5092 37.0374 74.4088 37.0374C74.3011 37.0374 74.2129 37.124 74.2129 37.2298C74.2129 37.3356 74.3011 37.4222 74.4088 37.4222C74.5092 37.4222 74.5901 37.3501 74.6023 37.2563V37.2539Z" fill="#009D3C"/>
        <path d="M74.4357 36.8715C74.5288 36.9027 74.6317 36.8618 74.6733 36.7753L75.4424 37.0374C75.4473 37.0206 75.4522 37.0037 75.4595 36.9893L74.6905 36.7272C74.7101 36.6334 74.6586 36.5396 74.5631 36.5059C74.4602 36.4698 74.35 36.5251 74.3133 36.6237C74.2766 36.7223 74.3329 36.833 74.4333 36.8691L74.4357 36.8715Z" fill="#009D3C"/>
        <path d="M76.5348 35.8469L76.2727 36.6021C76.2898 36.6069 76.3045 36.6141 76.3217 36.6189L76.5837 35.8638C76.6793 35.883 76.7748 35.8301 76.8066 35.7387C76.8409 35.6377 76.787 35.5295 76.6842 35.4934C76.5813 35.4597 76.4711 35.5126 76.4343 35.6137C76.4025 35.705 76.4466 35.8061 76.5323 35.8469H76.5348Z" fill="#009D3C"/>
        <path d="M77.3724 36.5276L76.6523 36.9003C76.6621 36.9148 76.6695 36.9292 76.6768 36.946L77.3969 36.5709C77.4532 36.6478 77.5585 36.6743 77.6467 36.6286C77.7422 36.5781 77.779 36.4626 77.7275 36.3688C77.6761 36.275 77.5585 36.239 77.463 36.2895C77.3749 36.3352 77.3381 36.4362 77.3724 36.5252V36.5276Z" fill="#009D3C"/>
        <path d="M76.5322 36.7488C76.5445 36.7608 76.5567 36.7729 76.569 36.7849L77.1445 36.2197C77.2204 36.2774 77.3307 36.2726 77.4017 36.2029C77.4776 36.1283 77.4776 36.0057 77.4017 35.9311C77.3258 35.8565 77.2009 35.8565 77.1249 35.9311C77.0539 36.0008 77.049 36.1091 77.1078 36.1836L76.5322 36.7488Z" fill="#009D3C"/>
        <path d="M75.0163 36.2221L75.5918 36.7873C75.6041 36.7752 75.6163 36.7632 75.6286 36.7512L75.053 36.186C75.1118 36.1115 75.1069 36.0032 75.0359 35.9335C74.9599 35.8589 74.835 35.8589 74.7591 35.9335C74.6832 36.008 74.6832 36.1307 74.7591 36.2052C74.8301 36.275 74.9403 36.2798 75.0163 36.2221Z" fill="#009D3C"/>
        <path d="M77.7225 37.5882C77.6294 37.5569 77.5266 37.5978 77.4849 37.6844L76.7134 37.4198C76.7085 37.4366 76.7012 37.4511 76.6963 37.4679L77.4678 37.7325C77.4482 37.8262 77.4996 37.92 77.5951 37.9537C77.698 37.9898 77.8082 37.9345 77.845 37.8359C77.8817 37.7349 77.8254 37.6266 77.725 37.5906L77.7225 37.5882Z" fill="#009D3C"/>
        <path d="M77.1421 38.2375L76.5616 37.6675C76.5494 37.6796 76.5371 37.6916 76.5249 37.7036L77.1054 38.2736C77.0466 38.3482 77.0515 38.4564 77.1225 38.5261C77.1984 38.6007 77.3233 38.6007 77.3993 38.5261C77.4752 38.4516 77.4752 38.3289 77.3993 38.2544C77.3282 38.1846 77.218 38.1798 77.1421 38.2375Z" fill="#009D3C"/>
        <path d="M76.6865 38.5526L76.3632 37.8118C76.3485 37.819 76.3314 37.8263 76.3142 37.8311L76.6375 38.5718C76.5542 38.6199 76.5175 38.7233 76.5567 38.8123C76.5983 38.9109 76.7159 38.9542 76.8138 38.9133C76.9118 38.8724 76.9583 38.757 76.9167 38.6608C76.8775 38.5718 76.7771 38.5261 76.684 38.5526H76.6865Z" fill="#009D3C"/>
        <path d="M77.752 37.0374C77.6516 37.0374 77.5707 37.1095 77.5585 37.2033H76.7429C76.7429 37.2033 76.7429 37.2178 76.7429 37.225C76.7429 37.2346 76.7429 37.2442 76.7429 37.2538H77.5585C77.5707 37.3476 77.6516 37.4198 77.752 37.4198C77.8597 37.4198 77.9479 37.3332 77.9479 37.2274C77.9479 37.1216 77.8597 37.035 77.752 37.035V37.0374Z" fill="#009D3C"/>
        <path d="M76.1062 38.68V37.8743C76.1062 37.8743 76.089 37.8743 76.0792 37.8743C76.0694 37.8743 76.0621 37.8743 76.0523 37.8743V38.68C75.9568 38.692 75.8833 38.7714 75.8833 38.87C75.8833 38.9758 75.9715 39.0624 76.0792 39.0624C76.187 39.0624 76.2752 38.9758 76.2752 38.87C76.2752 38.7714 76.2017 38.692 76.1062 38.68Z" fill="#009D3C"/>
        <path d="M75.6335 37.7036C75.6212 37.6916 75.609 37.6796 75.5967 37.6675L75.0163 38.2375C74.9403 38.1798 74.8301 38.1846 74.7591 38.2544C74.6832 38.3289 74.6832 38.4516 74.7591 38.5261C74.835 38.6007 74.9599 38.6007 75.0359 38.5261C75.1069 38.4564 75.1118 38.3482 75.053 38.2736L75.6335 37.7036Z" fill="#009D3C"/>
        <path d="M75.6262 38.6103L75.8907 37.8479C75.8735 37.8431 75.8564 37.8383 75.8417 37.8311L75.5772 38.5934C75.4817 38.5742 75.3861 38.6271 75.3543 38.7185C75.32 38.8195 75.3739 38.9277 75.4768 38.9638C75.5796 38.9975 75.6898 38.9446 75.7266 38.8436C75.7584 38.7522 75.7143 38.6512 75.6286 38.6103H75.6262Z" fill="#009D3C"/>
        <path d="M74.7859 37.9297L75.5084 37.5545C75.4986 37.5401 75.4913 37.5256 75.4839 37.5088L74.7614 37.884C74.7051 37.807 74.5998 37.7806 74.5116 37.8263C74.4161 37.8768 74.3793 37.9922 74.4308 38.086C74.4822 38.1798 74.5998 38.2159 74.6953 38.1654C74.7834 38.1197 74.8202 38.0187 74.7859 37.9297Z" fill="#009D3C"/>
        <path d="M43.5 54C32.0035 54 21.1732 51.2655 13.0076 46.2991C4.61917 41.1981 0 34.3437 0 26.9988C0 19.6539 4.61916 12.8019 13.0052 7.70089C21.1732 2.73451 32.0035 0 43.5 0C54.9965 0 65.8268 2.73451 73.9924 7.70089C82.3808 12.8019 86.9976 19.6539 86.9976 26.9988C86.9976 34.3437 82.3784 41.1981 73.9924 46.2967C65.8243 51.2631 54.9965 53.9976 43.5 53.9976V54ZM43.5 0.481005C32.0941 0.481005 21.3545 3.19147 13.2648 8.10974C5.02573 13.1194 0.489837 19.827 0.489837 26.9988C0.489837 34.1706 5.02573 40.8782 13.2648 45.8879C21.3569 50.8085 32.0941 53.5166 43.5 53.5166C54.9059 53.5166 65.6455 50.8061 73.7352 45.8879C81.9718 40.8782 86.5102 34.1706 86.5102 26.9988C86.5102 19.827 81.9743 13.1194 73.7352 8.10974C65.6431 3.19147 54.9059 0.481005 43.5 0.481005Z" fill="#009D3C"/>
        <path d="M43.5001 52.6772C20.2573 52.6772 1.34717 41.1596 1.34717 27.0012C1.34717 12.8428 20.2573 1.32275 43.5001 1.32275C66.7429 1.32275 85.6531 12.8404 85.6531 27.0012C85.6531 41.162 66.7429 52.6772 43.5001 52.6772ZM43.5001 1.56326C20.392 1.56326 1.59209 12.9751 1.59209 26.9988C1.59209 41.0225 20.392 52.4343 43.5001 52.4343C66.6082 52.4343 85.4081 41.0225 85.4081 26.9988C85.4081 12.9751 66.6082 1.56326 43.5001 1.56326Z" fill="#009D3C"/>
        <path d="M27.3157 30.7145C26.6103 30.6015 26.1033 30.1277 25.7531 29.4832C25.2388 29.8752 24.6559 30.2023 23.9848 30.4211L23.7766 30.0123C24.4256 29.6539 24.9718 29.2451 25.4298 28.7569C25.131 27.891 24.9988 26.8569 24.9473 25.9334H23.6272V27.0349C23.9921 26.9122 24.3497 26.7823 24.6828 26.6525L24.8665 27.0349C24.5089 27.3042 24.0852 27.5664 23.6297 27.8021V29.7598C23.6297 30.8132 22.5912 31.008 21.1633 30.2744L21.2637 29.8656C22.5275 30.046 22.6255 29.9714 22.6255 29.4976V28.2734C22.143 28.4683 21.663 28.6414 21.1976 28.7713L20.8572 27.7756C21.4474 27.653 22.045 27.5062 22.6255 27.3427V25.931H20.9894V25.3994H22.6255V24.5745C22.143 24.6563 21.6458 24.7044 21.1805 24.7381L21.1143 24.2979C22.3365 24.0358 23.3651 23.6702 24.1807 23.1964L24.8542 23.9877C24.5212 24.1344 24.0974 24.2643 23.6321 24.3797V25.3994H24.9277C24.9106 24.7886 24.9032 24.1849 24.9106 23.2301H25.9147C25.9074 24.1921 25.9147 24.7958 25.9319 25.3994H28.1925V25.931H25.9588C26.0005 26.5587 26.0739 27.196 26.1989 27.766C26.4805 27.3162 26.723 26.8208 26.9312 26.2556L27.8692 26.6477C27.5288 27.4221 27.0879 28.158 26.5148 28.7761C26.6985 29.1994 26.9459 29.5192 27.2618 29.6563C27.5435 29.779 27.6022 29.6251 27.5949 28.3095H28.0259C28.4497 29.8511 28.3835 30.8877 27.3206 30.7073L27.3157 30.7145ZM27.1246 25.2167C26.8503 24.6852 26.4609 24.0502 26.145 23.5764L26.4854 23.2902C27.0242 23.6318 27.6071 24.1705 27.9647 24.6371L27.1246 25.2167Z" fill="#009D3C"/>
        <path d="M34.1268 24.9136C33.9847 25.2142 33.8206 25.5173 33.6443 25.7939H37.3499V29.7333C37.3499 30.7121 36.4437 31.0128 34.9399 30.3273L35.0403 29.904C36.0788 30.0339 36.2625 29.9786 36.2625 29.5289V28.8843H33.6614V30.7362H32.5814V27.1311C32.1087 27.6121 31.5845 27.9945 31.0457 28.2734L30.7959 27.9055C31.7682 27.0902 32.4834 26.1282 32.9806 24.9112H31.0531V24.3316H33.1961C33.3284 23.9324 33.4459 23.4995 33.5439 23.0425L34.6975 23.2638C34.6142 23.6317 34.5064 23.9901 34.3742 24.3316H38.1459V24.9112H34.1243L34.1268 24.9136ZM33.6614 27.083H36.2625V26.3326H33.6614V27.083ZM33.6614 28.3817H36.2625V27.5904H33.6614V28.3817Z" fill="#009D3C"/>
        <path d="M41.8589 29.0262C41.876 29.6467 41.8099 30.3322 41.6752 30.8035L40.7861 30.4933C41.0776 30.0772 41.2931 29.5794 41.467 28.9685L41.8564 29.0262H41.8589ZM42.3904 27.9488V27.4101H41.0947V26.9194H42.3904V26.4384H41.1192V23.5909H44.6754V26.4384H43.3872V26.9194H44.6412V27.4101H43.3872V27.8911C43.8109 27.8574 44.2272 27.8261 44.6338 27.7852L44.7073 28.1676C43.6272 28.5019 42.1724 28.7545 41.0947 28.8531L40.911 27.98C41.4107 27.98 41.9005 27.9632 42.3904 27.9464V27.9488ZM42.5569 25.9502V25.6568L42.0744 25.7458C42.0328 25.296 41.974 24.8247 41.9079 24.3749L42.2238 24.31C42.3732 24.6611 42.4883 25.0844 42.5569 25.4932V24.0815H41.8834V25.9502H42.5569ZM42.574 28.9108C42.7577 29.4158 42.9071 30.0123 42.9904 30.5414L42.192 30.6135C42.2091 30.082 42.2091 29.488 42.1846 28.9589L42.574 28.9108ZM43.3627 28.716C43.637 29.1898 43.8525 29.6948 43.9848 30.159L43.2549 30.3538C43.1888 29.8319 43.1227 29.399 42.9977 28.8122L43.3627 28.7136V28.716ZM43.228 25.9502H43.9088V24.8319C43.8256 25.183 43.7007 25.5654 43.5856 25.8035L43.2696 25.7289C43.3602 25.3129 43.4362 24.6852 43.4778 24.2859L43.9088 24.3845V24.0815H43.228V25.9502ZM46.8087 25.5341V27.0998H47.9476V30.7146H46.9997V30.1349H45.7531V30.7146H44.815V29.7261L44.2321 29.9882C44.1072 29.5553 43.9333 29.0575 43.7668 28.6414L44.0827 28.4875C44.3497 28.7569 44.6314 29.1802 44.815 29.5481V27.0998H45.8045V23.2253H46.8087V25.0291H48.1802V25.5341H46.8087ZM45.7555 27.5904V29.6371H47.0022V27.5904H45.7555Z" fill="#009D3C"/>
        <path d="M58.2905 29.6371L57.7003 30.8276C56.3949 30.4187 55.3491 29.3581 54.8592 27.98C54.3596 29.3509 53.2403 30.4283 50.9724 30.8685L50.8303 30.4283C52.6991 29.791 53.5563 28.7641 53.8869 27.4341H51.0777V26.9026H53.9947C54.0437 26.5346 54.0706 26.145 54.0706 25.7361V25.3682H52.824C52.5154 25.9406 52.1186 26.436 51.6679 26.804L51.3104 26.5009C51.8418 25.6856 52.1749 24.5192 52.3145 23.36L53.4681 23.6053C53.3848 24.0214 53.2526 24.4446 53.0787 24.8463H54.0681V23.182H55.1899V24.8463H57.3158V25.3682H55.1899V25.8083C55.1899 26.1835 55.1654 26.5418 55.114 26.9002H57.9893V27.4317H55.1825C55.7899 28.5909 56.9263 29.3004 58.2905 29.6347V29.6371Z" fill="#009D3C"/>
        <path d="M61.4107 24.6611H60.7788V24.1705H62.5569C62.2826 23.8771 61.9912 23.6077 61.7168 23.3624L61.9422 23.0353C62.432 23.2061 62.9561 23.4754 63.4876 23.8266L63.1717 24.1681H64.5261V24.6587H62.4002V25.8011C62.4002 26.1017 62.4663 26.1835 62.6671 26.2099C62.9414 26.234 63.2158 26.2436 63.4974 26.2027C63.7546 26.1787 63.9211 26.1378 64.095 26.0079L64.5016 26.5875C64.2615 26.792 64.0191 26.9387 63.5292 26.9699C63.1962 26.994 62.6475 27.0036 62.2753 26.9699C61.5944 26.9218 61.4107 26.7415 61.4107 25.9742V24.6611ZM64.9988 29.981H68.048V30.4861H60.8694V29.981H63.9113V29.197H61.3617V28.6991H63.9113V28.0786C63.0884 28.1195 62.2655 28.1364 61.5674 28.1123L61.5013 27.6962C63.5611 27.6073 65.4151 27.3042 66.652 26.7896L67.492 27.6049C66.8773 27.7852 65.9809 27.9223 64.9988 28.0041V28.6967H67.5655V29.1946H64.9988V29.9786V29.981ZM65.6135 23.0786L66.5099 23.348C66.4193 23.5283 66.3115 23.7159 66.1866 23.8939H67.034L67.2985 23.7231L68.1803 24.1561C67.5239 25.7458 66.3434 26.8473 64.3326 27.3138L64.1905 26.9555C64.6314 26.8016 65.0134 26.6044 65.3441 26.3855C65.1286 25.9863 64.9204 25.6424 64.722 25.3489C64.5065 25.4956 64.2811 25.6255 64.0656 25.7313L63.8501 25.397C64.6804 24.7934 65.2461 23.8554 65.6111 23.081L65.6135 23.0786ZM66.2454 25.64C65.9539 25.3465 65.6478 25.0772 65.3563 24.8319C65.2657 24.9208 65.1653 25.0026 65.0649 25.0844C65.322 25.3057 65.638 25.6231 65.9294 25.9502C66.0446 25.8516 66.1548 25.7458 66.2454 25.64ZM65.7972 24.3845C65.7629 24.4254 65.7237 24.4663 65.6821 24.5072C65.9882 24.6539 66.3458 24.8415 66.7034 25.07C66.8601 24.8415 66.9777 24.6058 67.0683 24.3845H65.7972Z" fill="#009D3C"/>
    </g>
    <defs>
        <clipPath id="clip0_58_5266">
            <rect width="87" height="54" fill="white"/>
        </clipPath>
    </defs>
</svg>
