<svg width="60" height="38" viewBox="0 0 60 38" fill="none" xmlns="http://www.w3.org/2000/svg">
<g clip-path="url(#clip0_200_6146)">
<path d="M18.6848 13.1563H16.0542V12.6973H17.2026C16.9824 12.291 16.7097 11.8694 16.5098 11.5804L16.7826 11.3373C17.1806 11.5736 17.6668 11.9952 17.9988 12.3947L17.5787 12.6973H18.6831V13.1563H18.6848ZM18.4713 14.1916H16.2829V13.7411H18.4713V14.1916ZM16.2829 14.7237H18.4713V15.1742H16.2829V14.7237ZM16.2829 15.7369H18.5069V18.2648H17.6972V17.7548H17.101V18.2801H16.2829V15.7369ZM17.101 17.3264H17.6972V16.1738H17.101V17.3264ZM22.4926 13.8873V14.3157H18.6475V13.8873H20.1059V13.4368H18.9863V13.0152H20.1059V12.5783H18.7576V12.1414H20.1059V11.4325H20.9901V12.1414H22.3892V12.5783H20.9901V13.0152H22.125V13.4368H20.9901V13.8873H22.4926ZM18.9355 14.7016H22.169V17.578C22.169 18.3617 21.4102 18.4807 20.3431 17.9843L20.4244 17.6222C21.2273 17.7259 21.3238 17.6885 21.3238 17.3485V16.9337H19.7841V18.3158H18.9372V14.6999L18.9355 14.7016ZM19.7824 15.1368V15.6179H21.3221V15.1368H19.7824ZM21.3221 16.5121V16.031H19.7824V16.5121H21.3221Z" fill="#646464"/>
<path d="M33.1978 18.3243C32.1222 18.1611 31.2008 17.8143 30.4656 17.3111C29.5001 17.9095 28.3585 18.2274 27.1135 18.3379L27.0254 17.9605C28.145 17.7157 29.0953 17.34 29.8541 16.8215C29.2715 16.2741 28.8514 15.6162 28.6024 14.8478H27.7554V14.3667H29.8321V13.1614H27.3421V12.6514H29.8321V11.4546H30.8332V12.6514H33.3299V13.1614H30.8332V14.3667H31.4447L31.7682 14.1525L32.7337 14.6336C32.3509 15.4989 31.8427 16.1857 31.238 16.7263C31.9088 17 32.7032 17.1768 33.6315 17.2805L33.1961 18.3226L33.1978 18.3243ZM30.4504 16.3353C30.8925 15.9137 31.2465 15.4258 31.504 14.8495H29.0428C29.3883 15.4785 29.8524 15.9664 30.4504 16.3353Z" fill="#646464"/>
<path d="M44.3432 18.309C43.791 18.1832 43.1795 17.9469 42.6494 17.5763C42.0379 17.9673 41.3231 18.2189 40.4982 18.3447L40.3796 18.02C41.1164 17.8126 41.7059 17.5253 42.1615 17.1768C41.9193 16.9337 41.7042 16.6515 41.5433 16.3268C41.2113 17.0442 40.7404 17.6205 40.1221 18.02L39.9019 17.7463C40.5727 17.0731 40.9487 16.1789 41.1096 15.0178H40.3V14.5809C40.1526 14.7135 39.9832 14.8478 39.8071 14.9804V17.5746C39.8071 18.3141 38.9974 18.513 38.0692 17.9656L38.1505 17.6035C38.8212 17.7072 38.9313 17.6477 38.9313 17.3451V15.5703C38.7179 15.7029 38.5113 15.8066 38.3486 15.8882L37.9946 15.0161C38.2521 14.9498 38.5841 14.8461 38.9296 14.7203V13.3297H38.12V12.8792H38.9296V11.4818H39.8054V12.8792H40.4321V13.3297H39.8054V14.365C39.9815 14.2834 40.1441 14.2103 40.2847 14.1355L40.4761 14.416C40.4253 14.467 40.3728 14.5197 40.3068 14.5707H41.1605C41.1672 14.4228 41.1825 14.2681 41.1893 14.1049H40.4744V13.6612H40.9894C40.8488 13.2549 40.6794 12.7891 40.5473 12.5307L40.7607 12.3828C40.5981 12.3828 40.4507 12.3828 40.3118 12.376L40.2746 12.0207C41.5941 11.9391 42.978 11.7096 43.8402 11.4002L44.4804 12.1244C44.2145 12.1754 43.8402 12.2281 43.4116 12.2655L44.2145 12.546C43.9858 12.9234 43.6911 13.3365 43.4048 13.6629H44.3991V14.1066H42.0853C42.0701 14.2613 42.0565 14.4177 42.0345 14.5724H44.5685V15.0161H41.9617C41.9329 15.1572 41.9024 15.2898 41.8651 15.4224H43.2134L43.4861 15.2745L44.2822 15.7114C44.0248 16.2367 43.6996 16.6872 43.31 17.0578C43.7453 17.2125 44.2162 17.3009 44.7243 17.391L44.3415 18.3073L44.3432 18.309ZM41.7296 13.3858L41.1926 13.6663H42.0921C41.9955 13.2226 41.8719 12.7279 41.7465 12.3879L41.7753 12.3726C41.4654 12.3879 41.1571 12.3879 40.8759 12.3879C41.1554 12.6242 41.4941 13.0305 41.7296 13.3858ZM42.6426 16.7416C42.878 16.4832 43.0779 16.1942 43.2388 15.8763H41.7431C42.0006 16.2605 42.3021 16.5342 42.6426 16.7416ZM43.3354 12.2757C42.9593 12.3131 42.5477 12.342 42.1429 12.3573C42.3716 12.6242 42.6578 13.0441 42.8272 13.3773L42.1497 13.6663H42.9305C43.0932 13.2515 43.2253 12.7789 43.3354 12.2757Z" fill="#646464"/>
<path d="M21.4409 25.3486C21.9559 24.7281 22.3031 23.9512 22.5538 22.8428L22.9654 22.9091C23.0027 24.0328 22.774 25.1718 22.3912 25.9249L21.4409 25.3486ZM23.421 25.9096V21.8806H24.4086V25.5628C24.4086 25.896 24.4746 25.9912 24.8286 26.0218C25.1014 26.0439 25.4029 26.0507 25.7128 26.0218C26.177 25.9776 26.2142 25.8518 26.221 24.6176H26.6343C27.0171 26.1408 27.0239 26.8582 25.8975 26.9534C25.4334 26.9908 24.9252 26.9823 24.5271 26.9534C23.6429 26.8871 23.4227 26.8055 23.4227 25.9113L23.421 25.9096ZM23.7818 20.6022L23.98 20.2333C24.8202 20.4917 25.6807 20.9354 26.3599 21.4607L25.6671 22.2954C25.0488 21.6086 24.5034 21.1343 23.7818 20.6022ZM26.3684 22.8717L26.7224 22.6728C27.3847 23.397 27.9674 24.3592 28.2773 25.0834L27.3051 25.5203C27.0476 24.604 26.7529 23.7234 26.3701 22.8734L26.3684 22.8717Z" fill="#646464"/>
<path d="M33.2722 21.4454C33.3603 22.1101 33.3382 23.1828 33.2214 23.7812L32.4473 23.5602C32.6759 23.057 32.8741 22.1934 32.9046 21.4454H33.2722ZM34.5307 22.7459C34.4867 22.3991 34.4121 22.0064 34.3325 21.6664V27.1744H33.4636V20.3353H34.3325V21.34L34.5527 21.2516C34.8254 21.6511 35.0169 22.1169 35.1574 22.5606L34.5307 22.7459ZM39.0991 22.7527V23.1964H34.7679V22.7527H36.4261V22.2869H35.1964V21.85H36.4261V21.4216H34.8797V20.9779H36.4261V20.2911H37.3696V20.9779H38.9602V21.4216H37.3696V21.85H38.6739V22.2869H37.3696V22.7527H39.1008H39.0991ZM35.0321 23.6333H38.6705V26.3686C38.6705 27.2118 37.9777 27.4413 36.8073 26.8633L36.8886 26.5012C37.6762 26.6202 37.7795 26.5522 37.7795 26.2122V25.8212H35.9231V27.1744H35.0321V23.6333ZM35.9231 24.077V24.5207H37.7795V24.077H35.9231ZM37.7795 25.3996V24.9338H35.9231V25.3996H37.7795Z" fill="#646464"/>
<path d="M30.0002 37.15C13.9255 37.15 0.847168 29.0087 0.847168 18.9991C0.847168 8.98955 13.9255 0.849976 30.0002 0.849976C46.075 0.849976 59.1533 8.99125 59.1533 18.9991C59.1533 29.007 46.075 37.15 30.0002 37.15ZM30.0002 1.01998C14.0186 1.01998 1.01655 9.08645 1.01655 18.9991C1.01655 28.9118 14.0186 36.98 30.0002 36.98C45.9818 36.98 58.9839 28.9135 58.9839 18.9991C58.9839 9.08475 45.9818 1.01998 30.0002 1.01998Z" fill="#646464"/>
<path d="M30.0002 32.2812C17.53 32.2812 7.38379 26.3228 7.38379 18.9992C7.38379 11.6756 17.5283 5.71881 30.0002 5.71881C42.4722 5.71881 52.6167 11.6773 52.6167 19.0009C52.6167 26.3245 42.4705 32.2829 30.0002 32.2829V32.2812ZM30.0002 5.88881C17.6232 5.88881 7.55318 11.7708 7.55318 19.0009C7.55318 26.231 17.6232 32.1129 30.0002 32.1129C42.3773 32.1129 52.4473 26.231 52.4473 19.0009C52.4473 11.7708 42.3773 5.88881 30.0002 5.88881Z" fill="#646464"/>
<path d="M16.371 7.34229L16.3354 7.68058C15.6951 7.67718 14.9041 7.40689 14.4417 6.71499L14.4027 6.72859C14.4569 7.54969 14.0893 8.18208 13.2814 8.70568L13.2034 8.61218C13.8844 8.08688 14.1639 7.50719 14.1368 6.81529L12.7918 7.25389L12.7461 7.11109L13.2458 6.94789L12.885 5.83269L13.8319 5.52329L13.6286 4.89599L13.881 4.81439L14.0842 5.44169L15.0176 5.13739L15.3784 6.25259L15.8831 6.08769L15.9289 6.23049L14.5619 6.67589C14.9667 7.13829 15.6358 7.37289 16.371 7.34229ZM14.1249 6.66059C14.1012 6.42769 14.0453 6.18289 13.9589 5.91939L13.8759 5.66269L13.1628 5.89559L13.4795 6.87139L14.1249 6.66059ZM14.1283 5.57939L14.2384 5.91769C14.3129 6.14889 14.3637 6.36479 14.3874 6.57389L15.1395 6.32909L14.8228 5.35329L14.1266 5.57939H14.1283Z" fill="#646464"/>
<path d="M29.7034 3.57512C29.7712 3.39662 29.8338 3.15522 29.8677 2.94612L29.5052 2.95972L29.5662 4.64781C29.5764 4.92831 29.4188 5.12551 28.7515 4.85351L28.7803 4.73961C29.2647 4.81611 29.3206 4.79911 29.3121 4.60021L29.2528 2.96822L28.6193 2.99202L28.6143 2.84922L29.5171 2.81692C29.3765 2.65712 29.1597 2.43952 28.9852 2.27462L29.053 2.18282C29.1597 2.24232 29.2935 2.32392 29.4155 2.41402C29.5289 2.24062 29.6475 2.01962 29.7051 1.85302L28.6939 1.89042L28.6888 1.75272L29.7 1.71532L29.7796 1.65582L30.0388 1.80032C29.8982 2.05192 29.6916 2.31882 29.5188 2.49052C29.6035 2.55172 29.6797 2.61632 29.7339 2.66902L29.6018 2.81692L29.8474 2.80842L29.9202 2.74552L30.1675 2.85942C30.0693 3.13652 29.8982 3.47652 29.7966 3.62272L29.7017 3.57682L29.7034 3.57512ZM30.7367 4.24492L30.9738 4.39792C30.6875 4.65632 30.2454 4.90791 29.844 5.03881L29.7949 4.93171C30.1184 4.78891 30.4826 4.53222 30.7367 4.24492ZM30.8315 1.86492L30.1049 1.89212L30.0998 1.74592L31.8817 1.68132L31.8868 1.82752L31.1076 1.85642C31.0382 2.02302 30.9586 2.19132 30.8959 2.30692L31.6683 2.27802L31.736 4.12762L30.3183 4.17862L30.2505 2.32902L30.7655 2.31032C30.7943 2.17432 30.8146 2.00092 30.8315 1.86492ZM31.4312 2.43612L30.4944 2.47012L30.5097 2.87132L31.4464 2.83732L31.4312 2.43612ZM31.4515 2.98182L30.5148 3.01582L30.53 3.43912L31.4667 3.40512L31.4515 2.98182ZM31.4718 3.55132L30.5351 3.58532L30.5503 4.02392L31.487 3.98992L31.4718 3.55132ZM32.0884 4.67841L31.9359 4.92321C31.736 4.76171 31.3753 4.51352 31.0856 4.34012L31.1347 4.23302C31.4481 4.32992 31.8089 4.49992 32.0884 4.67841Z" fill="#646464"/>
<path d="M31.9295 34.9995C31.772 34.9672 31.5721 34.9111 31.3637 34.8329L31.4061 36.0161L31.1639 36.0246L31.1571 35.8478L29.5682 35.9056L29.575 36.0892L29.3362 36.0977L29.2921 34.9077C29.094 35.0012 28.8907 35.0828 28.6925 35.1474L28.6519 35.0403C29.138 34.8533 29.7241 34.5218 30.0053 34.1631L28.7264 34.2107L28.7213 34.0645L29.6766 34.0288C29.5598 33.8979 29.431 33.7636 29.3311 33.6701L29.3734 33.6123C29.3057 33.6191 29.2396 33.6242 29.1753 33.6276L29.1566 33.5154C29.9782 33.4253 30.6557 33.2536 30.9945 33.1261L31.2265 33.3233C31.0046 33.3845 30.7116 33.4474 30.3931 33.4967L30.4118 34.0016L30.6997 33.9914C30.8065 33.8418 30.9335 33.6225 31.0233 33.4321L31.2435 33.5511C31.1113 33.7211 30.9826 33.8758 30.8556 33.9846L31.8583 33.9472L31.8634 34.0934L30.4728 34.1444C30.9081 34.4912 31.523 34.6612 32.0294 34.7326L31.9312 34.9978L31.9295 34.9995ZM29.0228 33.7466L28.7772 33.7551L28.7518 33.0547L30.3339 32.9969C30.1391 32.8949 29.8968 32.7878 29.6953 32.7096L29.7241 32.5991C29.9341 32.6297 30.261 32.6909 30.5032 32.7912L30.4135 32.9935L31.7669 32.9442L31.7923 33.6412L31.5467 33.6497L31.5263 33.104L29.0008 33.1958L29.0211 33.7466H29.0228ZM31.235 34.7819C30.9318 34.6544 30.6218 34.4742 30.4202 34.2498L30.4372 34.7071L30.1916 34.7156L30.1763 34.2957C30.0002 34.5014 29.7241 34.6867 29.4158 34.8482L31.2367 34.7819H31.235ZM29.885 33.9319L29.7952 34.0254L30.1645 34.0118L30.1475 33.5324C29.9172 33.563 29.6749 33.5902 29.4412 33.6106C29.6004 33.6956 29.763 33.8129 29.8867 33.9319H29.885ZM30.2068 34.9655L29.5361 34.991L29.5462 35.2936L30.217 35.2681L30.2068 34.9655ZM30.2238 35.4143L29.553 35.4398L29.5648 35.7611L30.2356 35.7356L30.2238 35.4143ZM31.1249 34.9315L30.4457 34.957L30.4575 35.2596L31.1368 35.2341L31.1266 34.9315H31.1249ZM31.1401 35.382L30.4609 35.4075L30.4728 35.7288L31.152 35.7033L31.1401 35.382Z" fill="#646464"/>
<path d="M15.126 31.7287L14.8109 32.9901C14.7313 33.3097 14.4451 33.2995 13.981 32.9833L14.025 32.8864C14.4959 33.0632 14.5467 33.0632 14.5975 32.8609L14.8584 31.8137C14.6839 31.863 14.5128 31.9038 14.3485 31.9327L14.2977 31.6607C14.4773 31.6488 14.6958 31.625 14.916 31.5876L15.1243 30.7512L14.6178 30.6237L14.6534 30.4826L15.1599 30.6101L15.3394 29.8876L15.5715 29.9454L15.3919 30.6679L15.7832 30.7665L15.7477 30.9076L15.3564 30.809L15.1751 31.54C15.3005 31.5145 15.4241 31.4822 15.5359 31.4499L15.5647 31.5536C15.4292 31.6199 15.2801 31.6794 15.1277 31.7304L15.126 31.7287ZM17.2958 33.6752L17.1265 33.9098C16.9537 33.8282 16.349 33.4644 16.2829 32.7555H16.2795C15.9289 33.2961 15.3767 33.4151 14.7957 33.3556L14.7872 33.2502C15.3445 33.2706 15.7595 33.1159 16.0373 32.6943L15.1362 32.4682L15.1717 32.3237L16.1169 32.56C16.1745 32.4512 16.2287 32.3254 16.2728 32.1826L16.5082 32.2574C16.4659 32.3934 16.4167 32.5158 16.3591 32.6212L17.4127 32.8847L17.3772 33.0309L16.3998 32.7861C16.537 33.2383 16.9689 33.5273 17.2975 33.6752H17.2958ZM16.5776 30.1664L16.8029 30.316C16.7267 30.4061 16.6573 30.4843 16.5861 30.5557L17.0384 30.6696L17.1265 30.6407L17.3297 30.8277C17.2027 30.9688 16.9791 31.1405 16.8148 31.2391L17.5431 31.4227L17.2332 32.6654L17.0045 32.6076L17.2789 31.506L16.0407 31.1949L15.7629 32.3067L15.5342 32.2489L15.8222 31.0929C15.7426 31.1303 15.6613 31.1643 15.5783 31.1932L15.5342 31.0929C15.9238 30.9042 16.3032 30.5829 16.5776 30.1647V30.1664ZM16.764 31.4567C16.7149 31.5298 16.6674 31.5944 16.6149 31.6539C16.7911 31.829 16.9367 32.0279 17.0197 32.1758L16.8199 32.2999C16.7487 32.1231 16.6471 31.9242 16.537 31.7389C16.3507 31.9276 16.1389 32.0568 15.9035 32.1367L15.8561 32.0313C16.1491 31.8766 16.3829 31.6624 16.5692 31.3309L16.764 31.4567ZM15.9628 31.0232L16.6623 31.1983C16.7911 31.0844 16.9198 30.9348 17.0062 30.809L16.4591 30.6713C16.2914 30.8192 16.1288 30.9314 15.9645 31.0215L15.9628 31.0232Z" fill="#646464"/>
<path d="M45.1823 30.9076C45.1484 31.0334 45.1078 31.1609 45.0603 31.2816L46.6865 30.7512L47.2488 32.4903L47.0083 32.5685L46.9304 32.3305L45.4889 32.8014L45.5702 33.0547L45.3297 33.1329L44.8689 31.7117C44.7148 32.0109 44.5217 32.2863 44.3066 32.5175L44.2151 32.441C44.5539 32.0075 44.7995 31.5094 44.9231 30.9926L43.9898 31.2969L43.9441 31.1541L44.9621 30.8209C44.979 30.7172 44.9977 30.6118 45.0062 30.5064L44.044 30.8209L43.9983 30.6815L45.0163 30.3483C45.0248 30.2395 45.0231 30.129 45.0163 30.0219C44.6437 30.1834 44.2575 30.333 43.9119 30.4418L43.8628 30.3398C44.7995 29.9709 45.5448 29.5595 46.0275 29.2076L46.3257 29.3419C46.0936 29.5 45.7091 29.704 45.2822 29.8995C45.289 30.0202 45.2941 30.1409 45.2856 30.2616L46.6136 29.8281L46.6594 29.9675L45.2755 30.4197C45.2636 30.5268 45.245 30.6305 45.2213 30.7376L46.9609 30.1698L47.0066 30.3126L45.1823 30.9076ZM46.4917 30.9739L45.0502 31.4448L45.1501 31.7508L46.5916 31.2799L46.4917 30.9739ZM46.6339 31.4159L45.1925 31.8868L45.2958 32.203L46.7373 31.7321L46.6339 31.4142V31.4159ZM46.7796 31.8647L45.3381 32.3356L45.4449 32.6637L46.8863 32.1928L46.7796 31.8647Z" fill="#646464"/>
<path d="M46.9182 7.87605C46.7827 7.78935 46.6167 7.66185 46.4524 7.51225L46.0611 8.62915L45.8324 8.54925L45.89 8.38265L44.391 7.85225L44.33 8.02565L44.1047 7.94575L44.4994 6.82205C44.2809 6.83565 44.0623 6.83905 43.854 6.82375V6.70815C44.3757 6.71325 45.0414 6.61976 45.4344 6.38856L44.2267 5.96186L44.2758 5.82416L45.1769 6.14206C45.1159 5.97716 45.0448 5.80546 44.9855 5.68136L45.0465 5.64396C44.9821 5.62526 44.9178 5.60656 44.8568 5.58446L44.8805 5.47396C45.6783 5.69156 46.3711 5.78166 46.7336 5.78676L46.8759 6.05536C46.6472 6.02986 46.3525 5.98226 46.0374 5.90916L45.8697 6.38686L46.1407 6.48206C46.2949 6.38176 46.4913 6.22536 46.6455 6.08086L46.8081 6.27296C46.6235 6.38176 46.4473 6.47866 46.2898 6.53476L47.2366 6.86965L47.1875 7.00735L45.8748 6.54326C46.1526 7.02605 46.6624 7.40855 47.1079 7.66185L46.9199 7.87265L46.9182 7.87605ZM45.1786 7.63465L44.5451 7.41025L44.4384 7.71455L45.0719 7.93895L45.1786 7.63465ZM44.6704 5.64056L44.4384 5.55896L44.6704 4.89766L46.1627 5.42466C46.0188 5.25806 45.8324 5.06936 45.6749 4.92316L45.7427 4.83136C45.9273 4.93676 46.2085 5.11526 46.3982 5.29716L46.2407 5.45186L47.5178 5.90406L47.2875 6.56196L47.0554 6.48036L47.2366 5.96356L44.8534 5.12206L44.6704 5.64226V5.64056ZM45.3277 7.21135L44.6942 6.98695L44.5942 7.27255L45.2277 7.49695L45.3277 7.21135ZM46.3508 7.41705C46.1153 7.18755 45.8934 6.90535 45.7867 6.62146L45.636 7.05325L45.4039 6.97165L45.5428 6.57556C45.304 6.70136 44.9787 6.77275 44.6332 6.81015L46.3508 7.41705ZM45.4056 6.13016L45.287 6.18456L45.636 6.30696L45.7952 5.85476C45.5699 5.79866 45.3344 5.73576 45.1092 5.66776C45.2277 5.80546 45.3344 5.97376 45.4056 6.13016ZM46.0442 7.94065L45.4039 7.71455L45.2972 8.01885L45.9375 8.24495L46.0442 7.94065ZM46.1932 7.51735L45.5529 7.29125L45.453 7.57685L46.0933 7.80295L46.1932 7.51735Z" fill="#646464"/>
<path d="M20.6296 4.68346C20.738 4.46246 20.8481 4.17346 20.9412 3.84537C20.7447 3.94566 20.5161 4.04596 20.3433 4.11396L20.2383 3.89126L20.428 3.85387C20.5025 3.54447 20.5652 3.12627 20.5855 2.70297L20.8498 2.73017C20.7786 3.09907 20.6584 3.54447 20.55 3.82157C20.6939 3.78417 20.843 3.74337 20.9785 3.70087C21.0192 3.54447 21.0547 3.37617 21.0818 3.20617L21.3359 3.26227C21.219 3.72807 20.992 4.28226 20.7735 4.63586C20.9514 4.57636 21.136 4.51006 21.3088 4.44036C21.2444 4.34686 21.1801 4.25676 21.1242 4.18026L21.2089 4.10886C21.3749 4.25166 21.5798 4.45906 21.7086 4.64606L21.5222 4.78206C21.4765 4.70726 21.4257 4.62226 21.3698 4.53726C21.0903 4.71576 20.7244 4.90446 20.5127 4.98946L20.3924 4.74636C20.4653 4.72766 20.5449 4.70726 20.6279 4.68346H20.6296ZM20.7532 5.09146H20.8599C20.9311 5.48756 20.9362 5.87176 20.8904 6.13696L20.6228 6.07236C20.7092 5.81736 20.7668 5.47396 20.7549 5.09146H20.7532ZM21.114 4.97586C21.2495 5.21556 21.4121 5.58786 21.4917 5.79866L21.2512 5.89216C21.197 5.66266 21.0954 5.28186 21.0141 5.01156L21.114 4.97586ZM21.778 5.34646L21.5832 5.47396C21.4884 5.26316 21.3783 5.06086 21.2766 4.87386L21.3681 4.81436C21.5171 4.97076 21.6527 5.15436 21.778 5.34646ZM22.4623 4.37236L21.7492 4.51516L21.4426 2.97667L22.0829 2.84747C22.0998 2.70297 22.1049 2.54147 22.1032 2.37317L22.3675 2.38167C22.3251 2.53127 22.2709 2.69617 22.215 2.82027L23.1992 2.62137L23.5057 4.15986L22.4911 4.36386C22.6927 4.44206 22.94 4.57126 23.1348 4.71236L22.9908 4.92486C22.8062 4.74806 22.5843 4.58316 22.4098 4.45736L22.4606 4.37066L22.4623 4.37236ZM21.9508 4.32646L22.1303 4.29076L22.0795 4.22786C22.232 4.09866 22.3759 3.93886 22.4894 3.74507C22.3844 3.69747 22.2794 3.64987 22.1761 3.60567C22.1235 3.70767 22.066 3.79947 22.0101 3.87936L21.9186 3.82497C21.966 3.73487 22.005 3.64647 22.0355 3.55297C21.9779 3.53087 21.9203 3.50707 21.8627 3.48837L21.8881 3.38807L22.0761 3.43057C22.1168 3.28947 22.1473 3.14157 22.1659 2.98177L21.7018 3.07527L21.9525 4.32816L21.9508 4.32646ZM21.8881 4.85006L22.0016 4.84666C22.0609 5.16286 22.0626 5.45356 21.9965 5.73406L21.7407 5.65246C21.8593 5.38386 21.9 5.16966 21.8898 4.85176L21.8881 4.85006ZM23.3025 4.87896C23.5057 5.34306 23.4922 5.52496 23.2246 5.59806C23.0433 5.64566 22.8604 5.68306 22.7045 5.70176C22.398 5.74426 22.3116 5.67456 22.2557 5.39916L22.0998 4.62056L22.337 4.57296L22.4877 5.32606C22.5165 5.47226 22.5741 5.49266 22.7147 5.47566C22.8367 5.45866 22.9908 5.43146 23.128 5.38896C23.2686 5.34646 23.2838 5.31586 23.1924 4.90616L23.3008 4.88066L23.3025 4.87896ZM22.9976 2.81347L22.2336 2.96817L22.3895 2.98687C22.3742 3.05827 22.3607 3.12627 22.3387 3.19257L22.6385 3.13307L22.7045 3.06167L22.9197 3.12627C22.8807 3.33197 22.8231 3.50537 22.7503 3.64987C22.8824 3.70257 23.0077 3.75867 23.1314 3.82157L23.0179 4.02046C22.9044 3.95076 22.7825 3.88786 22.6554 3.82157C22.5216 4.02726 22.3641 4.17006 22.2099 4.27886L23.25 4.06976L22.9993 2.81687L22.9976 2.81347ZM22.2387 3.47477C22.3471 3.50537 22.4572 3.54107 22.569 3.58017C22.6131 3.47987 22.6453 3.36937 22.669 3.24697L22.2997 3.32177C22.2794 3.37447 22.2591 3.42547 22.2387 3.47477ZM23.9038 5.11016L23.7124 5.25976C23.5752 5.02686 23.4363 4.81436 23.2635 4.59676L23.3397 4.52366C23.5481 4.69196 23.748 4.88916 23.9021 5.11016H23.9038Z" fill="#646464"/>
<path d="M8.25778 10.7168L7.43117 11.2965L7.59548 11.5328L7.38035 11.6824L6.44873 10.3428L7.48876 9.61348L7.07377 9.01848L7.29397 8.86378L7.70896 9.45878L8.75238 8.72778L9.67215 10.0487L9.46042 10.1966L9.30797 9.97898L8.47628 10.5621L9.29273 11.7351L9.07252 11.8898L8.25608 10.7168H8.25778ZM8.168 10.5876L7.58192 9.74608L6.75532 10.3258L7.3414 11.1673L8.168 10.5876ZM9.22158 9.84978L8.63551 9.00828L7.80382 9.59138L8.3899 10.4329L9.22158 9.84978Z" fill="#646464"/>
<path d="M39.6889 5.66101L38.7658 5.42981L38.5947 6.11321L38.3558 6.05371L38.5252 5.37031L37.6817 5.15781C37.4107 5.58281 36.9516 5.67801 36.374 5.58961L36.3808 5.47061C36.9025 5.50801 37.2294 5.42811 37.4395 5.09491L36.5383 4.86881L36.5739 4.72771L37.5123 4.96231C37.5513 4.88241 37.5851 4.79231 37.6139 4.69031L37.1363 4.56961L37.453 3.29801L39.6042 3.83861L39.2875 5.11021L38.8708 5.00651L38.8013 5.28701L39.7245 5.51821L39.6889 5.65931V5.66101ZM36.9211 3.34731L36.8686 3.24871C37.1854 3.04642 37.5292 2.66902 37.7427 2.28992L37.973 2.43272C37.912 2.52452 37.8426 2.61632 37.763 2.70472L38.7217 2.94612L38.6861 3.08721L38.0594 2.93082C38.1255 3.05151 38.178 3.18071 38.2271 3.33881L37.9849 3.38641C37.9663 3.19601 37.9442 3.05492 37.9154 2.89342L37.6478 2.82542C37.4225 3.05152 37.1583 3.24701 36.9211 3.34561V3.34731ZM37.4056 4.48971L39.0859 4.91131L39.1469 4.66481L37.4666 4.24321L37.4056 4.48971ZM37.5004 4.11061L39.1808 4.53221L39.2417 4.28571L37.5614 3.86411L37.5004 4.11061ZM37.5953 3.73321L39.2756 4.15481L39.3349 3.91851L37.6546 3.49691L37.5953 3.73321ZM38.5608 5.22751L38.6302 4.94871L37.8562 4.75491C37.8274 4.85521 37.7935 4.94701 37.7545 5.02691L38.5625 5.22921L38.5608 5.22751ZM38.3745 3.41191C38.6286 3.25551 38.9199 2.98522 39.1316 2.64012L39.3518 2.78802C39.2824 2.88322 39.2028 2.96652 39.1266 3.04471L40.2564 3.32861L40.2208 3.46971L39.4535 3.27761C39.5212 3.40681 39.5822 3.54961 39.6279 3.70771L39.3874 3.74681C39.3688 3.55641 39.3484 3.40851 39.3163 3.24191L38.9944 3.16031C38.7946 3.32691 38.5896 3.44081 38.4253 3.51221L38.3745 3.41021V3.41191Z" fill="#646464"/>
<path d="M37.2954 33.1788L37.0532 33.2281L36.916 32.5413L38.4676 32.2285C38.2592 32.1588 38.0035 32.0925 37.7917 32.0466L37.8036 31.9327C38.0153 31.9276 38.349 31.9378 38.6048 31.9973L38.5489 32.2115L39.8769 31.9446L40.0124 32.628L39.7702 32.6773L39.6635 32.1401L37.1853 32.6382L37.2937 33.1788H37.2954ZM40.3647 33.9472C40.2038 33.9421 39.9972 33.9183 39.7786 33.8741L40.0107 35.0352L39.7736 35.0828L39.7397 34.9094L38.1813 35.2222L38.2169 35.4024L37.9831 35.45L37.7494 34.2821C37.5682 34.4062 37.3818 34.5201 37.1955 34.6153L37.1379 34.5167C37.5885 34.2549 38.1119 33.8316 38.3338 33.4321L37.0786 33.6837L37.0498 33.5409L37.9865 33.3522C37.851 33.2417 37.702 33.1312 37.5885 33.0547L37.6207 32.9901C37.5563 33.0071 37.4902 33.0241 37.4276 33.036L37.3903 32.9289C38.1881 32.7079 38.8284 32.4291 39.1418 32.2489L39.4009 32.407C39.1909 32.5022 38.9131 32.6127 38.6048 32.7113L38.703 33.2077L38.9842 33.1516C39.0655 32.9867 39.1553 32.7504 39.2146 32.5481L39.4517 32.6297C39.3484 32.8184 39.2468 32.9918 39.1384 33.121L40.1225 32.9238L40.1513 33.0666L38.786 33.3403C39.2705 33.614 39.904 33.6803 40.4155 33.6701L40.3613 33.9489L40.3647 33.9472ZM38.1746 33.223L38.1 33.3301L38.4625 33.257L38.3694 32.7861C38.1475 32.8541 37.912 32.9204 37.685 32.9765C37.8561 33.0343 38.034 33.1244 38.1762 33.2213L38.1746 33.223ZM39.6431 33.8435C39.323 33.767 38.9893 33.6378 38.7539 33.4491L38.8436 33.8979L38.6014 33.9472L38.5184 33.5358C38.3778 33.767 38.1339 33.9948 37.8561 34.2039L39.6414 33.8452L39.6431 33.8435ZM38.6573 34.1903L37.9984 34.3229L38.0577 34.6204L38.7166 34.4878L38.6573 34.1903ZM38.7454 34.6323L38.0865 34.7649L38.1491 35.0811L38.8081 34.9485L38.7454 34.6323ZM39.5584 34.0101L38.8928 34.1444L38.952 34.4419L39.6177 34.3076L39.5584 34.0101ZM39.6465 34.4504L38.9808 34.5847L39.0435 34.9009L39.7092 34.7666L39.6465 34.4504Z" fill="#646464"/>
<path d="M21.937 32.8626L21.3052 35.399L21.0698 35.3395L21.5966 33.2281C21.4103 33.4015 21.2053 33.5511 20.9834 33.6684L20.9292 33.5613C21.4306 33.2009 21.8439 32.6518 22.1911 31.9905L22.4317 32.135C22.2826 32.3951 22.1217 32.6399 21.9387 32.8609L21.937 32.8626ZM22.6739 33.8435C22.4435 34.2413 22.0692 34.7105 21.6694 35.0012L21.5966 34.9094C21.9167 34.6 22.225 34.1444 22.4333 33.6956L22.6739 33.8452V33.8435ZM23.4158 33.1686L22.85 35.4364C22.7704 35.756 22.4909 35.8138 21.8439 35.3497L21.8947 35.2511C22.4909 35.501 22.5706 35.4857 22.6231 35.2749L23.1634 33.1057L22.6485 32.9765C22.4554 33.2298 22.2301 33.4542 21.9913 33.6259L21.9133 33.5324C22.2945 33.1805 22.5909 32.7113 22.8094 32.1775L23.0669 32.3033C22.9788 32.4852 22.867 32.6705 22.7433 32.8473L24.0645 33.1788L24.1696 33.1397L24.3999 33.359C24.2017 33.5647 23.9189 33.7755 23.7241 33.8758L23.6512 33.7806C23.7918 33.6497 23.9544 33.4593 24.0425 33.3233L23.4124 33.1652L23.4158 33.1686ZM23.9595 35.4007L23.6665 35.45C23.6428 35.0199 23.5496 34.3892 23.4666 33.9982L23.5716 33.9625C23.7376 34.3637 23.8952 34.9774 23.9595 35.399V35.4007Z" fill="#646464"/>
<path d="M49.898 11.1911L52.2999 13.4385L52.1983 13.5473L49.7964 11.2999L49.898 11.1911ZM51.4242 10.5213L52.8521 11.8575L52.0221 12.75L50.5942 11.4138L51.4242 10.5213ZM50.767 10.2238L50.8059 10.1116C51.3378 10.2867 52.0611 10.3598 52.5642 10.2187L51.6901 9.40098L51.7901 9.29388L52.8182 10.2578L53.1875 9.85998L53.3789 10.0385L53.0096 10.4363L54.0361 11.3968L53.9362 11.5039L52.9859 10.6148C52.9487 11.1996 53.1502 11.7776 53.45 12.2638L53.1519 12.359C52.8928 11.8201 52.7725 11.1588 52.886 10.5689L52.3152 11.1826L52.1238 11.0041L52.6573 10.4295C52.1136 10.5859 51.3243 10.4584 50.7653 10.2255L50.767 10.2238ZM50.8737 11.475L51.9391 12.4712L52.2237 12.1652L51.1582 11.169L50.8737 11.475ZM51.2599 11.0585L52.3236 12.0547L52.5675 11.7912L51.5021 10.795L51.2582 11.0585H51.2599Z" fill="#646464"/>
<path d="M5.22057 21.5475C4.94109 21.5475 4.67176 21.4336 4.47527 21.2347C4.27879 21.4336 4.00777 21.5475 3.72997 21.5475C3.15067 21.5475 2.67809 21.0732 2.67809 20.4918C2.67809 20.3184 2.72043 20.1484 2.80343 19.9954C2.39013 19.8424 2.11572 19.4497 2.11572 19.0043C2.11572 18.4229 2.58831 17.9486 3.16761 17.9486C3.25569 17.9486 3.34208 17.9588 3.42677 17.9809C3.45726 17.4284 3.91969 16.9847 4.47697 16.9847C5.03425 16.9847 5.49667 17.4284 5.52716 17.9826C5.61186 17.9605 5.69994 17.9486 5.78632 17.9486C6.36562 17.9486 6.83821 18.4467 6.83821 19.0604C6.83821 19.5058 6.58074 19.9121 6.19285 20.0855C6.24705 20.2164 6.27416 20.3524 6.27416 20.4918C6.27416 21.0732 5.80157 21.5475 5.22227 21.5475H5.22057ZM4.47358 21.1293L4.50068 21.1582C4.68701 21.3605 4.94786 21.4761 5.22057 21.4761C5.76092 21.4761 6.19963 21.0358 6.19963 20.4935C6.19963 20.3524 6.16914 20.213 6.10985 20.0821L6.09461 20.0481L6.13018 20.0345C6.5096 19.8832 6.76538 19.4922 6.76538 19.0621C6.76538 18.4892 6.32667 18.0234 5.78632 18.0234C5.69147 18.0234 5.59492 18.0387 5.50345 18.0676L5.45771 18.0829V18.0336C5.45263 17.4964 5.01223 17.0595 4.47866 17.0595C3.94509 17.0595 3.50638 17.4947 3.49961 18.0302V18.0778L3.45387 18.0642C3.36071 18.0353 3.26586 18.0217 3.16931 18.0217C2.62896 18.0217 2.19025 18.462 2.19025 19.0043C2.19025 19.4327 2.46296 19.8084 2.86949 19.941L2.91184 19.9546L2.88812 19.9937C2.79835 20.145 2.75092 20.3184 2.75092 20.4918C2.75092 21.0341 3.18963 21.4744 3.72997 21.4744C4.00099 21.4744 4.26354 21.3588 4.44987 21.1565L4.47697 21.1276L4.47358 21.1293Z" fill="#646464"/>
<path d="M5.22044 21.3945C4.96805 21.3945 4.73261 21.2908 4.55983 21.1038C4.51579 21.0562 4.4311 21.0562 4.38706 21.1038C4.21428 21.2908 3.98053 21.3945 3.72645 21.3945C3.23015 21.3945 2.8287 20.9899 2.8287 20.4935C2.8287 20.3337 2.87275 20.1756 2.95405 20.0362C2.97268 20.0056 2.97607 19.9682 2.96252 19.9342C2.94897 19.9002 2.92356 19.8747 2.88799 19.8645C2.51534 19.7438 2.26465 19.3987 2.26465 19.006C2.26465 18.5079 2.66779 18.105 3.1624 18.105C3.25048 18.105 3.33856 18.1186 3.42325 18.1441C3.45882 18.1543 3.49778 18.1475 3.52658 18.1271C3.55537 18.105 3.574 18.071 3.574 18.0336C3.57909 17.5423 3.98223 17.1428 4.47175 17.1428C4.96128 17.1428 5.36442 17.544 5.3695 18.0353C5.3695 18.0727 5.38813 18.1084 5.41862 18.1288C5.44911 18.1509 5.48807 18.156 5.52364 18.1458C5.60833 18.1186 5.69472 18.105 5.7828 18.105C6.2791 18.105 6.68055 18.5351 6.68055 19.0638C6.68055 19.4599 6.4468 19.8203 6.09786 19.9597C6.06737 19.9716 6.04366 19.9954 6.0318 20.026C6.01994 20.0566 6.02164 20.0906 6.03349 20.1195C6.08939 20.2402 6.11649 20.366 6.11649 20.4969C6.11649 20.995 5.71335 21.3979 5.21874 21.3979L5.22044 21.3945ZM4.47345 21.0103C4.52087 21.0103 4.56661 21.0307 4.59879 21.0664C4.7614 21.2432 4.9816 21.3401 5.21874 21.3401C5.68456 21.3401 6.06398 20.9593 6.06398 20.4935C6.06398 20.3711 6.03688 20.2521 5.98606 20.1399C5.96574 20.0974 5.96574 20.0481 5.98268 20.0039C5.99962 19.9597 6.03519 19.9257 6.07923 19.9087C6.40784 19.7778 6.62804 19.4378 6.62804 19.0638C6.62804 18.5657 6.24861 18.1594 5.7845 18.1594C5.70319 18.1594 5.62188 18.173 5.54227 18.1968C5.49146 18.2138 5.43387 18.2036 5.38983 18.173C5.34578 18.1407 5.31868 18.0897 5.31868 18.0353C5.3136 17.5729 4.93587 17.1955 4.47514 17.1955C4.01441 17.1955 3.63668 17.5712 3.6316 18.0319C3.6316 18.0863 3.60449 18.1373 3.56215 18.1679C3.51811 18.2002 3.46221 18.2087 3.41139 18.1934C3.33178 18.1696 3.24878 18.1577 3.16748 18.1577C2.70167 18.1577 2.32224 18.5385 2.32224 19.006C2.32224 19.3749 2.55769 19.6996 2.90832 19.8135C2.95744 19.8288 2.99809 19.8662 3.01672 19.9155C3.03536 19.9648 3.03027 20.0192 3.00487 20.0634C2.92864 20.1943 2.8863 20.3422 2.8863 20.4935C2.8863 20.961 3.26572 21.3401 3.73153 21.3401C3.96867 21.3401 4.18888 21.2432 4.35149 21.0664C4.38367 21.0307 4.42941 21.0103 4.47683 21.0103H4.47345Z" fill="#646464"/>
<path d="M4.47361 19.8254C4.2009 19.8254 3.979 19.6027 3.979 19.329C3.979 19.0553 4.2009 18.8326 4.47361 18.8326C4.74632 18.8326 4.96822 19.0553 4.96822 19.329C4.96822 19.6027 4.74632 19.8254 4.47361 19.8254ZM4.47361 18.9057C4.24155 18.9057 4.05184 19.0961 4.05184 19.329C4.05184 19.5619 4.24155 19.7523 4.47361 19.7523C4.70567 19.7523 4.89538 19.5619 4.89538 19.329C4.89538 19.0961 4.70567 18.9057 4.47361 18.9057Z" fill="#646464"/>
<path d="M4.45477 18.3073V18.8717C4.45477 18.8717 4.46662 18.8717 4.4734 18.8717C4.48017 18.8717 4.48526 18.8717 4.49203 18.8717V18.3073C4.55809 18.2988 4.60891 18.2427 4.60891 18.173C4.60891 18.0982 4.54793 18.037 4.4734 18.037C4.39887 18.037 4.33789 18.0982 4.33789 18.173C4.33789 18.2427 4.38871 18.2988 4.45477 18.3073Z" fill="#646464"/>
<path d="M4.05332 18.3974L4.27522 18.9159C4.28538 18.9108 4.29724 18.9057 4.3091 18.9023L4.0872 18.3838C4.14479 18.3498 4.1702 18.2767 4.1431 18.2138C4.1143 18.1441 4.033 18.1135 3.96524 18.1424C3.8958 18.1713 3.86531 18.2529 3.8941 18.3209C3.9212 18.3838 3.99065 18.4161 4.05502 18.3974H4.05332Z" fill="#646464"/>
<path d="M3.45194 19.3511H4.016C4.016 19.3511 4.016 19.3375 4.016 19.3307C4.016 19.3256 4.016 19.3205 4.016 19.3154H3.45194C3.44347 19.2491 3.38757 19.1981 3.31813 19.1981C3.2436 19.1981 3.18262 19.2593 3.18262 19.3341C3.18262 19.4089 3.2436 19.4701 3.31813 19.4701C3.38757 19.4701 3.44347 19.4191 3.45194 19.3528V19.3511Z" fill="#646464"/>
<path d="M3.33664 19.0791C3.40101 19.1012 3.47215 19.0723 3.50094 19.0111L4.03282 19.1964C4.0362 19.1845 4.03959 19.1726 4.04467 19.1624L3.5128 18.9771C3.52635 18.9108 3.49078 18.8445 3.42472 18.8207C3.35358 18.7952 3.27735 18.8343 3.25195 18.904C3.22654 18.9737 3.2655 19.0519 3.33495 19.0774L3.33664 19.0791Z" fill="#646464"/>
<path d="M4.78671 18.3566L4.60547 18.8904C4.61733 18.8938 4.62749 18.8989 4.63935 18.9023L4.82059 18.3685C4.88665 18.3821 4.95271 18.3447 4.97473 18.2801C4.99844 18.2087 4.96118 18.1322 4.89004 18.1067C4.8189 18.0829 4.74267 18.1203 4.71726 18.1917C4.69524 18.2563 4.72573 18.3277 4.78502 18.3566H4.78671Z" fill="#646464"/>
<path d="M5.36762 18.8377L4.86963 19.1012C4.8764 19.1114 4.88149 19.1216 4.88657 19.1335L5.38456 18.8683C5.42352 18.9227 5.49636 18.9414 5.55734 18.9091C5.6234 18.8734 5.64881 18.7918 5.61323 18.7255C5.57766 18.6592 5.49636 18.6337 5.4303 18.6694C5.36932 18.7017 5.34391 18.7731 5.36762 18.836V18.8377Z" fill="#646464"/>
<path d="M4.78516 18.9941C4.79363 19.0026 4.80209 19.0111 4.81056 19.0196L5.20862 18.6201C5.26113 18.6609 5.33736 18.6575 5.38648 18.6082C5.43899 18.5555 5.43899 18.4688 5.38648 18.4161C5.33397 18.3634 5.24758 18.3634 5.19507 18.4161C5.14595 18.4654 5.14256 18.5419 5.18321 18.5946L4.78516 18.9941Z" fill="#646464"/>
<path d="M3.73823 18.6201L4.13629 19.0196C4.14476 19.0111 4.15323 19.0026 4.1617 18.9941L3.76364 18.5946C3.80429 18.5419 3.80091 18.4654 3.75178 18.4161C3.69927 18.3634 3.61289 18.3634 3.56038 18.4161C3.50787 18.4688 3.50787 18.5555 3.56038 18.6082C3.6095 18.6575 3.68572 18.6609 3.73823 18.6201Z" fill="#646464"/>
<path d="M5.61012 19.5857C5.54575 19.5636 5.47461 19.5925 5.44581 19.6537L4.91225 19.4667C4.90886 19.4786 4.90378 19.4888 4.90039 19.5007L5.43396 19.6877C5.42041 19.754 5.45598 19.8203 5.52204 19.8441C5.59318 19.8696 5.6694 19.8305 5.69481 19.7608C5.72022 19.6894 5.68126 19.6129 5.61181 19.5874L5.61012 19.5857Z" fill="#646464"/>
<path d="M5.20859 20.0447L4.80715 19.6418C4.79868 19.6503 4.79021 19.6588 4.78174 19.6673L5.18318 20.0702C5.14253 20.1229 5.14592 20.1994 5.19504 20.2487C5.24755 20.3014 5.33394 20.3014 5.38645 20.2487C5.43896 20.196 5.43896 20.1093 5.38645 20.0566C5.33733 20.0073 5.2611 20.0039 5.20859 20.0447Z" fill="#646464"/>
<path d="M4.89321 20.2674L4.66962 19.7438C4.65946 19.7489 4.6476 19.754 4.63574 19.7574L4.85933 20.281C4.80174 20.315 4.77633 20.3881 4.80343 20.451C4.83223 20.5207 4.91354 20.5513 4.98129 20.5224C5.04904 20.4935 5.08123 20.4119 5.05243 20.3439C5.02533 20.281 4.95588 20.2487 4.89152 20.2674H4.89321Z" fill="#646464"/>
<path d="M5.63049 19.1964C5.56104 19.1964 5.50514 19.2474 5.49667 19.3137H4.93262C4.93262 19.3137 4.93262 19.3239 4.93262 19.329C4.93262 19.3358 4.93262 19.3426 4.93262 19.3494H5.49667C5.50514 19.4157 5.56104 19.4667 5.63049 19.4667C5.70502 19.4667 5.766 19.4055 5.766 19.3307C5.766 19.2559 5.70502 19.1947 5.63049 19.1947V19.1964Z" fill="#646464"/>
<path d="M4.49203 20.3592V19.7897C4.49203 19.7897 4.48017 19.7897 4.4734 19.7897C4.46662 19.7897 4.46154 19.7897 4.45477 19.7897V20.3592C4.38871 20.3677 4.33789 20.4238 4.33789 20.4935C4.33789 20.5683 4.39887 20.6295 4.4734 20.6295C4.54793 20.6295 4.60891 20.5683 4.60891 20.4935C4.60891 20.4238 4.55809 20.3677 4.49203 20.3592Z" fill="#646464"/>
<path d="M4.16509 19.669C4.15662 19.6605 4.14815 19.652 4.13968 19.6435L3.73823 20.0464C3.68572 20.0056 3.6095 20.009 3.56038 20.0583C3.50787 20.111 3.50787 20.1977 3.56038 20.2504C3.61289 20.3031 3.69927 20.3031 3.75178 20.2504C3.80091 20.2011 3.80429 20.1246 3.76364 20.0719L4.16509 19.669Z" fill="#646464"/>
<path d="M4.15999 20.3099L4.34293 19.771C4.33107 19.7676 4.31922 19.7642 4.30905 19.7591L4.12612 20.298C4.06005 20.2844 3.99399 20.3218 3.97197 20.3864C3.94826 20.4578 3.98552 20.5343 4.05667 20.5598C4.12781 20.5836 4.20403 20.5462 4.22944 20.4748C4.25146 20.4102 4.22097 20.3388 4.16169 20.3099H4.15999Z" fill="#646464"/>
<path d="M3.5791 19.8288L4.07879 19.5636C4.07201 19.5534 4.06693 19.5432 4.06185 19.5313L3.56216 19.7965C3.5232 19.7421 3.45037 19.7234 3.38939 19.7557C3.32333 19.7914 3.29792 19.873 3.33349 19.9393C3.36906 20.0056 3.45037 20.0311 3.51643 19.9954C3.57741 19.9631 3.60281 19.8917 3.5791 19.8288Z" fill="#646464"/>
<path d="M8.46276 28.8982C8.18327 28.8982 7.91395 28.7843 7.71746 28.5854C7.52097 28.7843 7.24995 28.8982 6.97216 28.8982C6.39286 28.8982 5.92027 28.4239 5.92027 27.8425C5.92027 27.6691 5.96262 27.4991 6.04562 27.3461C5.63232 27.1931 5.35791 26.8004 5.35791 26.355C5.35791 25.7736 5.8305 25.2993 6.4098 25.2993C6.49788 25.2993 6.58427 25.3095 6.66896 25.3316C6.69945 24.7791 7.16187 24.3354 7.71915 24.3354C8.27644 24.3354 8.73886 24.7791 8.76935 25.3333C8.85404 25.3112 8.94212 25.2993 9.02851 25.2993C9.60781 25.2993 10.0804 25.7974 10.0804 26.4111C10.0804 26.8565 9.82293 27.2628 9.43504 27.4362C9.48924 27.5671 9.51634 27.7031 9.51634 27.8425C9.51634 28.4239 9.04376 28.8982 8.46445 28.8982H8.46276ZM7.71746 28.48L7.74456 28.5089C7.93089 28.7112 8.19174 28.8268 8.46445 28.8268C9.0048 28.8268 9.44351 28.3865 9.44351 27.8442C9.44351 27.7031 9.41302 27.5637 9.35373 27.4328L9.33849 27.3988L9.37406 27.3852C9.75348 27.2339 10.0093 26.8429 10.0093 26.4128C10.0093 25.8399 9.57055 25.3741 9.0302 25.3741C8.93535 25.3741 8.8388 25.3894 8.74733 25.4183L8.7016 25.4336V25.3843C8.69651 24.8472 8.25611 24.4102 7.72254 24.4102C7.18898 24.4102 6.75027 24.8454 6.74349 25.3809V25.4285L6.69776 25.4149C6.60459 25.386 6.50974 25.3724 6.41319 25.3724C5.87284 25.3724 5.43413 25.8127 5.43413 26.355C5.43413 26.7834 5.70685 27.1591 6.11337 27.2917L6.15572 27.3053L6.13201 27.3444C6.04223 27.4957 5.9948 27.6691 5.9948 27.8425C5.9948 28.3848 6.43351 28.8251 6.97385 28.8251C7.24487 28.8251 7.50742 28.7095 7.69375 28.5072L7.72085 28.4783L7.71746 28.48Z" fill="#646464"/>
<path d="M8.46263 28.7452C8.21024 28.7452 7.97479 28.6415 7.80202 28.4545C7.75798 28.4069 7.67329 28.4069 7.62925 28.4545C7.45647 28.6415 7.22272 28.7452 6.96864 28.7452C6.47234 28.7452 6.07089 28.3406 6.07089 27.8442C6.07089 27.6844 6.11493 27.5263 6.19624 27.3869C6.21487 27.3563 6.21826 27.3189 6.20471 27.2849C6.19116 27.2509 6.16575 27.2254 6.13018 27.2152C5.75753 27.0945 5.50684 26.7494 5.50684 26.3567C5.50684 25.8586 5.90998 25.4557 6.40458 25.4557C6.49266 25.4557 6.58074 25.4693 6.66544 25.4948C6.70101 25.505 6.73997 25.4982 6.76876 25.4778C6.79756 25.4557 6.81619 25.4217 6.81619 25.3843C6.82127 24.893 7.22441 24.4935 7.71394 24.4935C8.20347 24.4935 8.6066 24.8947 8.61169 25.386C8.61169 25.4234 8.63032 25.4591 8.66081 25.4795C8.6913 25.5016 8.73026 25.5067 8.76583 25.4965C8.85052 25.4693 8.93691 25.4557 9.02499 25.4557C9.52129 25.4557 9.92274 25.8858 9.92274 26.4145C9.92274 26.8106 9.68898 27.171 9.34005 27.3104C9.30956 27.3223 9.28584 27.3461 9.27399 27.3767C9.26213 27.4073 9.26382 27.4413 9.27568 27.4702C9.33158 27.5909 9.35868 27.7167 9.35868 27.8476C9.35868 28.3457 8.95554 28.7486 8.46093 28.7486L8.46263 28.7452ZM7.71733 28.361C7.76476 28.361 7.81049 28.3814 7.84267 28.4171C8.00528 28.5939 8.22549 28.6908 8.46263 28.6908C8.92844 28.6908 9.30786 28.31 9.30786 27.8442C9.30786 27.7218 9.28076 27.6028 9.22995 27.4906C9.20962 27.4481 9.20962 27.3988 9.22656 27.3546C9.2435 27.3104 9.27907 27.2764 9.32311 27.2594C9.65172 27.1285 9.87192 26.7885 9.87192 26.4145C9.87192 25.9164 9.49249 25.5101 9.02838 25.5101C8.94707 25.5101 8.86577 25.5237 8.78615 25.5475C8.73534 25.5645 8.67775 25.5543 8.63371 25.5237C8.58967 25.4914 8.56256 25.4404 8.56256 25.386C8.55748 24.9236 8.17975 24.5462 7.71902 24.5462C7.25829 24.5462 6.88056 24.9219 6.87548 25.3826C6.87548 25.437 6.84838 25.488 6.80603 25.5186C6.76199 25.5509 6.70609 25.5594 6.65528 25.5441C6.57566 25.5203 6.49266 25.5084 6.41136 25.5084C5.94555 25.5084 5.56612 25.8892 5.56612 26.3567C5.56612 26.7256 5.80157 27.0503 6.1522 27.1642C6.20132 27.1795 6.24197 27.2169 6.2606 27.2662C6.27924 27.3155 6.27416 27.3699 6.24875 27.4141C6.17252 27.545 6.13018 27.6929 6.13018 27.8442C6.13018 28.3117 6.5096 28.6908 6.97542 28.6908C7.21256 28.6908 7.43276 28.5939 7.59537 28.4171C7.62755 28.3814 7.67329 28.361 7.72071 28.361H7.71733Z" fill="#646464"/>
<path d="M7.71726 27.1761C7.44455 27.1761 7.22266 26.9534 7.22266 26.6797C7.22266 26.406 7.44455 26.1833 7.71726 26.1833C7.98998 26.1833 8.21187 26.406 8.21187 26.6797C8.21187 26.9534 7.98998 27.1761 7.71726 27.1761ZM7.71726 26.2564C7.48521 26.2564 7.29549 26.4468 7.29549 26.6797C7.29549 26.9126 7.48521 27.103 7.71726 27.103C7.94932 27.103 8.13904 26.9126 8.13904 26.6797C8.13904 26.4468 7.94932 26.2564 7.71726 26.2564Z" fill="#646464"/>
<path d="M7.69842 25.6563V26.2207C7.69842 26.2207 7.71028 26.2207 7.71705 26.2207C7.72383 26.2207 7.72891 26.2207 7.73568 26.2207V25.6563C7.80175 25.6478 7.85256 25.5917 7.85256 25.522C7.85256 25.4472 7.79158 25.386 7.71705 25.386C7.64252 25.386 7.58154 25.4472 7.58154 25.522C7.58154 25.5917 7.63236 25.6478 7.69842 25.6563Z" fill="#646464"/>
<path d="M7.29698 25.7481L7.51887 26.2666C7.52904 26.2615 7.54089 26.2564 7.55275 26.253L7.33085 25.7345C7.38845 25.7005 7.41385 25.6274 7.38675 25.5645C7.35796 25.4948 7.27665 25.4642 7.2089 25.4931C7.13945 25.522 7.10896 25.6036 7.13775 25.6716C7.16486 25.7345 7.2343 25.7668 7.29867 25.7481H7.29698Z" fill="#646464"/>
<path d="M6.69413 26.7001H7.25818C7.25818 26.7001 7.25818 26.6865 7.25818 26.6797C7.25818 26.6746 7.25818 26.6695 7.25818 26.6644H6.69413C6.68566 26.5981 6.62976 26.5471 6.56031 26.5471C6.48578 26.5471 6.4248 26.6083 6.4248 26.6831C6.4248 26.7579 6.48578 26.8191 6.56031 26.8191C6.62976 26.8191 6.68566 26.7681 6.69413 26.7018V26.7001Z" fill="#646464"/>
<path d="M6.58078 26.4299C6.64515 26.452 6.71629 26.4231 6.74508 26.3619L7.27696 26.5472C7.28034 26.5353 7.28373 26.5234 7.28881 26.5132L6.75694 26.3279C6.77049 26.2616 6.73492 26.1953 6.66886 26.1715C6.59772 26.146 6.52149 26.1851 6.49609 26.2548C6.47068 26.3245 6.50964 26.4027 6.57909 26.4282L6.58078 26.4299Z" fill="#646464"/>
<path d="M8.03036 25.7057L7.84912 26.2395C7.86098 26.2429 7.87114 26.248 7.883 26.2514L8.06424 25.7176C8.1303 25.7312 8.19636 25.6938 8.21838 25.6292C8.2421 25.5578 8.20483 25.4813 8.13369 25.4558C8.06255 25.432 7.98632 25.4694 7.96092 25.5408C7.9389 25.6054 7.96939 25.6768 8.02867 25.7057H8.03036Z" fill="#646464"/>
<path d="M8.61176 26.1867L8.11377 26.4502C8.12054 26.4604 8.12563 26.4706 8.13071 26.4825L8.6287 26.2173C8.66766 26.2717 8.7405 26.2904 8.80148 26.2581C8.86754 26.2224 8.89295 26.1408 8.85738 26.0745C8.8218 26.0082 8.7405 25.9827 8.67444 26.0184C8.61346 26.0507 8.58805 26.1221 8.61176 26.185V26.1867Z" fill="#646464"/>
<path d="M8.02881 26.3432C8.03728 26.3517 8.04575 26.3602 8.05422 26.3687L8.45227 25.9692C8.50478 26.01 8.58101 26.0066 8.63013 25.9573C8.68264 25.9046 8.68264 25.8179 8.63013 25.7652C8.57762 25.7125 8.49123 25.7125 8.43872 25.7652C8.3896 25.8145 8.38621 25.891 8.42687 25.9437L8.02881 26.3432Z" fill="#646464"/>
<path d="M6.98042 25.9708L7.37848 26.3703C7.38695 26.3618 7.39542 26.3533 7.40389 26.3448L7.00583 25.9453C7.04648 25.8926 7.04309 25.8161 6.99397 25.7668C6.94146 25.7141 6.85508 25.7141 6.80257 25.7668C6.75006 25.8195 6.75006 25.9062 6.80257 25.9589C6.85169 26.0082 6.92791 26.0116 6.98042 25.9708Z" fill="#646464"/>
<path d="M8.85231 26.9364C8.78794 26.9143 8.7168 26.9432 8.688 27.0044L8.15444 26.8174C8.15105 26.8293 8.14597 26.8395 8.14258 26.8514L8.67615 27.0384C8.66259 27.1047 8.69817 27.171 8.76423 27.1948C8.83537 27.2203 8.91159 27.1812 8.937 27.1115C8.96241 27.0401 8.92345 26.9636 8.854 26.9381L8.85231 26.9364Z" fill="#646464"/>
<path d="M8.45224 27.3955L8.0508 26.9926C8.04233 27.0011 8.03386 27.0096 8.02539 27.0181L8.42684 27.421C8.38618 27.4737 8.38957 27.5502 8.43869 27.5995C8.4912 27.6522 8.57759 27.6522 8.6301 27.5995C8.68261 27.5468 8.68261 27.4601 8.6301 27.4074C8.58098 27.3581 8.50475 27.3547 8.45224 27.3955Z" fill="#646464"/>
<path d="M8.13735 27.6181L7.91376 27.0945C7.9036 27.0996 7.89174 27.1047 7.87988 27.1081L8.10347 27.6317C8.04588 27.6657 8.02047 27.7388 8.04757 27.8017C8.07637 27.8714 8.15768 27.902 8.22543 27.8731C8.29319 27.8442 8.32537 27.7626 8.29657 27.6946C8.26947 27.6317 8.20002 27.5994 8.13566 27.6181H8.13735Z" fill="#646464"/>
<path d="M8.87268 26.5472C8.80323 26.5472 8.74733 26.5982 8.73886 26.6645H8.1748C8.1748 26.6645 8.1748 26.6747 8.1748 26.6798C8.1748 26.6866 8.1748 26.6934 8.1748 26.7002H8.73886C8.74733 26.7665 8.80323 26.8175 8.87268 26.8175C8.94721 26.8175 9.00819 26.7563 9.00819 26.6815C9.00819 26.6067 8.94721 26.5455 8.87268 26.5455V26.5472Z" fill="#646464"/>
<path d="M7.73422 27.7082V27.1387C7.73422 27.1387 7.72236 27.1387 7.71559 27.1387C7.70881 27.1387 7.70373 27.1387 7.69695 27.1387V27.7082C7.63089 27.7167 7.58008 27.7728 7.58008 27.8425C7.58008 27.9173 7.64106 27.9785 7.71559 27.9785C7.79012 27.9785 7.8511 27.9173 7.8511 27.8425C7.8511 27.7728 7.80028 27.7167 7.73422 27.7082Z" fill="#646464"/>
<path d="M7.40727 27.0181C7.39881 27.0096 7.39034 27.0011 7.38187 26.9926L6.98042 27.3955C6.92791 27.3547 6.85169 27.3581 6.80257 27.4074C6.75006 27.4601 6.75006 27.5468 6.80257 27.5995C6.85508 27.6522 6.94146 27.6522 6.99397 27.5995C7.04309 27.5502 7.04648 27.4737 7.00583 27.421L7.40727 27.0181Z" fill="#646464"/>
<path d="M7.40218 27.659L7.58512 27.1201C7.57326 27.1167 7.5614 27.1133 7.55124 27.1082L7.3683 27.6471C7.30224 27.6335 7.23618 27.6709 7.21416 27.7355C7.19045 27.8069 7.22771 27.8834 7.29885 27.9089C7.37 27.9327 7.44622 27.8953 7.47163 27.8239C7.49365 27.7593 7.46316 27.6879 7.40387 27.659H7.40218Z" fill="#646464"/>
<path d="M6.82129 27.1795L7.32098 26.9143C7.3142 26.9041 7.30912 26.8939 7.30404 26.882L6.80435 27.1472C6.76539 27.0928 6.69255 27.0741 6.63158 27.1064C6.56551 27.1421 6.54011 27.2237 6.57568 27.29C6.61125 27.3563 6.69255 27.3818 6.75862 27.3461C6.81959 27.3138 6.845 27.2424 6.82129 27.1795Z" fill="#646464"/>
<path d="M56.4071 21.5475C56.1276 21.5475 55.8583 21.4336 55.6618 21.2347C55.4653 21.4336 55.1943 21.5475 54.9165 21.5475C54.3372 21.5475 53.8646 21.0732 53.8646 20.4918C53.8646 20.3184 53.907 20.1484 53.99 19.9954C53.5767 19.8424 53.3022 19.4497 53.3022 19.0043C53.3022 18.4229 53.7748 17.9486 54.3541 17.9486C54.4422 17.9486 54.5286 17.9588 54.6133 17.9809C54.6438 17.4284 55.1062 16.9847 55.6635 16.9847C56.2208 16.9847 56.6832 17.4284 56.7137 17.9826C56.7984 17.9605 56.8865 17.9486 56.9728 17.9486C57.5521 17.9486 58.0247 18.4467 58.0247 19.0604C58.0247 19.5058 57.7673 19.9121 57.3794 20.0855C57.4336 20.2164 57.4607 20.3524 57.4607 20.4918C57.4607 21.0732 56.9881 21.5475 56.4088 21.5475H56.4071ZM55.6601 21.1293L55.6872 21.1582C55.8735 21.3605 56.1344 21.4761 56.4071 21.4761C56.9474 21.4761 57.3862 21.0358 57.3862 20.4935C57.3862 20.3524 57.3557 20.213 57.2964 20.0821L57.2811 20.0481L57.3167 20.0345C57.6961 19.8832 57.9519 19.4922 57.9519 19.0621C57.9519 18.4892 57.5132 18.0234 56.9728 18.0234C56.878 18.0234 56.7814 18.0387 56.69 18.0676L56.6442 18.0829V18.0336C56.6392 17.4964 56.1988 17.0595 55.6652 17.0595C55.1316 17.0595 54.6929 17.4947 54.6861 18.0302V18.0778L54.6404 18.0642C54.5472 18.0353 54.4524 18.0217 54.3558 18.0217C53.8155 18.0217 53.3768 18.462 53.3768 19.0043C53.3768 19.4327 53.6495 19.8084 54.056 19.941L54.0984 19.9546L54.0746 19.9937C53.9849 20.145 53.9374 20.3184 53.9374 20.4918C53.9374 21.0341 54.3762 21.4744 54.9165 21.4744C55.1875 21.4744 55.4501 21.3588 55.6364 21.1565L55.6635 21.1276L55.6601 21.1293Z" fill="#646464"/>
<path d="M56.407 21.3945C56.1546 21.3945 55.9191 21.2908 55.7464 21.1038C55.7023 21.0562 55.6176 21.0562 55.5736 21.1038C55.4008 21.2908 55.1671 21.3945 54.913 21.3945C54.4167 21.3945 54.0152 20.9899 54.0152 20.4935C54.0152 20.3337 54.0593 20.1756 54.1406 20.0362C54.1592 20.0056 54.1626 19.9682 54.149 19.9342C54.1355 19.9002 54.1101 19.8747 54.0745 19.8645C53.7019 19.7438 53.4512 19.3987 53.4512 19.006C53.4512 18.5079 53.8543 18.105 54.3489 18.105C54.437 18.105 54.5251 18.1186 54.6098 18.1441C54.6453 18.1543 54.6843 18.1475 54.7131 18.1271C54.7419 18.105 54.7605 18.071 54.7605 18.0336C54.7656 17.5423 55.1687 17.1428 55.6583 17.1428C56.1478 17.1428 56.5509 17.544 56.556 18.0353C56.556 18.0727 56.5747 18.1084 56.6051 18.1288C56.6356 18.1509 56.6746 18.156 56.7102 18.1458C56.7949 18.1186 56.8812 18.105 56.9693 18.105C57.4656 18.105 57.8671 18.5351 57.8671 19.0638C57.8671 19.4599 57.6333 19.8203 57.2844 19.9597C57.2539 19.9716 57.2302 19.9954 57.2183 20.026C57.2065 20.0566 57.2082 20.0906 57.22 20.1195C57.2759 20.2402 57.303 20.366 57.303 20.4969C57.303 20.995 56.8999 21.3979 56.4053 21.3979L56.407 21.3945ZM55.66 21.0103C55.7074 21.0103 55.7531 21.0307 55.7853 21.0664C55.9479 21.2432 56.1681 21.3401 56.4053 21.3401C56.8711 21.3401 57.2505 20.9593 57.2505 20.4935C57.2505 20.3711 57.2234 20.2521 57.1726 20.1399C57.1523 20.0974 57.1523 20.0481 57.1692 20.0039C57.1861 19.9597 57.2217 19.9257 57.2657 19.9087C57.5944 19.7778 57.8146 19.4378 57.8146 19.0638C57.8146 18.5657 57.4351 18.1594 56.971 18.1594C56.8897 18.1594 56.8084 18.173 56.7288 18.1968C56.678 18.2138 56.6204 18.2036 56.5764 18.173C56.5323 18.1407 56.5052 18.0897 56.5052 18.0353C56.5001 17.5729 56.1224 17.1955 55.6617 17.1955C55.2009 17.1955 54.8232 17.5712 54.8181 18.0319C54.8181 18.0863 54.791 18.1373 54.7487 18.1679C54.7046 18.2002 54.6487 18.2087 54.5979 18.1934C54.5183 18.1696 54.4353 18.1577 54.354 18.1577C53.8882 18.1577 53.5088 18.5385 53.5088 19.006C53.5088 19.3749 53.7442 19.6996 54.0948 19.8135C54.144 19.8288 54.1846 19.8662 54.2032 19.9155C54.2219 19.9648 54.2168 20.0192 54.1914 20.0634C54.1152 20.1943 54.0728 20.3422 54.0728 20.4935C54.0728 20.961 54.4522 21.3401 54.9181 21.3401C55.1552 21.3401 55.3754 21.2432 55.538 21.0664C55.5702 21.0307 55.6159 21.0103 55.6634 21.0103H55.66Z" fill="#646464"/>
<path d="M55.6601 19.8254C55.3874 19.8254 55.1655 19.6027 55.1655 19.329C55.1655 19.0553 55.3874 18.8326 55.6601 18.8326C55.9328 18.8326 56.1547 19.0553 56.1547 19.329C56.1547 19.6027 55.9328 19.8254 55.6601 19.8254ZM55.6601 18.9057C55.4281 18.9057 55.2384 19.0961 55.2384 19.329C55.2384 19.5619 55.4281 19.7523 55.6601 19.7523C55.8922 19.7523 56.0819 19.5619 56.0819 19.329C56.0819 19.0961 55.8922 18.9057 55.6601 18.9057Z" fill="#646464"/>
<path d="M55.6428 18.3073V18.8717C55.6428 18.8717 55.6546 18.8717 55.6614 18.8717C55.6682 18.8717 55.6732 18.8717 55.68 18.8717V18.3073C55.7461 18.2988 55.7969 18.2427 55.7969 18.173C55.7969 18.0982 55.7359 18.037 55.6614 18.037C55.5869 18.037 55.5259 18.0982 55.5259 18.173C55.5259 18.2427 55.5767 18.2988 55.6428 18.3073Z" fill="#646464"/>
<path d="M55.2398 18.3974L55.4617 18.9159C55.4719 18.9108 55.4838 18.9057 55.4956 18.9023L55.2737 18.3838C55.3313 18.3498 55.3567 18.2767 55.3296 18.2138C55.3008 18.1441 55.2195 18.1135 55.1518 18.1424C55.0823 18.1713 55.0518 18.2529 55.0806 18.3209C55.1077 18.3838 55.1772 18.4161 55.2415 18.3974H55.2398Z" fill="#646464"/>
<path d="M54.6385 19.3511H55.2025C55.2025 19.3511 55.2025 19.3375 55.2025 19.3307C55.2025 19.3256 55.2025 19.3205 55.2025 19.3154H54.6385C54.63 19.2491 54.5741 19.1981 54.5046 19.1981C54.4301 19.1981 54.3691 19.2593 54.3691 19.3341C54.3691 19.4089 54.4301 19.4701 54.5046 19.4701C54.5741 19.4701 54.63 19.4191 54.6385 19.3528V19.3511Z" fill="#646464"/>
<path d="M54.5251 19.0791C54.5895 19.1012 54.6606 19.0723 54.6894 19.0111L55.2213 19.1964C55.2247 19.1845 55.2281 19.1726 55.2331 19.1624L54.7013 18.9771C54.7148 18.9108 54.6793 18.8445 54.6132 18.8207C54.5421 18.7952 54.4658 18.8343 54.4404 18.904C54.415 18.9737 54.454 19.0519 54.5234 19.0774L54.5251 19.0791Z" fill="#646464"/>
<path d="M55.9747 18.3566L55.7935 18.8904C55.8053 18.8938 55.8155 18.8989 55.8273 18.9023L56.0086 18.3685C56.0746 18.3821 56.1407 18.3447 56.1627 18.2801C56.1864 18.2087 56.1492 18.1322 56.078 18.1067C56.0069 18.0829 55.9307 18.1203 55.9052 18.1917C55.8832 18.2563 55.9137 18.3277 55.973 18.3566H55.9747Z" fill="#646464"/>
<path d="M56.5561 18.8377L56.0581 19.1012C56.0649 19.1114 56.07 19.1216 56.075 19.1335L56.573 18.8683C56.612 18.9227 56.6848 18.9414 56.7458 18.9091C56.8119 18.8734 56.8373 18.7918 56.8017 18.7255C56.7661 18.6592 56.6848 18.6337 56.6188 18.6694C56.5578 18.7017 56.5324 18.7731 56.5561 18.836V18.8377Z" fill="#646464"/>
<path d="M55.9731 18.9941C55.9816 19.0026 55.9901 19.0111 55.9986 19.0196L56.3966 18.6201C56.4491 18.6609 56.5253 18.6575 56.5745 18.6082C56.627 18.5555 56.627 18.4688 56.5745 18.4161C56.522 18.3634 56.4356 18.3634 56.3831 18.4161C56.3339 18.4654 56.3305 18.5419 56.3712 18.5946L55.9731 18.9941Z" fill="#646464"/>
<path d="M54.9248 18.6201L55.3228 19.0196C55.3313 19.0111 55.3398 19.0026 55.3482 18.9941L54.9502 18.5946C54.9908 18.5419 54.9874 18.4654 54.9383 18.4161C54.8858 18.3634 54.7994 18.3634 54.7469 18.4161C54.6944 18.4688 54.6944 18.5555 54.7469 18.6082C54.796 18.6575 54.8723 18.6609 54.9248 18.6201Z" fill="#646464"/>
<path d="M56.7966 19.5857C56.7323 19.5636 56.6611 19.5925 56.6323 19.6537L56.0988 19.4667C56.0954 19.4786 56.0903 19.4888 56.0869 19.5007L56.6205 19.6877C56.6069 19.754 56.6425 19.8203 56.7086 19.8441C56.7797 19.8696 56.8559 19.8305 56.8813 19.7608C56.9067 19.6894 56.8678 19.6129 56.7983 19.5874L56.7966 19.5857Z" fill="#646464"/>
<path d="M56.3966 20.0447L55.9951 19.6418C55.9867 19.6503 55.9782 19.6588 55.9697 19.6673L56.3712 20.0702C56.3305 20.1229 56.3339 20.1994 56.383 20.2487C56.4355 20.3014 56.5219 20.3014 56.5744 20.2487C56.6269 20.196 56.6269 20.1093 56.5744 20.0566C56.5253 20.0073 56.4491 20.0039 56.3966 20.0447Z" fill="#646464"/>
<path d="M56.0797 20.2674L55.8561 19.7438C55.846 19.7489 55.8341 19.754 55.8223 19.7574L56.0459 20.281C55.9883 20.315 55.9629 20.3881 55.99 20.451C56.0188 20.5207 56.1001 20.5513 56.1678 20.5224C56.2356 20.4935 56.2678 20.4119 56.239 20.3439C56.2119 20.281 56.1424 20.2487 56.078 20.2674H56.0797Z" fill="#646464"/>
<path d="M56.817 19.1964C56.7476 19.1964 56.6917 19.2474 56.6832 19.3137H56.1191C56.1191 19.3137 56.1191 19.3239 56.1191 19.329C56.1191 19.3358 56.1191 19.3426 56.1191 19.3494H56.6832C56.6917 19.4157 56.7476 19.4667 56.817 19.4667C56.8915 19.4667 56.9525 19.4055 56.9525 19.3307C56.9525 19.2559 56.8915 19.1947 56.817 19.1947V19.1964Z" fill="#646464"/>
<path d="M55.6786 20.3592V19.7897C55.6786 19.7897 55.6667 19.7897 55.6599 19.7897C55.6532 19.7897 55.6481 19.7897 55.6413 19.7897V20.3592C55.5752 20.3677 55.5244 20.4238 55.5244 20.4935C55.5244 20.5683 55.5854 20.6295 55.6599 20.6295C55.7345 20.6295 55.7954 20.5683 55.7954 20.4935C55.7954 20.4238 55.7446 20.3677 55.6786 20.3592Z" fill="#646464"/>
<path d="M55.3516 19.669C55.3431 19.6605 55.3347 19.652 55.3262 19.6435L54.9248 20.0464C54.8723 20.0056 54.796 20.009 54.7469 20.0583C54.6944 20.111 54.6944 20.1977 54.7469 20.2504C54.7994 20.3031 54.8858 20.3031 54.9383 20.2504C54.9874 20.2011 54.9908 20.1246 54.9502 20.0719L55.3516 19.669Z" fill="#646464"/>
<path d="M55.3465 20.3099L55.5294 19.771C55.5176 19.7676 55.5057 19.7642 55.4956 19.7591L55.3126 20.298C55.2466 20.2844 55.1805 20.3218 55.1585 20.3864C55.1348 20.4578 55.172 20.5343 55.2432 20.5598C55.3143 20.5836 55.3906 20.5462 55.416 20.4748C55.438 20.4102 55.4075 20.3388 55.3482 20.3099H55.3465Z" fill="#646464"/>
<path d="M54.7656 19.8288L55.2653 19.5636C55.2585 19.5534 55.2535 19.5432 55.2484 19.5313L54.7487 19.7965C54.7097 19.7421 54.6369 19.7234 54.5759 19.7557C54.5099 19.7914 54.4844 19.873 54.52 19.9393C54.5556 20.0056 54.6369 20.0311 54.703 19.9954C54.7639 19.9631 54.7893 19.8917 54.7656 19.8288Z" fill="#646464"/>
<path d="M53.2787 28.446C52.9992 28.446 52.7299 28.3321 52.5334 28.1332C52.3369 28.3321 52.0659 28.446 51.7881 28.446C51.2088 28.446 50.7362 27.9717 50.7362 27.3903C50.7362 27.2169 50.7785 27.0469 50.8615 26.8939C50.4482 26.7409 50.1738 26.3482 50.1738 25.9028C50.1738 25.3214 50.6464 24.8471 51.2257 24.8471C51.3138 24.8471 51.4002 24.8573 51.4849 24.8794C51.5154 24.3269 51.9778 23.8832 52.5351 23.8832C53.0924 23.8832 53.5548 24.3269 53.5853 24.8811C53.67 24.859 53.758 24.8471 53.8444 24.8471C54.4237 24.8471 54.8963 25.3452 54.8963 25.9589C54.8963 26.4043 54.6389 26.8106 54.251 26.984C54.3052 27.1149 54.3323 27.2509 54.3323 27.3903C54.3323 27.9717 53.8597 28.446 53.2804 28.446H53.2787ZM52.5317 28.0278L52.5588 28.0567C52.7451 28.259 53.006 28.3746 53.2787 28.3746C53.819 28.3746 54.2577 27.9343 54.2577 27.392C54.2577 27.2509 54.2272 27.1115 54.168 26.9806L54.1527 26.9466L54.1883 26.933C54.5677 26.7817 54.8235 26.3907 54.8235 25.9606C54.8235 25.3877 54.3848 24.9219 53.8444 24.9219C53.7496 24.9219 53.653 24.9372 53.5616 24.9661L53.5158 24.9814V24.9321C53.5107 24.3949 53.0703 23.958 52.5368 23.958C52.0032 23.958 51.5645 24.3932 51.5577 24.9287V24.9763L51.512 24.9627C51.4188 24.9338 51.324 24.9202 51.2274 24.9202C50.6871 24.9202 50.2484 25.3605 50.2484 25.9028C50.2484 26.3312 50.5211 26.7069 50.9276 26.8395L50.9699 26.8531L50.9462 26.8922C50.8565 27.0435 50.809 27.2169 50.809 27.3903C50.809 27.9326 51.2477 28.3729 51.7881 28.3729C52.0591 28.3729 52.3216 28.2573 52.508 28.055L52.5351 28.0261L52.5317 28.0278Z" fill="#646464"/>
<path d="M53.2785 28.293C53.0262 28.293 52.7907 28.1893 52.6179 28.0023C52.5739 27.9547 52.4892 27.9547 52.4452 28.0023C52.2724 28.1893 52.0386 28.293 51.7846 28.293C51.2883 28.293 50.8868 27.8884 50.8868 27.392C50.8868 27.2322 50.9309 27.0741 51.0122 26.9347C51.0308 26.9041 51.0342 26.8667 51.0206 26.8327C51.0071 26.7987 50.9817 26.7732 50.9461 26.763C50.5734 26.6423 50.3228 26.2972 50.3228 25.9045C50.3228 25.4064 50.7259 25.0035 51.2205 25.0035C51.3086 25.0035 51.3967 25.0171 51.4814 25.0426C51.5169 25.0528 51.5559 25.046 51.5847 25.0256C51.6135 25.0035 51.6321 24.9695 51.6321 24.9321C51.6372 24.4408 52.0403 24.0413 52.5299 24.0413C53.0194 24.0413 53.4225 24.4425 53.4276 24.9338C53.4276 24.9712 53.4462 25.0069 53.4767 25.0273C53.5072 25.0494 53.5462 25.0545 53.5817 25.0443C53.6664 25.0171 53.7528 25.0035 53.8409 25.0035C54.3372 25.0035 54.7387 25.4336 54.7387 25.9623C54.7387 26.3584 54.5049 26.7188 54.156 26.8582C54.1255 26.8701 54.1018 26.8939 54.0899 26.9245C54.078 26.9551 54.0797 26.9891 54.0916 27.018C54.1475 27.1387 54.1746 27.2645 54.1746 27.3954C54.1746 27.8935 53.7715 28.2964 53.2769 28.2964L53.2785 28.293ZM52.5316 27.9088C52.579 27.9088 52.6247 27.9292 52.6569 27.9649C52.8195 28.1417 53.0397 28.2386 53.2769 28.2386C53.7427 28.2386 54.1221 27.8578 54.1221 27.392C54.1221 27.2696 54.095 27.1506 54.0442 27.0384C54.0238 26.9959 54.0238 26.9466 54.0408 26.9024C54.0577 26.8582 54.0933 26.8242 54.1373 26.8072C54.4659 26.6763 54.6861 26.3363 54.6861 25.9623C54.6861 25.4642 54.3067 25.0579 53.8426 25.0579C53.7613 25.0579 53.68 25.0715 53.6004 25.0953C53.5496 25.1123 53.492 25.1021 53.4479 25.0715C53.4039 25.0392 53.3768 24.9882 53.3768 24.9338C53.3717 24.4714 52.994 24.094 52.5332 24.094C52.0725 24.094 51.6948 24.4697 51.6897 24.9304C51.6897 24.9848 51.6626 25.0358 51.6203 25.0664C51.5762 25.0987 51.5203 25.1072 51.4695 25.0919C51.3899 25.0681 51.3069 25.0562 51.2256 25.0562C50.7598 25.0562 50.3803 25.437 50.3803 25.9045C50.3803 26.2734 50.6158 26.5981 50.9664 26.712C51.0155 26.7273 51.0562 26.7647 51.0748 26.814C51.0935 26.8633 51.0884 26.9177 51.063 26.9619C50.9867 27.0928 50.9444 27.2407 50.9444 27.392C50.9444 27.8595 51.3238 28.2386 51.7896 28.2386C52.0268 28.2386 52.247 28.1417 52.4096 27.9649C52.4418 27.9292 52.4875 27.9088 52.5349 27.9088H52.5316Z" fill="#646464"/>
<path d="M52.5317 26.7239C52.259 26.7239 52.0371 26.5012 52.0371 26.2275C52.0371 25.9538 52.259 25.7311 52.5317 25.7311C52.8044 25.7311 53.0263 25.9538 53.0263 26.2275C53.0263 26.5012 52.8044 26.7239 52.5317 26.7239ZM52.5317 25.8042C52.2997 25.8042 52.1099 25.9946 52.1099 26.2275C52.1099 26.4604 52.2997 26.6508 52.5317 26.6508C52.7638 26.6508 52.9535 26.4604 52.9535 26.2275C52.9535 25.9946 52.7638 25.8042 52.5317 25.8042Z" fill="#646464"/>
<path d="M52.5129 25.2041V25.7685C52.5129 25.7685 52.5247 25.7685 52.5315 25.7685C52.5383 25.7685 52.5434 25.7685 52.5501 25.7685V25.2041C52.6162 25.1956 52.667 25.1395 52.667 25.0698C52.667 24.995 52.606 24.9338 52.5315 24.9338C52.457 24.9338 52.396 24.995 52.396 25.0698C52.396 25.1395 52.4468 25.1956 52.5129 25.2041Z" fill="#646464"/>
<path d="M52.1114 25.2959L52.3333 25.8144C52.3435 25.8093 52.3553 25.8042 52.3672 25.8008L52.1453 25.2823C52.2029 25.2483 52.2283 25.1752 52.2012 25.1123C52.1724 25.0426 52.0911 25.012 52.0234 25.0409C51.9539 25.0698 51.9234 25.1514 51.9522 25.2194C51.9793 25.2823 52.0488 25.3146 52.1131 25.2959H52.1114Z" fill="#646464"/>
<path d="M51.51 26.2479H52.0741C52.0741 26.2479 52.0741 26.2343 52.0741 26.2275C52.0741 26.2224 52.0741 26.2173 52.0741 26.2122H51.51C51.5016 26.1459 51.4457 26.0949 51.3762 26.0949C51.3017 26.0949 51.2407 26.1561 51.2407 26.2309C51.2407 26.3057 51.3017 26.3669 51.3762 26.3669C51.4457 26.3669 51.5016 26.3159 51.51 26.2496V26.2479Z" fill="#646464"/>
<path d="M51.3947 25.9777C51.4591 25.9998 51.5303 25.9709 51.559 25.9097L52.0909 26.095C52.0943 26.0831 52.0977 26.0712 52.1028 26.061L51.5709 25.8757C51.5845 25.8094 51.5489 25.7431 51.4828 25.7193C51.4117 25.6938 51.3355 25.7329 51.3101 25.8026C51.2846 25.8723 51.3236 25.9505 51.393 25.976L51.3947 25.9777Z" fill="#646464"/>
<path d="M52.8463 25.2535L52.665 25.7873C52.6769 25.7907 52.6871 25.7958 52.6989 25.7992L52.8802 25.2654C52.9462 25.279 53.0123 25.2416 53.0343 25.177C53.058 25.1056 53.0207 25.0291 52.9496 25.0036C52.8785 24.9798 52.8022 25.0172 52.7768 25.0886C52.7548 25.1532 52.7853 25.2246 52.8446 25.2535H52.8463Z" fill="#646464"/>
<path d="M53.4257 25.7345L52.9277 25.998C52.9345 26.0082 52.9396 26.0184 52.9447 26.0303L53.4427 25.7651C53.4816 25.8195 53.5545 25.8382 53.6154 25.8059C53.6815 25.7702 53.7069 25.6886 53.6713 25.6223C53.6358 25.556 53.5545 25.5305 53.4884 25.5662C53.4274 25.5985 53.402 25.6699 53.4257 25.7328V25.7345Z" fill="#646464"/>
<path d="M52.8447 25.891C52.8532 25.8995 52.8617 25.908 52.8701 25.9165L53.2682 25.517C53.3207 25.5578 53.3969 25.5544 53.446 25.5051C53.4986 25.4524 53.4986 25.3657 53.446 25.313C53.3935 25.2603 53.3071 25.2603 53.2546 25.313C53.2055 25.3623 53.2021 25.4388 53.2428 25.4915L52.8447 25.891Z" fill="#646464"/>
<path d="M51.7963 25.5186L52.1944 25.9181C52.2029 25.9096 52.2113 25.9011 52.2198 25.8926L51.8217 25.4931C51.8624 25.4404 51.859 25.3639 51.8099 25.3146C51.7574 25.2619 51.671 25.2619 51.6185 25.3146C51.566 25.3673 51.566 25.454 51.6185 25.5067C51.6676 25.556 51.7438 25.5594 51.7963 25.5186Z" fill="#646464"/>
<path d="M53.6682 26.4842C53.6039 26.4621 53.5327 26.491 53.5039 26.5522L52.9704 26.3652C52.967 26.3771 52.9619 26.3873 52.9585 26.3992L53.4921 26.5862C53.4785 26.6525 53.5141 26.7188 53.5801 26.7426C53.6513 26.7681 53.7275 26.729 53.7529 26.6593C53.7783 26.5879 53.7394 26.5114 53.6699 26.4859L53.6682 26.4842Z" fill="#646464"/>
<path d="M53.2667 26.9432L52.8653 26.5403C52.8568 26.5488 52.8483 26.5573 52.8398 26.5658L53.2413 26.9687C53.2006 27.0214 53.204 27.0979 53.2531 27.1472C53.3057 27.1999 53.392 27.1999 53.4445 27.1472C53.4971 27.0945 53.4971 27.0078 53.4445 26.9551C53.3954 26.9058 53.3192 26.9024 53.2667 26.9432Z" fill="#646464"/>
<path d="M52.9513 27.1659L52.7277 26.6423C52.7176 26.6474 52.7057 26.6525 52.6938 26.6559L52.9174 27.1795C52.8598 27.2135 52.8344 27.2866 52.8615 27.3495C52.8903 27.4192 52.9716 27.4498 53.0394 27.4209C53.1072 27.392 53.1393 27.3104 53.1105 27.2424C53.0834 27.1795 53.014 27.1472 52.9496 27.1659H52.9513Z" fill="#646464"/>
<path d="M53.6886 26.095C53.6191 26.095 53.5633 26.146 53.5548 26.2123H52.9907C52.9907 26.2123 52.9907 26.2225 52.9907 26.2276C52.9907 26.2344 52.9907 26.2412 52.9907 26.248H53.5548C53.5633 26.3143 53.6191 26.3653 53.6886 26.3653C53.7631 26.3653 53.8241 26.3041 53.8241 26.2293C53.8241 26.1545 53.7631 26.0933 53.6886 26.0933V26.095Z" fill="#646464"/>
<path d="M52.5501 27.256V26.6865C52.5501 26.6865 52.5383 26.6865 52.5315 26.6865C52.5247 26.6865 52.5196 26.6865 52.5129 26.6865V27.256C52.4468 27.2645 52.396 27.3206 52.396 27.3903C52.396 27.4651 52.457 27.5263 52.5315 27.5263C52.606 27.5263 52.667 27.4651 52.667 27.3903C52.667 27.3206 52.6162 27.2645 52.5501 27.256Z" fill="#646464"/>
<path d="M52.2232 26.5658C52.2147 26.5573 52.2063 26.5488 52.1978 26.5403L51.7963 26.9432C51.7438 26.9024 51.6676 26.9058 51.6185 26.9551C51.566 27.0078 51.566 27.0945 51.6185 27.1472C51.671 27.1999 51.7574 27.1999 51.8099 27.1472C51.859 27.0979 51.8624 27.0214 51.8217 26.9687L52.2232 26.5658Z" fill="#646464"/>
<path d="M52.2181 27.2067L52.401 26.6678C52.3892 26.6644 52.3773 26.661 52.3672 26.6559L52.1842 27.1948C52.1182 27.1812 52.0521 27.2186 52.0301 27.2832C52.0064 27.3546 52.0436 27.4311 52.1148 27.4566C52.1859 27.4804 52.2621 27.443 52.2875 27.3716C52.3096 27.307 52.2791 27.2356 52.2198 27.2067H52.2181Z" fill="#646464"/>
<path d="M51.6372 26.7257L52.1369 26.4605C52.1301 26.4503 52.125 26.4401 52.12 26.4282L51.6203 26.6934C51.5813 26.639 51.5085 26.6203 51.4475 26.6526C51.3814 26.6883 51.356 26.7699 51.3916 26.8362C51.4272 26.9025 51.5085 26.928 51.5745 26.8923C51.6355 26.86 51.6609 26.7886 51.6372 26.7257Z" fill="#646464"/>
<path d="M30 38C22.0643 38 14.5909 36.0705 8.95545 32.5685C3.18107 28.9798 0 24.1603 0 18.9991C0 13.838 3.18107 9.02018 8.95545 5.43149C14.5909 1.92949 22.0643 0 30 0C37.9357 0 45.4091 1.92949 51.0445 5.43149C56.8189 9.02018 60 13.8397 60 19.0008C60 24.162 56.8189 28.9815 51.0445 32.5702C45.4091 36.0722 37.9357 38.0017 30 38.0017V38ZM30 0.17C22.0964 0.17 14.6536 2.08929 9.04523 5.57598C3.32166 9.13238 0.169386 13.8992 0.169386 18.9991C0.169386 24.0991 3.32166 28.8659 9.04353 32.424C14.6519 35.9107 22.0947 37.83 29.9983 37.83C37.9019 37.83 45.3447 35.9107 50.9531 32.424C56.6766 28.8676 59.8272 24.0991 59.8272 18.9991C59.8272 13.8992 56.6749 9.13238 50.9531 5.57429C45.3464 2.08929 37.9036 0.17 30 0.17Z" fill="#646464"/>
<path d="M30.0002 37.15C13.9255 37.15 0.847168 29.0087 0.847168 18.9991C0.847168 8.98955 13.9255 0.849976 30.0002 0.849976C46.075 0.849976 59.1533 8.99125 59.1533 18.9991C59.1533 29.007 46.075 37.15 30.0002 37.15ZM30.0002 1.01998C14.0186 1.01998 1.01655 9.08645 1.01655 18.9991C1.01655 28.9118 14.0186 36.98 30.0002 36.98C45.9818 36.98 58.9839 28.9135 58.9839 18.9991C58.9839 9.08475 45.9818 1.01998 30.0002 1.01998Z" fill="#646464"/>
</g>
<defs>
<clipPath id="clip0_200_6146">
<rect width="60" height="38" fill="white"/>
</clipPath>
</defs>
</svg>
