<svg width="86" height="54" viewBox="0 0 86 54" fill="none"
    xmlns="http://www.w3.org/2000/svg">
    <g clip-path="url(#clip0_58_5589)">
        <path d="M43 52.6772C20.0244 52.6772 1.33154 41.1596 1.33154 26.9988C1.33154 12.838 20.0244 1.32275 43 1.32275C65.9756 1.32275 84.6684 12.8404 84.6684 26.9988C84.6684 41.1572 65.9756 52.6772 43 52.6772ZM43 1.56326C20.1575 1.56326 1.57365 12.9751 1.57365 26.9988C1.57365 41.0225 20.1575 52.4367 43 52.4367C65.8424 52.4367 84.4263 41.0249 84.4263 26.9988C84.4263 12.9727 65.8424 1.56326 43 1.56326Z" fill="#3E51FF"/>
        <path d="M43 45.7893C25.1763 45.7893 10.6743 37.3596 10.6743 26.9988C10.6743 16.638 25.1739 8.21075 43 8.21075C60.826 8.21075 75.3256 16.6404 75.3256 27.0012C75.3256 37.3621 60.8236 45.7917 43 45.7917V45.7893ZM43 8.45126C25.3095 8.45126 10.9164 16.7726 10.9164 27.0012C10.9164 37.2298 25.3095 45.5512 43 45.5512C60.6905 45.5512 75.0835 37.2298 75.0835 27.0012C75.0835 16.7726 60.6905 8.45126 43 8.45126Z" fill="#3E51FF"/>
        <path d="M23.5228 10.5172L23.472 10.9958C22.5568 10.9909 21.4262 10.6085 20.7653 9.6297L20.7096 9.64894C20.787 10.8106 20.2617 11.7052 19.1068 12.446L18.9955 12.3137C19.9687 11.5706 20.3682 10.7504 20.3295 9.7716L18.4072 10.3921L18.3418 10.1901L19.0584 9.95919L18.5427 8.3815L19.8961 7.94378L19.6056 7.05633L19.9663 6.94089L20.2568 7.82834L21.5908 7.39784L22.1065 8.97554L22.828 8.74225L22.8933 8.94427L20.9396 9.57439C21.5182 10.2286 22.4745 10.5604 23.5252 10.5172H23.5228ZM20.3125 9.55515C20.2786 9.22566 20.1987 8.87934 20.0753 8.50656L19.9566 8.1434L18.9374 8.47289L19.3901 9.85337L20.3125 9.55515ZM20.3174 8.02555L20.4747 8.50415C20.5813 8.83124 20.6539 9.13667 20.6878 9.43249L21.7627 9.08617L21.31 7.70569L20.3149 8.02796L20.3174 8.02555Z" fill="#3E51FF"/>
        <path d="M42.5715 5.16117C42.6683 4.90864 42.7579 4.56713 42.8063 4.27372L42.2882 4.29296L42.3754 6.68115C42.3899 7.07797 42.1648 7.35696 41.2109 6.97215L41.252 6.81102C41.9444 6.91924 42.0243 6.89519 42.0122 6.6138L41.9275 4.30498L41.022 4.33865L41.0148 4.13663L42.3052 4.09093C42.1042 3.86486 41.7943 3.55942 41.545 3.32373L41.6418 3.19386C41.7943 3.27804 41.9856 3.39348 42.1599 3.52094C42.3221 3.27563 42.4916 2.96298 42.5739 2.72729L41.1286 2.7802L41.1213 2.58539L42.5667 2.53248L42.6804 2.4483L43.0509 2.65273C42.8499 3.00867 42.5545 3.38626 42.3076 3.62917C42.4287 3.71575 42.5376 3.80714 42.6151 3.8841L42.4262 4.09334L42.7773 4.08131L42.8814 3.99233L43.2349 4.15347C43.0944 4.54548 42.8499 5.02649 42.7022 5.23332L42.5667 5.16839L42.5715 5.16117ZM44.0483 6.11115L44.3873 6.32761C43.9781 6.69317 43.3462 7.04911 42.7724 7.2343L42.7022 7.08278C43.1646 6.88076 43.6852 6.5176 44.0483 6.11115ZM44.1863 2.74412L43.1477 2.7826L43.1404 2.57577L45.6874 2.48438L45.6946 2.69121L44.581 2.7321C44.4817 2.96779 44.3679 3.20589 44.2783 3.36943L45.3823 3.32854L45.4792 5.94521L43.4528 6.01976L43.3559 3.4031L44.0919 3.37664C44.1331 3.18424 44.1621 2.93893 44.1863 2.74653V2.74412ZM45.0434 3.55221L43.7045 3.60031L43.7263 4.1679L45.0652 4.11979L45.0434 3.55221ZM45.07 4.32422L43.7312 4.37232L43.753 4.97117L45.0918 4.92307L45.07 4.32422ZM45.1015 5.1299L43.7626 5.17801L43.7844 5.7985L45.1233 5.7504L45.1015 5.1299ZM45.9803 6.72444L45.7624 7.07076C45.4767 6.84228 44.9611 6.48874 44.5471 6.24584L44.6173 6.09432C45.0652 6.23141 45.5808 6.47431 45.9803 6.72444Z" fill="#3E51FF"/>
        <path d="M45.7527 49.6205C45.5275 49.5748 45.2419 49.4954 44.9441 49.3848L45.0046 51.0587L44.6584 51.0707L44.6487 50.8206L42.3778 50.9024L42.3875 51.1621L42.0461 51.1741L41.9831 49.4906C41.6999 49.6229 41.4094 49.7383 41.1261 49.8297L41.068 49.6782C41.7628 49.4136 42.6005 48.9447 43.0024 48.4372L41.1745 48.5045L41.1673 48.2977L42.5327 48.2472C42.3657 48.062 42.1817 47.872 42.0388 47.7397L42.0994 47.658C42.0025 47.6676 41.9081 47.6748 41.8161 47.6796L41.7895 47.5209C42.9637 47.3934 43.9321 47.1505 44.4163 46.9701L44.748 47.2491C44.4308 47.3357 44.012 47.4247 43.5568 47.4944L43.5834 48.2087L43.995 48.1943C44.1475 47.9827 44.3291 47.6724 44.4574 47.403L44.7722 47.5714C44.5833 47.8119 44.3993 48.0308 44.2178 48.1847L45.651 48.1318L45.6583 48.3386L43.6706 48.4107C44.2928 48.9038 45.1716 49.1419 45.8955 49.2429L45.7551 49.6181L45.7527 49.6205ZM41.6006 47.848L41.2496 47.86L41.2133 46.8691L43.4745 46.7874C43.1961 46.6431 42.8499 46.4915 42.5618 46.3809L42.6053 46.227C42.9056 46.2679 43.3728 46.3569 43.719 46.4988L43.5907 46.785L45.5251 46.7152L45.5614 47.7013L45.2104 47.7133L45.1813 46.9389L41.5716 47.0687L41.6006 47.848ZM44.7601 49.3126C44.3267 49.1323 43.8837 48.8773 43.5956 48.5599L43.6198 49.2068L43.2687 49.2188L43.2469 48.6248C42.9951 48.9158 42.6005 49.178 42.1599 49.4064L44.7625 49.3126H44.7601ZM42.8329 48.1101L42.7046 48.2424L43.2324 48.2232L43.2082 47.5449C42.8789 47.5882 42.5327 47.6267 42.1986 47.6556C42.4262 47.7734 42.6586 47.9418 42.8353 48.1101H42.8329ZM43.2905 49.5724L42.3318 49.606L42.3463 50.0341L43.305 50.0005L43.2881 49.5724H43.2905ZM43.3147 50.2073L42.356 50.241L42.3729 50.6955L43.3317 50.6619L43.3147 50.2073ZM44.6027 49.5243L43.6319 49.5604L43.6488 49.9884L44.6197 49.9524L44.6051 49.5243H44.6027ZM44.6269 50.1592L43.6561 50.1953L43.673 50.6498L44.6439 50.6138L44.6269 50.1592Z" fill="#3E51FF"/>
        <path d="M21.7505 45.0172L21.3026 46.8018C21.1889 47.2539 20.7797 47.2395 20.1163 46.7921L20.1793 46.6551C20.8523 46.9052 20.925 46.9052 20.9976 46.619L21.3704 45.1375C21.1211 45.2072 20.8765 45.265 20.6417 45.3058L20.5691 44.921C20.8257 44.9042 21.138 44.8705 21.4527 44.8176L21.7505 43.6343L21.0266 43.454L21.0775 43.2544L21.8014 43.4347L22.058 42.4126L22.3897 42.4944L22.1331 43.5165L22.6923 43.656L22.6415 43.8556L22.0822 43.7161L21.8207 44.7503C21.9999 44.7142 22.1766 44.6685 22.3364 44.6228L22.3776 44.7695C22.1839 44.8633 21.9708 44.9475 21.753 45.0196L21.7505 45.0172ZM24.8519 47.771L24.6098 48.1029C24.3628 47.9874 23.4985 47.4728 23.4041 46.4699H23.3993C22.8981 47.2347 22.1088 47.403 21.2784 47.3188L21.2663 47.1697C22.0628 47.1986 22.656 46.9797 23.053 46.3833L21.7651 46.0634L21.8159 45.859L23.1668 46.1933C23.2492 46.0394 23.3266 45.8614 23.3896 45.6594L23.7261 45.7652C23.6656 45.9576 23.5954 46.1308 23.513 46.2799L25.0189 46.6527L24.9681 46.8595L23.5712 46.5132C23.7673 47.1529 24.3846 47.5618 24.8543 47.771H24.8519ZM23.8254 42.807L24.1449 43.0187C24.036 43.1437 23.9367 43.2568 23.835 43.3578L24.4815 43.5189L24.6074 43.478L24.8979 43.7426C24.7163 43.9422 24.3967 44.1851 24.1619 44.3246L25.2029 44.5843L24.7599 46.3424L24.433 46.2606L24.8252 44.7022L23.0555 44.2621L22.6584 45.8349L22.3316 45.7532L22.7432 44.1178C22.6294 44.1707 22.5132 44.2188 22.3945 44.2597L22.3316 44.1178C22.8884 43.8508 23.4307 43.3962 23.8229 42.8046L23.8254 42.807ZM24.0917 44.6324C24.0215 44.7358 23.9537 44.8272 23.8786 44.9114C24.1304 45.1591 24.3386 45.4405 24.4572 45.6498L24.1716 45.8253C24.0699 45.5752 23.927 45.2938 23.7673 45.0317C23.5009 45.2986 23.1983 45.4814 22.8618 45.5944L22.794 45.4453C23.2128 45.2265 23.5469 44.9234 23.8133 44.4545L24.0917 44.6324ZM22.9465 44.0216L23.9464 44.2693C24.1304 44.1081 24.3144 43.8965 24.4379 43.7185L23.6559 43.5237C23.4162 43.733 23.1838 43.8917 22.9489 44.0192L22.9465 44.0216Z" fill="#3E51FF"/>
        <path d="M64.7046 43.858C64.6562 44.036 64.598 44.2164 64.5303 44.3871L66.8545 43.6367L67.6582 46.0971L67.3144 46.2077L67.2031 45.871L65.1428 46.5372L65.259 46.8955L64.9128 47.0062L64.2543 44.9956C64.0339 45.4189 63.7579 45.8085 63.4505 46.1356L63.3197 46.0273C63.8039 45.4141 64.1574 44.7094 64.3317 43.9783L62.9977 44.4088L62.9324 44.2067L64.3874 43.7353C64.4116 43.5886 64.4383 43.4419 64.4504 43.2928L63.0752 43.7378L63.0098 43.5405L64.4649 43.0692C64.477 42.9152 64.4746 42.7589 64.4649 42.6074C63.9347 42.8359 63.3803 43.0475 62.8864 43.2014L62.8162 43.0571C64.155 42.5352 65.2202 41.9532 65.9102 41.4554L66.3363 41.6454C66.0047 41.869 65.4551 42.1577 64.845 42.4342C64.8547 42.605 64.8619 42.7757 64.8498 42.9465L66.7479 42.3332L66.8133 42.5304L64.8353 43.1702C64.8184 43.3217 64.7917 43.4684 64.7578 43.6175L67.2442 42.8142L67.3096 43.0162L64.7022 43.858H64.7046ZM66.5736 43.9494L64.5133 44.6156L64.6561 45.0485L66.7165 44.3823L66.5736 43.9494ZM66.7794 44.5747L64.7191 45.2409L64.8668 45.6906L66.9271 45.0244L66.7794 44.5747ZM66.9876 45.2096L64.9273 45.8758L65.0798 46.34L67.1401 45.6738L66.9876 45.2096Z" fill="#3E51FF"/>
        <path d="M67.1717 11.2723C66.978 11.1497 66.7407 10.9693 66.5059 10.7577L65.9466 12.3378L65.6198 12.2247L65.7021 11.989L63.5595 11.2387L63.4723 11.484L63.1503 11.3709L63.7144 9.78122C63.4021 9.80046 63.0898 9.80527 62.792 9.78362V9.62008C63.5377 9.6273 64.4891 9.49502 65.0508 9.16794L63.3246 8.56428L63.3948 8.36947L64.6828 8.81921C64.5957 8.58592 64.494 8.34301 64.4117 8.16745L64.4988 8.11454C64.4068 8.08808 64.3148 8.06163 64.2277 8.03036L64.2616 7.87403C65.4019 8.18188 66.3921 8.30934 66.9102 8.31656L67.1135 8.69655C66.7867 8.66048 66.3654 8.59314 65.9151 8.48972L65.6754 9.16553L66.0628 9.30021C66.2831 9.15832 66.564 8.93706 66.7843 8.73263L67.0167 9.0044C66.7528 9.15832 66.501 9.2954 66.2759 9.37477L67.6292 9.84856L67.559 10.0434L65.6827 9.38679C66.0798 10.0698 66.8085 10.611 67.4476 10.9693L67.1765 11.2675L67.1717 11.2723ZM64.6852 10.9308L63.7798 10.6134L63.6273 11.0439L64.5327 11.3613L64.6852 10.9308ZM63.9589 8.10973L63.6273 7.99429L63.9589 7.05873L66.0919 7.80429C65.8861 7.571 65.6198 7.30164 65.3946 7.09481L65.4915 6.96494C65.7553 7.11405 66.1572 7.36657 66.4284 7.62391L66.2032 7.84277L68.0287 8.4801L67.6994 9.41085L67.3678 9.2954L67.6268 8.56428L64.2204 7.37379L63.9589 8.10973ZM64.8983 10.3296L63.9928 10.0121L63.85 10.4161L64.7555 10.7336L64.8983 10.3296ZM66.3606 10.623C66.0241 10.2983 65.7069 9.89907 65.5544 9.49743L65.3389 10.1083L65.0072 9.99286L65.2058 9.43249C64.8644 9.61046 64.3996 9.71147 63.9057 9.76438L66.3606 10.623ZM65.0097 8.80237L64.8402 8.87933L65.3389 9.0525L65.5665 8.41276C65.2445 8.33339 64.908 8.24441 64.586 8.14821C64.7555 8.34301 64.908 8.58111 65.0097 8.80237ZM65.9224 11.3637L65.0072 11.0439L64.8547 11.4744L65.7699 11.7942L65.9224 11.3637ZM66.1354 10.7625L65.2203 10.4426L65.0774 10.8466L65.9926 11.1665L66.1354 10.7625Z" fill="#3E51FF"/>
        <path d="M29.5948 6.73889C29.7497 6.42623 29.9071 6.01738 30.0403 5.55321C29.7594 5.69511 29.4326 5.837 29.1856 5.9332L29.0355 5.61815L29.3067 5.56283C29.4132 5.12512 29.5028 4.53588 29.5318 3.93463L29.9095 3.97311C29.8078 4.495 29.6359 5.12512 29.481 5.51713C29.6892 5.46422 29.8998 5.4065 30.0935 5.34638C30.1516 5.12271 30.2025 4.88702 30.2412 4.64652L30.6044 4.72588C30.4373 5.38486 30.1129 6.1689 29.8006 6.66914C30.0548 6.58496 30.3187 6.49117 30.5656 6.39256C30.4736 6.26029 30.3816 6.13282 30.3017 6.02459L30.4228 5.92599C30.66 6.12801 30.953 6.42142 31.137 6.68598L30.8707 6.87838C30.8053 6.77256 30.7327 6.65231 30.6552 6.53205C30.2557 6.78458 29.7304 7.05154 29.4302 7.17179L29.2583 6.82787C29.3624 6.80142 29.4762 6.77496 29.5948 6.73889ZM29.7715 7.31369H29.924C30.0257 7.87406 30.033 8.41759 29.9676 8.79278L29.5851 8.70139C29.7086 8.34063 29.7909 7.85482 29.7739 7.31369H29.7715ZM30.2872 7.15255C30.4809 7.49166 30.7133 8.01836 30.8271 8.31418L30.4833 8.44645C30.4058 8.12177 30.2606 7.58305 30.1444 7.20065L30.2872 7.15015V7.15255ZM31.2362 7.67685L30.9578 7.85722C30.8222 7.559 30.6649 7.2728 30.5196 7.00825L30.6504 6.92167C30.8634 7.14534 31.0571 7.40267 31.2387 7.67444L31.2362 7.67685ZM32.2168 6.29877L31.1975 6.50079L30.7593 4.32424L31.6745 4.14146C31.6987 3.93703 31.7059 3.70856 31.7035 3.47046L32.0812 3.48248C32.0207 3.69413 31.9432 3.92501 31.8633 4.10298L33.2699 3.824L33.7081 6.00054L32.2579 6.28915C32.546 6.39978 32.8995 6.58256 33.1779 6.78218L32.9721 7.0828C32.7082 6.83268 32.3911 6.5994 32.1417 6.42142L32.2143 6.29877H32.2168ZM31.4832 6.23383L31.7398 6.18333L31.6672 6.09434C31.8851 5.90915 32.0909 5.68549 32.2531 5.41131C32.103 5.34397 31.9529 5.27663 31.8052 5.2141C31.7301 5.3584 31.6478 5.48827 31.5679 5.60131L31.4372 5.52435C31.505 5.39688 31.5607 5.27182 31.6042 5.13955C31.5219 5.10828 31.4396 5.07461 31.3573 5.04815L31.3936 4.90626L31.6623 4.96638C31.7204 4.76677 31.764 4.55753 31.7907 4.33146L31.1273 4.46373L31.4856 6.23624L31.4832 6.23383ZM31.3936 6.97458L31.5558 6.96977C31.6406 7.4171 31.643 7.82836 31.5486 8.22519L31.183 8.10975C31.35 7.72976 31.4106 7.42672 31.3936 6.97458ZM33.4152 7.01546C33.7057 7.67204 33.6863 7.92937 33.3038 8.03279C33.0448 8.10013 32.7833 8.15304 32.5606 8.1819C32.1223 8.24203 31.9964 8.14342 31.919 7.75381L31.6962 6.65231L32.0352 6.58496L32.2507 7.65039C32.2918 7.85722 32.3741 7.88608 32.5751 7.86203C32.7494 7.83798 32.9697 7.7995 33.1658 7.73938C33.3668 7.67925 33.3885 7.63596 33.2578 7.05635L33.4128 7.02027L33.4152 7.01546ZM32.9794 4.09336L31.8875 4.31222L32.1102 4.33867C32.086 4.43968 32.0691 4.53588 32.0376 4.62968L32.4661 4.5431L32.5606 4.44209L32.868 4.53348C32.8123 4.82449 32.73 5.0698 32.6259 5.27423C32.8148 5.35119 32.9939 5.42815 33.1706 5.51713L33.0084 5.79852C32.8462 5.69992 32.6719 5.61093 32.4903 5.51713C32.2991 5.80814 32.0739 6.01016 31.8536 6.16168L33.3401 5.86586L32.9818 4.09336H32.9794ZM31.8948 5.02651C32.0497 5.0698 32.2071 5.12031 32.3644 5.17562C32.4274 5.03372 32.4734 4.8774 32.5073 4.70424L31.9795 4.81006C31.9504 4.88702 31.9214 4.95676 31.8923 5.02651H31.8948ZM34.2771 7.34255L34.0035 7.55419C33.8074 7.2247 33.6089 6.92407 33.3619 6.61623L33.4709 6.51281C33.7686 6.75091 34.0543 7.02989 34.2746 7.34255H34.2771Z" fill="#3E51FF"/>
        <path d="M11.9188 15.2743L10.7373 16.0944L10.9722 16.4287L10.6671 16.6404L9.33557 14.7452L10.8221 13.7134L10.2289 12.8717L10.5437 12.6528L11.1368 13.4946L12.6282 12.4604L13.9428 14.3291L13.6402 14.5384L13.4223 14.2305L12.2335 15.0554L13.4005 16.7149L13.0858 16.9338L11.9188 15.2743ZM11.7905 15.0915L10.9528 13.901L9.77136 14.7211L10.609 15.9116L11.7905 15.0915ZM13.294 14.0477L12.4563 12.8572L11.2676 13.6822L12.1052 14.8727L13.294 14.0477Z" fill="#3E51FF"/>
        <path d="M56.8556 8.13861L55.5362 7.81153L55.2917 8.77835L54.9503 8.69417L55.1924 7.72736L53.9867 7.42673C53.5993 8.03039 52.9432 8.16266 52.1177 8.0376L52.1274 7.86925C52.873 7.92457 53.3403 7.81153 53.6405 7.33774L52.3525 7.01787L52.4034 6.81826L53.7446 7.15015C53.8003 7.03952 53.8487 6.90965 53.8899 6.76534L53.2071 6.59459L53.6599 4.79563L56.7346 5.56043L56.2819 7.35939L55.6863 7.21027L55.587 7.6071L56.9065 7.93419L56.8556 8.1338V8.13861ZM52.8997 4.86778L52.8246 4.72829C53.2774 4.44209 53.7688 3.90818 54.0739 3.37186L54.4031 3.57388C54.316 3.70375 54.2167 3.83362 54.1029 3.95868L55.4732 4.3002L55.4224 4.49981L54.5266 4.27855C54.621 4.44931 54.6961 4.63209 54.7663 4.85816L54.4201 4.9255C54.3934 4.65614 54.362 4.45652 54.3208 4.22804L53.9383 4.13184C53.6163 4.45171 53.2386 4.72829 52.8997 4.86778ZM53.5945 6.48155L55.9962 7.078L56.0833 6.72927L53.6817 6.13282L53.5945 6.48155ZM53.7277 5.94764L56.1293 6.54408L56.2165 6.19535L53.8148 5.59891L53.7277 5.94764ZM53.8632 5.41132L56.2649 6.00776L56.3496 5.67346L53.948 5.07702L53.8632 5.41132ZM55.2457 7.52533L55.3449 7.1285L54.2385 6.85433C54.1973 6.99623 54.1489 7.1261 54.0932 7.23913L55.2481 7.52533H55.2457ZM54.9793 4.95677C55.3425 4.73551 55.7589 4.35311 56.0615 3.86489L56.3763 4.07412C56.277 4.2064 56.1632 4.32665 56.0543 4.43728L57.6691 4.83892L57.6183 5.03854L56.5215 4.76677C56.6184 4.94955 56.7055 5.15157 56.7709 5.37524L56.4271 5.43056C56.4005 5.16119 56.3714 4.95196 56.3254 4.71626L55.8654 4.60082C55.5798 4.83652 55.2868 4.99765 55.052 5.09866L54.9793 4.95436V4.95677Z" fill="#3E51FF"/>
        <path d="M53.4154 47.0495L53.0692 47.1192L52.873 46.1476L55.0907 45.7051C54.7929 45.6065 54.4274 45.5127 54.1247 45.4477L54.1417 45.2866C54.4443 45.2794 54.9212 45.2938 55.2868 45.378L55.2069 45.681L57.105 45.3034L57.3011 46.2703L56.9549 46.34L56.8024 45.5824L53.2628 46.2871L53.4154 47.0519V47.0495ZM57.8023 48.139C57.5723 48.1317 57.2769 48.0981 56.9646 48.0355L57.2963 49.6782L56.9573 49.7455L56.9065 49.5002L54.6791 49.9427L54.73 50.1977L54.3959 50.265L54.0618 48.6127C53.8027 48.7883 53.5364 48.9494 53.2701 49.0841L53.1878 48.9446C53.8318 48.5743 54.5799 47.9754 54.897 47.4102L53.103 47.7686L53.0619 47.5666L54.4007 47.2996C54.207 47.1433 53.994 46.987 53.8318 46.8787L53.8778 46.7873C53.7858 46.8114 53.6914 46.8354 53.6042 46.8523L53.5509 46.7008C54.6912 46.3881 55.6064 45.9937 56.0543 45.7363L56.4247 45.96C56.1269 46.0947 55.7274 46.251 55.2868 46.3905L55.4297 47.0928L55.8316 47.0134C55.9478 46.7801 56.0761 46.4458 56.1608 46.1596L56.4998 46.2751C56.3521 46.542 56.2068 46.7873 56.0519 46.9701L57.4585 46.6911L57.4996 46.8932L55.5483 47.2828C56.2407 47.67 57.1462 47.7638 57.8773 47.7493L57.7999 48.1438L57.8023 48.139ZM54.6743 47.112L54.5678 47.2635L55.0859 47.1601L54.9527 46.4939C54.6356 46.5901 54.299 46.6839 53.9746 46.7633C54.2191 46.8451 54.4734 46.9725 54.6767 47.1096L54.6743 47.112ZM56.7709 47.9923C56.3133 47.884 55.8364 47.7036 55.4999 47.4343L55.6282 48.0692L55.282 48.139L55.1658 47.5569C54.9648 47.884 54.6162 48.2063 54.2191 48.5021L56.7709 47.9947V47.9923ZM55.3643 48.4829L54.4225 48.6705L54.5072 49.0913L55.449 48.9038L55.3643 48.4829ZM55.4902 49.1058L54.5484 49.2934L54.638 49.7407L55.5798 49.5531L55.4902 49.1058ZM56.6499 48.2279L55.6984 48.4179L55.7831 48.8388L56.7346 48.6488L56.6499 48.2279ZM56.7758 48.8508L55.8243 49.0408L55.9139 49.4882L56.8653 49.2982L56.7758 48.8508Z" fill="#3E51FF"/>
        <path d="M31.4856 46.6214L30.5825 50.2097L30.246 50.1255L30.9989 47.1385C30.7326 47.3838 30.4397 47.5954 30.1225 47.7614L30.045 47.6123C30.7617 47.1024 31.3524 46.3256 31.8463 45.39L32.1901 45.5944C31.977 45.9624 31.747 46.3087 31.4856 46.6214ZM32.5387 48.0091C32.2094 48.5719 31.6744 49.2356 31.103 49.6469L30.9989 49.517C31.4565 49.0793 31.8971 48.4348 32.1973 47.7974L32.5411 48.0091H32.5387ZM33.5967 47.0543L32.7881 50.2626C32.6743 50.7147 32.2748 50.7965 31.35 50.1399L31.4226 50.0004C32.2748 50.354 32.3886 50.3323 32.4637 50.0341L33.236 46.9653L32.5 46.7825C32.224 47.1409 31.8996 47.4583 31.5582 47.7012L31.4468 47.5714C31.9916 47.0735 32.4152 46.4073 32.7275 45.6546L33.0955 45.8325C32.9697 46.0899 32.8099 46.352 32.6331 46.6021L34.5215 47.0711L34.6716 47.0158L35.0009 47.3261C34.7176 47.6171 34.3133 47.9153 34.0349 48.0572L33.9308 47.9225C34.1317 47.7373 34.3642 47.468 34.4901 47.2756L33.5894 47.0519L33.5967 47.0543ZM34.3739 50.2145L33.955 50.2842C33.9211 49.6758 33.788 48.7835 33.6693 48.2303L33.8194 48.1798C34.0567 48.7474 34.2819 49.6156 34.3739 50.2121V50.2145Z" fill="#3E51FF"/>
        <path d="M71.4302 15.9549L74.8632 19.1344L74.7179 19.2883L71.2849 16.1089L71.4302 15.9549ZM73.6139 15.005L75.6549 16.8953L74.4686 18.1579L72.4276 16.2676L73.6139 15.005ZM72.6722 14.5841L72.7278 14.4253C73.4881 14.6731 74.5218 14.7765 75.2409 14.5769L73.9916 13.42L74.1345 13.2685L75.6065 14.6322L76.1342 14.0694L76.4078 14.3219L75.88 14.8847L77.3472 16.2435L77.2043 16.3951L75.8461 15.1372C75.7929 15.9646 76.081 16.7823 76.5095 17.4701L76.0834 17.6048C75.713 16.8424 75.5411 15.9068 75.7033 15.0723L74.8874 15.9405L74.6138 15.688L75.3789 14.8751C74.6017 15.0963 73.4735 14.916 72.6746 14.5865L72.6722 14.5841ZM72.8271 16.3542L74.3499 17.7635L74.7567 17.3306L73.2338 15.9213L72.8271 16.3542ZM73.3791 15.7673L74.9019 17.1767L75.2506 16.8039L73.7277 15.3946L73.3791 15.7673Z" fill="#3E51FF"/>
        <path d="M7.58265 30.6039C7.18318 30.6039 6.79824 30.4428 6.5174 30.1614C6.23656 30.4428 5.84919 30.6039 5.45214 30.6039C4.62415 30.6039 3.94868 29.9329 3.94868 29.1104C3.94868 28.8651 4.00921 28.6246 4.12784 28.4081C3.5371 28.1917 3.1449 27.6361 3.1449 27.006C3.1449 26.1835 3.82037 25.5125 4.64836 25.5125C4.77425 25.5125 4.89773 25.5269 5.01878 25.5582C5.06236 24.7765 5.7233 24.1488 6.51982 24.1488C7.31634 24.1488 7.97728 24.7765 8.02086 25.5606C8.14191 25.5293 8.26781 25.5125 8.39128 25.5125C9.21927 25.5125 9.89474 26.2172 9.89474 27.0854C9.89474 27.7155 9.52675 28.2903 8.97233 28.5356C9.0498 28.7208 9.08854 28.9132 9.08854 29.1104C9.08854 29.9329 8.41307 30.6039 7.58508 30.6039H7.58265ZM6.51498 30.0123L6.55371 30.0532C6.82003 30.3394 7.19287 30.5029 7.58265 30.5029C8.35496 30.5029 8.98201 29.88 8.98201 29.1128C8.98201 28.9132 8.93843 28.716 8.8537 28.5308L8.83191 28.4827L8.88275 28.4634C9.42506 28.2494 9.79064 27.6962 9.79064 27.0878C9.79064 26.2773 9.16359 25.6183 8.39128 25.6183C8.2557 25.6183 8.1177 25.6399 7.98697 25.6808L7.9216 25.7025V25.6327C7.91434 24.8727 7.28487 24.2547 6.52224 24.2547C5.75962 24.2547 5.13257 24.8703 5.12288 25.6279V25.6953L5.05751 25.676C4.92436 25.6351 4.78878 25.6159 4.65078 25.6159C3.87847 25.6159 3.25142 26.2388 3.25142 27.006C3.25142 27.6121 3.64121 28.1436 4.22226 28.3312L4.28278 28.3504L4.24889 28.4057C4.12057 28.6198 4.05279 28.8651 4.05279 29.1104C4.05279 29.8776 4.67983 30.5005 5.45214 30.5005C5.83951 30.5005 6.21477 30.337 6.48108 30.0508L6.51982 30.0099L6.51498 30.0123Z" fill="#3E51FF"/>
        <path d="M7.58262 30.3875C7.22188 30.3875 6.88536 30.2408 6.63841 29.9762C6.57547 29.9089 6.45441 29.9089 6.39147 29.9762C6.14452 30.2408 5.81042 30.3875 5.44726 30.3875C4.7379 30.3875 4.16411 29.8151 4.16411 29.1128C4.16411 28.8867 4.22706 28.6631 4.34327 28.4658C4.3699 28.4226 4.37474 28.3696 4.35538 28.3215C4.33601 28.2734 4.29969 28.2374 4.24885 28.2229C3.71622 28.0522 3.35791 27.564 3.35791 27.0084C3.35791 26.3037 3.93412 25.7337 4.64106 25.7337C4.76695 25.7337 4.89285 25.753 5.0139 25.7891C5.06474 25.8035 5.12042 25.7939 5.16158 25.765C5.20274 25.7337 5.22937 25.6856 5.22937 25.6327C5.23663 24.9377 5.81284 24.3725 6.51252 24.3725C7.2122 24.3725 7.7884 24.9401 7.79567 25.6351C7.79567 25.688 7.8223 25.7386 7.86588 25.7674C7.90946 25.7987 7.96514 25.8059 8.01598 25.7915C8.13703 25.753 8.26051 25.7337 8.3864 25.7337C9.09576 25.7337 9.66955 26.3422 9.66955 27.0902C9.66955 27.6505 9.33544 28.1604 8.83671 28.3576C8.79313 28.3745 8.75924 28.4081 8.74229 28.4514C8.72534 28.4947 8.72777 28.5428 8.74471 28.5837C8.82461 28.7545 8.86334 28.9324 8.86334 29.1176C8.86334 29.8223 8.28714 30.3923 7.58019 30.3923L7.58262 30.3875ZM6.51494 29.8439C6.58273 29.8439 6.6481 29.8728 6.6941 29.9233C6.92652 30.1734 7.24125 30.3105 7.58019 30.3105C8.24598 30.3105 8.78829 29.7718 8.78829 29.1128C8.78829 28.9396 8.74955 28.7713 8.67692 28.6126C8.64787 28.5524 8.64787 28.4827 8.67208 28.4202C8.69629 28.3576 8.74713 28.3095 8.81008 28.2855C9.27976 28.1003 9.5945 27.6193 9.5945 27.0902C9.5945 26.3855 9.05218 25.8107 8.38882 25.8107C8.27261 25.8107 8.1564 25.8299 8.04261 25.8636C7.96998 25.8877 7.88767 25.8732 7.82472 25.8299C7.76177 25.7842 7.72304 25.7121 7.72304 25.6351C7.71577 24.981 7.17588 24.4471 6.51736 24.4471C5.85884 24.4471 5.31895 24.9786 5.31169 25.6303C5.31169 25.7073 5.27295 25.7794 5.21242 25.8227C5.14948 25.8684 5.06958 25.8804 4.99695 25.8588C4.88316 25.8251 4.76453 25.8083 4.64832 25.8083C3.98254 25.8083 3.44023 26.347 3.44023 27.0084C3.44023 27.5303 3.77675 27.9897 4.2779 28.1508C4.34811 28.1724 4.40622 28.2253 4.43285 28.2951C4.45948 28.3648 4.45222 28.4418 4.4159 28.5043C4.30696 28.6895 4.24643 28.8988 4.24643 29.1128C4.24643 29.7742 4.78874 30.3105 5.45453 30.3105C5.79347 30.3105 6.10821 30.1734 6.34063 29.9233C6.38662 29.8728 6.45199 29.8439 6.51978 29.8439H6.51494Z" fill="#3E51FF"/>
        <path d="M6.51493 28.1676C6.12514 28.1676 5.80798 27.8526 5.80798 27.4654C5.80798 27.0781 6.12514 26.7631 6.51493 26.7631C6.90471 26.7631 7.22187 27.0781 7.22187 27.4654C7.22187 27.8526 6.90471 28.1676 6.51493 28.1676ZM6.51493 26.8665C6.18324 26.8665 5.91209 27.1359 5.91209 27.4654C5.91209 27.7948 6.18324 28.0642 6.51493 28.0642C6.84661 28.0642 7.11776 27.7948 7.11776 27.4654C7.11776 27.1359 6.84661 26.8665 6.51493 26.8665Z" fill="#3E51FF"/>
        <path d="M6.49078 26.0199V26.8184C6.49078 26.8184 6.50773 26.8184 6.51741 26.8184C6.5271 26.8184 6.53436 26.8184 6.54404 26.8184V26.0199C6.63846 26.0079 6.7111 25.9286 6.7111 25.8299C6.7111 25.7241 6.62394 25.6375 6.51741 25.6375C6.41089 25.6375 6.32373 25.7241 6.32373 25.8299C6.32373 25.9286 6.39636 26.0079 6.49078 26.0199Z" fill="#3E51FF"/>
        <path d="M5.91452 26.1474L6.23168 26.881C6.24621 26.8737 6.26315 26.8665 6.2801 26.8617L5.96294 26.1282C6.04526 26.0801 6.08157 25.9767 6.04284 25.8877C6.00168 25.7891 5.88547 25.7458 5.78863 25.7867C5.68937 25.8276 5.64579 25.943 5.68695 26.0392C5.72568 26.1282 5.82495 26.1739 5.91694 26.1474H5.91452Z" fill="#3E51FF"/>
        <path d="M5.05511 27.4966H5.86131C5.86131 27.4966 5.86131 27.4774 5.86131 27.4678C5.86131 27.4606 5.86131 27.4533 5.86131 27.4461H5.05511C5.043 27.3523 4.96311 27.2802 4.86385 27.2802C4.75732 27.2802 4.67017 27.3668 4.67017 27.4726C4.67017 27.5784 4.75732 27.665 4.86385 27.665C4.96311 27.665 5.043 27.5928 5.05511 27.499V27.4966Z" fill="#3E51FF"/>
        <path d="M4.89051 27.1118C4.98251 27.1431 5.08419 27.1022 5.12535 27.0156L5.88555 27.2778C5.8904 27.2609 5.89524 27.2441 5.9025 27.2297L5.1423 26.9675C5.16166 26.8737 5.11082 26.7799 5.0164 26.7463C4.91472 26.7102 4.80577 26.7655 4.76946 26.8641C4.73314 26.9627 4.78883 27.0733 4.88809 27.1094L4.89051 27.1118Z" fill="#3E51FF"/>
        <path d="M6.96535 26.0897L6.7063 26.8449C6.72325 26.8497 6.73777 26.8569 6.75472 26.8617L7.01377 26.1065C7.10819 26.1258 7.20261 26.0728 7.23408 25.9814C7.26798 25.8804 7.21472 25.7722 7.11303 25.7361C7.01135 25.7025 6.9024 25.7554 6.86609 25.8564C6.83461 25.9478 6.87819 26.0488 6.96293 26.0897H6.96535Z" fill="#3E51FF"/>
        <path d="M7.79333 26.7703L7.08154 27.1431C7.09123 27.1575 7.09849 27.1719 7.10575 27.1888L7.81754 26.8136C7.87322 26.8906 7.97733 26.917 8.06448 26.8713C8.1589 26.8208 8.19522 26.7054 8.14438 26.6116C8.09354 26.5178 7.97733 26.4817 7.88291 26.5322C7.79575 26.5779 7.75943 26.6789 7.79333 26.7679V26.7703Z" fill="#3E51FF"/>
        <path d="M6.96289 26.9916C6.975 27.0036 6.9871 27.0156 6.99921 27.0276L7.56815 26.4625C7.6432 26.5202 7.75215 26.5154 7.82236 26.4456C7.89741 26.3711 7.89741 26.2484 7.82236 26.1739C7.74731 26.0993 7.62383 26.0993 7.54878 26.1739C7.47857 26.2436 7.47373 26.3518 7.53183 26.4264L6.96289 26.9916Z" fill="#3E51FF"/>
        <path d="M5.46431 26.4625L6.03325 27.0276C6.04535 27.0156 6.05746 27.0036 6.06956 26.9916L5.50062 26.4264C5.55873 26.3518 5.55388 26.2436 5.48367 26.1739C5.40862 26.0993 5.28515 26.0993 5.2101 26.1739C5.13505 26.2484 5.13505 26.3711 5.2101 26.4456C5.28031 26.5154 5.38925 26.5202 5.46431 26.4625Z" fill="#3E51FF"/>
        <path d="M8.13954 27.8285C8.04754 27.7972 7.94585 27.8381 7.9047 27.9247L7.14207 27.6602C7.13723 27.677 7.12996 27.6914 7.12512 27.7083L7.88775 27.9728C7.86838 28.0666 7.91922 28.1604 8.01364 28.1941C8.11532 28.2301 8.22427 28.1748 8.26059 28.0762C8.2969 27.9752 8.24122 27.867 8.14196 27.8309L8.13954 27.8285Z" fill="#3E51FF"/>
        <path d="M7.56567 28.4779L6.99188 27.9079C6.97978 27.9199 6.96767 27.9319 6.95557 27.944L7.52935 28.514C7.47125 28.5885 7.47609 28.6967 7.5463 28.7665C7.62135 28.841 7.74482 28.841 7.81988 28.7665C7.89493 28.6919 7.89493 28.5693 7.81988 28.4947C7.74967 28.425 7.64072 28.4202 7.56567 28.4779Z" fill="#3E51FF"/>
        <path d="M7.11543 28.7929L6.79586 28.0522C6.78133 28.0594 6.76438 28.0666 6.74744 28.0714L7.06701 28.8122C6.9847 28.8603 6.94838 28.9637 6.98712 29.0527C7.02828 29.1513 7.14449 29.1946 7.24133 29.1537C7.33817 29.1128 7.38417 28.9974 7.34301 28.9012C7.30427 28.8122 7.20501 28.7665 7.11301 28.7929H7.11543Z" fill="#3E51FF"/>
        <path d="M8.16861 27.2778C8.06935 27.2778 7.98945 27.3499 7.97735 27.4437H7.17114C7.17114 27.4437 7.17114 27.4581 7.17114 27.4654C7.17114 27.475 7.17114 27.4846 7.17114 27.4942H7.97735C7.98945 27.588 8.06935 27.6602 8.16861 27.6602C8.27513 27.6602 8.36229 27.5736 8.36229 27.4678C8.36229 27.3619 8.27513 27.2754 8.16861 27.2754V27.2778Z" fill="#3E51FF"/>
        <path d="M6.5416 28.9228V28.1171C6.5416 28.1171 6.52466 28.1171 6.51497 28.1171C6.50529 28.1171 6.49802 28.1171 6.48834 28.1171V28.9228C6.39392 28.9348 6.32129 29.0142 6.32129 29.1128C6.32129 29.2186 6.40845 29.3052 6.51497 29.3052C6.6215 29.3052 6.70865 29.2186 6.70865 29.1128C6.70865 29.0142 6.63602 28.9348 6.5416 28.9228Z" fill="#3E51FF"/>
        <path d="M6.07441 27.9464C6.0623 27.9343 6.0502 27.9223 6.03809 27.9103L5.46431 28.4803C5.38925 28.4225 5.28031 28.4274 5.2101 28.4971C5.13505 28.5717 5.13505 28.6943 5.2101 28.7689C5.28515 28.8434 5.40862 28.8434 5.48367 28.7689C5.55388 28.6991 5.55873 28.5909 5.50062 28.5163L6.07441 27.9464Z" fill="#3E51FF"/>
        <path d="M6.06713 28.853L6.32861 28.0907C6.31166 28.0858 6.29471 28.081 6.28018 28.0738L6.01871 28.8362C5.92429 28.817 5.82987 28.8699 5.7984 28.9613C5.7645 29.0623 5.81777 29.1705 5.91945 29.2066C6.02113 29.2403 6.13008 29.1873 6.1664 29.0863C6.19787 28.9949 6.15429 28.8939 6.06955 28.853H6.06713Z" fill="#3E51FF"/>
        <path d="M5.23674 28.1724L5.95095 27.7973C5.94126 27.7828 5.934 27.7684 5.92674 27.7516L5.21253 28.1267C5.15685 28.0498 5.05274 28.0233 4.96559 28.069C4.87117 28.1195 4.83485 28.235 4.88569 28.3288C4.93654 28.4226 5.05274 28.4586 5.14717 28.4081C5.23432 28.3624 5.27064 28.2614 5.23674 28.1724Z" fill="#3E51FF"/>
        <path d="M12.2166 41.0032C11.8171 41.0032 11.4322 40.8421 11.1513 40.5607C10.8705 40.8421 10.4831 41.0032 10.0861 41.0032C9.25806 41.0032 8.58259 40.3322 8.58259 39.5097C8.58259 39.2644 8.64312 39.0239 8.76175 38.8075C8.17102 38.591 7.77881 38.0354 7.77881 37.4053C7.77881 36.5828 8.45428 35.9118 9.28227 35.9118C9.40816 35.9118 9.53164 35.9262 9.65269 35.9575C9.69627 35.1759 10.3572 34.5482 11.1537 34.5482C11.9503 34.5482 12.6112 35.1759 12.6548 35.9599C12.7758 35.9286 12.9017 35.9118 13.0252 35.9118C13.8532 35.9118 14.5287 36.6165 14.5287 37.4847C14.5287 38.1148 14.1607 38.6896 13.6062 38.9349C13.6837 39.1201 13.7224 39.3125 13.7224 39.5097C13.7224 40.3322 13.047 41.0032 12.219 41.0032H12.2166ZM11.1513 40.4116L11.19 40.4525C11.4564 40.7387 11.8292 40.9022 12.219 40.9022C12.9913 40.9022 13.6183 40.2793 13.6183 39.5121C13.6183 39.3125 13.5748 39.1153 13.49 38.9301L13.4682 38.882L13.5191 38.8628C14.0614 38.6487 14.427 38.0956 14.427 37.4871C14.427 36.6766 13.7999 36.0176 13.0276 36.0176C12.892 36.0176 12.754 36.0393 12.6233 36.0802L12.5579 36.1018V36.0321C12.5507 35.2721 11.9212 34.654 11.1586 34.654C10.3959 34.654 9.7689 35.2697 9.75922 36.0272V36.0946L9.69385 36.0753C9.56069 36.0345 9.42511 36.0152 9.28711 36.0152C8.5148 36.0152 7.88776 36.6381 7.88776 37.4053C7.88776 38.0114 8.27754 38.5429 8.85859 38.7305L8.91912 38.7497L8.88522 38.8051C8.75691 39.0191 8.68912 39.2644 8.68912 39.5097C8.68912 40.2769 9.31616 40.8998 10.0885 40.8998C10.4758 40.8998 10.8511 40.7363 11.1174 40.4501L11.1562 40.4092L11.1513 40.4116Z" fill="#3E51FF"/>
        <path d="M12.2165 40.7868C11.8558 40.7868 11.5193 40.6401 11.2723 40.3756C11.2094 40.3082 11.0883 40.3082 11.0254 40.3756C10.7784 40.6401 10.4443 40.7868 10.0812 40.7868C9.37181 40.7868 8.79803 40.2144 8.79803 39.5122C8.79803 39.2861 8.86097 39.0624 8.97718 38.8652C9.00381 38.8219 9.00866 38.769 8.98929 38.7209C8.96992 38.6728 8.9336 38.6367 8.88276 38.6223C8.35013 38.4515 7.99182 37.9633 7.99182 37.4078C7.99182 36.7031 8.56803 36.1331 9.27497 36.1331C9.40086 36.1331 9.52676 36.1523 9.64781 36.1884C9.69865 36.2028 9.75433 36.1932 9.79549 36.1644C9.83665 36.1331 9.86328 36.085 9.86328 36.0321C9.87055 35.337 10.4468 34.7719 11.1464 34.7719C11.8461 34.7719 12.4223 35.3394 12.4296 36.0345C12.4296 36.0874 12.4562 36.1379 12.4998 36.1668C12.5434 36.198 12.5991 36.2052 12.6499 36.1908C12.7709 36.1523 12.8944 36.1331 13.0203 36.1331C13.7297 36.1331 14.3035 36.7416 14.3035 37.4895C14.3035 38.0499 13.9694 38.5598 13.4706 38.757C13.427 38.7738 13.3932 38.8075 13.3762 38.8508C13.3593 38.8941 13.3617 38.9422 13.3786 38.983C13.4585 39.1538 13.4973 39.3318 13.4973 39.517C13.4973 40.2216 12.921 40.7916 12.2141 40.7916L12.2165 40.7868ZM11.1513 40.2433C11.2191 40.2433 11.2844 40.2721 11.3304 40.3226C11.5628 40.5728 11.8776 40.7099 12.2165 40.7099C12.8823 40.7099 13.4246 40.1711 13.4246 39.5122C13.4246 39.339 13.3859 39.1706 13.3133 39.0119C13.2842 38.9518 13.2842 38.882 13.3084 38.8195C13.3326 38.757 13.3835 38.7089 13.4464 38.6848C13.9161 38.4996 14.2308 38.0186 14.2308 37.4895C14.2308 36.7849 13.6885 36.2101 13.0252 36.2101C12.9089 36.2101 12.7927 36.2293 12.6789 36.263C12.6063 36.287 12.524 36.2726 12.4611 36.2293C12.3981 36.1836 12.3594 36.1114 12.3594 36.0345C12.3521 35.3803 11.8122 34.8464 11.1537 34.8464C10.4952 34.8464 9.95528 35.3779 9.94802 36.0297C9.94802 36.1066 9.90928 36.1788 9.84876 36.2221C9.78581 36.2678 9.70591 36.2798 9.63328 36.2582C9.51949 36.2245 9.40086 36.2077 9.28465 36.2077C8.61887 36.2077 8.07656 36.7464 8.07656 37.4078C8.07656 37.9296 8.41308 38.389 8.91424 38.5501C8.98445 38.5718 9.04255 38.6247 9.06918 38.6944C9.09581 38.7642 9.08855 38.8411 9.05223 38.9037C8.94329 39.0889 8.88276 39.2981 8.88276 39.5122C8.88276 40.1735 9.42507 40.7099 10.0909 40.7099C10.4298 40.7099 10.7445 40.5728 10.977 40.3226C11.023 40.2721 11.0883 40.2433 11.1561 40.2433H11.1513Z" fill="#3E51FF"/>
        <path d="M11.1513 38.5669C10.7615 38.5669 10.4443 38.2519 10.4443 37.8647C10.4443 37.4775 10.7615 37.1624 11.1513 37.1624C11.5411 37.1624 11.8582 37.4775 11.8582 37.8647C11.8582 38.2519 11.5411 38.5669 11.1513 38.5669ZM11.1513 37.2658C10.8196 37.2658 10.5484 37.5352 10.5484 37.8647C10.5484 38.1942 10.8196 38.4635 11.1513 38.4635C11.483 38.4635 11.7541 38.1942 11.7541 37.8647C11.7541 37.5352 11.483 37.2658 11.1513 37.2658Z" fill="#3E51FF"/>
        <path d="M11.1247 36.4169V37.2154C11.1247 37.2154 11.1416 37.2154 11.1513 37.2154C11.161 37.2154 11.1683 37.2154 11.178 37.2154V36.4169C11.2724 36.4049 11.345 36.3255 11.345 36.2269C11.345 36.1211 11.2579 36.0345 11.1513 36.0345C11.0448 36.0345 10.9576 36.1211 10.9576 36.2269C10.9576 36.3255 11.0303 36.4049 11.1247 36.4169Z" fill="#3E51FF"/>
        <path d="M10.5509 36.5467L10.868 37.2803C10.8826 37.2731 10.8995 37.2658 10.9165 37.261L10.5993 36.5275C10.6816 36.4794 10.7179 36.376 10.6792 36.287C10.638 36.1884 10.5218 36.1451 10.425 36.186C10.3257 36.2269 10.2821 36.3423 10.3233 36.4385C10.362 36.5275 10.4613 36.5732 10.5533 36.5467H10.5509Z" fill="#3E51FF"/>
        <path d="M9.68902 37.8936H10.4952C10.4952 37.8936 10.4952 37.8743 10.4952 37.8647C10.4952 37.8575 10.4952 37.8503 10.4952 37.8431H9.68902C9.67692 37.7493 9.59702 37.6771 9.49776 37.6771C9.39123 37.6771 9.30408 37.7637 9.30408 37.8695C9.30408 37.9753 9.39123 38.0619 9.49776 38.0619C9.59702 38.0619 9.67692 37.9898 9.68902 37.896V37.8936Z" fill="#3E51FF"/>
        <path d="M9.52686 37.5112C9.61886 37.5424 9.72054 37.5015 9.7617 37.415L10.5219 37.6771C10.5267 37.6603 10.5316 37.6434 10.5389 37.629L9.77865 37.3669C9.79802 37.2731 9.74718 37.1793 9.65275 37.1456C9.55107 37.1095 9.44212 37.1648 9.40581 37.2635C9.36949 37.3621 9.42518 37.4727 9.52444 37.5088L9.52686 37.5112Z" fill="#3E51FF"/>
        <path d="M11.5993 36.4866L11.3402 37.2418C11.3572 37.2466 11.3717 37.2538 11.3886 37.2587L11.6477 36.5035C11.7421 36.5227 11.8365 36.4698 11.868 36.3784C11.9019 36.2774 11.8486 36.1692 11.7469 36.1331C11.6453 36.0994 11.5363 36.1523 11.5 36.2534C11.4685 36.3448 11.5121 36.4458 11.5968 36.4866H11.5993Z" fill="#3E51FF"/>
        <path d="M12.4297 37.1673L11.7179 37.5401C11.7276 37.5545 11.7348 37.5689 11.7421 37.5858L12.4539 37.2106C12.5096 37.2875 12.6137 37.314 12.7008 37.2683C12.7953 37.2178 12.8316 37.1023 12.7807 37.0085C12.7299 36.9148 12.6137 36.8787 12.5193 36.9292C12.4321 36.9749 12.3958 37.0759 12.4297 37.1649V37.1673Z" fill="#3E51FF"/>
        <path d="M11.5968 37.3885C11.6089 37.4005 11.621 37.4126 11.6331 37.4246L12.2021 36.8594C12.2771 36.9171 12.3861 36.9123 12.4563 36.8426C12.5313 36.768 12.5313 36.6454 12.4563 36.5708C12.3812 36.4963 12.2577 36.4963 12.1827 36.5708C12.1125 36.6406 12.1076 36.7488 12.1657 36.8233L11.5968 37.3885Z" fill="#3E51FF"/>
        <path d="M10.0982 36.8618L10.6672 37.427C10.6793 37.4149 10.6914 37.4029 10.7035 37.3909L10.1345 36.8257C10.1926 36.7512 10.1878 36.6429 10.1176 36.5732C10.0425 36.4986 9.91906 36.4986 9.84401 36.5732C9.76896 36.6477 9.76896 36.7704 9.84401 36.845C9.91422 36.9147 10.0232 36.9195 10.0982 36.8618Z" fill="#3E51FF"/>
        <path d="M12.7734 38.2279C12.6814 38.1966 12.5798 38.2375 12.5386 38.3241L11.776 38.0595C11.7711 38.0763 11.7639 38.0908 11.759 38.1076L12.5217 38.3722C12.5023 38.466 12.5531 38.5598 12.6476 38.5934C12.7492 38.6295 12.8582 38.5742 12.8945 38.4756C12.9308 38.3746 12.8751 38.2663 12.7759 38.2303L12.7734 38.2279Z" fill="#3E51FF"/>
        <path d="M12.202 38.8772L11.6282 38.3073C11.6161 38.3193 11.604 38.3313 11.5919 38.3433L12.1657 38.9133C12.1076 38.9879 12.1124 39.0961 12.1827 39.1658C12.2577 39.2404 12.3812 39.2404 12.4562 39.1658C12.5313 39.0913 12.5313 38.9686 12.4562 38.8941C12.386 38.8243 12.2771 38.8195 12.202 38.8772Z" fill="#3E51FF"/>
        <path d="M11.7518 39.1923L11.4322 38.4515C11.4177 38.4588 11.4007 38.466 11.3838 38.4708L11.7034 39.2115C11.6211 39.2596 11.5847 39.363 11.6235 39.452C11.6646 39.5506 11.7808 39.5939 11.8777 39.553C11.9745 39.5122 12.0205 39.3967 11.9794 39.3005C11.9406 39.2115 11.8414 39.1658 11.7494 39.1923H11.7518Z" fill="#3E51FF"/>
        <path d="M12.8025 37.6771C12.7033 37.6771 12.6234 37.7492 12.6113 37.843H11.8051C11.8051 37.843 11.8051 37.8575 11.8051 37.8647C11.8051 37.8743 11.8051 37.8839 11.8051 37.8935H12.6113C12.6234 37.9873 12.7033 38.0595 12.8025 38.0595C12.909 38.0595 12.9962 37.9729 12.9962 37.8671C12.9962 37.7613 12.909 37.6747 12.8025 37.6747V37.6771Z" fill="#3E51FF"/>
        <path d="M11.1755 39.3197V38.514C11.1755 38.514 11.1586 38.514 11.1489 38.514C11.1392 38.514 11.1319 38.514 11.1223 38.514V39.3197C11.0278 39.3317 10.9552 39.4111 10.9552 39.5097C10.9552 39.6155 11.0424 39.7021 11.1489 39.7021C11.2554 39.7021 11.3426 39.6155 11.3426 39.5097C11.3426 39.4111 11.2699 39.3317 11.1755 39.3197Z" fill="#3E51FF"/>
        <path d="M10.7083 38.3433C10.6962 38.3313 10.6841 38.3193 10.672 38.3073L10.0982 38.8772C10.0232 38.8195 9.91422 38.8243 9.84401 38.8941C9.76896 38.9686 9.76896 39.0913 9.84401 39.1658C9.91906 39.2404 10.0425 39.2404 10.1176 39.1658C10.1878 39.0961 10.1926 38.9879 10.1345 38.9133L10.7083 38.3433Z" fill="#3E51FF"/>
        <path d="M10.701 39.25L10.9625 38.4876C10.9456 38.4828 10.9286 38.478 10.9141 38.4708L10.6526 39.2332C10.5582 39.2139 10.4638 39.2668 10.4323 39.3582C10.3984 39.4592 10.4517 39.5675 10.5534 39.6035C10.655 39.6372 10.764 39.5843 10.8003 39.4833C10.8318 39.3919 10.7882 39.2909 10.7035 39.25H10.701Z" fill="#3E51FF"/>
        <path d="M9.87065 38.5718L10.5849 38.1966C10.5752 38.1821 10.5679 38.1677 10.5606 38.1509L9.84644 38.5261C9.79076 38.4491 9.68666 38.4226 9.5995 38.4683C9.50508 38.5188 9.46876 38.6343 9.5196 38.7281C9.57045 38.8219 9.68666 38.858 9.78108 38.8074C9.86823 38.7618 9.90455 38.6607 9.87065 38.5718Z" fill="#3E51FF"/>
        <path d="M80.7439 30.6039C80.3444 30.6039 79.9595 30.4428 79.6787 30.1614C79.3978 30.4428 79.0104 30.6039 78.6134 30.6039C77.7854 30.6039 77.1099 29.9329 77.1099 29.1104C77.1099 28.8651 77.1705 28.6246 77.2891 28.4081C76.6984 28.1917 76.3062 27.6361 76.3062 27.006C76.3062 26.1835 76.9816 25.5125 77.8096 25.5125C77.9355 25.5125 78.059 25.5269 78.18 25.5582C78.2236 24.7765 78.8846 24.1488 79.6811 24.1488C80.4776 24.1488 81.1385 24.7765 81.1821 25.5606C81.3032 25.5293 81.4291 25.5125 81.5525 25.5125C82.3805 25.5125 83.056 26.2172 83.056 27.0854C83.056 27.7155 82.688 28.2903 82.1336 28.5356C82.2111 28.7208 82.2498 28.9132 82.2498 29.1104C82.2498 29.9329 81.5743 30.6039 80.7463 30.6039H80.7439ZM79.6762 30.0123L79.715 30.0532C79.9813 30.3394 80.3541 30.5029 80.7439 30.5029C81.5162 30.5029 82.1433 29.88 82.1433 29.1128C82.1433 28.9132 82.0997 28.716 82.015 28.5308L81.9932 28.4827L82.044 28.4634C82.5863 28.2494 82.9519 27.6962 82.9519 27.0878C82.9519 26.2773 82.3248 25.6183 81.5525 25.6183C81.417 25.6183 81.279 25.6399 81.1482 25.6808L81.0829 25.7025V25.6327C81.0756 24.8727 80.4461 24.2547 79.6835 24.2547C78.9209 24.2547 78.2938 24.8703 78.2841 25.6279V25.6953L78.2188 25.676C78.0856 25.6351 77.95 25.6159 77.812 25.6159C77.0397 25.6159 76.4127 26.2388 76.4127 27.006C76.4127 27.6121 76.8025 28.1436 77.3835 28.3312L77.444 28.3504L77.4101 28.4057C77.2818 28.6198 77.214 28.8651 77.214 29.1104C77.214 29.8776 77.8411 30.5005 78.6134 30.5005C79.0008 30.5005 79.376 30.337 79.6423 30.0508L79.6811 30.0099L79.6762 30.0123Z" fill="#3E51FF"/>
        <path d="M80.744 30.3875C80.3833 30.3875 80.0467 30.2408 79.7998 29.9762C79.7368 29.9089 79.6158 29.9089 79.5528 29.9762C79.3059 30.2408 78.9718 30.3875 78.6086 30.3875C77.8993 30.3875 77.3255 29.8151 77.3255 29.1128C77.3255 28.8867 77.3884 28.6631 77.5047 28.4658C77.5313 28.4226 77.5361 28.3696 77.5168 28.3215C77.4974 28.2734 77.4611 28.2374 77.4102 28.2229C76.8776 28.0522 76.5193 27.564 76.5193 27.0084C76.5193 26.3037 77.0955 25.7337 77.8024 25.7337C77.9283 25.7337 78.0542 25.753 78.1753 25.7891C78.2261 25.8035 78.2818 25.7939 78.323 25.765C78.3641 25.7337 78.3907 25.6856 78.3907 25.6327C78.398 24.9377 78.9742 24.3725 79.6739 24.3725C80.3736 24.3725 80.9498 24.9401 80.957 25.6351C80.957 25.688 80.9837 25.7386 81.0273 25.7674C81.0708 25.7987 81.1265 25.8059 81.1774 25.7915C81.2984 25.753 81.4219 25.7337 81.5478 25.7337C82.2571 25.7337 82.8309 26.3422 82.8309 27.0902C82.8309 27.6505 82.4968 28.1604 81.9981 28.3576C81.9545 28.3745 81.9206 28.4081 81.9037 28.4514C81.8867 28.4947 81.8891 28.5428 81.9061 28.5837C81.986 28.7545 82.0247 28.9324 82.0247 29.1176C82.0247 29.8223 81.4485 30.3923 80.7416 30.3923L80.744 30.3875ZM79.6763 29.8439C79.7441 29.8439 79.8095 29.8728 79.8555 29.9233C80.0879 30.1734 80.4026 30.3105 80.7416 30.3105C81.4074 30.3105 81.9497 29.7718 81.9497 29.1128C81.9497 28.9396 81.9109 28.7713 81.8383 28.6126C81.8092 28.5524 81.8093 28.4827 81.8335 28.4202C81.8577 28.3576 81.9085 28.3095 81.9715 28.2855C82.4411 28.1003 82.7559 27.6193 82.7559 27.0902C82.7559 26.3855 82.2136 25.8107 81.5502 25.8107C81.434 25.8107 81.3178 25.8299 81.204 25.8636C81.1314 25.8877 81.049 25.8732 80.9861 25.8299C80.9232 25.7842 80.8844 25.7121 80.8844 25.6351C80.8771 24.981 80.3373 24.4471 79.6787 24.4471C79.0202 24.4471 78.4803 24.9786 78.4731 25.6303C78.4731 25.7073 78.4343 25.7794 78.3738 25.8227C78.3109 25.8684 78.231 25.8804 78.1583 25.8588C78.0445 25.8251 77.9259 25.8083 77.8097 25.8083C77.1439 25.8083 76.6016 26.347 76.6016 27.0084C76.6016 27.5303 76.9381 27.9897 77.4393 28.1508C77.5095 28.1724 77.5676 28.2253 77.5942 28.2951C77.6209 28.3648 77.6136 28.4418 77.5773 28.5043C77.4683 28.6895 77.4078 28.8988 77.4078 29.1128C77.4078 29.7742 77.9501 30.3105 78.6159 30.3105C78.9548 30.3105 79.2696 30.1734 79.502 29.9233C79.548 29.8728 79.6134 29.8439 79.6812 29.8439H79.6763Z" fill="#3E51FF"/>
        <path d="M79.6762 28.1676C79.2864 28.1676 78.9692 27.8526 78.9692 27.4654C78.9692 27.0781 79.2864 26.7631 79.6762 26.7631C80.066 26.7631 80.3831 27.0781 80.3831 27.4654C80.3831 27.8526 80.066 28.1676 79.6762 28.1676ZM79.6762 26.8665C79.3445 26.8665 79.0733 27.1359 79.0733 27.4654C79.0733 27.7948 79.3445 28.0642 79.6762 28.0642C80.0079 28.0642 80.279 27.7948 80.279 27.4654C80.279 27.1359 80.0079 26.8665 79.6762 26.8665Z" fill="#3E51FF"/>
        <path d="M79.6519 26.0199V26.8184C79.6519 26.8184 79.6689 26.8184 79.6785 26.8184C79.6882 26.8184 79.6955 26.8184 79.7052 26.8184V26.0199C79.7996 26.0079 79.8722 25.9286 79.8722 25.8299C79.8722 25.7241 79.7851 25.6375 79.6785 25.6375C79.572 25.6375 79.4849 25.7241 79.4849 25.8299C79.4849 25.9286 79.5575 26.0079 79.6519 26.0199Z" fill="#3E51FF"/>
        <path d="M79.0758 26.1474L79.3929 26.881C79.4075 26.8737 79.4244 26.8665 79.4414 26.8617L79.1242 26.1282C79.2065 26.0801 79.2428 25.9767 79.2041 25.8877C79.1629 25.7891 79.0467 25.7458 78.9499 25.7867C78.8506 25.8276 78.807 25.943 78.8482 26.0392C78.8869 26.1282 78.9862 26.1739 79.0782 26.1474H79.0758Z" fill="#3E51FF"/>
        <path d="M78.2162 27.4966H79.0224C79.0224 27.4966 79.0224 27.4774 79.0224 27.4678C79.0224 27.4606 79.0224 27.4533 79.0224 27.4461H78.2162C78.2041 27.3523 78.1242 27.2802 78.025 27.2802C77.9185 27.2802 77.8313 27.3668 77.8313 27.4726C77.8313 27.5784 77.9185 27.665 78.025 27.665C78.1242 27.665 78.2041 27.5928 78.2162 27.499V27.4966Z" fill="#3E51FF"/>
        <path d="M78.0541 27.1118C78.1461 27.1431 78.2478 27.1022 78.2889 27.0156L79.0491 27.2778C79.054 27.2609 79.0588 27.2441 79.0661 27.2297L78.3059 26.9675C78.3252 26.8737 78.2744 26.7799 78.18 26.7463C78.0783 26.7102 77.9693 26.7655 77.933 26.8641C77.8967 26.9627 77.9524 27.0733 78.0517 27.1094L78.0541 27.1118Z" fill="#3E51FF"/>
        <path d="M80.1265 26.0897L79.8674 26.8449C79.8844 26.8497 79.8989 26.8569 79.9158 26.8617L80.1749 26.1065C80.2693 26.1258 80.3637 26.0728 80.3952 25.9814C80.4291 25.8804 80.3758 25.7722 80.2742 25.7361C80.1725 25.7025 80.0635 25.7554 80.0272 25.8564C79.9957 25.9478 80.0393 26.0488 80.1241 26.0897H80.1265Z" fill="#3E51FF"/>
        <path d="M80.9569 26.7703L80.2451 27.1431C80.2548 27.1575 80.2621 27.1719 80.2693 27.1888L80.9811 26.8136C81.0368 26.8906 81.1409 26.917 81.2281 26.8713C81.3225 26.8208 81.3588 26.7054 81.3079 26.6116C81.2571 26.5178 81.1409 26.4817 81.0465 26.5322C80.9593 26.5779 80.923 26.6789 80.9569 26.7679V26.7703Z" fill="#3E51FF"/>
        <path d="M80.124 26.9916C80.1361 27.0036 80.1482 27.0156 80.1603 27.0276L80.7293 26.4625C80.8043 26.5202 80.9133 26.5154 80.9835 26.4456C81.0585 26.3711 81.0585 26.2484 80.9835 26.1739C80.9084 26.0993 80.785 26.0993 80.7099 26.1739C80.6397 26.2436 80.6349 26.3518 80.693 26.4264L80.124 26.9916Z" fill="#3E51FF"/>
        <path d="M78.6254 26.4625L79.1944 27.0276C79.2065 27.0156 79.2186 27.0036 79.2307 26.9916L78.6618 26.4264C78.7199 26.3518 78.715 26.2436 78.6448 26.1739C78.5698 26.0993 78.4463 26.0993 78.3712 26.1739C78.2962 26.2484 78.2962 26.3711 78.3712 26.4456C78.4414 26.5154 78.5504 26.5202 78.6254 26.4625Z" fill="#3E51FF"/>
        <path d="M81.3005 27.8285C81.2085 27.7972 81.1069 27.8381 81.0657 27.9247L80.3031 27.6602C80.2982 27.677 80.291 27.6914 80.2861 27.7083L81.0488 27.9728C81.0294 28.0666 81.0802 28.1604 81.1747 28.1941C81.2763 28.2301 81.3853 28.1748 81.4216 28.0762C81.4579 27.9752 81.4022 27.867 81.303 27.8309L81.3005 27.8285Z" fill="#3E51FF"/>
        <path d="M80.7292 28.4779L80.1555 27.9079C80.1433 27.9199 80.1312 27.9319 80.1191 27.944L80.6929 28.514C80.6348 28.5885 80.6397 28.6967 80.7099 28.7665C80.7849 28.841 80.9084 28.841 80.9835 28.7665C81.0585 28.6919 81.0585 28.5693 80.9835 28.4947C80.9132 28.425 80.8043 28.4202 80.7292 28.4779Z" fill="#3E51FF"/>
        <path d="M80.2764 28.7929L79.9569 28.0522C79.9423 28.0594 79.9254 28.0666 79.9084 28.0714L80.228 28.8122C80.1457 28.8603 80.1094 28.9637 80.1481 29.0527C80.1893 29.1513 80.3055 29.1946 80.4023 29.1537C80.4992 29.1128 80.5452 28.9974 80.504 28.9012C80.4653 28.8122 80.366 28.7665 80.274 28.7929H80.2764Z" fill="#3E51FF"/>
        <path d="M81.3297 27.2778C81.2305 27.2778 81.1506 27.3499 81.1385 27.4437H80.3323C80.3323 27.4437 80.3323 27.4581 80.3323 27.4654C80.3323 27.475 80.3323 27.4846 80.3323 27.4942H81.1385C81.1506 27.588 81.2305 27.6602 81.3297 27.6602C81.4363 27.6602 81.5234 27.5736 81.5234 27.4678C81.5234 27.3619 81.4363 27.2754 81.3297 27.2754V27.2778Z" fill="#3E51FF"/>
        <path d="M79.7027 28.9228V28.1171C79.7027 28.1171 79.6858 28.1171 79.6761 28.1171C79.6664 28.1171 79.6592 28.1171 79.6495 28.1171V28.9228C79.5551 28.9348 79.4824 29.0142 79.4824 29.1128C79.4824 29.2186 79.5696 29.3052 79.6761 29.3052C79.7826 29.3052 79.8698 29.2186 79.8698 29.1128C79.8698 29.0142 79.7972 28.9348 79.7027 28.9228Z" fill="#3E51FF"/>
        <path d="M79.2355 27.9464C79.2234 27.9343 79.2113 27.9223 79.1992 27.9103L78.6254 28.4803C78.5504 28.4225 78.4414 28.4274 78.3712 28.4971C78.2962 28.5717 78.2962 28.6943 78.3712 28.7689C78.4463 28.8434 78.5698 28.8434 78.6448 28.7689C78.715 28.6991 78.7199 28.5909 78.6618 28.5163L79.2355 27.9464Z" fill="#3E51FF"/>
        <path d="M79.2281 28.853L79.4896 28.0907C79.4727 28.0858 79.4557 28.081 79.4412 28.0738L79.1797 28.8362C79.0853 28.817 78.9909 28.8699 78.9594 28.9613C78.9255 29.0623 78.9788 29.1705 79.0805 29.2066C79.1821 29.2403 79.2911 29.1873 79.3274 29.0863C79.3589 28.9949 79.3153 28.8939 79.2306 28.853H79.2281Z" fill="#3E51FF"/>
        <path d="M78.3978 28.1724L79.112 27.7973C79.1023 27.7828 79.095 27.7684 79.0878 27.7516L78.3735 28.1267C78.3179 28.0498 78.2138 28.0233 78.1266 28.069C78.0322 28.1195 77.9959 28.235 78.0467 28.3288C78.0975 28.4226 78.2138 28.4586 78.3082 28.4081C78.3953 28.3624 78.4317 28.2614 78.3978 28.1724Z" fill="#3E51FF"/>
        <path d="M76.2722 40.3635C75.8728 40.3635 75.4878 40.2024 75.207 39.921C74.9261 40.2024 74.5388 40.3635 74.1417 40.3635C73.3137 40.3635 72.6383 39.6925 72.6383 38.87C72.6383 38.6247 72.6988 38.3842 72.8174 38.1677C72.2267 37.9513 71.8345 37.3957 71.8345 36.7656C71.8345 35.9431 72.5099 35.2721 73.3379 35.2721C73.4638 35.2721 73.5873 35.2865 73.7084 35.3178C73.7519 34.5362 74.4129 33.9084 75.2094 33.9084C76.0059 33.9084 76.6669 34.5362 76.7104 35.3202C76.8315 35.2889 76.9574 35.2721 77.0809 35.2721C77.9089 35.2721 78.5843 35.9768 78.5843 36.845C78.5843 37.4751 78.2163 38.0499 77.6619 38.2952C77.7394 38.4804 77.7781 38.6728 77.7781 38.87C77.7781 39.6925 77.1026 40.3635 76.2746 40.3635H76.2722ZM75.2046 39.7719L75.2433 39.8128C75.5096 40.099 75.8824 40.2625 76.2722 40.2625C77.0445 40.2625 77.6716 39.6396 77.6716 38.8724C77.6716 38.6728 77.628 38.4756 77.5433 38.2904L77.5215 38.2423L77.5723 38.2231C78.1146 38.009 78.4802 37.4559 78.4802 36.8474C78.4802 36.0369 77.8532 35.3779 77.0809 35.3779C76.9453 35.3779 76.8073 35.3996 76.6765 35.4404L76.6112 35.4621V35.3923C76.6039 34.6324 75.9744 34.0143 75.2118 34.0143C74.4492 34.0143 73.8221 34.63 73.8125 35.3875V35.4549L73.7471 35.4356C73.6139 35.3947 73.4784 35.3755 73.3404 35.3755C72.568 35.3755 71.941 35.9984 71.941 36.7656C71.941 37.3717 72.3308 37.9032 72.9118 38.0908L72.9724 38.11L72.9385 38.1653C72.8101 38.3794 72.7424 38.6247 72.7424 38.87C72.7424 39.6372 73.3694 40.2601 74.1417 40.2601C74.5291 40.2601 74.9043 40.0966 75.1707 39.8104L75.2094 39.7695L75.2046 39.7719Z" fill="#3E51FF"/>
        <path d="M76.2723 40.147C75.9116 40.147 75.5751 40.0003 75.3281 39.7358C75.2652 39.6684 75.1441 39.6684 75.0812 39.7358C74.8342 40.0003 74.5001 40.147 74.137 40.147C73.4276 40.147 72.8538 39.5747 72.8538 38.8724C72.8538 38.6463 72.9168 38.4226 73.033 38.2254C73.0596 38.1821 73.0644 38.1292 73.0451 38.0811C73.0257 38.033 72.9894 37.997 72.9385 37.9825C72.4059 37.8118 72.0476 37.3235 72.0476 36.768C72.0476 36.0633 72.6238 35.4933 73.3308 35.4933C73.4567 35.4933 73.5825 35.5126 73.7036 35.5486C73.7544 35.5631 73.8101 35.5535 73.8513 35.5246C73.8924 35.4933 73.9191 35.4452 73.9191 35.3923C73.9263 34.6973 74.5025 34.1321 75.2022 34.1321C75.9019 34.1321 76.4781 34.6997 76.4854 35.3947C76.4854 35.4476 76.512 35.4981 76.5556 35.527C76.5992 35.5583 76.6548 35.5655 76.7057 35.551C76.8267 35.5126 76.9502 35.4933 77.0761 35.4933C77.7855 35.4933 78.3592 36.1018 78.3592 36.8498C78.3592 37.4101 78.0251 37.92 77.5264 38.1172C77.4828 38.134 77.4489 38.1677 77.432 38.211C77.415 38.2543 77.4175 38.3024 77.4344 38.3433C77.5143 38.514 77.553 38.692 77.553 38.8772C77.553 39.5819 76.9768 40.1519 76.2699 40.1519L76.2723 40.147ZM75.2046 39.6035C75.2724 39.6035 75.3378 39.6324 75.3838 39.6829C75.6162 39.933 75.9309 40.0701 76.2699 40.0701C76.9357 40.0701 77.478 39.5314 77.478 38.8724C77.478 38.6992 77.4393 38.5309 77.3666 38.3721C77.3376 38.312 77.3376 38.2423 77.3618 38.1797C77.386 38.1172 77.4368 38.0691 77.4998 38.0451C77.9695 37.8599 78.2842 37.3789 78.2842 36.8498C78.2842 36.1451 77.7419 35.5703 77.0785 35.5703C76.9623 35.5703 76.8461 35.5895 76.7323 35.6232C76.6597 35.6472 76.5774 35.6328 76.5144 35.5895C76.4515 35.5438 76.4127 35.4717 76.4127 35.3947C76.4055 34.7406 75.8656 34.2066 75.2071 34.2066C74.5485 34.2066 74.0086 34.7381 74.0014 35.3899C74.0014 35.4669 73.9626 35.539 73.9021 35.5823C73.8392 35.628 73.7593 35.64 73.6866 35.6184C73.5729 35.5847 73.4542 35.5679 73.338 35.5679C72.6722 35.5679 72.1299 36.1066 72.1299 36.768C72.1299 37.2899 72.4665 37.7492 72.9676 37.9104C73.0378 37.932 73.0959 37.9849 73.1225 38.0547C73.1492 38.1244 73.1419 38.2014 73.1056 38.2639C72.9967 38.4491 72.9361 38.6583 72.9361 38.8724C72.9361 39.5338 73.4784 40.0701 74.1442 40.0701C74.4832 40.0701 74.7979 39.933 75.0303 39.6829C75.0763 39.6324 75.1417 39.6035 75.2095 39.6035H75.2046Z" fill="#3E51FF"/>
        <path d="M75.2045 37.9272C74.8147 37.9272 74.4976 37.6122 74.4976 37.225C74.4976 36.8378 74.8147 36.5227 75.2045 36.5227C75.5943 36.5227 75.9114 36.8378 75.9114 37.225C75.9114 37.6122 75.5943 37.9272 75.2045 37.9272ZM75.2045 36.6261C74.8728 36.6261 74.6017 36.8955 74.6017 37.225C74.6017 37.5545 74.8728 37.8238 75.2045 37.8238C75.5362 37.8238 75.8073 37.5545 75.8073 37.225C75.8073 36.8955 75.5362 36.6261 75.2045 36.6261Z" fill="#3E51FF"/>
        <path d="M75.1802 35.7772V36.5756C75.1802 36.5756 75.1972 36.5756 75.2069 36.5756C75.2166 36.5756 75.2238 36.5756 75.2335 36.5756V35.7772C75.3279 35.7651 75.4006 35.6858 75.4006 35.5872C75.4006 35.4814 75.3134 35.3948 75.2069 35.3948C75.1003 35.3948 75.0132 35.4814 75.0132 35.5872C75.0132 35.6858 75.0858 35.7651 75.1802 35.7772Z" fill="#3E51FF"/>
        <path d="M74.6041 35.907L74.9213 36.6406C74.9358 36.6334 74.9527 36.6261 74.9697 36.6213L74.6525 35.8878C74.7348 35.8397 74.7712 35.7363 74.7324 35.6473C74.6913 35.5487 74.575 35.5054 74.4782 35.5463C74.3789 35.5872 74.3354 35.7026 74.3765 35.7988C74.4153 35.8878 74.5145 35.9335 74.6065 35.907H74.6041Z" fill="#3E51FF"/>
        <path d="M73.7446 37.2539H74.5508C74.5508 37.2539 74.5508 37.2346 74.5508 37.225C74.5508 37.2178 74.5508 37.2106 74.5508 37.2034H73.7446C73.7325 37.1096 73.6526 37.0374 73.5533 37.0374C73.4468 37.0374 73.3596 37.124 73.3596 37.2298C73.3596 37.3356 73.4468 37.4222 73.5533 37.4222C73.6526 37.4222 73.7325 37.3501 73.7446 37.2563V37.2539Z" fill="#3E51FF"/>
        <path d="M73.58 36.8715C73.672 36.9027 73.7736 36.8618 73.8148 36.7753L74.575 37.0374C74.5798 37.0206 74.5847 37.0037 74.592 36.9893L73.8317 36.7272C73.8511 36.6334 73.8003 36.5396 73.7059 36.5059C73.6042 36.4698 73.4952 36.5251 73.4589 36.6237C73.4226 36.7223 73.4783 36.833 73.5775 36.8691L73.58 36.8715Z" fill="#3E51FF"/>
        <path d="M75.6548 35.8469L75.3958 36.6021C75.4127 36.6069 75.4272 36.6141 75.4442 36.6189L75.7032 35.8638C75.7976 35.883 75.8921 35.8301 75.9235 35.7387C75.9574 35.6377 75.9042 35.5295 75.8025 35.4934C75.7008 35.4597 75.5918 35.5126 75.5555 35.6137C75.5241 35.705 75.5676 35.8061 75.6524 35.8469H75.6548Z" fill="#3E51FF"/>
        <path d="M76.4828 36.5276L75.771 36.9003C75.7807 36.9148 75.7879 36.9292 75.7952 36.946L76.507 36.5709C76.5627 36.6478 76.6668 36.6743 76.7539 36.6286C76.8484 36.5781 76.8847 36.4626 76.8338 36.3688C76.783 36.275 76.6668 36.239 76.5724 36.2895C76.4852 36.3352 76.4489 36.4362 76.4828 36.5252V36.5276Z" fill="#3E51FF"/>
        <path d="M75.6523 36.7488C75.6644 36.7608 75.6766 36.7729 75.6887 36.7849L76.2576 36.2197C76.3327 36.2774 76.4416 36.2726 76.5118 36.2029C76.5869 36.1283 76.5869 36.0057 76.5118 35.9311C76.4368 35.8565 76.3133 35.8565 76.2382 35.9311C76.168 36.0008 76.1632 36.1091 76.2213 36.1836L75.6523 36.7488Z" fill="#3E51FF"/>
        <path d="M74.1538 36.2221L74.7227 36.7873C74.7348 36.7752 74.7469 36.7632 74.759 36.7512L74.1901 36.186C74.2482 36.1115 74.2433 36.0032 74.1731 35.9335C74.0981 35.8589 73.9746 35.8589 73.8996 35.9335C73.8245 36.008 73.8245 36.1307 73.8996 36.2052C73.9698 36.275 74.0787 36.2798 74.1538 36.2221Z" fill="#3E51FF"/>
        <path d="M76.8289 37.5882C76.7369 37.5569 76.6352 37.5978 76.594 37.6844L75.8314 37.4198C75.8266 37.4366 75.8193 37.4511 75.8145 37.4679L76.5771 37.7325C76.5577 37.8262 76.6086 37.92 76.703 37.9537C76.8047 37.9898 76.9136 37.9345 76.9499 37.8359C76.9862 37.7349 76.9306 37.6266 76.8313 37.5906L76.8289 37.5882Z" fill="#3E51FF"/>
        <path d="M76.2551 38.2375L75.6813 37.6675C75.6692 37.6796 75.6571 37.6916 75.645 37.7036L76.2188 38.2736C76.1607 38.3482 76.1655 38.4564 76.2358 38.5261C76.3108 38.6007 76.4343 38.6007 76.5093 38.5261C76.5844 38.4516 76.5844 38.3289 76.5093 38.2544C76.4391 38.1846 76.3302 38.1798 76.2551 38.2375Z" fill="#3E51FF"/>
        <path d="M75.8048 38.5526L75.4852 37.8118C75.4707 37.819 75.4537 37.8263 75.4368 37.8311L75.7563 38.5718C75.674 38.6199 75.6377 38.7233 75.6764 38.8123C75.7176 38.9109 75.8338 38.9542 75.9307 38.9133C76.0275 38.8724 76.0735 38.757 76.0323 38.6608C75.9936 38.5718 75.8943 38.5261 75.8023 38.5526H75.8048Z" fill="#3E51FF"/>
        <path d="M76.8581 37.0374C76.7588 37.0374 76.6789 37.1095 76.6668 37.2033H75.8606C75.8606 37.2033 75.8606 37.2178 75.8606 37.225C75.8606 37.2346 75.8606 37.2442 75.8606 37.2538H76.6668C76.6789 37.3476 76.7588 37.4198 76.8581 37.4198C76.9646 37.4198 77.0517 37.3332 77.0517 37.2274C77.0517 37.1216 76.9646 37.035 76.8581 37.035V37.0374Z" fill="#3E51FF"/>
        <path d="M75.2311 38.68V37.8743C75.2311 37.8743 75.2141 37.8743 75.2044 37.8743C75.1947 37.8743 75.1875 37.8743 75.1778 37.8743V38.68C75.0834 38.692 75.0107 38.7714 75.0107 38.87C75.0107 38.9758 75.0979 39.0624 75.2044 39.0624C75.311 39.0624 75.3981 38.9758 75.3981 38.87C75.3981 38.7714 75.3255 38.692 75.2311 38.68Z" fill="#3E51FF"/>
        <path d="M74.7639 37.7036C74.7518 37.6916 74.7397 37.6796 74.7275 37.6675L74.1538 38.2375C74.0787 38.1798 73.9698 38.1846 73.8996 38.2544C73.8245 38.3289 73.8245 38.4516 73.8996 38.5261C73.9746 38.6007 74.0981 38.6007 74.1731 38.5261C74.2433 38.4564 74.2482 38.3482 74.1901 38.2736L74.7639 37.7036Z" fill="#3E51FF"/>
        <path d="M74.7565 38.6103L75.0179 37.8479C75.001 37.8431 74.984 37.8383 74.9695 37.8311L74.708 38.5934C74.6136 38.5742 74.5192 38.6271 74.4877 38.7185C74.4538 38.8195 74.5071 38.9277 74.6088 38.9638C74.7105 38.9975 74.8194 38.9446 74.8557 38.8436C74.8872 38.7522 74.8436 38.6512 74.7589 38.6103H74.7565Z" fill="#3E51FF"/>
        <path d="M73.9261 37.932L74.6403 37.5569C74.6306 37.5424 74.6233 37.528 74.6161 37.5112L73.9019 37.8864C73.8462 37.8094 73.7421 37.7829 73.6549 37.8286C73.5605 37.8791 73.5242 37.9946 73.575 38.0884C73.6259 38.1822 73.7421 38.2182 73.8365 38.1677C73.9237 38.122 73.96 38.021 73.9261 37.932Z" fill="#3E51FF"/>
        <path d="M43 54C31.6357 54 20.9298 51.2655 12.8581 46.2991C4.56607 41.1981 0 34.3437 0 26.9988C0 19.6539 4.56607 12.8019 12.8557 7.70089C20.9298 2.73451 31.6357 0 43 0C54.3643 0 65.0702 2.73451 73.1419 7.70089C81.4339 12.8019 85.9976 19.6539 85.9976 26.9988C85.9976 34.3437 81.4315 41.1981 73.1419 46.2967C65.0677 51.2631 54.3643 53.9976 43 53.9976V54ZM43 0.481005C31.7252 0.481005 21.109 3.19147 13.1123 8.10974C4.96796 13.1194 0.484207 19.827 0.484207 26.9988C0.484207 34.1706 4.96796 40.8782 13.1123 45.8879C21.1114 50.8085 31.7252 53.5166 43 53.5166C54.2748 53.5166 64.891 50.8061 72.8877 45.8879C81.0296 40.8782 85.5158 34.1706 85.5158 26.9988C85.5158 19.827 81.032 13.1194 72.8877 8.10974C64.8886 3.19147 54.2748 0.481005 43 0.481005Z" fill="#3E51FF"/>
        <path d="M43 52.6772C20.0244 52.6772 1.33154 41.1596 1.33154 26.9988C1.33154 12.838 20.0244 1.32275 43 1.32275C65.9756 1.32275 84.6684 12.8404 84.6684 26.9988C84.6684 41.1572 65.9756 52.6772 43 52.6772ZM43 1.56326C20.1575 1.56326 1.57365 12.9751 1.57365 26.9988C1.57365 41.0225 20.1575 52.4367 43 52.4367C65.8424 52.4367 84.4263 41.0249 84.4263 26.9988C84.4263 12.9727 65.8424 1.56326 43 1.56326Z" fill="#3E51FF"/>
        <path d="M27.0018 30.7145C26.3046 30.6015 25.8034 30.1277 25.4572 29.4832C24.9488 29.8752 24.3726 30.2023 23.7092 30.4211L23.5034 30.0123C24.145 29.6539 24.6849 29.2451 25.1376 28.7569C24.8423 27.891 24.7115 26.8569 24.6607 25.9334H23.3557V27.0349C23.7165 26.9122 24.0699 26.7823 24.3992 26.6525L24.5808 27.0349C24.2273 27.3042 23.8085 27.5664 23.3582 27.8021V29.7598C23.3582 30.8132 22.3316 31.008 20.9202 30.2744L21.0194 29.8656C22.2687 30.046 22.3655 29.9714 22.3655 29.4976V28.2734C21.8886 28.4683 21.4141 28.6414 20.9541 28.7713L20.6176 27.7756C21.201 27.653 21.7918 27.5062 22.3655 27.3427V25.931H20.7483V25.3994H22.3655V24.5745C21.8886 24.6563 21.3971 24.7044 20.9371 24.7381L20.8718 24.2979C22.0799 24.0358 23.0967 23.6702 23.9029 23.1964L24.5687 23.9877C24.2394 24.1344 23.8206 24.2643 23.3606 24.3797V25.3994H24.6413C24.6244 24.7886 24.6171 24.1849 24.6244 23.2301H25.617C25.6097 24.1921 25.617 24.7958 25.6339 25.3994H27.8686V25.931H25.6606C25.7017 26.5587 25.7744 27.196 25.8978 27.766C26.1762 27.3162 26.4159 26.8208 26.6217 26.2556L27.549 26.6477C27.2125 27.4221 26.7767 28.158 26.2101 28.7761C26.3917 29.1994 26.6362 29.5192 26.9486 29.6563C27.227 29.779 27.2851 29.6227 27.2778 28.3095H27.7039C28.1228 29.8511 28.0574 30.8877 27.0067 30.7073L27.0018 30.7145ZM26.813 25.2167C26.5418 24.6852 26.1569 24.0502 25.8446 23.5764L26.1811 23.2902C26.7137 23.6318 27.2899 24.1705 27.6434 24.6371L26.813 25.2167Z" fill="#3E51FF"/>
        <path d="M37.0176 30.5847C36.4826 30.6183 36.0492 30.6256 35.5142 30.5919C34.6595 30.5342 34.4634 30.4283 34.4634 29.7934V29.2475H33.9623C33.5773 30.1686 32.5823 30.6905 30.6939 30.7891L30.6116 30.3971C31.9746 30.1926 32.6307 29.7934 32.9188 29.2475H31.793V26.7174H36.5068V29.2475H35.4222V29.5168C35.4222 29.7044 35.4706 29.779 35.841 29.803C36.1703 29.8271 36.4245 29.8271 36.7779 29.803C37.0564 29.779 37.1726 29.7044 37.1314 28.7496H37.526C37.9521 30.2744 37.6495 30.5438 37.0176 30.5847ZM31.6647 27.2874H30.7447V25.9165H31.3694C31.3524 25.1902 31.3113 24.2691 31.2701 23.6005L31.9528 23.6726C32.224 23.5596 32.5121 23.3961 32.7736 23.1748L33.357 23.6558C32.9963 23.8193 32.5775 23.9083 32.1901 23.9564C32.1974 24.0695 32.207 24.1849 32.207 24.2979H33.1028V24.7308H32.224C32.224 24.8439 32.2312 24.9593 32.2312 25.0724H33.127V25.5053H32.2482C32.2482 25.6447 32.2555 25.7818 32.2555 25.9141H33.2481L33.1488 25.6688C33.3716 25.5702 33.6088 25.4331 33.8315 25.2768C33.6597 25.1469 33.4878 25.0315 33.3473 24.9425L33.4878 24.6563C33.6936 24.7212 33.9647 24.8367 34.2262 24.9737C34.3811 24.8439 34.5215 24.7044 34.6208 24.5649L34.6692 24.5986C34.553 24.4927 34.415 24.3701 34.2746 24.257C33.955 24.4446 33.6185 24.5913 33.3231 24.6659L33.2166 24.3725C33.4466 24.2739 33.6839 24.1272 33.8993 23.9564C33.6936 23.7929 33.4974 23.6558 33.3401 23.5476L33.5047 23.2782C33.7178 23.3528 33.9889 23.4826 34.2601 23.6366C34.415 23.4826 34.5482 23.3191 34.6716 23.1555L35.1801 23.5067C35.0663 23.6534 34.9186 23.7929 34.754 23.93C34.9501 24.0526 35.1147 24.1657 35.2382 24.2643L34.8193 24.714L35.122 24.9256C35.0082 25.0411 34.8847 25.1541 34.7515 25.2527C34.9234 25.3586 35.0881 25.4572 35.2043 25.5389L34.9016 25.9141H36.1001C36.1073 25.7842 36.1073 25.6544 36.117 25.5149H35.2721V25.082H36.1436C36.1436 24.9762 36.1509 24.8703 36.1606 24.7645H35.2987V24.3316H36.1775C36.1775 24.2089 36.1848 24.0959 36.1848 23.9973H35.2721V23.5476H36.134L36.2889 23.3768L37.1024 23.5885C37.0612 24.3388 37.0031 25.2696 36.9619 25.9141H37.5696V27.285H36.6569V26.4047H31.6647V27.285V27.2874ZM32.7978 27.4341H35.5069V27.1407H32.7978V27.4341ZM32.7978 28.1195H35.5069V27.8093H32.7978V28.1195ZM32.7978 28.829H35.5069V28.4947H32.7978V28.829ZM33.5459 25.9165H34.6474L34.2528 25.5894C34.0228 25.7289 33.7759 25.842 33.5459 25.9165Z" fill="#3E51FF"/>
        <path d="M42.3294 26.3831V30.7386H41.3102V27.4509C41.0632 27.6626 40.792 27.8598 40.5064 28.0305L40.2764 27.7131C41.0802 26.9459 41.6975 25.9358 42.1648 24.8006L43.0848 25.2503C42.8717 25.6255 42.6248 26.0079 42.3294 26.3831ZM40.5645 25.8203L40.3417 25.5101C40.9906 24.8655 41.482 24.1079 41.8864 23.1435L42.8378 23.6486C42.2955 24.4326 41.4917 25.3129 40.562 25.8179L40.5645 25.8203ZM47.675 27.6553V28.1532H46.5347V29.8583C46.5347 30.7795 45.5905 31.0825 44.2444 30.3081L44.3582 29.9329C45.3436 30.1277 45.4913 30.0628 45.4913 29.6395V28.1556H42.5352V27.6578H45.4913V27.1118H42.7482V26.614H47.4789V27.1118H46.5347V27.6578H47.675V27.6553ZM44.8013 29.2956L44.0459 29.8992C43.7748 29.3677 43.4963 28.9204 43.201 28.4971L43.4891 28.2277C43.9249 28.4899 44.4405 28.906 44.8037 29.2956H44.8013ZM46.9463 26.1955H43.2833V23.5187H46.9463V26.1955ZM45.9343 24.0165H44.2929V24.6202H45.9343V24.0165ZM45.9343 25.1108H44.2929V25.7073H45.9343V25.1108Z" fill="#3E51FF"/>
        <path d="M52.1006 26.5226V30.7242H51.1153V27.5592C50.8683 27.7708 50.6141 27.9584 50.3599 28.1051L50.1057 27.7708C50.8683 27.0445 51.585 25.8781 52.0183 24.8006L52.9456 25.2576C52.7325 25.6568 52.4372 26.0969 52.1006 26.5226ZM50.3672 25.8516L50.1299 25.5101C50.7618 24.8896 51.3114 24.0262 51.706 23.1123L52.6672 23.6101C52.1587 24.4086 51.246 25.3874 50.3672 25.854V25.8516ZM57.669 29.7525L57.0613 30.7554C55.9356 30.159 54.8606 28.7809 54.6306 26.8569H54.098V29.5C54.4757 29.4182 54.8364 29.3365 55.1584 29.2547L55.34 29.6371C54.5846 30.1109 53.4104 30.5678 52.5727 30.7218L52.2943 29.7838C52.5485 29.7598 52.8124 29.7189 53.0836 29.678V23.6005H57.0178V26.8545H55.1124C55.277 27.3692 55.4731 27.7997 55.7201 28.1604C56.0155 27.8261 56.2793 27.4678 56.5408 27.0349L57.3543 27.6626C56.9693 27.9969 56.4997 28.3408 56.0397 28.5837C56.4924 29.0984 57.042 29.4495 57.6739 29.7501L57.669 29.7525ZM54.0956 24.9954H56.0082V24.0911H54.0956V24.9954ZM54.0956 26.3663H56.0082V25.4764H54.0956V26.3663Z" fill="#3E51FF"/>
        <path d="M62.6926 24.9954H60.0803V24.4904H61.2206C60.9834 24.0671 60.7195 23.6582 60.5137 23.372L60.7921 23.0858C61.2279 23.3311 61.729 23.7304 62.0656 24.1128L61.5886 24.4879H62.6878V24.993L62.6926 24.9954ZM62.5038 26.1041H60.3103V25.6135H62.5038V26.1041ZM60.3103 26.6693H62.5038V27.1599H60.3103V26.6693ZM62.528 30.0123H61.1649V30.664H60.3103V27.7443H62.528V30.0123ZM61.7 28.235H61.1649V29.5241H61.7V28.235ZM64.3196 29.3846L64.9272 29.9305C64.4091 30.2816 63.3681 30.6568 62.4892 30.7939L62.3585 30.4019C63.0243 30.1662 63.632 29.8223 64.1573 29.3822H63.0243V26.3879C62.9347 26.4528 62.8355 26.5106 62.7459 26.5515L62.5643 26.258C62.9904 25.8901 63.1381 25.5654 63.1647 25.0916H62.8112V24.6828H63.6489V24.2426H63.2882C63.2301 24.3653 63.1575 24.4952 63.0655 24.6178L62.7531 24.4952C62.8597 24.1777 62.925 23.6871 62.9662 23.3359L63.5569 23.449C63.5255 23.5885 63.4843 23.7183 63.4431 23.8482H63.6489V23.17H64.397V23.8482H64.8643V24.2402H64.397V24.6803H64.9466V25.0892H64.627V25.4572C64.7408 25.4235 64.857 25.3826 64.9708 25.3345L65.0943 25.6111C64.765 25.8636 64.322 26.0921 63.8378 26.2629L63.6562 25.7001C63.7724 25.676 63.8862 25.6592 64 25.6279V25.0892H63.7772C63.7288 25.7265 63.3826 26.1426 63.0291 26.3855H64.8183L64.6779 26.1234C65.2129 25.7963 65.334 25.5365 65.3509 25.0796H65.0313V24.6707H65.7528V24.2306H65.3509C65.2855 24.3605 65.2032 24.4831 65.1209 24.5817L64.8498 24.4663C64.9635 24.1488 65.0313 23.7568 65.0798 23.3167L65.6293 23.4297C65.6051 23.5596 65.564 23.6991 65.5228 23.829H65.7528V23.1844H66.5009V23.829H67.174V24.2282H66.5009V24.6683H67.2974V25.0772H66.6897V25.5005C66.6897 25.64 66.7236 25.664 66.8858 25.664C67.0263 25.664 67.0408 25.5919 67.0408 25.2816H67.3362C67.5008 26.032 67.3604 26.2027 66.8423 26.2027C66.2104 26.2027 66.0869 26.1137 66.0869 25.7049V25.0772H65.9465C65.8884 25.7698 65.5107 26.1787 64.903 26.3831H66.9633V29.3774H64.3099L64.3196 29.3846ZM63.9322 27.2465H66.0506V26.8473H63.9322V27.2465ZM63.9322 28.0883H66.0506V27.665H63.9322V28.0883ZM63.9322 28.9372H66.0506V28.5043H63.9322V28.9372ZM67.5468 30.0532L67.0941 30.8685C66.5929 30.5582 65.7964 30.0941 65.2226 29.8006L65.3703 29.4086C66.0361 29.5217 66.8641 29.767 67.5468 30.0532Z" fill="#3E51FF"/>
    </g>
    <defs>
        <clipPath id="clip0_58_5589">
            <rect width="86" height="54" fill="white"/>
        </clipPath>
    </defs>
</svg>
