<svg width="118" height="75" viewBox="0 0 118 75" fill="none" xmlns="http://www.w3.org/2000/svg">
<g clip-path="url(#clip0_211_715)">
<path d="M59 72.6051C27.4753 72.6051 1.82703 56.8217 1.82703 37.4194C1.82703 18.0172 27.4753 2.23047 59 2.23047C90.5247 2.23047 116.173 18.0139 116.173 37.4194C116.173 56.825 90.5247 72.6051 59 72.6051ZM59 2.56005C27.658 2.56005 2.15921 18.1985 2.15921 37.4161C2.15921 56.6338 27.658 72.2722 59 72.2722C90.342 72.2722 115.841 56.6338 115.841 37.4161C115.841 18.1985 90.342 2.56005 59 2.56005Z" fill="#646464"/>
<path d="M59 63.1659C34.5443 63.1659 14.6462 51.6142 14.6462 37.416C14.6462 23.2178 34.541 11.6694 59 11.6694C83.459 11.6694 103.354 23.2211 103.354 37.4193C103.354 51.6175 83.4557 63.1692 59 63.1692V63.1659ZM59 11.999C34.727 11.999 14.9784 23.4024 14.9784 37.4193C14.9784 51.4362 34.727 62.8396 59 62.8396C83.273 62.8396 103.022 51.4362 103.022 37.4193C103.022 23.4024 83.273 11.999 59 11.999Z" fill="#646464"/>
<path d="M32.2755 14.8303L32.2057 15.4861C30.95 15.4795 29.3987 14.9555 28.4918 13.6141L28.4154 13.6405C28.5217 15.2323 27.8009 16.4584 26.2163 17.4735L26.0635 17.2922C27.3989 16.2738 27.947 15.1499 27.8939 13.8086L25.2563 14.6589L25.1666 14.382L26.1499 14.0656L25.4423 11.9036L27.2993 11.3038L26.9007 10.0876L27.3956 9.92944L27.7942 11.1456L29.6246 10.5556L30.3322 12.7177L31.3221 12.398L31.4118 12.6748L28.731 13.5383C29.5249 14.4348 30.8371 14.8896 32.2788 14.8303H32.2755ZM27.8706 13.5119C27.8241 13.0604 27.7145 12.5858 27.5451 12.075L27.3823 11.5773L25.9838 12.0289L26.605 13.9206L27.8706 13.5119ZM27.8773 11.4158L28.0932 12.0717C28.2394 12.5199 28.339 12.9385 28.3855 13.3439L29.8604 12.8693L29.2393 10.9775L27.874 11.4191L27.8773 11.4158Z" fill="#646464"/>
<path d="M58.412 7.49034C58.5449 7.14428 58.6678 6.67628 58.7343 6.2742L58.0234 6.30056L58.143 9.57327C58.1629 10.1171 57.854 10.4994 56.5451 9.97205L56.6016 9.75124C57.5517 9.89955 57.6613 9.86659 57.6447 9.48098L57.5284 6.31704L56.286 6.36318L56.2761 6.08634L58.0466 6.02372C57.7709 5.71392 57.3457 5.29535 57.0036 4.97237L57.1364 4.79439C57.3457 4.90975 57.6081 5.06794 57.8473 5.24262C58.0699 4.90645 58.3024 4.478 58.4154 4.15501L56.4322 4.22752L56.4222 3.96056L58.4054 3.88806L58.5615 3.77271L59.0698 4.05285C58.7941 4.54062 58.3888 5.05806 58.0499 5.39093C58.216 5.50958 58.3655 5.63482 58.4718 5.74028L58.2127 6.02701L58.6944 6.01054L58.8372 5.88859L59.3222 6.10941C59.1296 6.64662 58.7941 7.30577 58.5914 7.58921L58.4054 7.50022L58.412 7.49034ZM60.4384 8.79217L60.9034 9.08879C60.342 9.58975 59.475 10.0775 58.6877 10.3313L58.5914 10.1237C59.2259 9.84682 59.9401 9.34915 60.4384 8.79217ZM60.6277 4.17809L59.2026 4.23082L59.1927 3.94738L62.6873 3.82214L62.6973 4.10558L61.1692 4.16161C61.033 4.48459 60.8769 4.81087 60.754 5.03499L62.2687 4.97896L62.4016 8.56476L59.6212 8.66693L59.4883 5.08113L60.4982 5.04487C60.5546 4.78121 60.5945 4.44504 60.6277 4.18138V4.17809ZM61.8037 5.28217L59.9667 5.34808L59.9966 6.12589L61.8336 6.05997L61.8037 5.28217ZM61.8402 6.34341L60.0032 6.40932L60.0331 7.22997L61.8701 7.16406L61.8402 6.34341ZM61.8834 7.44749L60.0464 7.51341L60.0763 8.36372L61.9133 8.2978L61.8834 7.44749ZM63.0892 9.63259L62.7903 10.1072C62.3983 9.79408 61.6907 9.3096 61.1227 8.97673L61.219 8.7691C61.8336 8.95696 62.5411 9.28983 63.0892 9.63259Z" fill="#646464"/>
<path d="M62.777 68.4162C62.468 68.3536 62.076 68.2448 61.6675 68.0932L61.7505 70.3871L61.2755 70.4036L61.2622 70.0608L58.1463 70.1728L58.1595 70.5288L57.6912 70.5453L57.6048 68.2382C57.2161 68.4195 56.8175 68.5777 56.4288 68.7029L56.3491 68.4953C57.3025 68.1328 58.4519 67.4901 59.0033 66.7947L56.4953 66.887L56.4853 66.6035L58.3589 66.5343C58.1296 66.2805 57.8772 66.0202 57.6812 65.8389L57.7642 65.7269C57.6314 65.74 57.5018 65.7499 57.3756 65.7565L57.339 65.539C58.9502 65.3643 60.2789 65.0314 60.9433 64.7843L61.3984 65.1666C60.9632 65.2852 60.3885 65.4072 59.764 65.5027L59.8006 66.4816L60.3653 66.4618C60.5746 66.1718 60.8237 65.7466 60.9998 65.3775L61.4316 65.6082C61.1725 65.9378 60.92 66.2377 60.6709 66.4486L62.6374 66.3761L62.6474 66.6596L59.9201 66.7584C60.7739 67.4341 61.9797 67.7603 62.973 67.8988L62.7803 68.4129L62.777 68.4162ZM57.0799 65.9872L56.5983 66.0037L56.5484 64.6458L59.6511 64.5338C59.2691 64.336 58.794 64.1284 58.3987 63.9768L58.4585 63.7659C58.8704 63.8219 59.5116 63.9438 59.9866 64.1383L59.8105 64.5305L62.4647 64.4349L62.5145 65.7862L62.0329 65.8027L61.993 64.7414L57.0401 64.9194L57.0799 65.9872ZM61.415 67.9943C60.8204 67.7472 60.2125 67.3978 59.8172 66.9628L59.8504 67.8493L59.3687 67.8658L59.3388 67.0518C58.9933 67.4505 58.4519 67.8098 57.8473 68.1229L61.4183 67.9943H61.415ZM58.7708 66.3465L58.5947 66.5277L59.3189 66.5014L59.2857 65.572C58.8339 65.6313 58.3589 65.684 57.9004 65.7236C58.2127 65.885 58.5316 66.1158 58.7741 66.3465H58.7708ZM59.3986 68.3503L58.0831 68.3964L58.1031 68.9831L59.4185 68.9369L59.3953 68.3503H59.3986ZM59.4318 69.2204L58.1164 69.2665L58.1396 69.8894L59.4551 69.8433L59.4318 69.2204ZM61.1991 68.2844L59.867 68.3338L59.8902 68.9205L61.2223 68.871L61.2024 68.2844H61.1991ZM61.2323 69.1545L59.9002 69.2039L59.9235 69.8268L61.2555 69.7774L61.2323 69.1545Z" fill="#646464"/>
<path d="M29.8438 62.1079L29.2293 64.5534C29.0732 65.173 28.5118 65.1532 27.6016 64.5402L27.6879 64.3523C28.6114 64.6951 28.7111 64.6951 28.8107 64.3029L29.3223 62.2727C28.9801 62.3683 28.6446 62.4474 28.3224 62.5034L28.2228 61.9761C28.5749 61.9497 29.0034 61.9069 29.4352 61.8343L29.8438 60.2128L28.8506 59.9656L28.9204 59.6921L29.9136 59.9393L30.2657 58.5386L30.7208 58.6506L30.3687 60.0513L31.1361 60.2425L31.0663 60.516L30.2989 60.3249L29.9402 61.7421C30.186 61.6926 30.4285 61.63 30.6477 61.5674L30.7042 61.7684C30.4385 61.897 30.1461 62.0123 29.8472 62.1112L29.8438 62.1079ZM34.0992 65.8816L33.767 66.3364C33.4282 66.1782 32.2422 65.4729 32.1127 64.0985H32.106C31.4184 65.1466 30.3355 65.3773 29.1961 65.262L29.1795 65.0576C30.2724 65.0972 31.0862 64.7972 31.631 63.9799L29.8638 63.5416L29.9335 63.2614L31.7871 63.7228C31.9001 63.5119 32.0064 63.268 32.0928 62.9912L32.5545 63.1362C32.4714 63.3998 32.3751 63.6371 32.2622 63.8415L34.3284 64.3556L34.2586 64.6358L32.3419 64.1612C32.611 65.0378 33.458 65.5981 34.1025 65.8849L34.0992 65.8816ZM32.6907 59.0791L33.1292 59.3691C32.9797 59.5405 32.8435 59.6954 32.704 59.8338L33.5909 60.0546L33.7637 59.9986L34.1623 60.3578C33.9131 60.6314 33.4747 60.9643 33.1524 61.1554L34.5808 61.5114L33.9729 63.9206L33.5245 63.8085L34.0626 61.6729L31.6343 61.0697L31.0895 63.2252L30.6411 63.1131L31.2058 60.872C31.0497 60.9445 30.8902 61.0104 30.7275 61.0664L30.6411 60.872C31.4051 60.5061 32.1492 59.8832 32.6874 59.0725L32.6907 59.0791ZM33.0561 61.5806C32.9598 61.7223 32.8668 61.8475 32.7638 61.9662C33.1092 62.3056 33.3949 62.6912 33.5577 62.978L33.1657 63.2186C33.0262 62.8758 32.8302 62.4902 32.611 62.131C32.2456 62.4968 31.8303 62.7473 31.3686 62.9022L31.2756 62.6978C31.8503 62.3979 32.3087 61.9827 32.6741 61.34L33.0561 61.5839V61.5806ZM31.4848 60.7434L32.8568 61.0829C33.1093 60.8621 33.3617 60.5721 33.5311 60.3282L32.4582 60.0612C32.1293 60.348 31.8104 60.5655 31.4882 60.7401L31.4848 60.7434Z" fill="#646464"/>
<path d="M88.7807 60.5195C88.7143 60.7634 88.6345 61.0106 88.5415 61.2446L91.7305 60.2163L92.8334 63.5879L92.3617 63.7395L92.2089 63.2781L89.382 64.191L89.5414 64.6821L89.0664 64.8337L88.1628 62.0784C87.8605 62.6585 87.4818 63.1924 87.06 63.6406L86.8806 63.4923C87.545 62.6519 88.03 61.6862 88.2691 60.6843L86.4388 61.2743L86.3491 60.9974L88.3455 60.3514C88.3788 60.1504 88.4153 59.9494 88.4319 59.745L86.5451 60.3547L86.4554 60.0845L88.4518 59.4385C88.4684 59.2276 88.4651 59.0134 88.4518 58.8057C87.7243 59.1188 86.9636 59.4089 86.286 59.6198L86.1896 59.422C88.0266 58.7069 89.4883 57.9093 90.435 57.2271L91.0197 57.4874C90.5646 57.7939 89.8105 58.1894 88.9734 58.5684C88.9867 58.8024 88.9966 59.0364 88.98 59.2704L91.5844 58.43L91.6741 58.7003L88.9601 59.5769C88.9368 59.7846 88.9003 59.9856 88.8538 60.19L92.2654 59.0892L92.3551 59.366L88.7774 60.5195H88.7807ZM91.3452 60.6448L88.5183 61.5577L88.7143 62.1509L91.5412 61.238L91.3452 60.6448ZM91.6276 61.5017L88.8006 62.4146L89.0033 63.0309L91.8302 62.118L91.6276 61.5017ZM91.9132 62.3718L89.0863 63.2847L89.2956 63.9208L92.1225 63.0078L91.9132 62.3718Z" fill="#646464"/>
<path d="M92.1657 15.8651C91.8999 15.697 91.5744 15.4499 91.2522 15.1598L90.4848 17.3252L90.0363 17.1703L90.1493 16.8473L87.2094 15.819L87.0898 16.1552L86.648 16.0003L87.422 13.8218C86.9935 13.8481 86.565 13.8547 86.1564 13.825V13.6009C87.1795 13.6108 88.485 13.4296 89.2557 12.9813L86.8872 12.1541L86.9835 11.8871L88.7508 12.5034C88.6312 12.1838 88.4917 11.8509 88.3787 11.6103L88.4983 11.5378C88.3721 11.5015 88.2458 11.4653 88.1263 11.4224L88.1728 11.2082C89.7374 11.6301 91.096 11.8047 91.8069 11.8146L92.0859 12.3354C91.6375 12.2859 91.0595 12.1936 90.4416 12.0519L90.1127 12.978L90.6442 13.1626C90.9465 12.9681 91.3319 12.6649 91.6342 12.3848L91.9531 12.7572C91.591 12.9681 91.2455 13.156 90.9366 13.2648L92.7935 13.914L92.6972 14.181L90.1227 13.2812C90.6675 14.2172 91.6674 14.9588 92.5444 15.4499L92.1723 15.8585L92.1657 15.8651ZM88.7541 15.3971L87.5117 14.9621L87.3024 15.552L88.5448 15.9871L88.7541 15.3971ZM87.7575 11.5312L87.3024 11.373L87.7575 10.0909L90.6841 11.1126C90.4017 10.7929 90.0363 10.4238 89.7274 10.1404L89.8603 9.9624C90.2224 10.1667 90.7738 10.5128 91.1458 10.8654L90.8369 11.1654L93.3416 12.0387L92.8898 13.3142L92.4347 13.156L92.7902 12.1541L88.1163 10.5227L87.7575 11.5312ZM89.0464 14.5732L87.804 14.1381L87.608 14.6918L88.8504 15.1269L89.0464 14.5732ZM91.0528 14.9753C90.5911 14.5303 90.1559 13.9832 89.9466 13.4329L89.651 14.27L89.1959 14.1118L89.4683 13.3439C88.9999 13.5878 88.3621 13.7262 87.6844 13.7987L91.0528 14.9753ZM89.1992 12.4804L88.9667 12.5858L89.651 12.8231L89.9633 11.9465C89.5214 11.8377 89.0597 11.7158 88.6179 11.5839C88.8504 11.8509 89.0597 12.1772 89.1992 12.4804ZM90.4516 15.9904L89.1959 15.552L88.9866 16.142L90.2423 16.5803L90.4516 15.9904ZM90.7439 15.1664L89.4882 14.7281L89.2922 15.2818L90.5479 15.7201L90.7439 15.1664Z" fill="#646464"/>
<path d="M40.6067 9.65254C40.8193 9.22409 41.0352 8.66381 41.2179 8.02772C40.8326 8.22217 40.3841 8.41663 40.0453 8.54846L39.8394 8.11671L40.2114 8.04091C40.3576 7.44108 40.4805 6.63361 40.5203 5.80967L41.0386 5.8624C40.899 6.57758 40.6632 7.44108 40.4506 7.97829C40.7363 7.90578 41.0253 7.82668 41.291 7.74429C41.3707 7.43778 41.4405 7.11479 41.4937 6.78522L41.9919 6.89398C41.7627 7.79702 41.3176 8.87144 40.8891 9.55696C41.2379 9.44161 41.6 9.31308 41.9388 9.17795C41.8126 8.99668 41.6863 8.82201 41.5767 8.6737L41.7428 8.53857C42.0683 8.81541 42.4703 9.2175 42.7228 9.58003L42.3573 9.8437C42.2677 9.69868 42.168 9.53389 42.0617 9.3691C41.5136 9.71516 40.7927 10.081 40.3808 10.2458L40.145 9.77448C40.2878 9.73823 40.4439 9.70198 40.6067 9.65254ZM40.8492 10.4402H41.0585C41.198 11.2081 41.208 11.953 41.1183 12.4671L40.5934 12.3419C40.7628 11.8475 40.8758 11.1818 40.8525 10.4402H40.8492ZM41.5568 10.2194C41.8225 10.6841 42.1414 11.4059 42.2976 11.8113L41.8258 11.9925C41.7195 11.5476 41.5202 10.8094 41.3608 10.2853L41.5568 10.2161V10.2194ZM42.859 10.9379L42.4769 11.1851C42.2909 10.7764 42.075 10.3842 41.8757 10.0217L42.0551 9.90302C42.3474 10.2095 42.6131 10.5622 42.8623 10.9346L42.859 10.9379ZM44.2043 9.04941L42.8058 9.32626L42.2045 6.34358L43.4602 6.0931C43.4934 5.81296 43.5034 5.49987 43.5001 5.17358L44.0183 5.19006C43.9352 5.48009 43.8289 5.79648 43.7193 6.04037L45.6493 5.65806L46.2506 8.64074L44.2608 9.03623C44.6561 9.18784 45.1411 9.43831 45.5231 9.71186L45.2407 10.1238C44.8787 9.78108 44.4435 9.46139 44.1013 9.2175L44.201 9.04941H44.2043ZM43.1978 8.96043L43.5499 8.89122L43.4502 8.76927C43.7492 8.5155 44.0316 8.20899 44.2541 7.83327C44.0482 7.74099 43.8422 7.64871 43.6396 7.56302C43.5366 7.76077 43.4237 7.93874 43.314 8.09364L43.1347 7.98817C43.2277 7.8135 43.3041 7.64212 43.3639 7.46085C43.2509 7.41801 43.138 7.37186 43.025 7.33561L43.0749 7.14116L43.4436 7.22355C43.5233 6.95001 43.5831 6.66327 43.6197 6.35347L42.7095 6.53474L43.2011 8.96372L43.1978 8.96043ZM43.0749 9.97553L43.2974 9.96893C43.4137 10.5819 43.417 11.1455 43.2875 11.6893L42.7859 11.5311C43.0151 11.0104 43.0981 10.5951 43.0749 9.97553ZM45.8486 10.0316C46.2473 10.9313 46.2207 11.2839 45.6958 11.4257C45.3404 11.5179 44.9816 11.5905 44.676 11.63C44.0748 11.7124 43.902 11.5773 43.7957 11.0434L43.4901 9.53389L43.9552 9.44161L44.2508 10.9016C44.3073 11.1851 44.4202 11.2246 44.696 11.1917C44.9351 11.1587 45.2374 11.106 45.5065 11.0236C45.7822 10.9412 45.8121 10.8819 45.6327 10.0876L45.8453 10.0381L45.8486 10.0316ZM45.2507 6.02719L43.7525 6.3271L44.0582 6.36336C44.0249 6.50178 44.0017 6.63361 43.9585 6.76215L44.5465 6.6435L44.676 6.50508L45.0979 6.63032C45.0215 7.0291 44.9085 7.36527 44.7657 7.64541C45.0248 7.75088 45.2706 7.85634 45.5131 7.97829L45.2906 8.36389C45.068 8.22877 44.8288 8.10682 44.5797 7.97829C44.3173 8.37708 44.0083 8.65392 43.706 8.86155L45.7457 8.45617L45.254 6.02719H45.2507ZM43.7625 7.30595C43.9751 7.36527 44.191 7.43448 44.4069 7.51029C44.4933 7.31584 44.5564 7.10161 44.6029 6.86432L43.8788 7.00933C43.8389 7.11479 43.799 7.21037 43.7592 7.30595H43.7625ZM47.0312 10.4798L46.6559 10.7698C46.3868 10.3183 46.1144 9.90631 45.7756 9.48446L45.925 9.34274C46.3336 9.66902 46.7256 10.0513 47.0279 10.4798H47.0312Z" fill="#646464"/>
<path d="M16.3537 21.3492L14.7326 22.4731L15.0548 22.9312L14.6362 23.2212L12.8092 20.6241L14.8488 19.2103L14.035 18.0567L14.4668 17.7568L15.2807 18.9103L17.327 17.4932L19.1308 20.054L18.7155 20.3407L18.4165 19.9189L16.7855 21.0493L18.3866 23.3234L17.9548 23.6233L16.3537 21.3492ZM16.1776 21.0987L15.0282 19.4673L13.4071 20.5912L14.5565 22.2226L16.1776 21.0987ZM18.2405 19.6684L17.0911 18.037L15.4601 19.1674L16.6094 20.7988L18.2405 19.6684Z" fill="#646464"/>
<path d="M78.0112 11.5706L76.2008 11.1223L75.8652 12.4472L75.3969 12.3319L75.729 11.007L74.0747 10.595C73.5432 11.4222 72.643 11.6035 71.5103 11.4321L71.5235 11.2014C72.5467 11.2772 73.1878 11.1223 73.5997 10.4731L71.8325 10.0347L71.9022 9.76117L73.7426 10.216C73.819 10.0644 73.8854 9.88641 73.9419 9.68867L73.0051 9.45467L73.6263 6.98943L77.8451 8.03748L77.2239 10.5027L76.4067 10.2984L76.2705 10.8422L78.0809 11.2904L78.0112 11.564V11.5706ZM72.5832 7.0883L72.4802 6.89715C73.1014 6.50495 73.7758 5.77329 74.1943 5.03833L74.6461 5.31517C74.5265 5.49315 74.3903 5.67112 74.2342 5.8425L76.1144 6.3105L76.0446 6.58405L74.8155 6.28084C74.9451 6.51484 75.0481 6.76532 75.1444 7.07512L74.6694 7.1674C74.6328 6.79827 74.5896 6.52472 74.5332 6.21163L74.0083 6.07979C73.5665 6.51813 73.0483 6.89715 72.5832 7.0883ZM73.5366 9.29977L76.8319 10.1171L76.9515 9.63923L73.6562 8.82188L73.5366 9.29977ZM73.7193 8.5681L77.0146 9.38546L77.1342 8.90757L73.8389 8.09022L73.7193 8.5681ZM73.9053 7.83315L77.2006 8.6505L77.3169 8.19239L74.0216 7.37503L73.9053 7.83315ZM75.8021 10.7301L75.9383 10.1863L74.4202 9.81061C74.3638 10.0051 74.2973 10.183 74.2209 10.3379L75.8054 10.7301H75.8021ZM75.4367 7.21024C75.935 6.90703 76.5064 6.38301 76.9216 5.71396L77.3534 6.0007C77.2173 6.18196 77.0611 6.34675 76.9116 6.49836L79.1273 7.04875L79.0576 7.3223L77.5528 6.94988C77.6856 7.20036 77.8052 7.4772 77.8949 7.78371L77.4232 7.85951C77.3867 7.49039 77.3468 7.20365 77.2837 6.88067L76.6525 6.72247C76.2605 7.04546 75.8586 7.26627 75.5364 7.4047L75.4367 7.20695V7.21024Z" fill="#646464"/>
<path d="M73.2907 64.8929L72.8157 64.9885L72.5466 63.657L75.5895 63.0505C75.1809 62.9154 74.6793 62.7869 74.264 62.6979L74.2873 62.4771C74.7025 62.4672 75.3569 62.487 75.8586 62.6023L75.7489 63.0176L78.3533 62.5002L78.6224 63.8251L78.1473 63.9206L77.938 62.8825L73.0815 63.8481L73.2907 64.8962V64.8929ZM79.31 66.3859C78.9944 66.376 78.5891 66.3298 78.1606 66.2441L78.6157 68.4952L78.1506 68.5874L78.0809 68.2513L75.0248 68.8577L75.0945 69.2071L74.6361 69.2993L74.1777 67.0351C73.8222 67.2757 73.4568 67.4965 73.0914 67.6811L72.9785 67.49C73.8621 66.9824 74.8886 66.1618 75.3237 65.3873L72.8622 65.8783L72.8057 65.6015L74.6427 65.2356C74.377 65.0214 74.0847 64.8072 73.8621 64.6589L73.9252 64.5336C73.799 64.5666 73.6694 64.5996 73.5498 64.6226L73.4768 64.415C75.0414 63.9865 76.297 63.446 76.9116 63.0934L77.4198 63.3999C77.0112 63.5845 76.4631 63.7987 75.8586 63.9898L76.0545 64.9522L76.606 64.8434C76.7654 64.5238 76.9415 64.0656 77.0578 63.6734L77.5228 63.8316C77.3202 64.1975 77.1209 64.5336 76.9083 64.7841L78.8383 64.4018L78.8948 64.6787L76.2173 65.2126C77.1674 65.7432 78.4098 65.8717 79.413 65.852L79.3067 66.3925L79.31 66.3859ZM75.0181 64.9786L74.872 65.1862L75.5828 65.0445L75.4001 64.1316C74.965 64.2634 74.5032 64.3919 74.0581 64.5007C74.3936 64.6127 74.7424 64.7874 75.0214 64.9753L75.0181 64.9786ZM77.8949 66.1848C77.267 66.0365 76.6126 65.7893 76.1509 65.4202L76.3269 66.2903L75.8519 66.3859L75.6925 65.5883C75.4167 66.0365 74.9384 66.4782 74.3936 66.8835L77.8949 66.1881V66.1848ZM75.9648 66.8572L74.6726 67.1142L74.7889 67.691L76.0811 67.4339L75.9648 66.8572ZM76.1376 67.7108L74.8454 67.9678L74.9683 68.5809L76.2605 68.3238L76.1376 67.7108ZM77.7288 66.5078L76.4233 66.7682L76.5395 67.3449L77.845 67.0846L77.7288 66.5078ZM77.9015 67.3614L76.596 67.6218L76.7189 68.2348L78.0244 67.9744L77.9015 67.3614Z" fill="#646464"/>
<path d="M43.2011 64.3063L41.9621 69.2236L41.5003 69.1083L42.5334 65.0149C42.168 65.3511 41.7661 65.6411 41.3309 65.8685L41.2246 65.6642C42.2079 64.9655 43.0184 63.901 43.6961 62.6189L44.1678 62.899C43.8755 63.4033 43.5599 63.8779 43.2011 64.3063ZM44.6461 66.208C44.1944 66.9792 43.4602 67.8888 42.6763 68.4524L42.5334 68.2744C43.1613 67.6746 43.7659 66.7913 44.1778 65.918L44.6495 66.208H44.6461ZM46.0978 64.8996L44.9883 69.2961C44.8322 69.9157 44.2841 70.0278 43.0151 69.128L43.1148 68.9369C44.2841 69.4214 44.4402 69.3917 44.5432 68.983L45.6029 64.7776L44.593 64.5272C44.2143 65.0182 43.7692 65.4533 43.3008 65.7861L43.148 65.6082C43.8954 64.9259 44.4767 64.013 44.9053 62.9814L45.4102 63.2253C45.2374 63.578 45.0182 63.9372 44.7757 64.28L47.3668 64.9226L47.5727 64.8468L48.0245 65.272C47.6359 65.6708 47.0811 66.0795 46.6991 66.2739L46.5562 66.0893C46.832 65.8356 47.1509 65.4664 47.3236 65.2028L46.0879 64.8963L46.0978 64.8996ZM47.1641 69.2302L46.5895 69.3258C46.5429 68.492 46.3602 67.2692 46.1975 66.5112L46.4034 66.442C46.729 67.2198 47.0379 68.4096 47.1641 69.2269V69.2302Z" fill="#646464"/>
<path d="M98.0089 22.282L102.719 26.639L102.52 26.8499L97.8096 22.4929L98.0089 22.282ZM101.005 20.9801L103.806 23.5706L102.178 25.3009L99.3775 22.7104L101.005 20.9801ZM99.713 20.4034L99.7894 20.1859C100.832 20.5253 102.251 20.667 103.238 20.3935L101.523 18.8082L101.719 18.6006L103.739 20.4693L104.463 19.6981L104.839 20.0441L104.115 20.8153L106.128 22.6775L105.932 22.8851L104.068 21.1614C103.995 22.2951 104.39 23.4157 104.978 24.3583L104.394 24.5429C103.885 23.4981 103.649 22.216 103.872 21.0724L102.753 22.2622L102.377 21.9161L103.427 20.8022C102.361 21.1054 100.813 20.8582 99.7163 20.4067L99.713 20.4034ZM99.9256 22.8291L102.015 24.7604L102.573 24.1671L100.484 22.2358L99.9256 22.8291ZM100.683 22.0249L102.772 23.9562L103.251 23.4454L101.161 21.5141L100.683 22.0249Z" fill="#646464"/>
<path d="M10.4041 42.3564C9.85603 42.3564 9.32785 42.1355 8.94251 41.7499C8.55717 42.1355 8.02567 42.3564 7.48088 42.3564C6.3448 42.3564 5.41799 41.4368 5.41799 40.3097C5.41799 39.9735 5.50104 39.6439 5.66381 39.3473C4.85327 39.0507 4.31512 38.2894 4.31512 37.4259C4.31512 36.2987 5.24193 35.3792 6.37802 35.3792C6.55075 35.3792 6.72017 35.399 6.88626 35.4418C6.94606 34.3707 7.85293 33.5105 8.94583 33.5105C10.0387 33.5105 10.9456 34.3707 11.0054 35.4451C11.1715 35.4023 11.3442 35.3792 11.5136 35.3792C12.6497 35.3792 13.5765 36.3449 13.5765 37.5346C13.5765 38.3981 13.0716 39.1858 12.3109 39.522C12.4172 39.7758 12.4704 40.0394 12.4704 40.3097C12.4704 41.4368 11.5435 42.3564 10.4075 42.3564H10.4041ZM8.93919 41.5456L8.99234 41.6016C9.35775 41.9938 9.86932 42.2179 10.4041 42.2179C11.4638 42.2179 12.3242 41.3643 12.3242 40.313C12.3242 40.0394 12.2644 39.7692 12.1481 39.5154L12.1182 39.4495L12.188 39.4231C12.9321 39.1298 13.4337 38.3718 13.4337 37.5379C13.4337 36.4273 12.5733 35.5242 11.5136 35.5242C11.3276 35.5242 11.1383 35.5539 10.9589 35.6099L10.8692 35.6396V35.544C10.8592 34.5025 9.99555 33.6555 8.94915 33.6555C7.90276 33.6555 7.04239 34.4992 7.0291 35.5374V35.6297L6.93941 35.6033C6.75671 35.5473 6.57068 35.5209 6.38134 35.5209C5.32166 35.5209 4.46129 36.3745 4.46129 37.4259C4.46129 38.2564 4.99611 38.9848 5.79336 39.2418L5.87641 39.2682L5.8299 39.344C5.65384 39.6373 5.56083 39.9735 5.56083 40.3097C5.56083 41.361 6.4212 42.2146 7.48088 42.2146C8.01238 42.2146 8.52728 41.9905 8.89268 41.5983L8.94583 41.5423L8.93919 41.5456Z" fill="#646464"/>
<path d="M10.4041 42.0596C9.90915 42.0596 9.44741 41.8586 9.10858 41.496C9.02221 41.4038 8.85611 41.4038 8.76974 41.496C8.43091 41.8586 7.97249 42.0596 7.47421 42.0596C6.5009 42.0596 5.71361 41.2752 5.71361 40.3129C5.71361 40.0031 5.79998 39.6966 5.95943 39.4263C5.99597 39.367 6.00261 39.2945 5.97604 39.2286C5.94946 39.1626 5.89963 39.1132 5.82988 39.0934C5.09906 38.8594 4.60742 38.1904 4.60742 37.4291C4.60742 36.4634 5.39803 35.6823 6.36802 35.6823C6.54076 35.6823 6.7135 35.7087 6.87959 35.7581C6.94935 35.7779 7.02575 35.7647 7.08223 35.7251C7.1387 35.6823 7.17524 35.6164 7.17524 35.5439C7.1852 34.5914 7.97581 33.8169 8.93584 33.8169C9.89586 33.8169 10.6865 34.5947 10.6964 35.5472C10.6964 35.6197 10.733 35.6889 10.7928 35.7284C10.8526 35.7713 10.929 35.7812 10.9987 35.7614C11.1648 35.7087 11.3342 35.6823 11.507 35.6823C12.4803 35.6823 13.2676 36.5161 13.2676 37.5411C13.2676 38.309 12.8092 39.0077 12.1248 39.278C12.0651 39.3011 12.0185 39.3472 11.9953 39.4065C11.972 39.4659 11.9754 39.5318 11.9986 39.5878C12.1082 39.8218 12.1614 40.0657 12.1614 40.3195C12.1614 41.2851 11.3708 42.0662 10.4008 42.0662L10.4041 42.0596ZM8.93916 41.3148C9.03217 41.3148 9.12186 41.3543 9.18498 41.4235C9.50388 41.7663 9.93573 41.9542 10.4008 41.9542C11.3143 41.9542 12.0584 41.2159 12.0584 40.3129C12.0584 40.0756 12.0053 39.8449 11.9056 39.6273C11.8657 39.545 11.8657 39.4494 11.899 39.3637C11.9322 39.278 12.0019 39.2121 12.0883 39.1791C12.7328 38.9253 13.1646 38.2662 13.1646 37.5411C13.1646 36.5755 12.4205 35.7878 11.5103 35.7878C11.3508 35.7878 11.1914 35.8141 11.0353 35.8603C10.9356 35.8932 10.8227 35.8735 10.7363 35.8141C10.6499 35.7515 10.5968 35.6526 10.5968 35.5472C10.5868 34.6507 9.84604 33.9191 8.94248 33.9191C8.03893 33.9191 7.29815 34.6474 7.28818 35.5406C7.28818 35.646 7.23503 35.7449 7.15199 35.8042C7.06562 35.8669 6.95599 35.8833 6.85634 35.8537C6.70021 35.8075 6.53744 35.7845 6.37799 35.7845C5.46447 35.7845 4.72037 36.5227 4.72037 37.4291C4.72037 38.1442 5.18211 38.7737 5.86974 38.9946C5.96607 39.0242 6.0458 39.0967 6.08234 39.1923C6.11888 39.2879 6.10891 39.3933 6.05909 39.479C5.9096 39.7328 5.82655 40.0195 5.82655 40.3129C5.82655 41.2192 6.57066 41.9542 7.48417 41.9542C7.94924 41.9542 8.38108 41.7663 8.69998 41.4235C8.7631 41.3543 8.85279 41.3148 8.9458 41.3148H8.93916Z" fill="#646464"/>
<path d="M8.93917 39.0178C8.40434 39.0178 7.96918 38.586 7.96918 38.0554C7.96918 37.5248 8.40434 37.093 8.93917 37.093C9.47399 37.093 9.90916 37.5248 9.90916 38.0554C9.90916 38.586 9.47399 39.0178 8.93917 39.0178ZM8.93917 37.2347C8.48407 37.2347 8.11202 37.6039 8.11202 38.0554C8.11202 38.5069 8.48407 38.876 8.93917 38.876C9.39427 38.876 9.76632 38.5069 9.76632 38.0554C9.76632 37.6039 9.39427 37.2347 8.93917 37.2347Z" fill="#646464"/>
<path d="M8.90597 36.0746V37.1688C8.90597 37.1688 8.92922 37.1688 8.94251 37.1688C8.9558 37.1688 8.96576 37.1688 8.97905 37.1688V36.0746C9.1086 36.0581 9.20826 35.9493 9.20826 35.8142C9.20826 35.6692 9.08867 35.5505 8.94251 35.5505C8.79635 35.5505 8.67676 35.6692 8.67676 35.8142C8.67676 35.9493 8.77641 36.0581 8.90597 36.0746Z" fill="#646464"/>
<path d="M8.11536 36.2493L8.55053 37.2545C8.57046 37.2446 8.59371 37.2347 8.61697 37.2281L8.1818 36.2229C8.29474 36.157 8.34457 36.0153 8.29142 35.8933C8.23495 35.7582 8.0755 35.6989 7.94262 35.7549C7.80643 35.8109 7.74663 35.9691 7.8031 36.101C7.85625 36.2229 7.99245 36.2855 8.11868 36.2493H8.11536Z" fill="#646464"/>
<path d="M6.93608 38.0981H8.04226C8.04226 38.0981 8.04226 38.0718 8.04226 38.0586C8.04226 38.0487 8.04226 38.0388 8.04226 38.0289H6.93608C6.91947 37.9004 6.80985 37.8015 6.67365 37.8015C6.52749 37.8015 6.4079 37.9202 6.4079 38.0652C6.4079 38.2102 6.52749 38.3288 6.67365 38.3288C6.80985 38.3288 6.91947 38.23 6.93608 38.1014V38.0981Z" fill="#646464"/>
<path d="M6.71021 37.5708C6.83644 37.6137 6.97596 37.5576 7.03243 37.439L8.0755 37.7982C8.08215 37.7752 8.08879 37.7521 8.09876 37.7323L7.05569 37.3731C7.08226 37.2445 7.0125 37.116 6.88295 37.0699C6.74343 37.0204 6.59394 37.0962 6.54412 37.2314C6.49429 37.3665 6.57069 37.5181 6.70689 37.5675L6.71021 37.5708Z" fill="#646464"/>
<path d="M9.55704 36.1702L9.2016 37.2051C9.22485 37.2117 9.24478 37.2216 9.26804 37.2282L9.62348 36.1933C9.75303 36.2197 9.88258 36.1472 9.92577 36.0219C9.97228 35.8835 9.89919 35.7352 9.75968 35.6857C9.62016 35.6396 9.47067 35.7121 9.42084 35.8505C9.37766 35.9758 9.43745 36.1142 9.55372 36.1702H9.55704Z" fill="#646464"/>
<path d="M10.6931 37.0996L9.71649 37.6104C9.72978 37.6302 9.73975 37.65 9.74971 37.673L10.7263 37.1589C10.8027 37.2644 10.9456 37.3006 11.0652 37.238C11.1947 37.1688 11.2446 37.0106 11.1748 36.882C11.105 36.7535 10.9456 36.7041 10.816 36.7733C10.6964 36.8359 10.6466 36.9743 10.6931 37.0963V37.0996Z" fill="#646464"/>
<path d="M9.55371 37.4062C9.57032 37.4227 9.58693 37.4391 9.60354 37.4556L10.3842 36.6811C10.4872 36.7602 10.6366 36.7536 10.733 36.658C10.836 36.5559 10.836 36.3878 10.733 36.2856C10.63 36.1834 10.4606 36.1834 10.3576 36.2856C10.2613 36.3812 10.2546 36.5295 10.3344 36.6317L9.55371 37.4062Z" fill="#646464"/>
<path d="M7.4975 36.6811L8.27815 37.4556C8.29476 37.4391 8.31137 37.4227 8.32797 37.4062L7.54733 36.6317C7.62706 36.5295 7.62041 36.3812 7.52408 36.2856C7.4211 36.1834 7.25168 36.1834 7.14871 36.2856C7.04573 36.3878 7.04573 36.5559 7.14871 36.658C7.24504 36.7536 7.39453 36.7602 7.4975 36.6811Z" fill="#646464"/>
<path d="M11.1682 38.553C11.0419 38.5101 10.9024 38.5662 10.846 38.6848L9.79956 38.3223C9.79292 38.3453 9.78295 38.3651 9.77631 38.3882L10.8227 38.7507C10.7961 38.8792 10.8659 39.0078 10.9954 39.0539C11.135 39.1034 11.2844 39.0276 11.3343 38.8924C11.3841 38.754 11.3077 38.6057 11.1715 38.5563L11.1682 38.553Z" fill="#646464"/>
<path d="M10.3809 39.443L9.59359 38.6619C9.57698 38.6783 9.56037 38.6948 9.54376 38.7113L10.331 39.4924C10.2513 39.5946 10.258 39.7429 10.3543 39.8385C10.4573 39.9406 10.6267 39.9406 10.7297 39.8385C10.8327 39.7363 10.8327 39.5682 10.7297 39.466C10.6333 39.3705 10.4839 39.3639 10.3809 39.443Z" fill="#646464"/>
<path d="M9.76298 39.8745L9.32449 38.8594C9.30456 38.8693 9.28131 38.8792 9.25806 38.8857L9.69655 39.9008C9.5836 39.9668 9.53377 40.1085 9.58692 40.2304C9.6434 40.3655 9.80285 40.4249 9.93572 40.3688C10.0686 40.3128 10.1317 40.1546 10.0752 40.0228C10.0221 39.9008 9.88589 39.8382 9.75966 39.8745H9.76298Z" fill="#646464"/>
<path d="M11.208 37.7982C11.0718 37.7982 10.9622 37.8971 10.9456 38.0256H9.83942C9.83942 38.0256 9.83942 38.0454 9.83942 38.0553C9.83942 38.0685 9.83942 38.0817 9.83942 38.0948H10.9456C10.9622 38.2234 11.0718 38.3222 11.208 38.3222C11.3542 38.3222 11.4738 38.2036 11.4738 38.0586C11.4738 37.9136 11.3542 37.7949 11.208 37.7949V37.7982Z" fill="#646464"/>
<path d="M8.97569 40.0526V38.9485C8.97569 38.9485 8.95244 38.9485 8.93915 38.9485C8.92586 38.9485 8.9159 38.9485 8.90261 38.9485V40.0526C8.77306 40.069 8.6734 40.1778 8.6734 40.3129C8.6734 40.458 8.79299 40.5766 8.93915 40.5766C9.08531 40.5766 9.2049 40.458 9.2049 40.3129C9.2049 40.1778 9.10525 40.069 8.97569 40.0526Z" fill="#646464"/>
<path d="M8.33462 38.7145C8.31801 38.698 8.3014 38.6815 8.28479 38.665L7.4975 39.4461C7.39453 39.367 7.24504 39.3736 7.14871 39.4692C7.04573 39.5714 7.04573 39.7395 7.14871 39.8416C7.25168 39.9438 7.4211 39.9438 7.52408 39.8416C7.62041 39.7461 7.62706 39.5977 7.54733 39.4956L8.33462 38.7145Z" fill="#646464"/>
<path d="M8.32461 39.957L8.68337 38.9122C8.66012 38.9056 8.63686 38.899 8.61693 38.8892L8.25817 39.9339C8.12862 39.9076 7.99906 39.9801 7.95588 40.1053C7.90937 40.2437 7.98245 40.392 8.12197 40.4415C8.26149 40.4876 8.41098 40.4151 8.4608 40.2767C8.50399 40.1514 8.44419 40.013 8.32793 39.957H8.32461Z" fill="#646464"/>
<path d="M7.1852 39.0243L8.16515 38.5101C8.15187 38.4904 8.1419 38.4706 8.13194 38.4475L7.15198 38.9616C7.07558 38.8562 6.93274 38.8199 6.81315 38.8826C6.68359 38.9518 6.63377 39.11 6.70352 39.2385C6.77328 39.367 6.93274 39.4165 7.06229 39.3473C7.18188 39.2846 7.2317 39.1462 7.1852 39.0243Z" fill="#646464"/>
<path d="M16.7622 56.6073C16.2141 56.6073 15.6859 56.3865 15.3006 56.0009C14.9153 56.3865 14.3838 56.6073 13.839 56.6073C12.7029 56.6073 11.7761 55.6878 11.7761 54.5607C11.7761 54.2245 11.8591 53.8949 12.0219 53.5983C11.2114 53.3017 10.6732 52.5403 10.6732 51.6769C10.6732 50.5497 11.6 49.6302 12.7361 49.6302C12.9088 49.6302 13.0783 49.65 13.2444 49.6928C13.3042 48.6217 14.211 47.7615 15.3039 47.7615C16.3968 47.7615 17.3037 48.6217 17.3635 49.6961C17.5296 49.6533 17.7023 49.6302 17.8717 49.6302C19.0078 49.6302 19.9346 50.5958 19.9346 51.7856C19.9346 52.6491 19.4297 53.4368 18.669 53.773C18.7753 54.0267 18.8284 54.2904 18.8284 54.5607C18.8284 55.6878 17.9016 56.6073 16.7656 56.6073H16.7622ZM15.3006 55.7966L15.3538 55.8526C15.7192 56.2448 16.2307 56.4689 16.7656 56.4689C17.8252 56.4689 18.6856 55.6153 18.6856 54.564C18.6856 54.2904 18.6258 54.0201 18.5095 53.7664L18.4796 53.7005L18.5494 53.6741C19.2935 53.3808 19.7951 52.6227 19.7951 51.7889C19.7951 50.6782 18.9347 49.7752 17.8751 49.7752C17.689 49.7752 17.4997 49.8049 17.3203 49.8609L17.2306 49.8905V49.795C17.2207 48.7535 16.357 47.9065 15.3106 47.9065C14.2642 47.9065 13.4038 48.7502 13.3905 49.7884V49.8807L13.3008 49.8543C13.1181 49.7983 12.9321 49.7719 12.7428 49.7719C11.6831 49.7719 10.8227 50.6255 10.8227 51.6769C10.8227 52.5074 11.3575 53.2358 12.1548 53.4928L12.2378 53.5192L12.1913 53.595C12.0153 53.8883 11.9222 54.2245 11.9222 54.5607C11.9222 55.612 12.7826 56.4656 13.8423 56.4656C14.3738 56.4656 14.8887 56.2415 15.2541 55.8493L15.3072 55.7933L15.3006 55.7966Z" fill="#646464"/>
<path d="M16.7622 56.3106C16.2672 56.3106 15.8055 56.1096 15.4667 55.747C15.3803 55.6547 15.2142 55.6547 15.1278 55.747C14.789 56.1096 14.3306 56.3106 13.8323 56.3106C12.859 56.3106 12.0717 55.5262 12.0717 54.5638C12.0717 54.254 12.1581 53.9475 12.3175 53.6773C12.3541 53.618 12.3607 53.5454 12.3341 53.4795C12.3076 53.4136 12.2577 53.3642 12.188 53.3444C11.4572 53.1104 10.9655 52.4414 10.9655 51.68C10.9655 50.7144 11.7561 49.9333 12.7261 49.9333C12.8989 49.9333 13.0716 49.9596 13.2377 50.0091C13.3074 50.0289 13.3838 50.0157 13.4403 49.9761C13.4968 49.9333 13.5333 49.8674 13.5333 49.7949C13.5433 48.8424 14.3339 48.0679 15.2939 48.0679C16.254 48.0679 17.0446 48.8457 17.0545 49.7982C17.0545 49.8707 17.0911 49.9399 17.1509 49.9794C17.2107 50.0223 17.2871 50.0322 17.3568 50.0124C17.5229 49.9596 17.6923 49.9333 17.8651 49.9333C18.8384 49.9333 19.6257 50.7671 19.6257 51.7921C19.6257 52.56 19.1672 53.2587 18.4829 53.529C18.4231 53.552 18.3766 53.5982 18.3534 53.6575C18.3301 53.7168 18.3335 53.7827 18.3567 53.8388C18.4663 54.0728 18.5195 54.3167 18.5195 54.5704C18.5195 55.5361 17.7289 56.3172 16.7589 56.3172L16.7622 56.3106ZM15.3006 55.5658C15.3936 55.5658 15.4833 55.6053 15.5464 55.6745C15.8653 56.0173 16.2971 56.2051 16.7622 56.2051C17.6757 56.2051 18.4198 55.4669 18.4198 54.5638C18.4198 54.3265 18.3667 54.0958 18.267 53.8783C18.2272 53.7959 18.2272 53.7003 18.2604 53.6147C18.2936 53.529 18.3634 53.4631 18.4497 53.4301C19.0942 53.1763 19.526 52.5172 19.526 51.7921C19.526 50.8264 18.7819 50.0387 17.8717 50.0387C17.7123 50.0387 17.5528 50.0651 17.3967 50.1112C17.297 50.1442 17.1841 50.1244 17.0977 50.0651C17.0113 50.0025 16.9582 49.9036 16.9582 49.7982C16.9482 48.9017 16.2074 48.17 15.3039 48.17C14.4003 48.17 13.6596 48.8984 13.6496 49.7916C13.6496 49.897 13.5964 49.9959 13.5134 50.0552C13.427 50.1178 13.3174 50.1343 13.2178 50.1047C13.0616 50.0585 12.8989 50.0354 12.7394 50.0354C11.8259 50.0354 11.0818 50.7737 11.0818 51.68C11.0818 52.3952 11.5435 53.0247 12.2312 53.2455C12.3275 53.2752 12.4072 53.3477 12.4438 53.4433C12.4803 53.5389 12.4703 53.6443 12.4205 53.73C12.271 53.9838 12.188 54.2705 12.188 54.5638C12.188 55.4702 12.9321 56.2051 13.8456 56.2051C14.3107 56.2051 14.7425 56.0173 15.0614 55.6745C15.1245 55.6053 15.2142 55.5658 15.3072 55.5658H15.3006Z" fill="#646464"/>
<path d="M15.3006 53.2687C14.7658 53.2687 14.3306 52.837 14.3306 52.3064C14.3306 51.7757 14.7658 51.344 15.3006 51.344C15.8354 51.344 16.2706 51.7757 16.2706 52.3064C16.2706 52.837 15.8354 53.2687 15.3006 53.2687ZM15.3006 51.4857C14.8455 51.4857 14.4735 51.8548 14.4735 52.3064C14.4735 52.7579 14.8455 53.127 15.3006 53.127C15.7557 53.127 16.1278 52.7579 16.1278 52.3064C16.1278 51.8548 15.7557 51.4857 15.3006 51.4857Z" fill="#646464"/>
<path d="M15.2641 50.3224V51.4166C15.2641 51.4166 15.2873 51.4166 15.3006 51.4166C15.3139 51.4166 15.3239 51.4166 15.3371 51.4166V50.3224C15.4667 50.3059 15.5664 50.1971 15.5664 50.062C15.5664 49.917 15.4468 49.7983 15.3006 49.7983C15.1544 49.7983 15.0349 49.917 15.0349 50.062C15.0349 50.1971 15.1345 50.3059 15.2641 50.3224Z" fill="#646464"/>
<path d="M14.4768 50.5002L14.9119 51.5055C14.9318 51.4956 14.9551 51.4857 14.9784 51.4791L14.5432 50.4739C14.6561 50.408 14.706 50.2662 14.6528 50.1443C14.5963 50.0092 14.4369 49.9499 14.304 50.0059C14.1678 50.0619 14.108 50.2201 14.1645 50.3519C14.2176 50.4739 14.3538 50.5365 14.4801 50.5002H14.4768Z" fill="#646464"/>
<path d="M13.2942 52.3459H14.4004C14.4004 52.3459 14.4004 52.3196 14.4004 52.3064C14.4004 52.2965 14.4004 52.2866 14.4004 52.2767H13.2942C13.2776 52.1482 13.1679 52.0493 13.0317 52.0493C12.8856 52.0493 12.766 52.168 12.766 52.313C12.766 52.458 12.8856 52.5766 13.0317 52.5766C13.1679 52.5766 13.2776 52.4778 13.2942 52.3492V52.3459Z" fill="#646464"/>
<path d="M13.0716 51.8221C13.1978 51.8649 13.3374 51.8089 13.3938 51.6902L14.4369 52.0495C14.4435 52.0264 14.4502 52.0033 14.4601 51.9835L13.4171 51.6243C13.4437 51.4958 13.3739 51.3672 13.2443 51.3211C13.1048 51.2717 12.9553 51.3475 12.9055 51.4826C12.8557 51.6177 12.9321 51.7693 13.0683 51.8188L13.0716 51.8221Z" fill="#646464"/>
<path d="M15.9151 50.418L15.5597 51.4529C15.5829 51.4595 15.6029 51.4694 15.6261 51.476L15.9816 50.4411C16.1111 50.4675 16.2407 50.395 16.2839 50.2697C16.3304 50.1313 16.2573 49.983 16.1178 49.9336C15.9782 49.8874 15.8288 49.9599 15.7789 50.0983C15.7358 50.2236 15.7955 50.362 15.9118 50.418H15.9151Z" fill="#646464"/>
<path d="M17.0545 51.3505L16.0779 51.8614C16.0912 51.8812 16.1011 51.9009 16.1111 51.924L17.0877 51.4099C17.1641 51.5153 17.307 51.5516 17.4266 51.489C17.5561 51.4198 17.6059 51.2616 17.5362 51.133C17.4664 51.0045 17.307 50.955 17.1774 51.0243C17.0578 51.0869 17.008 51.2253 17.0545 51.3472V51.3505Z" fill="#646464"/>
<path d="M15.9118 51.654C15.9284 51.6705 15.945 51.6869 15.9616 51.7034L16.7423 50.9289C16.8453 51.008 16.9947 51.0014 17.0911 50.9058C17.1941 50.8037 17.1941 50.6356 17.0911 50.5334C16.9881 50.4312 16.8187 50.4312 16.7157 50.5334C16.6194 50.629 16.6127 50.7773 16.6924 50.8795L15.9118 51.654Z" fill="#646464"/>
<path d="M13.8556 50.9321L14.6362 51.7066C14.6529 51.6901 14.6695 51.6736 14.6861 51.6571L13.9054 50.8826C13.9852 50.7805 13.9785 50.6322 13.8822 50.5366C13.7792 50.4344 13.6098 50.4344 13.5068 50.5366C13.4038 50.6388 13.4038 50.8068 13.5068 50.909C13.6031 51.0046 13.7526 51.0112 13.8556 50.9321Z" fill="#646464"/>
<path d="M17.5263 52.8042C17.4 52.7613 17.2605 52.8174 17.204 52.936L16.1577 52.5735C16.151 52.5966 16.141 52.6163 16.1344 52.6394L17.1808 53.0019C17.1542 53.1305 17.224 53.259 17.3535 53.3051C17.4931 53.3546 17.6425 53.2788 17.6924 53.1437C17.7422 53.0052 17.6658 52.8569 17.5296 52.8075L17.5263 52.8042Z" fill="#646464"/>
<path d="M16.7423 53.6939L15.955 52.9128C15.9384 52.9293 15.9218 52.9458 15.9052 52.9623L16.6924 53.7434C16.6127 53.8455 16.6194 53.9939 16.7157 54.0894C16.8187 54.1916 16.9881 54.1916 17.0911 54.0894C17.194 53.9873 17.194 53.8192 17.0911 53.717C16.9947 53.6214 16.8452 53.6148 16.7423 53.6939Z" fill="#646464"/>
<path d="M16.1244 54.1257L15.6859 53.1106C15.666 53.1205 15.6428 53.1304 15.6195 53.137L16.058 54.1521C15.9451 54.218 15.8952 54.3597 15.9484 54.4816C16.0048 54.6168 16.1643 54.6761 16.2972 54.6201C16.43 54.564 16.4932 54.4058 16.4367 54.274C16.3835 54.1521 16.2473 54.0894 16.1211 54.1257H16.1244Z" fill="#646464"/>
<path d="M17.5661 52.0494C17.4299 52.0494 17.3203 52.1483 17.3037 52.2769H16.1975C16.1975 52.2769 16.1975 52.2966 16.1975 52.3065C16.1975 52.3197 16.1975 52.3329 16.1975 52.3461H17.3037C17.3203 52.4746 17.4299 52.5735 17.5661 52.5735C17.7123 52.5735 17.8319 52.4548 17.8319 52.3098C17.8319 52.1648 17.7123 52.0461 17.5661 52.0461V52.0494Z" fill="#646464"/>
<path d="M15.3338 54.3004V53.1963C15.3338 53.1963 15.3105 53.1963 15.2972 53.1963C15.284 53.1963 15.274 53.1963 15.2607 53.1963V54.3004C15.1312 54.3169 15.0315 54.4256 15.0315 54.5607C15.0315 54.7058 15.1511 54.8244 15.2972 54.8244C15.4434 54.8244 15.563 54.7058 15.563 54.5607C15.563 54.4256 15.4633 54.3169 15.3338 54.3004Z" fill="#646464"/>
<path d="M14.6927 52.9623C14.6761 52.9458 14.6595 52.9293 14.6429 52.9128L13.8556 53.6939C13.7526 53.6148 13.6031 53.6214 13.5068 53.717C13.4038 53.8192 13.4038 53.9873 13.5068 54.0894C13.6098 54.1916 13.7792 54.1916 13.8822 54.0894C13.9785 53.9939 13.9852 53.8455 13.9054 53.7434L14.6927 52.9623Z" fill="#646464"/>
<path d="M14.6827 54.2048L15.0415 53.16C15.0182 53.1534 14.995 53.1469 14.975 53.137L14.6163 54.1817C14.4867 54.1554 14.3572 54.2279 14.314 54.3531C14.2675 54.4915 14.3405 54.6398 14.4801 54.6893C14.6196 54.7354 14.7691 54.6629 14.8189 54.5245C14.8621 54.3992 14.8023 54.2608 14.686 54.2048H14.6827Z" fill="#646464"/>
<path d="M13.5433 53.2755L14.5232 52.7614C14.51 52.7416 14.5 52.7218 14.49 52.6987L13.5101 53.2129C13.4337 53.1074 13.2908 53.0712 13.1712 53.1338C13.0417 53.203 12.9919 53.3612 13.0616 53.4897C13.1314 53.6182 13.2908 53.6677 13.4204 53.5985C13.54 53.5359 13.5898 53.3974 13.5433 53.2755Z" fill="#646464"/>
<path d="M110.788 42.3564C110.24 42.3564 109.712 42.1355 109.327 41.7499C108.941 42.1355 108.41 42.3564 107.865 42.3564C106.729 42.3564 105.802 41.4368 105.802 40.3097C105.802 39.9735 105.885 39.6439 106.048 39.3473C105.237 39.0507 104.699 38.2894 104.699 37.4259C104.699 36.2987 105.626 35.3792 106.762 35.3792C106.935 35.3792 107.104 35.399 107.27 35.4418C107.33 34.3707 108.237 33.5105 109.33 33.5105C110.423 33.5105 111.33 34.3707 111.389 35.4451C111.556 35.4023 111.728 35.3792 111.898 35.3792C113.034 35.3792 113.961 36.3449 113.961 37.5346C113.961 38.3981 113.456 39.1858 112.695 39.522C112.801 39.7758 112.854 40.0394 112.854 40.3097C112.854 41.4368 111.928 42.3564 110.791 42.3564H110.788ZM109.323 41.5456L109.376 41.6016C109.742 41.9938 110.253 42.2179 110.788 42.2179C111.848 42.2179 112.708 41.3643 112.708 40.313C112.708 40.0394 112.648 39.7692 112.532 39.5154L112.502 39.4495L112.572 39.4231C113.316 39.1298 113.818 38.3718 113.818 37.5379C113.818 36.4273 112.957 35.5242 111.898 35.5242C111.712 35.5242 111.522 35.5539 111.343 35.6099L111.253 35.6396V35.544C111.243 34.5025 110.38 33.6555 109.333 33.6555C108.287 33.6555 107.426 34.4992 107.413 35.5374V35.6297L107.323 35.6033C107.141 35.5473 106.955 35.5209 106.765 35.5209C105.706 35.5209 104.845 36.3745 104.845 37.4259C104.845 38.2564 105.38 38.9848 106.177 39.2418L106.26 39.2682L106.214 39.344C106.038 39.6373 105.945 39.9735 105.945 40.3097C105.945 41.361 106.805 42.2146 107.865 42.2146C108.396 42.2146 108.911 41.9905 109.277 41.5983L109.33 41.5423L109.323 41.5456Z" fill="#646464"/>
<path d="M110.788 42.0596C110.293 42.0596 109.831 41.8586 109.493 41.496C109.406 41.4038 109.24 41.4038 109.154 41.496C108.815 41.8586 108.357 42.0596 107.858 42.0596C106.885 42.0596 106.098 41.2752 106.098 40.3129C106.098 40.0031 106.184 39.6966 106.343 39.4263C106.38 39.367 106.387 39.2945 106.36 39.2286C106.333 39.1626 106.284 39.1132 106.214 39.0934C105.483 38.8594 104.991 38.1904 104.991 37.4291C104.991 36.4634 105.782 35.6823 106.752 35.6823C106.925 35.6823 107.098 35.7087 107.264 35.7581C107.333 35.7779 107.41 35.7647 107.466 35.7251C107.523 35.6823 107.559 35.6164 107.559 35.5439C107.569 34.5914 108.36 33.8169 109.32 33.8169C110.28 33.8169 111.071 34.5947 111.08 35.5472C111.08 35.6197 111.117 35.6889 111.177 35.7284C111.237 35.7713 111.313 35.7812 111.383 35.7614C111.549 35.7087 111.718 35.6823 111.891 35.6823C112.864 35.6823 113.652 36.5161 113.652 37.5411C113.652 38.309 113.193 39.0077 112.509 39.278C112.449 39.3011 112.403 39.3472 112.379 39.4065C112.356 39.4659 112.359 39.5318 112.383 39.5878C112.492 39.8218 112.545 40.0657 112.545 40.3195C112.545 41.2851 111.755 42.0662 110.785 42.0662L110.788 42.0596ZM109.323 41.3148C109.416 41.3148 109.506 41.3543 109.569 41.4235C109.888 41.7663 110.32 41.9542 110.785 41.9542C111.698 41.9542 112.442 41.2159 112.442 40.3129C112.442 40.0756 112.389 39.8449 112.29 39.6273C112.25 39.545 112.25 39.4494 112.283 39.3637C112.316 39.278 112.386 39.2121 112.472 39.1791C113.117 38.9253 113.549 38.2662 113.549 37.5411C113.549 36.5755 112.805 35.7878 111.894 35.7878C111.735 35.7878 111.575 35.8141 111.419 35.8603C111.32 35.8932 111.207 35.8735 111.12 35.8141C111.034 35.7515 110.981 35.6526 110.981 35.5472C110.971 34.6507 110.23 33.9191 109.327 33.9191C108.423 33.9191 107.682 34.6474 107.672 35.5406C107.672 35.646 107.619 35.7449 107.536 35.8042C107.45 35.8669 107.34 35.8833 107.24 35.8537C107.084 35.8075 106.921 35.7845 106.762 35.7845C105.849 35.7845 105.104 36.5227 105.104 37.4291C105.104 38.1442 105.566 38.7737 106.254 38.9946C106.35 39.0242 106.43 39.0967 106.466 39.1923C106.503 39.2879 106.493 39.3933 106.443 39.479C106.294 39.7328 106.211 40.0195 106.211 40.3129C106.211 41.2192 106.955 41.9542 107.868 41.9542C108.333 41.9542 108.765 41.7663 109.084 41.4235C109.147 41.3543 109.237 41.3148 109.33 41.3148H109.323Z" fill="#646464"/>
<path d="M109.323 39.0178C108.788 39.0178 108.353 38.586 108.353 38.0554C108.353 37.5248 108.788 37.093 109.323 37.093C109.858 37.093 110.293 37.5248 110.293 38.0554C110.293 38.586 109.858 39.0178 109.323 39.0178ZM109.323 37.2347C108.868 37.2347 108.496 37.6039 108.496 38.0554C108.496 38.5069 108.868 38.876 109.323 38.876C109.778 38.876 110.15 38.5069 110.15 38.0554C110.15 37.6039 109.778 37.2347 109.323 37.2347Z" fill="#646464"/>
<path d="M109.29 36.0746V37.1688C109.29 37.1688 109.313 37.1688 109.327 37.1688C109.34 37.1688 109.35 37.1688 109.363 37.1688V36.0746C109.493 36.0581 109.592 35.9493 109.592 35.8142C109.592 35.6692 109.473 35.5505 109.327 35.5505C109.18 35.5505 109.061 35.6692 109.061 35.8142C109.061 35.9493 109.16 36.0581 109.29 36.0746Z" fill="#646464"/>
<path d="M108.499 36.2493L108.935 37.2545C108.954 37.2446 108.978 37.2347 109.001 37.2281L108.566 36.2229C108.679 36.157 108.729 36.0153 108.675 35.8933C108.619 35.7582 108.46 35.6989 108.327 35.7549C108.19 35.8109 108.131 35.9691 108.187 36.101C108.24 36.2229 108.376 36.2855 108.503 36.2493H108.499Z" fill="#646464"/>
<path d="M107.32 38.0981H108.426C108.426 38.0981 108.426 38.0718 108.426 38.0586C108.426 38.0487 108.426 38.0388 108.426 38.0289H107.32C107.304 37.9004 107.194 37.8015 107.058 37.8015C106.912 37.8015 106.792 37.9202 106.792 38.0652C106.792 38.2102 106.912 38.3288 107.058 38.3288C107.194 38.3288 107.304 38.23 107.32 38.1014V38.0981Z" fill="#646464"/>
<path d="M107.098 37.5708C107.224 37.6137 107.363 37.5576 107.42 37.439L108.463 37.7982C108.469 37.7752 108.476 37.7521 108.486 37.7323L107.443 37.3731C107.47 37.2445 107.4 37.116 107.27 37.0699C107.131 37.0204 106.981 37.0962 106.931 37.2314C106.882 37.3665 106.958 37.5181 107.094 37.5675L107.098 37.5708Z" fill="#646464"/>
<path d="M109.941 36.1702L109.586 37.2051C109.609 37.2117 109.629 37.2216 109.652 37.2282L110.008 36.1933C110.137 36.2197 110.267 36.1472 110.31 36.0219C110.356 35.8835 110.283 35.7352 110.144 35.6857C110.004 35.6396 109.855 35.7121 109.805 35.8505C109.762 35.9758 109.821 36.1142 109.938 36.1702H109.941Z" fill="#646464"/>
<path d="M111.08 37.0996L110.104 37.6104C110.117 37.6302 110.127 37.65 110.137 37.673L111.114 37.1589C111.19 37.2644 111.333 37.3006 111.453 37.238C111.582 37.1688 111.632 37.0106 111.562 36.882C111.492 36.7535 111.333 36.7041 111.203 36.7733C111.084 36.8359 111.034 36.9743 111.08 37.0963V37.0996Z" fill="#646464"/>
<path d="M109.938 37.4062C109.954 37.4227 109.971 37.4391 109.988 37.4556L110.768 36.6811C110.871 36.7602 111.021 36.7536 111.117 36.658C111.22 36.5559 111.22 36.3878 111.117 36.2856C111.014 36.1834 110.845 36.1834 110.742 36.2856C110.645 36.3812 110.639 36.5295 110.718 36.6317L109.938 37.4062Z" fill="#646464"/>
<path d="M107.881 36.6811L108.662 37.4556C108.679 37.4391 108.695 37.4227 108.712 37.4062L107.931 36.6317C108.011 36.5295 108.004 36.3812 107.908 36.2856C107.805 36.1834 107.636 36.1834 107.533 36.2856C107.43 36.3878 107.43 36.5559 107.533 36.658C107.629 36.7536 107.779 36.7602 107.881 36.6811Z" fill="#646464"/>
<path d="M111.552 38.553C111.426 38.5101 111.286 38.5662 111.23 38.6848L110.184 38.3223C110.177 38.3453 110.167 38.3651 110.16 38.3882L111.207 38.7507C111.18 38.8792 111.25 39.0078 111.379 39.0539C111.519 39.1034 111.668 39.0276 111.718 38.8924C111.768 38.754 111.692 38.6057 111.556 38.5563L111.552 38.553Z" fill="#646464"/>
<path d="M110.768 39.443L109.981 38.6619C109.964 38.6783 109.948 38.6948 109.931 38.7113L110.718 39.4924C110.639 39.5946 110.645 39.7429 110.742 39.8385C110.845 39.9406 111.014 39.9406 111.117 39.8385C111.22 39.7363 111.22 39.5682 111.117 39.466C111.021 39.3705 110.871 39.3639 110.768 39.443Z" fill="#646464"/>
<path d="M110.147 39.8745L109.709 38.8594C109.689 38.8693 109.665 38.8792 109.642 38.8857L110.081 39.9008C109.968 39.9668 109.918 40.1085 109.971 40.2304C110.027 40.3655 110.187 40.4249 110.32 40.3688C110.453 40.3128 110.516 40.1546 110.459 40.0228C110.406 39.9008 110.27 39.8382 110.144 39.8745H110.147Z" fill="#646464"/>
<path d="M111.592 37.7982C111.456 37.7982 111.346 37.8971 111.33 38.0256H110.223C110.223 38.0256 110.223 38.0454 110.223 38.0553C110.223 38.0685 110.223 38.0817 110.223 38.0948H111.33C111.346 38.2234 111.456 38.3222 111.592 38.3222C111.738 38.3222 111.858 38.2036 111.858 38.0586C111.858 37.9136 111.738 37.7949 111.592 37.7949V37.7982Z" fill="#646464"/>
<path d="M109.36 40.0526V38.9485C109.36 38.9485 109.336 38.9485 109.323 38.9485C109.31 38.9485 109.3 38.9485 109.287 38.9485V40.0526C109.157 40.069 109.057 40.1778 109.057 40.3129C109.057 40.458 109.177 40.5766 109.323 40.5766C109.469 40.5766 109.589 40.458 109.589 40.3129C109.589 40.1778 109.489 40.069 109.36 40.0526Z" fill="#646464"/>
<path d="M108.719 38.7145C108.702 38.698 108.685 38.6815 108.669 38.665L107.881 39.4461C107.779 39.367 107.629 39.3736 107.533 39.4692C107.43 39.5714 107.43 39.7395 107.533 39.8416C107.636 39.9438 107.805 39.9438 107.908 39.8416C108.004 39.7461 108.011 39.5977 107.931 39.4956L108.719 38.7145Z" fill="#646464"/>
<path d="M108.709 39.957L109.067 38.9122C109.044 38.9056 109.021 38.899 109.001 38.8892L108.642 39.9339C108.513 39.9076 108.383 39.9801 108.34 40.1053C108.293 40.2437 108.366 40.392 108.506 40.4415C108.646 40.4876 108.795 40.4151 108.845 40.2767C108.888 40.1514 108.828 40.013 108.712 39.957H108.709Z" fill="#646464"/>
<path d="M107.569 39.0243L108.549 38.5101C108.536 38.4904 108.526 38.4706 108.516 38.4475L107.536 38.9616C107.46 38.8562 107.317 38.8199 107.197 38.8826C107.068 38.9518 107.018 39.11 107.088 39.2385C107.157 39.367 107.317 39.4165 107.446 39.3473C107.566 39.2846 107.616 39.1462 107.569 39.0243Z" fill="#646464"/>
<path d="M104.653 55.7306C104.105 55.7306 103.576 55.5098 103.191 55.1242C102.806 55.5098 102.274 55.7306 101.729 55.7306C100.593 55.7306 99.6665 54.8111 99.6665 53.6839C99.6665 53.3478 99.7496 53.0182 99.9123 52.7216C99.1018 52.425 98.5637 51.6636 98.5637 50.8001C98.5637 49.673 99.4905 48.7535 100.627 48.7535C100.799 48.7535 100.969 48.7732 101.135 48.8161C101.195 47.745 102.101 46.8848 103.194 46.8848C104.287 46.8848 105.194 47.745 105.254 48.8194C105.42 48.7765 105.593 48.7535 105.762 48.7535C106.898 48.7535 107.825 49.7191 107.825 50.9089C107.825 51.7724 107.32 52.5601 106.559 52.8963C106.666 53.15 106.719 53.4137 106.719 53.6839C106.719 54.8111 105.792 55.7306 104.656 55.7306H104.653ZM103.188 54.9199L103.241 54.9759C103.606 55.3681 104.118 55.5922 104.653 55.5922C105.712 55.5922 106.573 54.7386 106.573 53.6872C106.573 53.4137 106.513 53.1434 106.397 52.8897L106.367 52.8237L106.437 52.7974C107.181 52.5041 107.682 51.746 107.682 50.9122C107.682 49.8015 106.822 48.8985 105.762 48.8985C105.576 48.8985 105.387 48.9281 105.207 48.9842L105.118 49.0138V48.9183C105.108 47.8768 104.244 47.0298 103.198 47.0298C102.151 47.0298 101.291 47.8735 101.278 48.9117V49.0039L101.188 48.9776C101.005 48.9216 100.819 48.8952 100.63 48.8952C99.5702 48.8952 98.7098 49.7488 98.7098 50.8001C98.7098 51.6307 99.2447 52.359 100.042 52.6161L100.125 52.6425L100.078 52.7183C99.9024 53.0116 99.8094 53.3478 99.8094 53.6839C99.8094 54.7353 100.67 55.5889 101.729 55.5889C102.261 55.5889 102.776 55.3648 103.141 54.9726L103.194 54.9166L103.188 54.9199Z" fill="#646464"/>
<path d="M104.653 55.4339C104.158 55.4339 103.696 55.2329 103.357 54.8703C103.271 54.778 103.105 54.778 103.018 54.8703C102.679 55.2329 102.221 55.4339 101.723 55.4339C100.749 55.4339 99.9622 54.6495 99.9622 53.6871C99.9622 53.3773 100.049 53.0708 100.208 52.8006C100.245 52.7412 100.251 52.6687 100.225 52.6028C100.198 52.5369 100.148 52.4875 100.078 52.4677C99.3476 52.2337 98.856 51.5647 98.856 50.8033C98.856 49.8377 99.6466 49.0566 100.617 49.0566C100.789 49.0566 100.962 49.0829 101.128 49.1324C101.198 49.1521 101.274 49.139 101.331 49.0994C101.387 49.0566 101.424 48.9907 101.424 48.9181C101.434 47.9657 102.224 47.1912 103.184 47.1912C104.144 47.1912 104.935 47.969 104.945 48.9214C104.945 48.994 104.982 49.0632 105.041 49.1027C105.101 49.1456 105.178 49.1554 105.247 49.1357C105.413 49.0829 105.583 49.0566 105.756 49.0566C106.729 49.0566 107.516 49.8904 107.516 50.9154C107.516 51.6833 107.058 52.382 106.373 52.6523C106.314 52.6753 106.267 52.7215 106.244 52.7808C106.221 52.8401 106.224 52.906 106.247 52.9621C106.357 53.1961 106.41 53.4399 106.41 53.6937C106.41 54.6594 105.619 55.4405 104.649 55.4405L104.653 55.4339ZM103.188 54.689C103.281 54.689 103.37 54.7286 103.434 54.7978C103.752 55.1406 104.184 55.3284 104.649 55.3284C105.563 55.3284 106.307 54.5902 106.307 53.6871C106.307 53.4498 106.254 53.2191 106.154 53.0016C106.114 52.9192 106.114 52.8236 106.147 52.7379C106.181 52.6523 106.25 52.5863 106.337 52.5534C106.981 52.2996 107.413 51.6405 107.413 50.9154C107.413 49.9497 106.669 49.162 105.759 49.162C105.599 49.162 105.44 49.1884 105.284 49.2345C105.184 49.2675 105.071 49.2477 104.985 49.1884C104.898 49.1258 104.845 49.0269 104.845 48.9214C104.835 48.025 104.095 47.2933 103.191 47.2933C102.287 47.2933 101.547 48.0217 101.537 48.9149C101.537 49.0203 101.484 49.1192 101.401 49.1785C101.314 49.2411 101.205 49.2576 101.105 49.228C100.949 49.1818 100.786 49.1587 100.627 49.1587C99.713 49.1587 98.9689 49.897 98.9689 50.8033C98.9689 51.5185 99.4306 52.148 100.118 52.3688C100.215 52.3985 100.294 52.471 100.331 52.5666C100.367 52.6621 100.357 52.7676 100.308 52.8533C100.158 53.1071 100.075 53.3938 100.075 53.6871C100.075 54.5935 100.819 55.3284 101.733 55.3284C102.198 55.3284 102.63 55.1406 102.949 54.7978C103.012 54.7286 103.101 54.689 103.194 54.689H103.188Z" fill="#646464"/>
<path d="M103.188 52.392C102.653 52.392 102.218 51.9603 102.218 51.4297C102.218 50.899 102.653 50.4673 103.188 50.4673C103.723 50.4673 104.158 50.899 104.158 51.4297C104.158 51.9603 103.723 52.392 103.188 52.392ZM103.188 50.609C102.733 50.609 102.361 50.9781 102.361 51.4297C102.361 51.8812 102.733 52.2503 103.188 52.2503C103.643 52.2503 104.015 51.8812 104.015 51.4297C104.015 50.9781 103.643 50.609 103.188 50.609Z" fill="#646464"/>
<path d="M103.155 49.4457V50.5399C103.155 50.5399 103.178 50.5399 103.191 50.5399C103.204 50.5399 103.214 50.5399 103.228 50.5399V49.4457C103.357 49.4292 103.457 49.3204 103.457 49.1853C103.457 49.0403 103.337 48.9216 103.191 48.9216C103.045 48.9216 102.925 49.0403 102.925 49.1853C102.925 49.3204 103.025 49.4292 103.155 49.4457Z" fill="#646464"/>
<path d="M102.364 49.6235L102.799 50.6287C102.819 50.6189 102.842 50.609 102.866 50.6024L102.43 49.5972C102.543 49.5313 102.593 49.3895 102.54 49.2676C102.483 49.1325 102.324 49.0731 102.191 49.1292C102.055 49.1852 101.995 49.3434 102.052 49.4752C102.105 49.5972 102.241 49.6598 102.367 49.6235H102.364Z" fill="#646464"/>
<path d="M101.185 51.4692H102.291C102.291 51.4692 102.291 51.4429 102.291 51.4297C102.291 51.4198 102.291 51.4099 102.291 51.4H101.185C101.168 51.2715 101.058 51.1726 100.922 51.1726C100.776 51.1726 100.656 51.2913 100.656 51.4363C100.656 51.5813 100.776 51.6999 100.922 51.6999C101.058 51.6999 101.168 51.6011 101.185 51.4725V51.4692Z" fill="#646464"/>
<path d="M100.959 50.9453C101.085 50.9882 101.224 50.9322 101.281 50.8135L102.324 51.1728C102.331 51.1497 102.337 51.1266 102.347 51.1068L101.304 50.7476C101.331 50.6191 101.261 50.4905 101.131 50.4444C100.992 50.3949 100.842 50.4708 100.793 50.6059C100.743 50.741 100.819 50.8926 100.955 50.9421L100.959 50.9453Z" fill="#646464"/>
<path d="M103.806 49.5413L103.45 50.5762C103.473 50.5828 103.493 50.5927 103.517 50.5993L103.872 49.5644C104.002 49.5908 104.131 49.5183 104.174 49.393C104.221 49.2546 104.148 49.1063 104.008 49.0568C103.869 49.0107 103.719 49.0832 103.669 49.2216C103.626 49.3469 103.686 49.4853 103.802 49.5413H103.806Z" fill="#646464"/>
<path d="M104.942 50.4738L103.965 50.9847C103.978 51.0045 103.988 51.0242 103.998 51.0473L104.975 50.5332C105.051 50.6386 105.194 50.6749 105.314 50.6123C105.443 50.543 105.493 50.3848 105.423 50.2563C105.354 50.1278 105.194 50.0783 105.065 50.1476C104.945 50.2102 104.895 50.3486 104.942 50.4705V50.4738Z" fill="#646464"/>
<path d="M103.802 50.7773C103.819 50.7937 103.835 50.8102 103.852 50.8267L104.633 50.0522C104.736 50.1313 104.885 50.1247 104.982 50.0291C105.084 49.927 105.084 49.7589 104.982 49.6567C104.879 49.5545 104.709 49.5545 104.606 49.6567C104.51 49.7523 104.503 49.9006 104.583 50.0028L103.802 50.7773Z" fill="#646464"/>
<path d="M101.746 50.0554L102.527 50.8299C102.543 50.8134 102.56 50.7969 102.576 50.7804L101.796 50.0059C101.876 49.9038 101.869 49.7555 101.773 49.6599C101.67 49.5577 101.5 49.5577 101.397 49.6599C101.294 49.762 101.294 49.9301 101.397 50.0323C101.494 50.1279 101.643 50.1345 101.746 50.0554Z" fill="#646464"/>
<path d="M105.417 51.9275C105.29 51.8846 105.151 51.9407 105.094 52.0593L104.048 51.6968C104.041 51.7198 104.031 51.7396 104.025 51.7627L105.071 52.1252C105.045 52.2538 105.114 52.3823 105.244 52.4284C105.383 52.4779 105.533 52.4021 105.583 52.2669C105.633 52.1285 105.556 51.9802 105.42 51.9308L105.417 51.9275Z" fill="#646464"/>
<path d="M104.629 52.8172L103.842 52.0361C103.826 52.0526 103.809 52.0691 103.792 52.0856L104.58 52.8667C104.5 52.9688 104.507 53.1171 104.603 53.2127C104.706 53.3149 104.875 53.3149 104.978 53.2127C105.081 53.1106 105.081 52.9425 104.978 52.8403C104.882 52.7447 104.732 52.7381 104.629 52.8172Z" fill="#646464"/>
<path d="M104.012 53.249L103.573 52.2339C103.553 52.2438 103.53 52.2537 103.507 52.2603L103.945 53.2754C103.832 53.3413 103.782 53.483 103.835 53.6049C103.892 53.7401 104.051 53.7994 104.184 53.7434C104.317 53.6873 104.38 53.5291 104.324 53.3973C104.271 53.2754 104.134 53.2127 104.008 53.249H104.012Z" fill="#646464"/>
<path d="M105.457 51.1727C105.32 51.1727 105.211 51.2716 105.194 51.4001H104.088C104.088 51.4001 104.088 51.4199 104.088 51.4298C104.088 51.443 104.088 51.4562 104.088 51.4693H105.194C105.211 51.5979 105.32 51.6968 105.457 51.6968C105.603 51.6968 105.722 51.5781 105.722 51.4331C105.722 51.2881 105.603 51.1694 105.457 51.1694V51.1727Z" fill="#646464"/>
<path d="M103.224 53.4237V52.3196C103.224 52.3196 103.201 52.3196 103.188 52.3196C103.174 52.3196 103.164 52.3196 103.151 52.3196V53.4237C103.022 53.4401 102.922 53.5489 102.922 53.684C102.922 53.829 103.042 53.9477 103.188 53.9477C103.334 53.9477 103.453 53.829 103.453 53.684C103.453 53.5489 103.354 53.4401 103.224 53.4237Z" fill="#646464"/>
<path d="M102.583 52.0856C102.566 52.0691 102.55 52.0526 102.533 52.0361L101.746 52.8172C101.643 52.7381 101.494 52.7447 101.397 52.8403C101.294 52.9425 101.294 53.1106 101.397 53.2127C101.5 53.3149 101.67 53.3149 101.773 53.2127C101.869 53.1171 101.876 52.9688 101.796 52.8667L102.583 52.0856Z" fill="#646464"/>
<path d="M102.573 53.3281L102.932 52.2833C102.909 52.2767 102.885 52.2701 102.865 52.2603L102.507 53.305C102.377 53.2786 102.248 53.3512 102.204 53.4764C102.158 53.6148 102.231 53.7631 102.371 53.8126C102.51 53.8587 102.66 53.7862 102.709 53.6478C102.753 53.5225 102.693 53.3841 102.576 53.3281H102.573Z" fill="#646464"/>
<path d="M101.434 52.3954L102.414 51.8812C102.4 51.8614 102.39 51.8417 102.38 51.8186L101.401 52.3327C101.324 52.2273 101.181 52.191 101.062 52.2536C100.932 52.3229 100.882 52.4811 100.952 52.6096C101.022 52.7381 101.181 52.7876 101.311 52.7183C101.43 52.6557 101.48 52.5173 101.434 52.3954Z" fill="#646464"/>
<path d="M59 74.4177C43.4071 74.4177 28.7177 70.6704 17.6425 63.8647C6.26508 56.8743 0 47.4814 0 37.4161C0 27.3508 6.26507 17.9611 17.6392 10.9708C28.7177 4.16502 43.4071 0.417725 59 0.417725C74.5929 0.417725 89.2823 4.16502 100.357 10.9708C111.735 17.9611 117.997 27.3508 117.997 37.4161C117.997 47.4814 111.732 56.8743 100.357 63.8614C89.279 70.6671 74.5929 74.4144 59 74.4144V74.4177ZM59 1.07688C43.53 1.07688 28.9635 4.79122 17.9913 11.5311C6.81651 18.3962 0.664377 27.5881 0.664377 37.4161C0.664377 47.2441 6.81651 56.436 17.9913 63.3011C28.9668 70.0442 43.53 73.7553 59 73.7553C74.47 73.7553 89.0365 70.0409 100.009 63.3011C111.18 56.436 117.336 47.2441 117.336 37.4161C117.336 27.5881 111.183 18.3962 100.009 11.5311C89.0332 4.79122 74.47 1.07688 59 1.07688Z" fill="#646464"/>
<path d="M59 72.6051C27.4753 72.6051 1.82703 56.8217 1.82703 37.4194C1.82703 18.0172 27.4753 2.23047 59 2.23047C90.5247 2.23047 116.173 18.0139 116.173 37.4194C116.173 56.825 90.5247 72.6051 59 72.6051ZM59 2.56005C27.658 2.56005 2.15921 18.1985 2.15921 37.4161C2.15921 56.6338 27.658 72.2722 59 72.2722C90.342 72.2722 115.841 56.6338 115.841 37.4161C115.841 18.1985 90.342 2.56005 59 2.56005Z" fill="#646464"/>
<path d="M44.5498 36.0087C43.0749 35.7681 42.0185 34.7695 41.2877 33.4083C40.2114 34.2355 38.9989 34.9244 37.5938 35.3891L37.1586 34.5289C38.5106 33.7708 39.6567 32.9106 40.61 31.8791C39.9855 30.0565 39.7098 27.8681 39.6035 25.9269H36.8463V28.2504C37.6104 27.9934 38.3545 27.7165 39.0488 27.443L39.4308 28.2504C38.6867 28.8173 37.7997 29.3677 36.8463 29.8687V33.9983C36.8463 36.2163 34.6772 36.6316 31.6941 35.0826L31.9034 34.2224C34.541 34.6014 34.7469 34.4465 34.7469 33.4479V30.8673C33.7404 31.2792 32.7339 31.6418 31.7639 31.9153L31.053 29.8159C32.2854 29.5588 33.5344 29.2457 34.7469 28.903V25.9269H31.3287V24.8096H34.7469V23.0728C33.7404 23.2441 32.7006 23.3496 31.7273 23.4155L31.5878 22.4861C34.139 21.9357 36.2883 21.1612 37.9891 20.1626L39.3942 21.8303C38.7 22.1401 37.8163 22.4169 36.843 22.6575V24.8096H39.5504C39.5138 23.5177 39.4972 22.2455 39.5138 20.2318H41.6132C41.5966 22.262 41.6133 23.5375 41.6465 24.8096H46.3635V25.9269H41.6996C41.786 27.2518 41.9421 28.5932 42.2012 29.7994C42.7925 28.8536 43.2941 27.8055 43.7293 26.6157L45.6892 27.443C44.9783 29.0777 44.0582 30.6267 42.8623 31.9351C43.2443 32.8283 43.7625 33.5006 44.4236 33.7939C45.0149 34.051 45.1345 33.7247 45.1178 30.9563H46.0181C46.9017 34.2092 46.7655 36.3943 44.5432 36.0153L44.5498 36.0087ZM44.1512 24.4076C43.5798 23.2903 42.7626 21.9489 42.1049 20.947L42.8158 20.3472C43.9419 21.0689 45.1577 22.206 45.9018 23.1848L44.1512 24.4076Z" fill="#646464"/>
<path d="M58.7708 23.7715C58.4752 24.4075 58.1297 25.0436 57.7643 25.6303H65.501V33.9422C65.501 36.0087 63.6108 36.6447 60.4716 35.1979L60.6809 34.3047C62.8501 34.5816 63.2321 34.4597 63.2321 33.5138V32.1559H57.8041V36.0614H55.5486V28.4548C54.562 29.4698 53.4658 30.2773 52.3396 30.864L51.8181 30.0895C53.8478 28.3691 55.3393 26.3389 56.3791 23.7748H52.3563V22.552H56.8308C57.1066 21.7083 57.3524 20.7954 57.5583 19.833L59.97 20.2977C59.7973 21.0722 59.5714 21.827 59.2924 22.552H67.1652V23.7748H58.7708V23.7715ZM57.7975 28.3493H63.2255V26.7673H57.7975V28.3493ZM57.7975 31.0848H63.2255V29.4138H57.7975V31.0848Z" fill="#646464"/>
<path d="M74.9118 32.4459C74.9483 33.7544 74.8088 35.1979 74.5298 36.1965L72.6729 35.544C73.2808 34.6673 73.7325 33.6159 74.0946 32.3273L74.9085 32.4492L74.9118 32.4459ZM76.0213 30.1719V29.0348H73.3173V28.0032H76.0213V26.9881H73.3671V20.9832H80.7915V26.9881H78.1041V28.0032H80.7218V29.0348H78.1041V30.0499C78.9878 29.9807 79.8548 29.9115 80.7052 29.8258L80.8613 30.6333C78.6057 31.3386 75.5729 31.8725 73.3173 32.0801L72.9353 30.2378C73.975 30.2378 74.9982 30.2015 76.0213 30.1686V30.1719ZM76.3701 25.9566V25.337L75.3636 25.5248C75.2772 24.5789 75.1543 23.5803 75.0181 22.6344L75.6758 22.4993C75.9881 23.2376 76.2306 24.134 76.3701 24.9942V22.0181H74.965V25.9599H76.3701V25.9566ZM76.4033 32.2054C76.7853 33.2699 77.0976 34.5289 77.2703 35.6461L75.6061 35.801C75.6393 34.6838 75.6393 33.4281 75.5895 32.3075L76.4033 32.2054ZM78.051 31.7901C78.6223 32.7887 79.0741 33.8565 79.3532 34.8354L77.8284 35.2474C77.6889 34.1466 77.5494 33.2336 77.2903 31.9944L78.0543 31.7868L78.051 31.7901ZM77.7753 25.9566H79.197V23.6001C79.0243 24.3416 78.7619 25.1491 78.5194 25.6468L77.8616 25.4919C78.051 24.6152 78.2071 23.2903 78.2968 22.4466L79.197 22.6542V22.0181H77.7753V25.9599V25.9566ZM85.2495 25.0799V28.3823H87.6247V36.0054H85.6481V34.7826H83.0471V36.0054H81.0872V33.9225L79.8714 34.4728C79.6123 33.5599 79.2469 32.5119 78.9014 31.6319L79.5591 31.3056C80.1139 31.8725 80.7052 32.7689 81.0872 33.5434V28.3823H83.1501V20.2087H85.2495V24.0121H88.1096V25.0799H85.2495ZM83.0471 29.4171V33.7346H85.6481V29.4171H83.0471Z" fill="#646464"/>
<path d="M57.4686 53.8288L56.2362 56.3402C53.5122 55.48 51.3264 53.2422 50.3033 50.3353C49.2635 53.2257 46.9216 55.4965 42.1879 56.4259L41.8923 55.4965C45.7955 54.1551 47.5827 51.9865 48.2736 49.1818H42.4105V48.0645H48.4995C48.6025 47.29 48.6556 46.4628 48.6556 45.6059V44.8314H46.0546C45.4135 46.0376 44.5797 47.0857 43.6429 47.8602L42.8988 47.2241C44.0083 45.5037 44.7026 43.0418 44.9982 40.5996L47.4099 41.117C47.2372 41.9937 46.9581 42.8902 46.5961 43.7339H48.659V40.2239H51.0009V43.7339H55.4422V44.8347H51.0009V45.7641C51.0009 46.5551 50.9477 47.3131 50.8448 48.0711H56.8441V49.1884H50.981C52.2466 51.6305 54.6217 53.1301 57.4686 53.8354V53.8288Z" fill="#646464"/>
<path d="M63.9829 43.3318H62.6641V42.3002H66.3746C65.8032 41.6806 65.1953 41.1137 64.624 40.5963L65.0924 39.9075C66.1155 40.27 67.2084 40.8369 68.3179 41.5784L67.6602 42.3002H70.4871V43.3318H66.0457V45.741C66.0457 46.3771 66.1853 46.5485 66.6005 46.6012C67.1719 46.6539 67.7465 46.6704 68.3345 46.5847C68.8727 46.532 69.2181 46.4463 69.5835 46.1727L70.434 47.3955C69.9323 47.8239 69.4274 48.137 68.4043 48.2029C67.71 48.2557 66.5673 48.2721 65.7866 48.2029C64.3649 48.1008 63.9829 47.7217 63.9829 46.1035V43.3318ZM71.477 54.5506H77.8418V55.6151H62.8567V54.5506H69.2049V52.8994H63.8799V51.8514H69.2049V50.5429C67.4874 50.6286 65.77 50.6649 64.315 50.6121L64.1755 49.7355C68.4774 49.5476 72.344 48.9082 74.9285 47.8239L76.6791 49.5443C75.3968 49.9233 73.5233 50.2166 71.477 50.388V51.8514H76.8352V52.8994H71.477V54.5506ZM72.7593 39.9932L74.6328 40.56C74.4401 40.939 74.2176 41.3345 73.9552 41.7136H75.7257L76.2805 41.351L78.1175 42.2639C76.7489 45.619 74.284 47.9426 70.0885 48.9247L69.7928 48.1667C70.713 47.8404 71.5102 47.4284 72.2045 46.9637C71.7527 46.12 71.3209 45.3982 70.9023 44.7786C70.4506 45.0884 69.9822 45.3653 69.5337 45.5861L69.0819 44.8808C70.816 43.6086 71.9952 41.6279 72.7593 39.9932ZM74.0781 45.3949C73.4702 44.7753 72.829 44.2085 72.2211 43.691C72.0318 43.8789 71.8225 44.0536 71.6132 44.2249C72.1514 44.6896 72.8091 45.362 73.417 46.0475C73.6595 45.8399 73.8854 45.619 74.0747 45.3949H74.0781ZM73.1413 42.7451C73.0715 42.8308 72.9852 42.9165 72.8988 43.0022C73.5399 43.312 74.2873 43.7075 75.0314 44.1887C75.3603 43.7075 75.6028 43.2065 75.7955 42.7418H73.1413V42.7451Z" fill="#646464"/>
</g>
<defs>
<clipPath id="clip0_211_715">
<rect width="118" height="74" fill="white" transform="translate(0 0.417725)"/>
</clipPath>
</defs>
</svg>
