<svg width="96" height="60" viewBox="0 0 96 60" fill="none"
    xmlns="http://www.w3.org/2000/svg">
    <g clip-path="url(#clip0_159_1298)">
        <path d="M47.9999 58.5302C22.3527 58.5302 1.48633 45.7329 1.48633 29.9987C1.48633 14.2645 22.3527 1.46973 47.9999 1.46973C73.6471 1.46973 94.5135 14.2671 94.5135 29.9987C94.5135 45.7302 73.6471 58.5302 47.9999 58.5302ZM47.9999 1.73695C22.5014 1.73695 1.75658 14.4168 1.75658 29.9987C1.75658 45.5805 22.5014 58.263 47.9999 58.263C73.4985 58.263 94.2433 45.5832 94.2433 29.9987C94.2433 14.4141 73.4985 1.73695 47.9999 1.73695Z" fill="#0019A9"/>
        <path d="M48 50.8769C28.1038 50.8769 11.9155 41.5107 11.9155 29.9987C11.9155 18.4866 28.1011 9.12305 48 9.12305C67.8989 9.12305 84.0844 18.4893 84.0844 30.0013C84.0844 41.5134 67.8962 50.8796 48 50.8796V50.8769ZM48 9.39027C28.2524 9.39027 12.1858 18.6363 12.1858 30.0013C12.1858 41.3664 28.2524 50.6124 48 50.6124C67.7475 50.6124 83.8142 41.3664 83.8142 30.0013C83.8142 18.6363 67.7475 9.39027 48 9.39027Z" fill="#0019A9"/>
        <path d="M26.2581 11.6857L26.2013 12.2175C25.1797 12.2122 23.9177 11.7873 23.1799 10.6997L23.1177 10.721C23.2042 12.0117 22.6177 13.0058 21.3286 13.8289L21.2043 13.6819C22.2907 12.8562 22.7366 11.9449 22.6934 10.8573L20.5476 11.5468L20.4746 11.3223L21.2746 11.0658L20.6989 9.31277L22.2096 8.82642L21.8853 7.84036L22.288 7.7121L22.6123 8.69816L24.1014 8.21982L24.6771 9.97282L25.4824 9.71361L25.5554 9.93808L23.3744 10.6382C24.0204 11.3651 25.0879 11.7338 26.2608 11.6857H26.2581ZM22.6745 10.6168C22.6366 10.2507 22.5475 9.86593 22.4096 9.45173L22.2772 9.04822L21.1394 9.41432L21.6448 10.9482L22.6745 10.6168ZM22.6799 8.91728L22.8556 9.44906C22.9745 9.81248 23.0555 10.1519 23.0934 10.4805L24.2933 10.0957L23.7879 8.56187L22.6772 8.91995L22.6799 8.91728Z" fill="#0019A9"/>
        <path d="M47.5214 5.73463C47.6295 5.45405 47.7295 5.07459 47.7836 4.74857L47.2052 4.76995L47.3025 7.42349C47.3187 7.86442 47.0674 8.1744 46.0026 7.74684L46.0485 7.5678C46.8215 7.68805 46.9107 7.66132 46.8971 7.34867L46.8026 4.78331L45.7918 4.82072L45.7837 4.59626L47.2242 4.54548C46.9998 4.29429 46.6539 3.95492 46.3756 3.69304L46.4837 3.54873C46.6539 3.64226 46.8674 3.77053 47.062 3.91216C47.2431 3.63959 47.4322 3.2922 47.5241 3.03032L45.9107 3.08911L45.9026 2.87266L47.516 2.81387L47.643 2.72034L48.0565 2.94748C47.8322 3.34297 47.5025 3.76251 47.2269 4.03241C47.362 4.12861 47.4836 4.23016 47.5701 4.31567L47.3593 4.54816L47.7511 4.53479L47.8674 4.43592L48.2619 4.61496C48.1052 5.05054 47.8322 5.58499 47.6674 5.8148L47.516 5.74265L47.5214 5.73463ZM49.17 6.79017L49.5483 7.03067C49.0916 7.43686 48.3862 7.83235 47.7457 8.03811L47.6674 7.86976C48.1836 7.64529 48.7646 7.24178 49.17 6.79017ZM49.324 3.04902L48.1646 3.09178L48.1565 2.86197L50.9996 2.76042L51.0077 2.99023L49.7645 3.03566C49.6537 3.29754 49.5267 3.5621 49.4267 3.74381L50.6591 3.69838L50.7672 6.60579L48.5052 6.68863L48.3971 3.78122L49.2186 3.75182C49.2646 3.53804 49.297 3.26548 49.324 3.0517V3.04902ZM50.2807 3.9469L48.7862 4.00034L48.8105 4.63099L50.3051 4.57755L50.2807 3.9469ZM50.3105 4.80469L48.816 4.85814L48.8403 5.52353L50.3348 5.47008L50.3105 4.80469ZM50.3456 5.69989L48.8511 5.75334L48.8754 6.44278L50.3699 6.38933L50.3456 5.69989ZM51.3266 7.47159L51.0834 7.8564C50.7645 7.60254 50.1888 7.20971 49.7267 6.93982L49.8051 6.77147C50.3051 6.92378 50.8807 7.19368 51.3266 7.47159Z" fill="#0019A9"/>
        <path d="M51.0727 55.1338C50.8214 55.0831 50.5025 54.9949 50.17 54.8719L50.2376 56.7318L49.8511 56.7452L49.8403 56.4673L47.3053 56.5581L47.3162 56.8467L46.9351 56.8601L46.8648 54.9895C46.5486 55.1365 46.2243 55.2648 45.9081 55.3663L45.8433 55.198C46.6189 54.904 47.554 54.3829 48.0026 53.8191L45.9622 53.8939L45.9541 53.6641L47.4783 53.608C47.2918 53.4022 47.0864 53.1911 46.927 53.0441L46.9945 52.9533C46.8864 52.964 46.781 52.972 46.6783 52.9773L46.6486 52.8009C47.9594 52.6593 49.0404 52.3894 49.5809 52.189L49.9511 52.499C49.5971 52.5952 49.1296 52.6941 48.6215 52.7716L48.6512 53.5652L49.1106 53.5492C49.2809 53.314 49.4836 52.9693 49.6268 52.67L49.9782 52.8571C49.7674 53.1243 49.562 53.3675 49.3593 53.5385L50.9592 53.4797L50.9673 53.7095L48.7485 53.7897C49.4431 54.3375 50.4241 54.602 51.2321 54.7143L51.0754 55.1311L51.0727 55.1338ZM46.4378 53.1644L46.046 53.1777L46.0054 52.0768L48.5296 51.9859C48.2188 51.8256 47.8323 51.6572 47.5107 51.5343L47.5594 51.3633C47.8945 51.4087 48.4161 51.5076 48.8026 51.6652L48.6593 51.9832L50.8187 51.9057L50.8592 53.0014L50.4673 53.0147L50.4349 52.1543L46.4054 52.2986L46.4378 53.1644ZM49.9647 54.7918C49.4809 54.5914 48.9863 54.3081 48.6647 53.9554L48.6917 54.6742L48.2999 54.6876L48.2756 54.0275C47.9945 54.3509 47.554 54.6421 47.0621 54.896L49.9674 54.7918H49.9647ZM47.8134 53.4556L47.6702 53.6026L48.2593 53.5812L48.2323 52.8277C47.8648 52.8758 47.4783 52.9185 47.1054 52.9506C47.3594 53.0815 47.6188 53.2686 47.8161 53.4556H47.8134ZM48.3242 55.0804L47.254 55.1178L47.2702 55.5934L48.3404 55.556L48.3215 55.0804H48.3242ZM48.3512 55.7858L47.281 55.8233L47.2999 56.3283L48.3701 56.2909L48.3512 55.7858ZM49.789 55.0269L48.7053 55.067L48.7242 55.5427L49.8079 55.5026L49.7917 55.0269H49.789ZM49.816 55.7324L48.7323 55.7725L48.7512 56.2775L49.8349 56.2375L49.816 55.7324Z" fill="#0019A9"/>
        <path d="M24.2798 50.0192L23.7798 52.002C23.6528 52.5044 23.1961 52.4883 22.4556 51.9913L22.5258 51.839C23.2771 52.1169 23.3582 52.1169 23.4393 51.7989L23.8555 50.1528C23.5771 50.2303 23.3042 50.2944 23.042 50.3398L22.9609 49.9123C23.2474 49.8936 23.596 49.8562 23.9474 49.7974L24.2798 48.4826L23.4717 48.2822L23.5285 48.0604L24.3365 48.2608L24.623 47.1251L24.9933 47.216L24.7068 48.3517L25.3311 48.5067L25.2743 48.7285L24.65 48.5735L24.3582 49.7225C24.5582 49.6825 24.7554 49.6317 24.9338 49.5809L24.9797 49.7439C24.7635 49.8481 24.5257 49.9417 24.2825 50.0218L24.2798 50.0192ZM27.7418 53.0789L27.4715 53.4477C27.1958 53.3194 26.231 52.7475 26.1256 51.6332H26.1202C25.5608 52.483 24.6798 52.67 23.7528 52.5765L23.7393 52.4108C24.6284 52.4429 25.2905 52.1997 25.7338 51.537L24.296 51.1816L24.3528 50.9545L25.8608 51.3259C25.9527 51.1549 26.0391 50.9571 26.1094 50.7327L26.4851 50.8502C26.4175 51.064 26.3391 51.2564 26.2472 51.4221L27.9282 51.8363L27.8715 52.0661L26.3121 51.6813C26.531 52.3921 27.2202 52.8464 27.7445 53.0789H27.7418ZM26.5959 47.5634L26.9526 47.7985C26.831 47.9375 26.7202 48.0631 26.6067 48.1753L27.3283 48.3544L27.4688 48.3089L27.7931 48.6029C27.5904 48.8247 27.2337 49.0946 26.9715 49.2496L28.1336 49.5382L27.6391 51.4916L27.2742 51.4007L27.712 49.6691L25.7365 49.1801L25.2932 50.9277L24.9284 50.8369L25.3878 49.0197C25.2608 49.0785 25.1311 49.132 24.9987 49.1774L24.9284 49.0197C25.55 48.7231 26.1554 48.2181 26.5932 47.5607L26.5959 47.5634ZM26.8932 49.5916C26.8148 49.7065 26.7391 49.8081 26.6553 49.9016C26.9364 50.1768 27.1688 50.4895 27.3012 50.722L26.9823 50.917C26.8688 50.6391 26.7094 50.3265 26.531 50.0352C26.2337 50.3318 25.8959 50.5349 25.5203 50.6605L25.4446 50.4948C25.9121 50.2517 26.2851 49.9149 26.5824 49.3939L26.8932 49.5916ZM25.6148 48.9129L26.731 49.1881C26.9364 49.0091 27.1418 48.7739 27.2796 48.5762L26.4067 48.3597C26.1391 48.5922 25.8797 48.7686 25.6176 48.9102L25.6148 48.9129Z" fill="#0019A9"/>
        <path d="M72.2286 48.7311C72.1745 48.9289 72.1097 49.1293 72.034 49.319L74.6285 48.4853L75.5257 51.219L75.1419 51.3419L75.0176 50.9678L72.7178 51.708L72.8475 52.1062L72.461 52.2291L71.7259 49.9951C71.48 50.4654 71.1719 50.8983 70.8287 51.2618L70.6827 51.1415C71.2233 50.4601 71.6178 49.6771 71.8124 48.8647L70.3233 49.3431L70.2503 49.1186L71.8746 48.5948C71.9016 48.4318 71.9313 48.2688 71.9448 48.1032L70.4098 48.5975L70.3368 48.3784L71.961 47.8546C71.9746 47.6836 71.9719 47.5099 71.961 47.3416C71.3692 47.5954 70.7503 47.8306 70.199 48.0016L70.1206 47.8413C71.6151 47.2614 72.8042 46.6147 73.5745 46.0616L74.0501 46.2727C73.6799 46.5212 73.0664 46.8419 72.3853 47.1492C72.3962 47.3389 72.4043 47.5286 72.3907 47.7184L74.5096 47.0369L74.5825 47.256L72.3745 47.9669C72.3556 48.1352 72.3259 48.2982 72.2881 48.4639L75.0636 47.5714L75.1365 47.7958L72.2259 48.7311H72.2286ZM74.315 48.8327L72.0151 49.5729L72.1745 50.0539L74.4744 49.3137L74.315 48.8327ZM74.5447 49.5275L72.2448 50.2677L72.4097 50.7674L74.7095 50.0272L74.5447 49.5275ZM74.7771 50.2329L72.4772 50.9731L72.6475 51.4889L74.9474 50.7487L74.7771 50.2329Z" fill="#0019A9"/>
        <path d="M74.9822 12.5248C74.766 12.3885 74.5011 12.1881 74.239 11.953L73.6147 13.7086L73.2498 13.583L73.3417 13.3212L70.95 12.4874L70.8527 12.76L70.4932 12.6344L71.1229 10.868C70.7743 10.8894 70.4257 10.8948 70.0933 10.8707V10.689C70.9256 10.697 71.9878 10.55 72.6147 10.1866L70.6878 9.51588L70.7662 9.29942L72.204 9.79913C72.1067 9.53993 71.9932 9.27003 71.9013 9.07495L71.9986 9.01617C71.8959 8.98677 71.7932 8.95738 71.6959 8.92264L71.7337 8.74894C73.0066 9.09099 74.112 9.23262 74.6903 9.24064L74.9173 9.66285C74.5525 9.62277 74.0822 9.54794 73.5796 9.43304L73.312 10.1839L73.7444 10.3336C73.9903 10.1759 74.3038 9.93008 74.5498 9.70293L74.8092 10.0049C74.5146 10.1759 74.2336 10.3282 73.9822 10.4164L75.493 10.9429L75.4146 11.1593L73.3201 10.4298C73.7633 11.1887 74.5768 11.79 75.2903 12.1881L74.9876 12.5195L74.9822 12.5248ZM72.2067 12.1454L71.1959 11.7926L71.0256 12.271L72.0364 12.6237L72.2067 12.1454ZM71.3959 9.01082L71.0256 8.88255L71.3959 7.84305L73.7768 8.67145C73.5471 8.41224 73.2498 8.11295 72.9985 7.88313L73.1066 7.73883C73.4012 7.90451 73.8498 8.1851 74.1525 8.47103L73.9012 8.7142L75.9389 9.42235L75.5713 10.4565L75.2011 10.3282L75.4903 9.51588L71.6878 8.19311L71.3959 9.01082ZM72.4445 11.4773L71.4337 11.1246L71.2743 11.5735L72.285 11.9262L72.4445 11.4773ZM74.0768 11.8033C73.7012 11.4426 73.3471 10.999 73.1769 10.5527L72.9364 11.2315L72.5661 11.1032L72.7877 10.4806C72.4066 10.6783 71.8878 10.7905 71.3364 10.8493L74.0768 11.8033ZM72.5688 9.78043L72.3796 9.86594L72.9364 10.0583L73.1904 9.34752C72.831 9.25934 72.4553 9.16047 72.0959 9.05358C72.285 9.27003 72.4553 9.53458 72.5688 9.78043ZM73.5877 12.6264L72.5661 12.271L72.3958 12.7493L73.4174 13.1047L73.5877 12.6264ZM73.8255 11.9583L72.8039 11.6029L72.6445 12.0518L73.666 12.4072L73.8255 11.9583Z" fill="#0019A9"/>
        <path d="M33.0359 7.48763C33.2089 7.14024 33.3845 6.68596 33.5332 6.17022C33.2197 6.32788 32.8548 6.48554 32.5792 6.59243L32.4116 6.24237L32.7143 6.1809C32.8332 5.69456 32.9332 5.03985 32.9656 4.37179L33.3872 4.41455C33.2737 4.99443 33.0819 5.69456 32.9089 6.13013C33.1413 6.07134 33.3764 6.00721 33.5926 5.9404C33.6575 5.69188 33.7143 5.43 33.7575 5.16278L34.1629 5.25096C33.9764 5.98316 33.6143 6.85431 33.2656 7.41014C33.5494 7.31661 33.844 7.21239 34.1196 7.10283C34.0169 6.95586 33.9142 6.81423 33.8251 6.69398L33.9602 6.58441C34.225 6.80888 34.552 7.1349 34.7574 7.42884L34.4602 7.64262C34.3872 7.52505 34.3061 7.39143 34.2196 7.25782C33.7737 7.53841 33.1873 7.83503 32.8521 7.96864L32.6603 7.58651C32.7765 7.55711 32.9035 7.52772 33.0359 7.48763ZM33.2332 8.1263H33.4035C33.517 8.74894 33.5251 9.35286 33.4521 9.76973L33.0251 9.66819C33.1629 9.26735 33.2548 8.72756 33.2359 8.1263H33.2332ZM33.8088 7.94726C34.025 8.32405 34.2845 8.90927 34.4115 9.23796L34.0277 9.38493C33.9413 9.02418 33.7791 8.42559 33.6494 8.00071L33.8088 7.94459V7.94726ZM34.8682 8.52981L34.5574 8.73023C34.4061 8.39887 34.2304 8.08087 34.0683 7.78693L34.2142 7.69073C34.452 7.93924 34.6683 8.22517 34.8709 8.52714L34.8682 8.52981ZM35.9628 6.99861L34.825 7.22308L34.3358 4.8047L35.3574 4.60161C35.3844 4.37446 35.3925 4.1206 35.3898 3.85605L35.8114 3.86941C35.7439 4.10457 35.6574 4.3611 35.5682 4.55885L37.1384 4.24887L37.6275 6.66725L36.0087 6.98792C36.3303 7.11085 36.7249 7.31394 37.0357 7.53573L36.806 7.86977C36.5114 7.59185 36.1574 7.33264 35.879 7.1349L35.9601 6.99861H35.9628ZM35.1439 6.92646L35.4304 6.87034L35.3493 6.77147C35.5925 6.56571 35.8222 6.31719 36.0033 6.01255C35.8358 5.93773 35.6682 5.86291 35.5033 5.79343C35.4196 5.95376 35.3277 6.09807 35.2385 6.22366L35.0926 6.13815C35.1682 5.99652 35.2304 5.85756 35.279 5.71059C35.1871 5.67585 35.0953 5.63844 35.0034 5.60904L35.0439 5.45138L35.3439 5.51819C35.4087 5.29639 35.4574 5.0639 35.4871 4.81271L34.7466 4.95969L35.1466 6.92913L35.1439 6.92646ZM35.0439 7.74951L35.225 7.74417C35.3196 8.24121 35.3223 8.69816 35.2169 9.13908L34.8088 9.01082C34.9953 8.5886 35.0628 8.2519 35.0439 7.74951ZM37.3005 7.79494C37.6248 8.52447 37.6032 8.8104 37.1762 8.9253C36.887 9.00013 36.5952 9.05892 36.3465 9.09098C35.8574 9.15779 35.7168 9.04823 35.6304 8.61532L35.3817 7.39143L35.7601 7.31661L36.0006 8.50042C36.0466 8.73023 36.1384 8.7623 36.3628 8.73557C36.5573 8.70885 36.8033 8.6661 37.0222 8.59929C37.2465 8.53248 37.2708 8.48438 37.1249 7.84037L37.2978 7.80029L37.3005 7.79494ZM36.8141 4.54816L35.5952 4.79134L35.8439 4.82073C35.8168 4.93296 35.7979 5.03985 35.7628 5.14407L36.2411 5.04787L36.3465 4.93564L36.6898 5.03718C36.6276 5.36052 36.5357 5.63309 36.4195 5.86023C36.6303 5.94575 36.8303 6.03126 37.0276 6.13013L36.8465 6.44279C36.6654 6.33322 36.4709 6.23435 36.2682 6.13013C36.0547 6.45347 35.8033 6.67794 35.5574 6.84629L37.2168 6.51761L36.8168 4.54816H36.8141ZM35.6033 5.58499C35.7763 5.63309 35.952 5.68921 36.1276 5.75067C36.1979 5.59301 36.2492 5.41931 36.2871 5.22691L35.6979 5.34449C35.6655 5.43 35.6331 5.5075 35.6006 5.58499H35.6033ZM38.2626 8.15837L37.9573 8.39353C37.7383 8.02743 37.5167 7.6934 37.2411 7.35135L37.3627 7.23644C37.6951 7.501 38.014 7.81098 38.2599 8.15837H38.2626Z" fill="#0019A9"/>
        <path d="M13.3045 16.9714L11.9857 17.8827L12.2478 18.2541L11.9073 18.4893L10.4209 16.3835L12.0803 15.2372L11.4181 14.3019L11.7695 14.0587L12.4316 14.994L14.0964 13.8449L15.5639 15.9212L15.226 16.1537L14.9828 15.8117L13.6559 16.7283L14.9585 18.5721L14.6071 18.8153L13.3045 16.9714ZM13.1613 16.7683L12.2262 15.4456L10.9074 16.3568L11.8424 17.6796L13.1613 16.7683ZM14.8396 15.6086L13.9045 14.2858L12.5775 15.2024L13.5126 16.5252L14.8396 15.6086Z" fill="#0019A9"/>
        <path d="M63.4666 9.04289L61.9937 8.67946L61.7208 9.75371L61.3397 9.66018L61.61 8.58593L60.2641 8.2519C59.8317 8.92264 59.0993 9.06961 58.1777 8.93065L58.1885 8.7436C59.0209 8.80506 59.5425 8.67946 59.8776 8.15303L58.4399 7.79762L58.4966 7.57582L59.9938 7.94459C60.056 7.82167 60.1101 7.67737 60.156 7.51703L59.3939 7.3273L59.8993 5.32846L63.3315 6.17824L62.8261 8.17708L62.1613 8.0114L62.0505 8.45232L63.5234 8.81575L63.4666 9.03754V9.04289ZM59.0507 5.40863L58.9669 5.25364C59.4723 4.93564 60.0209 4.3424 60.3614 3.74649L60.7289 3.97096C60.6317 4.11526 60.5208 4.25956 60.3938 4.39852L61.9235 4.77798L61.8667 4.99977L60.8668 4.75393C60.9722 4.94366 61.056 5.14675 61.1343 5.39794L60.7479 5.47276C60.7181 5.17347 60.683 4.95167 60.6371 4.69781L60.21 4.59092C59.8506 4.94633 59.429 5.25364 59.0507 5.40863ZM59.8263 7.20171L62.5072 7.86443L62.6045 7.47695L59.9236 6.81423L59.8263 7.20171ZM59.9749 6.60847L62.6559 7.27119L62.7532 6.88371L60.0722 6.22099L59.9749 6.60847ZM60.1263 6.01256L62.8072 6.67527L62.9018 6.30383L60.2209 5.64111L60.1263 6.01256ZM61.6694 8.36146L61.7802 7.92054L60.5452 7.61591C60.4992 7.77357 60.4452 7.91787 60.383 8.04347L61.6721 8.36146H61.6694ZM61.3721 5.5075C61.7775 5.26166 62.2424 4.83677 62.5802 4.2943L62.9315 4.52679C62.8207 4.67376 62.6937 4.80737 62.5721 4.9303L64.3747 5.37656L64.3179 5.59836L63.0937 5.29639C63.2018 5.49949 63.2991 5.72395 63.372 5.97247L62.9883 6.03394C62.9585 5.73464 62.9261 5.50216 62.8748 5.24028L62.3613 5.11201C62.0424 5.37389 61.7154 5.55293 61.4532 5.66517L61.3721 5.50483V5.5075Z" fill="#0019A9"/>
        <path d="M59.6264 52.2772L59.2399 52.3547L59.021 51.2751L61.4965 50.7834C61.1641 50.6739 60.756 50.5696 60.4182 50.4975L60.4371 50.3185C60.775 50.3104 61.3074 50.3265 61.7154 50.42L61.6263 50.7567L63.7451 50.3372L63.964 51.4114L63.5775 51.4889L63.4072 50.6471L59.4561 51.4301L59.6264 52.2799V52.2772ZM64.5234 53.4877C64.2666 53.4797 63.9369 53.4423 63.5883 53.3728L63.9586 55.198L63.5802 55.2728L63.5234 55.0002L61.0371 55.4919L61.0939 55.7752L60.7209 55.85L60.3479 54.0142C60.0588 54.2093 59.7615 54.3883 59.4642 54.5379L59.3723 54.3829C60.0912 53.9714 60.9263 53.306 61.2803 52.6781L59.2777 53.0762L59.2318 52.8517L60.7263 52.5551C60.5101 52.3814 60.2723 52.2077 60.0912 52.0875L60.1426 51.9859C60.0399 52.0127 59.9345 52.0394 59.8372 52.0581L59.7777 51.8897C61.0506 51.5423 62.0722 51.1041 62.5721 50.8182L62.9856 51.0667C62.6532 51.2163 62.2073 51.39 61.7154 51.545L61.8749 52.3253L62.3235 52.2371C62.4532 51.9779 62.5965 51.6065 62.6911 51.2885L63.0694 51.4168C62.9046 51.7134 62.7424 51.9859 62.5694 52.189L64.1396 51.8791L64.1856 52.1035L62.0073 52.5364C62.7802 52.9667 63.791 53.0709 64.6072 53.0548L64.5207 53.4931L64.5234 53.4877ZM61.0317 52.3467L60.9128 52.515L61.4911 52.4001L61.3425 51.6599C60.9885 51.7668 60.6128 51.871 60.2507 51.9592C60.5236 52.0501 60.8074 52.1917 61.0344 52.344L61.0317 52.3467ZM63.3721 53.3247C62.8613 53.2045 62.3289 53.0041 61.9533 52.7048L62.0965 53.4102L61.71 53.4877L61.5803 52.8411C61.356 53.2045 60.9668 53.5626 60.5236 53.8913L63.3721 53.3274V53.3247ZM61.8019 53.8699L60.7506 54.0783L60.8452 54.546L61.8965 54.3375L61.8019 53.8699ZM61.9425 54.562L60.8912 54.7704L60.9912 55.2675L62.0424 55.059L61.9425 54.562ZM63.237 53.5866L62.1749 53.7977L62.2695 54.2654L63.3316 54.0543L63.237 53.5866ZM63.3775 54.2787L62.3154 54.4898L62.4154 54.9869L63.4775 54.7758L63.3775 54.2787Z" fill="#0019A9"/>
        <path d="M35.1466 51.8015L34.1385 55.7885L33.7629 55.695L34.6034 52.3761C34.3061 52.6486 33.9791 52.8838 33.6251 53.0682L33.5386 52.9025C34.3385 52.336 34.998 51.4729 35.5493 50.4333L35.933 50.6605C35.6952 51.0693 35.4385 51.4542 35.1466 51.8015ZM36.3222 53.3434C35.9547 53.9687 35.3574 54.7063 34.7196 55.1632L34.6034 55.0189C35.1142 54.5326 35.606 53.8164 35.9411 53.1083L36.3249 53.3434H36.3222ZM37.5032 52.2825L36.6006 55.8473C36.4735 56.3497 36.0276 56.4406 34.9953 55.711L35.0763 55.556C36.0276 55.9489 36.1546 55.9248 36.2384 55.5935L37.1005 52.1837L36.279 51.9806C35.9709 52.3787 35.6087 52.7315 35.2277 53.0014L35.1034 52.8571C35.7114 52.3039 36.1844 51.5637 36.533 50.7273L36.9438 50.925C36.8033 51.211 36.6249 51.5023 36.4276 51.7802L38.5356 52.3013L38.7032 52.2398L39.0707 52.5845C38.7545 52.9079 38.3032 53.2392 37.9924 53.3969L37.8762 53.2472C38.1005 53.0415 38.3599 52.7422 38.5005 52.5284L37.4951 52.2799L37.5032 52.2825ZM38.3707 55.7939L37.9032 55.8714C37.8654 55.1953 37.7167 54.2039 37.5843 53.5893L37.7519 53.5332C38.0167 54.1638 38.268 55.1285 38.3707 55.7912V55.7939Z" fill="#0019A9"/>
        <path d="M79.7359 17.7277L83.5681 21.2604L83.4059 21.4314L79.5737 17.8987L79.7359 17.7277ZM82.1736 16.6722L84.4518 18.7725L83.1276 20.1755L80.8493 18.0751L82.1736 16.6722ZM81.1223 16.2045L81.1844 16.0281C82.033 16.3034 83.187 16.4183 83.9897 16.1965L82.5952 14.9111L82.7546 14.7428L84.3978 16.258L84.9869 15.6327L85.2923 15.9132L84.7032 16.5385L86.3409 18.0484L86.1815 18.2167L84.6653 16.8191C84.6059 17.7384 84.9275 18.647 85.4058 19.4112L84.9302 19.5609C84.5167 18.7138 84.3248 17.6743 84.5059 16.747L83.5951 17.7117L83.2897 17.4311L84.1437 16.5279C83.2762 16.7737 82.0168 16.5733 81.125 16.2072L81.1223 16.2045ZM81.2953 18.1713L82.9952 19.7372L83.4492 19.2562L81.7493 17.6903L81.2953 18.1713ZM81.9114 17.5193L83.6113 19.0852L84.0005 18.671L82.3006 17.1051L81.9114 17.5193Z" fill="#0019A9"/>
        <path d="M8.46452 34.0044C8.0186 34.0044 7.58889 33.8253 7.2754 33.5127C6.9619 33.8253 6.52949 34.0044 6.08627 34.0044C5.162 34.0044 4.40799 33.2588 4.40799 32.3449C4.40799 32.0723 4.47555 31.8051 4.60798 31.5646C3.94856 31.3241 3.51074 30.7068 3.51074 30.0067C3.51074 29.0928 4.26475 28.3472 5.18903 28.3472C5.32956 28.3472 5.46739 28.3633 5.60252 28.398C5.65116 27.5295 6.38896 26.8321 7.2781 26.8321C8.16724 26.8321 8.90503 27.5295 8.95368 28.4007C9.08881 28.3659 9.22934 28.3472 9.36717 28.3472C10.2914 28.3472 11.0455 29.1302 11.0455 30.0949C11.0455 30.795 10.6347 31.4337 10.0158 31.7062C10.1023 31.912 10.1455 32.1258 10.1455 32.3449C10.1455 33.2588 9.39149 34.0044 8.46722 34.0044H8.46452ZM7.27269 33.347L7.31593 33.3924C7.61321 33.7104 8.02941 33.8921 8.46452 33.8921C9.32663 33.8921 10.0266 33.2 10.0266 32.3476C10.0266 32.1258 9.97795 31.9067 9.88336 31.7009L9.85903 31.6475L9.91579 31.6261C10.5212 31.3882 10.9292 30.7736 10.9292 30.0975C10.9292 29.197 10.2293 28.4648 9.36717 28.4648C9.21583 28.4648 9.06178 28.4889 8.91584 28.5343L8.84288 28.5583V28.4808C8.83477 27.6364 8.1321 26.9496 7.2808 26.9496C6.4295 26.9496 5.72954 27.6337 5.71873 28.4755V28.5503L5.64576 28.5289C5.49712 28.4835 5.34577 28.4621 5.19173 28.4621C4.32961 28.4621 3.62965 29.1542 3.62965 30.0067C3.62965 30.6801 4.06477 31.2707 4.71338 31.4791L4.78094 31.5005L4.74311 31.5619C4.59987 31.7998 4.5242 32.0723 4.5242 32.3449C4.5242 33.1974 5.22416 33.8895 6.08627 33.8895C6.51868 33.8895 6.93758 33.7078 7.23486 33.3898L7.2781 33.3443L7.27269 33.347Z" fill="#0019A9"/>
        <path d="M8.46449 33.7639C8.06181 33.7639 7.68615 33.6009 7.41049 33.3069C7.34022 33.2321 7.2051 33.2321 7.13483 33.3069C6.85917 33.6009 6.48622 33.7639 6.08084 33.7639C5.28899 33.7639 4.64848 33.1279 4.64848 32.3476C4.64848 32.0964 4.71875 31.8479 4.84847 31.6287C4.8782 31.5806 4.88361 31.5218 4.86199 31.4684C4.84037 31.415 4.79983 31.3749 4.74307 31.3588C4.14851 31.1691 3.74854 30.6266 3.74854 30.0094C3.74854 29.2264 4.39174 28.5931 5.18089 28.5931C5.32142 28.5931 5.46195 28.6144 5.59708 28.6545C5.65383 28.6706 5.71599 28.6599 5.76194 28.6278C5.80788 28.5931 5.83761 28.5396 5.83761 28.4808C5.84571 27.7085 6.48892 27.0806 7.26996 27.0806C8.051 27.0806 8.6942 27.7112 8.70231 28.4835C8.70231 28.5423 8.73204 28.5984 8.78068 28.6305C8.82933 28.6652 8.89149 28.6732 8.94824 28.6572C9.08337 28.6144 9.2212 28.5931 9.36173 28.5931C10.1536 28.5931 10.7941 29.2691 10.7941 30.1002C10.7941 30.7228 10.4211 31.2894 9.86441 31.5085C9.81576 31.5272 9.77793 31.5646 9.75901 31.6127C9.74009 31.6608 9.74279 31.7142 9.76171 31.7597C9.85089 31.9494 9.89414 32.1472 9.89414 32.3529C9.89414 33.1359 9.25093 33.7692 8.46178 33.7692L8.46449 33.7639ZM7.27266 33.1599C7.34833 33.1599 7.4213 33.192 7.47265 33.2481C7.73209 33.526 8.08343 33.6783 8.46178 33.6783C9.20498 33.6783 9.81036 33.0798 9.81036 32.3476C9.81036 32.1552 9.76712 31.9681 9.68604 31.7917C9.65361 31.7249 9.65361 31.6474 9.68063 31.578C9.70766 31.5085 9.76441 31.455 9.83468 31.4283C10.359 31.2226 10.7103 30.6881 10.7103 30.1002C10.7103 29.3172 10.1049 28.6786 9.36444 28.6786C9.23471 28.6786 9.10499 28.7 8.97797 28.7374C8.89689 28.7641 8.80501 28.7481 8.73474 28.7C8.66447 28.6492 8.62123 28.569 8.62123 28.4835C8.61313 27.7566 8.01046 27.1634 7.27536 27.1634C6.54027 27.1634 5.9376 27.754 5.92949 28.4782C5.92949 28.5637 5.88625 28.6438 5.81869 28.6919C5.74842 28.7427 5.65924 28.7561 5.57816 28.732C5.45114 28.6946 5.31872 28.6759 5.18899 28.6759C4.44579 28.6759 3.84042 29.2745 3.84042 30.0094C3.84042 30.5892 4.21608 31.0996 4.7755 31.2787C4.85388 31.3027 4.91874 31.3615 4.94847 31.439C4.9782 31.5165 4.97009 31.602 4.92955 31.6715C4.80793 31.8773 4.74037 32.1097 4.74037 32.3476C4.74037 33.0824 5.34574 33.6783 6.08894 33.6783C6.4673 33.6783 6.81863 33.526 7.07808 33.2481C7.12943 33.192 7.20239 33.1599 7.27807 33.1599H7.27266Z" fill="#0019A9"/>
        <path d="M7.27254 31.2974C6.83743 31.2974 6.4834 30.9473 6.4834 30.5171C6.4834 30.0868 6.83743 29.7368 7.27254 29.7368C7.70765 29.7368 8.06169 30.0868 8.06169 30.5171C8.06169 30.9473 7.70765 31.2974 7.27254 31.2974ZM7.27254 29.8517C6.90229 29.8517 6.59961 30.151 6.59961 30.5171C6.59961 30.8832 6.90229 31.1825 7.27254 31.1825C7.64279 31.1825 7.94548 30.8832 7.94548 30.5171C7.94548 30.151 7.64279 29.8517 7.27254 29.8517Z" fill="#0019A9"/>
        <path d="M7.24556 28.9111V29.7983C7.24556 29.7983 7.26448 29.7983 7.27529 29.7983C7.2861 29.7983 7.2942 29.7983 7.30501 29.7983V28.9111C7.41041 28.8977 7.49149 28.8095 7.49149 28.7C7.49149 28.5824 7.3942 28.4862 7.27529 28.4862C7.15637 28.4862 7.05908 28.5824 7.05908 28.7C7.05908 28.8095 7.14016 28.8977 7.24556 28.9111Z" fill="#0019A9"/>
        <path d="M6.60233 29.0527L6.95636 29.8677C6.97258 29.8597 6.99149 29.8517 7.01041 29.8464L6.65638 29.0313C6.74826 28.9779 6.7888 28.863 6.74556 28.7641C6.69962 28.6545 6.5699 28.6064 6.46179 28.6519C6.35099 28.6973 6.30234 28.8256 6.34829 28.9325C6.39153 29.0313 6.50233 29.0821 6.60503 29.0527H6.60233Z" fill="#0019A9"/>
        <path d="M5.64308 30.5518H6.54303C6.54303 30.5518 6.54303 30.5304 6.54303 30.5197C6.54303 30.5117 6.54303 30.5037 6.54303 30.4957H5.64308C5.62957 30.3915 5.54039 30.3113 5.42958 30.3113C5.31067 30.3113 5.21338 30.4075 5.21338 30.5251C5.21338 30.6427 5.31067 30.7389 5.42958 30.7389C5.54039 30.7389 5.62957 30.6587 5.64308 30.5545V30.5518Z" fill="#0019A9"/>
        <path d="M5.4591 30.1243C5.5618 30.159 5.67531 30.1136 5.72125 30.0174L6.56985 30.3087C6.57526 30.29 6.58066 30.2712 6.58877 30.2552L5.74017 29.9639C5.76179 29.8597 5.70504 29.7555 5.59964 29.7181C5.48613 29.678 5.36451 29.7395 5.32398 29.849C5.28344 29.9586 5.3456 30.0815 5.4564 30.1216L5.4591 30.1243Z" fill="#0019A9"/>
        <path d="M7.7755 28.9886L7.48633 29.8277C7.50525 29.833 7.52146 29.841 7.54038 29.8464L7.82955 29.0073C7.93495 29.0287 8.04035 28.9699 8.07548 28.8683C8.11332 28.7561 8.05386 28.6358 7.94036 28.5958C7.82685 28.5583 7.70523 28.6171 7.6647 28.7294C7.62956 28.8309 7.67821 28.9431 7.7728 28.9886H7.7755Z" fill="#0019A9"/>
        <path d="M8.69982 29.7448L7.90527 30.159C7.91608 30.175 7.92419 30.1911 7.9323 30.2098L8.72685 29.7929C8.78901 29.8784 8.90522 29.9078 9.00251 29.857C9.10791 29.8009 9.14845 29.6726 9.09169 29.5684C9.03494 29.4642 8.90522 29.4241 8.79982 29.4802C8.70253 29.531 8.66199 29.6433 8.69982 29.7421V29.7448Z" fill="#0019A9"/>
        <path d="M7.77246 29.9907C7.78597 30.004 7.79949 30.0174 7.813 30.0307L8.4481 29.4028C8.53188 29.4669 8.65349 29.4615 8.73187 29.3841C8.81565 29.3012 8.81565 29.1649 8.73187 29.0821C8.64809 28.9992 8.51026 28.9992 8.42648 29.0821C8.3481 29.1596 8.3427 29.2798 8.40756 29.3627L7.77246 29.9907Z" fill="#0019A9"/>
        <path d="M6.10002 29.4028L6.73512 30.0307C6.74863 30.0174 6.76214 30.004 6.77566 29.9907L6.14056 29.3627C6.20542 29.2798 6.20001 29.1596 6.12164 29.0821C6.03786 28.9992 5.90003 28.9992 5.81625 29.0821C5.73247 29.1649 5.73247 29.3012 5.81625 29.3841C5.89463 29.4615 6.01624 29.4669 6.10002 29.4028Z" fill="#0019A9"/>
        <path d="M9.08598 30.9206C8.98328 30.8859 8.86978 30.9313 8.82383 31.0275L7.97253 30.7336C7.96713 30.7523 7.95902 30.7683 7.95361 30.787L8.80492 31.0809C8.7833 31.1852 8.84005 31.2894 8.94545 31.3268C9.05896 31.3669 9.18057 31.3054 9.22111 31.1958C9.26165 31.0836 9.19949 30.9634 9.08868 30.9233L9.08598 30.9206Z" fill="#0019A9"/>
        <path d="M8.44569 31.6421L7.80519 31.0088C7.79167 31.0222 7.77816 31.0355 7.76465 31.0489L8.40515 31.6822C8.34029 31.765 8.3457 31.8853 8.42407 31.9628C8.50785 32.0456 8.64568 32.0456 8.72946 31.9628C8.81324 31.8799 8.81324 31.7437 8.72946 31.6608C8.65108 31.5833 8.52947 31.578 8.44569 31.6421Z" fill="#0019A9"/>
        <path d="M7.94301 31.9922L7.58628 31.1691C7.57006 31.1771 7.55114 31.1852 7.53223 31.1905L7.88896 32.0136C7.79708 32.067 7.75654 32.1819 7.79978 32.2808C7.84572 32.3903 7.97544 32.4384 8.08355 32.393C8.19165 32.3476 8.243 32.2193 8.19705 32.1124C8.15381 32.0136 8.04301 31.9628 7.94031 31.9922H7.94301Z" fill="#0019A9"/>
        <path d="M9.11833 30.3086C9.00753 30.3086 8.91834 30.3888 8.90483 30.493H8.00488C8.00488 30.493 8.00488 30.5091 8.00488 30.5171C8.00488 30.5278 8.00488 30.5385 8.00488 30.5491H8.90483C8.91834 30.6534 9.00753 30.7335 9.11833 30.7335C9.23725 30.7335 9.33454 30.6373 9.33454 30.5197C9.33454 30.4022 9.23725 30.306 9.11833 30.306V30.3086Z" fill="#0019A9"/>
        <path d="M7.30257 32.1365V31.2413C7.30257 31.2413 7.28365 31.2413 7.27284 31.2413C7.26203 31.2413 7.25393 31.2413 7.24312 31.2413V32.1365C7.13772 32.1498 7.05664 32.238 7.05664 32.3476C7.05664 32.4652 7.15393 32.5614 7.27284 32.5614C7.39176 32.5614 7.48905 32.4652 7.48905 32.3476C7.48905 32.238 7.40797 32.1498 7.30257 32.1365Z" fill="#0019A9"/>
        <path d="M6.78106 31.0515C6.76755 31.0382 6.75404 31.0248 6.74052 31.0114L6.10002 31.6448C6.01624 31.5806 5.89463 31.586 5.81625 31.6635C5.73247 31.7463 5.73247 31.8826 5.81625 31.9654C5.90003 32.0483 6.03786 32.0483 6.12164 31.9654C6.20001 31.8879 6.20542 31.7677 6.14056 31.6848L6.78106 31.0515Z" fill="#0019A9"/>
        <path d="M6.77278 32.059L7.06466 31.2119C7.04574 31.2065 7.02682 31.2012 7.01061 31.1932L6.71873 32.0403C6.61333 32.0189 6.50793 32.0777 6.4728 32.1792C6.43497 32.2915 6.49442 32.4117 6.60793 32.4518C6.72144 32.4892 6.84305 32.4304 6.88359 32.3182C6.91872 32.2166 6.87008 32.1044 6.77549 32.059H6.77278Z" fill="#0019A9"/>
        <path d="M5.84579 31.3027L6.64304 30.8859C6.63223 30.8698 6.62413 30.8538 6.61602 30.8351L5.81877 31.252C5.75661 31.1664 5.6404 31.137 5.54311 31.1878C5.43771 31.2439 5.39717 31.3722 5.45392 31.4764C5.51068 31.5806 5.6404 31.6207 5.7458 31.5646C5.84309 31.5138 5.88363 31.4016 5.84579 31.3027Z" fill="#0019A9"/>
        <path d="M13.6369 45.5592C13.191 45.5592 12.7613 45.3801 12.4478 45.0675C12.1343 45.3801 11.7019 45.5592 11.2586 45.5592C10.3344 45.5592 9.58035 44.8136 9.58035 43.8997C9.58035 43.6271 9.64792 43.3599 9.78034 43.1194C9.12092 42.8789 8.68311 42.2616 8.68311 41.5615C8.68311 40.6476 9.43712 39.902 10.3614 39.902C10.5019 39.902 10.6398 39.918 10.7749 39.9528C10.8235 39.0843 11.5613 38.3868 12.4505 38.3868C13.3396 38.3868 14.0774 39.0843 14.126 39.9555C14.2612 39.9207 14.4017 39.902 14.5395 39.902C15.4638 39.902 16.2178 40.685 16.2178 41.6497C16.2178 42.3498 15.807 42.9885 15.1881 43.261C15.2746 43.4668 15.3179 43.6806 15.3179 43.8997C15.3179 44.8136 14.5639 45.5592 13.6396 45.5592H13.6369ZM12.4478 44.9018L12.491 44.9472C12.7883 45.2652 13.2045 45.4469 13.6396 45.4469C14.5017 45.4469 15.2017 44.7548 15.2017 43.9024C15.2017 43.6806 15.153 43.4614 15.0584 43.2557L15.0341 43.2022L15.0909 43.1809C15.6962 42.943 16.1043 42.3284 16.1043 41.6523C16.1043 40.7518 15.4043 40.0196 14.5422 40.0196C14.3909 40.0196 14.2368 40.0436 14.0909 40.0891L14.0179 40.1131V40.0356C14.0098 39.1912 13.3072 38.5044 12.4559 38.5044C11.6046 38.5044 10.9046 39.1885 10.8938 40.0303V40.1051L10.8208 40.0837C10.6722 40.0383 10.5208 40.0169 10.3668 40.0169C9.50468 40.0169 8.80472 40.709 8.80472 41.5615C8.80472 42.2349 9.23983 42.8254 9.88844 43.0339L9.95601 43.0553L9.91817 43.1167C9.77494 43.3546 9.69926 43.6271 9.69926 43.8997C9.69926 44.7521 10.3992 45.4443 11.2613 45.4443C11.6937 45.4443 12.1126 45.2625 12.4099 44.9445L12.4532 44.8991L12.4478 44.9018Z" fill="#0019A9"/>
        <path d="M13.6368 45.3187C13.2342 45.3187 12.8585 45.1557 12.5829 44.8617C12.5126 44.7869 12.3775 44.7869 12.3072 44.8617C12.0315 45.1557 11.6586 45.3187 11.2532 45.3187C10.4614 45.3187 9.82085 44.6827 9.82085 43.9024C9.82085 43.6512 9.89111 43.4027 10.0208 43.1835C10.0506 43.1354 10.056 43.0767 10.0343 43.0232C10.0127 42.9698 9.97219 42.9297 9.91544 42.9136C9.32088 42.7239 8.9209 42.1814 8.9209 41.5642C8.9209 40.7812 9.56411 40.1479 10.3533 40.1479C10.4938 40.1479 10.6343 40.1692 10.7694 40.2093C10.8262 40.2254 10.8884 40.2147 10.9343 40.1826C10.9802 40.1479 11.01 40.0944 11.01 40.0356C11.0181 39.2634 11.6613 38.6354 12.4423 38.6354C13.2234 38.6354 13.8666 39.266 13.8747 40.0383C13.8747 40.0971 13.9044 40.1532 13.953 40.1853C14.0017 40.22 14.0639 40.228 14.1206 40.212C14.2557 40.1692 14.3936 40.1479 14.5341 40.1479C15.3259 40.1479 15.9664 40.8239 15.9664 41.655C15.9664 42.2777 15.5935 42.8442 15.0368 43.0633C14.9881 43.082 14.9503 43.1194 14.9314 43.1675C14.9125 43.2156 14.9152 43.2691 14.9341 43.3145C15.0233 43.5042 15.0665 43.702 15.0665 43.9077C15.0665 44.6907 14.4233 45.324 13.6341 45.324L13.6368 45.3187ZM12.4477 44.7147C12.5234 44.7147 12.5964 44.7468 12.6477 44.8029C12.9072 45.0808 13.2585 45.2332 13.6368 45.2332C14.3801 45.2332 14.9854 44.6346 14.9854 43.9024C14.9854 43.71 14.9422 43.5229 14.8611 43.3466C14.8287 43.2797 14.8287 43.2022 14.8557 43.1328C14.8827 43.0633 14.9395 43.0098 15.0097 42.9831C15.534 42.7774 15.8854 42.2429 15.8854 41.655C15.8854 40.872 15.28 40.2334 14.5395 40.2334C14.4098 40.2334 14.2801 40.2548 14.153 40.2922C14.072 40.3189 13.9801 40.3029 13.9098 40.2548C13.8395 40.204 13.7963 40.1238 13.7963 40.0383C13.7882 39.3115 13.1855 38.7182 12.4504 38.7182C11.7153 38.7182 11.1127 39.3088 11.1046 40.033C11.1046 40.1185 11.0613 40.1986 10.9938 40.2467C10.9235 40.2975 10.8343 40.3109 10.7532 40.2868C10.6262 40.2494 10.4938 40.2307 10.3641 40.2307C9.62086 40.2307 9.01549 40.8293 9.01549 41.5642C9.01549 42.144 9.39114 42.6544 9.95057 42.8335C10.0289 42.8575 10.0938 42.9163 10.1235 42.9938C10.1533 43.0713 10.1452 43.1568 10.1046 43.2263C9.983 43.4321 9.91544 43.6645 9.91544 43.9024C9.91544 44.6372 10.5208 45.2332 11.264 45.2332C11.6424 45.2332 11.9937 45.0808 12.2531 44.8029C12.3045 44.7468 12.3775 44.7147 12.4531 44.7147H12.4477Z" fill="#0019A9"/>
        <path d="M12.4478 42.8522C12.0127 42.8522 11.6587 42.5021 11.6587 42.0719C11.6587 41.6416 12.0127 41.2916 12.4478 41.2916C12.8829 41.2916 13.237 41.6416 13.237 42.0719C13.237 42.5021 12.8829 42.8522 12.4478 42.8522ZM12.4478 41.4065C12.0776 41.4065 11.7749 41.7058 11.7749 42.0719C11.7749 42.438 12.0776 42.7372 12.4478 42.7372C12.8181 42.7372 13.1208 42.438 13.1208 42.0719C13.1208 41.7058 12.8181 41.4065 12.4478 41.4065Z" fill="#0019A9"/>
        <path d="M12.4179 40.4632V41.3504C12.4179 41.3504 12.4368 41.3504 12.4477 41.3504C12.4585 41.3504 12.4666 41.3504 12.4774 41.3504V40.4632C12.5828 40.4498 12.6639 40.3616 12.6639 40.2521C12.6639 40.1345 12.5666 40.0383 12.4477 40.0383C12.3287 40.0383 12.2314 40.1345 12.2314 40.2521C12.2314 40.3616 12.3125 40.4498 12.4179 40.4632Z" fill="#0019A9"/>
        <path d="M11.7776 40.6075L12.1317 41.4225C12.1479 41.4145 12.1668 41.4065 12.1857 41.4011L11.8317 40.5861C11.9236 40.5327 11.9641 40.4178 11.9209 40.3189C11.8749 40.2093 11.7452 40.1612 11.6371 40.2066C11.5263 40.2521 11.4776 40.3803 11.5236 40.4872C11.5668 40.5861 11.6776 40.6369 11.7803 40.6075H11.7776Z" fill="#0019A9"/>
        <path d="M10.8154 42.1039H11.7154C11.7154 42.1039 11.7154 42.0826 11.7154 42.0719C11.7154 42.0639 11.7154 42.0558 11.7154 42.0478H10.8154C10.8019 41.9436 10.7128 41.8634 10.6019 41.8634C10.483 41.8634 10.3857 41.9596 10.3857 42.0772C10.3857 42.1948 10.483 42.291 10.6019 42.291C10.7128 42.291 10.8019 42.2108 10.8154 42.1066V42.1039Z" fill="#0019A9"/>
        <path d="M10.6344 41.6791C10.7371 41.7138 10.8506 41.6684 10.8965 41.5722L11.7451 41.8634C11.7506 41.8447 11.756 41.826 11.7641 41.81L10.9155 41.5187C10.9371 41.4145 10.8803 41.3103 10.7749 41.2729C10.6614 41.2328 10.5398 41.2943 10.4993 41.4038C10.4587 41.5134 10.5209 41.6363 10.6317 41.6764L10.6344 41.6791Z" fill="#0019A9"/>
        <path d="M12.9479 40.5407L12.6587 41.3798C12.6776 41.3851 12.6938 41.3931 12.7127 41.3985L13.0019 40.5594C13.1073 40.5808 13.2127 40.522 13.2478 40.4204C13.2857 40.3082 13.2262 40.188 13.1127 40.1479C12.9992 40.1105 12.8776 40.1693 12.8371 40.2815C12.8019 40.383 12.8506 40.4953 12.9452 40.5407H12.9479Z" fill="#0019A9"/>
        <path d="M13.8746 41.2969L13.0801 41.7111C13.0909 41.7272 13.099 41.7432 13.1071 41.7619L13.9017 41.345C13.9638 41.4305 14.08 41.4599 14.1773 41.4092C14.2827 41.353 14.3233 41.2248 14.2665 41.1206C14.2097 41.0163 14.08 40.9763 13.9746 41.0324C13.8773 41.0831 13.8368 41.1954 13.8746 41.2942V41.2969Z" fill="#0019A9"/>
        <path d="M12.9448 41.5428C12.9583 41.5561 12.9718 41.5695 12.9854 41.5829L13.6205 40.9549C13.7042 41.019 13.8259 41.0137 13.9042 40.9362C13.988 40.8533 13.988 40.7171 13.9042 40.6342C13.8205 40.5514 13.6826 40.5514 13.5988 40.6342C13.5205 40.7117 13.5151 40.832 13.5799 40.9148L12.9448 41.5428Z" fill="#0019A9"/>
        <path d="M11.2724 40.9576L11.9075 41.5855C11.921 41.5722 11.9345 41.5588 11.948 41.5455L11.3129 40.9175C11.3778 40.8346 11.3724 40.7144 11.294 40.6369C11.2102 40.5541 11.0724 40.5541 10.9886 40.6369C10.9048 40.7197 10.9048 40.856 10.9886 40.9389C11.067 41.0164 11.1886 41.0217 11.2724 40.9576Z" fill="#0019A9"/>
        <path d="M14.2583 42.4754C14.1556 42.4406 14.0421 42.4861 13.9962 42.5823L13.1449 42.2883C13.1395 42.307 13.1314 42.3231 13.126 42.3418L13.9773 42.6357C13.9557 42.7399 14.0124 42.8442 14.1178 42.8816C14.2313 42.9217 14.3529 42.8602 14.3935 42.7506C14.434 42.6384 14.3719 42.5181 14.261 42.4781L14.2583 42.4754Z" fill="#0019A9"/>
        <path d="M13.6205 43.1969L12.98 42.5636C12.9665 42.5769 12.953 42.5903 12.9395 42.6037L13.58 43.237C13.5151 43.3198 13.5205 43.4401 13.5989 43.5176C13.6827 43.6004 13.8205 43.6004 13.9043 43.5176C13.988 43.4347 13.988 43.2984 13.9043 43.2156C13.8259 43.1381 13.7043 43.1328 13.6205 43.1969Z" fill="#0019A9"/>
        <path d="M13.1178 43.547L12.7611 42.7239C12.7449 42.7319 12.7259 42.7399 12.707 42.7453L13.0638 43.5683C12.9719 43.6218 12.9313 43.7367 12.9746 43.8356C13.0205 43.9451 13.1502 43.9932 13.2584 43.9478C13.3665 43.9024 13.4178 43.7741 13.3719 43.6672C13.3286 43.5683 13.2178 43.5176 13.1151 43.547H13.1178Z" fill="#0019A9"/>
        <path d="M14.2907 41.8635C14.1799 41.8635 14.0907 41.9436 14.0772 42.0478H13.1772C13.1772 42.0478 13.1772 42.0639 13.1772 42.0719C13.1772 42.0826 13.1772 42.0933 13.1772 42.104H14.0772C14.0907 42.2082 14.1799 42.2883 14.2907 42.2883C14.4096 42.2883 14.5069 42.1921 14.5069 42.0746C14.5069 41.957 14.4096 41.8608 14.2907 41.8608V41.8635Z" fill="#0019A9"/>
        <path d="M12.4749 43.6886V42.7934C12.4749 42.7934 12.456 42.7934 12.4452 42.7934C12.4344 42.7934 12.4263 42.7934 12.4155 42.7934V43.6886C12.3101 43.702 12.229 43.7901 12.229 43.8997C12.229 44.0173 12.3263 44.1135 12.4452 44.1135C12.5641 44.1135 12.6614 44.0173 12.6614 43.8997C12.6614 43.7901 12.5803 43.702 12.4749 43.6886Z" fill="#0019A9"/>
        <path d="M11.9534 42.6037C11.9399 42.5903 11.9264 42.5769 11.9129 42.5636L11.2724 43.1969C11.1886 43.1328 11.067 43.1381 10.9886 43.2156C10.9048 43.2984 10.9048 43.4347 10.9886 43.5176C11.0724 43.6004 11.2102 43.6004 11.294 43.5176C11.3724 43.4401 11.3778 43.3198 11.3129 43.237L11.9534 42.6037Z" fill="#0019A9"/>
        <path d="M11.9451 43.6111L12.237 42.764C12.2181 42.7587 12.1992 42.7533 12.183 42.7453L11.8911 43.5924C11.7857 43.571 11.6803 43.6298 11.6452 43.7314C11.6073 43.8436 11.6668 43.9638 11.7803 44.0039C11.8938 44.0413 12.0154 43.9825 12.056 43.8703C12.0911 43.7688 12.0424 43.6565 11.9479 43.6111H11.9451Z" fill="#0019A9"/>
        <path d="M11.0182 42.8575L11.8154 42.4407C11.8046 42.4246 11.7965 42.4086 11.7884 42.3899L10.9911 42.8068C10.929 42.7213 10.8128 42.6919 10.7155 42.7426C10.6101 42.7987 10.5695 42.927 10.6263 43.0312C10.683 43.1354 10.8128 43.1755 10.9182 43.1194C11.0155 43.0686 11.056 42.9564 11.0182 42.8575Z" fill="#0019A9"/>
        <path d="M90.133 34.0044C89.6871 34.0044 89.2573 33.8253 88.9439 33.5127C88.6304 33.8253 88.1979 34.0044 87.7547 34.0044C86.8305 34.0044 86.0764 33.2588 86.0764 32.3449C86.0764 32.0723 86.144 31.8051 86.2764 31.5646C85.617 31.3241 85.1792 30.7068 85.1792 30.0067C85.1792 29.0928 85.9332 28.3472 86.8575 28.3472C86.998 28.3472 87.1359 28.3633 87.271 28.398C87.3196 27.5295 88.0574 26.8321 88.9466 26.8321C89.8357 26.8321 90.5735 27.5295 90.6221 28.4007C90.7573 28.3659 90.8978 28.3472 91.0356 28.3472C91.9599 28.3472 92.7139 29.1302 92.7139 30.0949C92.7139 30.795 92.3031 31.4337 91.6842 31.7062C91.7707 31.912 91.814 32.1258 91.814 32.3449C91.814 33.2588 91.0599 34.0044 90.1357 34.0044H90.133ZM88.9412 33.347L88.9844 33.3924C89.2817 33.7104 89.6979 33.8921 90.133 33.8921C90.9951 33.8921 91.6951 33.2 91.6951 32.3476C91.6951 32.1258 91.6464 31.9067 91.5518 31.7009L91.5275 31.6475L91.5842 31.6261C92.1896 31.3882 92.5977 30.7736 92.5977 30.0975C92.5977 29.197 91.8977 28.4648 91.0356 28.4648C90.8843 28.4648 90.7302 28.4889 90.5843 28.5343L90.5113 28.5583V28.4808C90.5032 27.6364 89.8006 26.9496 88.9493 26.9496C88.098 26.9496 87.398 27.6337 87.3872 28.4755V28.5503L87.3142 28.5289C87.1656 28.4835 87.0142 28.4621 86.8602 28.4621C85.9981 28.4621 85.2981 29.1542 85.2981 30.0067C85.2981 30.6801 85.7332 31.2707 86.3818 31.4791L86.4494 31.5005L86.4116 31.5619C86.2683 31.7998 86.1927 32.0723 86.1927 32.3449C86.1927 33.1974 86.8926 33.8895 87.7547 33.8895C88.1871 33.8895 88.606 33.7078 88.9033 33.3898L88.9466 33.3443L88.9412 33.347Z" fill="#0019A9"/>
        <path d="M90.1329 33.7639C89.7303 33.7639 89.3546 33.6009 89.0789 33.3069C89.0087 33.2321 88.8736 33.2321 88.8033 33.3069C88.5276 33.6009 88.1547 33.7639 87.7493 33.7639C86.9574 33.7639 86.3169 33.1279 86.3169 32.3476C86.3169 32.0964 86.3872 31.8479 86.5169 31.6287C86.5467 31.5806 86.5521 31.5218 86.5304 31.4684C86.5088 31.415 86.4683 31.3749 86.4115 31.3588C85.817 31.1691 85.417 30.6266 85.417 30.0094C85.417 29.2264 86.0602 28.5931 86.8493 28.5931C86.9899 28.5931 87.1304 28.6144 87.2655 28.6545C87.3223 28.6706 87.3845 28.6599 87.4304 28.6278C87.4763 28.5931 87.5061 28.5396 87.5061 28.4808C87.5142 27.7085 88.1574 27.0806 88.9384 27.0806C89.7195 27.0806 90.3627 27.7112 90.3708 28.4835C90.3708 28.5423 90.4005 28.5984 90.4491 28.6305C90.4978 28.6652 90.5599 28.6732 90.6167 28.6572C90.7518 28.6144 90.8897 28.5931 91.0302 28.5931C91.822 28.5931 92.4625 29.2691 92.4625 30.1002C92.4625 30.7228 92.0896 31.2894 91.5329 31.5085C91.4842 31.5272 91.4464 31.5646 91.4275 31.6127C91.4085 31.6608 91.4112 31.7142 91.4302 31.7597C91.5194 31.9494 91.5626 32.1472 91.5626 32.3529C91.5626 33.1359 90.9194 33.7692 90.1302 33.7692L90.1329 33.7639ZM88.9411 33.1599C89.0168 33.1599 89.0898 33.192 89.1411 33.2481C89.4006 33.526 89.7519 33.6783 90.1302 33.6783C90.8734 33.6783 91.4788 33.0798 91.4788 32.3476C91.4788 32.1552 91.4356 31.9681 91.3545 31.7917C91.3221 31.7249 91.3221 31.6474 91.3491 31.578C91.3761 31.5085 91.4329 31.455 91.5031 31.4283C92.0274 31.2226 92.3788 30.6881 92.3788 30.1002C92.3788 29.3172 91.7734 28.6786 91.0329 28.6786C90.9032 28.6786 90.7734 28.7 90.6464 28.7374C90.5654 28.7641 90.4735 28.7481 90.4032 28.7C90.3329 28.6492 90.2897 28.569 90.2897 28.4835C90.2816 27.7566 89.6789 27.1634 88.9438 27.1634C88.2087 27.1634 87.6061 27.754 87.598 28.4782C87.598 28.5637 87.5547 28.6438 87.4871 28.6919C87.4169 28.7427 87.3277 28.7561 87.2466 28.732C87.1196 28.6946 86.9872 28.6759 86.8575 28.6759C86.1143 28.6759 85.5089 29.2745 85.5089 30.0094C85.5089 30.5892 85.8845 31.0996 86.444 31.2787C86.5223 31.3027 86.5872 31.3615 86.6169 31.439C86.6467 31.5165 86.6385 31.602 86.598 31.6715C86.4764 31.8773 86.4088 32.1097 86.4088 32.3476C86.4088 33.0824 87.0142 33.6783 87.7574 33.6783C88.1358 33.6783 88.4871 33.526 88.7465 33.2481C88.7979 33.192 88.8709 33.1599 88.9465 33.1599H88.9411Z" fill="#0019A9"/>
        <path d="M88.941 31.2974C88.5059 31.2974 88.1519 30.9473 88.1519 30.5171C88.1519 30.0868 88.5059 29.7368 88.941 29.7368C89.3761 29.7368 89.7301 30.0868 89.7301 30.5171C89.7301 30.9473 89.3761 31.2974 88.941 31.2974ZM88.941 29.8517C88.5708 29.8517 88.2681 30.151 88.2681 30.5171C88.2681 30.8832 88.5708 31.1825 88.941 31.1825C89.3113 31.1825 89.6139 30.8832 89.6139 30.5171C89.6139 30.151 89.3113 29.8517 88.941 29.8517Z" fill="#0019A9"/>
        <path d="M88.914 28.9111V29.7983C88.914 29.7983 88.9329 29.7983 88.9437 29.7983C88.9546 29.7983 88.9627 29.7983 88.9735 29.7983V28.9111C89.0789 28.8977 89.1599 28.8095 89.1599 28.7C89.1599 28.5824 89.0627 28.4862 88.9437 28.4862C88.8248 28.4862 88.7275 28.5824 88.7275 28.7C88.7275 28.8095 88.8086 28.8977 88.914 28.9111Z" fill="#0019A9"/>
        <path d="M88.2708 29.0527L88.6248 29.8677C88.641 29.8597 88.66 29.8517 88.6789 29.8464L88.3248 29.0313C88.4167 28.9779 88.4573 28.863 88.414 28.7641C88.3681 28.6545 88.2384 28.6064 88.1303 28.6519C88.0195 28.6973 87.9708 28.8256 88.0167 28.9325C88.06 29.0313 88.1708 29.0821 88.2735 29.0527H88.2708Z" fill="#0019A9"/>
        <path d="M87.3115 30.5518H88.2115C88.2115 30.5518 88.2115 30.5304 88.2115 30.5197C88.2115 30.5117 88.2115 30.5037 88.2115 30.4957H87.3115C87.298 30.3915 87.2088 30.3113 87.098 30.3113C86.9791 30.3113 86.8818 30.4075 86.8818 30.5251C86.8818 30.6427 86.9791 30.7389 87.098 30.7389C87.2088 30.7389 87.298 30.6587 87.3115 30.5545V30.5518Z" fill="#0019A9"/>
        <path d="M87.1305 30.1243C87.2332 30.159 87.3467 30.1136 87.3926 30.0174L88.2412 30.3087C88.2466 30.29 88.252 30.2712 88.2602 30.2552L87.4116 29.9639C87.4332 29.8597 87.3764 29.7555 87.271 29.7181C87.1575 29.678 87.0359 29.7395 86.9954 29.849C86.9548 29.9586 87.017 30.0815 87.1278 30.1216L87.1305 30.1243Z" fill="#0019A9"/>
        <path d="M89.444 28.9886L89.1548 29.8277C89.1737 29.833 89.1899 29.841 89.2088 29.8464L89.498 29.0073C89.6034 29.0287 89.7088 28.9699 89.7439 28.8683C89.7818 28.7561 89.7223 28.6358 89.6088 28.5958C89.4953 28.5583 89.3737 28.6171 89.3331 28.7294C89.298 28.8309 89.3467 28.9431 89.4413 28.9886H89.444Z" fill="#0019A9"/>
        <path d="M90.3707 29.7448L89.5762 30.159C89.587 30.175 89.5951 30.1911 89.6032 30.2098L90.3977 29.7929C90.4599 29.8784 90.5761 29.9078 90.6734 29.857C90.7788 29.8009 90.8193 29.6726 90.7626 29.5684C90.7058 29.4642 90.5761 29.4241 90.4707 29.4802C90.3734 29.531 90.3329 29.6433 90.3707 29.7421V29.7448Z" fill="#0019A9"/>
        <path d="M89.4409 29.9907C89.4544 30.004 89.4679 30.0174 89.4815 30.0307L90.1166 29.4028C90.2003 29.4669 90.3219 29.4615 90.4003 29.3841C90.4841 29.3012 90.4841 29.1649 90.4003 29.0821C90.3165 28.9992 90.1787 28.9992 90.0949 29.0821C90.0166 29.1596 90.0111 29.2798 90.076 29.3627L89.4409 29.9907Z" fill="#0019A9"/>
        <path d="M87.7685 29.4028L88.4036 30.0307C88.4171 30.0174 88.4306 30.004 88.4441 29.9907L87.809 29.3627C87.8739 29.2798 87.8685 29.1596 87.7901 29.0821C87.7063 28.9992 87.5685 28.9992 87.4847 29.0821C87.4009 29.1649 87.4009 29.3012 87.4847 29.3841C87.5631 29.4615 87.6847 29.4669 87.7685 29.4028Z" fill="#0019A9"/>
        <path d="M90.7544 30.9206C90.6517 30.8859 90.5382 30.9313 90.4923 31.0275L89.641 30.7336C89.6356 30.7523 89.6275 30.7683 89.6221 30.787L90.4734 31.0809C90.4518 31.1852 90.5085 31.2894 90.6139 31.3268C90.7274 31.3669 90.849 31.3054 90.8896 31.1958C90.9301 31.0836 90.8679 30.9634 90.7571 30.9233L90.7544 30.9206Z" fill="#0019A9"/>
        <path d="M90.1166 31.6421L89.4761 31.0088C89.4626 31.0222 89.4491 31.0355 89.4355 31.0489L90.0761 31.6822C90.0112 31.765 90.0166 31.8853 90.095 31.9628C90.1787 32.0456 90.3166 32.0456 90.4004 31.9628C90.4841 31.8799 90.4841 31.7437 90.4004 31.6608C90.322 31.5833 90.2004 31.578 90.1166 31.6421Z" fill="#0019A9"/>
        <path d="M89.6115 31.9922L89.2547 31.1691C89.2385 31.1771 89.2196 31.1852 89.2007 31.1905L89.5574 32.0136C89.4655 32.067 89.425 32.1819 89.4682 32.2808C89.5142 32.3903 89.6439 32.4384 89.752 32.393C89.8601 32.3476 89.9115 32.2193 89.8655 32.1124C89.8223 32.0136 89.7115 31.9628 89.6088 31.9922H89.6115Z" fill="#0019A9"/>
        <path d="M90.7868 30.3086C90.676 30.3086 90.5868 30.3888 90.5733 30.493H89.6733C89.6733 30.493 89.6733 30.5091 89.6733 30.5171C89.6733 30.5278 89.6733 30.5385 89.6733 30.5491H90.5733C90.5868 30.6534 90.676 30.7335 90.7868 30.7335C90.9057 30.7335 91.003 30.6373 91.003 30.5197C91.003 30.4022 90.9057 30.306 90.7868 30.306V30.3086Z" fill="#0019A9"/>
        <path d="M88.971 32.1365V31.2413C88.971 31.2413 88.9521 31.2413 88.9413 31.2413C88.9305 31.2413 88.9224 31.2413 88.9116 31.2413V32.1365C88.8062 32.1498 88.7251 32.238 88.7251 32.3476C88.7251 32.4652 88.8224 32.5614 88.9413 32.5614C89.0602 32.5614 89.1575 32.4652 89.1575 32.3476C89.1575 32.238 89.0764 32.1498 88.971 32.1365Z" fill="#0019A9"/>
        <path d="M88.4495 31.0515C88.436 31.0382 88.4225 31.0248 88.409 31.0114L87.7685 31.6448C87.6847 31.5806 87.5631 31.586 87.4847 31.6635C87.4009 31.7463 87.4009 31.8826 87.4847 31.9654C87.5685 32.0483 87.7063 32.0483 87.7901 31.9654C87.8685 31.8879 87.8739 31.7677 87.809 31.6848L88.4495 31.0515Z" fill="#0019A9"/>
        <path d="M88.4412 32.059L88.7331 31.2119C88.7142 31.2065 88.6953 31.2012 88.6791 31.1932L88.3872 32.0403C88.2818 32.0189 88.1764 32.0777 88.1413 32.1792C88.1034 32.2915 88.1629 32.4117 88.2764 32.4518C88.3899 32.4892 88.5115 32.4304 88.552 32.3182C88.5872 32.2166 88.5385 32.1044 88.4439 32.059H88.4412Z" fill="#0019A9"/>
        <path d="M87.5143 31.3027L88.3115 30.8859C88.3007 30.8698 88.2926 30.8538 88.2845 30.8351L87.4872 31.252C87.4251 31.1664 87.3089 31.137 87.2116 31.1878C87.1062 31.2439 87.0656 31.3722 87.1224 31.4764C87.1791 31.5806 87.3089 31.6207 87.4143 31.5646C87.5116 31.5138 87.5521 31.4016 87.5143 31.3027Z" fill="#0019A9"/>
        <path d="M85.1413 44.8483C84.6954 44.8483 84.2657 44.6693 83.9522 44.3566C83.6387 44.6693 83.2062 44.8483 82.763 44.8483C81.8388 44.8483 81.0847 44.1028 81.0847 43.1889C81.0847 42.9163 81.1523 42.6491 81.2847 42.4086C80.6253 42.1681 80.1875 41.5508 80.1875 40.8507C80.1875 39.9367 80.9415 39.1912 81.8658 39.1912C82.0063 39.1912 82.1442 39.2072 82.2793 39.242C82.3279 38.3735 83.0657 37.676 83.9549 37.676C84.844 37.676 85.5818 38.3735 85.6304 39.2446C85.7656 39.2099 85.9061 39.1912 86.0439 39.1912C86.9682 39.1912 87.7222 39.9742 87.7222 40.9388C87.7222 41.639 87.3114 42.2776 86.6925 42.5502C86.779 42.756 86.8223 42.9697 86.8223 43.1889C86.8223 44.1028 86.0682 44.8483 85.144 44.8483H85.1413ZM83.9495 44.191L83.9927 44.2364C84.29 44.5544 84.7062 44.7361 85.1413 44.7361C86.0034 44.7361 86.7034 44.044 86.7034 43.1915C86.7034 42.9697 86.6547 42.7506 86.5601 42.5449L86.5358 42.4914L86.5925 42.47C87.1979 42.2322 87.606 41.6176 87.606 40.9415C87.606 40.041 86.906 39.3088 86.0439 39.3088C85.8926 39.3088 85.7385 39.3328 85.5926 39.3782L85.5196 39.4023V39.3248C85.5115 38.4804 84.8089 37.7936 83.9576 37.7936C83.1063 37.7936 82.4063 38.4777 82.3955 39.3195V39.3943L82.3225 39.3729C82.1739 39.3275 82.0225 39.3061 81.8685 39.3061C81.0064 39.3061 80.3064 39.9982 80.3064 40.8507C80.3064 41.5241 80.7415 42.1146 81.3901 42.3231L81.4577 42.3444L81.4199 42.4059C81.2766 42.6437 81.201 42.9163 81.201 43.1889C81.201 44.0413 81.9009 44.7334 82.763 44.7334C83.1954 44.7334 83.6143 44.5517 83.9116 44.2337L83.9549 44.1883L83.9495 44.191Z" fill="#0019A9"/>
        <path d="M85.1412 44.6078C84.7386 44.6078 84.3629 44.4448 84.0873 44.1509C84.017 44.076 83.8819 44.076 83.8116 44.1509C83.5359 44.4448 83.163 44.6078 82.7576 44.6078C81.9657 44.6078 81.3252 43.9718 81.3252 43.1915C81.3252 42.9403 81.3955 42.6918 81.5252 42.4727C81.555 42.4246 81.5604 42.3658 81.5387 42.3124C81.5171 42.2589 81.4766 42.2188 81.4198 42.2028C80.8253 42.0131 80.4253 41.4706 80.4253 40.8533C80.4253 40.0703 81.0685 39.437 81.8576 39.437C81.9982 39.437 82.1387 39.4584 82.2738 39.4985C82.3306 39.5145 82.3928 39.5038 82.4387 39.4718C82.4846 39.437 82.5144 39.3836 82.5144 39.3248C82.5225 38.5525 83.1657 37.9245 83.9467 37.9245C84.7278 37.9245 85.371 38.5552 85.3791 39.3275C85.3791 39.3862 85.4088 39.4424 85.4574 39.4744C85.5061 39.5092 85.5682 39.5172 85.625 39.5012C85.7601 39.4584 85.898 39.437 86.0385 39.437C86.8303 39.437 87.4708 40.1131 87.4708 40.9442C87.4708 41.5668 87.0979 42.1333 86.5412 42.3524C86.4925 42.3712 86.4547 42.4086 86.4358 42.4567C86.4168 42.5048 86.4195 42.5582 86.4385 42.6036C86.5277 42.7934 86.5709 42.9911 86.5709 43.1969C86.5709 43.9798 85.9277 44.6132 85.1385 44.6132L85.1412 44.6078ZM83.9494 44.0039C84.0251 44.0039 84.0981 44.036 84.1494 44.0921C84.4089 44.37 84.7602 44.5223 85.1385 44.5223C85.8817 44.5223 86.4871 43.9237 86.4871 43.1915C86.4871 42.9991 86.4439 42.8121 86.3628 42.6357C86.3304 42.5689 86.3304 42.4914 86.3574 42.4219C86.3844 42.3524 86.4412 42.299 86.5114 42.2723C87.0357 42.0665 87.3871 41.5321 87.3871 40.9442C87.3871 40.1612 86.7817 39.5225 86.0412 39.5225C85.9115 39.5225 85.7817 39.5439 85.6547 39.5813C85.5737 39.608 85.4818 39.592 85.4115 39.5439C85.3412 39.4931 85.298 39.413 85.298 39.3275C85.2899 38.6006 84.6872 38.0074 83.9521 38.0074C83.217 38.0074 82.6144 38.5979 82.6063 39.3221C82.6063 39.4076 82.563 39.4878 82.4954 39.5359C82.4252 39.5867 82.336 39.6 82.2549 39.576C82.1279 39.5386 81.9955 39.5199 81.8658 39.5199C81.1226 39.5199 80.5172 40.1184 80.5172 40.8533C80.5172 41.4332 80.8928 41.9436 81.4523 42.1226C81.5306 42.1467 81.5955 42.2055 81.6252 42.283C81.655 42.3605 81.6468 42.446 81.6063 42.5155C81.4847 42.7212 81.4171 42.9537 81.4171 43.1915C81.4171 43.9264 82.0225 44.5223 82.7657 44.5223C83.1441 44.5223 83.4954 44.37 83.7548 44.0921C83.8062 44.036 83.8792 44.0039 83.9548 44.0039H83.9494Z" fill="#0019A9"/>
        <path d="M83.9493 42.1413C83.5142 42.1413 83.1602 41.7913 83.1602 41.361C83.1602 40.9308 83.5142 40.5807 83.9493 40.5807C84.3844 40.5807 84.7384 40.9308 84.7384 41.361C84.7384 41.7913 84.3844 42.1413 83.9493 42.1413ZM83.9493 40.6957C83.5791 40.6957 83.2764 40.9949 83.2764 41.361C83.2764 41.7271 83.5791 42.0264 83.9493 42.0264C84.3196 42.0264 84.6222 41.7271 84.6222 41.361C84.6222 40.9949 84.3196 40.6957 83.9493 40.6957Z" fill="#0019A9"/>
        <path d="M83.9223 39.7524V40.6396C83.9223 40.6396 83.9412 40.6396 83.952 40.6396C83.9629 40.6396 83.971 40.6396 83.9818 40.6396V39.7524C84.0872 39.739 84.1682 39.6508 84.1682 39.5413C84.1682 39.4237 84.071 39.3275 83.952 39.3275C83.8331 39.3275 83.7358 39.4237 83.7358 39.5413C83.7358 39.6508 83.8169 39.739 83.9223 39.7524Z" fill="#0019A9"/>
        <path d="M83.2791 39.8967L83.6331 40.7117C83.6493 40.7037 83.6683 40.6957 83.6872 40.6903L83.3331 39.8753C83.425 39.8218 83.4656 39.7069 83.4223 39.6081C83.3764 39.4985 83.2467 39.4504 83.1386 39.4958C83.0278 39.5413 82.9791 39.6695 83.025 39.7764C83.0683 39.8753 83.1791 39.9261 83.2818 39.8967H83.2791Z" fill="#0019A9"/>
        <path d="M82.3198 41.3931H83.2198C83.2198 41.3931 83.2198 41.3717 83.2198 41.3611C83.2198 41.353 83.2198 41.345 83.2198 41.337H82.3198C82.3063 41.2328 82.2171 41.1526 82.1063 41.1526C81.9874 41.1526 81.8901 41.2488 81.8901 41.3664C81.8901 41.484 81.9874 41.5802 82.1063 41.5802C82.2171 41.5802 82.3063 41.5 82.3198 41.3958V41.3931Z" fill="#0019A9"/>
        <path d="M82.1359 40.9682C82.2386 41.003 82.3521 40.9576 82.398 40.8614L83.2466 41.1526C83.252 41.1339 83.2574 41.1152 83.2655 41.0992L82.4169 40.8079C82.4385 40.7037 82.3818 40.5995 82.2764 40.5621C82.1629 40.522 82.0413 40.5834 82.0007 40.693C81.9602 40.8026 82.0224 40.9255 82.1332 40.9656L82.1359 40.9682Z" fill="#0019A9"/>
        <path d="M84.4523 39.8299L84.1631 40.669C84.182 40.6743 84.1982 40.6823 84.2171 40.6877L84.5063 39.8486C84.6117 39.87 84.7171 39.8112 84.7522 39.7096C84.7901 39.5974 84.7306 39.4771 84.6171 39.4371C84.5036 39.3996 84.382 39.4584 84.3414 39.5707C84.3063 39.6722 84.355 39.7845 84.4496 39.8299H84.4523Z" fill="#0019A9"/>
        <path d="M85.3766 40.5861L84.582 41.0003C84.5928 41.0163 84.601 41.0324 84.6091 41.0511L85.4036 40.6342C85.4658 40.7197 85.582 40.7491 85.6793 40.6983C85.7847 40.6422 85.8252 40.514 85.7684 40.4097C85.7117 40.3055 85.582 40.2654 85.4766 40.3216C85.3793 40.3723 85.3387 40.4846 85.3766 40.5834V40.5861Z" fill="#0019A9"/>
        <path d="M84.4492 40.832C84.4627 40.8453 84.4762 40.8587 84.4898 40.872L85.1249 40.2441C85.2086 40.3082 85.3302 40.3029 85.4086 40.2254C85.4924 40.1425 85.4924 40.0062 85.4086 39.9234C85.3248 39.8406 85.187 39.8406 85.1032 39.9234C85.0249 40.0009 85.0195 40.1211 85.0843 40.204L84.4492 40.832Z" fill="#0019A9"/>
        <path d="M82.7768 40.2468L83.4119 40.8747C83.4254 40.8614 83.4389 40.848 83.4524 40.8346L82.8173 40.2067C82.8822 40.1238 82.8768 40.0036 82.7984 39.9261C82.7146 39.8432 82.5768 39.8432 82.493 39.9261C82.4092 40.0089 82.4092 40.1452 82.493 40.228C82.5714 40.3055 82.693 40.3109 82.7768 40.2468Z" fill="#0019A9"/>
        <path d="M85.7627 41.7646C85.66 41.7298 85.5465 41.7753 85.5006 41.8715L84.6493 41.5775C84.6439 41.5962 84.6358 41.6123 84.6304 41.631L85.4817 41.9249C85.4601 42.0291 85.5168 42.1333 85.6222 42.1708C85.7357 42.2108 85.8573 42.1494 85.8979 42.0398C85.9384 41.9276 85.8763 41.8073 85.7654 41.7672L85.7627 41.7646Z" fill="#0019A9"/>
        <path d="M85.1224 42.4861L84.4819 41.8528C84.4684 41.8661 84.4549 41.8795 84.4414 41.8928L85.0819 42.5262C85.017 42.609 85.0225 42.7293 85.1008 42.8067C85.1846 42.8896 85.3224 42.8896 85.4062 42.8067C85.49 42.7239 85.49 42.5876 85.4062 42.5048C85.3278 42.4273 85.2062 42.4219 85.1224 42.4861Z" fill="#0019A9"/>
        <path d="M84.6198 42.8361L84.263 42.0131C84.2468 42.0211 84.2279 42.0291 84.209 42.0345L84.5657 42.8575C84.4738 42.911 84.4333 43.0259 84.4765 43.1247C84.5225 43.2343 84.6522 43.2824 84.7603 43.237C84.8684 43.1916 84.9198 43.0633 84.8738 42.9564C84.8306 42.8575 84.7198 42.8068 84.6171 42.8361H84.6198Z" fill="#0019A9"/>
        <path d="M85.7951 41.1526C85.6843 41.1526 85.5951 41.2328 85.5816 41.337H84.6816C84.6816 41.337 84.6816 41.3531 84.6816 41.3611C84.6816 41.3718 84.6816 41.3824 84.6816 41.3931H85.5816C85.5951 41.4974 85.6843 41.5775 85.7951 41.5775C85.914 41.5775 86.0113 41.4813 86.0113 41.3637C86.0113 41.2462 85.914 41.15 85.7951 41.15V41.1526Z" fill="#0019A9"/>
        <path d="M83.9793 42.9778V42.0826C83.9793 42.0826 83.9604 42.0826 83.9496 42.0826C83.9388 42.0826 83.9307 42.0826 83.9199 42.0826V42.9778C83.8145 42.9911 83.7334 43.0793 83.7334 43.1889C83.7334 43.3065 83.8307 43.4027 83.9496 43.4027C84.0685 43.4027 84.1658 43.3065 84.1658 43.1889C84.1658 43.0793 84.0847 42.9911 83.9793 42.9778Z" fill="#0019A9"/>
        <path d="M83.4578 41.8928C83.4443 41.8795 83.4308 41.8661 83.4173 41.8528L82.7768 42.4861C82.693 42.4219 82.5714 42.4273 82.493 42.5048C82.4092 42.5876 82.4092 42.7239 82.493 42.8067C82.5768 42.8896 82.7146 42.8896 82.7984 42.8067C82.8768 42.7293 82.8822 42.609 82.8173 42.5262L83.4578 41.8928Z" fill="#0019A9"/>
        <path d="M83.4495 42.9003L83.7414 42.0532C83.7225 42.0478 83.7036 42.0425 83.6874 42.0345L83.3955 42.8816C83.2901 42.8602 83.1847 42.919 83.1496 43.0205C83.1117 43.1328 83.1712 43.253 83.2847 43.2931C83.3982 43.3305 83.5198 43.2717 83.5603 43.1595C83.5955 43.058 83.5468 42.9457 83.4522 42.9003H83.4495Z" fill="#0019A9"/>
        <path d="M82.5226 42.1467L83.3198 41.7299C83.309 41.7138 83.3009 41.6978 83.2928 41.6791L82.4955 42.0959C82.4334 42.0104 82.3172 41.981 82.2199 42.0318C82.1145 42.0879 82.0739 42.2162 82.1307 42.3204C82.1874 42.4246 82.3172 42.4647 82.4226 42.4086C82.5199 42.3578 82.5604 42.2456 82.5226 42.1467Z" fill="#0019A9"/>
        <path d="M48 60C35.3142 60 23.3635 56.9617 14.3532 51.4435C5.09701 45.7756 0 38.1597 0 29.9987C0 21.8376 5.09701 14.2244 14.3505 8.55654C23.3635 3.03835 35.3142 0 48 0C60.6858 0 72.6364 3.03835 81.6467 8.55654C90.903 14.2244 95.9973 21.8376 95.9973 29.9987C95.9973 38.1597 90.9003 45.7756 81.6467 51.4408C72.6337 56.959 60.6858 59.9973 48 59.9973V60ZM48 0.53445C35.4142 0.53445 23.5635 3.54607 14.637 9.01082C5.54563 14.5771 0.54051 22.03 0.54051 29.9987C0.54051 37.9673 5.54563 45.4202 14.637 50.9865C23.5662 56.4539 35.4142 59.4629 48 59.4629C60.5858 59.4629 72.4365 56.4513 81.363 50.9865C90.4517 45.4202 95.4595 37.9673 95.4595 29.9987C95.4595 22.03 90.4544 14.5771 81.363 9.01082C72.4338 3.54607 60.5858 0.53445 48 0.53445Z" fill="#0019A9"/>
        <path d="M47.9999 58.5302C22.3527 58.5302 1.48633 45.7329 1.48633 29.9987C1.48633 14.2645 22.3527 1.46973 47.9999 1.46973C73.6471 1.46973 94.5135 14.2671 94.5135 29.9987C94.5135 45.7302 73.6471 58.5302 47.9999 58.5302ZM47.9999 1.73695C22.5014 1.73695 1.75658 14.4168 1.75658 29.9987C1.75658 45.5805 22.5014 58.263 47.9999 58.263C73.4985 58.263 94.2433 45.5832 94.2433 29.9987C94.2433 14.4141 73.4985 1.73695 47.9999 1.73695Z" fill="#0019A9"/>
        <path d="M36.0413 28.3232C34.8576 28.1308 34.009 27.3318 33.4226 26.2442C32.5577 26.9042 31.5848 27.4574 30.4552 27.8288L30.1065 27.1394C31.193 26.5328 32.1118 25.846 32.8793 25.0176C32.3794 23.5585 32.1551 21.8082 32.0713 20.253H29.8579V22.1129C30.4714 21.9071 31.0686 21.6853 31.6254 21.4662L31.9307 22.1129C31.3308 22.5671 30.6227 23.0081 29.8552 23.4062V26.7118C29.8552 28.4888 28.1147 28.8175 25.7176 27.5803L25.8851 26.8908C28.0012 27.1928 28.1688 27.0699 28.1688 26.2709V24.2052C27.3607 24.5366 26.5527 24.8252 25.7743 25.0443L25.2041 23.3635C26.1932 23.1577 27.1959 22.9092 28.1715 22.6339V20.2503H25.4284V19.3551H28.1715V17.9655C27.3634 18.1018 26.5283 18.1847 25.7473 18.2408L25.6365 17.4979C27.685 17.057 29.412 16.437 30.7768 15.638L31.9064 16.9741C31.3497 17.2226 30.6389 17.4418 29.8579 17.6342V19.3551H32.0307C32.0037 18.3236 31.9875 17.3028 32.0037 15.6914H33.6901C33.6766 17.3162 33.6901 18.3343 33.7171 19.3551H37.5061V20.2503H33.7604C33.8306 21.3112 33.955 22.3854 34.1631 23.3474C34.636 22.5912 35.0414 21.7494 35.39 20.8008L36.9629 21.4608C36.3927 22.7702 35.6549 24.0075 34.6928 25.055C34.9981 25.7712 35.417 26.3083 35.9467 26.5434C36.4197 26.7492 36.517 26.4873 36.5035 24.272H37.2277C37.9385 26.8748 37.8277 28.6225 36.044 28.3205L36.0413 28.3232ZM35.7197 19.0424C35.2603 18.1472 34.6063 17.073 34.0766 16.274L34.6468 15.793C35.5522 16.3702 36.5278 17.2814 37.125 18.0644L35.7197 19.0424Z" fill="#0019A9"/>
        <path d="M53.0295 28.104C52.1242 28.1601 51.3864 28.1735 50.481 28.1174C49.0324 28.0212 48.6973 27.8421 48.6973 26.7679V25.846H47.8487C47.1947 27.4012 45.5083 28.2831 42.3058 28.4487L42.168 27.7887C44.4786 27.444 45.5948 26.7706 46.0813 25.846H44.1733V21.5757H52.1674V25.846H50.3297V26.3003C50.3297 26.6183 50.4135 26.7412 51.0404 26.7813C51.5972 26.8213 52.0296 26.8213 52.6268 26.7813C53.0998 26.7412 53.2944 26.6156 53.2268 25.0042H53.8943C54.6186 27.5803 54.1024 28.0345 53.0322 28.1014L53.0295 28.104ZM43.9489 22.5404H42.3896V20.2262H43.449C43.422 18.9997 43.3517 17.4444 43.2814 16.3167L44.4381 16.4397C44.8975 16.2473 45.384 15.972 45.8299 15.6006L46.8191 16.4129C46.2056 16.6882 45.4948 16.8405 44.8408 16.9233C44.8543 17.1157 44.8678 17.3081 44.8678 17.5005H46.3867V18.2301H44.8975C44.8975 18.4225 44.9111 18.6149 44.9111 18.8073H46.4299V19.5368H44.9408C44.9408 19.772 44.9543 20.0044 44.9543 20.2262H46.6407L46.4731 19.812C46.8488 19.6464 47.2542 19.4139 47.6298 19.152C47.3379 18.9329 47.0461 18.7378 46.8082 18.5881L47.0461 18.1071C47.3947 18.2167 47.8541 18.4091 48.3001 18.6443C48.5649 18.4251 48.8027 18.19 48.9676 17.9548L49.0514 18.0109C48.8568 17.8319 48.619 17.6261 48.3838 17.4337C47.8406 17.7517 47.2704 17.9976 46.7677 18.1232L46.5866 17.6261C46.9758 17.4605 47.3812 17.2119 47.7433 16.9233C47.3947 16.6481 47.0596 16.4129 46.7974 16.2339L47.0758 15.7796C47.4379 15.9025 47.8974 16.1243 48.3568 16.3862C48.6217 16.1243 48.8433 15.8491 49.0541 15.5739L49.9162 16.1671C49.7216 16.4156 49.4703 16.6481 49.1919 16.8833C49.527 17.089 49.8054 17.2814 50.0135 17.4471L49.3027 18.2033L49.8189 18.5614C49.6243 18.7538 49.4162 18.9462 49.1919 19.1119C49.4838 19.291 49.7621 19.4566 49.9567 19.5929L49.4405 20.2262H51.4729C51.4864 20.0071 51.4864 19.7853 51.4999 19.5502H50.0648V18.8206H51.5404C51.5404 18.6416 51.5539 18.4626 51.5674 18.2835H50.1054V17.554H51.5945C51.5945 17.3482 51.608 17.1532 51.608 16.9901H50.0621V16.2312H51.5242L51.7891 15.9426L53.1673 16.3007C53.0971 17.5674 52.9998 19.1386 52.9295 20.2262H53.9592V22.5404H52.4133V21.052H43.9462V22.5404H43.9489ZM45.8705 22.7889H50.4675V22.2919H45.8705V22.7889ZM45.8705 23.9433H50.4675V23.4196H45.8705V23.9433ZM45.8705 25.1432H50.4675V24.5793H45.8705V25.1432ZM47.138 20.2262H49.0054L48.3379 19.6758C47.9487 19.9109 47.5298 20.1033 47.1407 20.2262H47.138Z" fill="#0019A9"/>
        <path d="M62.037 21.0119V28.3659H60.3101V22.8157C59.8912 23.1737 59.4318 23.5051 58.9453 23.7937L58.5562 23.2566C59.9209 21.9632 60.9668 20.2556 61.7587 18.3396L63.318 19.0959C62.9559 19.7292 62.537 20.3759 62.037 21.0092V21.0119ZM59.0426 20.0606L58.667 19.5368C59.7669 18.4492 60.602 17.1692 61.2857 15.5445L62.9019 16.3969C61.983 17.7197 60.6182 19.2054 59.0453 20.0606H59.0426ZM71.1041 23.1604V23.9995H69.1691V26.8775C69.1691 28.4327 67.5665 28.9431 65.2828 27.6337L65.4774 27.0004C67.1476 27.3318 67.3989 27.2195 67.3989 26.5034V23.9968H62.3857V23.1577H67.3989V22.2358H62.7478V21.3967H70.769V22.2358H69.1664V23.1577H71.1014L71.1041 23.1604ZM66.2287 25.9288L64.9477 26.9469C64.4883 26.0517 64.0153 25.2928 63.5126 24.5793L63.9991 24.1251C64.7369 24.566 65.6152 25.2688 66.2287 25.9288ZM69.8636 20.6939H63.6532V16.1778H69.8636V20.6939ZM68.1502 17.0169H65.3639V18.035H68.1502V17.0169ZM68.1502 18.8634H65.3639V19.8682H68.1502V18.8634Z" fill="#0019A9"/>
        <path d="M36.6658 38.785V45.8772H34.9956V40.5327C34.5767 40.8907 34.147 41.2087 33.7146 41.4546L33.2822 40.8907C34.5767 39.6642 35.7902 37.6947 36.528 35.8776L38.1009 36.6499C37.7387 37.326 37.2361 38.0689 36.6658 38.785ZM33.7281 37.6547L33.3255 37.0774C34.3984 36.0299 35.3308 34.5709 35.9983 33.029L37.6279 33.8681C36.7631 35.2176 35.2173 36.869 33.7281 37.6547ZM46.1085 44.2391L45.0789 45.9333C43.1709 44.9285 41.3466 42.601 40.9548 39.3515H40.0494V43.8142C40.6899 43.6752 41.3034 43.5389 41.8466 43.4L42.1547 44.0467C40.8737 44.8457 38.8819 45.618 37.4604 45.8772L36.9874 44.2925C37.4198 44.2524 37.8658 44.183 38.3252 44.1135V33.8547H44.9951V39.3489H41.7628C42.0412 40.2173 42.3763 40.9469 42.7925 41.5508C43.2952 40.987 43.7384 40.3803 44.1843 39.6508L45.5626 40.7117C44.9086 41.2756 44.114 41.8554 43.333 42.267C44.0978 43.1354 45.0329 43.726 46.1058 44.2364L46.1085 44.2391ZM40.0521 36.209H43.2979V34.6804H40.0521V36.209ZM40.0521 38.5231H43.2979V37.0213H40.0521V38.5231Z" fill="#0019A9"/>
        <path d="M54.6297 36.209H50.2002V35.3565H52.1352C51.7325 34.6403 51.2866 33.9509 50.938 33.4699L51.4109 32.9889C52.1487 33.4031 52.9973 34.0765 53.5703 34.7232L52.7622 35.3565H54.627V36.209H54.6297ZM54.3081 38.0822H50.5894V37.2565H54.3081V38.0822ZM50.5921 39.0335H54.3108V39.8592H50.5921V39.0335ZM54.3513 44.68H52.0406V45.7809H50.5921V40.8506H54.354V44.68H54.3513ZM52.946 41.6764H52.0406V43.8516H52.946V41.6764ZM57.3863 43.6191L58.4159 44.541C57.5376 45.1343 55.7702 45.7676 54.2783 46.0001L54.0567 45.34C55.1864 44.9419 56.2161 44.362 57.1079 43.6191H55.1864V38.5659C55.0324 38.6754 54.8648 38.7716 54.7135 38.8411L54.4081 38.3468C55.1324 37.7268 55.3837 37.1763 55.4242 36.3773H54.8243V35.6879H56.2458V34.945H55.6323C55.535 35.1507 55.4107 35.3725 55.2567 35.5783L54.727 35.3725C54.908 34.8354 55.0188 34.0097 55.0891 33.4165L56.0918 33.6089C56.0377 33.844 55.9674 34.0631 55.8972 34.2849H56.2458V33.1412H57.5133V34.2849H58.3078V34.945H57.5133V35.6879H58.4457V36.3773H57.9025V36.9973C58.097 36.9411 58.2916 36.8743 58.4862 36.7915L58.6943 37.2591C58.1376 37.6867 57.3863 38.0715 56.562 38.3601L56.2566 37.4088C56.4512 37.3687 56.6458 37.3393 56.8404 37.2859V36.3773H56.4647C56.3809 37.4515 55.7972 38.1544 55.1972 38.5659H58.2322L57.9943 38.125C58.8997 37.5745 59.1078 37.1336 59.1375 36.3613H58.5943V35.6718H59.8186V34.9289H59.1348C59.024 35.1481 58.8835 35.3565 58.7457 35.5222L58.2862 35.3298C58.4808 34.7927 58.5916 34.1326 58.6754 33.3871L59.6078 33.5795C59.5672 33.7986 59.497 34.0337 59.4267 34.2555H59.8159V33.1679H61.0834V34.2555H62.2265V34.9316H61.0834V35.6745H62.4346V36.3639H61.405V37.0801C61.405 37.3153 61.4617 37.3553 61.7401 37.3553C61.9779 37.3553 62.0049 37.2324 62.0049 36.7087H62.5049C62.7833 37.9753 62.5454 38.2639 61.6698 38.2639C60.5969 38.2639 60.3888 38.1116 60.3888 37.4248V36.3639H60.151C60.0537 37.5344 59.4132 38.2238 58.3835 38.5685H61.8779V43.6218H57.3782L57.3863 43.6191ZM56.7323 40.0089H60.3267V39.3328H56.7323V40.0089ZM56.7323 41.4279H60.3267V40.7117H56.7323V41.4279ZM56.7323 42.8602H60.3267V42.1307H56.7323V42.8602ZM62.8616 44.7468L62.0968 46.123C61.2482 45.5992 59.8969 44.8136 58.9213 44.3192L59.1727 43.6592C60.2996 43.8516 61.7077 44.2658 62.8643 44.7468H62.8616Z" fill="#0019A9"/>
    </g>
    <defs>
        <clipPath id="clip0_159_1298">
            <rect width="96" height="60" fill="white"/>
        </clipPath>
    </defs>
</svg>
