<svg width="96" height="60" viewBox="0 0 96 60" fill="none"
    xmlns="http://www.w3.org/2000/svg">
    <path d="M48.2222 58.5288C22.6937 58.5288 1.92383 45.7317 1.92383 30.0006C1.92383 14.2694 22.6937 1.4697 48.2222 1.4697C73.7508 1.4697 94.5206 14.2668 94.5206 30.0006C94.5206 45.7344 73.7508 58.5288 48.2222 58.5288ZM48.2222 1.73691C22.8416 1.73691 2.19283 14.4164 2.19283 29.9979C2.19283 45.5794 22.8416 58.2589 48.2222 58.2589C73.6028 58.2589 94.2516 45.5794 94.2516 29.9979C94.2516 14.4164 73.6028 1.73691 48.2222 1.73691Z" fill="#D90000"/>
    <path d="M48.2222 50.8757C28.4181 50.8757 12.3047 41.5097 12.3047 29.9979C12.3047 18.4862 28.4154 9.12283 48.2222 9.12283C68.029 9.12283 84.1397 18.4888 84.1397 30.0006C84.1397 41.5123 68.0263 50.8783 48.2222 50.8783V50.8757ZM48.2222 9.39005C28.566 9.39005 12.5737 18.6358 12.5737 30.0006C12.5737 41.3654 28.566 50.6111 48.2222 50.6111C67.8784 50.6111 83.8707 41.3654 83.8707 30.0006C83.8707 18.6358 67.8784 9.39005 48.2222 9.39005Z" fill="#D90000"/>
    <path d="M26.5809 11.6854L26.5244 12.2172C25.5076 12.2119 24.2513 11.787 23.517 10.6994L23.4551 10.7208C23.5412 12.0115 22.9574 13.0055 21.6743 13.8285L21.5505 13.6816C22.6319 12.8559 23.0758 11.9446 23.0327 10.8571L20.8968 11.5465L20.8242 11.322L21.6205 11.0655L21.0475 9.31255L22.5512 8.82621L22.2284 7.84018L22.6292 7.71191L22.952 8.69795L24.4343 8.21963L25.0072 9.97258L25.8089 9.71338L25.8815 9.93784L23.7106 10.638C24.3536 11.3648 25.4161 11.7335 26.5836 11.6854H26.5809ZM23.0139 10.6139C22.9763 10.2478 22.8875 9.86302 22.7503 9.44883L22.6185 9.04533L21.486 9.41142L21.989 10.9453L23.0139 10.6139ZM23.0193 8.91707L23.1941 9.44883C23.3125 9.81225 23.3932 10.1516 23.4309 10.4803L24.6253 10.0955L24.1222 8.56167L23.0166 8.91974L23.0193 8.91707Z" fill="#D90000"/>
    <path d="M47.7458 5.73447C47.8534 5.45389 47.9529 5.07444 48.0067 4.74843L47.4311 4.76981L47.5279 7.42329C47.5441 7.8642 47.2939 8.17417 46.234 7.74662L46.2797 7.56758C47.0491 7.68783 47.1379 7.66111 47.1244 7.34846L47.0303 4.78317L46.0242 4.82058L46.0161 4.59612L47.4499 4.54535C47.2266 4.29416 46.8823 3.95479 46.6052 3.69292L46.7128 3.54862C46.8823 3.64215 47.0948 3.77041 47.2885 3.91204C47.4687 3.63948 47.657 3.29209 47.7485 3.03022L46.1425 3.08901L46.1345 2.87256L47.7404 2.81377L47.8669 2.72025L48.2784 2.94738C48.0552 3.34286 47.727 3.7624 47.4526 4.03229C47.5871 4.12849 47.7082 4.23003 47.7942 4.31554L47.5844 4.54802L47.9745 4.53466L48.0901 4.43579L48.4829 4.61482C48.3269 5.05039 48.0552 5.58482 47.8911 5.81463L47.7404 5.74248L47.7458 5.73447ZM49.3867 6.78998L49.7633 7.03047C49.3087 7.43665 48.6066 7.83213 47.9691 8.03789L47.8911 7.86954C48.4049 7.64508 48.9832 7.24158 49.3867 6.78998ZM49.5401 3.04892L48.386 3.09168L48.378 2.86187L51.2079 2.76033L51.216 2.99014L49.9786 3.03556C49.8683 3.29744 49.7418 3.56198 49.6423 3.74369L50.869 3.69826L50.9766 6.6056L48.725 6.68844L48.6174 3.7811L49.4352 3.75171C49.4809 3.53793 49.5132 3.26537 49.5401 3.0516V3.04892ZM50.4924 3.9441L49.0048 3.99755L49.029 4.62818L50.5166 4.57474L50.4924 3.9441ZM50.5219 4.80455L49.0343 4.85799L49.0586 5.52336L50.5462 5.46992L50.5219 4.80455ZM50.5569 5.69973L49.0693 5.75317L49.0935 6.44259L50.5811 6.38915L50.5569 5.69973ZM51.5334 7.47138L51.2913 7.85618C50.9739 7.60232 50.4009 7.20951 49.9409 6.93962L50.0189 6.77127C50.5166 6.92359 51.0895 7.19348 51.5334 7.47138Z" fill="#D90000"/>
    <path d="M51.2809 55.1324C51.0307 55.0817 50.7133 54.9935 50.3824 54.8706L50.4497 56.7304L50.065 56.7438L50.0543 56.4659L47.531 56.5567L47.5418 56.8453L47.1625 56.8587L47.0925 54.9881C46.7778 55.1351 46.455 55.2634 46.1402 55.3649L46.0757 55.1966C46.8477 54.9026 47.7785 54.3816 48.225 53.8177L46.194 53.8926L46.186 53.6627L47.7032 53.6066C47.5175 53.4009 47.3131 53.1898 47.1544 53.0428L47.2216 52.9519C47.114 52.9626 47.0091 52.9707 46.9069 52.976L46.8773 52.7996C48.182 52.658 49.258 52.3881 49.796 52.1877L50.1646 52.4977C49.8122 52.5939 49.3468 52.6927 48.8411 52.7702L48.8706 53.5639L49.3279 53.5478C49.4974 53.3127 49.6992 52.968 49.8417 52.6687L50.1915 52.8557C49.9816 53.123 49.7772 53.3661 49.5754 53.5372L51.1679 53.4784L51.176 53.7082L48.9675 53.7883C49.6588 54.3361 50.6353 54.6007 51.4396 54.7129L51.2836 55.1298L51.2809 55.1324ZM46.6675 53.163L46.2774 53.1764L46.2371 52.0755L48.7496 51.9846C48.4402 51.8243 48.0556 51.6559 47.7354 51.533L47.7839 51.362C48.1174 51.4074 48.6366 51.5063 49.0213 51.664L48.8787 51.9819L51.0281 51.9045L51.0684 53L50.6784 53.0134L50.6461 52.153L46.6352 52.2973L46.6675 53.163ZM50.178 54.7904C49.6965 54.59 49.2042 54.3067 48.8841 53.954L48.911 54.6728L48.5209 54.6862L48.4967 54.0262C48.217 54.3495 47.7785 54.6408 47.2889 54.8946L50.1807 54.7904H50.178ZM48.0367 53.4543L47.8942 53.6013L48.4806 53.5799L48.4537 52.8264C48.0878 52.8745 47.7032 52.9172 47.3319 52.9493C47.5848 53.0802 47.843 53.2673 48.0394 53.4543H48.0367ZM48.5451 55.079L47.4799 55.1164L47.496 55.5921L48.5613 55.5546L48.5425 55.079H48.5451ZM48.572 55.7845L47.5068 55.8219L47.5256 56.3269L48.5909 56.2895L48.572 55.7845ZM50.0031 55.0256L48.9244 55.0656L48.9433 55.5413L50.022 55.5012L50.0058 55.0256H50.0031ZM50.0301 55.731L48.9513 55.7711L48.9702 56.2761L50.0489 56.2361L50.0301 55.731Z" fill="#D90000"/>
    <path d="M24.6122 50.0179L24.1145 52.0007C23.9881 52.503 23.5335 52.487 22.7964 51.99L22.8663 51.8377C23.6142 52.1156 23.6949 52.1156 23.7756 51.7976L24.1898 50.1515C23.9128 50.229 23.6411 50.2931 23.3801 50.3386L23.2994 49.911C23.5846 49.8896 23.9316 49.8549 24.2813 49.7961L24.6122 48.4814L23.8078 48.281L23.8643 48.0592L24.6687 48.2596L24.9538 47.1239L25.3223 47.2148L25.0372 48.3505L25.6586 48.5054L25.6021 48.7272L24.9807 48.5723L24.6902 49.7213C24.8892 49.6812 25.0856 49.6304 25.2632 49.5797L25.3089 49.7427C25.0937 49.8469 24.857 49.9404 24.6149 50.0206L24.6122 50.0179ZM28.0581 53.0776L27.7891 53.4463C27.5147 53.318 26.5544 52.7462 26.4495 51.6319H26.4441C25.8873 52.4817 25.0103 52.6687 24.0876 52.5752L24.0742 52.4095C24.9592 52.4416 25.6182 52.1984 26.0594 51.5357L24.6283 51.1803L24.6848 50.9532L26.1858 51.3273C26.2773 51.1563 26.3634 50.9585 26.4333 50.734L26.8072 50.8516C26.74 51.0654 26.662 51.2578 26.5705 51.4235L28.2437 51.8403L28.1872 52.0675L26.6351 51.6827C26.853 52.3935 27.5389 52.8477 28.0608 53.0802L28.0581 53.0776ZM26.9175 47.5622L27.2726 47.7973C27.1516 47.9363 27.0413 48.0619 26.9283 48.1741L27.6465 48.3531L27.7864 48.3077L28.1092 48.599C27.9075 48.8208 27.5524 49.0907 27.2915 49.2456L28.4482 49.5342L27.9559 51.4876L27.5927 51.3967L28.0285 49.6652L26.0621 49.1762L25.6209 50.9238L25.2578 50.8329L25.7151 49.0158C25.5887 49.0746 25.4595 49.1281 25.3277 49.1735L25.2578 49.0158C25.8765 48.7192 26.4791 48.2142 26.9149 47.5568L26.9175 47.5622ZM27.2134 49.5904C27.1354 49.7053 27.0601 49.8068 26.9767 49.903C27.2565 50.1782 27.4878 50.4909 27.6196 50.7234L27.3022 50.9184C27.1892 50.6405 27.0305 50.3279 26.853 50.0366C26.5571 50.3332 26.2208 50.5363 25.8469 50.6619L25.7716 50.4962C26.237 50.2531 26.6082 49.9164 26.9041 49.3953L27.2134 49.593V49.5904ZM25.9411 48.9116L27.052 49.1869C27.2565 49.0078 27.4609 48.7727 27.5981 48.5749L26.7292 48.3585C26.4629 48.591 26.2047 48.7673 25.9437 48.9089L25.9411 48.9116Z" fill="#D90000"/>
    <path d="M72.3385 48.7299C72.2847 48.9277 72.2201 49.1281 72.1448 49.3178L74.7272 48.4841L75.6203 51.2177L75.2383 51.3407L75.1146 50.9665L72.8254 51.7067L72.9545 52.1049L72.5698 52.2278L71.8381 49.9939C71.5933 50.4642 71.2867 50.8971 70.945 51.2605L70.7998 51.1402C71.3378 50.4588 71.7305 49.6759 71.9242 48.8635L70.442 49.3419L70.3694 49.1174L71.9861 48.5937C72.013 48.4307 72.0426 48.2676 72.056 48.102L70.5281 48.5963L70.4554 48.3772L72.0722 47.8535C72.0856 47.6824 72.0829 47.5087 72.0722 47.3404C71.483 47.5943 70.867 47.8294 70.3182 48.0004L70.2402 47.8401C71.7278 47.2602 72.9115 46.6136 73.6781 46.0604L74.1516 46.2715C73.783 46.52 73.1724 46.8407 72.4945 47.148C72.5053 47.3377 72.5133 47.5275 72.4999 47.7172L74.6089 47.0358L74.6815 47.2549L72.4837 47.9657C72.4649 48.134 72.4353 48.297 72.3977 48.4627L75.1603 47.5702L75.233 47.7947L72.3358 48.7299H72.3385ZM74.4152 48.8315L72.126 49.5717L72.2847 50.0527L74.5739 49.3125L74.4152 48.8315ZM74.6438 49.5262L72.3546 50.2664L72.5187 50.7661L74.8079 50.0259L74.6438 49.5262ZM74.8752 50.2317L72.586 50.9719L72.7554 51.4876L75.0447 50.7474L74.8752 50.2317Z" fill="#D90000"/>
    <path d="M75.0802 12.5245C74.865 12.3882 74.6013 12.1878 74.3404 11.9526L73.719 13.7083L73.3558 13.5827L73.4473 13.3208L71.0666 12.4871L70.9698 12.7596L70.612 12.6341L71.2388 10.8677C70.8918 10.8891 70.5447 10.8945 70.2139 10.8704V10.6887C71.0424 10.6967 72.0996 10.5498 72.7237 10.1863L70.8057 9.51562L70.8837 9.29917L72.3148 9.79887C72.218 9.53967 72.105 9.26978 72.0135 9.07471L72.1104 9.01592C72.0081 8.98653 71.9059 8.95713 71.8091 8.92239L71.8467 8.7487C73.1137 9.09074 74.214 9.23237 74.7896 9.24038L75.0156 9.66259C74.6524 9.62251 74.1844 9.54768 73.684 9.43278L73.4177 10.1837L73.8481 10.3333C74.0929 10.1756 74.405 9.92981 74.6498 9.70267L74.908 10.0046C74.6148 10.1756 74.335 10.328 74.0848 10.4161L75.5886 10.9426L75.5106 11.159L73.4258 10.4295C73.867 11.1884 74.6767 11.7896 75.3868 12.1878L75.0855 12.5191L75.0802 12.5245ZM72.3175 12.145L71.3114 11.7923L71.1419 12.2706L72.148 12.6234L72.3175 12.145ZM71.5105 9.01058L71.1419 8.88231L71.5105 7.84283L73.8804 8.67121C73.6517 8.41201 73.3558 8.11272 73.1057 7.88291L73.2133 7.73862C73.5065 7.90429 73.953 8.18487 74.2543 8.4708L74.0042 8.71396L76.0324 9.42209L75.6666 10.4562L75.2981 10.328L75.5859 9.51562L71.801 8.19289L71.5105 9.01058ZM72.5542 11.477L71.5481 11.1243L71.3894 11.5732L72.3955 11.9259L72.5542 11.477ZM74.179 11.803C73.8051 11.4423 73.4527 10.9987 73.2832 10.5524L73.0438 11.2312L72.6753 11.1029L72.8958 10.4803C72.5165 10.678 72.0001 10.7902 71.4513 10.849L74.179 11.803ZM72.678 9.78016L72.4897 9.86567L73.0438 10.0581L73.2967 9.34727C72.9389 9.25909 72.565 9.16022 72.2072 9.05333C72.3955 9.26978 72.565 9.53432 72.678 9.78016ZM73.6921 12.626L72.6753 12.2706L72.5058 12.749L73.5226 13.1044L73.6921 12.626ZM73.9288 11.958L72.912 11.6026L72.7533 12.0515L73.7701 12.4069L73.9288 11.958Z" fill="#D90000"/>
    <path d="M33.3275 7.48745C33.4996 7.14007 33.6745 6.6858 33.8224 6.17007C33.5104 6.32773 33.1472 6.48538 32.8728 6.59227L32.7061 6.24222L33.0073 6.18075C33.1257 5.69442 33.2252 5.03973 33.2575 4.37169L33.6772 4.41444C33.5642 4.99431 33.3732 5.69442 33.201 6.12998C33.4324 6.0712 33.6664 6.00706 33.8816 5.94026C33.9462 5.69175 34.0027 5.42987 34.0457 5.16265L34.4492 5.25084C34.2636 5.98301 33.9031 6.85414 33.5561 7.40996C33.8386 7.31643 34.1318 7.21222 34.4062 7.10266C34.3039 6.95569 34.2017 6.81406 34.113 6.69381L34.2475 6.58425C34.5111 6.80872 34.8366 7.13472 35.041 7.42866L34.7451 7.64244C34.6725 7.52486 34.5918 7.39125 34.5057 7.25764C34.0618 7.53822 33.4781 7.83484 33.1445 7.96844L32.9535 7.58632C33.0692 7.55693 33.1956 7.52753 33.3275 7.48745ZM33.5238 8.1261H33.6933C33.8063 8.74872 33.8144 9.35263 33.7417 9.7695L33.3167 9.66795C33.4539 9.26713 33.5454 8.72734 33.5265 8.1261H33.5238ZM34.0968 7.94707C34.312 8.32384 34.5703 8.90905 34.6967 9.23773L34.3147 9.3847C34.2286 9.02396 34.0672 8.42539 33.9381 8.00051L34.0968 7.9444V7.94707ZM35.1513 8.5296L34.842 8.73002C34.6913 8.39867 34.5165 8.08068 34.3551 7.78674L34.5003 7.69054C34.737 7.93905 34.9522 8.22497 35.154 8.52693L35.1513 8.5296ZM36.2408 6.99844L35.1083 7.22291L34.6214 4.80458L35.6382 4.6015C35.6651 4.37436 35.6732 4.1205 35.6705 3.85596L36.0901 3.86932C36.0229 4.10447 35.9368 4.361 35.848 4.55874L37.4109 4.24877L37.8978 6.66709L36.2865 6.98775C36.6066 7.11067 36.9994 7.31376 37.3087 7.53555L37.0801 7.86957C36.7869 7.59167 36.4345 7.33247 36.1574 7.13472L36.2381 6.99844H36.2408ZM35.4257 6.92629L35.7108 6.87018L35.6301 6.77131C35.8722 6.56555 36.1009 6.31704 36.2811 6.01241C36.1143 5.93759 35.9476 5.86277 35.7835 5.79329C35.7001 5.95362 35.6086 6.09792 35.5198 6.22351L35.3746 6.138C35.4499 5.99637 35.5118 5.85742 35.5602 5.71045C35.4687 5.67571 35.3773 5.6383 35.2858 5.60891L35.3262 5.45125L35.6248 5.51805C35.6893 5.29626 35.7377 5.06378 35.7673 4.8126L35.0303 4.95957L35.4284 6.92897L35.4257 6.92629ZM35.3262 7.74933L35.5064 7.74398C35.6005 8.24101 35.6032 8.69795 35.4983 9.13886L35.0921 9.0106C35.2777 8.58839 35.345 8.2517 35.3262 7.74933ZM37.5724 7.79475C37.8952 8.52426 37.8736 8.81018 37.4486 8.92509C37.1608 8.99991 36.8702 9.05869 36.6228 9.09076C36.1359 9.15757 35.996 9.04801 35.9099 8.61511L35.6624 7.39125L36.039 7.31643L36.2784 8.50021C36.3242 8.73002 36.4156 8.76208 36.6389 8.73536C36.8326 8.70864 37.0774 8.66588 37.2953 8.59908C37.5186 8.53228 37.5428 8.48418 37.3975 7.84018L37.5697 7.8001L37.5724 7.79475ZM37.0881 4.54805L35.8749 4.79122L36.1224 4.82061C36.0955 4.93285 36.0767 5.03973 36.0417 5.14395L36.5179 5.04775L36.6228 4.93552L36.9644 5.03706C36.9025 5.3604 36.8111 5.63296 36.6954 5.86009C36.9052 5.9456 37.1043 6.03111 37.3007 6.12998L37.1204 6.44263C36.9402 6.33307 36.7465 6.2342 36.5448 6.12998C36.3322 6.45332 36.0821 6.67778 35.8373 6.84613L37.489 6.51745L37.0908 4.54805H37.0881ZM35.883 5.58486C36.0552 5.63296 36.23 5.68907 36.4049 5.75053C36.4748 5.59288 36.5259 5.41918 36.5636 5.22679L35.9772 5.34436C35.9449 5.42987 35.9126 5.50737 35.8803 5.58486H35.883ZM38.53 8.15817L38.226 8.39332C38.0081 8.02723 37.7876 7.69321 37.5132 7.35117L37.6342 7.23627C37.9651 7.50081 38.2825 7.81079 38.5273 8.15817H38.53Z" fill="#D90000"/>
    <path d="M13.6877 16.971L12.3749 17.8822L12.6359 18.2537L12.2969 18.4888L10.8174 16.3831L12.4691 15.2368L11.81 14.3015L12.1597 14.0583L12.8188 14.9936L14.4758 13.8446L15.9365 15.9209L15.6003 16.1533L15.3582 15.8113L14.0374 16.7279L15.334 18.5717L14.9843 18.8148L13.6877 16.971ZM13.5451 16.7679L12.6143 15.4452L11.3016 16.3564L12.2323 17.6792L13.5451 16.7679ZM15.2156 15.6082L14.2849 14.2855L12.964 15.202L13.8948 16.5248L15.2156 15.6082Z" fill="#D90000"/>
    <path d="M63.6174 9.04266L62.1514 8.67925L61.8797 9.75346L61.5004 9.65994L61.7694 8.58572L60.4297 8.2517C59.9993 8.92241 59.2703 9.06938 58.353 8.93043L58.3638 8.74338C59.1923 8.80484 59.7115 8.67925 60.0451 8.15283L58.614 7.79743L58.6705 7.57564L60.1607 7.9444C60.2226 7.82148 60.2764 7.67718 60.3221 7.51685L59.5635 7.32712L60.0666 5.32833L63.4829 6.17808L62.9799 8.17688L62.3182 8.0112L62.2079 8.45211L63.6739 8.81553L63.6174 9.03732V9.04266ZM59.2219 5.4085L59.1385 5.25351C59.6416 4.93552 60.1876 4.3423 60.5266 3.7464L60.8924 3.97086C60.7956 4.11516 60.6853 4.25946 60.5589 4.39841L62.0814 4.77786L62.0249 4.99965L61.0296 4.75381C61.1345 4.94354 61.2179 5.14662 61.2959 5.39781L60.9113 5.47263C60.8817 5.17334 60.8467 4.95155 60.801 4.6977L60.3759 4.59081C60.0182 4.94621 59.5985 5.25351 59.2219 5.4085ZM59.994 7.20153L62.6625 7.86423L62.7593 7.47676L60.0908 6.81406L59.994 7.20153ZM60.1419 6.60831L62.8104 7.27101L62.9073 6.88354L60.2387 6.22084L60.1419 6.60831ZM60.2925 6.01241L62.9611 6.67511L63.0552 6.30368L60.3867 5.64098L60.2925 6.01241ZM61.8286 8.36126L61.9389 7.92035L60.7095 7.61572C60.6638 7.77338 60.61 7.91767 60.5481 8.04327L61.8313 8.36126H61.8286ZM61.5327 5.50737C61.9362 5.26153 62.3989 4.83665 62.7351 4.2942L63.0848 4.52668C62.9745 4.67365 62.8481 4.80726 62.727 4.93018L64.5213 5.37643L64.4648 5.59822L63.2462 5.29626C63.3538 5.49935 63.4507 5.72381 63.5233 5.97233L63.1413 6.03379C63.1117 5.7345 63.0794 5.50202 63.0283 5.24015L62.5172 5.11188C62.1998 5.37376 61.8743 5.55279 61.6134 5.66503L61.5327 5.50469V5.50737Z" fill="#D90000"/>
    <path d="M59.795 52.2759L59.4103 52.3534L59.1924 51.2738L61.6565 50.7821C61.3256 50.6726 60.9194 50.5684 60.5831 50.4962L60.602 50.3172C60.9382 50.3092 61.4682 50.3252 61.8744 50.4187L61.7856 50.7554L63.8946 50.3359L64.1125 51.4101L63.7278 51.4876L63.5583 50.6459L59.6255 51.4288L59.795 52.2786V52.2759ZM64.6693 53.4864C64.4138 53.4784 64.0856 53.441 63.7386 53.3715L64.1071 55.1966L63.7305 55.2714L63.674 54.9988L61.1992 55.4905L61.2556 55.7738L60.8844 55.8486L60.5132 54.0128C60.2254 54.2079 59.9295 54.3869 59.6336 54.5365L59.5421 54.3816C60.2576 53.97 61.0889 53.3047 61.4413 52.6767L59.4479 53.0749L59.4022 52.8504L60.8898 52.5538C60.6746 52.3801 60.4379 52.2064 60.2576 52.0862L60.3088 51.9846C60.2065 52.0113 60.1016 52.0381 60.0048 52.0568L59.9456 51.8884C61.2126 51.541 62.2294 51.1028 62.7271 50.8169L63.1387 51.0654C62.8078 51.215 62.3639 51.3887 61.8744 51.5437L62.0331 52.324L62.4796 52.2358C62.6087 51.9766 62.7513 51.6052 62.8455 51.2872L63.2221 51.4154C63.058 51.7121 62.8966 51.9846 62.7244 52.1877L64.2873 51.8777L64.3331 52.1022L62.1649 52.5351C62.9342 52.9653 63.9403 53.0695 64.7527 53.0535L64.6666 53.4917L64.6693 53.4864ZM61.1938 52.3454L61.0754 52.5137L61.6511 52.3988L61.5031 51.6586C61.1507 51.7655 60.7768 51.8697 60.4164 51.9579C60.688 52.0487 60.9705 52.1904 61.1965 52.3427L61.1938 52.3454ZM63.5234 53.3234C63.0149 53.2031 62.485 53.0027 62.1111 52.7034L62.2537 53.4089L61.869 53.4864L61.7399 52.8397C61.5166 53.2031 61.1292 53.5612 60.688 53.8899L63.5234 53.3261V53.3234ZM61.9604 53.8685L60.914 54.0769L61.0082 54.5446L62.0546 54.3361L61.9604 53.8685ZM62.1003 54.5606L61.0539 54.769L61.1534 55.2661L62.1999 55.0576L62.1003 54.5606ZM63.3889 53.5853L62.3317 53.7964L62.4258 54.264L63.483 54.0529L63.3889 53.5853ZM63.5287 54.2773L62.4716 54.4885L62.5711 54.9855L63.6283 54.7744L63.5287 54.2773Z" fill="#D90000"/>
    <path d="M35.4287 51.8002L34.4253 55.7871L34.0514 55.6936L34.888 52.3747C34.5921 52.6473 34.2666 52.8825 33.9142 53.0668L33.8281 52.9012C34.6244 52.3347 35.2807 51.4715 35.8295 50.4321L36.2115 50.6592C35.9748 51.068 35.7192 51.4528 35.4287 51.8002ZM36.5989 53.3421C36.233 53.9674 35.6385 54.7049 35.0037 55.1618L34.888 55.0175C35.3964 54.5312 35.886 53.8151 36.2196 53.1069L36.6016 53.3421H36.5989ZM37.7744 52.2812L36.8759 55.8459C36.7495 56.3483 36.3057 56.4391 35.2781 55.7096L35.3588 55.5546C36.3057 55.9474 36.4321 55.9234 36.5155 55.592L37.3736 52.1823L36.5558 51.9793C36.2492 52.3774 35.8887 52.7301 35.5094 53L35.3857 52.8557C35.9909 52.3026 36.4617 51.5624 36.8087 50.726L37.2176 50.9238C37.0777 51.2097 36.9002 51.5009 36.7038 51.7788L38.802 52.2999L38.9688 52.2385L39.3347 52.5832C39.0199 52.9065 38.5707 53.2379 38.2613 53.3955L38.1456 53.2459C38.3689 53.0401 38.6272 52.7408 38.7671 52.5271L37.7664 52.2785L37.7744 52.2812ZM38.6379 55.7925L38.1726 55.87C38.1349 55.1939 37.9869 54.2025 37.8551 53.5879L38.0219 53.5318C38.2855 54.1624 38.5357 55.1271 38.6379 55.7898V55.7925Z" fill="#D90000"/>
    <path d="M79.8118 17.7273L83.6263 21.2599L83.4649 21.4309L79.6504 17.8983L79.8118 17.7273ZM82.2382 16.6717L84.5059 18.7721L83.1878 20.175L80.9201 18.0746L82.2382 16.6717ZM81.1918 16.2041L81.2537 16.0278C82.0983 16.303 83.247 16.4179 84.0459 16.1961L82.6579 14.9108L82.8166 14.7424L84.4521 16.2576L85.0386 15.6323L85.3425 15.9128L84.7561 16.5381L86.3863 18.0479L86.2276 18.2163L84.7184 16.8187C84.6593 17.7379 84.9794 18.6465 85.4555 19.4107L84.9821 19.5604C84.5705 18.7133 84.3795 17.6738 84.5597 16.7466L83.6532 17.7112L83.3492 17.4306L84.1993 16.5274C83.3358 16.7733 82.0822 16.5729 81.1945 16.2068L81.1918 16.2041ZM81.3639 18.1708L83.056 19.7367L83.5079 19.2557L81.8159 17.6898L81.3639 18.1708ZM81.9773 17.5188L83.6693 19.0847L84.0567 18.6705L82.3646 17.1046L81.9773 17.5188Z" fill="#D90000"/>
    <path d="M8.86933 34.0035C8.42548 34.0035 7.99776 33.8245 7.68571 33.5118C7.37367 33.8245 6.94326 34.0035 6.50209 34.0035C5.5821 34.0035 4.83157 33.258 4.83157 32.3441C4.83157 32.0715 4.89882 31.8043 5.03064 31.5638C4.37426 31.3233 3.93848 30.7061 3.93848 30.0059C3.93848 29.0921 4.689 28.3465 5.609 28.3465C5.74888 28.3465 5.88607 28.3625 6.02057 28.3973C6.06899 27.5288 6.80338 26.8314 7.6884 26.8314C8.57343 26.8314 9.30781 27.5288 9.35623 28.4C9.49073 28.3652 9.63062 28.3465 9.76781 28.3465C10.6878 28.3465 11.4383 29.1295 11.4383 30.0941C11.4383 30.7942 11.0294 31.4329 10.4134 31.7054C10.4995 31.9112 10.5425 32.125 10.5425 32.3441C10.5425 33.258 9.79202 34.0035 8.87202 34.0035H8.86933ZM7.68302 33.3462L7.72606 33.3916C8.02197 33.7096 8.43623 33.8913 8.86933 33.8913C9.72746 33.8913 10.4242 33.1992 10.4242 32.3468C10.4242 32.125 10.3758 31.9059 10.2816 31.7001L10.2574 31.6467L10.3139 31.6253C10.9165 31.3875 11.3227 30.7729 11.3227 30.0968C11.3227 29.1963 10.6259 28.4641 9.76781 28.4641C9.61717 28.4641 9.46383 28.4881 9.31857 28.5336L9.24594 28.5576V28.4801C9.23787 27.6357 8.53846 26.949 7.69109 26.949C6.84373 26.949 6.14701 27.633 6.13625 28.4748V28.5496L6.06361 28.5282C5.91566 28.4828 5.76502 28.4614 5.61169 28.4614C4.75356 28.4614 4.05684 29.1535 4.05684 30.0059C4.05684 30.6793 4.48994 31.2699 5.13555 31.4783L5.2028 31.4997L5.16514 31.5612C5.02257 31.799 4.94724 32.0715 4.94724 32.3441C4.94724 33.1965 5.64397 33.8886 6.50209 33.8886C6.9325 33.8886 7.34946 33.7069 7.64536 33.3889L7.6884 33.3435L7.68302 33.3462Z" fill="#D90000"/>
    <path d="M8.86991 33.7631C8.4691 33.7631 8.09518 33.6 7.8208 33.3061C7.75085 33.2313 7.61635 33.2313 7.54641 33.3061C7.27203 33.6 6.9008 33.7631 6.49729 33.7631C5.70911 33.7631 5.07157 33.1271 5.07157 32.3468C5.07157 32.0956 5.14151 31.8471 5.27063 31.628C5.30022 31.5799 5.3056 31.5211 5.28408 31.4676C5.26256 31.4142 5.22221 31.3741 5.16572 31.3581C4.57391 31.1684 4.17578 30.6259 4.17578 30.0086C4.17578 29.2257 4.81601 28.5924 5.60151 28.5924C5.74139 28.5924 5.88127 28.6138 6.01577 28.6538C6.07226 28.6699 6.13414 28.6592 6.17987 28.6271C6.2256 28.5924 6.25519 28.5389 6.25519 28.4802C6.26326 27.7079 6.90349 27.0799 7.68091 27.0799C8.45834 27.0799 9.09857 27.7106 9.10664 28.4828C9.10664 28.5416 9.13623 28.5977 9.18465 28.6298C9.23307 28.6645 9.29494 28.6725 9.35143 28.6565C9.48593 28.6138 9.62313 28.5924 9.76301 28.5924C10.5512 28.5924 11.1887 29.2684 11.1887 30.0995C11.1887 30.7221 10.8175 31.2886 10.2634 31.5077C10.2149 31.5264 10.1773 31.5638 10.1584 31.6119C10.1396 31.66 10.1423 31.7135 10.1611 31.7589C10.2499 31.9486 10.2929 32.1464 10.2929 32.3521C10.2929 33.1351 9.65272 33.7684 8.86722 33.7684L8.86991 33.7631ZM7.6836 33.1591C7.75892 33.1591 7.83156 33.1912 7.88267 33.2473C8.14091 33.5252 8.49062 33.6775 8.86722 33.6775C9.60699 33.6775 10.2096 33.079 10.2096 32.3468C10.2096 32.1544 10.1665 31.9673 10.0858 31.791C10.0535 31.7242 10.0535 31.6467 10.0804 31.5772C10.1073 31.5077 10.1638 31.4543 10.2338 31.4276C10.7556 31.2218 11.1053 30.6874 11.1053 30.0995C11.1053 29.3165 10.5028 28.6779 9.7657 28.6779C9.63658 28.6779 9.50745 28.6993 9.38102 28.7367C9.30032 28.7634 9.20886 28.7474 9.13892 28.6993C9.06898 28.6485 9.02594 28.5683 9.02594 28.4828C9.01787 27.756 8.41799 27.1628 7.68629 27.1628C6.9546 27.1628 6.35472 27.7533 6.34665 28.4775C6.34665 28.563 6.30361 28.6432 6.23636 28.6913C6.16642 28.742 6.07764 28.7554 5.99694 28.7313C5.87051 28.6939 5.7387 28.6752 5.60958 28.6752C4.86981 28.6752 4.26724 29.2738 4.26724 30.0086C4.26724 30.5885 4.64116 31.0989 5.198 31.2779C5.27601 31.302 5.34057 31.3608 5.37016 31.4383C5.39975 31.5157 5.39168 31.6013 5.35133 31.6707C5.23028 31.8765 5.16303 32.109 5.16303 32.3468C5.16303 33.0816 5.7656 33.6775 6.50536 33.6775C6.88197 33.6775 7.23167 33.5252 7.48992 33.2473C7.54103 33.1912 7.61366 33.1591 7.68898 33.1591H7.6836Z" fill="#D90000"/>
    <path d="M7.68295 31.2966C7.24986 31.2966 6.89746 30.9465 6.89746 30.5163C6.89746 30.0861 7.24986 29.736 7.68295 29.736C8.11605 29.736 8.46845 30.0861 8.46845 30.5163C8.46845 30.9465 8.11605 31.2966 7.68295 31.2966ZM7.68295 29.8509C7.31442 29.8509 7.01313 30.1502 7.01313 30.5163C7.01313 30.8824 7.31442 31.1817 7.68295 31.1817C8.05149 31.1817 8.35278 30.8824 8.35278 30.5163C8.35278 30.1502 8.05149 29.8509 7.68295 29.8509Z" fill="#D90000"/>
    <path d="M7.65632 28.9104V29.7975C7.65632 29.7975 7.67515 29.7975 7.68591 29.7975C7.69667 29.7975 7.70474 29.7975 7.7155 29.7975V28.9104C7.82041 28.897 7.90111 28.8088 7.90111 28.6992C7.90111 28.5817 7.80427 28.4855 7.68591 28.4855C7.56754 28.4855 7.4707 28.5817 7.4707 28.6992C7.4707 28.8088 7.5514 28.897 7.65632 28.9104Z" fill="#D90000"/>
    <path d="M7.01611 29.052L7.36851 29.867C7.38465 29.859 7.40348 29.8509 7.42231 29.8456L7.06991 29.0306C7.16137 28.9771 7.20172 28.8622 7.15868 28.7634C7.11295 28.6538 6.98383 28.6057 6.87623 28.6511C6.76594 28.6966 6.71752 28.8248 6.76325 28.9317C6.80629 29.0306 6.91658 29.0814 7.0188 29.052H7.01611Z" fill="#D90000"/>
    <path d="M6.06102 30.5511H6.9568C6.9568 30.5511 6.9568 30.5297 6.9568 30.519C6.9568 30.511 6.9568 30.503 6.9568 30.495H6.06102C6.04757 30.3907 5.9588 30.3106 5.8485 30.3106C5.73014 30.3106 5.6333 30.4068 5.6333 30.5244C5.6333 30.6419 5.73014 30.7381 5.8485 30.7381C5.9588 30.7381 6.04757 30.658 6.06102 30.5537V30.5511Z" fill="#D90000"/>
    <path d="M5.87786 30.1235C5.98008 30.1583 6.09306 30.1128 6.13879 30.0166L6.98346 30.3079C6.98884 30.2892 6.99422 30.2705 7.00229 30.2545L6.15762 29.9632C6.17914 29.859 6.12265 29.7548 6.01774 29.7174C5.90476 29.6773 5.7837 29.7387 5.74335 29.8483C5.703 29.9579 5.76487 30.0808 5.87516 30.1209L5.87786 30.1235Z" fill="#D90000"/>
    <path d="M8.18383 28.9879L7.896 29.8269C7.91483 29.8323 7.93097 29.8403 7.9498 29.8456L8.23763 29.0066C8.34254 29.0279 8.44746 28.9692 8.48243 28.8676C8.52009 28.7554 8.46091 28.6351 8.34792 28.595C8.23494 28.5576 8.11389 28.6164 8.07354 28.7287C8.03857 28.8302 8.08699 28.9424 8.18114 28.9879H8.18383Z" fill="#D90000"/>
    <path d="M9.10386 29.7414L8.31299 30.1556C8.32375 30.1716 8.33182 30.1877 8.33989 30.2064L9.13076 29.7895C9.19263 29.875 9.30831 29.9044 9.40515 29.8536C9.51006 29.7975 9.55041 29.6693 9.49392 29.565C9.43743 29.4608 9.30831 29.4207 9.20339 29.4769C9.10655 29.5276 9.0662 29.6399 9.10386 29.7387V29.7414Z" fill="#D90000"/>
    <path d="M8.18066 29.9899C8.19411 30.0033 8.20756 30.0166 8.22101 30.03L8.85318 29.402C8.93657 29.4662 9.05762 29.4608 9.13563 29.3833C9.21902 29.3005 9.21902 29.1642 9.13563 29.0814C9.05224 28.9985 8.91505 28.9985 8.83166 29.0814C8.75364 29.1589 8.74826 29.2791 8.81283 29.362L8.18066 29.9899Z" fill="#D90000"/>
    <path d="M6.5159 29.402L7.14806 30.03C7.16151 30.0166 7.17496 30.0033 7.18841 29.9899L6.55625 29.362C6.62081 29.2791 6.61543 29.1589 6.53742 29.0814C6.45403 28.9985 6.31683 28.9985 6.23344 29.0814C6.15005 29.1642 6.15005 29.3005 6.23344 29.3833C6.31145 29.4608 6.43251 29.4662 6.5159 29.402Z" fill="#D90000"/>
    <path d="M9.48846 30.9198C9.38624 30.8851 9.27325 30.9305 9.22752 31.0267L8.38016 30.7328C8.37478 30.7515 8.36671 30.7675 8.36133 30.7862L9.20869 31.0802C9.18717 31.1844 9.24366 31.2886 9.34857 31.326C9.46156 31.3661 9.58261 31.3046 9.62296 31.1951C9.66331 31.0828 9.60144 30.9626 9.49115 30.9225L9.48846 30.9198Z" fill="#D90000"/>
    <path d="M8.85074 31.6413L8.2132 31.008C8.19975 31.0214 8.1863 31.0347 8.17285 31.0481L8.81039 31.6814C8.74583 31.7643 8.75121 31.8845 8.82922 31.962C8.91261 32.0448 9.04981 32.0448 9.1332 31.962C9.21659 31.8792 9.21659 31.7429 9.1332 31.66C9.05519 31.5825 8.93414 31.5772 8.85074 31.6413Z" fill="#D90000"/>
    <path d="M8.35029 31.9914L7.99521 31.1683C7.97907 31.1764 7.96024 31.1844 7.94141 31.1897L8.29649 32.0127C8.20503 32.0662 8.16468 32.1811 8.20772 32.28C8.25345 32.3895 8.38257 32.4376 8.49018 32.3922C8.59778 32.3468 8.64889 32.2185 8.60316 32.1116C8.56012 32.0127 8.44982 31.962 8.3476 31.9914H8.35029Z" fill="#D90000"/>
    <path d="M9.51992 30.3079C9.40963 30.3079 9.32086 30.3881 9.30741 30.4923H8.41162C8.41162 30.4923 8.41162 30.5083 8.41162 30.5163C8.41162 30.527 8.41162 30.5377 8.41162 30.5484H9.30741C9.32086 30.6526 9.40963 30.7328 9.51992 30.7328C9.63828 30.7328 9.73512 30.6366 9.73512 30.519C9.73512 30.4014 9.63828 30.3052 9.51992 30.3052V30.3079Z" fill="#D90000"/>
    <path d="M7.71306 32.1357V31.2405C7.71306 31.2405 7.69423 31.2405 7.68347 31.2405C7.67271 31.2405 7.66463 31.2405 7.65387 31.2405V32.1357C7.54896 32.149 7.46826 32.2372 7.46826 32.3468C7.46826 32.4643 7.5651 32.5605 7.68347 32.5605C7.80183 32.5605 7.89867 32.4643 7.89867 32.3468C7.89867 32.2372 7.81797 32.149 7.71306 32.1357Z" fill="#D90000"/>
    <path d="M7.19379 31.0508C7.18034 31.0375 7.16689 31.0241 7.15344 31.0107L6.5159 31.644C6.43251 31.5799 6.31145 31.5853 6.23344 31.6628C6.15005 31.7456 6.15005 31.8819 6.23344 31.9647C6.31683 32.0475 6.45403 32.0475 6.53742 31.9647C6.61543 31.8872 6.62081 31.767 6.55625 31.6841L7.19379 31.0508Z" fill="#D90000"/>
    <path d="M7.18541 32.0582L7.47593 31.2111C7.4571 31.2057 7.43827 31.2004 7.42213 31.1924L7.13161 32.0395C7.02669 32.0181 6.92178 32.0769 6.88681 32.1784C6.84915 32.2906 6.90833 32.4109 7.02131 32.451C7.1343 32.4884 7.25535 32.4296 7.2957 32.3174C7.33067 32.2158 7.28225 32.1036 7.1881 32.0582H7.18541Z" fill="#D90000"/>
    <path d="M6.26281 31.302L7.05637 30.8851C7.04561 30.8691 7.03754 30.8531 7.02947 30.8344L6.23591 31.2512C6.17403 31.1657 6.05836 31.1363 5.96152 31.1871C5.85661 31.2432 5.81626 31.3715 5.87275 31.4757C5.92924 31.5799 6.05836 31.62 6.16327 31.5639C6.26012 31.5131 6.30047 31.4009 6.26281 31.302Z" fill="#D90000"/>
    <path d="M14.0187 45.5581C13.5749 45.5581 13.1472 45.379 12.8351 45.0664C12.5231 45.379 12.0927 45.5581 11.6515 45.5581C10.7315 45.5581 9.98099 44.8125 9.98099 43.8986C9.98099 43.6261 10.0482 43.3589 10.18 43.1184C9.52368 42.8779 9.08789 42.2606 9.08789 41.5605C9.08789 40.6466 9.83841 39.9011 10.7584 39.9011C10.8983 39.9011 11.0355 39.9171 11.17 39.9518C11.2184 39.0834 11.9528 38.3859 12.8378 38.3859C13.7228 38.3859 14.4572 39.0834 14.5056 39.9545C14.6401 39.9198 14.78 39.9011 14.9172 39.9011C15.8372 39.9011 16.5877 40.684 16.5877 41.6487C16.5877 42.3488 16.1789 42.9874 15.5628 43.26C15.6489 43.4657 15.692 43.6795 15.692 43.8986C15.692 44.8125 14.9414 45.5581 14.0214 45.5581H14.0187ZM12.8351 44.9007L12.8782 44.9461C13.1741 45.2641 13.5883 45.4458 14.0214 45.4458C14.8796 45.4458 15.5763 44.7537 15.5763 43.9013C15.5763 43.6795 15.5279 43.4604 15.4337 43.2546L15.4095 43.2012L15.466 43.1798C16.0686 42.942 16.4748 42.3274 16.4748 41.6513C16.4748 40.7508 15.778 40.0186 14.9199 40.0186C14.7693 40.0186 14.6159 40.0427 14.4707 40.0881L14.398 40.1122V40.0347C14.39 39.1903 13.6906 38.5035 12.8432 38.5035C11.9958 38.5035 11.2991 39.1876 11.2883 40.0293V40.1041L11.2157 40.0828C11.0678 40.0373 10.9171 40.016 10.7638 40.016C9.90566 40.016 9.20894 40.7081 9.20894 41.5605C9.20894 42.2339 9.64204 42.8244 10.2877 43.0328L10.3549 43.0542L10.3172 43.1157C10.1747 43.3535 10.0993 43.6261 10.0993 43.8986C10.0993 44.7511 10.7961 45.4432 11.6542 45.4432C12.0846 45.4432 12.5016 45.2615 12.7975 44.9435L12.8405 44.898L12.8351 44.9007Z" fill="#D90000"/>
    <path d="M14.0188 45.3175C13.618 45.3175 13.2441 45.1545 12.9697 44.8606C12.8998 44.7858 12.7653 44.7858 12.6953 44.8606C12.421 45.1545 12.0497 45.3175 11.6462 45.3175C10.858 45.3175 10.2205 44.6815 10.2205 43.9013C10.2205 43.6501 10.2904 43.4016 10.4196 43.1825C10.4491 43.1344 10.4545 43.0756 10.433 43.0221C10.4115 42.9687 10.3711 42.9286 10.3146 42.9126C9.72283 42.7228 9.32471 42.1804 9.32471 41.5631C9.32471 40.7802 9.96494 40.1469 10.7504 40.1469C10.8903 40.1469 11.0302 40.1682 11.1647 40.2083C11.2212 40.2243 11.2831 40.2137 11.3288 40.1816C11.3745 40.1469 11.4041 40.0934 11.4041 40.0346C11.4122 39.2624 12.0524 38.6344 12.8298 38.6344C13.6073 38.6344 14.2475 39.265 14.2556 40.0373C14.2556 40.0961 14.2852 40.1522 14.3336 40.1843C14.382 40.219 14.4439 40.227 14.5004 40.211C14.6349 40.1682 14.7721 40.1469 14.9119 40.1469C15.7001 40.1469 16.3377 40.8229 16.3377 41.654C16.3377 42.2766 15.9664 42.8431 15.4123 43.0622C15.3639 43.0809 15.3262 43.1183 15.3074 43.1664C15.2885 43.2145 15.2912 43.268 15.3101 43.3134C15.3988 43.5031 15.4419 43.7009 15.4419 43.9066C15.4419 44.6896 14.8016 45.3229 14.0161 45.3229L14.0188 45.3175ZM12.8352 44.7136C12.9105 44.7136 12.9832 44.7457 13.0343 44.8018C13.2925 45.0797 13.6422 45.232 14.0188 45.232C14.7586 45.232 15.3612 44.6334 15.3612 43.9013C15.3612 43.7089 15.3181 43.5218 15.2374 43.3455C15.2052 43.2787 15.2052 43.2012 15.2321 43.1317C15.259 43.0622 15.3154 43.0088 15.3854 42.982C15.9073 42.7763 16.257 42.2418 16.257 41.654C16.257 40.871 15.6544 40.2324 14.9173 40.2324C14.7882 40.2324 14.6591 40.2537 14.5326 40.2912C14.4519 40.3179 14.3605 40.3018 14.2905 40.2537C14.2206 40.203 14.1776 40.1228 14.1776 40.0373C14.1695 39.3105 13.5696 38.7172 12.8379 38.7172C12.1062 38.7172 11.5063 39.3078 11.4983 40.0319C11.4983 40.1175 11.4552 40.1976 11.388 40.2457C11.318 40.2965 11.2293 40.3099 11.1486 40.2858C11.0221 40.2484 10.8903 40.2297 10.7612 40.2297C10.0214 40.2297 9.41886 40.8283 9.41886 41.5631C9.41886 42.143 9.79278 42.6534 10.3496 42.8324C10.4276 42.8564 10.4922 42.9152 10.5218 42.9927C10.5514 43.0702 10.5433 43.1557 10.5029 43.2252C10.3819 43.431 10.3146 43.6634 10.3146 43.9013C10.3146 44.6361 10.9172 45.232 11.657 45.232C12.0336 45.232 12.3833 45.0797 12.6415 44.8018C12.6926 44.7457 12.7653 44.7136 12.8406 44.7136H12.8352Z" fill="#D90000"/>
    <path d="M12.8353 42.8511C12.4022 42.8511 12.0498 42.501 12.0498 42.0708C12.0498 41.6406 12.4022 41.2905 12.8353 41.2905C13.2684 41.2905 13.6208 41.6406 13.6208 42.0708C13.6208 42.501 13.2684 42.8511 12.8353 42.8511ZM12.8353 41.4054C12.4668 41.4054 12.1655 41.7047 12.1655 42.0708C12.1655 42.4369 12.4668 42.7362 12.8353 42.7362C13.2038 42.7362 13.5051 42.4369 13.5051 42.0708C13.5051 41.7047 13.2038 41.4054 12.8353 41.4054Z" fill="#D90000"/>
    <path d="M12.8057 40.4622V41.3493C12.8057 41.3493 12.8246 41.3493 12.8353 41.3493C12.8461 41.3493 12.8542 41.3493 12.8649 41.3493V40.4622C12.9698 40.4488 13.0505 40.3606 13.0505 40.2511C13.0505 40.1335 12.9537 40.0373 12.8353 40.0373C12.717 40.0373 12.6201 40.1335 12.6201 40.2511C12.6201 40.3606 12.7008 40.4488 12.8057 40.4622Z" fill="#D90000"/>
    <path d="M12.1689 40.6065L12.5213 41.4215C12.5375 41.4135 12.5563 41.4054 12.5751 41.4001L12.2227 40.5851C12.3142 40.5316 12.3546 40.4167 12.3115 40.3179C12.2658 40.2083 12.1367 40.1602 12.0291 40.2056C11.9188 40.2511 11.8703 40.3793 11.9161 40.4862C11.9591 40.5851 12.0694 40.6359 12.1716 40.6065H12.1689Z" fill="#D90000"/>
    <path d="M11.2104 42.1029H12.1062C12.1062 42.1029 12.1062 42.0815 12.1062 42.0708C12.1062 42.0628 12.1062 42.0548 12.1062 42.0468H11.2104C11.197 41.9426 11.1082 41.8624 10.9979 41.8624C10.8796 41.8624 10.7827 41.9586 10.7827 42.0762C10.7827 42.1937 10.8796 42.2899 10.9979 42.2899C11.1082 42.2899 11.197 42.2098 11.2104 42.1056V42.1029Z" fill="#D90000"/>
    <path d="M11.0302 41.678C11.1324 41.7127 11.2454 41.6673 11.2911 41.5711L12.1358 41.8624C12.1412 41.8437 12.1466 41.825 12.1546 41.8089L11.31 41.5177C11.3315 41.4135 11.275 41.3092 11.1701 41.2718C11.0571 41.2318 10.936 41.2932 10.8957 41.4028C10.8553 41.5123 10.9172 41.6353 11.0275 41.6753L11.0302 41.678Z" fill="#D90000"/>
    <path d="M13.3332 40.5396L13.0454 41.3787C13.0642 41.3841 13.0804 41.3921 13.0992 41.3974L13.387 40.5584C13.492 40.5797 13.5969 40.5209 13.6318 40.4194C13.6695 40.3072 13.6103 40.1869 13.4973 40.1468C13.3844 40.1094 13.2633 40.1682 13.223 40.2804C13.188 40.382 13.2364 40.4942 13.3306 40.5396H13.3332Z" fill="#D90000"/>
    <path d="M14.2562 41.2959L13.4653 41.7101C13.4761 41.7261 13.4842 41.7421 13.4922 41.7608L14.2831 41.344C14.345 41.4295 14.4606 41.4589 14.5575 41.4081C14.6624 41.352 14.7028 41.2237 14.6463 41.1195C14.5898 41.0153 14.4606 40.9752 14.3557 41.0313C14.2589 41.0821 14.2185 41.1943 14.2562 41.2932V41.2959Z" fill="#D90000"/>
    <path d="M13.3306 41.5417C13.344 41.555 13.3575 41.5684 13.3709 41.5818L14.0031 40.9538C14.0865 41.0179 14.2075 41.0126 14.2855 40.9351C14.3689 40.8523 14.3689 40.716 14.2855 40.6331C14.2021 40.5503 14.0649 40.5503 13.9816 40.6331C13.9035 40.7106 13.8982 40.8309 13.9627 40.9137L13.3306 41.5417Z" fill="#D90000"/>
    <path d="M11.6648 40.9565L12.297 41.5844C12.3104 41.5711 12.3239 41.5577 12.3373 41.5444L11.7052 40.9164C11.7697 40.8336 11.7644 40.7133 11.6863 40.6358C11.603 40.553 11.4658 40.553 11.3824 40.6358C11.299 40.7187 11.299 40.8549 11.3824 40.9378C11.4604 41.0153 11.5814 41.0206 11.6648 40.9565Z" fill="#D90000"/>
    <path d="M14.6379 42.4743C14.5356 42.4396 14.4227 42.485 14.3769 42.5812L13.5296 42.2873C13.5242 42.306 13.5161 42.322 13.5107 42.3407L14.3581 42.6346C14.3366 42.7389 14.3931 42.8431 14.498 42.8805C14.611 42.9206 14.732 42.8591 14.7724 42.7495C14.8127 42.6373 14.7509 42.5171 14.6406 42.477L14.6379 42.4743Z" fill="#D90000"/>
    <path d="M14.0031 43.1958L13.3655 42.5625C13.3521 42.5759 13.3386 42.5892 13.3252 42.6026L13.9627 43.2359C13.8982 43.3187 13.9036 43.439 13.9816 43.5165C14.065 43.5993 14.2022 43.5993 14.2855 43.5165C14.3689 43.4336 14.3689 43.2974 14.2855 43.2145C14.2075 43.137 14.0865 43.1317 14.0031 43.1958Z" fill="#D90000"/>
    <path d="M13.5026 43.5458L13.1476 42.7228C13.1314 42.7308 13.1126 42.7388 13.0938 42.7442L13.4488 43.5672C13.3574 43.6207 13.317 43.7356 13.3601 43.8344C13.4058 43.944 13.5349 43.9921 13.6425 43.9467C13.7501 43.9012 13.8012 43.773 13.7555 43.6661C13.7125 43.5672 13.6022 43.5164 13.4999 43.5458H13.5026Z" fill="#D90000"/>
    <path d="M14.6698 41.8624C14.5595 41.8624 14.4708 41.9426 14.4573 42.0468H13.5615C13.5615 42.0468 13.5615 42.0628 13.5615 42.0708C13.5615 42.0815 13.5615 42.0922 13.5615 42.1029H14.4573C14.4708 42.2071 14.5595 42.2873 14.6698 42.2873C14.7882 42.2873 14.885 42.1911 14.885 42.0735C14.885 41.9559 14.7882 41.8597 14.6698 41.8597V41.8624Z" fill="#D90000"/>
    <path d="M12.863 43.6875V42.7923C12.863 42.7923 12.8441 42.7923 12.8334 42.7923C12.8226 42.7923 12.8145 42.7923 12.8038 42.7923V43.6875C12.6989 43.7008 12.6182 43.789 12.6182 43.8986C12.6182 44.0162 12.715 44.1124 12.8334 44.1124C12.9517 44.1124 13.0486 44.0162 13.0486 43.8986C13.0486 43.789 12.9679 43.7008 12.863 43.6875Z" fill="#D90000"/>
    <path d="M12.3427 42.6026C12.3293 42.5892 12.3158 42.5759 12.3024 42.5625L11.6648 43.1958C11.5814 43.1317 11.4604 43.137 11.3824 43.2145C11.299 43.2974 11.299 43.4336 11.3824 43.5165C11.4658 43.5993 11.603 43.5993 11.6863 43.5165C11.7644 43.439 11.7697 43.3187 11.7052 43.2359L12.3427 42.6026Z" fill="#D90000"/>
    <path d="M12.3353 43.61L12.6258 42.7629C12.607 42.7576 12.5882 42.7522 12.572 42.7442L12.2815 43.5913C12.1766 43.5699 12.0717 43.6287 12.0367 43.7303C11.9991 43.8425 12.0582 43.9627 12.1712 44.0028C12.2842 44.0402 12.4053 43.9815 12.4456 43.8692C12.4806 43.7677 12.4322 43.6554 12.338 43.61H12.3353Z" fill="#D90000"/>
    <path d="M11.4122 42.8537L12.2058 42.4369C12.195 42.4208 12.187 42.4048 12.1789 42.3861L11.3853 42.803C11.3234 42.7175 11.2078 42.6881 11.1109 42.7388C11.006 42.795 10.9657 42.9232 11.0222 43.0274C11.0787 43.1316 11.2078 43.1717 11.3127 43.1156C11.4095 43.0648 11.4499 42.9526 11.4122 42.8537Z" fill="#D90000"/>
    <path d="M90.1604 34.0035C89.7165 34.0035 89.2888 33.8245 88.9767 33.5118C88.6647 33.8245 88.2343 34.0035 87.7931 34.0035C86.8731 34.0035 86.1226 33.258 86.1226 32.3441C86.1226 32.0715 86.1898 31.8043 86.3217 31.5638C85.6653 31.3233 85.2295 30.7061 85.2295 30.0059C85.2295 29.0921 85.98 28.3465 86.9 28.3465C87.0399 28.3465 87.1771 28.3625 87.3116 28.3973C87.36 27.5288 88.0944 26.8314 88.9794 26.8314C89.8644 26.8314 90.5988 27.5288 90.6473 28.4C90.7818 28.3652 90.9216 28.3465 91.0588 28.3465C91.9788 28.3465 92.7293 29.1295 92.7293 30.0941C92.7293 30.7942 92.3205 31.4329 91.7044 31.7054C91.7905 31.9112 91.8336 32.125 91.8336 32.3441C91.8336 33.258 91.083 34.0035 90.163 34.0035H90.1604ZM88.974 33.3462L89.0171 33.3916C89.313 33.7096 89.7273 33.8913 90.1604 33.8913C91.0185 33.8913 91.7152 33.1992 91.7152 32.3468C91.7152 32.125 91.6668 31.9059 91.5726 31.7001L91.5484 31.6467L91.6049 31.6253C92.2075 31.3875 92.6137 30.7729 92.6137 30.0968C92.6137 29.1963 91.917 28.4641 91.0588 28.4641C90.9082 28.4641 90.7548 28.4881 90.6096 28.5336L90.537 28.5576V28.4801C90.5289 27.6357 89.8295 26.949 88.9821 26.949C88.1347 26.949 87.438 27.633 87.4273 28.4748V28.5496L87.3546 28.5282C87.2067 28.4828 87.056 28.4614 86.9027 28.4614C86.0446 28.4614 85.3479 29.1535 85.3479 30.0059C85.3479 30.6793 85.781 31.2699 86.4266 31.4783L86.4938 31.4997L86.4562 31.5612C86.3136 31.799 86.2383 32.0715 86.2383 32.3441C86.2383 33.1965 86.935 33.8886 87.7931 33.8886C88.2235 33.8886 88.6405 33.7069 88.9364 33.3889L88.9794 33.3435L88.974 33.3462Z" fill="#D90000"/>
    <path d="M90.16 33.7631C89.7591 33.7631 89.3852 33.6 89.1108 33.3061C89.0409 33.2313 88.9064 33.2313 88.8364 33.3061C88.5621 33.6 88.1908 33.7631 87.7873 33.7631C86.9991 33.7631 86.3616 33.1271 86.3616 32.3468C86.3616 32.0956 86.4315 31.8471 86.5607 31.628C86.5903 31.5799 86.5956 31.5211 86.5741 31.4676C86.5526 31.4142 86.5122 31.3741 86.4558 31.3581C85.8639 31.1684 85.4658 30.6259 85.4658 30.0086C85.4658 29.2257 86.106 28.5924 86.8915 28.5924C87.0314 28.5924 87.1713 28.6138 87.3058 28.6538C87.3623 28.6699 87.4242 28.6592 87.4699 28.6271C87.5156 28.5924 87.5452 28.5389 87.5452 28.4802C87.5533 27.7079 88.1935 27.0799 88.971 27.0799C89.7484 27.0799 90.3886 27.7106 90.3967 28.4828C90.3967 28.5416 90.4263 28.5977 90.4747 28.6298C90.5231 28.6645 90.585 28.6725 90.6415 28.6565C90.776 28.6138 90.9132 28.5924 91.053 28.5924C91.8412 28.5924 92.4788 29.2684 92.4788 30.0995C92.4788 30.7221 92.1075 31.2886 91.5534 31.5077C91.505 31.5264 91.4673 31.5638 91.4485 31.6119C91.4297 31.66 91.4323 31.7135 91.4512 31.7589C91.5399 31.9486 91.583 32.1464 91.583 32.3521C91.583 33.1351 90.9428 33.7684 90.1573 33.7684L90.16 33.7631ZM88.9736 33.1591C89.049 33.1591 89.1216 33.1912 89.1727 33.2473C89.4309 33.5252 89.7807 33.6775 90.1573 33.6775C90.897 33.6775 91.4996 33.079 91.4996 32.3468C91.4996 32.1544 91.4566 31.9673 91.3759 31.791C91.3436 31.7242 91.3436 31.6467 91.3705 31.5772C91.3974 31.5077 91.4539 31.4543 91.5238 31.4276C92.0457 31.2218 92.3954 30.6874 92.3954 30.0995C92.3954 29.3165 91.7928 28.6779 91.0557 28.6779C90.9266 28.6779 90.7975 28.6993 90.6711 28.7367C90.5904 28.7634 90.4989 28.7474 90.429 28.6993C90.359 28.6485 90.316 28.5683 90.316 28.4828C90.3079 27.756 89.708 27.1628 88.9763 27.1628C88.2446 27.1628 87.6448 27.7533 87.6367 28.4775C87.6367 28.563 87.5936 28.6432 87.5264 28.6913C87.4565 28.742 87.3677 28.7554 87.287 28.7313C87.1605 28.6939 87.0287 28.6752 86.8996 28.6752C86.1599 28.6752 85.5573 29.2738 85.5573 30.0086C85.5573 30.5885 85.9312 31.0989 86.488 31.2779C86.566 31.302 86.6306 31.3608 86.6602 31.4383C86.6898 31.5157 86.6817 31.6013 86.6414 31.6707C86.5203 31.8765 86.4531 32.109 86.4531 32.3468C86.4531 33.0816 87.0556 33.6775 87.7954 33.6775C88.172 33.6775 88.5217 33.5252 88.78 33.2473C88.8311 33.1912 88.9037 33.1591 88.979 33.1591H88.9736Z" fill="#D90000"/>
    <path d="M88.974 31.2966C88.5409 31.2966 88.1885 30.9465 88.1885 30.5163C88.1885 30.0861 88.5409 29.736 88.974 29.736C89.4071 29.736 89.7595 30.0861 89.7595 30.5163C89.7595 30.9465 89.4071 31.2966 88.974 31.2966ZM88.974 29.8509C88.6054 29.8509 88.3041 30.1502 88.3041 30.5163C88.3041 30.8824 88.6054 31.1817 88.974 31.1817C89.3425 31.1817 89.6438 30.8824 89.6438 30.5163C89.6438 30.1502 89.3425 29.8509 88.974 29.8509Z" fill="#D90000"/>
    <path d="M88.9473 28.9104V29.7975C88.9473 29.7975 88.9662 29.7975 88.9769 29.7975C88.9877 29.7975 88.9958 29.7975 89.0065 29.7975V28.9104C89.1114 28.897 89.1921 28.8088 89.1921 28.6992C89.1921 28.5817 89.0953 28.4855 88.9769 28.4855C88.8586 28.4855 88.7617 28.5817 88.7617 28.6992C88.7617 28.8088 88.8424 28.897 88.9473 28.9104Z" fill="#D90000"/>
    <path d="M88.3071 29.052L88.6595 29.867C88.6757 29.859 88.6945 29.8509 88.7133 29.8456L88.3609 29.0306C88.4524 28.9771 88.4927 28.8622 88.4497 28.7634C88.404 28.6538 88.2748 28.6057 88.1672 28.6511C88.057 28.6966 88.0085 28.8248 88.0543 28.9317C88.0973 29.0306 88.2076 29.0814 88.3098 29.052H88.3071Z" fill="#D90000"/>
    <path d="M87.352 30.5511H88.2478C88.2478 30.5511 88.2478 30.5297 88.2478 30.519C88.2478 30.511 88.2478 30.503 88.2478 30.495H87.352C87.3386 30.3907 87.2498 30.3106 87.1395 30.3106C87.0212 30.3106 86.9243 30.4068 86.9243 30.5244C86.9243 30.6419 87.0212 30.7381 87.1395 30.7381C87.2498 30.7381 87.3386 30.658 87.352 30.5537V30.5511Z" fill="#D90000"/>
    <path d="M87.1723 30.1235C87.2745 30.1583 87.3875 30.1128 87.4332 30.0166L88.2779 30.3079C88.2833 30.2892 88.2887 30.2705 88.2967 30.2545L87.4521 29.9632C87.4736 29.859 87.4171 29.7548 87.3122 29.7174C87.1992 29.6773 87.0781 29.7387 87.0378 29.8483C86.9974 29.9579 87.0593 30.0808 87.1696 30.1209L87.1723 30.1235Z" fill="#D90000"/>
    <path d="M89.4748 28.9879L89.187 29.8269C89.2058 29.8323 89.222 29.8403 89.2408 29.8456L89.5286 29.0066C89.6336 29.0279 89.7385 28.9692 89.7734 28.8676C89.8111 28.7554 89.7519 28.6351 89.6389 28.595C89.526 28.5576 89.4049 28.6164 89.3645 28.7287C89.3296 28.8302 89.378 28.9424 89.4722 28.9879H89.4748Z" fill="#D90000"/>
    <path d="M90.3973 29.7414L89.6064 30.1556C89.6172 30.1716 89.6253 30.1877 89.6333 30.2064L90.4242 29.7895C90.4861 29.875 90.6018 29.9044 90.6986 29.8536C90.8035 29.7975 90.8439 29.6693 90.7874 29.565C90.7309 29.4608 90.6018 29.4207 90.4969 29.4769C90.4 29.5276 90.3597 29.6399 90.3973 29.7387V29.7414Z" fill="#D90000"/>
    <path d="M89.4722 29.9899C89.4856 30.0033 89.4991 30.0166 89.5125 30.03L90.1447 29.402C90.2281 29.4662 90.3491 29.4608 90.4271 29.3833C90.5105 29.3005 90.5105 29.1642 90.4271 29.0814C90.3437 28.9985 90.2065 28.9985 90.1232 29.0814C90.0451 29.1589 90.0398 29.2791 90.1043 29.362L89.4722 29.9899Z" fill="#D90000"/>
    <path d="M87.8064 29.402L88.4386 30.03C88.452 30.0166 88.4655 30.0033 88.4789 29.9899L87.8468 29.362C87.9113 29.2791 87.906 29.1589 87.8279 29.0814C87.7446 28.9985 87.6074 28.9985 87.524 29.0814C87.4406 29.1642 87.4406 29.3005 87.524 29.3833C87.602 29.4608 87.723 29.4662 87.8064 29.402Z" fill="#D90000"/>
    <path d="M90.779 30.9198C90.6768 30.8851 90.5638 30.9305 90.5181 31.0267L89.6707 30.7328C89.6653 30.7515 89.6572 30.7675 89.6519 30.7862L90.4992 31.0802C90.4777 31.1844 90.5342 31.2886 90.6391 31.326C90.7521 31.3661 90.8731 31.3046 90.9135 31.1951C90.9538 31.0828 90.892 30.9626 90.7817 30.9225L90.779 30.9198Z" fill="#D90000"/>
    <path d="M90.1447 31.6413L89.5071 31.008C89.4937 31.0214 89.4802 31.0347 89.4668 31.0481L90.1043 31.6814C90.0398 31.7643 90.0452 31.8845 90.1232 31.962C90.2066 32.0448 90.3438 32.0448 90.4271 31.962C90.5105 31.8792 90.5105 31.7429 90.4271 31.66C90.3491 31.5825 90.2281 31.5772 90.1447 31.6413Z" fill="#D90000"/>
    <path d="M89.6413 31.9914L89.2862 31.1683C89.2701 31.1764 89.2513 31.1844 89.2324 31.1897L89.5875 32.0127C89.496 32.0662 89.4557 32.1811 89.4987 32.28C89.5445 32.3895 89.6736 32.4376 89.7812 32.3922C89.8888 32.3468 89.9399 32.2185 89.8942 32.1116C89.8511 32.0127 89.7408 31.962 89.6386 31.9914H89.6413Z" fill="#D90000"/>
    <path d="M90.8114 30.3079C90.7011 30.3079 90.6124 30.3881 90.5989 30.4923H89.7031C89.7031 30.4923 89.7031 30.5083 89.7031 30.5163C89.7031 30.527 89.7031 30.5377 89.7031 30.5484H90.5989C90.6124 30.6526 90.7011 30.7328 90.8114 30.7328C90.9298 30.7328 91.0266 30.6366 91.0266 30.519C91.0266 30.4014 90.9298 30.3052 90.8114 30.3052V30.3079Z" fill="#D90000"/>
    <path d="M89.0036 32.1357V31.2405C89.0036 31.2405 88.9848 31.2405 88.974 31.2405C88.9632 31.2405 88.9552 31.2405 88.9444 31.2405V32.1357C88.8395 32.149 88.7588 32.2372 88.7588 32.3468C88.7588 32.4643 88.8556 32.5605 88.974 32.5605C89.0924 32.5605 89.1892 32.4643 89.1892 32.3468C89.1892 32.2372 89.1085 32.149 89.0036 32.1357Z" fill="#D90000"/>
    <path d="M88.4843 31.0508C88.4709 31.0375 88.4574 31.0241 88.444 31.0107L87.8064 31.644C87.723 31.5799 87.602 31.5853 87.524 31.6628C87.4406 31.7456 87.4406 31.8819 87.524 31.9647C87.6074 32.0475 87.7446 32.0475 87.8279 31.9647C87.906 31.8872 87.9113 31.767 87.8468 31.6841L88.4843 31.0508Z" fill="#D90000"/>
    <path d="M88.4769 32.0582L88.7674 31.2111C88.7486 31.2057 88.7298 31.2004 88.7136 31.1924L88.4231 32.0395C88.3182 32.0181 88.2133 32.0769 88.1783 32.1784C88.1407 32.2906 88.1998 32.4109 88.3128 32.451C88.4258 32.4884 88.5468 32.4296 88.5872 32.3174C88.6222 32.2158 88.5738 32.1036 88.4796 32.0582H88.4769Z" fill="#D90000"/>
    <path d="M87.5538 31.302L88.3474 30.8851C88.3366 30.8691 88.3286 30.8531 88.3205 30.8344L87.5269 31.2512C87.4651 31.1657 87.3494 31.1363 87.2525 31.1871C87.1476 31.2432 87.1073 31.3715 87.1638 31.4757C87.2203 31.5799 87.3494 31.62 87.4543 31.5639C87.5511 31.5131 87.5915 31.4009 87.5538 31.302Z" fill="#D90000"/>
    <path d="M85.1921 44.8472C84.7482 44.8472 84.3205 44.6681 84.0085 44.3555C83.6964 44.6681 83.266 44.8472 82.8248 44.8472C81.9048 44.8472 81.1543 44.1016 81.1543 43.1878C81.1543 42.9152 81.2216 42.648 81.3534 42.4075C80.697 42.167 80.2612 41.5497 80.2612 40.8496C80.2612 39.9357 81.0118 39.1902 81.9318 39.1902C82.0716 39.1902 82.2088 39.2062 82.3433 39.2409C82.3918 38.3725 83.1261 37.675 84.0112 37.675C84.8962 37.675 85.6306 38.3725 85.679 39.2436C85.8135 39.2089 85.9534 39.1902 86.0906 39.1902C87.0106 39.1902 87.7611 39.9731 87.7611 40.9378C87.7611 41.6379 87.3522 42.2765 86.7362 42.5491C86.8223 42.7549 86.8653 42.9686 86.8653 43.1878C86.8653 44.1016 86.1148 44.8472 85.1948 44.8472H85.1921ZM84.0058 44.1898L84.0488 44.2353C84.3447 44.5532 84.759 44.735 85.1921 44.735C86.0502 44.735 86.7469 44.0429 86.7469 43.1904C86.7469 42.9686 86.6985 42.7495 86.6044 42.5438L86.5802 42.4903L86.6366 42.4689C87.2392 42.2311 87.6454 41.6165 87.6454 40.9405C87.6454 40.0399 86.9487 39.3078 86.0906 39.3078C85.9399 39.3078 85.7866 39.3318 85.6413 39.3772L85.5687 39.4013V39.3238C85.5606 38.4794 84.8612 37.7926 84.0138 37.7926C83.1665 37.7926 82.4698 38.4767 82.459 39.3184V39.3933L82.3864 39.3719C82.2384 39.3265 82.0878 39.3051 81.9344 39.3051C81.0763 39.3051 80.3796 39.9972 80.3796 40.8496C80.3796 41.523 80.8127 42.1135 81.4583 42.322L81.5256 42.3434L81.4879 42.4048C81.3453 42.6426 81.27 42.9152 81.27 43.1878C81.27 44.0402 81.9667 44.7323 82.8248 44.7323C83.2553 44.7323 83.6722 44.5506 83.9681 44.2326L84.0112 44.1872L84.0058 44.1898Z" fill="#D90000"/>
    <path d="M85.1917 44.6041C84.7909 44.6041 84.417 44.4411 84.1426 44.1471C84.0726 44.0723 83.9381 44.0723 83.8682 44.1471C83.5938 44.4411 83.2226 44.6041 82.8191 44.6041C82.0309 44.6041 81.3933 43.9681 81.3933 43.1878C81.3933 42.9366 81.4633 42.6881 81.5924 42.469C81.622 42.4209 81.6274 42.3621 81.6059 42.3087C81.5843 42.2552 81.544 42.2152 81.4875 42.1991C80.8957 42.0094 80.4976 41.4669 80.4976 40.8497C80.4976 40.0667 81.1378 39.4334 81.9233 39.4334C82.0632 39.4334 82.203 39.4548 82.3375 39.4949C82.394 39.5109 82.4559 39.5002 82.5016 39.4682C82.5474 39.4334 82.577 39.38 82.577 39.3212C82.585 38.5489 83.2253 37.921 84.0027 37.921C84.7801 37.921 85.4203 38.5516 85.4284 39.3239C85.4284 39.3826 85.458 39.4388 85.5064 39.4708C85.5548 39.5056 85.6167 39.5136 85.6732 39.4975C85.8077 39.4548 85.9449 39.4334 86.0848 39.4334C86.873 39.4334 87.5105 40.1095 87.5105 40.9405C87.5105 41.5631 87.1393 42.1296 86.5851 42.3488C86.5367 42.3675 86.4991 42.4049 86.4802 42.453C86.4614 42.5011 86.4641 42.5545 86.4829 42.5999C86.5717 42.7897 86.6147 42.9874 86.6147 43.1932C86.6147 43.9761 85.9745 44.6094 85.189 44.6094L85.1917 44.6041ZM84.0054 44.0028C84.0807 44.0028 84.1533 44.0349 84.2044 44.091C84.4627 44.3689 84.8124 44.5212 85.189 44.5212C85.9288 44.5212 86.5313 43.9227 86.5313 43.1905C86.5313 42.9981 86.4883 42.8111 86.4076 42.6347C86.3753 42.5679 86.3753 42.4904 86.4022 42.4209C86.4291 42.3514 86.4856 42.298 86.5555 42.2713C87.0774 42.0655 87.4271 41.5311 87.4271 40.9432C87.4271 40.1602 86.8245 39.5216 86.0875 39.5216C85.9584 39.5216 85.8292 39.543 85.7028 39.5804C85.6221 39.6071 85.5306 39.5911 85.4607 39.543C85.3908 39.4922 85.3477 39.412 85.3477 39.3265C85.3396 38.5997 84.7398 38.0065 84.0081 38.0065C83.2764 38.0065 82.6765 38.597 82.6684 39.3212C82.6684 39.4067 82.6254 39.4869 82.5581 39.535C82.4882 39.5857 82.3994 39.5991 82.3187 39.575C82.1923 39.5376 82.0605 39.5189 81.9314 39.5189C81.1916 39.5189 80.589 40.1175 80.589 40.8523C80.589 41.4322 80.9629 41.9426 81.5198 42.1216C81.5978 42.1457 81.6623 42.2045 81.6919 42.282C81.7215 42.3595 81.7135 42.445 81.6731 42.5144C81.5521 42.7202 81.4848 42.9527 81.4848 43.1905C81.4848 43.9254 82.0874 44.5212 82.8271 44.5212C83.2037 44.5212 83.5535 44.3689 83.8117 44.091C83.8628 44.0349 83.9354 44.0028 84.0108 44.0028H84.0054Z" fill="#D90000"/>
    <path d="M84.0052 42.1403C83.5721 42.1403 83.2197 41.7902 83.2197 41.36C83.2197 40.9298 83.5721 40.5797 84.0052 40.5797C84.4383 40.5797 84.7907 40.9298 84.7907 41.36C84.7907 41.7902 84.4383 42.1403 84.0052 42.1403ZM84.0052 40.6946C83.6367 40.6946 83.3354 40.9939 83.3354 41.36C83.3354 41.7261 83.6367 42.0254 84.0052 42.0254C84.3738 42.0254 84.675 41.7261 84.675 41.36C84.675 40.9939 84.3738 40.6946 84.0052 40.6946Z" fill="#D90000"/>
    <path d="M83.9791 39.7514V40.6386C83.9791 40.6386 83.9979 40.6386 84.0087 40.6386C84.0194 40.6386 84.0275 40.6386 84.0383 40.6386V39.7514C84.1432 39.7381 84.2239 39.6499 84.2239 39.5403C84.2239 39.4227 84.127 39.3265 84.0087 39.3265C83.8903 39.3265 83.7935 39.4227 83.7935 39.5403C83.7935 39.6499 83.8742 39.7381 83.9791 39.7514Z" fill="#D90000"/>
    <path d="M83.3384 39.8957L83.6908 40.7107C83.7069 40.7027 83.7257 40.6947 83.7446 40.6893L83.3922 39.8743C83.4836 39.8209 83.524 39.706 83.4809 39.6071C83.4352 39.4975 83.3061 39.4494 83.1985 39.4949C83.0882 39.5403 83.0398 39.6685 83.0855 39.7754C83.1286 39.8743 83.2388 39.9251 83.3411 39.8957H83.3384Z" fill="#D90000"/>
    <path d="M82.3838 41.3921H83.2796C83.2796 41.3921 83.2796 41.3708 83.2796 41.3601C83.2796 41.3521 83.2796 41.344 83.2796 41.336H82.3838C82.3703 41.2318 82.2815 41.1516 82.1713 41.1516C82.0529 41.1516 81.9561 41.2478 81.9561 41.3654C81.9561 41.483 82.0529 41.5792 82.1713 41.5792C82.2815 41.5792 82.3703 41.499 82.3838 41.3948V41.3921Z" fill="#D90000"/>
    <path d="M82.2006 40.9672C82.3028 41.002 82.4158 40.9565 82.4615 40.8603L83.3062 41.1516C83.3116 41.1329 83.317 41.1142 83.325 41.0982L82.4804 40.8069C82.5019 40.7027 82.4454 40.5985 82.3405 40.561C82.2275 40.521 82.1065 40.5824 82.0661 40.692C82.0258 40.8015 82.0876 40.9245 82.1979 40.9646L82.2006 40.9672Z" fill="#D90000"/>
    <path d="M84.5061 39.8289L84.2183 40.668C84.2371 40.6733 84.2532 40.6813 84.2721 40.6867L84.5599 39.8476C84.6648 39.869 84.7697 39.8102 84.8047 39.7086C84.8424 39.5964 84.7832 39.4762 84.6702 39.4361C84.5572 39.3987 84.4361 39.4575 84.3958 39.5697C84.3608 39.6712 84.4093 39.7835 84.5034 39.8289H84.5061Z" fill="#D90000"/>
    <path d="M85.4256 40.5852L84.6348 40.9993C84.6455 41.0154 84.6536 41.0314 84.6617 41.0501L85.4525 40.6333C85.5144 40.7188 85.6301 40.7482 85.7269 40.6974C85.8318 40.6413 85.8722 40.513 85.8157 40.4088C85.7592 40.3046 85.6301 40.2645 85.5252 40.3206C85.4283 40.3714 85.388 40.4836 85.4256 40.5825V40.5852Z" fill="#D90000"/>
    <path d="M84.5039 40.831C84.5174 40.8443 84.5308 40.8577 84.5443 40.871L85.1764 40.2431C85.2598 40.3072 85.3809 40.3019 85.4589 40.2244C85.5423 40.1415 85.5423 40.0053 85.4589 39.9224C85.3755 39.8396 85.2383 39.8396 85.1549 39.9224C85.0769 39.9999 85.0715 40.1202 85.1361 40.203L84.5039 40.831Z" fill="#D90000"/>
    <path d="M82.8382 40.2458L83.4703 40.8737C83.4838 40.8604 83.4972 40.847 83.5107 40.8336L82.8785 40.2057C82.9431 40.1228 82.9377 40.0026 82.8597 39.9251C82.7763 39.8423 82.6391 39.8423 82.5557 39.9251C82.4723 40.0079 82.4723 40.1442 82.5557 40.2271C82.6337 40.3046 82.7548 40.3099 82.8382 40.2458Z" fill="#D90000"/>
    <path d="M85.8107 41.7636C85.7085 41.7289 85.5955 41.7743 85.5498 41.8705L84.7024 41.5765C84.697 41.5952 84.689 41.6113 84.6836 41.63L85.531 41.9239C85.5094 42.0281 85.5659 42.1324 85.6708 42.1698C85.7838 42.2098 85.9049 42.1484 85.9452 42.0388C85.9856 41.9266 85.9237 41.8063 85.8134 41.7663L85.8107 41.7636Z" fill="#D90000"/>
    <path d="M85.1735 42.4851L84.536 41.8517C84.5225 41.8651 84.5091 41.8785 84.4956 41.8918L85.1331 42.5251C85.0686 42.608 85.074 42.7282 85.152 42.8057C85.2354 42.8886 85.3726 42.8886 85.4559 42.8057C85.5393 42.7229 85.5393 42.5866 85.4559 42.5038C85.3779 42.4263 85.2569 42.4209 85.1735 42.4851Z" fill="#D90000"/>
    <path d="M84.673 42.8351L84.318 42.0121C84.3018 42.0201 84.283 42.0281 84.2642 42.0335L84.6192 42.8565C84.5278 42.9099 84.4874 43.0248 84.5305 43.1237C84.5762 43.2333 84.7053 43.2814 84.8129 43.2359C84.9205 43.1905 84.9716 43.0623 84.9259 42.9554C84.8829 42.8565 84.7726 42.8057 84.6704 42.8351H84.673Z" fill="#D90000"/>
    <path d="M85.8432 41.1517C85.7329 41.1517 85.6441 41.2318 85.6307 41.336H84.7349C84.7349 41.336 84.7349 41.3521 84.7349 41.3601C84.7349 41.3708 84.7349 41.3815 84.7349 41.3922H85.6307C85.6441 41.4964 85.7329 41.5765 85.8432 41.5765C85.9615 41.5765 86.0584 41.4803 86.0584 41.3628C86.0584 41.2452 85.9615 41.149 85.8432 41.149V41.1517Z" fill="#D90000"/>
    <path d="M84.0353 42.9768V42.0816C84.0353 42.0816 84.0165 42.0816 84.0057 42.0816C83.995 42.0816 83.9869 42.0816 83.9761 42.0816V42.9768C83.8712 42.9901 83.7905 43.0783 83.7905 43.1879C83.7905 43.3054 83.8874 43.4016 84.0057 43.4016C84.1241 43.4016 84.2209 43.3054 84.2209 43.1879C84.2209 43.0783 84.1402 42.9901 84.0353 42.9768Z" fill="#D90000"/>
    <path d="M83.5161 41.8918C83.5026 41.8785 83.4892 41.8651 83.4757 41.8517L82.8382 42.4851C82.7548 42.4209 82.6337 42.4263 82.5557 42.5038C82.4723 42.5866 82.4723 42.7229 82.5557 42.8057C82.6391 42.8886 82.7763 42.8886 82.8597 42.8057C82.9377 42.7282 82.9431 42.608 82.8785 42.5251L83.5161 41.8918Z" fill="#D90000"/>
    <path d="M83.5086 42.8992L83.7992 42.0522C83.7803 42.0468 83.7615 42.0415 83.7454 42.0334L83.4548 42.8805C83.3499 42.8592 83.245 42.9179 83.2101 43.0195C83.1724 43.1317 83.2316 43.252 83.3446 43.292C83.4575 43.3295 83.5786 43.2707 83.6189 43.1584C83.6539 43.0569 83.6055 42.9447 83.5113 42.8992H83.5086Z" fill="#D90000"/>
    <path d="M82.5856 42.143L83.3791 41.7261C83.3684 41.7101 83.3603 41.6941 83.3522 41.6754L82.5587 42.0922C82.4968 42.0067 82.3811 41.9773 82.2843 42.0281C82.1794 42.0842 82.139 42.2125 82.1955 42.3167C82.252 42.4209 82.3811 42.461 82.486 42.4049C82.5829 42.3541 82.6232 42.2419 82.5856 42.143Z" fill="#D90000"/>
    <path d="M48.2223 59.9985C35.5952 59.9985 23.6998 56.9602 14.7312 51.4422C5.51776 45.7745 0.444336 38.1588 0.444336 29.9979C0.444336 21.8371 5.51776 14.224 14.7285 8.55633C23.6998 3.03827 35.5952 0 48.2223 0C60.8493 0 72.7447 3.03827 81.7133 8.55633C90.9268 14.224 95.9975 21.8371 95.9975 29.9979C95.9975 38.1588 90.9241 45.7745 81.7133 51.4395C72.742 56.9576 60.8493 59.9958 48.2223 59.9958V59.9985ZM48.2223 0.534436C35.6947 0.534436 23.8989 3.54599 15.0136 9.0106C5.96431 14.5768 0.982345 22.0295 0.982345 29.9979C0.982345 37.9664 5.96431 45.4191 15.0136 50.9852C23.9015 56.4525 35.6947 59.4614 48.2223 59.4614C60.7498 59.4614 72.5457 56.4498 81.4309 50.9852C90.4775 45.4191 95.4622 37.9664 95.4622 29.9979C95.4622 22.0295 90.4802 14.5768 81.4309 9.0106C72.543 3.54599 60.7498 0.534436 48.2223 0.534436Z" fill="#D90000"/>
    <path d="M48.2222 58.5288C22.6937 58.5288 1.92383 45.7317 1.92383 30.0006C1.92383 14.2694 22.6937 1.4697 48.2222 1.4697C73.7508 1.4697 94.5206 14.2668 94.5206 30.0006C94.5206 45.7344 73.7508 58.5288 48.2222 58.5288ZM48.2222 1.73691C22.8416 1.73691 2.19283 14.4164 2.19283 29.9979C2.19283 45.5794 22.8416 58.2589 48.2222 58.2589C73.6028 58.2589 94.2516 45.5794 94.2516 29.9979C94.2516 14.4164 73.6028 1.73691 48.2222 1.73691Z" fill="#D90000"/>
    <path d="M36.7251 29.875C35.5442 29.6826 34.6995 28.881 34.1158 27.7934C33.2549 28.4561 32.2838 29.0066 31.1594 29.3807L30.8124 28.6912C31.8938 28.0847 32.8111 27.3952 33.5751 26.5669C33.0747 25.1052 32.8541 23.3549 32.7707 21.7943H30.5622V23.6568C31.1728 23.4511 31.77 23.2293 32.3242 23.0075L32.6309 23.6568C32.0337 24.1111 31.3262 24.552 30.5622 24.9529V28.261C30.5622 30.0407 28.8271 30.372 26.4384 29.1295L26.6051 28.4401C28.7141 28.7447 28.8809 28.6191 28.8809 27.8201V25.7518C28.0766 26.0832 27.2696 26.3718 26.4922 26.5936L25.9219 24.9128C26.9064 24.707 27.9071 24.4585 28.8782 24.1806V21.7943H26.1425V20.8992H28.8782V19.5069C28.0739 19.6459 27.24 19.7287 26.4626 19.7822L26.3523 19.0366C28.394 18.5957 30.113 17.9758 31.4741 17.1741L32.5986 18.5129C32.0444 18.7614 31.3343 18.9805 30.5568 19.1756V20.8992H32.7223C32.6954 19.865 32.6793 18.8442 32.6954 17.2303H34.374C34.3606 18.8576 34.374 19.8784 34.4009 20.8992H38.1777V21.7943H34.4439C34.5139 22.8552 34.6376 23.9321 34.8475 24.8967C35.3182 24.1378 35.7217 23.2961 36.0687 22.3448L37.637 23.0075C37.0667 24.3169 36.3324 25.5594 35.3747 26.6069C35.6814 27.3231 36.0956 27.8629 36.6229 28.0953C37.0936 28.3011 37.1932 28.0392 37.177 25.8213H37.898C38.6054 28.4267 38.4952 30.1796 36.717 29.875H36.7251ZM36.4077 20.5812C35.9504 19.686 35.2967 18.6091 34.7694 17.8101L35.3397 17.3264C36.2409 17.9063 37.2147 18.8149 37.8092 19.6005L36.4077 20.5785V20.5812Z" fill="#D90000"/>
    <path d="M44.5099 25.7518L45.2174 25.9576C45.1206 27.2964 44.6202 28.6592 43.8428 29.5303L42.5112 28.3706C43.4689 27.6812 44.093 26.8261 44.5099 25.7492V25.7518ZM42.5247 25.8213C43.4124 24.5654 43.4554 23.0636 43.442 20.1803V18.5931H49.7448C49.7017 18.1254 49.6748 17.6284 49.6614 17.1314H51.1893C51.2028 17.6418 51.2297 18.1254 51.2727 18.5931H53.0078C52.5505 18.2083 52.0905 17.8208 51.6762 17.5189L52.0098 16.9256C52.8141 17.1608 53.5915 17.4494 54.3286 17.8769L53.8578 18.5931H54.9123V19.4482H51.3588C51.4691 20.4689 51.6359 21.3508 51.8995 22.0829C52.2331 21.4202 52.5101 20.7175 52.72 19.9318L54.1349 20.4689C53.7745 21.447 53.2876 22.4677 52.5935 23.3923C52.8572 23.7103 53.1638 23.9428 53.5377 24.0817C54.0085 24.2608 54.1215 24.0256 54.1215 22.4945H54.8021C55.3858 24.8246 54.9823 25.9977 53.5942 25.7064C52.7603 25.5274 52.0959 25.1132 51.5821 24.5066C51.0683 24.9609 50.498 25.3751 49.8201 25.7064L49.4166 25.1266C49.9869 24.6723 50.498 24.1485 50.9445 23.582C50.3608 22.4918 50.0272 21.0729 49.8335 19.4455H45.1286V20.3273C45.1286 23.5954 44.518 25.0704 43.0869 26.3397L42.5328 25.816L42.5247 25.8213ZM49.6479 21.1183H45.4407V20.3033H49.6479V21.1183ZM49.5511 24.675H45.4972V21.8344H49.5511V24.675ZM51.8834 26.5375C52.5908 28.9638 51.9802 29.4742 50.732 29.557C49.7609 29.6265 48.6903 29.6265 47.7757 29.5838C46.3472 29.5276 45.6236 29.3085 45.6236 28.1087V25.4606H47.2888V27.4326C47.2888 27.9831 47.399 28.1221 48.2061 28.1648C49.04 28.2209 49.7744 28.2049 50.4415 28.1515C51.0387 28.082 51.192 27.9163 51.1786 26.5375H51.886H51.8834ZM48.1899 22.6067H46.8718V23.8466H48.1899V22.6067ZM48.163 25.172C48.927 25.49 49.8282 26.0832 50.5518 26.7031L49.5242 27.7774C48.9001 26.9917 48.3029 26.329 47.7326 25.7358L48.163 25.1693V25.172ZM55.1033 28.5924L53.6319 29.3646C53.2714 28.261 52.7711 27.2002 52.2707 26.2355L52.841 25.8507C53.7018 26.5535 54.6191 27.7266 55.1033 28.595V28.5924Z" fill="#D90000"/>
    <path d="M66.6626 26.9089L66.8293 27.5983C64.6908 28.4801 61.9012 29.1562 59.846 29.4608L59.3887 27.6812C60.306 27.6544 61.2636 27.585 62.2482 27.4888V25.49H59.8756V24.6482H62.2482V23.0342H64.0532V24.6482H66.4124V25.49H64.0532V27.2964C64.9409 27.1868 65.8152 27.0612 66.6626 26.9089ZM61.1802 21.5859C61.4573 20.8537 61.7909 19.7662 62.0142 18.8149H59.5985V17.9598H66.8589V18.8149H64.0694C63.5152 19.7394 62.7378 20.827 62.1271 21.5592C63.0713 21.5325 64.0156 21.463 64.8468 21.3802C64.5966 20.8831 64.3464 20.4155 64.1097 20.028L64.6504 19.5871C65.4978 20.3033 66.5388 21.463 67.1764 22.441V18.5797H68.6478V26.965H67.1764V22.6494L65.7748 23.4351C65.6081 23.0209 65.4144 22.58 65.218 22.1524C63.6766 22.6628 61.4412 23.1732 59.8863 23.3656L59.4828 21.6153C60.037 21.6153 60.6073 21.6019 61.1776 21.5886L61.1802 21.5859ZM71.05 17.1875V28.261C71.05 29.9445 69.5651 30.5912 66.9262 29.06L67.1064 28.3839C69.1482 28.7287 69.4252 28.6458 69.4252 27.9564V17.1875H71.05Z" fill="#D90000"/>
    <path d="M46.7744 42.9393V43.9173H34.7956V42.9393H39.9605V39.6979H36.1702V38.7734H39.9605V36.0157H37.4883C36.8642 37.1727 36.1002 38.1935 35.2394 38.9658L34.6987 38.5115C35.7963 36.7746 36.4903 34.7197 36.8777 32.2773L38.7526 32.6915C38.5589 33.5038 38.2819 34.3322 37.9349 35.1045H39.9605V31.823H41.8623V35.1045H45.8732V36.0157H41.8623V38.7734H45.623V39.6979H41.8623V42.9393H46.777H46.7744Z" fill="#D90000"/>
    <path d="M62.1546 44.401C60.2258 43.9601 60.1559 39.9331 60.1559 36.8868H52.5619V36.0745C52.2552 36.3097 51.9378 36.5154 51.6042 36.7078L51.2007 36.1413C52.5188 34.872 53.3393 33.397 53.9365 31.6039L55.728 32.1143C55.6016 32.3896 55.451 32.6808 55.2976 32.9561H62.5581V33.7844H54.7704C54.1732 34.6262 53.4388 35.4252 52.578 36.0745H61.864C61.864 38.2657 61.934 42.1136 62.4047 42.5278C62.6549 42.7897 62.6953 42.3221 62.6953 40.6119H63.4162C64.0268 43.757 63.2629 44.874 62.1519 44.4037L62.1546 44.401ZM56.8794 40.9405C58.1141 41.3547 59.5587 42.0575 60.3764 42.5813L59.4322 43.9334C58.6817 43.2573 57.7805 42.4851 56.8767 41.809V44.54H55.1981V41.988C54.3238 42.8004 52.8389 43.6849 51.5181 44.0697L51.241 43.4631C52.5188 42.8004 53.8638 41.7128 54.7112 40.6493H51.7952V39.8369H53.6971C53.2935 39.038 52.7959 38.2523 52.4058 37.6591L52.9062 37.2182C53.5868 37.6324 54.418 38.3913 54.9318 38.9979L53.8504 39.8396H55.1981V37.2342H56.8632V39.8396H57.6541L57.1538 39.3987C57.5142 38.8188 57.9742 37.9637 58.2647 37.122L59.6663 37.8809C59.139 38.5703 58.3051 39.3987 57.681 39.8396H59.9433V40.652H56.8767V40.9405H56.8794ZM54.3104 35.2996V34.5273H61.4444V35.2996H54.3104Z" fill="#D90000"/>
</svg>
