<svg width="60" height="38" viewBox="0 0 60 38" fill="none" xmlns="http://www.w3.org/2000/svg">
<g clip-path="url(#clip0_22_4772)">
<path d="M30.0002 37.15C13.9255 37.15 0.847168 29.0087 0.847168 18.9991C0.847168 8.98955 13.9255 0.849976 30.0002 0.849976C46.075 0.849976 59.1533 8.99125 59.1533 18.9991C59.1533 29.007 46.075 37.15 30.0002 37.15ZM30.0002 1.01998C14.0186 1.01998 1.01655 9.08645 1.01655 18.9991C1.01655 28.9118 14.0186 36.98 30.0002 36.98C45.9818 36.98 58.9839 28.9135 58.9839 18.9991C58.9839 9.08475 45.9818 1.01998 30.0002 1.01998Z" fill="#3E51FF"/>
<path d="M30.0002 32.2812C17.53 32.2812 7.38379 26.3227 7.38379 18.9991C7.38379 11.6755 17.5283 5.71875 30.0002 5.71875C42.4722 5.71875 52.6167 11.6772 52.6167 19.0008C52.6167 26.3244 42.4705 32.2829 30.0002 32.2829V32.2812ZM30.0002 5.88875C17.6232 5.88875 7.55318 11.7707 7.55318 19.0008C7.55318 26.2309 17.6232 32.1129 30.0002 32.1129C42.3773 32.1129 52.4473 26.2309 52.4473 19.0008C52.4473 11.7707 42.3773 5.88875 30.0002 5.88875Z" fill="#3E51FF"/>
<path d="M16.371 7.34222L16.3354 7.68052C15.6951 7.67712 14.9041 7.40682 14.4417 6.71493L14.4027 6.72853C14.4569 7.54962 14.0893 8.18202 13.2814 8.70562L13.2034 8.61212C13.8844 8.08682 14.1639 7.50712 14.1368 6.81523L12.7918 7.25382L12.7461 7.11103L13.2458 6.94783L12.885 5.83263L13.8319 5.52323L13.6286 4.89593L13.881 4.81433L14.0842 5.44163L15.0176 5.13733L15.3784 6.25253L15.8831 6.08763L15.9289 6.23043L14.5619 6.67583C14.9667 7.13823 15.6358 7.37282 16.371 7.34222ZM14.1249 6.66053C14.1012 6.42763 14.0453 6.18283 13.9589 5.91933L13.8759 5.66263L13.1628 5.89553L13.4795 6.87133L14.1249 6.66053ZM14.1283 5.57933L14.2384 5.91763C14.3129 6.14883 14.3637 6.36473 14.3874 6.57383L15.1395 6.32903L14.8228 5.35323L14.1266 5.57933H14.1283Z" fill="#3E51FF"/>
<path d="M29.7034 3.57504C29.7712 3.39654 29.8338 3.15344 29.8677 2.94604L29.5052 2.95964L29.5662 4.64774C29.5764 4.92824 29.4188 5.12543 28.7515 4.85344L28.7803 4.73954C29.2647 4.81604 29.3206 4.79904 29.3121 4.60014L29.2528 2.96814L28.6193 2.99194L28.6143 2.84914L29.5171 2.81514C29.3765 2.65534 29.1597 2.43774 28.9852 2.27284L29.053 2.18104C29.1597 2.24054 29.2935 2.32214 29.4155 2.41224C29.5289 2.23884 29.6475 2.01784 29.7051 1.85124L28.6939 1.88864L28.6888 1.74924L29.7 1.71184L29.7796 1.65234L30.0388 1.79684C29.8982 2.05014 29.6916 2.31534 29.5188 2.48704C29.6035 2.54824 29.6797 2.61284 29.7339 2.66724L29.6018 2.81514L29.8474 2.80664L29.9202 2.74374L30.1675 2.85764C30.0693 3.13474 29.8982 3.47474 29.7966 3.62094L29.7017 3.57674L29.7034 3.57504ZM30.7367 4.24484L30.9738 4.39784C30.6875 4.65624 30.2454 4.90784 29.844 5.03873L29.7949 4.93164C30.1184 4.78884 30.4826 4.53214 30.7367 4.24484ZM30.8315 1.86484L30.1049 1.89204L30.0998 1.74584L31.8817 1.68124L31.8868 1.82744L31.1076 1.85634C31.0382 2.02294 30.9586 2.19124 30.8959 2.30684L31.6683 2.27794L31.736 4.12754L30.3183 4.18024L30.2505 2.33064L30.7655 2.31194C30.7943 2.17594 30.8146 2.00254 30.8315 1.86654V1.86484ZM31.4312 2.43604L30.4944 2.47004L30.5097 2.87124L31.4464 2.83724L31.4312 2.43604ZM31.4515 2.98174L30.5148 3.01574L30.53 3.43904L31.4667 3.40504L31.4515 2.98174ZM31.4718 3.55124L30.5351 3.58524L30.5503 4.02384L31.4871 3.98984L31.4718 3.55124ZM32.0884 4.67834L31.9359 4.92484C31.736 4.76334 31.3753 4.51344 31.0856 4.34174L31.1347 4.23464C31.4481 4.33154 31.8089 4.50154 32.0884 4.68004V4.67834Z" fill="#3E51FF"/>
<path d="M31.9295 34.9995C31.772 34.9672 31.5721 34.9111 31.3637 34.8329L31.4061 36.0161L31.1639 36.0246L31.1571 35.8478L29.5682 35.9056L29.575 36.0892L29.3362 36.0977L29.2921 34.9077C29.094 35.0012 28.8907 35.0828 28.6925 35.1474L28.6519 35.0403C29.138 34.8533 29.7241 34.5218 30.0053 34.1631L28.7264 34.2107L28.7213 34.0645L29.6766 34.0288C29.5598 33.8979 29.431 33.7636 29.3311 33.6701L29.3734 33.6123C29.3057 33.6191 29.2396 33.6242 29.1753 33.6276L29.1566 33.5154C29.9782 33.4253 30.6557 33.2536 30.9945 33.1261L31.2265 33.3233C31.0046 33.3845 30.7116 33.4474 30.3931 33.4967L30.4118 34.0016L30.6997 33.9914C30.8065 33.8418 30.9335 33.6225 31.0233 33.4321L31.2435 33.5511C31.1113 33.7211 30.9826 33.8758 30.8556 33.9846L31.8583 33.9472L31.8634 34.0934L30.4728 34.1444C30.9081 34.4912 31.523 34.6612 32.0294 34.7326L31.9312 34.9978L31.9295 34.9995ZM29.0228 33.7466L28.7772 33.7551L28.7518 33.0547L30.3339 32.9969C30.1391 32.8949 29.8968 32.7878 29.6953 32.7096L29.7241 32.5991C29.9341 32.6297 30.261 32.6909 30.5032 32.7912L30.4135 32.9935L31.7669 32.9442L31.7923 33.6412L31.5467 33.6497L31.5263 33.104L29.0008 33.1958L29.0211 33.7466H29.0228ZM31.235 34.7819C30.9318 34.6544 30.6218 34.4742 30.4202 34.2498L30.4372 34.7071L30.1916 34.7156L30.1763 34.2957C30.0002 34.5014 29.7241 34.6867 29.4158 34.8482L31.2367 34.7819H31.235ZM29.885 33.9319L29.7952 34.0254L30.1645 34.0118L30.1475 33.5324C29.9172 33.563 29.6749 33.5902 29.4412 33.6106C29.6004 33.6956 29.763 33.8129 29.8867 33.9319H29.885ZM30.2068 34.9655L29.5361 34.991L29.5462 35.2936L30.217 35.2681L30.2068 34.9655ZM30.2238 35.4143L29.553 35.4398L29.5648 35.7611L30.2356 35.7356L30.2238 35.4143ZM31.1249 34.9315L30.4457 34.957L30.4575 35.2596L31.1368 35.2341L31.1266 34.9315H31.1249ZM31.1401 35.382L30.4609 35.4075L30.4728 35.7288L31.152 35.7033L31.1401 35.382Z" fill="#3E51FF"/>
<path d="M15.126 31.7287L14.8109 32.9901C14.7313 33.3097 14.4451 33.2995 13.981 32.9833L14.025 32.8864C14.4959 33.0632 14.5467 33.0632 14.5975 32.8609L14.8584 31.8137C14.6839 31.863 14.5128 31.9055 14.3485 31.9327L14.2977 31.6607C14.4773 31.6471 14.6958 31.625 14.916 31.5876L15.1243 30.7512L14.6178 30.6237L14.6534 30.4826L15.1599 30.6101L15.3394 29.8876L15.5715 29.9454L15.3919 30.6679L15.7832 30.7665L15.7477 30.9076L15.3564 30.809L15.1751 31.5383C15.3005 31.5128 15.4241 31.4805 15.5359 31.4482L15.5647 31.5519C15.4292 31.6182 15.2801 31.6777 15.1277 31.7287H15.126ZM17.2958 33.6752L17.1265 33.9098C16.9537 33.8282 16.349 33.4644 16.2829 32.7555H16.2795C15.9289 33.2961 15.3767 33.4151 14.7957 33.3556L14.7872 33.2502C15.3445 33.2706 15.7595 33.1159 16.0373 32.6943L15.1362 32.4682L15.1717 32.322L16.1169 32.56C16.1745 32.4512 16.2287 32.3254 16.2728 32.1826L16.5082 32.2574C16.4659 32.3934 16.4167 32.5158 16.3591 32.6212L17.4127 32.8864L17.3772 33.0309L16.3998 32.7861C16.537 33.2383 16.9689 33.5273 17.2975 33.6752H17.2958ZM16.5776 30.1664L16.8029 30.316C16.7267 30.4061 16.6573 30.4843 16.5861 30.5557L17.0384 30.6696L17.1265 30.6424L17.3297 30.8277C17.2027 30.9705 16.9791 31.1405 16.8148 31.2391L17.5431 31.421L17.2332 32.6637L17.0045 32.6059L17.2789 31.5043L16.0407 31.1932L15.7629 32.305L15.5342 32.2472L15.8222 31.0912C15.7426 31.1286 15.6613 31.1626 15.5783 31.1915L15.5342 31.0912C15.9238 30.9025 16.3032 30.5812 16.5776 30.163V30.1664ZM16.764 31.4567C16.7149 31.5298 16.6674 31.5944 16.6149 31.6539C16.7911 31.829 16.9367 32.0279 17.0197 32.1758L16.8199 32.2999C16.7487 32.1231 16.6471 31.9242 16.537 31.7389C16.3507 31.9276 16.1389 32.0568 15.9035 32.1367L15.8561 32.0313C16.1491 31.8766 16.3829 31.6624 16.5692 31.3309L16.764 31.4567ZM15.9628 31.0232L16.6623 31.1983C16.7911 31.0844 16.9198 30.9348 17.0062 30.809L16.4591 30.6713C16.2914 30.8192 16.1288 30.9314 15.9645 31.0215L15.9628 31.0232Z" fill="#3E51FF"/>
<path d="M45.1823 30.9076C45.1484 31.0334 45.1078 31.1609 45.0603 31.2816L46.6865 30.7512L47.2488 32.4903L47.0083 32.5685L46.9304 32.3305L45.4889 32.8014L45.5702 33.0547L45.3297 33.1329L44.8689 31.7117C44.7148 32.0109 44.5217 32.2863 44.3066 32.5175L44.2151 32.441C44.5539 32.0075 44.7995 31.5094 44.9231 30.9926L43.9898 31.2969L43.9441 31.1541L44.9621 30.8209C44.979 30.7172 44.9977 30.6118 45.0062 30.5064L44.044 30.8209L43.9983 30.6815L45.0163 30.3483C45.0248 30.2395 45.0231 30.129 45.0163 30.0219C44.6437 30.1834 44.2575 30.333 43.9119 30.4418L43.8628 30.3398C44.7995 29.9709 45.5448 29.5595 46.0275 29.2076L46.3257 29.3419C46.0936 29.5 45.7091 29.704 45.2822 29.8995C45.289 30.0202 45.2941 30.1409 45.2856 30.2616L46.6136 29.8281L46.6594 29.9675L45.2755 30.4197C45.2636 30.5268 45.245 30.6305 45.2213 30.7376L46.9609 30.1698L47.0066 30.3126L45.1823 30.9076ZM46.4917 30.9739L45.0502 31.4448L45.1501 31.7508L46.5916 31.2799L46.4917 30.9739ZM46.6339 31.4159L45.1925 31.8868L45.2958 32.203L46.7373 31.7321L46.6339 31.4142V31.4159ZM46.7796 31.8647L45.3381 32.3356L45.4449 32.6637L46.8863 32.1928L46.7796 31.8647Z" fill="#3E51FF"/>
<path d="M46.9182 7.87611C46.7827 7.78941 46.6167 7.66191 46.4524 7.51231L46.0611 8.62921L45.8324 8.54931L45.89 8.38271L44.391 7.85231L44.33 8.02571L44.1047 7.94581L44.4994 6.82212C44.2809 6.83572 44.0623 6.83912 43.854 6.82382V6.70822C44.3757 6.71332 45.0414 6.61982 45.4344 6.38862L44.2267 5.96192L44.2758 5.82422L45.1769 6.14212C45.1159 5.97722 45.0448 5.80552 44.9855 5.68142L45.0465 5.64402C44.9821 5.62532 44.9178 5.60662 44.8568 5.58452L44.8805 5.47402C45.6783 5.69162 46.3711 5.78172 46.7336 5.78682L46.8759 6.05542C46.6472 6.02992 46.3525 5.98232 46.0374 5.90922L45.8697 6.38692L46.1407 6.48212C46.2949 6.38182 46.4913 6.22542 46.6455 6.08092L46.8081 6.27302C46.6235 6.38182 46.4473 6.47872 46.2898 6.53482L47.2366 6.86972L47.1875 7.00742L45.8748 6.54332C46.1526 7.02612 46.6624 7.40861 47.1079 7.66191L46.9199 7.87271L46.9182 7.87611ZM45.1786 7.63471L44.5451 7.41031L44.4384 7.71461L45.0719 7.93901L45.1786 7.63471ZM44.6704 5.64062L44.4384 5.55902L44.6704 4.89772L46.1627 5.42472C46.0188 5.25812 45.8324 5.06942 45.6749 4.92322L45.7427 4.83142C45.9273 4.93682 46.2085 5.11532 46.3982 5.29722L46.2407 5.45192L47.5178 5.90412L47.2875 6.56202L47.0554 6.48042L47.2366 5.96362L44.8534 5.12212L44.6704 5.64232V5.64062ZM45.3277 7.21141L44.6942 6.98701L44.5942 7.27261L45.2277 7.49701L45.3277 7.21141ZM46.3508 7.41711C46.1153 7.18761 45.8934 6.90542 45.7867 6.62152L45.636 7.05332L45.4039 6.97171L45.5428 6.57562C45.304 6.70142 44.9787 6.77282 44.6332 6.81022L46.3508 7.41711ZM45.4056 6.13022L45.287 6.18462L45.636 6.30702L45.7952 5.85482C45.5699 5.79872 45.3344 5.73582 45.1092 5.66782C45.2277 5.80552 45.3344 5.97382 45.4056 6.13022ZM46.0442 7.94071L45.4039 7.71461L45.2972 8.01891L45.9375 8.24501L46.0442 7.94071ZM46.1932 7.51741L45.5529 7.29131L45.453 7.57691L46.0933 7.80301L46.1932 7.51741Z" fill="#3E51FF"/>
<path d="M20.6296 4.68346C20.738 4.46246 20.8481 4.17346 20.9412 3.84537C20.7447 3.94567 20.5161 4.04596 20.3433 4.11396L20.2383 3.89126L20.428 3.85387C20.5025 3.54447 20.5652 3.12627 20.5855 2.70297L20.8498 2.73017C20.7786 3.09907 20.6584 3.54447 20.55 3.82157C20.6939 3.78417 20.843 3.74337 20.9785 3.70087C21.0192 3.54447 21.0547 3.37617 21.0818 3.20617L21.3359 3.26227C21.219 3.72807 20.992 4.28226 20.7735 4.63586C20.9514 4.57636 21.136 4.51006 21.3088 4.44036C21.2444 4.34686 21.1801 4.25676 21.1242 4.18026L21.2089 4.10886C21.3749 4.25166 21.5798 4.45906 21.7086 4.64606L21.5222 4.78206C21.4765 4.70726 21.4257 4.62226 21.3698 4.53726C21.0903 4.71576 20.7244 4.90446 20.5127 4.98946L20.3924 4.74636C20.4653 4.72766 20.5449 4.70726 20.6279 4.68346H20.6296ZM20.7532 5.09146H20.8599C20.9311 5.48756 20.9362 5.87176 20.8904 6.13696L20.6228 6.07236C20.7092 5.81736 20.7668 5.47396 20.7549 5.09146H20.7532ZM21.114 4.97586C21.2495 5.21556 21.4121 5.58786 21.4917 5.79866L21.2512 5.89216C21.197 5.66266 21.0954 5.28186 21.0141 5.01156L21.114 4.97586ZM21.778 5.34646L21.5832 5.47396C21.4884 5.26316 21.3783 5.06086 21.2766 4.87386L21.3681 4.81436C21.5171 4.97076 21.6527 5.15436 21.778 5.34646ZM22.4623 4.37236L21.7492 4.51516L21.4426 2.97667L22.0829 2.84747C22.0998 2.70297 22.1049 2.54147 22.1032 2.37317L22.3675 2.38167C22.3251 2.53127 22.2709 2.69617 22.215 2.82027L23.1992 2.62137L23.5057 4.15986L22.4911 4.36386C22.6927 4.44206 22.94 4.57126 23.1348 4.71236L22.9908 4.92486C22.8062 4.74806 22.5843 4.58316 22.4098 4.45736L22.4606 4.37066L22.4623 4.37236ZM21.9508 4.32646L22.1303 4.29076L22.0795 4.22786C22.232 4.09866 22.3759 3.93886 22.4894 3.74507C22.3844 3.69747 22.2794 3.64987 22.1761 3.60567C22.1235 3.70767 22.066 3.79947 22.0101 3.87936L21.9186 3.82497C21.966 3.73487 22.005 3.64647 22.0355 3.55297C21.9779 3.53087 21.9203 3.50707 21.8627 3.48837L21.8881 3.38807L22.0761 3.43057C22.1168 3.28947 22.1473 3.14157 22.1659 2.98177L21.7018 3.07527L21.9525 4.32816L21.9508 4.32646ZM21.8881 4.85006L22.0016 4.84666C22.0609 5.16286 22.0626 5.45356 21.9965 5.73406L21.7407 5.65246C21.8593 5.38386 21.9 5.16966 21.8898 4.85176L21.8881 4.85006ZM23.3025 4.87896C23.5057 5.34306 23.4922 5.52496 23.2246 5.59806C23.0433 5.64566 22.8604 5.68306 22.7045 5.70176C22.398 5.74426 22.3116 5.67456 22.2557 5.39916L22.0998 4.62056L22.337 4.57296L22.4877 5.32606C22.5165 5.47226 22.5741 5.49266 22.7147 5.47566C22.8367 5.45866 22.9908 5.43146 23.128 5.38896C23.2686 5.34646 23.2838 5.31586 23.1924 4.90616L23.3008 4.88066L23.3025 4.87896ZM22.9976 2.81347L22.2336 2.96817L22.3895 2.98687C22.3742 3.05827 22.3607 3.12627 22.3387 3.19257L22.6385 3.13307L22.7045 3.06167L22.9197 3.12627C22.8807 3.33197 22.8231 3.50537 22.7503 3.64987C22.8824 3.70257 23.0077 3.75867 23.1314 3.82157L23.0179 4.02046C22.9044 3.95076 22.7825 3.88786 22.6554 3.82157C22.5216 4.02726 22.3641 4.17006 22.2099 4.27886L23.25 4.06976L22.9993 2.81687L22.9976 2.81347ZM22.2387 3.47477C22.3471 3.50537 22.4572 3.54107 22.569 3.58017C22.6131 3.47987 22.6453 3.36937 22.669 3.24697L22.2997 3.32177C22.2794 3.37447 22.2591 3.42547 22.2387 3.47477ZM23.9038 5.11016L23.7124 5.25976C23.5752 5.02686 23.4363 4.81436 23.2635 4.59676L23.3397 4.52366C23.5481 4.69196 23.748 4.88916 23.9021 5.11016H23.9038Z" fill="#3E51FF"/>
<path d="M8.25778 10.7168L7.43117 11.2965L7.59548 11.5328L7.38035 11.6824L6.44873 10.3428L7.48876 9.61348L7.07377 9.01848L7.29397 8.86378L7.70896 9.45878L8.75238 8.72778L9.67215 10.0487L9.46042 10.1966L9.30797 9.97898L8.47628 10.5621L9.29273 11.7351L9.07252 11.8898L8.25608 10.7168H8.25778ZM8.168 10.5876L7.58192 9.74608L6.75532 10.3258L7.3414 11.1673L8.168 10.5876ZM9.22158 9.84978L8.63551 9.00828L7.80382 9.59138L8.3899 10.4329L9.22158 9.84978Z" fill="#3E51FF"/>
<path d="M39.6889 5.66101L38.7658 5.42981L38.5947 6.11321L38.3558 6.05371L38.5252 5.37031L37.6817 5.15781C37.4107 5.58281 36.9516 5.67801 36.374 5.58961L36.3808 5.47061C36.9025 5.50801 37.2294 5.42811 37.4395 5.09491L36.5383 4.86881L36.5739 4.72771L37.5123 4.96231C37.5513 4.88241 37.5851 4.79231 37.6139 4.69031L37.1363 4.56961L37.453 3.29801L39.6042 3.83861L39.2875 5.11021L38.8708 5.00651L38.8013 5.28701L39.7245 5.51821L39.6889 5.65931V5.66101ZM36.9211 3.34731L36.8686 3.24871C37.1854 3.04642 37.5292 2.66902 37.7427 2.28992L37.973 2.43272C37.912 2.52452 37.8426 2.61632 37.763 2.70472L38.7217 2.94612L38.6861 3.08721L38.0594 2.93082C38.1255 3.05151 38.178 3.18071 38.2271 3.33881L37.9849 3.38641C37.9663 3.19601 37.9442 3.05492 37.9154 2.89342L37.6478 2.82542C37.4225 3.05152 37.1583 3.24701 36.9211 3.34561V3.34731ZM37.4056 4.48971L39.0859 4.91131L39.1469 4.66481L37.4666 4.24321L37.4056 4.48971ZM37.5004 4.11061L39.1808 4.53221L39.2417 4.28571L37.5614 3.86411L37.5004 4.11061ZM37.5953 3.73321L39.2756 4.15481L39.3349 3.91851L37.6546 3.49691L37.5953 3.73321ZM38.5608 5.22751L38.6302 4.94871L37.8562 4.75491C37.8274 4.85521 37.7935 4.94701 37.7545 5.02691L38.5625 5.22921L38.5608 5.22751ZM38.3745 3.41191C38.6286 3.25551 38.9199 2.98522 39.1316 2.64012L39.3518 2.78802C39.2824 2.88322 39.2028 2.96652 39.1266 3.04471L40.2564 3.32861L40.2208 3.46971L39.4535 3.27761C39.5212 3.40681 39.5822 3.54961 39.6279 3.70771L39.3874 3.74681C39.3688 3.55641 39.3484 3.40851 39.3163 3.24191L38.9944 3.16031C38.7946 3.32691 38.5896 3.44081 38.4253 3.51221L38.3745 3.41021V3.41191Z" fill="#3E51FF"/>
<path d="M37.2954 33.1788L37.0532 33.2281L36.916 32.5413L38.4676 32.2285C38.2592 32.1588 38.0035 32.0925 37.7917 32.0466L37.8036 31.9327C38.0153 31.9276 38.349 31.9378 38.6048 31.9973L38.5489 32.2115L39.8769 31.9446L40.0124 32.628L39.7702 32.6773L39.6635 32.1401L37.1853 32.6382L37.2937 33.1788H37.2954ZM40.3647 33.9472C40.2038 33.9421 39.9972 33.9183 39.7786 33.8741L40.0107 35.0352L39.7736 35.0828L39.7397 34.9094L38.1813 35.2222L38.2169 35.4024L37.9831 35.45L37.7494 34.2821C37.5682 34.4062 37.3818 34.5201 37.1955 34.6153L37.1379 34.5167C37.5885 34.2549 38.1119 33.8316 38.3338 33.4321L37.0786 33.6837L37.0498 33.5409L37.9865 33.3522C37.851 33.2417 37.702 33.1312 37.5885 33.0547L37.6207 32.9901C37.5563 33.0071 37.4902 33.0241 37.4276 33.036L37.3903 32.9289C38.1881 32.7079 38.8284 32.4291 39.1418 32.2489L39.4009 32.407C39.1909 32.5022 38.9131 32.6127 38.6048 32.7113L38.703 33.2077L38.9842 33.1516C39.0655 32.9867 39.1553 32.7504 39.2146 32.5481L39.4517 32.6297C39.3484 32.8184 39.2468 32.9918 39.1384 33.121L40.1225 32.9238L40.1513 33.0666L38.786 33.3403C39.2705 33.614 39.904 33.6803 40.4155 33.6701L40.3613 33.9489L40.3647 33.9472ZM38.1746 33.223L38.1 33.3301L38.4625 33.257L38.3694 32.7861C38.1475 32.8541 37.912 32.9204 37.685 32.9765C37.8561 33.0343 38.034 33.1244 38.1762 33.2213L38.1746 33.223ZM39.6431 33.8435C39.323 33.767 38.9893 33.6378 38.7539 33.4491L38.8436 33.8979L38.6014 33.9472L38.5184 33.5358C38.3778 33.767 38.1339 33.9948 37.8561 34.2039L39.6414 33.8452L39.6431 33.8435ZM38.6573 34.1903L37.9984 34.3229L38.0577 34.6204L38.7166 34.4878L38.6573 34.1903ZM38.7454 34.6323L38.0865 34.7649L38.1491 35.0811L38.8081 34.9485L38.7454 34.6323ZM39.5584 34.0101L38.8928 34.1444L38.952 34.4419L39.6177 34.3076L39.5584 34.0101ZM39.6465 34.4504L38.9808 34.5847L39.0435 34.9009L39.7092 34.7666L39.6465 34.4504Z" fill="#3E51FF"/>
<path d="M21.937 32.8626L21.3052 35.399L21.0698 35.3395L21.5966 33.2281C21.4103 33.4015 21.2053 33.5511 20.9834 33.6684L20.9292 33.5613C21.4306 33.2009 21.8439 32.6518 22.1911 31.9905L22.4317 32.135C22.2826 32.3951 22.1217 32.6399 21.9387 32.8609L21.937 32.8626ZM22.6739 33.8435C22.4435 34.2413 22.0692 34.7105 21.6694 35.0012L21.5966 34.9094C21.9167 34.6 22.225 34.1444 22.4334 33.6956L22.6739 33.8452V33.8435ZM23.4158 33.1686L22.85 35.4364C22.7704 35.756 22.4909 35.8138 21.8439 35.3497L21.8947 35.2511C22.4909 35.501 22.5706 35.4857 22.6231 35.2749L23.1634 33.1057L22.6485 32.9765C22.4554 33.2298 22.2301 33.4542 21.9913 33.6259L21.9133 33.5324C22.2945 33.1805 22.5909 32.7113 22.8094 32.1775L23.0669 32.3033C22.9788 32.4852 22.867 32.6705 22.7433 32.8473L24.0645 33.1788L24.1696 33.1397L24.3999 33.359C24.2017 33.5647 23.9189 33.7755 23.7241 33.8758L23.6512 33.7806C23.7918 33.6497 23.9544 33.4593 24.0425 33.3233L23.4124 33.1652L23.4158 33.1686ZM23.9595 35.4007L23.6665 35.45C23.6428 35.0199 23.5496 34.3892 23.4666 33.9982L23.5716 33.9625C23.7376 34.3637 23.8952 34.9774 23.9595 35.399V35.4007Z" fill="#3E51FF"/>
<path d="M49.898 11.191L52.2999 13.4384L52.1983 13.5472L49.7964 11.2998L49.898 11.191ZM51.4242 10.5212L52.8521 11.8574L52.0221 12.7499L50.5942 11.4137L51.4242 10.5212ZM50.767 10.2237L50.8059 10.1115C51.3378 10.2866 52.0611 10.3597 52.5642 10.2186L51.6901 9.40092L51.7901 9.29382L52.8182 10.2577L53.1875 9.85992L53.3789 10.0384L53.0096 10.4362L54.0361 11.3967L53.9362 11.5038L52.9859 10.6147C52.9487 11.1995 53.1502 11.7775 53.45 12.2637L53.1519 12.3589C52.8928 11.82 52.7725 11.1587 52.886 10.5688L52.3152 11.1825L52.1238 11.004L52.6573 10.4294C52.1136 10.5858 51.3243 10.4583 50.7653 10.2254L50.767 10.2237ZM50.8737 11.4749L51.9391 12.4711L52.2237 12.1651L51.1582 11.1689L50.8737 11.4749ZM51.2599 11.0584L52.3236 12.0546L52.5675 11.7911L51.5021 10.7949L51.2582 11.0584H51.2599Z" fill="#3E51FF"/>
<path d="M5.22057 21.5474C4.94109 21.5474 4.67176 21.4335 4.47527 21.2346C4.27879 21.4335 4.00777 21.5474 3.72997 21.5474C3.15067 21.5474 2.67809 21.0731 2.67809 20.4917C2.67809 20.3183 2.72043 20.1483 2.80343 19.9953C2.39013 19.8423 2.11572 19.4496 2.11572 19.0042C2.11572 18.4228 2.58831 17.9485 3.16761 17.9485C3.25569 17.9485 3.34208 17.9587 3.42677 17.9808C3.45726 17.4283 3.91969 16.9846 4.47697 16.9846C5.03425 16.9846 5.49667 17.4283 5.52716 17.9825C5.61186 17.9604 5.69994 17.9485 5.78632 17.9485C6.36562 17.9485 6.83821 18.4466 6.83821 19.0603C6.83821 19.5057 6.58074 19.912 6.19285 20.0854C6.24705 20.2163 6.27416 20.3523 6.27416 20.4917C6.27416 21.0731 5.80157 21.5474 5.22227 21.5474H5.22057ZM4.47358 21.1292L4.50068 21.1581C4.68701 21.3604 4.94786 21.476 5.22057 21.476C5.76092 21.476 6.19963 21.0357 6.19963 20.4934C6.19963 20.3523 6.16914 20.2129 6.10985 20.082L6.09461 20.048L6.13018 20.0344C6.5096 19.8831 6.76538 19.4921 6.76538 19.062C6.76538 18.4891 6.32667 18.0233 5.78632 18.0233C5.69147 18.0233 5.59492 18.0386 5.50345 18.0675L5.45771 18.0828V18.0335C5.45263 17.4963 5.01223 17.0594 4.47866 17.0594C3.94509 17.0594 3.50638 17.4946 3.49961 18.0301V18.0777L3.45387 18.0641C3.36071 18.0352 3.26586 18.0216 3.16931 18.0216C2.62896 18.0216 2.19025 18.4619 2.19025 19.0042C2.19025 19.4326 2.46296 19.8083 2.86949 19.9409L2.91184 19.9545L2.88812 19.9936C2.79835 20.1449 2.75092 20.3183 2.75092 20.4917C2.75092 21.034 3.18963 21.4743 3.72997 21.4743C4.00099 21.4743 4.26354 21.3587 4.44987 21.1564L4.47697 21.1275L4.47358 21.1292Z" fill="#3E51FF"/>
<path d="M5.22044 21.3944C4.96805 21.3944 4.73261 21.2907 4.55983 21.1037C4.51579 21.0561 4.4311 21.0561 4.38706 21.1037C4.21428 21.2907 3.98053 21.3944 3.72645 21.3944C3.23015 21.3944 2.8287 20.9898 2.8287 20.4934C2.8287 20.3336 2.87275 20.1755 2.95405 20.0361C2.97268 20.0055 2.97607 19.9681 2.96252 19.9341C2.94897 19.9001 2.92356 19.8746 2.88799 19.8644C2.51534 19.7437 2.26465 19.3986 2.26465 19.0059C2.26465 18.5078 2.66779 18.1049 3.1624 18.1049C3.25048 18.1049 3.33856 18.1185 3.42325 18.144C3.45882 18.1542 3.49778 18.1474 3.52658 18.127C3.55537 18.1049 3.574 18.0709 3.574 18.0335C3.57909 17.5422 3.98223 17.1427 4.47175 17.1427C4.96128 17.1427 5.36442 17.5439 5.3695 18.0352C5.3695 18.0726 5.38813 18.1083 5.41862 18.1287C5.44911 18.1508 5.48807 18.1559 5.52364 18.1457C5.60833 18.1185 5.69472 18.1049 5.7828 18.1049C6.2791 18.1049 6.68055 18.535 6.68055 19.0637C6.68055 19.4598 6.4468 19.8202 6.09786 19.9596C6.06737 19.9715 6.04366 19.9953 6.0318 20.0259C6.01994 20.0565 6.02164 20.0905 6.03349 20.1194C6.08939 20.2401 6.11649 20.3659 6.11649 20.4968C6.11649 20.9949 5.71335 21.3978 5.21874 21.3978L5.22044 21.3944ZM4.47345 21.0102C4.52087 21.0102 4.56661 21.0306 4.59879 21.0663C4.7614 21.2431 4.9816 21.34 5.21874 21.34C5.68456 21.34 6.06398 20.9592 6.06398 20.4934C6.06398 20.371 6.03688 20.252 5.98606 20.1398C5.96574 20.0973 5.96574 20.048 5.98268 20.0038C5.99962 19.9596 6.03519 19.9256 6.07923 19.9086C6.40784 19.7777 6.62804 19.4377 6.62804 19.0637C6.62804 18.5656 6.24861 18.1593 5.7845 18.1593C5.70319 18.1593 5.62188 18.1729 5.54227 18.1967C5.49146 18.2137 5.43387 18.2035 5.38983 18.1729C5.34578 18.1406 5.31868 18.0896 5.31868 18.0352C5.3136 17.5728 4.93587 17.1954 4.47514 17.1954C4.01441 17.1954 3.63668 17.5711 3.6316 18.0318C3.6316 18.0862 3.60449 18.1372 3.56215 18.1678C3.51811 18.2001 3.46221 18.2086 3.41139 18.1933C3.33178 18.1695 3.24878 18.1576 3.16748 18.1576C2.70167 18.1576 2.32224 18.5384 2.32224 19.0059C2.32224 19.3748 2.55769 19.6995 2.90832 19.8134C2.95744 19.8287 2.99809 19.8661 3.01672 19.9154C3.03536 19.9647 3.03027 20.0191 3.00487 20.0633C2.92864 20.1942 2.8863 20.3421 2.8863 20.4934C2.8863 20.9609 3.26572 21.34 3.73153 21.34C3.96867 21.34 4.18888 21.2431 4.35149 21.0663C4.38367 21.0306 4.4294 21.0102 4.47683 21.0102H4.47345Z" fill="#3E51FF"/>
<path d="M4.47361 19.8253C4.2009 19.8253 3.979 19.6026 3.979 19.3289C3.979 19.0552 4.2009 18.8325 4.47361 18.8325C4.74632 18.8325 4.96822 19.0552 4.96822 19.3289C4.96822 19.6026 4.74632 19.8253 4.47361 19.8253ZM4.47361 18.9056C4.24155 18.9056 4.05184 19.096 4.05184 19.3289C4.05184 19.5618 4.24155 19.7522 4.47361 19.7522C4.70567 19.7522 4.89538 19.5618 4.89538 19.3289C4.89538 19.096 4.70567 18.9056 4.47361 18.9056Z" fill="#3E51FF"/>
<path d="M4.45477 18.3072V18.8716C4.45477 18.8716 4.46662 18.8716 4.4734 18.8716C4.48017 18.8716 4.48526 18.8716 4.49203 18.8716V18.3072C4.55809 18.2987 4.60891 18.2426 4.60891 18.1729C4.60891 18.0981 4.54793 18.0369 4.4734 18.0369C4.39887 18.0369 4.33789 18.0981 4.33789 18.1729C4.33789 18.2426 4.38871 18.2987 4.45477 18.3072Z" fill="#3E51FF"/>
<path d="M4.05332 18.3973L4.27522 18.9158C4.28538 18.9107 4.29724 18.9056 4.3091 18.9022L4.0872 18.3837C4.14479 18.3497 4.1702 18.2766 4.1431 18.2137C4.1143 18.144 4.033 18.1134 3.96524 18.1423C3.8958 18.1712 3.86531 18.2528 3.8941 18.3208C3.9212 18.3837 3.99065 18.416 4.05502 18.3973H4.05332Z" fill="#3E51FF"/>
<path d="M3.45194 19.351H4.016C4.016 19.351 4.016 19.3374 4.016 19.3306C4.016 19.3255 4.016 19.3204 4.016 19.3153H3.45194C3.44347 19.249 3.38757 19.198 3.31813 19.198C3.2436 19.198 3.18262 19.2592 3.18262 19.334C3.18262 19.4088 3.2436 19.47 3.31813 19.47C3.38757 19.47 3.44347 19.419 3.45194 19.3527V19.351Z" fill="#3E51FF"/>
<path d="M3.33664 19.079C3.40101 19.1011 3.47215 19.0722 3.50094 19.011L4.03282 19.1963C4.0362 19.1844 4.03959 19.1725 4.04467 19.1623L3.5128 18.977C3.52635 18.9107 3.49078 18.8444 3.42472 18.8206C3.35358 18.7951 3.27735 18.8342 3.25195 18.9039C3.22654 18.9736 3.2655 19.0518 3.33495 19.0773L3.33664 19.079Z" fill="#3E51FF"/>
<path d="M4.78671 18.3564L4.60547 18.8902C4.61733 18.8936 4.62749 18.8987 4.63935 18.9021L4.82059 18.3683C4.88665 18.3819 4.95271 18.3445 4.97473 18.2799C4.99844 18.2085 4.96118 18.132 4.89004 18.1065C4.8189 18.0827 4.74267 18.1201 4.71726 18.1915C4.69524 18.2561 4.72573 18.3275 4.78502 18.3564H4.78671Z" fill="#3E51FF"/>
<path d="M5.36762 18.8358L4.86963 19.0993C4.8764 19.1095 4.88149 19.1197 4.88657 19.1316L5.38456 18.8664C5.42352 18.9208 5.49636 18.9395 5.55734 18.9072C5.6234 18.8715 5.64881 18.7899 5.61323 18.7236C5.57766 18.6573 5.49636 18.6318 5.4303 18.6675C5.36932 18.6998 5.34391 18.7712 5.36762 18.8341V18.8358Z" fill="#3E51FF"/>
<path d="M4.78516 18.994C4.79363 19.0025 4.80209 19.011 4.81056 19.0195L5.20862 18.62C5.26113 18.6608 5.33736 18.6574 5.38648 18.6081C5.43899 18.5554 5.43899 18.4687 5.38648 18.416C5.33397 18.3633 5.24758 18.3633 5.19507 18.416C5.14595 18.4653 5.14256 18.5418 5.18321 18.5945L4.78516 18.994Z" fill="#3E51FF"/>
<path d="M3.73823 18.62L4.13629 19.0195C4.14476 19.011 4.15323 19.0025 4.1617 18.994L3.76364 18.5945C3.80429 18.5418 3.80091 18.4653 3.75178 18.416C3.69927 18.3633 3.61289 18.3633 3.56038 18.416C3.50787 18.4687 3.50787 18.5554 3.56038 18.6081C3.6095 18.6574 3.68572 18.6608 3.73823 18.62Z" fill="#3E51FF"/>
<path d="M5.61012 19.5856C5.54575 19.5635 5.47461 19.5924 5.44581 19.6536L4.91225 19.4666C4.90886 19.4785 4.90378 19.4887 4.90039 19.5006L5.43396 19.6876C5.42041 19.7539 5.45598 19.8202 5.52204 19.844C5.59318 19.8695 5.6694 19.8304 5.69481 19.7607C5.72022 19.6893 5.68126 19.6128 5.61181 19.5873L5.61012 19.5856Z" fill="#3E51FF"/>
<path d="M5.20859 20.0445L4.80715 19.6416C4.79868 19.6501 4.79021 19.6586 4.78174 19.6671L5.18318 20.07C5.14253 20.1227 5.14592 20.1992 5.19504 20.2485C5.24755 20.3012 5.33394 20.3012 5.38645 20.2485C5.43896 20.1958 5.43896 20.1091 5.38645 20.0564C5.33733 20.0071 5.2611 20.0037 5.20859 20.0445Z" fill="#3E51FF"/>
<path d="M4.89321 20.2673L4.66962 19.7437C4.65946 19.7488 4.6476 19.7539 4.63574 19.7573L4.85933 20.2809C4.80174 20.3149 4.77633 20.388 4.80343 20.4509C4.83223 20.5206 4.91354 20.5512 4.98129 20.5223C5.04904 20.4934 5.08123 20.4118 5.05243 20.3438C5.02533 20.2809 4.95588 20.2486 4.89152 20.2673H4.89321Z" fill="#3E51FF"/>
<path d="M5.63049 19.1963C5.56104 19.1963 5.50514 19.2473 5.49667 19.3136H4.93262C4.93262 19.3136 4.93262 19.3238 4.93262 19.3289C4.93262 19.3357 4.93262 19.3425 4.93262 19.3493H5.49667C5.50514 19.4156 5.56104 19.4666 5.63049 19.4666C5.70502 19.4666 5.766 19.4054 5.766 19.3306C5.766 19.2558 5.70502 19.1946 5.63049 19.1946V19.1963Z" fill="#3E51FF"/>
<path d="M4.49203 20.359V19.7896C4.49203 19.7896 4.48017 19.7896 4.4734 19.7896C4.46662 19.7896 4.46154 19.7896 4.45477 19.7896V20.359C4.38871 20.3675 4.33789 20.4236 4.33789 20.4933C4.33789 20.5681 4.39887 20.6293 4.4734 20.6293C4.54793 20.6293 4.60891 20.5681 4.60891 20.4933C4.60891 20.4236 4.55809 20.3675 4.49203 20.359Z" fill="#3E51FF"/>
<path d="M4.16509 19.6688C4.15662 19.6603 4.14815 19.6518 4.13968 19.6433L3.73823 20.0462C3.68572 20.0054 3.6095 20.0088 3.56038 20.0581C3.50787 20.1108 3.50787 20.1975 3.56038 20.2502C3.61289 20.3029 3.69927 20.3029 3.75178 20.2502C3.80091 20.2009 3.80429 20.1244 3.76364 20.0717L4.16509 19.6688Z" fill="#3E51FF"/>
<path d="M4.15999 20.3097L4.34293 19.7708C4.33107 19.7674 4.31922 19.764 4.30905 19.7589L4.12612 20.2978C4.06005 20.2842 3.99399 20.3216 3.97197 20.3862C3.94826 20.4576 3.98552 20.5341 4.05667 20.5596C4.12781 20.5834 4.20403 20.546 4.22944 20.4746C4.25146 20.41 4.22097 20.3386 4.16169 20.3097H4.15999Z" fill="#3E51FF"/>
<path d="M3.5791 19.8286L4.07879 19.5634C4.07201 19.5532 4.06693 19.543 4.06185 19.5311L3.56216 19.7963C3.5232 19.7419 3.45037 19.7232 3.38939 19.7555C3.32333 19.7912 3.29792 19.8728 3.33349 19.9391C3.36906 20.0054 3.45037 20.0309 3.51643 19.9952C3.57741 19.9629 3.60281 19.8915 3.5791 19.8286Z" fill="#3E51FF"/>
<path d="M8.46276 28.8982C8.18327 28.8982 7.91395 28.7843 7.71746 28.5854C7.52097 28.7843 7.24995 28.8982 6.97216 28.8982C6.39286 28.8982 5.92027 28.4239 5.92027 27.8425C5.92027 27.6691 5.96262 27.4991 6.04562 27.3461C5.63232 27.1931 5.35791 26.8004 5.35791 26.355C5.35791 25.7736 5.8305 25.2993 6.4098 25.2993C6.49788 25.2993 6.58427 25.3095 6.66896 25.3316C6.69945 24.7791 7.16187 24.3354 7.71915 24.3354C8.27644 24.3354 8.73886 24.7791 8.76935 25.3333C8.85404 25.3112 8.94212 25.2993 9.02851 25.2993C9.60781 25.2993 10.0804 25.7974 10.0804 26.4111C10.0804 26.8565 9.82293 27.2628 9.43504 27.4362C9.48924 27.5671 9.51634 27.7031 9.51634 27.8425C9.51634 28.4239 9.04376 28.8982 8.46445 28.8982H8.46276ZM7.71746 28.48L7.74456 28.5089C7.93089 28.7112 8.19174 28.8268 8.46445 28.8268C9.0048 28.8268 9.44351 28.3865 9.44351 27.8442C9.44351 27.7031 9.41302 27.5637 9.35373 27.4328L9.33849 27.3988L9.37406 27.3852C9.75348 27.2339 10.0093 26.8429 10.0093 26.4128C10.0093 25.8399 9.57055 25.3741 9.0302 25.3741C8.93535 25.3741 8.8388 25.3894 8.74733 25.4183L8.7016 25.4336V25.3843C8.69651 24.8472 8.25611 24.4102 7.72254 24.4102C7.18898 24.4102 6.75027 24.8454 6.74349 25.3809V25.4285L6.69776 25.4149C6.60459 25.386 6.50974 25.3724 6.41319 25.3724C5.87284 25.3724 5.43413 25.8127 5.43413 26.355C5.43413 26.7834 5.70685 27.1591 6.11337 27.2917L6.15572 27.3053L6.13201 27.3444C6.04223 27.4957 5.9948 27.6691 5.9948 27.8425C5.9948 28.3848 6.43351 28.8251 6.97386 28.8251C7.24487 28.8251 7.50742 28.7095 7.69375 28.5072L7.72085 28.4783L7.71746 28.48Z" fill="#3E51FF"/>
<path d="M8.46263 28.7452C8.21024 28.7452 7.97479 28.6415 7.80202 28.4545C7.75798 28.4069 7.67329 28.4069 7.62925 28.4545C7.45647 28.6415 7.22272 28.7452 6.96864 28.7452C6.47234 28.7452 6.07089 28.3406 6.07089 27.8442C6.07089 27.6844 6.11493 27.5263 6.19624 27.3869C6.21487 27.3563 6.21826 27.3189 6.20471 27.2849C6.19116 27.2509 6.16575 27.2254 6.13018 27.2152C5.75753 27.0945 5.50684 26.7494 5.50684 26.3567C5.50684 25.8586 5.90998 25.4557 6.40458 25.4557C6.49266 25.4557 6.58074 25.4693 6.66544 25.4948C6.70101 25.505 6.73997 25.4982 6.76876 25.4778C6.79756 25.4557 6.81619 25.4217 6.81619 25.3843C6.82127 24.893 7.22441 24.4935 7.71394 24.4935C8.20347 24.4935 8.6066 24.8947 8.61169 25.386C8.61169 25.4234 8.63032 25.4591 8.66081 25.4795C8.6913 25.5016 8.73026 25.5067 8.76583 25.4965C8.85052 25.4693 8.93691 25.4557 9.02499 25.4557C9.52129 25.4557 9.92274 25.8858 9.92274 26.4145C9.92274 26.8106 9.68898 27.171 9.34005 27.3104C9.30956 27.3223 9.28584 27.3461 9.27399 27.3767C9.26213 27.4073 9.26382 27.4413 9.27568 27.4702C9.33158 27.5909 9.35868 27.7167 9.35868 27.8476C9.35868 28.3457 8.95554 28.7486 8.46093 28.7486L8.46263 28.7452ZM7.71733 28.361C7.76476 28.361 7.81049 28.3814 7.84267 28.4171C8.00528 28.5939 8.22549 28.6908 8.46263 28.6908C8.92844 28.6908 9.30786 28.31 9.30786 27.8442C9.30786 27.7218 9.28076 27.6028 9.22995 27.4906C9.20962 27.4481 9.20962 27.3988 9.22656 27.3546C9.2435 27.3104 9.27907 27.2764 9.32311 27.2594C9.65172 27.1285 9.87192 26.7885 9.87192 26.4145C9.87192 25.9164 9.49249 25.5101 9.02838 25.5101C8.94707 25.5101 8.86577 25.5237 8.78615 25.5475C8.73534 25.5645 8.67775 25.5543 8.63371 25.5237C8.58967 25.4914 8.56256 25.4404 8.56256 25.386C8.55748 24.9236 8.17975 24.5462 7.71902 24.5462C7.25829 24.5462 6.88056 24.9219 6.87548 25.3826C6.87548 25.437 6.84838 25.488 6.80603 25.5186C6.76199 25.5509 6.70609 25.5594 6.65528 25.5441C6.57566 25.5203 6.49266 25.5084 6.41136 25.5084C5.94555 25.5084 5.56612 25.8892 5.56612 26.3567C5.56612 26.7256 5.80157 27.0503 6.1522 27.1642C6.20132 27.1795 6.24197 27.2169 6.2606 27.2662C6.27924 27.3155 6.27416 27.3699 6.24875 27.4141C6.17252 27.545 6.13018 27.6929 6.13018 27.8442C6.13018 28.3117 6.5096 28.6908 6.97542 28.6908C7.21256 28.6908 7.43276 28.5939 7.59537 28.4171C7.62755 28.3814 7.67329 28.361 7.72071 28.361H7.71733Z" fill="#3E51FF"/>
<path d="M7.71726 27.1761C7.44455 27.1761 7.22266 26.9534 7.22266 26.6797C7.22266 26.406 7.44455 26.1833 7.71726 26.1833C7.98998 26.1833 8.21187 26.406 8.21187 26.6797C8.21187 26.9534 7.98998 27.1761 7.71726 27.1761ZM7.71726 26.2564C7.48521 26.2564 7.29549 26.4468 7.29549 26.6797C7.29549 26.9126 7.48521 27.103 7.71726 27.103C7.94932 27.103 8.13904 26.9126 8.13904 26.6797C8.13904 26.4468 7.94932 26.2564 7.71726 26.2564Z" fill="#3E51FF"/>
<path d="M7.69842 25.6563V26.2207C7.69842 26.2207 7.71028 26.2207 7.71705 26.2207C7.72383 26.2207 7.72891 26.2207 7.73568 26.2207V25.6563C7.80175 25.6478 7.85256 25.5917 7.85256 25.522C7.85256 25.4472 7.79158 25.386 7.71705 25.386C7.64252 25.386 7.58154 25.4472 7.58154 25.522C7.58154 25.5917 7.63236 25.6478 7.69842 25.6563Z" fill="#3E51FF"/>
<path d="M7.29698 25.7481L7.51887 26.2666C7.52904 26.2615 7.54089 26.2564 7.55275 26.253L7.33085 25.7345C7.38845 25.7005 7.41385 25.6274 7.38675 25.5645C7.35796 25.4948 7.27665 25.4642 7.2089 25.4931C7.13945 25.522 7.10896 25.6036 7.13775 25.6716C7.16486 25.7345 7.2343 25.7668 7.29867 25.7481H7.29698Z" fill="#3E51FF"/>
<path d="M6.69413 26.7001H7.25818C7.25818 26.7001 7.25818 26.6865 7.25818 26.6797C7.25818 26.6746 7.25818 26.6695 7.25818 26.6644H6.69413C6.68566 26.5981 6.62976 26.5471 6.56031 26.5471C6.48578 26.5471 6.4248 26.6083 6.4248 26.6831C6.4248 26.7579 6.48578 26.8191 6.56031 26.8191C6.62976 26.8191 6.68566 26.7681 6.69413 26.7018V26.7001Z" fill="#3E51FF"/>
<path d="M6.58078 26.4298C6.64515 26.4519 6.71629 26.423 6.74508 26.3618L7.27696 26.5471C7.28034 26.5352 7.28373 26.5233 7.28881 26.5131L6.75694 26.3278C6.77049 26.2615 6.73492 26.1952 6.66886 26.1714C6.59772 26.1459 6.52149 26.185 6.49609 26.2547C6.47068 26.3244 6.50964 26.4026 6.57909 26.4281L6.58078 26.4298Z" fill="#3E51FF"/>
<path d="M8.03036 25.7055L7.84912 26.2393C7.86098 26.2427 7.87114 26.2478 7.883 26.2512L8.06424 25.7174C8.1303 25.731 8.19636 25.6936 8.21838 25.629C8.2421 25.5576 8.20483 25.4811 8.13369 25.4556C8.06255 25.4318 7.98632 25.4692 7.96092 25.5406C7.9389 25.6052 7.96939 25.6766 8.02867 25.7055H8.03036Z" fill="#3E51FF"/>
<path d="M8.61176 26.1867L8.11377 26.4502C8.12054 26.4604 8.12563 26.4706 8.13071 26.4825L8.6287 26.2173C8.66766 26.2717 8.7405 26.2904 8.80148 26.2581C8.86754 26.2224 8.89295 26.1408 8.85738 26.0745C8.8218 26.0082 8.7405 25.9827 8.67444 26.0184C8.61346 26.0507 8.58805 26.1221 8.61176 26.185V26.1867Z" fill="#3E51FF"/>
<path d="M8.02881 26.3431C8.03728 26.3516 8.04575 26.3601 8.05422 26.3686L8.45227 25.9691C8.50478 26.0099 8.58101 26.0065 8.63013 25.9572C8.68264 25.9045 8.68264 25.8178 8.63013 25.7651C8.57762 25.7124 8.49123 25.7124 8.43872 25.7651C8.3896 25.8144 8.38621 25.8909 8.42687 25.9436L8.02881 26.3431Z" fill="#3E51FF"/>
<path d="M6.98042 25.9708L7.37848 26.3703C7.38695 26.3618 7.39542 26.3533 7.40389 26.3448L7.00583 25.9453C7.04648 25.8926 7.04309 25.8161 6.99397 25.7668C6.94146 25.7141 6.85508 25.7141 6.80257 25.7668C6.75006 25.8195 6.75006 25.9062 6.80257 25.9589C6.85169 26.0082 6.92791 26.0116 6.98042 25.9708Z" fill="#3E51FF"/>
<path d="M8.85231 26.9364C8.78794 26.9143 8.7168 26.9432 8.688 27.0044L8.15444 26.8174C8.15105 26.8293 8.14597 26.8395 8.14258 26.8514L8.67615 27.0384C8.66259 27.1047 8.69817 27.171 8.76423 27.1948C8.83537 27.2203 8.91159 27.1812 8.937 27.1115C8.96241 27.0401 8.92345 26.9636 8.854 26.9381L8.85231 26.9364Z" fill="#3E51FF"/>
<path d="M8.45224 27.3953L8.0508 26.9924C8.04233 27.0009 8.03386 27.0094 8.02539 27.0179L8.42684 27.4208C8.38618 27.4735 8.38957 27.55 8.43869 27.5993C8.4912 27.652 8.57759 27.652 8.6301 27.5993C8.68261 27.5466 8.68261 27.4599 8.6301 27.4072C8.58098 27.3579 8.50475 27.3545 8.45224 27.3953Z" fill="#3E51FF"/>
<path d="M8.13735 27.6181L7.91376 27.0945C7.9036 27.0996 7.89174 27.1047 7.87988 27.1081L8.10347 27.6317C8.04588 27.6657 8.02047 27.7388 8.04757 27.8017C8.07637 27.8714 8.15768 27.902 8.22543 27.8731C8.29319 27.8442 8.32537 27.7626 8.29657 27.6946C8.26947 27.6317 8.20002 27.5994 8.13566 27.6181H8.13735Z" fill="#3E51FF"/>
<path d="M8.87268 26.5471C8.80323 26.5471 8.74733 26.5981 8.73886 26.6644H8.1748C8.1748 26.6644 8.1748 26.6746 8.1748 26.6797C8.1748 26.6865 8.1748 26.6933 8.1748 26.7001H8.73886C8.74733 26.7664 8.80323 26.8174 8.87268 26.8174C8.94721 26.8174 9.00819 26.7562 9.00819 26.6814C9.00819 26.6066 8.94721 26.5454 8.87268 26.5454V26.5471Z" fill="#3E51FF"/>
<path d="M7.73422 27.7082V27.1387C7.73422 27.1387 7.72236 27.1387 7.71559 27.1387C7.70881 27.1387 7.70373 27.1387 7.69695 27.1387V27.7082C7.63089 27.7167 7.58008 27.7728 7.58008 27.8425C7.58008 27.9173 7.64106 27.9785 7.71559 27.9785C7.79012 27.9785 7.8511 27.9173 7.8511 27.8425C7.8511 27.7728 7.80028 27.7167 7.73422 27.7082Z" fill="#3E51FF"/>
<path d="M7.40727 27.0179C7.39881 27.0094 7.39034 27.0009 7.38187 26.9924L6.98042 27.3953C6.92791 27.3545 6.85169 27.3579 6.80257 27.4072C6.75006 27.4599 6.75006 27.5466 6.80257 27.5993C6.85508 27.652 6.94146 27.652 6.99397 27.5993C7.04309 27.55 7.04648 27.4735 7.00583 27.4208L7.40727 27.0179Z" fill="#3E51FF"/>
<path d="M7.40218 27.6588L7.58512 27.1199C7.57326 27.1165 7.5614 27.1131 7.55124 27.108L7.3683 27.6469C7.30224 27.6333 7.23618 27.6707 7.21416 27.7353C7.19045 27.8067 7.22771 27.8832 7.29885 27.9087C7.37 27.9325 7.44622 27.8951 7.47163 27.8237C7.49365 27.7591 7.46316 27.6877 7.40387 27.6588H7.40218Z" fill="#3E51FF"/>
<path d="M6.82129 27.1795L7.32098 26.9143C7.3142 26.9041 7.30912 26.8939 7.30404 26.882L6.80435 27.1472C6.76539 27.0928 6.69255 27.0741 6.63158 27.1064C6.56551 27.1421 6.54011 27.2237 6.57568 27.29C6.61125 27.3563 6.69255 27.3818 6.75862 27.3461C6.81959 27.3138 6.845 27.2424 6.82129 27.1795Z" fill="#3E51FF"/>
<path d="M56.4071 21.5474C56.1276 21.5474 55.8583 21.4335 55.6618 21.2346C55.4653 21.4335 55.1943 21.5474 54.9165 21.5474C54.3372 21.5474 53.8646 21.0731 53.8646 20.4917C53.8646 20.3183 53.907 20.1483 53.99 19.9953C53.5767 19.8423 53.3022 19.4496 53.3022 19.0042C53.3022 18.4228 53.7748 17.9485 54.3541 17.9485C54.4422 17.9485 54.5286 17.9587 54.6133 17.9808C54.6438 17.4283 55.1062 16.9846 55.6635 16.9846C56.2208 16.9846 56.6832 17.4283 56.7137 17.9825C56.7984 17.9604 56.8865 17.9485 56.9728 17.9485C57.5521 17.9485 58.0247 18.4466 58.0247 19.0603C58.0247 19.5057 57.7673 19.912 57.3794 20.0854C57.4336 20.2163 57.4607 20.3523 57.4607 20.4917C57.4607 21.0731 56.9881 21.5474 56.4088 21.5474H56.4071ZM55.6601 21.1292L55.6872 21.1581C55.8735 21.3604 56.1344 21.476 56.4071 21.476C56.9474 21.476 57.3862 21.0357 57.3862 20.4934C57.3862 20.3523 57.3557 20.2129 57.2964 20.082L57.2811 20.048L57.3167 20.0344C57.6961 19.8831 57.9519 19.4921 57.9519 19.062C57.9519 18.4891 57.5132 18.0233 56.9728 18.0233C56.878 18.0233 56.7814 18.0386 56.69 18.0675L56.6442 18.0828V18.0335C56.6392 17.4963 56.1988 17.0594 55.6652 17.0594C55.1316 17.0594 54.6929 17.4946 54.6861 18.0301V18.0777L54.6404 18.0641C54.5472 18.0352 54.4524 18.0216 54.3558 18.0216C53.8155 18.0216 53.3768 18.4619 53.3768 19.0042C53.3768 19.4326 53.6495 19.8083 54.056 19.9409L54.0984 19.9545L54.0746 19.9936C53.9849 20.1449 53.9374 20.3183 53.9374 20.4917C53.9374 21.034 54.3762 21.4743 54.9165 21.4743C55.1875 21.4743 55.4501 21.3587 55.6364 21.1564L55.6635 21.1275L55.6601 21.1292Z" fill="#3E51FF"/>
<path d="M56.407 21.3944C56.1546 21.3944 55.9191 21.2907 55.7464 21.1037C55.7023 21.0561 55.6176 21.0561 55.5736 21.1037C55.4008 21.2907 55.1671 21.3944 54.913 21.3944C54.4167 21.3944 54.0152 20.9898 54.0152 20.4934C54.0152 20.3336 54.0593 20.1755 54.1406 20.0361C54.1592 20.0055 54.1626 19.9681 54.149 19.9341C54.1355 19.9001 54.1101 19.8746 54.0745 19.8644C53.7019 19.7437 53.4512 19.3986 53.4512 19.0059C53.4512 18.5078 53.8543 18.1049 54.3489 18.1049C54.437 18.1049 54.5251 18.1185 54.6098 18.144C54.6453 18.1542 54.6843 18.1474 54.7131 18.127C54.7419 18.1049 54.7605 18.0709 54.7605 18.0335C54.7656 17.5422 55.1687 17.1427 55.6583 17.1427C56.1478 17.1427 56.5509 17.5439 56.556 18.0352C56.556 18.0726 56.5747 18.1083 56.6051 18.1287C56.6356 18.1508 56.6746 18.1559 56.7102 18.1457C56.7949 18.1185 56.8812 18.1049 56.9693 18.1049C57.4656 18.1049 57.8671 18.535 57.8671 19.0637C57.8671 19.4598 57.6333 19.8202 57.2844 19.9596C57.2539 19.9715 57.2302 19.9953 57.2183 20.0259C57.2065 20.0565 57.2082 20.0905 57.22 20.1194C57.2759 20.2401 57.303 20.3659 57.303 20.4968C57.303 20.9949 56.8999 21.3978 56.4053 21.3978L56.407 21.3944ZM55.66 21.0102C55.7074 21.0102 55.7531 21.0306 55.7853 21.0663C55.9479 21.2431 56.1681 21.34 56.4053 21.34C56.8711 21.34 57.2505 20.9592 57.2505 20.4934C57.2505 20.371 57.2234 20.252 57.1726 20.1398C57.1523 20.0973 57.1523 20.048 57.1692 20.0038C57.1861 19.9596 57.2217 19.9256 57.2657 19.9086C57.5944 19.7777 57.8146 19.4377 57.8146 19.0637C57.8146 18.5656 57.4351 18.1593 56.971 18.1593C56.8897 18.1593 56.8084 18.1729 56.7288 18.1967C56.678 18.2137 56.6204 18.2035 56.5764 18.1729C56.5323 18.1406 56.5052 18.0896 56.5052 18.0352C56.5001 17.5728 56.1224 17.1954 55.6617 17.1954C55.2009 17.1954 54.8232 17.5711 54.8181 18.0318C54.8181 18.0862 54.791 18.1372 54.7487 18.1678C54.7046 18.2001 54.6487 18.2086 54.5979 18.1933C54.5183 18.1695 54.4353 18.1576 54.354 18.1576C53.8882 18.1576 53.5088 18.5384 53.5088 19.0059C53.5088 19.3748 53.7442 19.6995 54.0948 19.8134C54.144 19.8287 54.1846 19.8661 54.2032 19.9154C54.2219 19.9647 54.2168 20.0191 54.1914 20.0633C54.1152 20.1942 54.0728 20.3421 54.0728 20.4934C54.0728 20.9609 54.4522 21.34 54.9181 21.34C55.1552 21.34 55.3754 21.2431 55.538 21.0663C55.5702 21.0306 55.6159 21.0102 55.6634 21.0102H55.66Z" fill="#3E51FF"/>
<path d="M55.6601 19.8253C55.3874 19.8253 55.1655 19.6026 55.1655 19.3289C55.1655 19.0552 55.3874 18.8325 55.6601 18.8325C55.9328 18.8325 56.1547 19.0552 56.1547 19.3289C56.1547 19.6026 55.9328 19.8253 55.6601 19.8253ZM55.6601 18.9056C55.4281 18.9056 55.2384 19.096 55.2384 19.3289C55.2384 19.5618 55.4281 19.7522 55.6601 19.7522C55.8922 19.7522 56.0819 19.5618 56.0819 19.3289C56.0819 19.096 55.8922 18.9056 55.6601 18.9056Z" fill="#3E51FF"/>
<path d="M55.6428 18.3072V18.8716C55.6428 18.8716 55.6546 18.8716 55.6614 18.8716C55.6682 18.8716 55.6732 18.8716 55.68 18.8716V18.3072C55.7461 18.2987 55.7969 18.2426 55.7969 18.1729C55.7969 18.0981 55.7359 18.0369 55.6614 18.0369C55.5869 18.0369 55.5259 18.0981 55.5259 18.1729C55.5259 18.2426 55.5767 18.2987 55.6428 18.3072Z" fill="#3E51FF"/>
<path d="M55.2398 18.3973L55.4617 18.9158C55.4719 18.9107 55.4838 18.9056 55.4956 18.9022L55.2737 18.3837C55.3313 18.3497 55.3567 18.2766 55.3296 18.2137C55.3008 18.144 55.2195 18.1134 55.1518 18.1423C55.0823 18.1712 55.0518 18.2528 55.0806 18.3208C55.1077 18.3837 55.1772 18.416 55.2415 18.3973H55.2398Z" fill="#3E51FF"/>
<path d="M54.6385 19.351H55.2025C55.2025 19.351 55.2025 19.3374 55.2025 19.3306C55.2025 19.3255 55.2025 19.3204 55.2025 19.3153H54.6385C54.63 19.249 54.5741 19.198 54.5046 19.198C54.4301 19.198 54.3691 19.2592 54.3691 19.334C54.3691 19.4088 54.4301 19.47 54.5046 19.47C54.5741 19.47 54.63 19.419 54.6385 19.3527V19.351Z" fill="#3E51FF"/>
<path d="M54.5251 19.079C54.5895 19.1011 54.6606 19.0722 54.6894 19.011L55.2213 19.1963C55.2247 19.1844 55.2281 19.1725 55.2331 19.1623L54.7013 18.977C54.7148 18.9107 54.6793 18.8444 54.6132 18.8206C54.5421 18.7951 54.4658 18.8342 54.4404 18.9039C54.415 18.9736 54.454 19.0518 54.5234 19.0773L54.5251 19.079Z" fill="#3E51FF"/>
<path d="M55.9747 18.3564L55.7935 18.8902C55.8053 18.8936 55.8155 18.8987 55.8273 18.9021L56.0086 18.3683C56.0746 18.3819 56.1407 18.3445 56.1627 18.2799C56.1864 18.2085 56.1492 18.132 56.078 18.1065C56.0069 18.0827 55.9307 18.1201 55.9052 18.1915C55.8832 18.2561 55.9137 18.3275 55.973 18.3564H55.9747Z" fill="#3E51FF"/>
<path d="M56.5561 18.8358L56.0581 19.0993C56.0649 19.1095 56.07 19.1197 56.075 19.1316L56.573 18.8664C56.612 18.9208 56.6848 18.9395 56.7458 18.9072C56.8119 18.8715 56.8373 18.7899 56.8017 18.7236C56.7661 18.6573 56.6848 18.6318 56.6188 18.6675C56.5578 18.6998 56.5324 18.7712 56.5561 18.8341V18.8358Z" fill="#3E51FF"/>
<path d="M55.9731 18.994C55.9816 19.0025 55.9901 19.011 55.9986 19.0195L56.3966 18.62C56.4491 18.6608 56.5253 18.6574 56.5745 18.6081C56.627 18.5554 56.627 18.4687 56.5745 18.416C56.522 18.3633 56.4356 18.3633 56.3831 18.416C56.3339 18.4653 56.3305 18.5418 56.3712 18.5945L55.9731 18.994Z" fill="#3E51FF"/>
<path d="M54.9248 18.62L55.3228 19.0195C55.3313 19.011 55.3398 19.0025 55.3482 18.994L54.9502 18.5945C54.9908 18.5418 54.9874 18.4653 54.9383 18.416C54.8858 18.3633 54.7994 18.3633 54.7469 18.416C54.6944 18.4687 54.6944 18.5554 54.7469 18.6081C54.796 18.6574 54.8723 18.6608 54.9248 18.62Z" fill="#3E51FF"/>
<path d="M56.7966 19.5856C56.7323 19.5635 56.6611 19.5924 56.6323 19.6536L56.0988 19.4666C56.0954 19.4785 56.0903 19.4887 56.0869 19.5006L56.6205 19.6876C56.6069 19.7539 56.6425 19.8202 56.7086 19.844C56.7797 19.8695 56.8559 19.8304 56.8813 19.7607C56.9067 19.6893 56.8678 19.6128 56.7983 19.5873L56.7966 19.5856Z" fill="#3E51FF"/>
<path d="M56.3966 20.0445L55.9951 19.6416C55.9867 19.6501 55.9782 19.6586 55.9697 19.6671L56.3712 20.07C56.3305 20.1227 56.3339 20.1992 56.383 20.2485C56.4355 20.3012 56.5219 20.3012 56.5744 20.2485C56.6269 20.1958 56.6269 20.1091 56.5744 20.0564C56.5253 20.0071 56.4491 20.0037 56.3966 20.0445Z" fill="#3E51FF"/>
<path d="M56.0797 20.2673L55.8561 19.7437C55.846 19.7488 55.8341 19.7539 55.8223 19.7573L56.0459 20.2809C55.9883 20.3149 55.9629 20.388 55.99 20.4509C56.0188 20.5206 56.1001 20.5512 56.1678 20.5223C56.2356 20.4934 56.2678 20.4118 56.239 20.3438C56.2119 20.2809 56.1424 20.2486 56.078 20.2673H56.0797Z" fill="#3E51FF"/>
<path d="M56.817 19.1963C56.7476 19.1963 56.6917 19.2473 56.6832 19.3136H56.1191C56.1191 19.3136 56.1191 19.3238 56.1191 19.3289C56.1191 19.3357 56.1191 19.3425 56.1191 19.3493H56.6832C56.6917 19.4156 56.7476 19.4666 56.817 19.4666C56.8915 19.4666 56.9525 19.4054 56.9525 19.3306C56.9525 19.2558 56.8915 19.1946 56.817 19.1946V19.1963Z" fill="#3E51FF"/>
<path d="M55.6786 20.359V19.7896C55.6786 19.7896 55.6667 19.7896 55.6599 19.7896C55.6532 19.7896 55.6481 19.7896 55.6413 19.7896V20.359C55.5752 20.3675 55.5244 20.4236 55.5244 20.4933C55.5244 20.5681 55.5854 20.6293 55.6599 20.6293C55.7345 20.6293 55.7954 20.5681 55.7954 20.4933C55.7954 20.4236 55.7446 20.3675 55.6786 20.359Z" fill="#3E51FF"/>
<path d="M55.3516 19.6688C55.3431 19.6603 55.3347 19.6518 55.3262 19.6433L54.9248 20.0462C54.8723 20.0054 54.796 20.0088 54.7469 20.0581C54.6944 20.1108 54.6944 20.1975 54.7469 20.2502C54.7994 20.3029 54.8858 20.3029 54.9383 20.2502C54.9874 20.2009 54.9908 20.1244 54.9502 20.0717L55.3516 19.6688Z" fill="#3E51FF"/>
<path d="M55.3465 20.3097L55.5294 19.7708C55.5176 19.7674 55.5057 19.764 55.4956 19.7589L55.3126 20.2978C55.2466 20.2842 55.1805 20.3216 55.1585 20.3862C55.1348 20.4576 55.172 20.5341 55.2432 20.5596C55.3143 20.5834 55.3906 20.546 55.416 20.4746C55.438 20.41 55.4075 20.3386 55.3482 20.3097H55.3465Z" fill="#3E51FF"/>
<path d="M54.7656 19.8286L55.2653 19.5634C55.2585 19.5532 55.2535 19.543 55.2484 19.5311L54.7487 19.7963C54.7097 19.7419 54.6369 19.7232 54.5759 19.7555C54.5099 19.7912 54.4844 19.8728 54.52 19.9391C54.5556 20.0054 54.6369 20.0309 54.703 19.9952C54.7639 19.9629 54.7893 19.8915 54.7656 19.8286Z" fill="#3E51FF"/>
<path d="M53.2787 28.446C52.9992 28.446 52.7299 28.3321 52.5334 28.1332C52.3369 28.3321 52.0659 28.446 51.7881 28.446C51.2088 28.446 50.7362 27.9717 50.7362 27.3903C50.7362 27.2169 50.7785 27.0469 50.8615 26.8939C50.4482 26.7409 50.1738 26.3482 50.1738 25.9028C50.1738 25.3214 50.6464 24.8471 51.2257 24.8471C51.3138 24.8471 51.4002 24.8573 51.4849 24.8794C51.5154 24.3269 51.9778 23.8832 52.5351 23.8832C53.0924 23.8832 53.5548 24.3269 53.5853 24.8811C53.67 24.859 53.758 24.8471 53.8444 24.8471C54.4237 24.8471 54.8963 25.3452 54.8963 25.9589C54.8963 26.4043 54.6389 26.8106 54.251 26.984C54.3052 27.1149 54.3323 27.2509 54.3323 27.3903C54.3323 27.9717 53.8597 28.446 53.2804 28.446H53.2787ZM52.5317 28.0278L52.5588 28.0567C52.7451 28.259 53.006 28.3746 53.2787 28.3746C53.819 28.3746 54.2577 27.9343 54.2577 27.392C54.2577 27.2509 54.2272 27.1115 54.168 26.9806L54.1527 26.9466L54.1883 26.933C54.5677 26.7817 54.8235 26.3907 54.8235 25.9606C54.8235 25.3877 54.3848 24.9219 53.8444 24.9219C53.7496 24.9219 53.653 24.9372 53.5616 24.9661L53.5158 24.9814V24.9321C53.5107 24.3949 53.0703 23.958 52.5368 23.958C52.0032 23.958 51.5645 24.3932 51.5577 24.9287V24.9763L51.512 24.9627C51.4188 24.9338 51.324 24.9202 51.2274 24.9202C50.6871 24.9202 50.2484 25.3605 50.2484 25.9028C50.2484 26.3312 50.5211 26.7069 50.9276 26.8395L50.9699 26.8531L50.9462 26.8922C50.8565 27.0435 50.809 27.2169 50.809 27.3903C50.809 27.9326 51.2477 28.3729 51.7881 28.3729C52.0591 28.3729 52.3216 28.2573 52.508 28.055L52.5351 28.0261L52.5317 28.0278Z" fill="#3E51FF"/>
<path d="M53.2785 28.2929C53.0262 28.2929 52.7907 28.1892 52.6179 28.0022C52.5739 27.9546 52.4892 27.9546 52.4452 28.0022C52.2724 28.1892 52.0386 28.2929 51.7846 28.2929C51.2883 28.2929 50.8868 27.8884 50.8868 27.392C50.8868 27.2322 50.9309 27.0741 51.0122 26.9347C51.0308 26.9041 51.0342 26.8667 51.0206 26.8327C51.0071 26.7987 50.9817 26.7732 50.9461 26.763C50.5734 26.6423 50.3228 26.2972 50.3228 25.9045C50.3228 25.4064 50.7259 25.0035 51.2205 25.0035C51.3086 25.0035 51.3967 25.0171 51.4814 25.0426C51.5169 25.0528 51.5559 25.046 51.5847 25.0256C51.6135 25.0035 51.6321 24.9695 51.6321 24.9321C51.6372 24.4408 52.0403 24.0413 52.5299 24.0413C53.0194 24.0413 53.4225 24.4425 53.4276 24.9338C53.4276 24.9712 53.4462 25.0069 53.4767 25.0273C53.5072 25.0494 53.5462 25.0545 53.5817 25.0443C53.6664 25.0171 53.7528 25.0035 53.8409 25.0035C54.3372 25.0035 54.7387 25.4336 54.7387 25.9623C54.7387 26.3584 54.5049 26.7188 54.156 26.8582C54.1255 26.8701 54.1018 26.8939 54.0899 26.9245C54.078 26.9551 54.0797 26.9891 54.0916 27.018C54.1475 27.1387 54.1746 27.2645 54.1746 27.3953C54.1746 27.8934 53.7715 28.2963 53.2769 28.2963L53.2785 28.2929ZM52.5316 27.9087C52.579 27.9087 52.6247 27.9291 52.6569 27.9648C52.8195 28.1416 53.0397 28.2385 53.2769 28.2385C53.7427 28.2385 54.1221 27.8578 54.1221 27.392C54.1221 27.2696 54.095 27.1506 54.0442 27.0384C54.0238 26.9959 54.0238 26.9466 54.0408 26.9024C54.0577 26.8582 54.0933 26.8242 54.1373 26.8072C54.4659 26.6763 54.6861 26.3363 54.6861 25.9623C54.6861 25.4642 54.3067 25.0579 53.8426 25.0579C53.7613 25.0579 53.68 25.0715 53.6004 25.0953C53.5496 25.1123 53.492 25.1021 53.4479 25.0715C53.4039 25.0392 53.3768 24.9882 53.3768 24.9338C53.3717 24.4714 52.994 24.094 52.5332 24.094C52.0725 24.094 51.6948 24.4697 51.6897 24.9304C51.6897 24.9848 51.6626 25.0358 51.6203 25.0664C51.5762 25.0987 51.5203 25.1072 51.4695 25.0919C51.3899 25.0681 51.3069 25.0562 51.2256 25.0562C50.7598 25.0562 50.3803 25.437 50.3803 25.9045C50.3803 26.2734 50.6158 26.5981 50.9664 26.712C51.0155 26.7273 51.0562 26.7647 51.0748 26.814C51.0935 26.8633 51.0884 26.9177 51.063 26.9619C50.9867 27.0928 50.9444 27.2407 50.9444 27.392C50.9444 27.8595 51.3238 28.2385 51.7896 28.2385C52.0268 28.2385 52.247 28.1416 52.4096 27.9648C52.4418 27.9291 52.4875 27.9087 52.5349 27.9087H52.5316Z" fill="#3E51FF"/>
<path d="M52.5317 26.7239C52.259 26.7239 52.0371 26.5012 52.0371 26.2275C52.0371 25.9538 52.259 25.7311 52.5317 25.7311C52.8044 25.7311 53.0263 25.9538 53.0263 26.2275C53.0263 26.5012 52.8044 26.7239 52.5317 26.7239ZM52.5317 25.8042C52.2997 25.8042 52.1099 25.9946 52.1099 26.2275C52.1099 26.4604 52.2997 26.6508 52.5317 26.6508C52.7638 26.6508 52.9535 26.4604 52.9535 26.2275C52.9535 25.9946 52.7638 25.8042 52.5317 25.8042Z" fill="#3E51FF"/>
<path d="M52.5129 25.204V25.7684C52.5129 25.7684 52.5247 25.7684 52.5315 25.7684C52.5383 25.7684 52.5434 25.7684 52.5501 25.7684V25.204C52.6162 25.1955 52.667 25.1394 52.667 25.0697C52.667 24.9949 52.606 24.9337 52.5315 24.9337C52.457 24.9337 52.396 24.9949 52.396 25.0697C52.396 25.1394 52.4468 25.1955 52.5129 25.204Z" fill="#3E51FF"/>
<path d="M52.1114 25.2959L52.3333 25.8144C52.3435 25.8093 52.3553 25.8042 52.3672 25.8008L52.1453 25.2823C52.2029 25.2483 52.2283 25.1752 52.2012 25.1123C52.1724 25.0426 52.0911 25.012 52.0234 25.0409C51.9539 25.0698 51.9234 25.1514 51.9522 25.2194C51.9793 25.2823 52.0488 25.3146 52.1131 25.2959H52.1114Z" fill="#3E51FF"/>
<path d="M51.51 26.2478H52.0741C52.0741 26.2478 52.0741 26.2342 52.0741 26.2274C52.0741 26.2223 52.0741 26.2172 52.0741 26.2121H51.51C51.5016 26.1458 51.4457 26.0948 51.3762 26.0948C51.3017 26.0948 51.2407 26.156 51.2407 26.2308C51.2407 26.3056 51.3017 26.3668 51.3762 26.3668C51.4457 26.3668 51.5016 26.3158 51.51 26.2495V26.2478Z" fill="#3E51FF"/>
<path d="M51.3947 25.9775C51.4591 25.9996 51.5303 25.9707 51.559 25.9095L52.0909 26.0948C52.0943 26.0829 52.0977 26.071 52.1028 26.0608L51.5709 25.8755C51.5845 25.8092 51.5489 25.7429 51.4828 25.7191C51.4117 25.6936 51.3355 25.7327 51.3101 25.8024C51.2846 25.8721 51.3236 25.9503 51.393 25.9758L51.3947 25.9775Z" fill="#3E51FF"/>
<path d="M52.8463 25.2533L52.665 25.7871C52.6769 25.7905 52.6871 25.7956 52.6989 25.799L52.8802 25.2652C52.9462 25.2788 53.0123 25.2414 53.0343 25.1768C53.058 25.1054 53.0207 25.0289 52.9496 25.0034C52.8785 24.9796 52.8022 25.017 52.7768 25.0884C52.7548 25.153 52.7853 25.2244 52.8446 25.2533H52.8463Z" fill="#3E51FF"/>
<path d="M53.4257 25.7344L52.9277 25.9979C52.9345 26.0081 52.9396 26.0183 52.9447 26.0302L53.4427 25.765C53.4816 25.8194 53.5545 25.8381 53.6154 25.8058C53.6815 25.7701 53.7069 25.6885 53.6713 25.6222C53.6358 25.5559 53.5545 25.5304 53.4884 25.5661C53.4274 25.5984 53.402 25.6698 53.4257 25.7327V25.7344Z" fill="#3E51FF"/>
<path d="M52.8447 25.8908C52.8532 25.8993 52.8617 25.9078 52.8701 25.9163L53.2682 25.5168C53.3207 25.5576 53.3969 25.5542 53.446 25.5049C53.4986 25.4522 53.4986 25.3655 53.446 25.3128C53.3935 25.2601 53.3071 25.2601 53.2546 25.3128C53.2055 25.3621 53.2021 25.4386 53.2428 25.4913L52.8447 25.8908Z" fill="#3E51FF"/>
<path d="M51.7963 25.5185L52.1944 25.918C52.2029 25.9095 52.2113 25.901 52.2198 25.8925L51.8217 25.493C51.8624 25.4403 51.859 25.3638 51.8099 25.3145C51.7574 25.2618 51.671 25.2618 51.6185 25.3145C51.566 25.3672 51.566 25.4539 51.6185 25.5066C51.6676 25.5559 51.7438 25.5593 51.7963 25.5185Z" fill="#3E51FF"/>
<path d="M53.6682 26.4841C53.6039 26.462 53.5327 26.4909 53.5039 26.5521L52.9704 26.3651C52.967 26.377 52.9619 26.3872 52.9585 26.3991L53.4921 26.5861C53.4785 26.6524 53.5141 26.7187 53.5801 26.7425C53.6513 26.768 53.7275 26.7289 53.7529 26.6592C53.7783 26.5878 53.7394 26.5113 53.6699 26.4858L53.6682 26.4841Z" fill="#3E51FF"/>
<path d="M53.2667 26.9431L52.8653 26.5402C52.8568 26.5487 52.8483 26.5572 52.8398 26.5657L53.2413 26.9686C53.2006 27.0213 53.204 27.0978 53.2531 27.1471C53.3057 27.1998 53.392 27.1998 53.4445 27.1471C53.4971 27.0944 53.4971 27.0077 53.4445 26.955C53.3954 26.9057 53.3192 26.9023 53.2667 26.9431Z" fill="#3E51FF"/>
<path d="M52.9513 27.1658L52.7277 26.6422C52.7176 26.6473 52.7057 26.6524 52.6938 26.6558L52.9174 27.1794C52.8598 27.2134 52.8344 27.2865 52.8615 27.3494C52.8903 27.4191 52.9716 27.4497 53.0394 27.4208C53.1072 27.3919 53.1393 27.3103 53.1105 27.2423C53.0834 27.1794 53.014 27.1471 52.9496 27.1658H52.9513Z" fill="#3E51FF"/>
<path d="M53.6886 26.0948C53.6191 26.0948 53.5633 26.1458 53.5548 26.2121H52.9907C52.9907 26.2121 52.9907 26.2223 52.9907 26.2274C52.9907 26.2342 52.9907 26.241 52.9907 26.2478H53.5548C53.5633 26.3141 53.6191 26.3651 53.6886 26.3651C53.7631 26.3651 53.8241 26.3039 53.8241 26.2291C53.8241 26.1543 53.7631 26.0931 53.6886 26.0931V26.0948Z" fill="#3E51FF"/>
<path d="M52.5501 27.2559V26.6864C52.5501 26.6864 52.5383 26.6864 52.5315 26.6864C52.5247 26.6864 52.5196 26.6864 52.5129 26.6864V27.2559C52.4468 27.2644 52.396 27.3205 52.396 27.3902C52.396 27.465 52.457 27.5262 52.5315 27.5262C52.606 27.5262 52.667 27.465 52.667 27.3902C52.667 27.3205 52.6162 27.2644 52.5501 27.2559Z" fill="#3E51FF"/>
<path d="M52.2232 26.5657C52.2147 26.5572 52.2063 26.5487 52.1978 26.5402L51.7963 26.9431C51.7438 26.9023 51.6676 26.9057 51.6185 26.955C51.566 27.0077 51.566 27.0944 51.6185 27.1471C51.671 27.1998 51.7574 27.1998 51.8099 27.1471C51.859 27.0978 51.8624 27.0213 51.8217 26.9686L52.2232 26.5657Z" fill="#3E51FF"/>
<path d="M52.2181 27.2066L52.401 26.6677C52.3892 26.6643 52.3773 26.6609 52.3672 26.6558L52.1842 27.1947C52.1182 27.1811 52.0521 27.2185 52.0301 27.2831C52.0064 27.3545 52.0436 27.431 52.1148 27.4565C52.1859 27.4803 52.2621 27.4429 52.2875 27.3715C52.3096 27.3069 52.2791 27.2355 52.2198 27.2066H52.2181Z" fill="#3E51FF"/>
<path d="M51.6372 26.7255L52.1369 26.4603C52.1301 26.4501 52.125 26.4399 52.12 26.428L51.6203 26.6932C51.5813 26.6388 51.5085 26.6201 51.4475 26.6524C51.3814 26.6881 51.356 26.7697 51.3916 26.836C51.4272 26.9023 51.5085 26.9278 51.5745 26.8921C51.6355 26.8598 51.6609 26.7884 51.6372 26.7255Z" fill="#3E51FF"/>
<path d="M30 38C22.0643 38 14.5909 36.0705 8.95545 32.5685C3.18107 28.9798 0 24.1603 0 18.9991C0 13.838 3.18107 9.02018 8.95545 5.43149C14.5909 1.92949 22.0643 0 30 0C37.9357 0 45.4091 1.92949 51.0445 5.43149C56.8189 9.02018 60 13.8397 60 19.0008C60 24.162 56.8189 28.9815 51.0445 32.5702C45.4091 36.0722 37.9357 38.0017 30 38.0017V38ZM30 0.17C22.0964 0.17 14.6536 2.08929 9.04523 5.57598C3.32166 9.13237 0.169386 13.8992 0.169386 18.9991C0.169386 24.0991 3.32166 28.8659 9.04353 32.424C14.6519 35.9107 22.0947 37.83 29.9983 37.83C37.9019 37.83 45.3447 35.9107 50.9531 32.424C56.6766 28.8676 59.8272 24.0991 59.8272 18.9991C59.8272 13.8992 56.6749 9.13238 50.9531 5.57429C45.3464 2.08929 37.9036 0.17 30 0.17Z" fill="#3E51FF"/>
<path d="M30.0002 37.15C13.9255 37.15 0.847168 29.0087 0.847168 18.9991C0.847168 8.98955 13.9255 0.849976 30.0002 0.849976C46.075 0.849976 59.1533 8.99125 59.1533 18.9991C59.1533 29.007 46.075 37.15 30.0002 37.15ZM30.0002 1.01998C14.0186 1.01998 1.01655 9.08645 1.01655 18.9991C1.01655 28.9118 14.0186 36.98 30.0002 36.98C45.9818 36.98 58.9839 28.9135 58.9839 18.9991C58.9839 9.08475 45.9818 1.01998 30.0002 1.01998Z" fill="#3E51FF"/>
<path d="M19.0136 21.6257C18.48 21.5169 18.0938 21.1123 17.8194 20.5241C17.4231 20.8981 16.9573 21.2041 16.4355 21.4115L16.3492 21.25C16.8539 20.9899 17.3079 20.6499 17.6941 20.2181C17.4807 19.635 17.3604 18.9261 17.3197 18.1832H16.1069V19.193C16.4457 19.0774 16.7675 18.9567 17.0487 18.836L17.1233 18.9975C16.8353 19.1828 16.4847 19.3664 16.1069 19.533V21.1123C16.1069 21.6478 15.6767 21.7923 14.6248 21.3945L14.6705 21.216C15.636 21.3656 15.7343 21.3197 15.7343 20.9916V19.6877C15.3328 19.8492 14.9128 19.9937 14.5215 20.1025L14.3843 19.6809C14.8264 19.5891 15.2871 19.4565 15.7343 19.3171V18.1815H14.4351V17.9571H15.7343V17.1156C15.3549 17.2142 14.9534 17.289 14.5621 17.3468L14.5283 17.1513C15.3837 16.9677 16.1781 16.6906 16.7167 16.3676L17.0047 16.6855C16.7523 16.8062 16.4474 16.9167 16.1086 17.0204V17.9605H17.3096C17.2926 17.5678 17.2808 16.8708 17.2808 16.3234H17.6602C17.6653 16.8997 17.6721 17.5627 17.689 17.9605H19.4066V18.1849H17.7009C17.7415 18.785 17.833 19.3664 17.9888 19.8577C18.2768 19.465 18.5054 19.0094 18.6782 18.496L19.0576 18.6694C18.8442 19.2287 18.5292 19.7591 18.1209 20.2198C18.3276 20.7043 18.6088 21.0681 18.9763 21.2007C19.1711 21.2755 19.1898 21.1837 19.1542 20.0362H19.327C19.5743 21.1327 19.5455 21.726 19.017 21.6274L19.0136 21.6257ZM18.7612 17.6239C18.5664 17.2958 18.2564 16.8334 18.0312 16.5342L18.1582 16.4067C18.475 16.6481 18.8764 17.0765 19.1 17.3638L18.7612 17.6239Z" fill="#3E51FF"/>
<path d="M23.4989 17.9416H21.9135V21.6442H21.5459V16.5579H23.4989V17.9416ZM23.1381 16.7823H21.9135V17.1393H23.1381V16.7823ZM23.1381 17.3535H21.9135V17.7223H23.1381V17.3535ZM23.4413 18.9327C23.5853 19.118 23.7344 19.3594 23.8258 19.5838L23.5667 19.6875C23.543 19.5957 23.5091 19.5039 23.4803 19.4104C23.089 19.5379 22.486 19.6467 22.193 19.6807L22.1066 19.3747C22.193 19.3747 22.2912 19.3747 22.3877 19.3696C22.5487 19.2319 22.7502 19.0415 22.9332 18.8562C22.652 18.931 22.3928 18.9718 22.215 18.9939L22.1404 18.6998C22.2099 18.6998 22.2776 18.7049 22.3471 18.7049C22.4962 18.5094 22.6859 18.2085 22.8061 17.9552L23.1043 18.1116C22.9433 18.3139 22.7248 18.5434 22.5351 18.6998C22.7197 18.6947 22.9027 18.6828 23.1093 18.6709C23.2245 18.5434 23.3211 18.4295 23.3736 18.3479L23.6548 18.5145C23.4244 18.7746 22.9891 19.1265 22.6317 19.356C22.901 19.339 23.1839 19.305 23.4244 19.2761C23.3837 19.1724 23.3448 19.0806 23.3092 18.999L23.4362 18.9293L23.4413 18.9327ZM23.316 19.7572H23.6327V20.4321C23.6327 21.2566 22.9772 21.4759 22.3335 21.5745L22.281 21.4079C22.7926 21.2804 23.1314 21.1308 23.2584 20.7398H22.4132V19.8286H22.7299V20.5375H23.3041C23.3092 20.4746 23.316 20.4049 23.316 20.3301V19.7589V19.7572ZM25.1775 19.4291C24.8049 19.5379 24.2747 19.6314 23.9647 19.6603L23.8851 19.3781H24.1663C24.3154 19.2506 24.4881 19.067 24.644 18.8817C24.4034 18.9446 24.1561 18.9854 23.9309 19.0194L23.8563 18.7253C23.9309 18.7253 24.0003 18.7304 24.0698 18.7304C24.2188 18.5349 24.3865 18.2408 24.5 17.9688L24.7981 18.1133C24.6541 18.3088 24.4305 18.557 24.2459 18.7304C24.4187 18.7304 24.5915 18.7185 24.7812 18.7015C24.8845 18.574 24.9709 18.4601 25.0217 18.3734L25.3097 18.5468C25.0793 18.8171 24.7185 19.1469 24.4018 19.3662C24.6541 19.3492 24.9082 19.3254 25.1318 19.2965C25.0912 19.1979 25.0522 19.1061 25.0048 19.0262L25.1199 18.9514C25.2859 19.1418 25.4469 19.39 25.54 19.6025L25.2758 19.7181C25.247 19.6195 25.2131 19.5277 25.1775 19.4291ZM25.2639 20.7432H24.356V21.5626H24.0291V19.764H24.356V20.5358H24.9472V19.815H25.2639V20.7432ZM26.0736 16.5562V21.1869C26.0736 21.6714 25.6146 21.7581 24.7981 21.3994L24.8388 21.226C25.54 21.3467 25.706 21.3535 25.706 21.0186V17.945H24.1324V16.5562H26.0736ZM25.706 16.7823H24.4932V17.1393H25.706V16.7823ZM25.706 17.3535H24.4932V17.7291H25.706V17.3535Z" fill="#3E51FF"/>
<path d="M28.1689 20.3114C28.5653 19.8269 28.8533 19.2625 29.0142 18.3395L29.192 18.3633C29.1632 19.3152 28.9041 20.07 28.589 20.5885L28.1689 20.3114ZM29.7493 20.6684V17.5439H30.1626V20.6174C30.1626 20.9455 30.2253 21.0101 30.5759 21.0322C30.852 21.0492 31.2247 21.056 31.5245 21.0322C31.909 21.0033 31.9209 20.8758 31.9276 19.7232H32.1106C32.324 21.0781 32.2952 21.3722 31.5872 21.4249C31.2196 21.4487 30.869 21.4419 30.559 21.4249C29.939 21.3841 29.7493 21.362 29.7493 20.6701V20.6684ZM29.9898 16.4695L30.0813 16.3029C30.6792 16.563 31.2873 16.937 31.782 17.3586L31.4483 17.7394C30.9706 17.2379 30.4997 16.8401 29.9882 16.4712L29.9898 16.4695ZM32.0022 18.2579L32.1631 18.1593C32.617 18.7185 33.054 19.4444 33.2946 20.0564L32.8355 20.2587C32.6238 19.5719 32.3291 18.8919 32.0022 18.2579Z" fill="#3E51FF"/>
<path d="M40.2462 20.9507L40.131 21.4012C39.5043 21.4539 38.327 21.4641 37.8206 21.442C36.833 21.3961 36.4875 21.2108 36.1081 20.5886C35.8489 21.0034 35.5677 21.3961 35.2696 21.6834L35.0054 21.4063C35.3035 21.17 35.6541 20.83 35.8896 20.4951V19.232H35.0731V19.0008H36.2741V20.4543C36.5908 20.9439 36.9686 21.0663 37.8765 21.0884C38.5997 21.1122 39.572 21.0357 40.2445 20.9507H40.2462ZM35.1426 17.5949L35.2459 17.4504C35.5339 17.617 35.9353 17.872 36.2622 18.1712L35.9743 18.4891C35.7388 18.2069 35.4 17.8431 35.1409 17.5949H35.1426ZM35.2696 16.4474L35.3679 16.3029C35.6558 16.4525 36.0911 16.7177 36.4079 16.9948L36.1267 17.3127C35.8794 17.0305 35.5355 16.6956 35.2713 16.4474H35.2696ZM40.1022 17.3467H36.6145V17.1223H38.3779C38.1305 16.8809 37.8087 16.5868 37.5445 16.3777L37.6309 16.2213C37.9408 16.3658 38.3897 16.597 38.7115 16.8384L38.4998 17.1206H40.1022V17.345V17.3467ZM39.6364 18.0386H37.0854V17.8193H39.6364V18.0386ZM39.6364 18.7424H37.0854V18.5231H39.6364V18.7424ZM39.2349 20.7433V20.4033H37.5055V20.7433H37.1312V19.2099H39.6076V20.7433H39.2349ZM39.2349 20.1721V19.4394H37.5055V20.1721H39.2349Z" fill="#3E51FF"/>
<path d="M43.3936 16.4067C43.2902 16.8623 43.1751 17.289 43.026 17.6868V21.6478H42.6584V18.4705C42.4687 18.8054 42.2451 19.1046 41.969 19.3868L41.8369 19.2661C42.4061 18.4926 42.7567 17.5185 42.9752 16.3013L43.3953 16.405L43.3936 16.4067ZM46.8287 16.7008V21.6478H46.4442V21.233H43.9915V21.6478H43.607V16.7008H46.8304H46.8287ZM46.4442 16.932H43.9915V21.0035H46.4442V16.932ZM45.0298 18.1662H44.2202V17.9418H45.0298V17.1632H45.3923V17.9418H46.202V18.1662H45.3923V18.9737H46.0241V20.4323H44.3811V18.9737H45.0298V18.1662ZM44.7266 19.1981V20.213H45.6854V19.1981H44.7266Z" fill="#3E51FF"/>
</g>
<defs>
<clipPath id="clip0_22_4772">
<rect width="60" height="38" fill="white"/>
</clipPath>
</defs>
</svg>
