<svg width="96" height="60" viewBox="0 0 96 60" fill="none"
    xmlns="http://www.w3.org/2000/svg">
    <g clip-path="url(#clip0_159_1621)">
        <path d="M47.4998 57.5548C22.1197 57.5548 1.4707 44.9707 1.4707 29.4987C1.4707 14.0267 22.1197 1.44525 47.4998 1.44525C72.8798 1.44525 93.5289 14.0294 93.5289 29.4987C93.5289 44.968 72.8798 57.5548 47.4998 57.5548ZM47.4998 1.70802C22.2668 1.70802 1.73814 14.1765 1.73814 29.4987C1.73814 44.8209 22.2668 57.292 47.4998 57.292C72.7327 57.292 93.2614 44.8235 93.2614 29.4987C93.2614 14.1739 72.7327 1.70802 47.4998 1.70802Z" fill="#434343"/>
        <path d="M47.5001 50.029C27.8112 50.029 11.7915 40.8189 11.7915 29.4987C11.7915 18.1785 27.8085 8.97101 47.5001 8.97101C67.1917 8.97101 83.2086 18.1811 83.2086 29.5013C83.2086 40.8215 67.189 50.0316 47.5001 50.0316V50.029ZM47.5001 9.23378C27.9582 9.23378 12.0589 18.3257 12.0589 29.5013C12.0589 40.677 27.9582 49.7689 47.5001 49.7689C67.0419 49.7689 82.9412 40.677 82.9412 29.5013C82.9412 18.3257 67.0419 9.23378 47.5001 9.23378Z" fill="#434343"/>
        <path d="M44.5608 27.5936C43.352 27.3991 42.4828 26.5872 41.8864 25.4835C41.0039 26.1536 40.009 26.7133 38.8563 27.0917L38.5006 26.3927C39.6105 25.7778 40.5492 25.0789 41.3328 24.2406C40.822 22.7586 40.592 20.9823 40.5064 19.403H38.2439V21.2897C38.8697 21.0795 39.4821 20.8561 40.0518 20.6328L40.3647 21.2897C39.7522 21.7522 39.0275 22.1989 38.2439 22.6036V25.9591C38.2439 27.7618 36.4654 28.0981 34.0183 26.8394L34.1895 26.1405C36.3531 26.4479 36.5242 26.3218 36.5242 25.5124V23.4155C35.6978 23.7519 34.8741 24.0435 34.0772 24.2695L33.4941 22.5641C34.5051 22.3539 35.5294 22.1017 36.5242 21.8231V19.4056H33.7215V18.4964H36.5242V17.0854C35.6978 17.2246 34.8447 17.3087 34.0477 17.3639L33.9327 16.6097C36.0241 16.163 37.7892 15.5324 39.1826 14.7231L40.3353 16.079C39.7656 16.3312 39.0408 16.5546 38.2439 16.749V18.4964H40.4636C40.4342 17.448 40.4208 16.4127 40.4342 14.7782H42.1565C42.1431 16.4284 42.1565 17.4638 42.1859 18.4964H46.0558V19.4056H42.2287C42.3009 20.483 42.4266 21.5735 42.6406 22.551C43.1247 21.7811 43.5365 20.9297 43.8922 19.9653L45.4995 20.6354C44.9165 21.965 44.1623 23.2211 43.1808 24.2853C43.4937 25.0132 43.9216 25.5571 44.4619 25.7962C44.9459 26.0064 45.0449 25.741 45.0315 23.4891H45.7723C46.4971 26.1326 46.3847 27.9063 44.5635 27.5988L44.5608 27.5936ZM44.2319 18.1706C43.7612 17.2614 43.0926 16.1709 42.5523 15.359L43.1353 14.8702C44.0607 15.4562 45.0556 16.3811 45.668 17.1773L44.2319 18.1706Z" fill="#434343"/>
        <path d="M56.6516 18.1706V27.6225H54.7153V20.7983C53.3059 22.3355 51.5408 23.6231 49.5912 24.4482L49.2061 23.7624C52.5357 21.5525 54.159 19.1481 55.2261 16.5336H49.7062V15.5403H62.0164V16.5336H57.4352C57.2212 17.0775 56.9645 17.6372 56.6516 18.1706ZM62.3855 23.0082L60.7488 24.4062C59.81 22.9662 58.2295 20.9113 56.8201 19.4135L57.3336 18.8118C59.1976 19.8891 61.4174 21.8468 62.3855 23.0056V23.0082Z" fill="#434343"/>
        <path d="M45.8259 33.5638V34.557H38.7681C38.2413 35.5345 37.6154 36.4858 36.9335 37.3661V44.3715H35.056V39.3789C34.4864 39.8808 33.9034 40.3012 33.3337 40.6218L32.9219 39.9938C34.3152 38.693 35.6257 36.7354 36.6072 34.5544H33.3899V33.5611H37.0191C37.3186 32.7912 37.5753 32.0082 37.7732 31.2277L39.9502 31.7296C39.779 32.3314 39.5383 32.9462 39.2522 33.5611H45.8259V33.5638ZM42.2555 42.7923H45.5852V43.7856H37.3453V42.7923H40.3915V39.1161H37.6743V38.1806H40.3915V35.3559H42.2555V38.1806H44.946V39.1161H42.2555V42.7923Z" fill="#434343"/>
        <path d="M51.3513 40.7164L52.0199 40.9555C51.8621 42.2825 51.2657 43.4728 50.581 44.2401L49.2866 43.0366C50.1531 42.4769 50.8244 41.82 51.3486 40.7164H51.3513ZM61.867 36.0732H49.7439V35.206H53.1886C52.7901 34.6332 52.4478 34.1576 52.1349 33.7529H50.5142V32.9015H55.4511C54.8119 32.5941 54.1567 32.2998 53.5737 32.0344L53.7448 31.3486C54.6836 31.4327 56.0074 31.6429 57.1601 32.0764L56.7188 32.9015H61.0165V33.7529H58.5962L59.2942 34.0472C58.9252 34.4677 58.5534 34.8592 58.1416 35.2087H61.8697V36.0758L61.867 36.0732ZM60.0885 40.2118H51.2951V36.604H60.0885V40.2118ZM59.0214 41.2603C59.7034 43.4965 59.2782 44.1114 57.8821 44.1955C56.7589 44.2664 55.8336 44.2664 54.6809 44.2244C53.1297 44.1692 52.4478 43.9852 52.4478 42.7003V40.5902H54.1834V41.9593C54.1834 42.561 54.3118 42.7292 55.1516 42.7712C56.0047 42.8133 56.7749 42.8001 57.5853 42.7423C58.1977 42.7003 58.31 42.5742 58.3395 41.2603H59.0214ZM58.3528 37.416H53.0308V38.044H58.3528V37.416ZM58.3528 38.7587H53.0308V39.4314H58.3528V38.7587ZM54.836 34.8566L54.3947 35.206H56.8712C57.1119 34.7593 57.3419 34.2706 57.5532 33.7529H53.456C53.9535 34.0735 54.4375 34.4519 54.836 34.8566ZM54.7959 40.8267L55.165 40.2118C55.9191 40.4641 56.8712 40.8819 57.6682 41.4285L56.7856 42.6031C56.1304 41.9593 55.3334 41.2761 54.7932 40.8267H54.7959ZM62.3083 42.8553L60.9283 43.8328C60.4576 42.8264 59.9896 41.9461 59.4199 41.0212L59.9601 40.6165C60.8293 41.2025 61.7386 42.0985 62.3083 42.8527V42.8553Z" fill="#434343"/>
        <path d="M25.9844 11.491L25.9283 12.0139C24.9174 12.0087 23.6684 11.5908 22.9383 10.5214L22.8768 10.5424C22.9624 11.8116 22.382 12.7891 21.1063 13.5984L20.9833 13.4539C22.0584 12.6419 22.4997 11.7459 22.4569 10.6764L20.3334 11.3544L20.2612 11.1336L21.0529 10.8814L20.4832 9.15759L21.9782 8.67934L21.6573 7.70972L22.0558 7.58359L22.3767 8.55321L23.8503 8.08285L24.4199 9.80663L25.2169 9.55174L25.2891 9.77247L23.1309 10.4609C23.77 11.1757 24.8264 11.5383 25.9871 11.491H25.9844ZM22.4382 10.4399C22.4007 10.0799 22.3125 9.70152 22.1761 9.29423L22.0451 8.89744L20.9191 9.25744L21.4192 10.7657L22.4382 10.4399ZM22.4435 8.76868L22.6174 9.2916C22.735 9.64897 22.8153 9.98269 22.8527 10.3059L24.0402 9.92751L23.54 8.4192L22.4409 8.77131L22.4435 8.76868Z" fill="#434343"/>
        <path d="M47.0268 5.63908C47.1337 5.36317 47.2327 4.99004 47.2862 4.66683L46.7139 4.68785L46.8101 7.29717C46.8262 7.73074 46.5775 8.03556 45.5238 7.61512L45.5692 7.43906C46.3341 7.55731 46.4224 7.53103 46.409 7.22359L46.3154 4.70099L45.3152 4.73778L45.3071 4.51705L46.7326 4.4645C46.5106 4.21749 46.1683 3.88377 45.8928 3.62626L45.9998 3.48436C46.1683 3.57633 46.3796 3.70246 46.5721 3.84173C46.7513 3.5737 46.9385 3.2321 47.0294 2.97458L45.4328 3.03239L45.4248 2.81955L47.0214 2.76174L47.1471 2.66977L47.5563 2.89312C47.3343 3.28203 47.008 3.69458 46.7353 3.95998C46.869 4.05457 46.9893 4.15443 47.0749 4.23851L46.8663 4.46712L47.2541 4.45399L47.3691 4.35676L47.7596 4.53544C47.6044 4.96376 47.3343 5.4893 47.1712 5.71529L47.0214 5.64434L47.0268 5.63908ZM48.6582 6.67703L49.0326 6.91352C48.5806 7.31293 47.8826 7.70184 47.2487 7.90417L47.1712 7.73862C47.682 7.5179 48.257 7.12111 48.6582 6.67703ZM48.8106 2.99823L47.6633 3.04028L47.6553 2.81429L50.4687 2.71444L50.4767 2.94042L49.2465 2.98509C49.1369 3.24261 49.0112 3.50275 48.9122 3.68144L50.1317 3.63677L50.2387 6.49572L48.0002 6.57718L47.8933 3.71823L48.7063 3.68932C48.7518 3.4791 48.7838 3.21108 48.8106 3.00086V2.99823ZM49.7573 3.88114L48.2784 3.9337L48.3025 4.55384L49.7814 4.50128L49.7573 3.88114ZM49.7867 4.72464L48.3078 4.77719L48.3319 5.43149L49.8108 5.37894L49.7867 4.72464ZM49.8215 5.60492L48.3426 5.65748L48.3666 6.33543L49.8456 6.28287L49.8215 5.60492ZM50.7923 7.3471L50.5516 7.72549C50.236 7.47585 49.6664 7.08958 49.2091 6.82418L49.2866 6.65864C49.7814 6.80841 50.351 7.07119 50.7923 7.3471Z" fill="#434343"/>
        <path d="M50.5407 54.2149C50.292 54.165 49.9764 54.0783 49.6474 53.9574L49.7143 55.7863L49.3319 55.7994L49.3212 55.5262L46.8126 55.6155L46.8233 55.8993L46.4462 55.9124L46.3766 54.073C46.0637 54.2176 45.7428 54.3437 45.4299 54.4435L45.3657 54.278C46.1333 53.9889 47.0586 53.4765 47.5026 52.9221L45.4834 52.9957L45.4754 52.7697L46.9837 52.7145C46.7992 52.5122 46.5959 52.3046 46.4382 52.1601L46.505 52.0707C46.398 52.0812 46.2937 52.0891 46.1921 52.0944L46.1627 51.9209C47.4598 51.7817 48.5295 51.5163 49.0644 51.3192L49.4308 51.624C49.0805 51.7186 48.6178 51.8158 48.115 51.892L48.1444 52.6725L48.5991 52.6567C48.7676 52.4255 48.9681 52.0865 49.1099 51.7922L49.4576 51.9761C49.2489 52.2389 49.0457 52.478 48.8451 52.6462L50.4284 52.5884L50.4364 52.8144L48.2407 52.8932C48.928 53.4319 49.8988 53.692 50.6985 53.8024L50.5434 54.2123L50.5407 54.2149ZM45.9541 52.2783L45.5663 52.2914L45.5262 51.2088L48.0241 51.1195C47.7165 50.9618 47.3341 50.7963 47.0158 50.6754L47.064 50.5072C47.3956 50.5519 47.9117 50.6491 48.2942 50.8042L48.1524 51.1169L50.2893 51.0407L50.3294 52.118L49.9416 52.1312L49.9095 51.285L45.922 51.4269L45.9541 52.2783ZM49.4442 53.8786C48.9655 53.6815 48.476 53.403 48.1578 53.0561L48.1845 53.763L47.7968 53.7761L47.7727 53.1271C47.4945 53.445 47.0586 53.7314 46.5719 53.9811L49.4469 53.8786H49.4442ZM47.3154 52.5647L47.1736 52.7093L47.7566 52.6882L47.7299 51.9472C47.3662 51.9945 46.9837 52.0366 46.6147 52.0681C46.8661 52.1968 47.1228 52.3808 47.318 52.5647H47.3154ZM47.8208 54.1624L46.7618 54.1992L46.7778 54.6669L47.8369 54.6301L47.8181 54.1624H47.8208ZM47.8476 54.8561L46.7885 54.8929L46.8072 55.3895L47.8663 55.3527L47.8476 54.8561ZM49.2703 54.1098L48.1979 54.1492L48.2166 54.617L49.2891 54.5776L49.273 54.1098H49.2703ZM49.2971 54.8035L48.2247 54.843L48.2434 55.3396L49.3158 55.3002L49.2971 54.8035Z" fill="#434343"/>
        <path d="M24.0269 49.1855L23.5321 51.1353C23.4064 51.6293 22.9545 51.6135 22.2217 51.1248L22.2912 50.975C23.0347 51.2483 23.1149 51.2483 23.1952 50.9356L23.607 49.3169C23.3316 49.3931 23.0614 49.4562 22.802 49.5008L22.7218 49.0804C23.0053 49.062 23.3503 49.0252 23.6979 48.9674L24.0269 47.6746L23.2273 47.4775L23.2834 47.2594L24.0831 47.4565L24.3665 46.3397L24.7329 46.429L24.4495 47.5458L25.0672 47.6982L25.0111 47.9163L24.3933 47.7639L24.1045 48.8938C24.3024 48.8544 24.4976 48.8045 24.6741 48.7546L24.7196 48.9148C24.5056 49.0173 24.2703 49.1093 24.0296 49.1881L24.0269 49.1855ZM27.4528 52.1942L27.1854 52.5569C26.9126 52.4307 25.9578 51.8684 25.8535 50.7726H25.8482C25.2946 51.6083 24.4227 51.7922 23.5054 51.7002L23.492 51.5373C24.3719 51.5688 25.0271 51.3297 25.4657 50.678L24.0429 50.3286L24.0991 50.1052L25.5914 50.4705C25.6824 50.3023 25.7679 50.1078 25.8375 49.8871L26.2092 50.0027C26.1423 50.2129 26.0648 50.4021 25.9739 50.565L27.6373 50.9723L27.5812 51.1983L26.038 50.8199C26.2547 51.5189 26.9366 51.9656 27.4555 52.1942H27.4528ZM26.3189 46.7706L26.6719 47.0019C26.5515 47.1385 26.4419 47.262 26.3296 47.3724L27.0436 47.5484L27.1827 47.5038L27.5036 47.7928C27.303 48.0109 26.95 48.2763 26.6906 48.4287L27.8406 48.7125L27.3512 50.6334L26.9901 50.544L27.4234 48.8413L25.4684 48.3604L25.0298 50.0789L24.6688 49.9896L25.1234 48.2027C24.9977 48.2605 24.8693 48.3131 24.7383 48.3578L24.6688 48.2027C25.2839 47.9111 25.8829 47.4144 26.3162 46.768L26.3189 46.7706ZM26.613 48.7651C26.5355 48.8781 26.4606 48.9779 26.3777 49.0699C26.6558 49.3405 26.8858 49.648 27.0169 49.8766L26.7013 50.0684C26.589 49.7951 26.4312 49.4877 26.2547 49.2013C25.9605 49.4929 25.6262 49.6926 25.2544 49.8162L25.1796 49.6532C25.6422 49.4141 26.0113 49.083 26.3055 48.5706L26.613 48.7651ZM25.3481 48.0976L26.4526 48.3683C26.6558 48.1922 26.8591 47.961 26.9955 47.7665L26.1317 47.5537C25.8669 47.7823 25.6101 47.9557 25.3507 48.095L25.3481 48.0976Z" fill="#434343"/>
        <path d="M71.4762 47.9189C71.4227 48.1134 71.3585 48.3105 71.2836 48.497L73.851 47.6772L74.7389 50.3653L74.3592 50.4862L74.2361 50.1183L71.9602 50.8462L72.0886 51.2377L71.7062 51.3586L70.9787 49.1618C70.7354 49.6243 70.4305 50.05 70.0908 50.4074L69.9464 50.2891C70.4813 49.6191 70.8718 48.8491 71.0643 48.0503L69.5907 48.5207L69.5185 48.3L71.1258 47.7849C71.1526 47.6246 71.182 47.4643 71.1954 47.3014L69.6763 47.7876L69.6041 47.5721L71.2114 47.057C71.2248 46.8889 71.2221 46.7181 71.2114 46.5525C70.6257 46.8022 70.0133 47.0334 69.4677 47.2016L69.3901 47.0439C70.8691 46.4737 72.0458 45.8378 72.808 45.2939L73.2787 45.5014C72.9123 45.7458 72.3052 46.0611 71.6313 46.3633C71.642 46.5499 71.65 46.7365 71.6366 46.923L73.7334 46.253L73.8056 46.4684L71.6206 47.1674C71.6019 47.333 71.5725 47.4932 71.535 47.6562L74.2816 46.7785L74.3538 46.9992L71.4735 47.9189H71.4762ZM73.5408 48.0188L71.2649 48.7467L71.4227 49.2197L73.6986 48.4918L73.5408 48.0188ZM73.7681 48.702L71.4922 49.4299L71.6554 49.9213L73.9313 49.1934L73.7681 48.702ZM73.9981 49.3957L71.7222 50.1236L71.8907 50.6307L74.1666 49.9029L73.9981 49.3957Z" fill="#434343"/>
        <path d="M74.2013 12.3161C73.9873 12.1821 73.7252 11.985 73.4658 11.7538L72.848 13.4802L72.487 13.3567L72.5779 13.0992L70.2111 12.2793L70.1148 12.5473L69.7591 12.4238L70.3822 10.6869C70.0372 10.7079 69.6922 10.7132 69.3633 10.6895V10.5109C70.187 10.5187 71.238 10.3742 71.8585 10.0168L69.9517 9.35729L70.0292 9.14445L71.452 9.63583C71.3557 9.38094 71.2434 9.11554 71.1525 8.92372L71.2487 8.86591C71.1471 8.83701 71.0455 8.8081 70.9492 8.77394L70.9866 8.60314C72.2463 8.93949 73.3401 9.07875 73.9124 9.08664L74.1371 9.50182C73.776 9.4624 73.3107 9.38882 72.8133 9.27583L72.5485 10.0142L72.9764 10.1614C73.2198 10.0063 73.53 9.76459 73.7734 9.54123L74.0301 9.83816C73.7386 10.0063 73.4605 10.1561 73.2117 10.2428L74.7067 10.7605L74.6292 10.9733L72.5565 10.256C72.9951 11.0022 73.8001 11.5935 74.5062 11.985L74.2066 12.3108L74.2013 12.3161ZM71.4547 11.943L70.4544 11.5961L70.286 12.0665L71.2862 12.4133L71.4547 11.943ZM70.6523 8.86065L70.286 8.73452L70.6523 7.71234L73.0085 8.52693C72.7812 8.27205 72.487 7.97774 72.2383 7.75176L72.3452 7.60986C72.6368 7.77278 73.0807 8.04869 73.3802 8.32986L73.1315 8.56898L75.148 9.26532L74.7843 10.2822L74.4179 10.1561L74.7041 9.35729L70.9412 8.05657L70.6523 8.86065ZM71.69 11.286L70.6898 10.9392L70.532 11.3806L71.5322 11.7275L71.69 11.286ZM73.3054 11.6066C72.9336 11.2519 72.5833 10.8157 72.4148 10.3768L72.1768 11.0443L71.8104 10.9182L72.0297 10.3059C71.6526 10.5003 71.1391 10.6107 70.5935 10.6685L73.3054 11.6066ZM71.813 9.61743L71.6258 9.70152L72.1768 9.89072L72.4281 9.19175C72.0725 9.10503 71.7007 9.00781 71.345 8.9027C71.5322 9.11554 71.7007 9.37569 71.813 9.61743ZM72.8213 12.4159L71.8104 12.0665L71.6419 12.5368L72.6528 12.8863L72.8213 12.4159ZM73.0566 11.759L72.0457 11.4095L71.8879 11.851L72.8988 12.2005L73.0566 11.759Z" fill="#434343"/>
        <path d="M32.692 7.36284C32.8632 7.02124 33.037 6.57452 33.1841 6.06738C32.8739 6.22241 32.5128 6.37745 32.24 6.48255L32.0742 6.13832L32.3738 6.07789C32.4914 5.59964 32.5904 4.95585 32.6225 4.29893L33.0397 4.34097C32.9274 4.91118 32.7375 5.59964 32.5663 6.02796C32.7963 5.97015 33.029 5.90709 33.2429 5.84139C33.3071 5.59702 33.3633 5.3395 33.4061 5.07673L33.8072 5.16344C33.6227 5.88344 33.2643 6.74007 32.9193 7.28663C33.2001 7.19466 33.4916 7.09218 33.7644 6.98445C33.6628 6.83992 33.5612 6.70065 33.4729 6.58241L33.6067 6.47467C33.8687 6.6954 34.1923 7.01598 34.3956 7.30503L34.1014 7.51525C34.0292 7.39963 33.949 7.26824 33.8634 7.13685C33.4221 7.41276 32.8418 7.70444 32.5101 7.83583L32.3203 7.46006C32.4353 7.43116 32.561 7.40225 32.692 7.36284ZM32.8872 7.99086H33.0557C33.168 8.60312 33.1761 9.19698 33.1039 9.6069L32.6813 9.50705C32.8177 9.11289 32.9086 8.5821 32.8899 7.99086H32.8872ZM33.4569 7.8148C33.6708 8.18531 33.9276 8.76078 34.0533 9.08399L33.6735 9.22851C33.5879 8.87377 33.4275 8.28516 33.2991 7.86736L33.4569 7.81218V7.8148ZM34.5052 8.38765L34.1977 8.58472C34.0479 8.25889 33.8741 7.94619 33.7136 7.65714L33.858 7.56254C34.0934 7.80692 34.3073 8.08809 34.5079 8.38502L34.5052 8.38765ZM35.5884 6.88197L34.4625 7.10269L33.9784 4.72462L34.9893 4.52491C35.0161 4.30155 35.0241 4.05192 35.0214 3.79178L35.4386 3.80492C35.3718 4.03616 35.2862 4.28842 35.1979 4.48287L36.7517 4.17805L37.2358 6.55613L35.6338 6.87146C35.9521 6.99233 36.3426 7.19204 36.6501 7.41014L36.4228 7.7386C36.1313 7.46532 35.7809 7.21043 35.5055 7.01598L35.5857 6.88197H35.5884ZM34.778 6.81102L35.0615 6.75584L34.9813 6.65861C35.222 6.45628 35.4493 6.2119 35.6285 5.91234C35.4627 5.83877 35.2969 5.76519 35.1337 5.69687C35.0508 5.85453 34.9599 5.99643 34.8716 6.11993L34.7272 6.03584C34.8021 5.89657 34.8636 5.75993 34.9118 5.61541C34.8208 5.58125 34.7299 5.54446 34.639 5.51556L34.6791 5.36052L34.9759 5.42621C35.0401 5.20811 35.0883 4.9795 35.1177 4.7325L34.3849 4.87702L34.7807 6.81365L34.778 6.81102ZM34.6791 7.62035L34.8583 7.6151C34.9519 8.10385 34.9545 8.55319 34.8502 8.98676L34.4464 8.86063C34.6309 8.44546 34.6978 8.11436 34.6791 7.62035ZM36.9122 7.66502C37.2331 8.38239 37.2117 8.66356 36.7892 8.77655C36.503 8.85012 36.2142 8.90793 35.9681 8.93947C35.4841 9.00516 35.345 8.89742 35.2594 8.47173L35.0134 7.26824L35.3878 7.19466L35.6258 8.35874C35.6713 8.58472 35.7622 8.61626 35.9842 8.58998C36.1767 8.5637 36.4201 8.52166 36.6367 8.45597C36.8587 8.39027 36.8828 8.34297 36.7384 7.7097L36.9095 7.67028L36.9122 7.66502ZM36.4308 4.47236L35.2247 4.71148L35.4707 4.74038C35.444 4.85075 35.4252 4.95585 35.3905 5.05834L35.8638 4.96374L35.9681 4.85337L36.3078 4.95323C36.2463 5.27118 36.1553 5.53921 36.0404 5.76256C36.249 5.84665 36.4469 5.93074 36.6421 6.02796L36.4629 6.3354C36.2837 6.22767 36.0912 6.13044 35.8906 6.02796C35.6793 6.34591 35.4306 6.56664 35.1872 6.73219L36.8293 6.40898L36.4335 4.47236H36.4308ZM35.2327 5.49191C35.4038 5.53921 35.5777 5.59439 35.7515 5.65483C35.821 5.49979 35.8719 5.32899 35.9093 5.13979L35.3263 5.25541C35.2942 5.3395 35.2621 5.4157 35.23 5.49191H35.2327ZM37.8643 8.02239L37.5621 8.25363C37.3455 7.89364 37.1262 7.56517 36.8534 7.22882L36.9737 7.11583C37.3027 7.37598 37.6182 7.68079 37.8616 8.02239H37.8643Z" fill="#434343"/>
        <path d="M13.1661 16.6886L11.861 17.5846L12.1204 17.9499L11.7834 18.1811L10.3125 16.1105L11.9546 14.9832L11.2994 14.0635L11.647 13.8244L12.3023 14.7441L13.9497 13.6142L15.4019 15.6559L15.0676 15.8845L14.8269 15.5482L13.5138 16.4495L14.8028 18.2626L14.4551 18.5017L13.1661 16.6886ZM13.0243 16.4889L12.099 15.1882L10.7939 16.0842L11.7192 17.3849L13.0243 16.4889ZM14.6851 15.3485L13.7598 14.0477L12.4467 14.949L13.372 16.2498L14.6851 15.3485Z" fill="#434343"/>
        <path d="M62.8056 8.89218L61.348 8.53481L61.0779 9.59115L60.7008 9.49918L60.9683 8.44284L59.6364 8.11437C59.2085 8.77393 58.4837 8.91845 57.5718 8.78181L57.5825 8.59787C58.4062 8.65831 58.9223 8.53481 59.254 8.01715L57.8312 7.66766L57.8874 7.44956L59.369 7.81219C59.4305 7.69131 59.484 7.54941 59.5294 7.39175L58.7753 7.20518L59.2754 5.23966L62.6719 6.07527L62.1717 8.0408L61.5138 7.87788L61.4042 8.31145L62.8617 8.66882L62.8056 8.88692V8.89218ZM58.4356 5.31849L58.3527 5.16608C58.8528 4.85338 59.3957 4.27003 59.7327 3.68405L60.0964 3.90478C60.0001 4.04668 59.8905 4.18857 59.7648 4.32521L61.2785 4.69835L61.2223 4.91645L60.2328 4.6747C60.3371 4.86127 60.42 5.06097 60.4976 5.30798L60.1151 5.38155C60.0857 5.08725 60.0509 4.86915 60.0055 4.61952L59.5829 4.51441C59.2272 4.86389 58.81 5.16608 58.4356 5.31849ZM59.2032 7.08168L61.8562 7.73335L61.9524 7.35234L59.2994 6.70066L59.2032 7.08168ZM59.3503 6.49833L62.0033 7.15L62.0995 6.76898L59.4465 6.11731L59.3503 6.49833ZM59.5 5.91235L62.153 6.56402L62.2466 6.19877L59.5936 5.5471L59.5 5.91235ZM61.0271 8.22211L61.1368 7.78854L59.9145 7.48898C59.8691 7.64401 59.8156 7.78591 59.7541 7.90941L61.0298 8.22211H61.0271ZM60.7329 5.41571C61.1341 5.17396 61.5941 4.75616 61.9284 4.22273L62.276 4.45134C62.1664 4.59587 62.0407 4.72725 61.9203 4.84813L63.7042 5.28696L63.648 5.50506L62.4365 5.20812C62.5435 5.40783 62.6398 5.62856 62.712 5.87294L62.3322 5.93337C62.3028 5.63907 62.2707 5.41046 62.2199 5.15294L61.7117 5.02681C61.3962 5.28433 61.0726 5.46038 60.8131 5.57075L60.7329 5.41309V5.41571Z" fill="#434343"/>
        <path d="M59.0053 51.4059L58.6229 51.4821L58.4062 50.4205L60.856 49.937C60.527 49.8293 60.1232 49.7268 59.7889 49.6559L59.8076 49.4798C60.1419 49.4719 60.6688 49.4877 61.0726 49.5797L60.9844 49.9107L63.0811 49.4982L63.2977 50.5545L62.9153 50.6307L62.7468 49.803L58.8368 50.5729L59.0053 51.4085V51.4059ZM63.8513 52.5963C63.5973 52.5884 63.271 52.5516 62.926 52.4833L63.2924 54.278L62.918 54.3516L62.8618 54.0836L60.4014 54.5671L60.4575 54.8456L60.0884 54.9192L59.7194 53.1139C59.4332 53.3058 59.139 53.4818 58.8449 53.629L58.7539 53.4766C59.4653 53.0719 60.2917 52.4176 60.642 51.8001L58.6603 52.1916L58.6149 51.9709L60.0938 51.6792C59.8798 51.5084 59.6445 51.3376 59.4653 51.2193L59.5161 51.1195C59.4145 51.1458 59.3102 51.172 59.2139 51.1904L59.1551 51.0249C60.4147 50.6833 61.4256 50.2524 61.9204 49.9712L62.3296 50.2156C62.0006 50.3627 61.5594 50.5335 61.0726 50.6859L61.2304 51.4532L61.6744 51.3665C61.8027 51.1116 61.9445 50.7464 62.0381 50.4337L62.4125 50.5598C62.2494 50.8515 62.0889 51.1195 61.9177 51.3192L63.4716 51.0144L63.517 51.2351L61.3615 51.6608C62.1263 52.0839 63.1266 52.1863 63.9342 52.1706L63.8487 52.6015L63.8513 52.5963ZM60.396 51.4742L60.2783 51.6398L60.8507 51.5268L60.7036 50.7989C60.3532 50.904 59.9815 51.0065 59.6231 51.0932C59.8932 51.1826 60.174 51.3218 60.3987 51.4716L60.396 51.4742ZM62.712 52.436C62.2066 52.3177 61.6797 52.1207 61.308 51.8263L61.4497 52.5201L61.0673 52.5963L60.9389 51.9604C60.7169 52.3177 60.3318 52.6698 59.8932 52.9931L62.712 52.4386V52.436ZM61.1582 52.972L60.1179 53.177L60.2115 53.6368L61.2518 53.4319L61.1582 52.972ZM61.2973 53.6526L60.2569 53.8576L60.3559 54.3463L61.3962 54.1414L61.2973 53.6526ZM62.5783 52.6935L61.5273 52.9011L61.6209 53.3609L62.6719 53.1533L62.5783 52.6935ZM62.7174 53.3741L61.6663 53.5817L61.7653 54.0704L62.8163 53.8628L62.7174 53.3741Z" fill="#434343"/>
        <path d="M34.7807 50.9382L33.7832 54.8587L33.4114 54.7668L34.2432 51.5032C33.949 51.7712 33.6254 52.0024 33.275 52.1837L33.1895 52.0208C33.9811 51.4637 34.6336 50.615 35.1792 49.5928L35.559 49.8162C35.3236 50.2182 35.0696 50.5966 34.7807 50.9382ZM35.9441 52.4544C35.5804 53.0693 34.9893 53.7945 34.3582 54.2439L34.2432 54.102C34.7486 53.6237 35.2354 52.9195 35.567 52.2231L35.9468 52.4544H35.9441ZM37.1128 51.4112L36.2195 54.9165C36.0938 55.4106 35.6526 55.4999 34.631 54.7825L34.7112 54.6301C35.6526 55.0164 35.7783 54.9928 35.8612 54.6669L36.7143 51.314L35.9013 51.1143C35.5964 51.5058 35.238 51.8526 34.861 52.118L34.7379 51.9761C35.3397 51.4322 35.8077 50.7043 36.1527 49.8819L36.5592 50.0763C36.4201 50.3575 36.2436 50.6439 36.0484 50.9172L38.1344 51.4296L38.3002 51.3691L38.664 51.7081C38.351 52.0261 37.9044 52.3519 37.5969 52.5069L37.4819 52.3598C37.7038 52.1574 37.9606 51.8631 38.0997 51.6529L37.1048 51.4086L37.1128 51.4112ZM37.9713 54.864L37.5086 54.9402C37.4712 54.2754 37.3241 53.3005 37.193 52.6961L37.3588 52.641C37.6209 53.2611 37.8697 54.2097 37.9713 54.8614V54.864Z" fill="#434343"/>
        <path d="M78.9056 17.4322L82.6979 20.9061L82.5374 21.0742L78.7451 17.6004L78.9056 17.4322ZM81.3179 16.3943L83.5724 18.4597L82.262 19.8392L80.0074 17.7738L81.3179 16.3943ZM80.2776 15.9344L80.3391 15.761C81.1788 16.0317 82.3208 16.1446 83.1151 15.9265L81.7351 14.6626L81.8929 14.4971L83.5189 15.987L84.1019 15.3721L84.4041 15.648L83.8211 16.2629L85.4418 17.7476L85.284 17.9131L83.7837 16.5388C83.7248 17.4427 84.0431 18.3362 84.5165 19.0877L84.0458 19.2348C83.6366 18.4018 83.4467 17.3797 83.6259 16.4679L82.7246 17.4165L82.4224 17.1405L83.2675 16.2524C82.409 16.4941 81.1628 16.2971 80.2802 15.9371L80.2776 15.9344ZM80.4487 17.8684L82.1309 19.4083L82.5802 18.9353L80.898 17.3954L80.4487 17.8684ZM81.0585 17.2273L82.7407 18.7671L83.1258 18.3598L81.4436 16.82L81.0585 17.2273Z" fill="#434343"/>
        <path d="M8.37629 33.4376C7.93502 33.4376 7.50979 33.2616 7.19956 32.9541C6.88933 33.2616 6.46143 33.4376 6.02282 33.4376C5.10818 33.4376 4.36202 32.7045 4.36202 31.8058C4.36202 31.5378 4.42888 31.275 4.55993 31.0385C3.90737 30.802 3.47412 30.195 3.47412 29.5066C3.47412 28.6079 4.22028 27.8748 5.13492 27.8748C5.27399 27.8748 5.41039 27.8905 5.54411 27.9247C5.59225 27.0707 6.32236 26.3849 7.20223 26.3849C8.08211 26.3849 8.81222 27.0707 8.86036 27.9273C8.99408 27.8932 9.13315 27.8748 9.26954 27.8748C10.1842 27.8748 10.9303 28.6447 10.9303 29.5933C10.9303 30.2818 10.5238 30.9098 9.9114 31.1778C9.99698 31.3801 10.0398 31.5904 10.0398 31.8058C10.0398 32.7045 9.29361 33.4376 8.37897 33.4376H8.37629ZM7.19688 32.7912L7.23967 32.8359C7.53386 33.1486 7.94572 33.3273 8.37629 33.3273C9.22943 33.3273 9.9221 32.6467 9.9221 31.8085C9.9221 31.5904 9.87396 31.3749 9.78035 31.1725L9.75628 31.12L9.81245 31.099C10.4115 30.8651 10.8153 30.2607 10.8153 29.5959C10.8153 28.7104 10.1227 27.9904 9.26954 27.9904C9.11978 27.9904 8.96734 28.014 8.82292 28.0587L8.75071 28.0824V28.0062C8.74269 27.1758 8.04734 26.5005 7.20491 26.5005C6.36247 26.5005 5.6698 27.1732 5.65911 28.0009V28.0745L5.5869 28.0535C5.4398 28.0088 5.29004 27.9878 5.1376 27.9878C4.28446 27.9878 3.59179 28.6683 3.59179 29.5066C3.59179 30.1688 4.02237 30.7495 4.66423 30.9544L4.73109 30.9755L4.69365 31.0359C4.5519 31.2698 4.47702 31.5378 4.47702 31.8058C4.47702 32.6441 5.16969 33.3246 6.02282 33.3246C6.45073 33.3246 6.86526 33.146 7.15944 32.8333L7.20223 32.7886L7.19688 32.7912Z" fill="#434343"/>
        <path d="M8.3763 33.2011C7.97781 33.2011 7.60607 33.0409 7.33328 32.7518C7.26375 32.6782 7.13003 32.6782 7.06049 32.7518C6.78771 33.0409 6.41864 33.2011 6.01748 33.2011C5.23388 33.2011 4.60005 32.5758 4.60005 31.8085C4.60005 31.5615 4.66958 31.3171 4.79795 31.1016C4.82737 31.0543 4.83272 30.9965 4.81133 30.9439C4.78993 30.8914 4.74981 30.852 4.69365 30.8362C4.10528 30.6496 3.70947 30.1162 3.70947 29.5092C3.70947 28.7393 4.34598 28.1165 5.1269 28.1165C5.26597 28.1165 5.40504 28.1376 5.53876 28.177C5.59492 28.1927 5.65644 28.1822 5.7019 28.1507C5.74736 28.1165 5.77678 28.064 5.77678 28.0062C5.78481 27.2468 6.42131 26.6292 7.19421 26.6292C7.96712 26.6292 8.60362 27.2494 8.61165 28.0088C8.61165 28.0666 8.64107 28.1218 8.6892 28.1533C8.73734 28.1875 8.79885 28.1954 8.85502 28.1796C8.98874 28.1375 9.12513 28.1165 9.2642 28.1165C10.0478 28.1165 10.6816 28.7813 10.6816 29.5986C10.6816 30.2108 10.3126 30.7679 9.76164 30.9834C9.7135 31.0018 9.67606 31.0385 9.65734 31.0858C9.63862 31.1331 9.64129 31.1857 9.66001 31.2304C9.74827 31.4169 9.79106 31.6114 9.79106 31.8137C9.79106 32.5836 9.15455 33.2064 8.37362 33.2064L8.3763 33.2011ZM7.19689 32.6073C7.27177 32.6073 7.34398 32.6388 7.39479 32.694C7.65154 32.9673 7.99921 33.1171 8.37362 33.1171C9.10908 33.1171 9.70815 32.5285 9.70815 31.8085C9.70815 31.6193 9.66536 31.4353 9.58513 31.2619C9.55303 31.1962 9.55303 31.12 9.57978 31.0517C9.60652 30.9834 9.66268 30.9308 9.73222 30.9045C10.2511 30.7022 10.5987 30.1767 10.5987 29.5986C10.5987 28.8286 9.99966 28.2006 9.26687 28.2006C9.1385 28.2006 9.01013 28.2216 8.88444 28.2584C8.8042 28.2847 8.71327 28.2689 8.64374 28.2216C8.5742 28.1717 8.53141 28.0929 8.53141 28.0088C8.52339 27.2941 7.927 26.7107 7.19956 26.7107C6.47213 26.7107 5.87574 27.2914 5.86771 28.0035C5.86771 28.0876 5.82492 28.1665 5.75806 28.2138C5.68853 28.2637 5.60027 28.2768 5.52004 28.2532C5.39434 28.2164 5.2633 28.198 5.13493 28.198C4.39947 28.198 3.8004 28.7866 3.8004 29.5092C3.8004 30.0794 4.17214 30.5813 4.72574 30.7574C4.8033 30.781 4.86749 30.8388 4.89691 30.915C4.92632 30.9912 4.9183 31.0753 4.87819 31.1437C4.75784 31.346 4.69098 31.5746 4.69098 31.8085C4.69098 32.5311 5.29004 33.1171 6.0255 33.1171C6.39992 33.1171 6.74759 32.9673 7.00433 32.694C7.05515 32.6388 7.12735 32.6073 7.20224 32.6073H7.19689Z" fill="#434343"/>
        <path d="M7.19694 30.7758C6.76636 30.7758 6.41602 30.4315 6.41602 30.0085C6.41602 29.5854 6.76636 29.2412 7.19694 29.2412C7.62752 29.2412 7.97786 29.5854 7.97786 30.0085C7.97786 30.4315 7.62752 30.7758 7.19694 30.7758ZM7.19694 29.3542C6.83055 29.3542 6.53101 29.6485 6.53101 30.0085C6.53101 30.3685 6.83055 30.6628 7.19694 30.6628C7.56333 30.6628 7.86287 30.3685 7.86287 30.0085C7.86287 29.6485 7.56333 29.3542 7.19694 29.3542Z" fill="#434343"/>
        <path d="M7.17037 28.4292V29.3016C7.17037 29.3016 7.18909 29.3016 7.19979 29.3016C7.21049 29.3016 7.21851 29.3016 7.22921 29.3016V28.4292C7.33351 28.4161 7.41374 28.3294 7.41374 28.2216C7.41374 28.106 7.31747 28.0114 7.19979 28.0114C7.08212 28.0114 6.98584 28.106 6.98584 28.2216C6.98584 28.3294 7.06607 28.4161 7.17037 28.4292Z" fill="#434343"/>
        <path d="M6.53358 28.5685L6.88393 29.3699C6.89998 29.362 6.9187 29.3542 6.93742 29.3489L6.58707 28.5475C6.678 28.4949 6.71812 28.3819 6.67533 28.2847C6.62986 28.1769 6.50149 28.1296 6.39451 28.1743C6.28486 28.219 6.23673 28.3451 6.28219 28.4502C6.32498 28.5475 6.43463 28.5974 6.53626 28.5685H6.53358Z" fill="#434343"/>
        <path d="M5.58441 30.0426H6.47498C6.47498 30.0426 6.47498 30.0216 6.47498 30.0111C6.47498 30.0032 6.47498 29.9953 6.47498 29.9875H5.58441C5.57104 29.885 5.48278 29.8062 5.37313 29.8062C5.25546 29.8062 5.15918 29.9008 5.15918 30.0164C5.15918 30.132 5.25546 30.2266 5.37313 30.2266C5.48278 30.2266 5.57104 30.1478 5.58441 30.0453V30.0426Z" fill="#434343"/>
        <path d="M5.40239 29.6222C5.50402 29.6564 5.61634 29.6117 5.66181 29.5171L6.50157 29.8035C6.50692 29.7851 6.51227 29.7667 6.52029 29.751L5.68053 29.4646C5.70192 29.3621 5.64576 29.2596 5.54146 29.2228C5.42913 29.1834 5.30879 29.2438 5.26867 29.3516C5.22856 29.4593 5.29007 29.5802 5.39972 29.6196L5.40239 29.6222Z" fill="#434343"/>
        <path d="M7.69436 28.5054L7.4082 29.3305C7.42692 29.3358 7.44297 29.3437 7.46169 29.3489L7.74785 28.5238C7.85215 28.5448 7.95645 28.487 7.99122 28.3872C8.02866 28.2768 7.96983 28.1586 7.8575 28.1192C7.74518 28.0824 7.62483 28.1402 7.58471 28.2505C7.54995 28.3504 7.59809 28.4608 7.69169 28.5054H7.69436Z" fill="#434343"/>
        <path d="M8.60903 29.2491L7.82275 29.6564C7.83345 29.6721 7.84147 29.6879 7.8495 29.7063L8.63577 29.2964C8.69728 29.3804 8.81228 29.4094 8.90856 29.3594C9.01286 29.3042 9.05298 29.1781 8.99681 29.0756C8.94065 28.9732 8.81228 28.9337 8.70798 28.9889C8.6117 29.0388 8.57159 29.1492 8.60903 29.2464V29.2491Z" fill="#434343"/>
        <path d="M7.69189 29.4908C7.70527 29.5039 7.71864 29.5171 7.73201 29.5302L8.36049 28.9127C8.4434 28.9758 8.56375 28.9705 8.64131 28.8943C8.72421 28.8129 8.72421 28.6788 8.64131 28.5974C8.5584 28.5159 8.42201 28.5159 8.3391 28.5974C8.26154 28.6736 8.25619 28.7918 8.32038 28.8733L7.69189 29.4908Z" fill="#434343"/>
        <path d="M6.03635 28.9127L6.66483 29.5302C6.67821 29.5171 6.69158 29.5039 6.70495 29.4908L6.07647 28.8733C6.14065 28.7918 6.1353 28.6736 6.05775 28.5974C5.97484 28.5159 5.83845 28.5159 5.75554 28.5974C5.67263 28.6788 5.67263 28.8129 5.75554 28.8943C5.8331 28.9705 5.95344 28.9758 6.03635 28.9127Z" fill="#434343"/>
        <path d="M8.99167 30.4053C8.89004 30.3711 8.77772 30.4158 8.73225 30.5104L7.88981 30.2213C7.88447 30.2397 7.87644 30.2555 7.87109 30.2739L8.71353 30.5629C8.69213 30.6654 8.7483 30.7679 8.8526 30.8047C8.96492 30.8441 9.08527 30.7836 9.12539 30.6759C9.1655 30.5655 9.10399 30.4473 8.99434 30.4079L8.99167 30.4053Z" fill="#434343"/>
        <path d="M8.35754 31.1147L7.72371 30.492C7.71034 30.5051 7.69697 30.5183 7.68359 30.5314L8.31743 31.1542C8.25324 31.2356 8.25859 31.3539 8.33615 31.4301C8.41905 31.5115 8.55545 31.5115 8.63835 31.4301C8.72126 31.3486 8.72126 31.2146 8.63835 31.1331C8.5608 31.0569 8.44045 31.0517 8.35754 31.1147Z" fill="#434343"/>
        <path d="M7.86012 31.459L7.5071 30.6496C7.49105 30.6575 7.47233 30.6654 7.45361 30.6706L7.80663 31.48C7.7157 31.5325 7.67559 31.6455 7.71838 31.7428C7.76384 31.8505 7.89221 31.8978 7.99919 31.8531C8.10617 31.8084 8.15698 31.6823 8.11152 31.5772C8.06872 31.48 7.95907 31.4301 7.85745 31.459H7.86012Z" fill="#434343"/>
        <path d="M9.02373 29.8035C8.91408 29.8035 8.82582 29.8823 8.81245 29.9848H7.92188C7.92188 29.9848 7.92188 30.0006 7.92188 30.0085C7.92188 30.019 7.92188 30.0295 7.92188 30.04H8.81245C8.82582 30.1425 8.91408 30.2213 9.02373 30.2213C9.1414 30.2213 9.23768 30.1267 9.23768 30.0111C9.23768 29.8955 9.1414 29.8009 9.02373 29.8009V29.8035Z" fill="#434343"/>
        <path d="M7.22628 31.6009V30.7206C7.22628 30.7206 7.20756 30.7206 7.19686 30.7206C7.18616 30.7206 7.17814 30.7206 7.16744 30.7206V31.6009C7.06314 31.614 6.98291 31.7007 6.98291 31.8085C6.98291 31.9241 7.07919 32.0187 7.19686 32.0187C7.31454 32.0187 7.41081 31.9241 7.41081 31.8085C7.41081 31.7007 7.33058 31.614 7.22628 31.6009Z" fill="#434343"/>
        <path d="M6.7103 30.534C6.69693 30.5209 6.68356 30.5077 6.67018 30.4946L6.03635 31.1174C5.95344 31.0543 5.8331 31.0596 5.75554 31.1358C5.67263 31.2172 5.67263 31.3512 5.75554 31.4327C5.83845 31.5142 5.97484 31.5142 6.05775 31.4327C6.1353 31.3565 6.14065 31.2382 6.07647 31.1568L6.7103 30.534Z" fill="#434343"/>
        <path d="M6.70216 31.5247L6.99099 30.6917C6.97227 30.6864 6.95355 30.6812 6.93751 30.6733L6.64867 31.5063C6.54437 31.4852 6.44007 31.543 6.4053 31.6429C6.36786 31.7533 6.4267 31.8715 6.53902 31.9109C6.65135 31.9477 6.77169 31.8899 6.81181 31.7795C6.84658 31.6797 6.79844 31.5693 6.70483 31.5247H6.70216Z" fill="#434343"/>
        <path d="M5.7848 30.781L6.57375 30.3711C6.56305 30.3553 6.55503 30.3396 6.54701 30.3212L5.75806 30.7311C5.69655 30.647 5.58155 30.6181 5.48527 30.668C5.38097 30.7232 5.34085 30.8493 5.39701 30.9518C5.45318 31.0543 5.58155 31.0937 5.68585 31.0385C5.78213 30.9886 5.82224 30.8782 5.7848 30.781Z" fill="#434343"/>
        <path d="M13.4949 44.7998C13.0537 44.7998 12.6284 44.6238 12.3182 44.3163C12.008 44.6238 11.5801 44.7998 11.1415 44.7998C10.2268 44.7998 9.48067 44.0667 9.48067 43.168C9.48067 42.9 9.54753 42.6372 9.67858 42.4007C9.02603 42.1643 8.59277 41.5573 8.59277 40.8688C8.59277 39.9701 9.33893 39.237 10.2536 39.237C10.3926 39.237 10.529 39.2527 10.6628 39.2869C10.7109 38.4329 11.441 37.7471 12.3209 37.7471C13.2008 37.7471 13.9309 38.4329 13.979 39.2895C14.1127 39.2554 14.2518 39.237 14.3882 39.237C15.3028 39.237 16.049 40.0069 16.049 40.9555C16.049 41.644 15.6425 42.272 15.0301 42.54C15.1156 42.7424 15.1584 42.9526 15.1584 43.168C15.1584 44.0667 14.4123 44.7998 13.4976 44.7998H13.4949ZM12.3182 44.1534L12.361 44.1981C12.6552 44.5108 13.067 44.6895 13.4976 44.6895C14.3508 44.6895 15.0434 44.0089 15.0434 43.1707C15.0434 42.9526 14.9953 42.7371 14.9017 42.5348L14.8776 42.4822L14.9338 42.4612C15.5328 42.2273 15.9367 41.6229 15.9367 40.9581C15.9367 40.0726 15.244 39.3526 14.3909 39.3526C14.2411 39.3526 14.0887 39.3763 13.9442 39.4209L13.872 39.4446V39.3684C13.864 38.538 13.1687 37.8627 12.3262 37.8627C11.4838 37.8627 10.7911 38.5354 10.7804 39.3631V39.4367L10.7082 39.4157C10.5611 39.371 10.4114 39.35 10.2589 39.35C9.40579 39.35 8.71312 40.0306 8.71312 40.8688C8.71312 41.531 9.1437 42.1117 9.78556 42.3167L9.85242 42.3377L9.81497 42.3981C9.67323 42.632 9.59835 42.9 9.59835 43.168C9.59835 44.0063 10.291 44.6869 11.1441 44.6869C11.5721 44.6869 11.9866 44.5082 12.2808 44.1955L12.3236 44.1508L12.3182 44.1534Z" fill="#434343"/>
        <path d="M13.495 44.5634C13.0965 44.5634 12.7247 44.4031 12.4519 44.114C12.3824 44.0404 12.2487 44.0404 12.1791 44.114C11.9064 44.4031 11.5373 44.5634 11.1361 44.5634C10.3525 44.5634 9.7187 43.938 9.7187 43.1707C9.7187 42.9237 9.78824 42.6793 9.91661 42.4638C9.94602 42.4165 9.95137 42.3587 9.92998 42.3062C9.90858 42.2536 9.86847 42.2142 9.8123 42.1984C9.22394 42.0119 8.82812 41.4784 8.82812 40.8714C8.82812 40.1015 9.46463 39.4787 10.2456 39.4787C10.3846 39.4787 10.5237 39.4998 10.6574 39.5392C10.7136 39.5549 10.7751 39.5444 10.8206 39.5129C10.866 39.4787 10.8954 39.4262 10.8954 39.3684C10.9035 38.609 11.54 37.9915 12.3129 37.9915C13.0858 37.9915 13.7223 38.6116 13.7303 39.371C13.7303 39.4288 13.7597 39.484 13.8079 39.5155C13.856 39.5497 13.9175 39.5576 13.9737 39.5418C14.1074 39.4998 14.2438 39.4787 14.3829 39.4787C15.1665 39.4787 15.8003 40.1436 15.8003 40.9608C15.8003 41.573 15.4312 42.1301 14.8803 42.3456C14.8322 42.364 14.7947 42.4008 14.776 42.4481C14.7573 42.4953 14.7599 42.5479 14.7787 42.5926C14.8669 42.7791 14.9097 42.9736 14.9097 43.1759C14.9097 43.9458 14.2732 44.5686 13.4923 44.5686L13.495 44.5634ZM12.3182 43.9695C12.3931 43.9695 12.4653 44.001 12.5161 44.0562C12.7729 44.3295 13.1205 44.4793 13.495 44.4793C14.2304 44.4793 14.8295 43.8907 14.8295 43.1707C14.8295 42.9815 14.7867 42.7975 14.7065 42.6241C14.6744 42.5584 14.6744 42.4822 14.7011 42.4139C14.7278 42.3456 14.784 42.293 14.8535 42.2667C15.3724 42.0644 15.7201 41.5389 15.7201 40.9608C15.7201 40.1909 15.121 39.5628 14.3882 39.5628C14.2598 39.5628 14.1315 39.5838 14.0058 39.6206C13.9255 39.6469 13.8346 39.6311 13.7651 39.5838C13.6955 39.5339 13.6527 39.4551 13.6527 39.371C13.6447 38.6563 13.0483 38.0729 12.3209 38.0729C11.5935 38.0729 10.9971 38.6536 10.989 39.3657C10.989 39.4498 10.9462 39.5287 10.8794 39.576C10.8099 39.6259 10.7216 39.639 10.6414 39.6154C10.5157 39.5786 10.3846 39.5602 10.2563 39.5602C9.52079 39.5602 8.92173 40.1488 8.92173 40.8714C8.92173 41.4416 9.29347 41.9435 9.84707 42.1196C9.92463 42.1432 9.98881 42.201 10.0182 42.2773C10.0477 42.3535 10.0396 42.4375 9.99951 42.5059C9.87916 42.7082 9.8123 42.9368 9.8123 43.1707C9.8123 43.8933 10.4114 44.4793 11.1468 44.4793C11.5212 44.4793 11.8689 44.3295 12.1257 44.0562C12.1765 44.001 12.2487 43.9695 12.3236 43.9695H12.3182Z" fill="#434343"/>
        <path d="M12.318 42.138C11.8875 42.138 11.5371 41.7937 11.5371 41.3707C11.5371 40.9476 11.8875 40.6034 12.318 40.6034C12.7486 40.6034 13.099 40.9476 13.099 41.3707C13.099 41.7937 12.7486 42.138 12.318 42.138ZM12.318 40.7164C11.9516 40.7164 11.6521 41.0107 11.6521 41.3707C11.6521 41.7307 11.9516 42.025 12.318 42.025C12.6844 42.025 12.984 41.7307 12.984 41.3707C12.984 41.0107 12.6844 40.7164 12.318 40.7164Z" fill="#434343"/>
        <path d="M12.289 39.7888V40.6612C12.289 40.6612 12.3077 40.6612 12.3184 40.6612C12.3291 40.6612 12.3372 40.6612 12.3479 40.6612V39.7888C12.4522 39.7757 12.5324 39.689 12.5324 39.5812C12.5324 39.4656 12.4361 39.371 12.3184 39.371C12.2008 39.371 12.1045 39.4656 12.1045 39.5812C12.1045 39.689 12.1847 39.7757 12.289 39.7888Z" fill="#434343"/>
        <path d="M11.6552 39.9307L12.0055 40.7322C12.0216 40.7243 12.0403 40.7164 12.059 40.7111L11.7087 39.9097C11.7996 39.8571 11.8397 39.7442 11.7969 39.6469C11.7514 39.5392 11.6231 39.4919 11.5161 39.5366C11.4064 39.5812 11.3583 39.7074 11.4038 39.8125C11.4466 39.9097 11.5562 39.9596 11.6578 39.9307H11.6552Z" fill="#434343"/>
        <path d="M10.7031 41.4022H11.5936C11.5936 41.4022 11.5936 41.3812 11.5936 41.3707C11.5936 41.3628 11.5936 41.3549 11.5936 41.3471H10.7031C10.6897 41.2446 10.6014 41.1657 10.4918 41.1657C10.3741 41.1657 10.2778 41.2603 10.2778 41.376C10.2778 41.4916 10.3741 41.5862 10.4918 41.5862C10.6014 41.5862 10.6897 41.5073 10.7031 41.4049V41.4022Z" fill="#434343"/>
        <path d="M10.524 40.9844C10.6256 41.0186 10.7379 40.9739 10.7834 40.8793L11.6232 41.1657C11.6285 41.1473 11.6338 41.129 11.6419 41.1132L10.8021 40.8268C10.8235 40.7243 10.7673 40.6218 10.663 40.585C10.5507 40.5456 10.4304 40.606 10.3903 40.7138C10.3501 40.8215 10.4116 40.9424 10.5213 40.9818L10.524 40.9844Z" fill="#434343"/>
        <path d="M12.813 39.865L12.5269 40.6901C12.5456 40.6954 12.5616 40.7033 12.5803 40.7085L12.8665 39.8834C12.9708 39.9044 13.0751 39.8466 13.1099 39.7468C13.1473 39.6364 13.0885 39.5182 12.9762 39.4787C12.8638 39.442 12.7435 39.4998 12.7034 39.6101C12.6686 39.71 12.7167 39.8203 12.8103 39.865H12.813Z" fill="#434343"/>
        <path d="M13.7306 40.6086L12.9443 41.0159C12.955 41.0317 12.9631 41.0475 12.9711 41.0659L13.7574 40.6559C13.8189 40.74 13.9339 40.7689 14.0301 40.719C14.1344 40.6638 14.1746 40.5377 14.1184 40.4352C14.0622 40.3327 13.9339 40.2933 13.8296 40.3485C13.7333 40.3984 13.6932 40.5088 13.7306 40.606V40.6086Z" fill="#434343"/>
        <path d="M12.8105 40.8504C12.8239 40.8635 12.8373 40.8767 12.8507 40.8898L13.4791 40.2723C13.5621 40.3354 13.6824 40.3301 13.76 40.2539C13.8429 40.1724 13.8429 40.0384 13.76 39.957C13.6771 39.8755 13.5407 39.8755 13.4578 39.957C13.3802 40.0332 13.3748 40.1514 13.439 40.2329L12.8105 40.8504Z" fill="#434343"/>
        <path d="M11.155 40.2749L11.7835 40.8925C11.7969 40.8793 11.8102 40.8662 11.8236 40.853L11.1951 40.2355C11.2593 40.1541 11.254 40.0358 11.1764 39.9596C11.0935 39.8782 10.9571 39.8782 10.8742 39.9596C10.7913 40.0411 10.7913 40.1751 10.8742 40.2566C10.9517 40.3328 11.0721 40.338 11.155 40.2749Z" fill="#434343"/>
        <path d="M14.1103 41.7675C14.0087 41.7333 13.8964 41.778 13.8509 41.8726L13.0085 41.5835C13.0031 41.6019 12.9951 41.6177 12.9897 41.6361L13.8322 41.9251C13.8108 42.0276 13.8669 42.1301 13.9713 42.1669C14.0836 42.2063 14.2039 42.1459 14.244 42.0381C14.2842 41.9278 14.2226 41.8095 14.113 41.7701L14.1103 41.7675Z" fill="#434343"/>
        <path d="M13.4791 42.477L12.8453 41.8542C12.8319 41.8673 12.8185 41.8805 12.8052 41.8936L13.439 42.5164C13.3748 42.5978 13.3802 42.7161 13.4577 42.7923C13.5406 42.8737 13.677 42.8737 13.7599 42.7923C13.8428 42.7108 13.8428 42.5768 13.7599 42.4953C13.6824 42.4191 13.562 42.4139 13.4791 42.477Z" fill="#434343"/>
        <path d="M12.9817 42.8212L12.6287 42.0118C12.6126 42.0197 12.5939 42.0276 12.5752 42.0329L12.9282 42.8422C12.8373 42.8947 12.7972 43.0077 12.84 43.105C12.8854 43.2127 13.0138 43.26 13.1208 43.2153C13.2277 43.1707 13.2786 43.0445 13.2331 42.9394C13.1903 42.8422 13.0807 42.7923 12.979 42.8212H12.9817Z" fill="#434343"/>
        <path d="M14.1424 41.1657C14.0327 41.1657 13.9445 41.2445 13.9311 41.347H13.0405C13.0405 41.347 13.0405 41.3628 13.0405 41.3707C13.0405 41.3812 13.0405 41.3917 13.0405 41.4022H13.9311C13.9445 41.5047 14.0327 41.5835 14.1424 41.5835C14.2601 41.5835 14.3563 41.4889 14.3563 41.3733C14.3563 41.2577 14.2601 41.1631 14.1424 41.1631V41.1657Z" fill="#434343"/>
        <path d="M12.3449 42.9605V42.0802C12.3449 42.0802 12.3262 42.0802 12.3155 42.0802C12.3048 42.0802 12.2968 42.0802 12.2861 42.0802V42.9605C12.1818 42.9736 12.1016 43.0603 12.1016 43.168C12.1016 43.2837 12.1978 43.3783 12.3155 43.3783C12.4332 43.3783 12.5295 43.2837 12.5295 43.168C12.5295 43.0603 12.4492 42.9736 12.3449 42.9605Z" fill="#434343"/>
        <path d="M11.829 41.8936C11.8156 41.8805 11.8022 41.8673 11.7888 41.8542L11.155 42.477C11.0721 42.4139 10.9517 42.4191 10.8742 42.4953C10.7913 42.5768 10.7913 42.7108 10.8742 42.7923C10.9571 42.8737 11.0935 42.8737 11.1764 42.7923C11.254 42.7161 11.2593 42.5978 11.1951 42.5164L11.829 41.8936Z" fill="#434343"/>
        <path d="M11.8208 42.8842L12.1096 42.0513C12.0909 42.046 12.0722 42.0408 12.0562 42.0329L11.7673 42.8659C11.663 42.8448 11.5587 42.9026 11.524 43.0025C11.4865 43.1129 11.5453 43.2311 11.6577 43.2705C11.77 43.3073 11.8903 43.2495 11.9305 43.1391C11.9652 43.0393 11.9171 42.9289 11.8235 42.8842H11.8208Z" fill="#434343"/>
        <path d="M10.9035 42.1432L11.6924 41.7333C11.6817 41.7175 11.6737 41.7018 11.6657 41.6834L10.8767 42.0933C10.8152 42.0092 10.7002 41.9803 10.6039 42.0302C10.4996 42.0854 10.4595 42.2115 10.5157 42.314C10.5718 42.4165 10.7002 42.4559 10.8045 42.4007C10.9008 42.3508 10.9409 42.2405 10.9035 42.1432Z" fill="#434343"/>
        <path d="M89.1937 33.4376C88.7524 33.4376 88.3272 33.2616 88.0169 32.9541C87.7067 33.2616 87.2788 33.4376 86.8402 33.4376C85.9256 33.4376 85.1794 32.7045 85.1794 31.8058C85.1794 31.5378 85.2463 31.275 85.3773 31.0385C84.7248 30.802 84.2915 30.195 84.2915 29.5066C84.2915 28.6079 85.0377 27.8748 85.9523 27.8748C86.0914 27.8748 86.2278 27.8905 86.3615 27.9247C86.4096 27.0707 87.1397 26.3849 88.0196 26.3849C88.8995 26.3849 89.6296 27.0707 89.6777 27.9273C89.8115 27.8932 89.9505 27.8748 90.0869 27.8748C91.0016 27.8748 91.7477 28.6447 91.7477 29.5933C91.7477 30.2818 91.3412 30.9098 90.7288 31.1778C90.8144 31.3801 90.8572 31.5904 90.8572 31.8058C90.8572 32.7045 90.111 33.4376 89.1964 33.4376H89.1937ZM88.0143 32.7912L88.0571 32.8359C88.3512 33.1486 88.7631 33.3273 89.1937 33.3273C90.0468 33.3273 90.7395 32.6467 90.7395 31.8085C90.7395 31.5904 90.6913 31.3749 90.5977 31.1725L90.5737 31.12L90.6298 31.099C91.2289 30.8651 91.6327 30.2607 91.6327 29.5959C91.6327 28.7104 90.9401 27.9904 90.0869 27.9904C89.9372 27.9904 89.7847 28.014 89.6403 28.0587L89.5681 28.0824V28.0062C89.5601 27.1758 88.8647 26.5005 88.0223 26.5005C87.1799 26.5005 86.4872 27.1732 86.4765 28.0009V28.0745L86.4043 28.0535C86.2572 28.0088 86.1074 27.9878 85.955 27.9878C85.1018 27.9878 84.4092 28.6683 84.4092 29.5066C84.4092 30.1688 84.8398 30.7495 85.4816 30.9544L85.5485 30.9755L85.511 31.0359C85.3693 31.2698 85.2944 31.5378 85.2944 31.8058C85.2944 32.6441 85.9871 33.3246 86.8402 33.3246C87.2681 33.3246 87.6826 33.146 87.9768 32.8333L88.0196 32.7886L88.0143 32.7912Z" fill="#434343"/>
        <path d="M89.1937 33.2011C88.7952 33.2011 88.4235 33.0409 88.1507 32.7518C88.0811 32.6782 87.9474 32.6782 87.8779 32.7518C87.6051 33.0409 87.236 33.2011 86.8349 33.2011C86.0513 33.2011 85.4174 32.5758 85.4174 31.8085C85.4174 31.5615 85.487 31.3171 85.6153 31.1016C85.6448 31.0543 85.6501 30.9965 85.6287 30.9439C85.6073 30.8914 85.5672 30.852 85.511 30.8362C84.9227 30.6496 84.5269 30.1162 84.5269 29.5092C84.5269 28.7393 85.1634 28.1165 85.9443 28.1165C86.0834 28.1165 86.2224 28.1376 86.3561 28.177C86.4123 28.1927 86.4738 28.1822 86.5193 28.1507C86.5648 28.1165 86.5942 28.064 86.5942 28.0062C86.6022 27.2468 87.2387 26.6292 88.0116 26.6292C88.7845 26.6292 89.421 27.2494 89.429 28.0088C89.429 28.0666 89.4584 28.1218 89.5066 28.1533C89.5547 28.1875 89.6162 28.1954 89.6724 28.1796C89.8061 28.1375 89.9425 28.1165 90.0816 28.1165C90.8652 28.1165 91.499 28.7813 91.499 29.5986C91.499 30.2108 91.1299 30.7679 90.579 30.9834C90.5309 31.0018 90.4934 31.0385 90.4747 31.0858C90.456 31.1331 90.4587 31.1857 90.4774 31.2304C90.5656 31.4169 90.6084 31.6114 90.6084 31.8137C90.6084 32.5836 89.9719 33.2064 89.191 33.2064L89.1937 33.2011ZM88.0143 32.6073C88.0892 32.6073 88.1614 32.6388 88.2122 32.694C88.4689 32.9673 88.8166 33.1171 89.191 33.1171C89.9265 33.1171 90.5255 32.5285 90.5255 31.8085C90.5255 31.6193 90.4827 31.4353 90.4025 31.2619C90.3704 31.1962 90.3704 31.12 90.3972 31.0517C90.4239 30.9834 90.4801 30.9308 90.5496 30.9045C91.0684 30.7022 91.4161 30.1767 91.4161 29.5986C91.4161 28.8286 90.817 28.2006 90.0843 28.2006C89.9559 28.2006 89.8275 28.2216 89.7018 28.2584C89.6216 28.2847 89.5307 28.2689 89.4611 28.2216C89.3916 28.1717 89.3488 28.0929 89.3488 28.0088C89.3408 27.2941 88.7444 26.7107 88.0169 26.7107C87.2895 26.7107 86.6931 27.2914 86.6851 28.0035C86.6851 28.0876 86.6423 28.1665 86.5754 28.2138C86.5059 28.2637 86.4177 28.2768 86.3374 28.2532C86.2117 28.2164 86.0807 28.198 85.9523 28.198C85.2169 28.198 84.6178 28.7866 84.6178 29.5092C84.6178 30.0794 84.9895 30.5813 85.5431 30.7574C85.6207 30.781 85.6849 30.8388 85.7143 30.915C85.7437 30.9912 85.7357 31.0753 85.6956 31.1437C85.5752 31.346 85.5084 31.5746 85.5084 31.8085C85.5084 32.5311 86.1074 33.1171 86.8429 33.1171C87.2173 33.1171 87.565 32.9673 87.8217 32.694C87.8725 32.6388 87.9447 32.6073 88.0196 32.6073H88.0143Z" fill="#434343"/>
        <path d="M88.0143 30.7758C87.5837 30.7758 87.2334 30.4315 87.2334 30.0085C87.2334 29.5854 87.5837 29.2412 88.0143 29.2412C88.4449 29.2412 88.7952 29.5854 88.7952 30.0085C88.7952 30.4315 88.4449 30.7758 88.0143 30.7758ZM88.0143 29.3542C87.6479 29.3542 87.3484 29.6485 87.3484 30.0085C87.3484 30.3685 87.6479 30.6628 88.0143 30.6628C88.3807 30.6628 88.6802 30.3685 88.6802 30.0085C88.6802 29.6485 88.3807 29.3542 88.0143 29.3542Z" fill="#434343"/>
        <path d="M87.9878 28.4292V29.3016C87.9878 29.3016 88.0065 29.3016 88.0172 29.3016C88.0279 29.3016 88.0359 29.3016 88.0466 29.3016V28.4292C88.1509 28.4161 88.2311 28.3294 88.2311 28.2216C88.2311 28.106 88.1348 28.0114 88.0172 28.0114C87.8995 28.0114 87.8032 28.106 87.8032 28.2216C87.8032 28.3294 87.8835 28.4161 87.9878 28.4292Z" fill="#434343"/>
        <path d="M87.351 28.5685L87.7013 29.3699C87.7174 29.362 87.7361 29.3542 87.7548 29.3489L87.4045 28.5475C87.4954 28.4949 87.5355 28.3819 87.4927 28.2847C87.4472 28.1769 87.3189 28.1296 87.2119 28.1743C87.1023 28.219 87.0541 28.3451 87.0996 28.4502C87.1424 28.5475 87.252 28.5974 87.3536 28.5685H87.351Z" fill="#434343"/>
        <path d="M86.4018 30.0426H87.2924C87.2924 30.0426 87.2924 30.0216 87.2924 30.0111C87.2924 30.0032 87.2924 29.9953 87.2924 29.9875H86.4018C86.3884 29.885 86.3002 29.8062 86.1905 29.8062C86.0728 29.8062 85.9766 29.9008 85.9766 30.0164C85.9766 30.132 86.0728 30.2266 86.1905 30.2266C86.3002 30.2266 86.3884 30.1478 86.4018 30.0453V30.0426Z" fill="#434343"/>
        <path d="M86.2227 29.6222C86.3243 29.6564 86.4367 29.6117 86.4821 29.5171L87.3219 29.8035C87.3272 29.7851 87.3326 29.7667 87.3406 29.751L86.5008 29.4646C86.5222 29.3621 86.4661 29.2596 86.3618 29.2228C86.2495 29.1834 86.1291 29.2438 86.089 29.3516C86.0489 29.4593 86.1104 29.5802 86.22 29.6196L86.2227 29.6222Z" fill="#434343"/>
        <path d="M88.5117 28.5054L88.2256 29.3305C88.2443 29.3358 88.2603 29.3437 88.2791 29.3489L88.5652 28.5238C88.6695 28.5448 88.7738 28.487 88.8086 28.3872C88.846 28.2768 88.7872 28.1586 88.6749 28.1192C88.5626 28.0824 88.4422 28.1402 88.4021 28.2505C88.3673 28.3504 88.4155 28.4608 88.5091 28.5054H88.5117Z" fill="#434343"/>
        <path d="M89.4293 29.2491L88.6431 29.6564C88.6538 29.6721 88.6618 29.6879 88.6698 29.7063L89.4561 29.2964C89.5176 29.3804 89.6326 29.4094 89.7289 29.3594C89.8332 29.3042 89.8733 29.1781 89.8171 29.0756C89.761 28.9732 89.6326 28.9337 89.5283 28.9889C89.432 29.0388 89.3919 29.1492 89.4293 29.2464V29.2491Z" fill="#434343"/>
        <path d="M88.5093 29.4908C88.5226 29.5039 88.536 29.5171 88.5494 29.5302L89.1779 28.9127C89.2608 28.9758 89.3811 28.9705 89.4587 28.8943C89.5416 28.8129 89.5416 28.6788 89.4587 28.5974C89.3758 28.5159 89.2394 28.5159 89.1565 28.5974C89.0789 28.6736 89.0736 28.7918 89.1378 28.8733L88.5093 29.4908Z" fill="#434343"/>
        <path d="M86.8537 28.9127L87.4822 29.5302C87.4956 29.5171 87.509 29.5039 87.5223 29.4908L86.8939 28.8733C86.958 28.7918 86.9527 28.6736 86.8751 28.5974C86.7922 28.5159 86.6558 28.5159 86.5729 28.5974C86.49 28.6788 86.49 28.8129 86.5729 28.8943C86.6505 28.9705 86.7708 28.9758 86.8537 28.9127Z" fill="#434343"/>
        <path d="M89.8091 30.4053C89.7074 30.3711 89.5951 30.4158 89.5496 30.5104L88.7072 30.2213C88.7019 30.2397 88.6938 30.2555 88.6885 30.2739L89.5309 30.5629C89.5095 30.6654 89.5657 30.7679 89.67 30.8047C89.7823 30.8441 89.9027 30.7836 89.9428 30.6759C89.9829 30.5655 89.9214 30.4473 89.8117 30.4079L89.8091 30.4053Z" fill="#434343"/>
        <path d="M89.1779 31.1147L88.544 30.492C88.5306 30.5051 88.5173 30.5183 88.5039 30.5314L89.1377 31.1542C89.0736 31.2356 89.0789 31.3539 89.1565 31.4301C89.2394 31.5115 89.3758 31.5115 89.4587 31.4301C89.5416 31.3486 89.5416 31.2146 89.4587 31.1331C89.3811 31.0569 89.2608 31.0517 89.1779 31.1147Z" fill="#434343"/>
        <path d="M88.6775 31.459L88.3245 30.6496C88.3084 30.6575 88.2897 30.6654 88.271 30.6706L88.624 31.48C88.5331 31.5325 88.493 31.6455 88.5358 31.7428C88.5812 31.8505 88.7096 31.8978 88.8166 31.8531C88.9236 31.8084 88.9744 31.6823 88.9289 31.5772C88.8861 31.48 88.7765 31.4301 88.6748 31.459H88.6775Z" fill="#434343"/>
        <path d="M89.8411 29.8035C89.7315 29.8035 89.6432 29.8823 89.6298 29.9848H88.7393C88.7393 29.9848 88.7393 30.0006 88.7393 30.0085C88.7393 30.019 88.7393 30.0295 88.7393 30.04H89.6298C89.6432 30.1425 89.7315 30.2213 89.8411 30.2213C89.9588 30.2213 90.0551 30.1267 90.0551 30.0111C90.0551 29.8955 89.9588 29.8009 89.8411 29.8009V29.8035Z" fill="#434343"/>
        <path d="M88.0437 31.6009V30.7206C88.0437 30.7206 88.0249 30.7206 88.0142 30.7206C88.0036 30.7206 87.9955 30.7206 87.9848 30.7206V31.6009C87.8805 31.614 87.8003 31.7007 87.8003 31.8085C87.8003 31.9241 87.8966 32.0187 88.0142 32.0187C88.1319 32.0187 88.2282 31.9241 88.2282 31.8085C88.2282 31.7007 88.148 31.614 88.0437 31.6009Z" fill="#434343"/>
        <path d="M87.5277 30.534C87.5143 30.5209 87.5009 30.5077 87.4876 30.4946L86.8537 31.1174C86.7708 31.0543 86.6505 31.0596 86.5729 31.1358C86.49 31.2172 86.49 31.3512 86.5729 31.4327C86.6558 31.5142 86.7922 31.5142 86.8751 31.4327C86.9527 31.3565 86.958 31.2382 86.8939 31.1568L87.5277 30.534Z" fill="#434343"/>
        <path d="M87.5195 31.5247L87.8084 30.6917C87.7896 30.6864 87.7709 30.6812 87.7549 30.6733L87.466 31.5063C87.3617 31.4852 87.2575 31.543 87.2227 31.6429C87.1852 31.7533 87.2441 31.8715 87.3564 31.9109C87.4687 31.9477 87.5891 31.8899 87.6292 31.7795C87.664 31.6797 87.6158 31.5693 87.5222 31.5247H87.5195Z" fill="#434343"/>
        <path d="M86.6022 30.781L87.3911 30.3711C87.3804 30.3553 87.3724 30.3396 87.3644 30.3212L86.5754 30.7311C86.5139 30.647 86.3989 30.6181 86.3027 30.668C86.1984 30.7232 86.1582 30.8493 86.2144 30.9518C86.2706 31.0543 86.3989 31.0937 86.5032 31.0385C86.5995 30.9886 86.6396 30.8782 86.6022 30.781Z" fill="#434343"/>
        <path d="M84.2542 44.1009C83.813 44.1009 83.3877 43.9248 83.0775 43.6174C82.7673 43.9248 82.3394 44.1009 81.9008 44.1009C80.9861 44.1009 80.24 43.3677 80.24 42.4691C80.24 42.201 80.3068 41.9383 80.4379 41.7018C79.7853 41.4653 79.3521 40.8583 79.3521 40.1698C79.3521 39.2711 80.0982 38.538 81.0129 38.538C81.1519 38.538 81.2883 38.5538 81.422 38.5879C81.4702 37.7339 82.2003 37.0481 83.0802 37.0481C83.96 37.0481 84.6902 37.7339 84.7383 38.5906C84.872 38.5564 85.0111 38.538 85.1475 38.538C86.0621 38.538 86.8083 39.3079 86.8083 40.2565C86.8083 40.945 86.4018 41.573 85.7893 41.841C85.8749 42.0434 85.9177 42.2536 85.9177 42.4691C85.9177 43.3677 85.1715 44.1009 84.2569 44.1009H84.2542ZM83.0748 43.4545L83.1176 43.4991C83.4118 43.8118 83.8237 43.9905 84.2542 43.9905C85.1074 43.9905 85.8 43.3099 85.8 42.4717C85.8 42.2536 85.7519 42.0381 85.6583 41.8358L85.6342 41.7832L85.6904 41.7622C86.2894 41.5283 86.6933 40.924 86.6933 40.2592C86.6933 39.3736 86.0006 38.6536 85.1475 38.6536C84.9977 38.6536 84.8453 38.6773 84.7008 38.7219L84.6286 38.7456V38.6694C84.6206 37.839 83.9253 37.1637 83.0828 37.1637C82.2404 37.1637 81.5477 37.8364 81.537 38.6641V38.7377L81.4648 38.7167C81.3177 38.672 81.168 38.651 81.0155 38.651C80.1624 38.651 79.4697 39.3316 79.4697 40.1698C79.4697 40.832 79.9003 41.4127 80.5422 41.6177L80.609 41.6387L80.5716 41.6991C80.4298 41.933 80.355 42.201 80.355 42.4691C80.355 43.3073 81.0476 43.9879 81.9008 43.9879C82.3287 43.9879 82.7432 43.8092 83.0374 43.4965L83.0802 43.4518L83.0748 43.4545Z" fill="#434343"/>
        <path d="M84.2542 43.8644C83.8557 43.8644 83.484 43.7041 83.2112 43.415C83.1417 43.3415 83.008 43.3415 82.9384 43.415C82.6656 43.7041 82.2966 43.8644 81.8954 43.8644C81.1118 43.8644 80.478 43.239 80.478 42.4717C80.478 42.2247 80.5475 41.9803 80.6759 41.7648C80.7053 41.7175 80.7106 41.6597 80.6893 41.6072C80.6679 41.5546 80.6277 41.5152 80.5716 41.4994C79.9832 41.3129 79.5874 40.7795 79.5874 40.1725C79.5874 39.4025 80.2239 38.7798 81.0048 38.7798C81.1439 38.7798 81.283 38.8008 81.4167 38.8402C81.4729 38.856 81.5344 38.8455 81.5798 38.8139C81.6253 38.7798 81.6547 38.7272 81.6547 38.6694C81.6627 37.91 82.2992 37.2925 83.0721 37.2925C83.845 37.2925 84.4816 37.9126 84.4896 38.672C84.4896 38.7298 84.519 38.785 84.5671 38.8166C84.6153 38.8507 84.6768 38.8586 84.7329 38.8428C84.8667 38.8008 85.0031 38.7798 85.1421 38.7798C85.9257 38.7798 86.5596 39.4446 86.5596 40.2618C86.5596 40.8741 86.1905 41.4311 85.6396 41.6466C85.5914 41.665 85.554 41.7018 85.5353 41.7491C85.5165 41.7964 85.5192 41.8489 85.5379 41.8936C85.6262 42.0802 85.669 42.2746 85.669 42.477C85.669 43.2469 85.0325 43.8696 84.2516 43.8696L84.2542 43.8644ZM83.0748 43.2705C83.1497 43.2705 83.2219 43.3021 83.2727 43.3572C83.5295 43.6305 83.8771 43.7803 84.2516 43.7803C84.987 43.7803 85.5861 43.1917 85.5861 42.4717C85.5861 42.2825 85.5433 42.0986 85.4631 41.9251C85.431 41.8594 85.431 41.7832 85.4577 41.7149C85.4845 41.6466 85.5406 41.594 85.6101 41.5678C86.129 41.3654 86.4767 40.8399 86.4767 40.2618C86.4767 39.4919 85.8776 38.8639 85.1448 38.8639C85.0164 38.8639 84.8881 38.8849 84.7624 38.9217C84.6821 38.9479 84.5912 38.9322 84.5217 38.8849C84.4521 38.8349 84.4093 38.7561 84.4093 38.672C84.4013 37.9573 83.8049 37.3739 83.0775 37.3739C82.3501 37.3739 81.7537 37.9547 81.7456 38.6668C81.7456 38.7509 81.7029 38.8297 81.636 38.877C81.5665 38.9269 81.4782 38.9401 81.398 38.9164C81.2723 38.8796 81.1412 38.8612 81.0129 38.8612C80.2774 38.8612 79.6783 39.4498 79.6783 40.1725C79.6783 40.7427 80.0501 41.2446 80.6037 41.4206C80.6812 41.4443 80.7454 41.5021 80.7748 41.5783C80.8043 41.6545 80.7962 41.7386 80.7561 41.8069C80.6358 42.0092 80.5689 42.2378 80.5689 42.4717C80.5689 43.1943 81.168 43.7803 81.9034 43.7803C82.2778 43.7803 82.6255 43.6305 82.8823 43.3572C82.9331 43.3021 83.0053 43.2705 83.0802 43.2705H83.0748Z" fill="#434343"/>
        <path d="M83.0749 41.439C82.6443 41.439 82.2939 41.0948 82.2939 40.6717C82.2939 40.2486 82.6443 39.9044 83.0749 39.9044C83.5055 39.9044 83.8558 40.2486 83.8558 40.6717C83.8558 41.0948 83.5055 41.439 83.0749 41.439ZM83.0749 40.0174C82.7085 40.0174 82.409 40.3117 82.409 40.6717C82.409 41.0317 82.7085 41.326 83.0749 41.326C83.4413 41.326 83.7408 41.0317 83.7408 40.6717C83.7408 40.3117 83.4413 40.0174 83.0749 40.0174Z" fill="#434343"/>
        <path d="M83.0483 39.0898V39.9622C83.0483 39.9622 83.067 39.9622 83.0777 39.9622C83.0884 39.9622 83.0964 39.9622 83.1071 39.9622V39.0898C83.2114 39.0767 83.2917 38.99 83.2917 38.8822C83.2917 38.7666 83.1954 38.672 83.0777 38.672C82.9601 38.672 82.8638 38.7666 82.8638 38.8822C82.8638 38.99 82.944 39.0767 83.0483 39.0898Z" fill="#434343"/>
        <path d="M82.4115 39.2317L82.7619 40.0332C82.7779 40.0253 82.7966 40.0174 82.8153 40.0122L82.465 39.2107C82.5559 39.1582 82.596 39.0452 82.5533 38.948C82.5078 38.8402 82.3794 38.7929 82.2724 38.8376C82.1628 38.8823 82.1147 39.0084 82.1601 39.1135C82.2029 39.2107 82.3126 39.2606 82.4142 39.2317H82.4115Z" fill="#434343"/>
        <path d="M81.4623 40.7033H82.3529C82.3529 40.7033 82.3529 40.6822 82.3529 40.6717C82.3529 40.6638 82.3529 40.656 82.3529 40.6481H81.4623C81.449 40.5456 81.3607 40.4668 81.2511 40.4668C81.1334 40.4668 81.0371 40.5614 81.0371 40.677C81.0371 40.7926 81.1334 40.8872 81.2511 40.8872C81.3607 40.8872 81.449 40.8084 81.4623 40.7059V40.7033Z" fill="#434343"/>
        <path d="M81.2803 40.2855C81.3819 40.3196 81.4943 40.2749 81.5397 40.1803L82.3795 40.4668C82.3848 40.4484 82.3902 40.43 82.3982 40.4142L81.5585 40.1278C81.5798 40.0253 81.5237 39.9228 81.4194 39.886C81.3071 39.8466 81.1867 39.9071 81.1466 40.0148C81.1065 40.1225 81.168 40.2434 81.2776 40.2828L81.2803 40.2855Z" fill="#434343"/>
        <path d="M83.5723 39.166L83.2861 39.9911C83.3049 39.9964 83.3209 40.0043 83.3396 40.0095L83.6258 39.1844C83.7301 39.2055 83.8344 39.1476 83.8691 39.0478C83.9066 38.9374 83.8478 38.8192 83.7354 38.7798C83.6231 38.743 83.5028 38.8008 83.4626 38.9112C83.4279 39.011 83.476 39.1214 83.5696 39.166H83.5723Z" fill="#434343"/>
        <path d="M84.487 39.9097L83.7007 40.317C83.7114 40.3327 83.7194 40.3485 83.7274 40.3669L84.5137 39.957C84.5752 40.0411 84.6902 40.07 84.7865 40.02C84.8908 39.9649 84.9309 39.8387 84.8747 39.7362C84.8186 39.6338 84.6902 39.5943 84.5859 39.6495C84.4896 39.6995 84.4495 39.8098 84.487 39.907V39.9097Z" fill="#434343"/>
        <path d="M83.5698 40.1514C83.5832 40.1646 83.5966 40.1777 83.6099 40.1908L84.2384 39.5733C84.3213 39.6364 84.4417 39.6311 84.5192 39.5549C84.6021 39.4735 84.6021 39.3395 84.5192 39.258C84.4363 39.1765 84.2999 39.1765 84.217 39.258C84.1395 39.3342 84.1341 39.4524 84.1983 39.5339L83.5698 40.1514Z" fill="#434343"/>
        <path d="M81.9143 39.576L82.5428 40.1935C82.5561 40.1803 82.5695 40.1672 82.5829 40.1541L81.9544 39.5366C82.0186 39.4551 82.0132 39.3369 81.9357 39.2606C81.8528 39.1792 81.7164 39.1792 81.6335 39.2606C81.5506 39.3421 81.5506 39.4761 81.6335 39.5576C81.711 39.6338 81.8314 39.639 81.9143 39.576Z" fill="#434343"/>
        <path d="M84.8696 41.0685C84.768 41.0343 84.6556 41.079 84.6102 41.1736L83.7677 40.8846C83.7624 40.9029 83.7544 40.9187 83.749 40.9371L84.5915 41.2262C84.5701 41.3286 84.6262 41.4311 84.7305 41.4679C84.8429 41.5073 84.9632 41.4469 85.0033 41.3391C85.0434 41.2288 84.9819 41.1105 84.8723 41.0711L84.8696 41.0685Z" fill="#434343"/>
        <path d="M84.2355 41.778L83.6016 41.1552C83.5883 41.1684 83.5749 41.1815 83.5615 41.1946L84.1954 41.8174C84.1312 41.8989 84.1365 42.0171 84.2141 42.0933C84.297 42.1748 84.4334 42.1748 84.5163 42.0933C84.5992 42.0118 84.5992 41.8778 84.5163 41.7964C84.4387 41.7202 84.3184 41.7149 84.2355 41.778Z" fill="#434343"/>
        <path d="M83.738 42.1222L83.385 41.3129C83.369 41.3207 83.3503 41.3286 83.3315 41.3339L83.6846 42.1432C83.5936 42.1958 83.5535 42.3088 83.5963 42.406C83.6418 42.5137 83.7701 42.561 83.8771 42.5164C83.9841 42.4717 84.0349 42.3456 83.9894 42.2404C83.9467 42.1432 83.837 42.0933 83.7354 42.1222H83.738Z" fill="#434343"/>
        <path d="M84.9017 40.4668C84.792 40.4668 84.7038 40.5456 84.6904 40.6481H83.7998C83.7998 40.6481 83.7998 40.6638 83.7998 40.6717C83.7998 40.6822 83.7998 40.6927 83.7998 40.7033H84.6904C84.7038 40.8057 84.792 40.8846 84.9017 40.8846C85.0193 40.8846 85.1156 40.79 85.1156 40.6744C85.1156 40.5587 85.0193 40.4641 84.9017 40.4641V40.4668Z" fill="#434343"/>
        <path d="M83.1042 42.2615V41.3812C83.1042 41.3812 83.0855 41.3812 83.0748 41.3812C83.0641 41.3812 83.0561 41.3812 83.0454 41.3812V42.2615C82.9411 42.2746 82.8608 42.3613 82.8608 42.4691C82.8608 42.5847 82.9571 42.6793 83.0748 42.6793C83.1925 42.6793 83.2887 42.5847 83.2887 42.4691C83.2887 42.3613 83.2085 42.2746 83.1042 42.2615Z" fill="#434343"/>
        <path d="M82.5882 41.1946C82.5749 41.1815 82.5615 41.1684 82.5481 41.1552L81.9143 41.778C81.8314 41.7149 81.711 41.7202 81.6335 41.7964C81.5506 41.8778 81.5506 42.0118 81.6335 42.0933C81.7164 42.1748 81.8528 42.1748 81.9357 42.0933C82.0132 42.0171 82.0186 41.8989 81.9544 41.8174L82.5882 41.1946Z" fill="#434343"/>
        <path d="M82.5801 42.1853L82.8689 41.3523C82.8502 41.347 82.8315 41.3418 82.8154 41.3339L82.5266 42.1669C82.4223 42.1459 82.318 42.2037 82.2832 42.3035C82.2458 42.4139 82.3046 42.5321 82.4169 42.5715C82.5293 42.6083 82.6496 42.5505 82.6897 42.4402C82.7245 42.3403 82.6764 42.2299 82.5828 42.1853H82.5801Z" fill="#434343"/>
        <path d="M81.6627 41.4416L82.4517 41.0317C82.441 41.0159 82.433 41.0002 82.4249 40.9818L81.636 41.3917C81.5745 41.3076 81.4595 41.2787 81.3632 41.3286C81.2589 41.3838 81.2188 41.5099 81.2749 41.6124C81.3311 41.7149 81.4595 41.7543 81.5638 41.6991C81.6601 41.6492 81.7002 41.5389 81.6627 41.4416Z" fill="#434343"/>
        <path d="M47.5 59C34.9464 59 23.1202 56.0123 14.2037 50.5861C5.04392 45.0127 0 37.5237 0 29.4987C0 21.4737 5.04392 13.9873 14.2011 8.41393C23.1202 2.98771 34.9464 0 47.5 0C60.0536 0 71.8798 2.98771 80.7963 8.41393C89.9561 13.9873 94.9973 21.4737 94.9973 29.4987C94.9973 37.5237 89.9534 45.0127 80.7963 50.5834C71.8771 56.0097 60.0536 58.9974 47.5 58.9974V59ZM47.5 0.525542C35.0453 0.525542 23.3181 3.48697 14.4845 8.86064C5.48787 14.3342 0.53488 21.6629 0.53488 29.4987C0.53488 37.3345 5.48787 44.6632 14.4845 50.1367C23.3208 55.513 35.0453 58.4718 47.5 58.4718C59.9547 58.4718 71.6819 55.5104 80.5155 50.1367C89.5095 44.6632 94.4651 37.3345 94.4651 29.4987C94.4651 21.6629 89.5121 14.3342 80.5155 8.86064C71.6792 3.48697 59.9547 0.525542 47.5 0.525542Z" fill="#434343"/>
        <path d="M47.4998 57.5548C22.1197 57.5548 1.4707 44.9707 1.4707 29.4987C1.4707 14.0267 22.1197 1.44525 47.4998 1.44525C72.8798 1.44525 93.5289 14.0294 93.5289 29.4987C93.5289 44.968 72.8798 57.5548 47.4998 57.5548ZM47.4998 1.70802C22.2668 1.70802 1.73814 14.1765 1.73814 29.4987C1.73814 44.8209 22.2668 57.292 47.4998 57.292C72.7327 57.292 93.2614 44.8235 93.2614 29.4987C93.2614 14.1739 72.7327 1.70802 47.4998 1.70802Z" fill="#434343"/>
    </g>
    <defs>
        <clipPath id="clip0_159_1621">
            <rect width="95" height="59" fill="white"/>
        </clipPath>
    </defs>
</svg>
