<svg width="120" height="75" viewBox="0 0 120 75" fill="none" xmlns="http://www.w3.org/2000/svg">
<path d="M59.5929 73.0025C27.7514 73.0025 1.84531 57.0409 1.84531 37.4196C1.84531 17.7983 27.7514 1.83325 59.5929 1.83325C91.4344 1.83325 117.34 17.7949 117.34 37.4196C117.34 57.0442 91.4344 73.0025 59.5929 73.0025ZM59.5929 2.16655C27.9359 2.16655 2.18083 17.9816 2.18083 37.4162C2.18083 56.8509 27.9359 72.6659 59.5929 72.6659C91.2499 72.6659 117.005 56.8509 117.005 37.4162C117.005 17.9816 91.2499 2.16655 59.5929 2.16655Z" fill="#646464"/>
<path d="M59.5932 63.4566C34.8917 63.4566 14.7936 51.7745 14.7936 37.416C14.7936 23.0575 34.8883 11.3787 59.5932 11.3787C84.298 11.3787 104.393 23.0608 104.393 37.4193C104.393 51.7778 84.2947 63.4599 59.5932 63.4599V63.4566ZM59.5932 11.712C35.0762 11.712 15.1291 23.2441 15.1291 37.4193C15.1291 51.5945 35.0762 63.1266 59.5932 63.1266C84.1101 63.1266 104.057 51.5945 104.057 37.4193C104.057 23.2441 84.1101 11.712 59.5932 11.712Z" fill="#646464"/>
<path d="M32.5998 14.575L32.5294 15.2383C31.2611 15.2316 29.6942 14.7017 28.7782 13.3452L28.701 13.3718C28.8084 14.9817 28.0803 16.2215 26.4798 17.2481L26.3255 17.0648C27.6743 16.0349 28.2279 14.8983 28.1742 13.5418L25.5101 14.4017L25.4196 14.1218L26.4127 13.8018L25.698 11.6154L27.5736 11.0088L27.171 9.77888L27.6709 9.6189L28.0736 10.8488L29.9223 10.2522L30.637 12.4386L31.6369 12.1153L31.7275 12.3953L29.0198 13.2685C29.8217 14.1751 31.147 14.635 32.6032 14.575H32.5998ZM28.1507 13.2385C28.1038 12.7819 27.993 12.302 27.8219 11.7853L27.6575 11.2821L26.245 11.7387L26.8724 13.6518L28.1507 13.2385ZM28.1575 11.1221L28.3755 11.7853C28.5232 12.2386 28.6238 12.6619 28.6708 13.0719L30.1606 12.5919L29.5331 10.6788L28.1541 11.1254L28.1575 11.1221Z" fill="#646464"/>
<path d="M58.9991 7.15268C59.1333 6.80271 59.2574 6.32943 59.3245 5.9228L58.6065 5.94947L58.7273 9.25912C58.7474 9.80907 58.4354 10.1957 57.1134 9.66242L57.1704 9.43911C58.13 9.58909 58.2408 9.55576 58.224 9.1658L58.1065 5.96613L56.8517 6.01279L56.8416 5.73282L58.63 5.6695C58.3515 5.3562 57.922 4.93291 57.5764 4.60627L57.7106 4.42629C57.922 4.54295 58.1871 4.70293 58.4287 4.87958C58.6535 4.53961 58.8883 4.10633 59.0024 3.77969L56.9993 3.85302L56.9892 3.58305L58.9923 3.50972L59.15 3.39307L59.6634 3.67637C59.3849 4.16965 58.9756 4.69293 58.6333 5.02956C58.8011 5.14955 58.9521 5.2762 59.0594 5.38286L58.7977 5.67283L59.2843 5.65616L59.4285 5.53284L59.9184 5.75615C59.7238 6.29943 59.3849 6.96603 59.1802 7.25267L58.9923 7.16267L58.9991 7.15268ZM61.0458 8.46921L61.5155 8.76918C60.9485 9.27579 60.0727 9.76907 59.2775 10.0257L59.1802 9.81573C59.8211 9.53576 60.5425 9.03248 61.0458 8.46921ZM61.237 3.80302L59.7976 3.85635L59.7875 3.56971L63.3173 3.44306L63.3274 3.7297L61.7839 3.78636C61.6464 4.11299 61.4887 4.44296 61.3645 4.6696L62.8945 4.61294L63.0287 8.23923L60.2204 8.34255L60.0862 4.71626L61.1062 4.6796C61.1632 4.41296 61.2035 4.073 61.237 3.80636V3.80302ZM62.4248 4.91957L60.5693 4.98623L60.5995 5.77282L62.455 5.70616L62.4248 4.91957ZM62.4617 5.9928L60.6062 6.05946L60.6364 6.88937L62.4919 6.82271L62.4617 5.9928ZM62.5053 7.10935L60.6498 7.17601L60.68 8.03592L62.5355 7.96926L62.5053 7.10935ZM63.7233 9.31912L63.4213 9.79907C63.0254 9.48243 62.3107 8.99249 61.737 8.65585L61.8343 8.44588C62.455 8.63586 63.1697 8.97249 63.7233 9.31912Z" fill="#646464"/>
<path d="M63.4078 68.7663C63.0958 68.703 62.6998 68.593 62.2871 68.4397L62.371 70.7594L61.8912 70.7761L61.8778 70.4295L58.7305 70.5428L58.744 70.9028L58.2709 70.9194L58.1836 68.5863C57.7911 68.7697 57.3884 68.9296 56.9959 69.0563L56.9153 68.8463C57.8783 68.4797 59.0392 67.8297 59.5962 67.1265L57.063 67.2198L57.0529 66.9332L58.9453 66.8632C58.7138 66.6065 58.4588 66.3432 58.2608 66.1599L58.3447 66.0466C58.2105 66.0599 58.0796 66.0699 57.9521 66.0766L57.9152 65.8566C59.5425 65.68 60.8846 65.3433 61.5557 65.0934L62.0154 65.48C61.5758 65.6 60.9954 65.7233 60.3646 65.82L60.4015 66.8099L60.9719 66.7899C61.1832 66.4966 61.4349 66.0666 61.6127 65.6933L62.0489 65.9266C61.7872 66.2599 61.5322 66.5632 61.2806 66.7765L63.2669 66.7032L63.2769 66.9898L60.5223 67.0898C61.3846 67.7731 62.6025 68.1031 63.6058 68.243L63.4111 68.763L63.4078 68.7663ZM57.6535 66.3099L57.167 66.3266L57.1167 64.9534L60.2505 64.8401C59.8646 64.6401 59.3848 64.4301 58.9855 64.2768L59.0459 64.0635C59.462 64.1201 60.1096 64.2435 60.5894 64.4401L60.4115 64.8367L63.0924 64.7401L63.1427 66.1066L62.6562 66.1233L62.6159 65.05L57.6132 65.23L57.6535 66.3099ZM62.0321 68.3397C61.4315 68.0897 60.8175 67.7364 60.4182 67.2965L60.4518 68.193L59.9653 68.2097L59.9351 67.3865C59.5861 67.7898 59.0392 68.153 58.4286 68.4697L62.0355 68.3397H62.0321ZM59.3613 66.6732L59.1835 66.8565L59.915 66.8299L59.8814 65.89C59.4251 65.9499 58.9453 66.0033 58.4823 66.0433C58.7977 66.2066 59.1198 66.4399 59.3647 66.6732H59.3613ZM59.9955 68.6997L58.6668 68.7463L58.6869 69.3396L60.0156 69.2929L59.9921 68.6997H59.9955ZM60.029 69.5796L58.7003 69.6262L58.7238 70.2562L60.0525 70.2095L60.029 69.5796ZM61.814 68.633L60.4686 68.683L60.4921 69.2763L61.8375 69.2263L61.8174 68.633H61.814ZM61.8476 69.5129L60.5021 69.5629L60.5256 70.1928L61.8711 70.1428L61.8476 69.5129Z" fill="#646464"/>
<path d="M30.1437 62.3867L29.523 64.8598C29.3653 65.4864 28.7983 65.4664 27.8789 64.8465L27.9662 64.6565C28.8989 65.0031 28.9996 65.0031 29.1003 64.6065L29.617 62.5534C29.2714 62.65 28.9325 62.73 28.607 62.7867L28.5064 62.2534C28.862 62.2267 29.2949 62.1834 29.731 62.1101L30.1437 60.4703L29.1405 60.2203L29.211 59.9436L30.2142 60.1936L30.5699 58.7771L31.0295 58.8904L30.6739 60.3069L31.4489 60.5003L31.3785 60.7769L30.6034 60.5836L30.241 62.0168C30.4893 61.9668 30.7343 61.9034 30.9557 61.8401L31.0128 62.0434C30.7443 62.1734 30.4491 62.2901 30.1471 62.3901L30.1437 62.3867ZM34.4418 66.203L34.1063 66.6629C33.7641 66.503 32.5663 65.7897 32.4354 64.3998H32.4287C31.7341 65.4597 30.6403 65.693 29.4895 65.5764L29.4727 65.3697C30.5766 65.4097 31.3986 65.1064 31.9489 64.2799L30.1639 63.8366L30.2343 63.5533L32.1066 64.0199C32.2207 63.8066 32.328 63.5599 32.4153 63.28L32.8816 63.4266C32.7978 63.6933 32.7005 63.9332 32.5864 64.1399L34.6734 64.6598L34.6029 64.9431L32.6669 64.4632C32.9387 65.3498 33.7943 65.9164 34.4452 66.2063L34.4418 66.203ZM33.0192 59.3237L33.4621 59.617C33.3111 59.7903 33.1736 59.947 33.0326 60.087L33.9285 60.3103L34.103 60.2536L34.5056 60.6169C34.254 60.8935 33.8111 61.2302 33.4856 61.4235L34.9284 61.7835L34.3143 64.2199L33.8614 64.1065L34.4049 61.9468L31.9522 61.3368L31.402 63.5166L30.949 63.4033L31.5194 61.1369C31.3617 61.2102 31.2007 61.2768 31.0362 61.3335L30.949 61.1369C31.7207 60.7669 32.4723 60.137 33.0159 59.317L33.0192 59.3237ZM33.3883 61.8534C33.291 61.9968 33.197 62.1234 33.093 62.2434C33.442 62.5867 33.7305 62.9767 33.8949 63.2666L33.499 63.5099C33.3581 63.1633 33.1601 62.7733 32.9387 62.4101C32.5696 62.78 32.1502 63.0333 31.6838 63.19L31.5899 62.9833C32.1703 62.68 32.6334 62.2601 33.0024 61.6101L33.3883 61.8568V61.8534ZM31.8012 61.0069L33.187 61.3502C33.442 61.1269 33.697 60.8336 33.8681 60.5869L32.7843 60.3169C32.4522 60.6069 32.1301 60.8269 31.8046 61.0035L31.8012 61.0069Z" fill="#646464"/>
<path d="M89.6729 60.7801C89.6058 61.0267 89.5252 61.2767 89.4313 61.5134L92.6524 60.4735L93.7663 63.8831L93.2899 64.0364L93.1355 63.5698L90.2802 64.493L90.4412 64.9897L89.9614 65.143L89.0488 62.3566C88.7435 62.9432 88.361 63.4831 87.9348 63.9364L87.7537 63.7865C88.4247 62.9365 88.9146 61.96 89.1562 60.9467L87.3074 61.5433L87.2168 61.2634L89.2333 60.6101C89.2669 60.4068 89.3038 60.2035 89.3206 59.9968L87.4148 60.6134L87.3242 60.3401L89.3407 59.6869C89.3575 59.4736 89.3541 59.2569 89.3407 59.0469C88.6059 59.3636 87.8375 59.6569 87.1531 59.8702L87.0558 59.6702C88.9112 58.947 90.3875 58.1404 91.3438 57.4504L91.9343 57.7137C91.4746 58.0237 90.713 58.4237 89.8675 58.807C89.8809 59.0436 89.891 59.2803 89.8742 59.5169L92.5047 58.667L92.5953 58.9403L89.8541 59.8269C89.8306 60.0368 89.7937 60.2402 89.7467 60.4468L93.1925 59.3336L93.2831 59.6135L89.6695 60.7801H89.6729ZM92.2631 60.9068L89.4078 61.83L89.6058 62.4299L92.4611 61.5067L92.2631 60.9068ZM92.5483 61.7733L89.693 62.6966L89.8977 63.3198L92.753 62.3966L92.5483 61.7733ZM92.8369 62.6532L89.9816 63.5765L90.1929 64.2197L93.0483 63.2965L92.8369 62.6532Z" fill="#646464"/>
<path d="M93.092 15.6215C92.8236 15.4515 92.4947 15.2015 92.1693 14.9082L91.3942 17.098L90.9412 16.9413L91.0553 16.6147L88.0859 15.5748L87.9651 15.9148L87.5189 15.7581L88.3006 13.555C87.8678 13.5817 87.435 13.5884 87.0223 13.5584V13.3317C88.0557 13.3417 89.3743 13.1584 90.1528 12.7051L87.7604 11.8685L87.8577 11.5986L89.6428 12.2218C89.522 11.8985 89.381 11.5619 89.267 11.3186L89.3877 11.2453C89.2602 11.2086 89.1328 11.1719 89.012 11.1286L89.0589 10.912C90.6393 11.3386 92.0116 11.5152 92.7296 11.5252L93.0114 12.0519C92.5585 12.0019 91.9747 11.9085 91.3506 11.7652L91.0184 12.7018L91.5553 12.8884C91.8606 12.6918 92.2498 12.3851 92.5551 12.1018L92.8772 12.4785C92.5115 12.6918 92.1626 12.8818 91.8505 12.9918L93.7261 13.6484L93.6288 13.9183L91.0285 13.0084C91.5787 13.955 92.5887 14.7049 93.4745 15.2015L93.0987 15.6148L93.092 15.6215ZM89.6461 15.1482L88.3912 14.7082L88.1799 15.3048L89.4347 15.7448L89.6461 15.1482ZM88.6395 11.2386L88.1799 11.0786L88.6395 9.78209L91.5955 10.8153C91.3103 10.492 90.9412 10.1187 90.6292 9.83208L90.7634 9.6521C91.1291 9.85874 91.6861 10.2087 92.0619 10.5653L91.7499 10.8686L94.2797 11.7519L93.8234 13.0417L93.3637 12.8818L93.7228 11.8685L89.0019 10.2187L88.6395 11.2386ZM89.9414 14.3149L88.6865 13.875L88.4885 14.4349L89.7434 14.8749L89.9414 14.3149ZM91.968 14.7216C91.5016 14.2716 91.062 13.7183 90.8506 13.1617L90.552 14.0083L90.0924 13.8483L90.3675 13.0717C89.8944 13.3184 89.2502 13.4584 88.5657 13.5317L91.968 14.7216ZM90.0957 12.1985L89.8608 12.3052L90.552 12.5451L90.8674 11.6586C90.4212 11.5486 89.9548 11.4252 89.5085 11.2919C89.7434 11.5619 89.9548 11.8919 90.0957 12.1985ZM91.3607 15.7481L90.0924 15.3048L89.881 15.9015L91.1493 16.3447L91.3607 15.7481ZM91.6559 14.9149L90.3876 14.4716L90.1897 15.0315L91.4579 15.4748L91.6559 14.9149Z" fill="#646464"/>
<path d="M41.0146 9.3391C41.2293 8.90581 41.4474 8.3392 41.632 7.69594C41.2428 7.89258 40.7898 8.08923 40.4476 8.22255L40.2395 7.78593L40.6153 7.70927C40.763 7.10267 40.8871 6.28608 40.9274 5.45284L41.4508 5.50616C41.3099 6.22942 41.0716 7.10267 40.8569 7.64594C41.1455 7.57262 41.4374 7.49262 41.7058 7.4093C41.7863 7.09933 41.8568 6.7727 41.9105 6.4394L42.4137 6.54939C42.1822 7.46263 41.7326 8.54918 41.2998 9.24244C41.6521 9.12579 42.0178 8.9958 42.3601 8.85915C42.2326 8.67584 42.1051 8.49919 41.9943 8.3492L42.1621 8.21255C42.4909 8.49252 42.8969 8.89915 43.1519 9.26577L42.7828 9.53241C42.6922 9.38576 42.5916 9.21911 42.4842 9.05246C41.9306 9.40243 41.2025 9.77239 40.7864 9.93904L40.5482 9.46242C40.6925 9.42576 40.8502 9.3891 41.0146 9.3391ZM41.2595 10.1357H41.4709C41.6118 10.9123 41.6219 11.6655 41.5313 12.1855L41.0012 12.0588C41.1723 11.5589 41.2864 10.8856 41.2629 10.1357H41.2595ZM41.9742 9.91237C42.2426 10.3823 42.5647 11.1122 42.7224 11.5222L42.246 11.7055C42.1386 11.2556 41.9373 10.509 41.7762 9.97903L41.9742 9.90904V9.91237ZM43.2895 10.639L42.9036 10.8889C42.7157 10.4756 42.4976 10.079 42.2963 9.71239L42.4775 9.59241C42.7728 9.90238 43.0412 10.259 43.2928 10.6356L43.2895 10.639ZM44.6484 8.72916L43.2358 9.00913L42.6285 5.99278L43.8968 5.73947C43.9303 5.45617 43.9404 5.13954 43.937 4.80957L44.4605 4.82623C44.3766 5.11954 44.2692 5.4395 44.1585 5.68615L46.1079 5.29952L46.7152 8.31587L44.7054 8.71583C45.1047 8.86915 45.5945 9.12246 45.9804 9.39909L45.6952 9.81572C45.3295 9.46909 44.8899 9.14579 44.5443 8.89915L44.645 8.72916H44.6484ZM43.6317 8.63917L43.9874 8.56918L43.8867 8.44586C44.1887 8.18922 44.4739 7.87925 44.6987 7.49929C44.4907 7.40597 44.2826 7.31264 44.078 7.22599C43.9739 7.42597 43.8599 7.60595 43.7491 7.7626L43.568 7.65594C43.6619 7.47929 43.7391 7.30598 43.7995 7.12266C43.6854 7.07933 43.5713 7.03267 43.4572 6.99601L43.5076 6.79936L43.88 6.88269C43.9605 6.60605 44.0209 6.31608 44.0578 6.00278L43.1385 6.18609L43.6351 8.64251L43.6317 8.63917ZM43.5076 9.66573L43.7324 9.65907C43.8498 10.279 43.8532 10.8489 43.7223 11.3989L43.2157 11.2389C43.4472 10.7123 43.5311 10.2923 43.5076 9.66573ZM46.3092 9.72239C46.7119 10.6323 46.685 10.9889 46.1549 11.1322C45.7959 11.2256 45.4335 11.2989 45.1248 11.3389C44.5175 11.4222 44.343 11.2856 44.2357 10.7456L43.927 9.21911L44.3967 9.12579L44.6953 10.6023C44.7524 10.8889 44.8665 10.9289 45.1449 10.8956C45.3865 10.8623 45.6918 10.8089 45.9636 10.7256C46.2421 10.6423 46.2723 10.5823 46.0911 9.77905L46.3059 9.72906L46.3092 9.72239ZM45.7053 5.67281L44.192 5.97612L44.5007 6.01278C44.4672 6.15276 44.4437 6.28608 44.4001 6.41607L44.994 6.29608L45.1248 6.1561L45.5509 6.28275C45.4738 6.68604 45.3597 7.02601 45.2154 7.30931C45.4771 7.41597 45.7254 7.52262 45.9703 7.64594L45.7455 8.0359C45.5207 7.89925 45.2791 7.77593 45.0275 7.64594C44.7624 8.04923 44.4504 8.32921 44.1451 8.53918L46.2052 8.12923L45.7086 5.67281H45.7053ZM44.2021 6.96601C44.4168 7.02601 44.6349 7.096 44.853 7.17266C44.9403 6.97601 45.004 6.75937 45.051 6.51939L44.3195 6.66604C44.2793 6.7727 44.239 6.86936 44.1988 6.96601H44.2021ZM47.5037 10.1757L47.1245 10.469C46.8528 10.0124 46.5776 9.59574 46.2354 9.16912L46.3864 9.0258C46.7991 9.35576 47.195 9.74239 47.5003 10.1757H47.5037Z" fill="#646464"/>
<path d="M16.5182 21.1679L14.8809 22.3045L15.2063 22.7677L14.7836 23.061L12.9382 20.4346L14.9983 19.0048L14.1763 17.8383L14.6125 17.5349L15.4345 18.7015L17.5013 17.2683L19.3233 19.858L18.9038 20.148L18.6019 19.7214L16.9544 20.8646L18.5717 23.1644L18.1355 23.4677L16.5182 21.1679ZM16.3404 20.9146L15.1795 19.2648L13.5421 20.4013L14.703 22.0511L16.3404 20.9146ZM18.424 19.4681L17.2631 17.8183L15.6157 18.9615L16.7766 20.6113L18.424 19.4681Z" fill="#646464"/>
<path d="M78.7953 11.2788L76.9666 10.8255L76.6278 12.1654L76.1547 12.0488L76.4902 10.7089L74.8193 10.2923C74.2824 11.1288 73.3732 11.3122 72.229 11.1388L72.2424 10.9055C73.2758 10.9822 73.9234 10.8255 74.3395 10.1689L72.5545 9.72566L72.6249 9.44902L74.4837 9.90898C74.5609 9.75566 74.628 9.57568 74.6851 9.3757L73.7389 9.13905L74.3663 6.64598L78.6275 7.70587L78.0001 10.1989L77.1747 9.9923L77.0371 10.5422L78.8657 10.9955L78.7953 11.2722V11.2788ZM73.3128 6.74597L73.2087 6.55266C73.8362 6.15603 74.5173 5.41611 74.9401 4.67285L75.3964 4.95282C75.2756 5.1328 75.138 5.31278 74.9803 5.4861L76.8794 5.95938L76.8089 6.23602L75.5675 5.92939C75.6984 6.16603 75.8024 6.41934 75.8997 6.73264L75.4199 6.82596C75.383 6.45267 75.3393 6.17603 75.2823 5.8594L74.7522 5.72608C74.3059 6.16936 73.7825 6.55266 73.3128 6.74597ZM74.2757 8.9824L77.6041 9.80899L77.7249 9.3257L74.3965 8.49912L74.2757 8.9824ZM74.4603 8.24248L77.7887 9.06906L77.9095 8.58578L74.581 7.7592L74.4603 8.24248ZM74.6482 7.49922L77.9766 8.32581L78.094 7.86252L74.7656 7.03594L74.6482 7.49922ZM76.564 10.4289L76.7016 9.87898L75.1682 9.49902C75.1112 9.69566 75.0441 9.87565 74.9669 10.0323L76.5674 10.4289H76.564ZM76.1949 6.86929C76.6982 6.56266 77.2753 6.03271 77.6947 5.35611L78.1309 5.64608C77.9934 5.8294 77.8357 5.99605 77.6847 6.14937L79.9226 6.70597L79.8522 6.98261L78.3322 6.60598C78.4665 6.85929 78.5872 7.13926 78.6778 7.44923L78.2014 7.52589C78.1645 7.15259 78.1242 6.86262 78.0605 6.53599L77.423 6.37601C77.027 6.70264 76.6211 6.92595 76.2956 7.06594L76.1949 6.86596V6.86929Z" fill="#646464"/>
<path d="M74.0274 65.2031L73.5476 65.2998L73.2758 63.9533L76.3492 63.34C75.9365 63.2034 75.4299 63.0734 75.0105 62.9834L75.034 62.7601C75.4534 62.7501 76.1144 62.7701 76.621 62.8867L76.5103 63.3067L79.1408 62.7834L79.4126 64.1233L78.9328 64.2199L78.7214 63.17L73.816 64.1466L74.0274 65.2065V65.2031ZM80.1072 66.713C79.7884 66.703 79.3791 66.6563 78.9462 66.5697L79.4059 68.8461L78.9362 68.9394L78.8657 68.5995L75.7789 69.2127L75.8493 69.566L75.3863 69.6594L74.9233 67.3696C74.5642 67.6129 74.1952 67.8362 73.8261 68.0229L73.712 67.8295C74.6045 67.3163 75.6413 66.4863 76.0808 65.7031L73.5946 66.1997L73.5375 65.9197L75.393 65.5498C75.1246 65.3331 74.8293 65.1165 74.6045 64.9665L74.6683 64.8398C74.5408 64.8732 74.4099 64.9065 74.2891 64.9298L74.2153 64.7199C75.7956 64.2866 77.0639 63.74 77.6846 63.3833L78.198 63.6933C77.7853 63.88 77.2317 64.0966 76.621 64.2899L76.819 65.2631L77.376 65.1531C77.537 64.8298 77.7148 64.3666 77.8323 63.9699L78.302 64.1299C78.0973 64.4999 77.896 64.8399 77.6813 65.0932L79.6307 64.7065L79.6877 64.9865L76.9834 65.5264C77.943 66.0631 79.1979 66.193 80.2112 66.173L80.1038 66.7197L80.1072 66.713ZM75.7721 65.2898L75.6245 65.4998L76.3425 65.3565L76.158 64.4332C75.7185 64.5665 75.2521 64.6965 74.8025 64.8065C75.1413 64.9198 75.4937 65.0965 75.7755 65.2865L75.7721 65.2898ZM78.6778 66.5097C78.0437 66.3597 77.3827 66.1097 76.9163 65.7364L77.0941 66.6163L76.6143 66.713L76.4533 65.9064C76.1748 66.3597 75.6916 66.8063 75.1413 67.2163L78.6778 66.513V66.5097ZM76.7284 67.1896L75.4232 67.4496L75.5406 68.0329L76.8458 67.7729L76.7284 67.1896ZM76.9029 68.0528L75.5977 68.3128L75.7218 68.9328L77.027 68.6728L76.9029 68.0528ZM78.51 66.8363L77.1914 67.0996L77.3089 67.6829L78.6275 67.4196L78.51 66.8363ZM78.6845 67.6996L77.3659 67.9629L77.49 68.5828L78.8087 68.3195L78.6845 67.6996Z" fill="#646464"/>
<path d="M43.6353 64.6101L42.3838 69.5829L41.9174 69.4662L42.9609 65.3266C42.5918 65.6666 42.1858 65.9599 41.7463 66.1899L41.6389 65.9832C42.6321 65.2767 43.4508 64.2001 44.1352 62.9036L44.6117 63.1869C44.3164 63.6968 43.9977 64.1768 43.6353 64.6101ZM45.0948 66.5332C44.6385 67.3131 43.897 68.233 43.1052 68.803L42.9609 68.623C43.595 68.0164 44.2057 67.1231 44.6218 66.2399L45.0982 66.5332H45.0948ZM46.5611 65.21L45.4404 69.6562C45.2827 70.2828 44.7291 70.3961 43.4474 69.4862L43.5481 69.2929C44.7291 69.7828 44.8868 69.7529 44.9908 69.3396L46.0612 65.0867L45.0412 64.8334C44.6587 65.33 44.2091 65.7699 43.736 66.1066L43.5816 65.9266C44.3366 65.2367 44.9237 64.3134 45.3566 63.2702L45.8666 63.5168C45.6921 63.8735 45.4706 64.2368 45.2257 64.5834L47.8428 65.2333L48.0508 65.1567L48.5072 65.5866C48.1146 65.9899 47.5543 66.4032 47.1684 66.5999L47.0241 66.4132C47.3026 66.1566 47.6247 65.7833 47.7992 65.5166L46.551 65.2067L46.5611 65.21ZM47.6381 69.5895L47.0577 69.6862C47.0107 68.8429 46.8262 67.6064 46.6618 66.8398L46.8698 66.7698C47.1986 67.5564 47.5106 68.7596 47.6381 69.5862V69.5895Z" fill="#646464"/>
<path d="M98.9938 22.1111L103.752 26.5173L103.55 26.7307L98.7925 22.3244L98.9938 22.1111ZM102.02 20.7946L104.849 23.4143L103.205 25.1641L100.376 22.5444L102.02 20.7946ZM100.715 20.2113L100.792 19.9914C101.846 20.3346 103.278 20.478 104.275 20.2013L102.544 18.5982L102.742 18.3882L104.782 20.278L105.513 19.4981L105.892 19.848L105.161 20.628L107.194 22.5111L106.996 22.7211L105.114 20.9779C105.04 22.1245 105.439 23.2577 106.033 24.2109L105.443 24.3976C104.929 23.341 104.691 22.0445 104.916 20.8879L103.785 22.0911L103.406 21.7412L104.466 20.6146C103.389 20.9213 101.826 20.6713 100.718 20.2147L100.715 20.2113ZM100.93 22.6644L103.04 24.6175L103.604 24.0176L101.493 22.0645L100.93 22.6644ZM101.695 21.8512L103.805 23.8043L104.288 23.2877L102.178 21.3345L101.695 21.8512Z" fill="#646464"/>
<path d="M10.5087 42.4123C9.95511 42.4123 9.42162 42.189 9.03241 41.799C8.6432 42.189 8.10636 42.4123 7.55609 42.4123C6.40859 42.4123 5.47247 41.4824 5.47247 40.3425C5.47247 40.0025 5.55635 39.6692 5.72076 39.3693C4.90207 39.0693 4.35852 38.2994 4.35852 37.4261C4.35852 36.2863 5.29464 35.3564 6.44214 35.3564C6.61662 35.3564 6.78774 35.3764 6.9555 35.4197C7.01589 34.3365 7.93188 33.4666 9.03577 33.4666C10.1397 33.4666 11.0556 34.3365 11.116 35.423C11.2838 35.3797 11.4583 35.3564 11.6294 35.3564C12.7769 35.3564 13.713 36.3329 13.713 37.5361C13.713 38.4094 13.203 39.206 12.4347 39.5459C12.542 39.8026 12.5957 40.0692 12.5957 40.3425C12.5957 41.4824 11.6596 42.4123 10.5121 42.4123H10.5087ZM9.02906 41.5924L9.08274 41.649C9.45182 42.0457 9.96853 42.2723 10.5087 42.2723C11.5791 42.2723 12.4481 41.4091 12.4481 40.3458C12.4481 40.0692 12.3877 39.7959 12.2702 39.5393L12.2401 39.4726L12.3105 39.4459C13.0621 39.1493 13.5687 38.3827 13.5687 37.5395C13.5687 36.4162 12.6997 35.503 11.6294 35.503C11.4415 35.503 11.2502 35.533 11.0691 35.5897L10.9785 35.6197V35.523C10.9684 34.4698 10.096 33.6132 9.03912 33.6132C7.98221 33.6132 7.1132 34.4664 7.09978 35.5163V35.6097L7.00918 35.583C6.82464 35.5263 6.63675 35.4997 6.4455 35.4997C5.37517 35.4997 4.50615 36.3629 4.50615 37.4261C4.50615 38.2661 5.04635 39.0026 5.85162 39.2626L5.9355 39.2893L5.88852 39.3659C5.71069 39.6626 5.61675 40.0025 5.61675 40.3425C5.61675 41.4057 6.48576 42.269 7.55609 42.269C8.09294 42.269 8.613 42.0423 8.98208 41.6457L9.03577 41.589L9.02906 41.5924Z" fill="#646464"/>
<path d="M10.5088 42.1124C10.0089 42.1124 9.54253 41.9091 9.20029 41.5425C9.11305 41.4491 8.94529 41.4491 8.85805 41.5425C8.51582 41.9091 8.05279 42.1124 7.5495 42.1124C6.5664 42.1124 5.77121 41.3192 5.77121 40.3459C5.77121 40.0326 5.85844 39.7227 6.0195 39.4494C6.0564 39.3894 6.06311 39.316 6.03627 39.2494C6.00943 39.1827 5.9591 39.1327 5.88864 39.1127C5.15048 38.8761 4.6539 38.1995 4.6539 37.4296C4.6539 36.453 5.45245 35.6631 6.43219 35.6631C6.60667 35.6631 6.78114 35.6897 6.9489 35.7397C7.01937 35.7597 7.09654 35.7464 7.15358 35.7064C7.21062 35.6631 7.24752 35.5964 7.24752 35.5231C7.25759 34.5599 8.05614 33.7766 9.02582 33.7766C9.99549 33.7766 10.794 34.5632 10.8041 35.5264C10.8041 35.5998 10.841 35.6697 10.9014 35.7097C10.9618 35.7531 11.039 35.7631 11.1094 35.7431C11.2772 35.6897 11.4483 35.6631 11.6228 35.6631C12.6059 35.6631 13.4011 36.5063 13.4011 37.5429C13.4011 38.3195 12.9381 39.0261 12.2469 39.2994C12.1865 39.3227 12.1395 39.3694 12.116 39.4294C12.0925 39.4894 12.0959 39.556 12.1194 39.6127C12.2301 39.8493 12.2838 40.096 12.2838 40.3526C12.2838 41.3292 11.4852 42.1191 10.5055 42.1191L10.5088 42.1124ZM9.02917 41.3592C9.12312 41.3592 9.21371 41.3992 9.27746 41.4691C9.59957 41.8158 10.0358 42.0058 10.5055 42.0058C11.4282 42.0058 12.1798 41.2592 12.1798 40.3459C12.1798 40.106 12.1261 39.8726 12.0254 39.6527C11.9852 39.5693 11.9852 39.4727 12.0187 39.386C12.0523 39.2994 12.1227 39.2327 12.21 39.1994C12.8609 38.9427 13.2971 38.2761 13.2971 37.5429C13.2971 36.5663 12.5455 35.7697 11.6262 35.7697C11.4651 35.7697 11.304 35.7964 11.1463 35.8431C11.0457 35.8764 10.9316 35.8564 10.8444 35.7964C10.7571 35.7331 10.7035 35.6331 10.7035 35.5264C10.6934 34.6199 9.94516 33.8799 9.03253 33.8799C8.11989 33.8799 7.37167 34.6165 7.3616 35.5198C7.3616 35.6264 7.30792 35.7264 7.22404 35.7864C7.1368 35.8497 7.02608 35.8664 6.92542 35.8364C6.76772 35.7897 6.60331 35.7664 6.44226 35.7664C5.51956 35.7664 4.76798 36.513 4.76798 37.4296C4.76798 38.1528 5.23436 38.7894 5.9289 39.0127C6.02621 39.0427 6.10673 39.1161 6.14364 39.2127C6.18055 39.3094 6.17048 39.416 6.12015 39.5027C5.96917 39.7593 5.88528 40.0493 5.88528 40.3459C5.88528 41.2625 6.63687 42.0058 7.55956 42.0058C8.0293 42.0058 8.46549 41.8158 8.78759 41.4691C8.85134 41.3992 8.94194 41.3592 9.03588 41.3592H9.02917Z" fill="#646464"/>
<path d="M9.02887 39.0361C8.48867 39.0361 8.04913 38.5994 8.04913 38.0628C8.04913 37.5262 8.48867 37.0896 9.02887 37.0896C9.56907 37.0896 10.0086 37.5262 10.0086 38.0628C10.0086 38.5994 9.56907 39.0361 9.02887 39.0361ZM9.02887 37.2329C8.5692 37.2329 8.19341 37.6062 8.19341 38.0628C8.19341 38.5195 8.5692 38.8927 9.02887 38.8927C9.48854 38.8927 9.86433 38.5195 9.86433 38.0628C9.86433 37.6062 9.48854 37.2329 9.02887 37.2329Z" fill="#646464"/>
<path d="M8.99558 36.0597V37.1663C8.99558 37.1663 9.01907 37.1663 9.03249 37.1663C9.04591 37.1663 9.05598 37.1663 9.0694 37.1663V36.0597C9.20025 36.0431 9.30091 35.9331 9.30091 35.7964C9.30091 35.6498 9.18012 35.5298 9.03249 35.5298C8.88486 35.5298 8.76407 35.6498 8.76407 35.7964C8.76407 35.9331 8.86473 36.0431 8.99558 36.0597Z" fill="#646464"/>
<path d="M8.19714 36.2363L8.63668 37.2528C8.65681 37.2428 8.6803 37.2329 8.70379 37.2262L8.26425 36.2096C8.37833 36.143 8.42866 35.9996 8.37497 35.8763C8.31793 35.7397 8.15688 35.6797 8.02267 35.7363C7.8851 35.793 7.82471 35.953 7.88175 36.0863C7.93543 36.2096 8.073 36.273 8.2005 36.2363H8.19714Z" fill="#646464"/>
<path d="M7.00596 38.1061H8.12327C8.12327 38.1061 8.12327 38.0795 8.12327 38.0661C8.12327 38.0561 8.12327 38.0461 8.12327 38.0361H7.00596C6.98918 37.9061 6.87846 37.8062 6.74089 37.8062C6.59326 37.8062 6.47247 37.9261 6.47247 38.0728C6.47247 38.2194 6.59326 38.3394 6.74089 38.3394C6.87846 38.3394 6.98918 38.2394 7.00596 38.1095V38.1061Z" fill="#646464"/>
<path d="M6.77749 37.573C6.90499 37.6163 7.04591 37.5597 7.10295 37.4397L8.15651 37.803C8.16322 37.7796 8.16993 37.7563 8.18 37.7363L7.12644 37.373C7.15328 37.243 7.08282 37.113 6.95197 37.0664C6.81105 37.0164 6.66006 37.093 6.60973 37.2297C6.5594 37.3664 6.63657 37.5197 6.77414 37.5697L6.77749 37.573Z" fill="#646464"/>
<path d="M9.65323 36.1563L9.29422 37.2029C9.31771 37.2095 9.33784 37.2195 9.36132 37.2262L9.72034 36.1797C9.85119 36.2063 9.98205 36.133 10.0257 36.0063C10.0726 35.8664 9.99883 35.7164 9.8579 35.6664C9.71698 35.6197 9.566 35.693 9.51567 35.833C9.47205 35.9597 9.53244 36.0997 9.64988 36.1563H9.65323Z" fill="#646464"/>
<path d="M10.8007 37.0963L9.81427 37.6129C9.82769 37.6329 9.83776 37.6529 9.84782 37.6762L10.8343 37.1563C10.9114 37.2629 11.0557 37.2996 11.1765 37.2363C11.3074 37.1663 11.3577 37.0063 11.2872 36.8763C11.2168 36.7463 11.0557 36.6963 10.9249 36.7663C10.8041 36.8296 10.7537 36.9696 10.8007 37.0929V37.0963Z" fill="#646464"/>
<path d="M9.64984 37.4065C9.66662 37.4232 9.68339 37.4398 9.70017 37.4565L10.4887 36.6733C10.5927 36.7532 10.7437 36.7466 10.841 36.6499C10.945 36.5466 10.945 36.3766 10.841 36.2733C10.7369 36.17 10.5658 36.17 10.4618 36.2733C10.3645 36.3699 10.3578 36.5199 10.4383 36.6233L9.64984 37.4065Z" fill="#646464"/>
<path d="M7.57304 36.6733L8.36153 37.4565C8.37831 37.4398 8.39509 37.4232 8.41186 37.4065L7.62337 36.6233C7.7039 36.5199 7.69719 36.3699 7.59989 36.2733C7.49587 36.17 7.32475 36.17 7.22074 36.2733C7.11673 36.3766 7.11673 36.5466 7.22074 36.6499C7.31804 36.7466 7.46903 36.7532 7.57304 36.6733Z" fill="#646464"/>
<path d="M11.2807 38.5663C11.1532 38.523 11.0123 38.5796 10.9552 38.6996L9.89833 38.333C9.89162 38.3563 9.88156 38.3763 9.87485 38.3997L10.9318 38.7663C10.9049 38.8963 10.9754 39.0263 11.1062 39.0729C11.2472 39.1229 11.3981 39.0463 11.4485 38.9096C11.4988 38.7696 11.4216 38.6196 11.2841 38.5696L11.2807 38.5663Z" fill="#646464"/>
<path d="M10.4852 39.4659L9.69001 38.676C9.67323 38.6927 9.65646 38.7094 9.63968 38.726L10.4349 39.5159C10.3544 39.6193 10.3611 39.7692 10.4584 39.8659C10.5624 39.9692 10.7335 39.9692 10.8375 39.8659C10.9415 39.7626 10.9415 39.5926 10.8375 39.4893C10.7402 39.3926 10.5892 39.386 10.4852 39.4659Z" fill="#646464"/>
<path d="M9.86107 39.9025L9.41818 38.876C9.39805 38.886 9.37456 38.896 9.35107 38.9026L9.79397 39.9292C9.67989 39.9959 9.62956 40.1392 9.68325 40.2625C9.74029 40.3992 9.90134 40.4591 10.0355 40.4025C10.1698 40.3458 10.2335 40.1858 10.1765 40.0525C10.1228 39.9292 9.98522 39.8659 9.85772 39.9025H9.86107Z" fill="#646464"/>
<path d="M11.3205 37.8026C11.1829 37.8026 11.0722 37.9026 11.0554 38.0326H9.93808C9.93808 38.0326 9.93808 38.0526 9.93808 38.0626C9.93808 38.076 9.93808 38.0893 9.93808 38.1026H11.0554C11.0722 38.2326 11.1829 38.3326 11.3205 38.3326C11.4681 38.3326 11.5889 38.2126 11.5889 38.066C11.5889 37.9193 11.4681 37.7993 11.3205 37.7993V37.8026Z" fill="#646464"/>
<path d="M9.06601 40.0826V38.9661C9.06601 38.9661 9.04252 38.9661 9.0291 38.9661C9.01568 38.9661 9.00562 38.9661 8.99219 38.9661V40.0826C8.86134 40.0993 8.76068 40.2093 8.76068 40.3459C8.76068 40.4926 8.88147 40.6126 9.0291 40.6126C9.17673 40.6126 9.29752 40.4926 9.29752 40.3459C9.29752 40.2093 9.19687 40.0993 9.06601 40.0826Z" fill="#646464"/>
<path d="M8.41857 38.7294C8.4018 38.7128 8.38502 38.6961 8.36824 38.6794L7.57304 39.4694C7.46903 39.3894 7.31804 39.396 7.22074 39.4927C7.11673 39.596 7.11673 39.766 7.22074 39.8693C7.32475 39.9726 7.49587 39.9726 7.59989 39.8693C7.69719 39.7727 7.7039 39.6227 7.62337 39.5194L8.41857 38.7294Z" fill="#646464"/>
<path d="M8.40832 39.9859L8.77069 38.9293C8.7472 38.9227 8.72371 38.916 8.70358 38.906L8.34121 39.9626C8.21036 39.9359 8.0795 40.0092 8.03588 40.1359C7.98891 40.2759 8.06272 40.4258 8.20365 40.4758C8.34457 40.5225 8.49555 40.4492 8.54588 40.3092C8.5895 40.1825 8.52911 40.0426 8.41167 39.9859H8.40832Z" fill="#646464"/>
<path d="M7.25749 39.0427L8.2473 38.5228C8.23388 38.5028 8.22381 38.4828 8.21375 38.4595L7.22394 38.9794C7.14677 38.8728 7.00249 38.8361 6.88171 38.8994C6.75085 38.9694 6.70052 39.1294 6.77098 39.2594C6.84144 39.3894 7.00249 39.4394 7.13335 39.3694C7.25414 39.3061 7.30447 39.1661 7.25749 39.0427Z" fill="#646464"/>
<path d="M16.9308 56.8242C16.3771 56.8242 15.8437 56.6008 15.4544 56.2109C15.0652 56.6008 14.5284 56.8242 13.9781 56.8242C12.8306 56.8242 11.8945 55.8943 11.8945 54.7544C11.8945 54.4144 11.9784 54.0811 12.1428 53.7811C11.3241 53.4812 10.7805 52.7113 10.7805 51.838C10.7805 50.6981 11.7167 49.7682 12.8642 49.7682C13.0386 49.7682 13.2098 49.7882 13.3775 49.8315C13.4379 48.7483 14.3539 47.8784 15.4578 47.8784C16.5617 47.8784 17.4777 48.7483 17.5381 49.8349C17.7058 49.7916 17.8803 49.7682 18.0514 49.7682C19.1989 49.7682 20.135 50.7448 20.135 51.948C20.135 52.8212 19.625 53.6178 18.8567 53.9578C18.9641 54.2144 19.0177 54.4811 19.0177 54.7544C19.0177 55.8943 18.0816 56.8242 16.9341 56.8242H16.9308ZM15.4544 56.0042L15.5081 56.0609C15.8772 56.4575 16.3939 56.6842 16.9341 56.6842C18.0044 56.6842 18.8735 55.8209 18.8735 54.7577C18.8735 54.4811 18.8131 54.2078 18.6956 53.9511L18.6654 53.8845L18.7359 53.8578C19.4875 53.5612 19.9941 52.7946 19.9941 51.9513C19.9941 50.8281 19.1251 49.9149 18.0548 49.9149C17.8669 49.9149 17.6756 49.9449 17.4944 50.0015L17.4039 50.0315V49.9349C17.3938 48.8817 16.5214 48.0251 15.4645 48.0251C14.4076 48.0251 13.5386 48.8783 13.5252 49.9282V50.0215L13.4346 49.9949C13.25 49.9382 13.0621 49.9115 12.8709 49.9115C11.8006 49.9115 10.9315 50.7748 10.9315 51.838C10.9315 52.6779 11.4717 53.4145 12.277 53.6745L12.3609 53.7011L12.3139 53.7778C12.1361 54.0744 12.0421 54.4144 12.0421 54.7544C12.0421 55.8176 12.9111 56.6808 13.9815 56.6808C14.5183 56.6808 15.0384 56.4542 15.4075 56.0576L15.4612 56.0009L15.4544 56.0042Z" fill="#646464"/>
<path d="M16.9309 56.5243C16.4309 56.5243 15.9646 56.321 15.6223 55.9543C15.5351 55.861 15.3673 55.861 15.2801 55.9543C14.9378 56.321 14.4748 56.5243 13.9715 56.5243C12.9884 56.5243 12.1932 55.731 12.1932 54.7578C12.1932 54.4445 12.2805 54.1345 12.4415 53.8612C12.4784 53.8012 12.4851 53.7279 12.4583 53.6612C12.4315 53.5946 12.3811 53.5446 12.3107 53.5246C11.5725 53.2879 11.0759 52.6113 11.0759 51.8414C11.0759 50.8649 11.8745 50.0749 12.8542 50.0749C13.0287 50.0749 13.2032 50.1016 13.3709 50.1516C13.4414 50.1716 13.5186 50.1583 13.5756 50.1183C13.6326 50.0749 13.6696 50.0083 13.6696 49.935C13.6796 48.9717 14.4782 48.1885 15.4478 48.1885C16.4175 48.1885 17.2161 48.9751 17.2261 49.9383C17.2261 50.0116 17.263 50.0816 17.3234 50.1216C17.3838 50.1649 17.461 50.1749 17.5315 50.1549C17.6992 50.1016 17.8704 50.0749 18.0448 50.0749C19.0279 50.0749 19.8231 50.9182 19.8231 51.9548C19.8231 52.7313 19.3601 53.4379 18.6689 53.7112C18.6085 53.7346 18.5615 53.7812 18.5381 53.8412C18.5146 53.9012 18.5179 53.9679 18.5414 54.0245C18.6521 54.2612 18.7058 54.5078 18.7058 54.7645C18.7058 55.741 17.9073 56.5309 16.9275 56.5309L16.9309 56.5243ZM15.4546 55.771C15.5485 55.771 15.6391 55.811 15.7028 55.881C16.025 56.2276 16.4611 56.4176 16.9309 56.4176C17.8536 56.4176 18.6052 55.671 18.6052 54.7578C18.6052 54.5178 18.5515 54.2845 18.4508 54.0645C18.4106 53.9812 18.4106 53.8846 18.4441 53.7979C18.4777 53.7112 18.5481 53.6446 18.6354 53.6112C19.2863 53.3546 19.7225 52.688 19.7225 51.9548C19.7225 50.9782 18.9709 50.1816 18.0515 50.1816C17.8905 50.1816 17.7294 50.2083 17.5717 50.2549C17.4711 50.2883 17.357 50.2683 17.2698 50.2083C17.1825 50.1449 17.1288 50.045 17.1288 49.9383C17.1188 49.0317 16.3705 48.2918 15.4579 48.2918C14.5453 48.2918 13.7971 49.0284 13.787 49.9316C13.787 50.0383 13.7333 50.1383 13.6494 50.1983C13.5622 50.2616 13.4515 50.2783 13.3508 50.2483C13.1931 50.2016 13.0287 50.1783 12.8676 50.1783C11.9449 50.1783 11.1934 50.9249 11.1934 51.8414C11.1934 52.5647 11.6597 53.2013 12.3543 53.4246C12.4516 53.4546 12.5321 53.5279 12.569 53.6246C12.6059 53.7212 12.5959 53.8279 12.5455 53.9145C12.3945 54.1712 12.3107 54.4612 12.3107 54.7578C12.3107 55.6744 13.0622 56.4176 13.9849 56.4176C14.4547 56.4176 14.8909 56.2276 15.213 55.881C15.2767 55.811 15.3673 55.771 15.4613 55.771H15.4546Z" fill="#646464"/>
<path d="M15.4543 53.4479C14.9141 53.4479 14.4745 53.0113 14.4745 52.4747C14.4745 51.9381 14.9141 51.5015 15.4543 51.5015C15.9945 51.5015 16.434 51.9381 16.434 52.4747C16.434 53.0113 15.9945 53.4479 15.4543 53.4479ZM15.4543 51.6448C14.9946 51.6448 14.6188 52.0181 14.6188 52.4747C14.6188 52.9313 14.9946 53.3046 15.4543 53.3046C15.914 53.3046 16.2897 52.9313 16.2897 52.4747C16.2897 52.0181 15.914 51.6448 15.4543 51.6448Z" fill="#646464"/>
<path d="M15.4175 50.4682V51.5747C15.4175 51.5747 15.441 51.5747 15.4544 51.5747C15.4678 51.5747 15.4779 51.5747 15.4913 51.5747V50.4682C15.6222 50.4515 15.7228 50.3415 15.7228 50.2049C15.7228 50.0582 15.6021 49.9382 15.4544 49.9382C15.3068 49.9382 15.186 50.0582 15.186 50.2049C15.186 50.3415 15.2867 50.4515 15.4175 50.4682Z" fill="#646464"/>
<path d="M14.6222 50.6484L15.0618 51.665C15.0819 51.655 15.1054 51.645 15.1289 51.6383L14.6893 50.6217C14.8034 50.5551 14.8537 50.4118 14.8001 50.2884C14.743 50.1518 14.582 50.0918 14.4477 50.1485C14.3102 50.2051 14.2498 50.3651 14.3068 50.4984C14.3605 50.6217 14.4981 50.6851 14.6256 50.6484H14.6222Z" fill="#646464"/>
<path d="M13.428 52.5146H14.5453C14.5453 52.5146 14.5453 52.4879 14.5453 52.4746C14.5453 52.4646 14.5453 52.4546 14.5453 52.4446H13.428C13.4112 52.3146 13.3005 52.2146 13.1629 52.2146C13.0153 52.2146 12.8945 52.3346 12.8945 52.4812C12.8945 52.6279 13.0153 52.7479 13.1629 52.7479C13.3005 52.7479 13.4112 52.6479 13.428 52.5179V52.5146Z" fill="#646464"/>
<path d="M13.2029 51.9849C13.3304 52.0282 13.4713 51.9715 13.5284 51.8515L14.5819 52.2148C14.5886 52.1915 14.5953 52.1682 14.6054 52.1482L13.5519 51.7849C13.5787 51.6549 13.5082 51.5249 13.3774 51.4782C13.2365 51.4283 13.0855 51.5049 13.0351 51.6416C12.9848 51.7782 13.062 51.9315 13.1996 51.9815L13.2029 51.9849Z" fill="#646464"/>
<path d="M16.075 50.5648L15.7159 51.6113C15.7394 51.618 15.7596 51.628 15.783 51.6347L16.1421 50.5881C16.2729 50.6148 16.4038 50.5414 16.4474 50.4148C16.4944 50.2748 16.4205 50.1248 16.2796 50.0748C16.1387 50.0282 15.9877 50.1015 15.9374 50.2415C15.8938 50.3681 15.9542 50.5081 16.0716 50.5648H16.075Z" fill="#646464"/>
<path d="M17.2261 51.5081L16.2397 52.0248C16.2531 52.0448 16.2632 52.0648 16.2732 52.0881L17.2597 51.5681C17.3369 51.6748 17.4811 51.7115 17.6019 51.6481C17.7328 51.5781 17.7831 51.4182 17.7126 51.2882C17.6422 51.1582 17.4811 51.1082 17.3503 51.1782C17.2295 51.2415 17.1792 51.3815 17.2261 51.5048V51.5081Z" fill="#646464"/>
<path d="M16.0719 51.8147C16.0886 51.8314 16.1054 51.848 16.1222 51.8647L16.9107 51.0815C17.0147 51.1614 17.1657 51.1548 17.263 51.0581C17.367 50.9548 17.367 50.7848 17.263 50.6815C17.159 50.5782 16.9879 50.5782 16.8838 50.6815C16.7865 50.7782 16.7798 50.9281 16.8604 51.0315L16.0719 51.8147Z" fill="#646464"/>
<path d="M13.9947 51.0849L14.7832 51.8681C14.8 51.8515 14.8168 51.8348 14.8336 51.8181L14.0451 51.0349C14.1256 50.9316 14.1189 50.7816 14.0216 50.6849C13.9176 50.5816 13.7464 50.5816 13.6424 50.6849C13.5384 50.7882 13.5384 50.9582 13.6424 51.0615C13.7397 51.1582 13.8907 51.1649 13.9947 51.0849Z" fill="#646464"/>
<path d="M17.7024 52.9779C17.5749 52.9346 17.434 52.9913 17.3769 53.1113L16.32 52.7446C16.3133 52.768 16.3032 52.788 16.2965 52.8113L17.3535 53.1779C17.3266 53.3079 17.3971 53.4379 17.5279 53.4846C17.6688 53.5345 17.8198 53.4579 17.8702 53.3212C17.9205 53.1812 17.8433 53.0313 17.7058 52.9813L17.7024 52.9779Z" fill="#646464"/>
<path d="M16.9107 53.8778L16.1155 53.0879C16.0987 53.1046 16.0819 53.1212 16.0651 53.1379L16.8603 53.9278C16.7798 54.0311 16.7865 54.1811 16.8838 54.2778C16.9878 54.3811 17.1589 54.3811 17.263 54.2778C17.367 54.1744 17.367 54.0045 17.263 53.9011C17.1657 53.8045 17.0147 53.7978 16.9107 53.8778Z" fill="#646464"/>
<path d="M16.2865 54.3144L15.8436 53.2878C15.8235 53.2978 15.8 53.3078 15.7765 53.3145L16.2194 54.3411C16.1053 54.4077 16.055 54.551 16.1087 54.6744C16.1657 54.811 16.3268 54.871 16.461 54.8144C16.5952 54.7577 16.6589 54.5977 16.6019 54.4644C16.5482 54.3411 16.4106 54.2777 16.2831 54.3144H16.2865Z" fill="#646464"/>
<path d="M17.7428 52.2145C17.6053 52.2145 17.4946 52.3145 17.4778 52.4445H16.3605C16.3605 52.4445 16.3605 52.4645 16.3605 52.4745C16.3605 52.4878 16.3605 52.5012 16.3605 52.5145H17.4778C17.4946 52.6445 17.6053 52.7445 17.7428 52.7445C17.8905 52.7445 18.0113 52.6245 18.0113 52.4778C18.0113 52.3312 17.8905 52.2112 17.7428 52.2112V52.2145Z" fill="#646464"/>
<path d="M15.488 54.4911V53.3745C15.488 53.3745 15.4646 53.3745 15.4511 53.3745C15.4377 53.3745 15.4276 53.3745 15.4142 53.3745V54.4911C15.2834 54.5077 15.1827 54.6177 15.1827 54.7544C15.1827 54.901 15.3035 55.021 15.4511 55.021C15.5988 55.021 15.7196 54.901 15.7196 54.7544C15.7196 54.6177 15.6189 54.5077 15.488 54.4911Z" fill="#646464"/>
<path d="M14.8403 53.1379C14.8235 53.1212 14.8067 53.1046 14.7899 53.0879L13.9947 53.8778C13.8907 53.7978 13.7397 53.8045 13.6424 53.9011C13.5384 54.0045 13.5384 54.1744 13.6424 54.2778C13.7464 54.3811 13.9176 54.3811 14.0216 54.2778C14.1189 54.1811 14.1256 54.0311 14.0451 53.9278L14.8403 53.1379Z" fill="#646464"/>
<path d="M14.8303 54.3943L15.1927 53.3378C15.1692 53.3311 15.1457 53.3245 15.1256 53.3145L14.7632 54.371C14.6324 54.3443 14.5015 54.4177 14.4579 54.5443C14.4109 54.6843 14.4848 54.8343 14.6257 54.8843C14.7666 54.9309 14.9176 54.8576 14.9679 54.7176C15.0115 54.591 14.9511 54.451 14.8337 54.3943H14.8303Z" fill="#646464"/>
<path d="M13.6795 53.4512L14.6693 52.9312C14.6559 52.9112 14.6458 52.8913 14.6358 52.8679L13.646 53.3879C13.5688 53.2812 13.4245 53.2445 13.3037 53.3079C13.1729 53.3779 13.1225 53.5379 13.193 53.6678C13.2635 53.7978 13.4245 53.8478 13.5554 53.7778C13.6762 53.7145 13.7265 53.5745 13.6795 53.4512Z" fill="#646464"/>
<path d="M111.902 42.4123C111.348 42.4123 110.815 42.189 110.425 41.799C110.036 42.189 109.499 42.4123 108.949 42.4123C107.802 42.4123 106.865 41.4824 106.865 40.3425C106.865 40.0025 106.949 39.6692 107.114 39.3693C106.295 39.0693 105.751 38.2994 105.751 37.4261C105.751 36.2863 106.688 35.3564 107.835 35.3564C108.01 35.3564 108.181 35.3764 108.348 35.4197C108.409 34.3365 109.325 33.4666 110.429 33.4666C111.533 33.4666 112.449 34.3365 112.509 35.423C112.677 35.3797 112.851 35.3564 113.022 35.3564C114.17 35.3564 115.106 36.3329 115.106 37.5361C115.106 38.4094 114.596 39.206 113.828 39.5459C113.935 39.8026 113.989 40.0692 113.989 40.3425C113.989 41.4824 113.053 42.4123 111.905 42.4123H111.902ZM110.422 41.5924L110.476 41.649C110.845 42.0457 111.361 42.2723 111.902 42.2723C112.972 42.2723 113.841 41.4091 113.841 40.3458C113.841 40.0692 113.781 39.7959 113.663 39.5393L113.633 39.4726L113.703 39.4459C114.455 39.1493 114.962 38.3827 114.962 37.5395C114.962 36.4162 114.093 35.503 113.022 35.503C112.834 35.503 112.643 35.533 112.462 35.5897L112.371 35.6197V35.523C112.361 34.4698 111.489 33.6132 110.432 33.6132C109.375 33.6132 108.506 34.4664 108.493 35.5163V35.6097L108.402 35.583C108.218 35.5263 108.03 35.4997 107.838 35.4997C106.768 35.4997 105.899 36.3629 105.899 37.4261C105.899 38.2661 106.439 39.0026 107.245 39.2626L107.328 39.2893L107.281 39.3659C107.104 39.6626 107.01 40.0025 107.01 40.3425C107.01 41.4057 107.879 42.269 108.949 42.269C109.486 42.269 110.006 42.0423 110.375 41.6457L110.429 41.589L110.422 41.5924Z" fill="#646464"/>
<path d="M111.901 42.1124C111.401 42.1124 110.935 41.9091 110.593 41.5425C110.506 41.4491 110.338 41.4491 110.251 41.5425C109.908 41.9091 109.445 42.1124 108.942 42.1124C107.959 42.1124 107.164 41.3192 107.164 40.3459C107.164 40.0326 107.251 39.7227 107.412 39.4494C107.449 39.3894 107.456 39.316 107.429 39.2494C107.402 39.1827 107.352 39.1327 107.281 39.1127C106.543 38.8761 106.046 38.1995 106.046 37.4296C106.046 36.453 106.845 35.6631 107.825 35.6631C107.999 35.6631 108.174 35.6897 108.341 35.7397C108.412 35.7597 108.489 35.7464 108.546 35.7064C108.603 35.6631 108.64 35.5964 108.64 35.5231C108.65 34.5599 109.449 33.7766 110.418 33.7766C111.388 33.7766 112.187 34.5632 112.197 35.5264C112.197 35.5998 112.234 35.6697 112.294 35.7097C112.354 35.7531 112.432 35.7631 112.502 35.7431C112.67 35.6897 112.841 35.6631 113.015 35.6631C113.998 35.6631 114.794 36.5063 114.794 37.5429C114.794 38.3195 114.331 39.0261 113.639 39.2994C113.579 39.3227 113.532 39.3694 113.509 39.4294C113.485 39.4894 113.488 39.556 113.512 39.6127C113.623 39.8493 113.676 40.096 113.676 40.3526C113.676 41.3292 112.878 42.1191 111.898 42.1191L111.901 42.1124ZM110.422 41.3592C110.516 41.3592 110.606 41.3992 110.67 41.4691C110.992 41.8158 111.428 42.0058 111.898 42.0058C112.821 42.0058 113.572 41.2592 113.572 40.3459C113.572 40.106 113.519 39.8726 113.418 39.6527C113.378 39.5693 113.378 39.4727 113.411 39.386C113.445 39.2994 113.515 39.2327 113.603 39.1994C114.253 38.9427 114.69 38.2761 114.69 37.5429C114.69 36.5663 113.938 35.7697 113.019 35.7697C112.858 35.7697 112.697 35.7964 112.539 35.8431C112.438 35.8764 112.324 35.8564 112.237 35.7964C112.15 35.7331 112.096 35.6331 112.096 35.5264C112.086 34.6199 111.338 33.8799 110.425 33.8799C109.512 33.8799 108.764 34.6165 108.754 35.5198C108.754 35.6264 108.7 35.7264 108.617 35.7864C108.529 35.8497 108.419 35.8664 108.318 35.8364C108.16 35.7897 107.996 35.7664 107.835 35.7664C106.912 35.7664 106.161 36.513 106.161 37.4296C106.161 38.1528 106.627 38.7894 107.321 39.0127C107.419 39.0427 107.499 39.1161 107.536 39.2127C107.573 39.3094 107.563 39.416 107.513 39.5027C107.362 39.7593 107.278 40.0493 107.278 40.3459C107.278 41.2625 108.029 42.0058 108.952 42.0058C109.422 42.0058 109.858 41.8158 110.18 41.4691C110.244 41.3992 110.335 41.3592 110.428 41.3592H110.422Z" fill="#646464"/>
<path d="M110.422 39.0361C109.882 39.0361 109.442 38.5994 109.442 38.0628C109.442 37.5262 109.882 37.0896 110.422 37.0896C110.962 37.0896 111.402 37.5262 111.402 38.0628C111.402 38.5994 110.962 39.0361 110.422 39.0361ZM110.422 37.2329C109.962 37.2329 109.587 37.6062 109.587 38.0628C109.587 38.5195 109.962 38.8927 110.422 38.8927C110.882 38.8927 111.258 38.5195 111.258 38.0628C111.258 37.6062 110.882 37.2329 110.422 37.2329Z" fill="#646464"/>
<path d="M110.388 36.0597V37.1663C110.388 37.1663 110.412 37.1663 110.425 37.1663C110.439 37.1663 110.449 37.1663 110.462 37.1663V36.0597C110.593 36.0431 110.694 35.9331 110.694 35.7964C110.694 35.6498 110.573 35.5298 110.425 35.5298C110.278 35.5298 110.157 35.6498 110.157 35.7964C110.157 35.9331 110.258 36.0431 110.388 36.0597Z" fill="#646464"/>
<path d="M109.59 36.2363L110.029 37.2528C110.049 37.2428 110.073 37.2329 110.096 37.2262L109.657 36.2096C109.771 36.143 109.821 35.9996 109.768 35.8763C109.711 35.7397 109.549 35.6797 109.415 35.7363C109.278 35.793 109.217 35.953 109.274 36.0863C109.328 36.2096 109.466 36.273 109.593 36.2363H109.59Z" fill="#646464"/>
<path d="M108.399 38.1061H109.516C109.516 38.1061 109.516 38.0795 109.516 38.0661C109.516 38.0561 109.516 38.0461 109.516 38.0361H108.399C108.382 37.9061 108.271 37.8062 108.133 37.8062C107.986 37.8062 107.865 37.9261 107.865 38.0728C107.865 38.2194 107.986 38.3394 108.133 38.3394C108.271 38.3394 108.382 38.2394 108.399 38.1095V38.1061Z" fill="#646464"/>
<path d="M108.174 37.573C108.301 37.6163 108.442 37.5597 108.499 37.4397L109.553 37.803C109.56 37.7796 109.566 37.7563 109.576 37.7363L108.523 37.373C108.55 37.243 108.479 37.113 108.348 37.0664C108.207 37.0164 108.056 37.093 108.006 37.2297C107.956 37.3664 108.033 37.5197 108.17 37.5697L108.174 37.573Z" fill="#646464"/>
<path d="M111.046 36.1563L110.687 37.2029C110.711 37.2095 110.731 37.2195 110.754 37.2262L111.113 36.1797C111.244 36.2063 111.375 36.133 111.419 36.0063C111.466 35.8664 111.392 35.7164 111.251 35.6664C111.11 35.6197 110.959 35.693 110.909 35.833C110.865 35.9597 110.925 36.0997 111.043 36.1563H111.046Z" fill="#646464"/>
<path d="M112.197 37.0963L111.21 37.6129C111.224 37.6329 111.234 37.6529 111.244 37.6762L112.23 37.1563C112.307 37.2629 112.452 37.2996 112.572 37.2363C112.703 37.1663 112.754 37.0063 112.683 36.8763C112.613 36.7463 112.452 36.6963 112.321 36.7663C112.2 36.8296 112.15 36.9696 112.197 37.0929V37.0963Z" fill="#646464"/>
<path d="M111.043 37.4065C111.06 37.4232 111.076 37.4398 111.093 37.4565L111.882 36.6733C111.986 36.7532 112.137 36.7466 112.234 36.6499C112.338 36.5466 112.338 36.3766 112.234 36.2733C112.13 36.17 111.959 36.17 111.855 36.2733C111.757 36.3699 111.751 36.5199 111.831 36.6233L111.043 37.4065Z" fill="#646464"/>
<path d="M108.966 36.6733L109.754 37.4565C109.771 37.4398 109.788 37.4232 109.804 37.4065L109.016 36.6233C109.096 36.5199 109.09 36.3699 108.992 36.2733C108.888 36.17 108.717 36.17 108.613 36.2733C108.509 36.3766 108.509 36.5466 108.613 36.6499C108.711 36.7466 108.862 36.7532 108.966 36.6733Z" fill="#646464"/>
<path d="M112.673 38.5663C112.546 38.523 112.405 38.5796 112.348 38.6996L111.291 38.333C111.284 38.3563 111.274 38.3763 111.267 38.3997L112.324 38.7663C112.297 38.8963 112.368 39.0263 112.499 39.0729C112.64 39.1229 112.791 39.0463 112.841 38.9096C112.891 38.7696 112.814 38.6196 112.677 38.5696L112.673 38.5663Z" fill="#646464"/>
<path d="M111.882 39.4659L111.086 38.676C111.07 38.6927 111.053 38.7094 111.036 38.726L111.831 39.5159C111.751 39.6193 111.757 39.7692 111.855 39.8659C111.959 39.9692 112.13 39.9692 112.234 39.8659C112.338 39.7626 112.338 39.5926 112.234 39.4893C112.137 39.3926 111.986 39.386 111.882 39.4659Z" fill="#646464"/>
<path d="M111.254 39.9025L110.811 38.876C110.791 38.886 110.768 38.896 110.744 38.9026L111.187 39.9292C111.073 39.9959 111.023 40.1392 111.076 40.2625C111.133 40.3992 111.294 40.4591 111.428 40.4025C111.563 40.3458 111.626 40.1858 111.569 40.0525C111.516 39.9292 111.378 39.8659 111.251 39.9025H111.254Z" fill="#646464"/>
<path d="M112.714 37.8026C112.576 37.8026 112.465 37.9026 112.449 38.0326H111.331C111.331 38.0326 111.331 38.0526 111.331 38.0626C111.331 38.076 111.331 38.0893 111.331 38.1026H112.449C112.465 38.2326 112.576 38.3326 112.714 38.3326C112.861 38.3326 112.982 38.2126 112.982 38.066C112.982 37.9193 112.861 37.7993 112.714 37.7993V37.8026Z" fill="#646464"/>
<path d="M110.459 40.0826V38.9661C110.459 38.9661 110.435 38.9661 110.422 38.9661C110.409 38.9661 110.399 38.9661 110.385 38.9661V40.0826C110.254 40.0993 110.154 40.2093 110.154 40.3459C110.154 40.4926 110.274 40.6126 110.422 40.6126C110.57 40.6126 110.69 40.4926 110.69 40.3459C110.69 40.2093 110.59 40.0993 110.459 40.0826Z" fill="#646464"/>
<path d="M109.811 38.7294C109.794 38.7128 109.778 38.6961 109.761 38.6794L108.966 39.4694C108.862 39.3894 108.711 39.396 108.613 39.4927C108.509 39.596 108.509 39.766 108.613 39.8693C108.717 39.9726 108.888 39.9726 108.992 39.8693C109.09 39.7727 109.096 39.6227 109.016 39.5194L109.811 38.7294Z" fill="#646464"/>
<path d="M109.801 39.9859L110.164 38.9293C110.14 38.9227 110.117 38.916 110.096 38.906L109.734 39.9626C109.603 39.9359 109.472 40.0092 109.429 40.1359C109.382 40.2759 109.456 40.4258 109.597 40.4758C109.737 40.5225 109.888 40.4492 109.939 40.3092C109.982 40.1825 109.922 40.0426 109.805 39.9859H109.801Z" fill="#646464"/>
<path d="M108.65 39.0427L109.64 38.5228C109.627 38.5028 109.617 38.4828 109.607 38.4595L108.617 38.9794C108.54 38.8728 108.395 38.8361 108.275 38.8994C108.144 38.9694 108.093 39.1294 108.164 39.2594C108.234 39.3894 108.395 39.4394 108.526 39.3694C108.647 39.3061 108.697 39.1661 108.65 39.0427Z" fill="#646464"/>
<path d="M105.705 55.9377C105.151 55.9377 104.617 55.7144 104.228 55.3244C103.839 55.7144 103.302 55.9377 102.752 55.9377C101.604 55.9377 100.668 55.0078 100.668 53.8679C100.668 53.5279 100.752 53.1946 100.917 52.8947C100.098 52.5947 99.5544 51.8248 99.5544 50.9515C99.5544 49.8116 100.491 48.8817 101.638 48.8817C101.812 48.8817 101.984 48.9017 102.151 48.9451C102.212 47.8619 103.128 46.9919 104.232 46.9919C105.336 46.9919 106.252 47.8619 106.312 48.9484C106.48 48.9051 106.654 48.8817 106.825 48.8817C107.973 48.8817 108.909 49.8583 108.909 51.0615C108.909 51.9348 108.399 52.7313 107.631 53.0713C107.738 53.328 107.792 53.5946 107.792 53.8679C107.792 55.0078 106.855 55.9377 105.708 55.9377H105.705ZM104.225 55.1178L104.279 55.1744C104.648 55.571 105.164 55.7977 105.705 55.7977C106.775 55.7977 107.644 54.9345 107.644 53.8712C107.644 53.5946 107.584 53.3213 107.466 53.0646L107.436 52.998L107.506 52.9713C108.258 52.6747 108.765 51.9081 108.765 51.0649C108.765 49.9416 107.896 49.0284 106.825 49.0284C106.637 49.0284 106.446 49.0584 106.265 49.1151L106.174 49.1451V49.0484C106.164 47.9952 105.292 47.1386 104.235 47.1386C103.178 47.1386 102.309 47.9918 102.296 49.0417V49.1351L102.205 49.1084C102.021 49.0517 101.833 49.0251 101.641 49.0251C100.571 49.0251 99.702 49.8883 99.702 50.9515C99.702 51.7914 100.242 52.528 101.047 52.788L101.131 52.8147L101.084 52.8913C100.907 53.188 100.813 53.5279 100.813 53.8679C100.813 54.9311 101.682 55.7944 102.752 55.7944C103.289 55.7944 103.809 55.5677 104.178 55.1711L104.232 55.1144L104.225 55.1178Z" fill="#646464"/>
<path d="M105.704 55.6341C105.204 55.6341 104.738 55.4308 104.396 55.0642C104.309 54.9709 104.141 54.9709 104.054 55.0642C103.711 55.4308 103.248 55.6341 102.745 55.6341C101.762 55.6341 100.967 54.8409 100.967 53.8677C100.967 53.5544 101.054 53.2444 101.215 52.9711C101.252 52.9111 101.259 52.8378 101.232 52.7711C101.205 52.7044 101.155 52.6544 101.084 52.6345C100.346 52.3978 99.8494 51.7212 99.8494 50.9513C99.8494 49.9747 100.648 49.1848 101.628 49.1848C101.802 49.1848 101.977 49.2115 102.144 49.2615C102.215 49.2815 102.292 49.2681 102.349 49.2281C102.406 49.1848 102.443 49.1181 102.443 49.0448C102.453 48.0816 103.252 47.2983 104.221 47.2983C105.191 47.2983 105.99 48.0849 106 49.0482C106 49.1215 106.037 49.1915 106.097 49.2315C106.157 49.2748 106.235 49.2848 106.305 49.2648C106.473 49.2115 106.644 49.1848 106.818 49.1848C107.801 49.1848 108.597 50.0281 108.597 51.0646C108.597 51.8412 108.134 52.5478 107.442 52.8211C107.382 52.8444 107.335 52.8911 107.312 52.9511C107.288 53.0111 107.291 53.0777 107.315 53.1344C107.426 53.371 107.479 53.6177 107.479 53.8743C107.479 54.8509 106.681 55.6408 105.701 55.6408L105.704 55.6341ZM104.225 54.8842C104.319 54.8842 104.409 54.9242 104.473 54.9942C104.795 55.3408 105.231 55.5308 105.701 55.5308C106.624 55.5308 107.375 54.7842 107.375 53.871C107.375 53.631 107.322 53.3977 107.221 53.1777C107.181 53.0944 107.181 52.9977 107.214 52.9111C107.248 52.8244 107.318 52.7578 107.405 52.7244C108.056 52.4678 108.493 51.8012 108.493 51.0679C108.493 50.0914 107.741 49.2948 106.822 49.2948C106.661 49.2948 106.5 49.3215 106.342 49.3681C106.241 49.4015 106.127 49.3815 106.04 49.3215C105.953 49.2581 105.899 49.1581 105.899 49.0515C105.889 48.1449 105.141 47.405 104.228 47.405C103.315 47.405 102.567 48.1416 102.557 49.0448C102.557 49.1515 102.503 49.2515 102.42 49.3115C102.332 49.3748 102.222 49.3915 102.121 49.3615C101.963 49.3148 101.799 49.2915 101.638 49.2915C100.715 49.2915 99.9635 50.0381 99.9635 50.9546C99.9635 51.6779 100.43 52.3145 101.124 52.5378C101.222 52.5678 101.302 52.6411 101.339 52.7378C101.376 52.8344 101.366 52.9411 101.316 53.0277C101.165 53.2844 101.081 53.5744 101.081 53.871C101.081 54.7876 101.832 55.5308 102.755 55.5308C103.225 55.5308 103.661 55.3408 103.983 54.9942C104.047 54.9242 104.137 54.8842 104.231 54.8842H104.225Z" fill="#646464"/>
<path d="M104.225 52.5615C103.685 52.5615 103.245 52.1248 103.245 51.5882C103.245 51.0516 103.685 50.615 104.225 50.615C104.765 50.615 105.204 51.0516 105.204 51.5882C105.204 52.1248 104.765 52.5615 104.225 52.5615ZM104.225 50.7583C103.765 50.7583 103.389 51.1316 103.389 51.5882C103.389 52.0448 103.765 52.4181 104.225 52.4181C104.684 52.4181 105.06 52.0448 105.06 51.5882C105.06 51.1316 104.684 50.7583 104.225 50.7583Z" fill="#646464"/>
<path d="M104.191 49.5817V50.6883C104.191 50.6883 104.215 50.6883 104.228 50.6883C104.242 50.6883 104.252 50.6883 104.265 50.6883V49.5817C104.396 49.565 104.497 49.4551 104.497 49.3184C104.497 49.1717 104.376 49.0518 104.228 49.0518C104.081 49.0518 103.96 49.1717 103.96 49.3184C103.96 49.4551 104.06 49.565 104.191 49.5817Z" fill="#646464"/>
<path d="M103.393 49.7619L103.832 50.7785C103.852 50.7685 103.876 50.7585 103.899 50.7518L103.46 49.7353C103.574 49.6686 103.624 49.5253 103.57 49.402C103.513 49.2653 103.352 49.2053 103.218 49.262C103.081 49.3186 103.02 49.4786 103.077 49.6119C103.131 49.7353 103.269 49.7986 103.396 49.7619H103.393Z" fill="#646464"/>
<path d="M102.202 51.6281H103.319C103.319 51.6281 103.319 51.6014 103.319 51.5881C103.319 51.5781 103.319 51.5681 103.319 51.5581H102.202C102.185 51.4281 102.074 51.3281 101.936 51.3281C101.789 51.3281 101.668 51.4481 101.668 51.5948C101.668 51.7414 101.789 51.8614 101.936 51.8614C102.074 51.8614 102.185 51.7614 102.202 51.6314V51.6281Z" fill="#646464"/>
<path d="M101.973 51.0984C102.101 51.1417 102.242 51.0851 102.299 50.9651L103.352 51.3284C103.359 51.305 103.366 51.2817 103.376 51.2617L102.322 50.8984C102.349 50.7684 102.279 50.6384 102.148 50.5918C102.007 50.5418 101.856 50.6184 101.806 50.7551C101.755 50.8917 101.832 51.0451 101.97 51.0951L101.973 51.0984Z" fill="#646464"/>
<path d="M104.849 49.6783L104.49 50.7249C104.513 50.7315 104.533 50.7415 104.557 50.7482L104.916 49.7016C105.047 49.7283 105.178 49.655 105.221 49.5283C105.268 49.3883 105.194 49.2383 105.053 49.1883C104.913 49.1417 104.762 49.215 104.711 49.355C104.668 49.4816 104.728 49.6216 104.845 49.6783H104.849Z" fill="#646464"/>
<path d="M105.996 50.6217L105.01 51.1383C105.023 51.1583 105.033 51.1783 105.043 51.2016L106.03 50.6817C106.107 50.7883 106.251 50.825 106.372 50.7617C106.503 50.6917 106.553 50.5317 106.483 50.4017C106.412 50.2717 106.251 50.2217 106.12 50.2917C106 50.355 105.949 50.495 105.996 50.6183V50.6217Z" fill="#646464"/>
<path d="M104.845 50.9285C104.862 50.9451 104.879 50.9618 104.896 50.9785L105.684 50.1952C105.788 50.2752 105.939 50.2686 106.036 50.1719C106.14 50.0686 106.14 49.8986 106.036 49.7953C105.932 49.6919 105.761 49.6919 105.657 49.7953C105.56 49.8919 105.553 50.0419 105.634 50.1452L104.845 50.9285Z" fill="#646464"/>
<path d="M102.769 50.1984L103.557 50.9817C103.574 50.965 103.591 50.9483 103.607 50.9317L102.819 50.1484C102.899 50.0451 102.893 49.8951 102.795 49.7984C102.691 49.6951 102.52 49.6951 102.416 49.7984C102.312 49.9018 102.312 50.0717 102.416 50.1751C102.514 50.2717 102.665 50.2784 102.769 50.1984Z" fill="#646464"/>
<path d="M106.476 52.0917C106.348 52.0484 106.207 52.105 106.15 52.225L105.094 51.8584C105.087 51.8817 105.077 51.9017 105.07 51.9251L106.127 52.2917C106.1 52.4217 106.171 52.5517 106.301 52.5983C106.442 52.6483 106.593 52.5717 106.644 52.435C106.694 52.295 106.617 52.145 106.479 52.095L106.476 52.0917Z" fill="#646464"/>
<path d="M105.681 52.9913L104.886 52.2014C104.869 52.2181 104.852 52.2347 104.836 52.2514L105.631 53.0413C105.55 53.1447 105.557 53.2946 105.654 53.3913C105.758 53.4946 105.929 53.4946 106.033 53.3913C106.137 53.288 106.137 53.118 106.033 53.0147C105.936 52.918 105.785 52.9113 105.681 52.9913Z" fill="#646464"/>
<path d="M105.057 53.4279L104.614 52.4014C104.594 52.4114 104.57 52.4214 104.547 52.428L104.99 53.4546C104.876 53.5213 104.825 53.6646 104.879 53.7879C104.936 53.9245 105.097 53.9845 105.231 53.9279C105.366 53.8712 105.429 53.7112 105.372 53.5779C105.319 53.4546 105.181 53.3913 105.054 53.4279H105.057Z" fill="#646464"/>
<path d="M106.516 51.328C106.379 51.328 106.268 51.428 106.251 51.558H105.134C105.134 51.558 105.134 51.578 105.134 51.588C105.134 51.6013 105.134 51.6147 105.134 51.628H106.251C106.268 51.758 106.379 51.858 106.516 51.858C106.664 51.858 106.785 51.738 106.785 51.5913C106.785 51.4447 106.664 51.3247 106.516 51.3247V51.328Z" fill="#646464"/>
<path d="M104.262 53.6046V52.488C104.262 52.488 104.238 52.488 104.225 52.488C104.212 52.488 104.201 52.488 104.188 52.488V53.6046C104.057 53.6213 103.957 53.7312 103.957 53.8679C103.957 54.0145 104.077 54.1345 104.225 54.1345C104.373 54.1345 104.493 54.0145 104.493 53.8679C104.493 53.7312 104.393 53.6213 104.262 53.6046Z" fill="#646464"/>
<path d="M103.614 52.2514C103.597 52.2347 103.581 52.2181 103.564 52.2014L102.769 52.9913C102.665 52.9113 102.514 52.918 102.416 53.0147C102.312 53.118 102.312 53.288 102.416 53.3913C102.52 53.4946 102.691 53.4946 102.795 53.3913C102.893 53.2946 102.899 53.1447 102.819 53.0413L103.614 52.2514Z" fill="#646464"/>
<path d="M103.604 53.5079L103.967 52.4513C103.943 52.4446 103.92 52.438 103.899 52.428L103.537 53.4845C103.406 53.4579 103.275 53.5312 103.232 53.6579C103.185 53.7978 103.259 53.9478 103.399 53.9978C103.54 54.0445 103.691 53.9711 103.742 53.8312C103.785 53.7045 103.725 53.5645 103.608 53.5079H103.604Z" fill="#646464"/>
<path d="M102.453 52.565L103.443 52.045C103.43 52.025 103.42 52.005 103.41 51.9817L102.42 52.5016C102.343 52.395 102.198 52.3583 102.078 52.4216C101.947 52.4916 101.896 52.6516 101.967 52.7816C102.037 52.9116 102.198 52.9616 102.329 52.8916C102.45 52.8283 102.5 52.6883 102.453 52.565Z" fill="#646464"/>
<path d="M59.593 74.8356C43.8433 74.8356 29.0063 71.046 17.8198 64.1633C6.32804 57.0941 0 47.5951 0 37.4161C0 27.2372 6.32804 17.7415 17.8165 10.6722C29.0063 3.78961 43.8433 0 59.593 0C75.3426 0 90.1796 3.78961 101.366 10.6722C112.858 17.7415 119.183 27.2372 119.183 37.4161C119.183 47.5951 112.855 57.0941 101.366 64.16C90.1762 71.0426 75.3426 74.8322 59.593 74.8322V74.8356ZM59.593 0.666597C43.9675 0.666597 29.2546 4.42287 18.1721 11.2388C6.88502 18.1814 0.671054 27.4771 0.671054 37.4161C0.671054 47.3551 6.88502 56.6508 18.1721 63.5934C29.258 70.4127 43.9675 74.1656 59.593 74.1656C75.2185 74.1656 89.9313 70.4094 101.014 63.5934C112.298 56.6508 118.515 47.3551 118.515 37.4161C118.515 27.4771 112.301 18.1814 101.014 11.2388C89.928 4.42287 75.2185 0.666597 59.593 0.666597Z" fill="#646464"/>
<path d="M59.5929 73.0025C27.7514 73.0025 1.84531 57.0409 1.84531 37.4196C1.84531 17.7983 27.7514 1.83325 59.5929 1.83325C91.4344 1.83325 117.34 17.7949 117.34 37.4196C117.34 57.0442 91.4344 73.0025 59.5929 73.0025ZM59.5929 2.16655C27.9359 2.16655 2.18083 17.9816 2.18083 37.4162C2.18083 56.8509 27.9359 72.6659 59.5929 72.6659C91.2499 72.6659 117.005 56.8509 117.005 37.4162C117.005 17.9816 91.2499 2.16655 59.5929 2.16655Z" fill="#646464"/>
<path d="M45.2524 37.2628C43.7795 37.0229 42.7259 36.023 41.9978 34.6664C40.9241 35.493 39.7129 36.1796 38.3104 36.6462L37.8775 35.7863C39.2264 35.0297 40.3705 34.1698 41.3234 33.1366C40.6993 31.3134 40.4242 29.1303 40.3202 27.1839H37.5655V29.507C38.3271 29.2503 39.072 28.9737 39.7632 28.6971L40.1457 29.507C39.4008 30.0736 38.5184 30.6235 37.5655 31.1235V35.2497C37.5655 37.4695 35.4013 37.8828 32.4219 36.3329L32.6299 35.473C35.2604 35.853 35.4684 35.6963 35.4684 34.6998V32.12C34.4652 32.5333 33.4586 32.8933 32.489 33.1699L31.7776 31.0735C33.0057 30.8168 34.2538 30.5069 35.4651 30.1602V27.1839H32.0528V26.0673H35.4651V24.3308C34.4619 24.5042 33.4217 24.6075 32.4521 24.6741L32.3145 23.7442C34.8611 23.1943 37.0052 22.421 38.7029 21.4211L40.1054 23.091C39.4142 23.4009 38.5285 23.6742 37.5588 23.9176V26.0673H40.2598C40.2262 24.7775 40.2061 23.5043 40.2262 21.4911H42.3199C42.3031 23.5209 42.3199 24.7941 42.3535 26.0673H47.0643V27.1839H42.4071C42.4944 28.5071 42.6487 29.8503 42.9104 31.0535C43.4976 30.1069 44.0009 29.057 44.4337 27.8705L46.3899 28.6971C45.6785 30.3302 44.7625 31.8801 43.5681 33.1866C43.9506 34.0798 44.4673 34.7531 45.1249 35.0431C45.7121 35.2997 45.8362 34.9731 45.8161 32.2067H46.7153C47.5978 35.4564 47.4602 37.6428 45.2424 37.2628H45.2524ZM44.8565 25.6707C44.2861 24.5542 43.4708 23.211 42.8131 22.2144L43.5245 21.6111C44.6485 22.3344 45.8631 23.4676 46.6046 24.4475L44.8565 25.6674V25.6707Z" fill="#646464"/>
<path d="M54.9626 32.1199L55.8451 32.3766C55.7243 34.0464 55.1002 35.7462 54.1305 36.8328L52.4697 35.3863C53.6641 34.5264 54.4426 33.4598 54.9626 32.1166V32.1199ZM52.4864 32.2066C53.5937 30.6401 53.6474 28.767 53.6306 25.1707V23.1909H61.492C61.4383 22.6076 61.4048 21.9877 61.388 21.3677H63.2938C63.3105 22.0043 63.3441 22.6076 63.3978 23.1909H65.5619C64.9915 22.7109 64.4178 22.2276 63.9011 21.851L64.3171 21.1111C65.3204 21.4044 66.29 21.7643 67.2094 22.2976L66.6222 23.1909H67.9375V24.2574H63.5052C63.6427 25.5306 63.8507 26.6305 64.1796 27.5437C64.5956 26.7172 64.9412 25.8406 65.2029 24.8607L66.9678 25.5306C66.5182 26.7505 65.9109 28.0237 65.0452 29.1769C65.374 29.5735 65.7565 29.8635 66.2229 30.0368C66.8101 30.2601 66.951 29.9668 66.951 28.057H67.7999C68.528 30.9634 68.0247 32.4266 66.2934 32.0633C65.2532 31.84 64.4245 31.3234 63.7836 30.5668C63.1428 31.1334 62.4315 31.65 61.5859 32.0633L61.0826 31.34C61.794 30.7734 62.4315 30.1201 62.9884 29.4136C62.2603 28.0537 61.8443 26.2839 61.6027 24.2541H55.7343V25.354C55.7343 29.4302 54.9727 31.27 53.1877 32.8532L52.4965 32.1999L52.4864 32.2066ZM61.3712 26.3405H56.1236V25.324H61.3712V26.3405ZM61.2504 30.7767H56.194V27.2338H61.2504V30.7767ZM64.1594 33.0998C65.0419 36.1262 64.2802 36.7628 62.7234 36.8661C61.5121 36.9528 60.1767 36.9528 59.0359 36.8994C57.2543 36.8295 56.3517 36.5561 56.3517 35.0596V31.7566H58.4286V34.2164C58.4286 34.903 58.5662 35.0763 59.5728 35.1296C60.6129 35.1996 61.5289 35.1796 62.361 35.113C63.1059 35.0263 63.2971 34.8197 63.2803 33.0998H64.1628H64.1594ZM59.5526 28.197H57.9086V29.7435H59.5526V28.197ZM59.5191 31.3967C60.472 31.7933 61.596 32.5332 62.4986 33.3065L61.2169 34.6463C60.4384 33.6664 59.6936 32.8399 58.9822 32.0999L59.5191 31.3933V31.3967ZM68.1757 35.6629L66.3404 36.6261C65.8907 35.2496 65.2667 33.9264 64.6426 32.7232L65.3539 32.2433C66.4276 33.1198 67.5717 34.583 68.1757 35.6662V35.6629Z" fill="#646464"/>
<path d="M82.5934 33.5629L82.8014 34.4228C80.134 35.5227 76.6546 36.3659 74.0912 36.7459L73.5208 34.5261C74.6649 34.4928 75.8594 34.4062 77.0874 34.2862V31.7931H74.1281V30.7432H77.0874V28.7301H79.3388V30.7432H82.2814V31.7931H79.3388V34.0462C80.446 33.9095 81.5365 33.7529 82.5934 33.5629ZM75.7554 26.9236C76.101 26.0104 76.517 24.6538 76.7955 23.4673H73.7825V22.4007H82.8383V23.4673H79.3589C78.6677 24.6205 77.6981 25.977 76.9364 26.8903C78.1141 26.8569 79.2918 26.7703 80.3286 26.667C80.0166 26.047 79.7045 25.4637 79.4093 24.9805L80.0837 24.4305C81.1406 25.3238 82.4391 26.7703 83.2343 27.9902V23.174H85.0696V33.6329H83.2343V28.2501L81.4862 29.23C81.2781 28.7134 81.0366 28.1635 80.7916 27.6302C78.8691 28.2668 76.0808 28.9034 74.1415 29.1434L73.6382 26.9603C74.3294 26.9603 75.0407 26.9436 75.752 26.9269L75.7554 26.9236ZM88.0659 21.4375V35.2494C88.0659 37.3492 86.2137 38.1558 82.9222 36.246L83.147 35.4027C85.6937 35.8327 86.0393 35.7294 86.0393 34.8694V21.4375H88.0659Z" fill="#646464"/>
<path d="M57.7878 53.5576V54.7775H42.8468V53.5576H49.2889V49.5147H44.5613V48.3615H49.2889V44.9218H46.2054C45.427 46.365 44.4741 47.6382 43.4004 48.6015L42.726 48.0349C44.0949 45.8684 44.9606 43.3053 45.4438 40.259L47.7824 40.7756C47.5408 41.7888 47.1952 42.8221 46.7624 43.7853H49.2889V39.6924H51.6611V43.7853H56.6638V44.9218H51.6611V48.3615H56.3517V49.5147H51.6611V53.5576H57.7912H57.7878Z" fill="#646464"/>
<path d="M76.9699 55.3809C74.5642 54.8309 74.4769 49.8081 74.4769 46.0085H65.005V44.9953C64.6225 45.2886 64.2266 45.5452 63.8105 45.7852L63.3073 45.0786C64.9513 43.4954 65.9747 41.6556 66.7196 39.4192L68.9542 40.0558C68.7965 40.3991 68.6086 40.7624 68.4173 41.1057H77.4732V42.1389H67.7597C67.0148 43.1888 66.0988 44.1854 65.0252 44.9953H76.6075C76.6075 47.7283 76.6948 52.5278 77.282 53.0444C77.594 53.3711 77.6443 52.7878 77.6443 50.6547H78.5435C79.3052 54.5776 78.3523 55.9708 76.9666 55.3842L76.9699 55.3809ZM70.3902 51.0647C71.9303 51.5813 73.7321 52.4578 74.7521 53.1111L73.5744 54.7976C72.6383 53.9544 71.5142 52.9911 70.3869 52.1479V55.5542H68.2932V52.3712C67.2027 53.3844 65.3506 54.4876 63.7032 54.9676L63.3576 54.211C64.9513 53.3844 66.629 52.0279 67.6859 50.7014H64.0488V49.6881H66.4209C65.9177 48.6916 65.2969 47.7117 64.8104 46.9717L65.4345 46.4218C66.2834 46.9384 67.3202 47.885 67.961 48.6416L66.6122 49.6915H68.2932V46.4418H70.3701V49.6915H71.3565L70.7325 49.1415C71.1821 48.4183 71.7558 47.3517 72.1182 46.3018L73.8663 47.2484C73.2087 48.1083 72.1685 49.1415 71.3901 49.6915H74.2119V50.7047H70.3869V51.0647H70.3902ZM67.1859 44.0287V43.0655H76.0841V44.0287H67.1859Z" fill="#646464"/>
</svg>
