<svg width="119" height="75" viewBox="0 0 119 75" fill="none" xmlns="http://www.w3.org/2000/svg">
<g clip-path="url(#clip0_211_717)">
<path d="M59.5 72.6051C27.7081 72.6051 1.84251 56.8217 1.84251 37.4161C1.84251 18.0106 27.7081 2.23047 59.5 2.23047C91.2918 2.23047 117.157 18.0139 117.157 37.4161C117.157 56.8184 91.2918 72.6051 59.5 72.6051ZM59.5 2.56005C27.8924 2.56005 2.17752 18.1985 2.17752 37.4161C2.17752 56.6338 27.8924 72.2755 59.5 72.2755C91.1076 72.2755 116.822 56.6371 116.822 37.4161C116.822 18.1952 91.1076 2.56005 59.5 2.56005Z" fill="#646464"/>
<path d="M59.5 63.1659C34.837 63.1659 14.7703 51.6142 14.7703 37.416C14.7703 23.2178 34.8337 11.6694 59.5 11.6694C84.1663 11.6694 104.23 23.2211 104.23 37.4193C104.23 51.6175 84.163 63.1692 59.5 63.1692V63.1659ZM59.5 11.999C35.0213 11.999 15.1053 23.4024 15.1053 37.4193C15.1053 51.4362 35.0213 62.8396 59.5 62.8396C83.9787 62.8396 103.895 51.4362 103.895 37.4193C103.895 23.4024 83.9787 11.999 59.5 11.999Z" fill="#646464"/>
<path d="M32.549 14.8303L32.4786 15.4861C31.2123 15.4795 29.6478 14.9555 28.7333 13.6141L28.6562 13.6405C28.7634 15.2323 28.0365 16.4584 26.4385 17.4735L26.2844 17.2922C27.6311 16.2738 28.1839 15.1499 28.1303 13.8086L25.4703 14.6589L25.3799 14.382L26.3715 14.0656L25.6579 11.9036L27.5306 11.3038L27.1286 10.0876L27.6278 9.92944L28.0298 11.1456L29.8756 10.5556L30.5892 12.7177L31.5875 12.398L31.6779 12.6748L28.9745 13.5383C29.7751 14.4348 31.0984 14.8896 32.5523 14.8303H32.549ZM28.1068 13.5119C28.0599 13.0604 27.9494 12.5858 27.7785 12.075L27.6144 11.5773L26.204 12.0289L26.8304 13.9206L28.1068 13.5119ZM28.1135 11.4158L28.3313 12.0717C28.4787 12.5199 28.5792 12.9385 28.6261 13.3439L30.1135 12.8693L29.487 10.9775L28.1102 11.4191L28.1135 11.4158Z" fill="#646464"/>
<path d="M58.907 7.49034C59.041 7.14428 59.165 6.67628 59.232 6.2742L58.5151 6.30056L58.6357 9.57327C58.6558 10.1171 58.3442 10.4994 57.0243 9.97205L57.0813 9.75124C58.0394 9.89955 58.1499 9.86659 58.1332 9.48098L58.0159 6.31704L56.763 6.36318L56.753 6.08634L58.5385 6.02372C58.2605 5.71392 57.8317 5.29535 57.4866 4.97237L57.6206 4.79439C57.8317 4.90975 58.0963 5.06794 58.3375 5.24262C58.562 4.90645 58.7965 4.478 58.9104 4.15501L56.9104 4.22752L56.9004 3.96056L58.9003 3.88806L59.0578 3.77271L59.5703 4.05285C59.2923 4.54062 58.8836 5.05806 58.5419 5.39093C58.7094 5.50958 58.8601 5.63482 58.9673 5.74028L58.706 6.02701L59.1918 6.01054L59.3358 5.88859L59.8249 6.10941C59.6306 6.64662 59.2923 7.30577 59.0879 7.58921L58.9003 7.50022L58.907 7.49034ZM60.9506 8.79217L61.4196 9.08879C60.8534 9.58975 59.979 10.0775 59.1851 10.3313L59.0879 10.1237C59.7278 9.84682 60.4481 9.34915 60.9506 8.79217ZM61.1415 4.17809L59.7043 4.23082L59.6943 3.94738L63.2185 3.82214L63.2286 4.10558L61.6876 4.16161C61.5502 4.48459 61.3928 4.81087 61.2688 5.03499L62.7964 4.97896L62.9304 8.56476L60.1264 8.66693L59.9924 5.08113L61.0109 5.04487C61.0678 4.78121 61.108 4.44504 61.1415 4.18138V4.17809ZM62.3274 5.28547L60.4749 5.35138L60.505 6.12918L62.3576 6.06327L62.3274 5.28547ZM62.3643 6.34341L60.5117 6.40932L60.5419 7.22997L62.3944 7.16406L62.3643 6.34341ZM62.4078 7.44749L60.5552 7.51341L60.5854 8.36372L62.438 8.2978L62.4078 7.44749ZM63.6239 9.63259L63.3224 10.1072C62.9271 9.79408 62.2135 9.3096 61.6407 8.97673L61.7378 8.7691C62.3576 8.95696 63.0711 9.28983 63.6239 9.63259Z" fill="#646464"/>
<path d="M63.309 68.4162C62.9974 68.3536 62.6021 68.2448 62.1901 68.0932L62.2738 70.3871L61.7948 70.4036L61.7814 70.0608L58.639 70.1728L58.6524 70.5288L58.1801 70.5453L58.093 68.2382C57.701 68.4195 57.299 68.5777 56.9071 68.7029L56.8267 68.4953C57.7881 68.1328 58.9472 67.4901 59.5033 66.7947L56.9741 66.887L56.964 66.6035L58.8534 66.5343C58.6223 66.2805 58.3677 66.0202 58.17 65.8389L58.2538 65.7269C58.1198 65.74 57.9891 65.7499 57.8618 65.7565L57.825 65.539C59.4497 65.3643 60.7898 65.0314 61.4598 64.7843L61.9187 65.1666C61.4799 65.2852 60.9003 65.4072 60.2705 65.5027L60.3073 66.4816L60.8769 66.4618C61.0879 66.1718 61.3392 65.7466 61.5167 65.3775L61.9522 65.6082C61.6909 65.9378 61.4363 66.2377 61.1851 66.4486L63.1683 66.3761L63.1783 66.6596L60.4279 66.7584C61.2889 67.4341 62.505 67.7603 63.5066 67.8988L63.3123 68.4129L63.309 68.4162ZM57.5637 65.9872L57.0779 66.0037L57.0277 64.6458L60.1566 64.5338C59.7713 64.336 59.2923 64.1284 58.8936 63.9768L58.9539 63.7659C59.3693 63.8219 60.0159 63.9438 60.4949 64.1383L60.3174 64.5305L62.9941 64.4349L63.0443 65.7862L62.5586 65.8027L62.5184 64.7414L57.5235 64.9194L57.5637 65.9872ZM61.9355 67.9943C61.3358 67.7472 60.7228 67.3978 60.3241 66.9628L60.3576 67.8493L59.8718 67.8658L59.8417 67.0518C59.4933 67.4505 58.9472 67.8098 58.3375 68.1229L61.9388 67.9943H61.9355ZM59.2688 66.3465L59.0913 66.5277L59.8216 66.5014L59.7881 65.572C59.3325 65.6313 58.8534 65.684 58.3911 65.7236C58.706 65.885 59.0276 66.1158 59.2722 66.3465H59.2688ZM59.902 68.3503L58.5754 68.3964L58.5955 68.9831L59.9221 68.9369L59.8986 68.3503H59.902ZM59.9355 69.2204L58.6089 69.2665L58.6323 69.8894L59.9589 69.8433L59.9355 69.2204ZM61.7177 68.2844L60.3743 68.3338L60.3978 68.9205L61.7412 68.871L61.7211 68.2844H61.7177ZM61.7512 69.1545L60.4079 69.2039L60.4313 69.8268L61.7747 69.7774L61.7512 69.1545Z" fill="#646464"/>
<path d="M30.0967 62.1079L29.477 64.5534C29.3195 65.173 28.7534 65.1532 27.8354 64.5402L27.9226 64.3523C28.8539 64.6951 28.9544 64.6951 29.0549 64.3029L29.5708 62.2727C29.2257 62.3683 28.8874 62.4474 28.5624 62.5034L28.4619 61.9761C28.817 61.953 29.2492 61.9069 29.6847 61.8343L30.0967 60.2128L29.0951 59.9656L29.1654 59.6921L30.1671 59.9393L30.5222 58.5386L30.9811 58.6506L30.626 60.0513L31.3999 60.2425L31.3295 60.516L30.5557 60.3249L30.1939 61.7421C30.4418 61.6926 30.6863 61.63 30.9074 61.5674L30.9644 61.7684C30.6964 61.897 30.4016 62.0123 30.1001 62.1112L30.0967 62.1079ZM34.3881 65.8816L34.0531 66.3364C33.7114 66.1782 32.5155 65.4729 32.3848 64.0985H32.3781C31.6846 65.1466 30.5925 65.3773 29.4435 65.262L29.4267 65.0576C30.5289 65.0972 31.3496 64.7972 31.899 63.9799L30.1168 63.5416L30.1872 63.2614L32.0565 63.7195C32.1704 63.5086 32.2776 63.2647 32.3647 62.9879L32.8304 63.1329C32.7466 63.3965 32.6495 63.6338 32.5356 63.8382L34.6193 64.349L34.5489 64.6325L32.616 64.1579C32.8873 65.0345 33.7416 65.5948 34.3915 65.8816H34.3881ZM32.9677 59.0791L33.4099 59.3691C33.2592 59.5405 33.1218 59.6954 32.9811 59.8338L33.8756 60.0546L34.0498 59.9986L34.4518 60.3611C34.2005 60.6347 33.7583 60.9676 33.4334 61.1587L34.8739 61.5147L34.2608 63.9239L33.8086 63.8118L34.3513 61.6761L31.9024 61.073L31.353 63.2285L30.9007 63.1164L31.4702 60.8753C31.3128 60.9478 31.152 61.0137 30.9878 61.0697L30.9007 60.8753C31.6712 60.5094 32.4217 59.8865 32.9644 59.0758L32.9677 59.0791ZM33.3362 61.5806C33.2391 61.7223 33.1453 61.8475 33.0414 61.9629C33.3898 62.3023 33.6779 62.688 33.8421 62.9747L33.4468 63.2153C33.3061 62.8725 33.1084 62.4869 32.8873 62.1277C32.5188 62.4935 32.1 62.744 31.6344 62.8989L31.5406 62.6945C32.1201 62.3946 32.5825 61.9794 32.951 61.3367L33.3362 61.5806ZM31.7516 60.7434L33.1352 61.0829C33.3898 60.8621 33.6444 60.5721 33.8153 60.3282L32.7332 60.0612C32.4016 60.348 32.0799 60.5655 31.755 60.7401L31.7516 60.7434Z" fill="#646464"/>
<path d="M89.5331 60.5195C89.4661 60.7634 89.3857 61.0106 89.2919 61.2446L92.5079 60.2163L93.6201 63.5879L93.1444 63.7395L92.9903 63.2781L90.1394 64.191L90.3002 64.6821L89.8212 64.8337L88.91 62.0784C88.6051 62.6585 88.2232 63.1924 87.7978 63.6406L87.6169 63.4923C88.2869 62.6519 88.776 61.6862 89.0172 60.6843L87.1713 61.2743L87.0808 60.9974L89.0942 60.3514C89.1277 60.1504 89.1646 59.9494 89.1813 59.745L87.2785 60.3547L87.1881 60.0845L89.2014 59.4385C89.2182 59.2276 89.2148 59.0134 89.2014 58.8057C88.4678 59.1188 87.7006 59.4089 87.0172 59.6198L86.92 59.422C88.7726 58.7069 90.2466 57.9093 91.2014 57.2271L91.791 57.4874C91.332 57.7939 90.5716 58.1894 89.7274 58.5684C89.7408 58.8024 89.7508 59.0364 89.7341 59.2704L92.3605 58.43L92.451 58.7003L89.714 59.5769C89.6905 59.7846 89.6537 59.9856 89.6068 60.19L93.0473 59.0892L93.1377 59.366L89.5297 60.5195H89.5331ZM92.1193 60.6448L89.2684 61.5577L89.4661 62.1509L92.317 61.238L92.1193 60.6448ZM92.4041 61.5017L89.5532 62.4146L89.7575 63.0309L92.6084 62.118L92.4041 61.5017ZM92.6922 62.3718L89.8413 63.2847L90.0523 63.9208L92.9032 63.0078L92.6922 62.3718Z" fill="#646464"/>
<path d="M92.9468 15.8651C92.6788 15.697 92.3505 15.4499 92.0255 15.1598L91.2516 17.3252L90.7994 17.1703L90.9133 16.8473L87.9485 15.819L87.8279 16.1552L87.3823 16.0003L88.1629 13.8218C87.7308 13.8481 87.2986 13.8547 86.8865 13.825V13.6009C87.9183 13.6108 89.2349 13.4296 90.0121 12.9813L87.6235 12.1541L87.7207 11.8871L89.5029 12.5034C89.3823 12.1838 89.2416 11.8509 89.1277 11.6103L89.2483 11.5378C89.121 11.5015 88.9937 11.4653 88.8731 11.4224L88.92 11.2082C90.4979 11.6301 91.868 11.8047 92.585 11.8146L92.8664 12.3354C92.4141 12.2859 91.8312 12.1936 91.2081 12.0519L90.8764 12.978L91.4124 13.1626C91.7173 12.9681 92.1059 12.6649 92.4108 12.3848L92.7324 12.7572C92.3672 12.9681 92.0188 13.156 91.7072 13.2648L93.5799 13.914L93.4828 14.181L90.8865 13.2812C91.4359 14.2172 92.4443 14.9588 93.3287 15.4499L92.9535 15.8585L92.9468 15.8651ZM89.5063 15.3971L88.2534 14.9621L88.0423 15.552L89.2952 15.9871L89.5063 15.3971ZM88.5013 11.5312L88.0423 11.373L88.5013 10.0909L91.4526 11.1126C91.1679 10.7929 90.7994 10.4238 90.4878 10.1404L90.6218 9.9624C90.987 10.1667 91.5431 10.5128 91.9183 10.8654L91.6067 11.1654L94.1327 12.0387L93.6771 13.3142L93.2181 13.156L93.5766 12.1541L88.8631 10.5227L88.5013 11.5312ZM89.8011 14.5732L88.5482 14.1381L88.3505 14.6918L89.6034 15.1269L89.8011 14.5732ZM91.8245 14.9753C91.3588 14.5303 90.92 13.9832 90.7089 13.4329L90.4108 14.27L89.9518 14.1118L90.2265 13.3439C89.7542 13.5878 89.111 13.7262 88.4276 13.7987L91.8245 14.9753ZM89.9552 12.4804L89.7207 12.5858L90.4108 12.8231L90.7257 11.9465C90.2801 11.8377 89.8145 11.7158 89.3689 11.5839C89.6034 11.8509 89.8145 12.1772 89.9552 12.4804ZM91.2181 15.9904L89.9518 15.552L89.7408 16.142L91.0071 16.5803L91.2181 15.9904ZM91.5129 15.1664L90.2466 14.7281L90.049 15.2818L91.3153 15.7201L91.5129 15.1664Z" fill="#646464"/>
<path d="M40.9509 9.65254C41.1653 9.22409 41.383 8.66381 41.5673 8.02772C41.1787 8.22217 40.7264 8.41662 40.3847 8.54846L40.177 8.11671L40.5522 8.04091C40.6996 7.44108 40.8236 6.63361 40.8638 5.80967L41.3864 5.8624C41.2457 6.57758 41.0078 7.44108 40.7934 7.97829C41.0815 7.90578 41.373 7.82668 41.641 7.74429C41.7214 7.43778 41.7917 7.11479 41.8453 6.78522L42.3478 6.89398C42.1167 7.79702 41.6678 8.87144 41.2356 9.55696C41.5874 9.44161 41.9525 9.31307 42.2942 9.17795C42.1669 8.99668 42.0396 8.822 41.9291 8.67369L42.0966 8.53857C42.4249 8.81541 42.8302 9.2175 43.0848 9.58003L42.7163 9.84369C42.6259 9.69868 42.5254 9.53389 42.4182 9.3691C41.8654 9.71516 41.1385 10.081 40.7231 10.2458L40.4852 9.77448C40.6293 9.73823 40.7867 9.70198 40.9509 9.65254ZM41.1954 10.4402H41.4065C41.5472 11.2081 41.5572 11.953 41.4668 12.4671L40.9375 12.3419C41.1083 11.8475 41.2222 11.1818 41.1988 10.4402H41.1954ZM41.909 10.2194C42.177 10.6841 42.4986 11.4059 42.656 11.8113L42.1803 11.9925C42.0731 11.5476 41.8721 10.8094 41.7113 10.2853L41.909 10.2161V10.2194ZM43.2222 10.9379L42.8369 11.1851C42.6493 10.7764 42.4316 10.3842 42.2306 10.0217L42.4115 9.90302C42.7063 10.2095 42.9743 10.5622 43.2255 10.9346L43.2222 10.9379ZM44.579 9.04941L43.1686 9.32626L42.5622 6.34358L43.8285 6.0931C43.862 5.81296 43.8721 5.49987 43.8687 5.17358L44.3913 5.19006C44.3076 5.48009 44.2004 5.79648 44.0898 6.04037L46.0362 5.65806L46.6426 8.64074L44.6359 9.03623C45.0346 9.18784 45.5237 9.43831 45.9089 9.71186L45.6242 10.1238C45.259 9.78107 44.8202 9.46138 44.4751 9.2175L44.5756 9.04941H44.579ZM43.5639 8.96043L43.919 8.89122L43.8185 8.76927C44.12 8.5155 44.4047 8.20899 44.6292 7.83327C44.4215 7.74099 44.2138 7.64871 44.0094 7.56302C43.9056 7.76077 43.7917 7.93874 43.6811 8.09364L43.5002 7.98817C43.594 7.8135 43.6711 7.64212 43.7314 7.46085C43.6175 7.41801 43.5036 7.37186 43.3897 7.33561L43.4399 7.14116L43.8118 7.22355C43.8922 6.95001 43.9525 6.66327 43.9893 6.35347L43.0714 6.53474L43.5672 8.96372L43.5639 8.96043ZM43.4399 9.97552L43.6644 9.96893C43.7816 10.5819 43.785 11.1455 43.6543 11.6893L43.1485 11.5311C43.3796 11.0104 43.4634 10.5951 43.4399 9.97552ZM46.2372 10.0316C46.6392 10.9313 46.6124 11.2839 46.0831 11.4257C45.7247 11.5179 45.3629 11.5905 45.0547 11.63C44.4483 11.7124 44.2741 11.5773 44.1669 11.0434L43.8587 9.53389L44.3277 9.44161L44.6259 10.9016C44.6828 11.1851 44.7967 11.2246 45.0748 11.1917C45.316 11.1587 45.6208 11.106 45.8922 11.0236C46.1702 10.9412 46.2004 10.8819 46.0195 10.0876L46.2339 10.0381L46.2372 10.0316ZM45.6342 6.02719L44.1233 6.3271L44.4315 6.36336C44.398 6.50178 44.3746 6.63361 44.331 6.76215L44.924 6.6435L45.0547 6.50508L45.4801 6.63032C45.4031 7.0291 45.2892 7.36527 45.1451 7.64541C45.4064 7.75088 45.6543 7.85634 45.8989 7.97829L45.6744 8.36389C45.45 8.22877 45.2088 8.10682 44.9575 7.97829C44.6929 8.37708 44.3813 8.65392 44.0764 8.86155L46.1334 8.45617L45.6376 6.02719H45.6342ZM44.1334 7.30595C44.3478 7.36527 44.5655 7.43448 44.7833 7.51029C44.8704 7.31584 44.9341 7.10161 44.981 6.86432L44.2506 7.00933C44.2104 7.11479 44.1702 7.21037 44.13 7.30595H44.1334ZM47.4298 10.4798L47.0513 10.7698C46.7799 10.3183 46.5052 9.90631 46.1635 9.48446L46.3143 9.34274C46.7263 9.66902 47.1216 10.0513 47.4265 10.4798H47.4298Z" fill="#646464"/>
<path d="M16.4922 21.3492L14.8574 22.4731L15.1824 22.9312L14.7603 23.2212L12.9177 20.6241L14.9747 19.2103L14.1539 18.0567L14.5894 17.7568L15.4102 18.9103L17.4738 17.4932L19.2929 20.054L18.8741 20.3407L18.5726 19.9189L16.9277 21.0493L18.5424 23.3234L18.1069 23.6233L16.4922 21.3492ZM16.3147 21.0987L15.1556 19.4673L13.5207 20.5912L14.6799 22.2226L16.3147 21.0987ZM18.395 19.6684L17.2359 18.037L15.5911 19.1674L16.7502 20.7988L18.395 19.6684Z" fill="#646464"/>
<path d="M78.6723 11.5706L76.8465 11.1223L76.5081 12.4472L76.0358 12.3319L76.3708 11.007L74.7025 10.595C74.1665 11.4222 73.2586 11.6035 72.1162 11.4321L72.1296 11.2014C73.1615 11.2772 73.808 11.1223 74.2234 10.4731L72.4412 10.0347L72.5115 9.76117L74.3675 10.216C74.4445 10.0644 74.5115 9.88641 74.5685 9.68867L73.6238 9.45467L74.2502 6.98943L78.5048 8.03748L77.8783 10.5027L77.0542 10.2984L76.9168 10.8422L78.7426 11.2904L78.6723 11.564V11.5706ZM73.1983 7.0883L73.0945 6.89715C73.7209 6.50495 74.401 5.77329 74.8231 5.03833L75.2787 5.31517C75.1581 5.49315 75.0207 5.67112 74.8633 5.8425L76.7594 6.3105L76.689 6.58405L75.4495 6.28084C75.5802 6.51484 75.684 6.76532 75.7812 7.07512L75.3021 7.1674C75.2653 6.79827 75.2217 6.52472 75.1648 6.21163L74.6355 6.07979C74.1899 6.51813 73.6673 6.89715 73.1983 7.0883ZM74.1598 9.29977L77.483 10.1171L77.6036 9.63923L74.2804 8.82188L74.1598 9.29977ZM74.344 8.5681L77.6672 9.38546L77.7879 8.90757L74.4646 8.09022L74.344 8.5681ZM74.5316 7.83315L77.8549 8.6505L77.9721 8.19239L74.6489 7.37503L74.5316 7.83315ZM76.4445 10.7301L76.5818 10.1863L75.0509 9.81061C74.9939 10.0051 74.9269 10.183 74.8499 10.3379L76.4478 10.7301H76.4445ZM76.076 7.21024C76.5785 6.90703 77.1547 6.38301 77.5734 5.71396L78.009 6.0007C77.8716 6.18196 77.7142 6.34675 77.5634 6.49836L79.7979 7.04875L79.7275 7.3223L78.21 6.94988C78.344 7.20036 78.4646 7.4772 78.555 7.78371L78.0793 7.85951C78.0425 7.49039 78.0023 7.20365 77.9386 6.88067L77.3021 6.72247C76.9068 7.04546 76.5014 7.26627 76.1765 7.4047L76.076 7.20695V7.21024Z" fill="#646464"/>
<path d="M73.9118 64.8929L73.4328 64.9885L73.1614 63.657L76.2301 63.0505C75.818 62.9154 75.3122 62.7869 74.8934 62.6979L74.9169 62.4771C75.3356 62.4672 75.9956 62.487 76.5014 62.6023L76.3909 63.0176L79.0173 62.5002L79.2887 63.8251L78.8096 63.9206L78.5985 62.8825L73.7008 63.8481L73.9118 64.8962V64.8929ZM79.9821 66.3859C79.6639 66.376 79.2552 66.3298 78.823 66.2441L79.282 68.4952L78.8129 68.5874L78.7426 68.2513L75.6606 68.8577L75.7309 69.2071L75.2686 69.2993L74.8063 67.0351C74.4479 67.2757 74.0793 67.4965 73.7108 67.6811L73.5969 67.49C74.4881 66.9824 75.5232 66.1618 75.9621 65.3873L73.4797 65.8783L73.4227 65.6015L75.2753 65.2356C75.0073 65.0214 74.7125 64.8072 74.4881 64.6589L74.5517 64.5336C74.4244 64.5666 74.2938 64.5996 74.1732 64.6226L74.0994 64.415C75.6773 63.9865 76.9436 63.446 77.5634 63.0934L78.0759 63.3999C77.6639 63.5845 77.1111 63.7987 76.5014 63.9898L76.6991 64.9522L77.2552 64.8434C77.416 64.5238 77.5935 64.0656 77.7108 63.6734L78.1798 63.8316C77.9754 64.1975 77.7744 64.5336 77.56 64.7841L79.5064 64.4018L79.5634 64.6787L76.8632 65.2126C77.8213 65.7432 79.0743 65.8717 80.086 65.852L79.9788 66.3925L79.9821 66.3859ZM75.6539 64.9786L75.5065 65.1862L76.2234 65.0445L76.0391 64.1316C75.6003 64.2634 75.1346 64.3919 74.6857 64.5007C75.0241 64.6127 75.3758 64.7874 75.6572 64.9753L75.6539 64.9786ZM78.555 66.1848C77.9218 66.0365 77.2619 65.7893 76.7962 65.4202L76.9738 66.2903L76.4947 66.3859L76.3339 65.5883C76.0559 66.0365 75.5735 66.4782 75.0241 66.8835L78.555 66.1881V66.1848ZM76.6086 66.8572L75.3055 67.1142L75.4227 67.691L76.7259 67.4339L76.6086 66.8572ZM76.7828 67.7108L75.4797 67.9678L75.6036 68.5809L76.9068 68.3238L76.7828 67.7108ZM78.3875 66.5078L77.0709 66.7682L77.1882 67.3449L78.5047 67.0846L78.3875 66.5078ZM78.5617 67.3614L77.2451 67.6218L77.3691 68.2348L78.6857 67.9744L78.5617 67.3614Z" fill="#646464"/>
<path d="M43.5672 64.3063L42.3177 69.2236L41.852 69.1083L42.8939 65.0149C42.5254 65.3511 42.12 65.6411 41.6811 65.8685L41.5739 65.6642C42.5656 64.9655 43.383 63.901 44.0664 62.6189L44.5421 62.899C44.2473 63.4033 43.929 63.8779 43.5672 64.3063ZM45.0245 66.208C44.5689 66.9792 43.8285 67.8888 43.0379 68.4524L42.8939 68.2744C43.527 67.6746 44.1367 66.7913 44.5521 65.918L45.0278 66.208H45.0245ZM46.4885 64.8996L45.3695 69.2961C45.2121 69.9157 44.6593 70.0278 43.3796 69.128L43.4801 68.9369C44.6593 69.4214 44.8168 69.3917 44.9206 68.983L45.9893 64.7776L44.9709 64.5272C44.589 65.0182 44.1401 65.4533 43.6677 65.7861L43.5136 65.6082C44.2674 64.9259 44.8536 64.013 45.2858 62.9814L45.795 63.2253C45.6208 63.578 45.3997 63.9372 45.1551 64.28L47.7682 64.9226L47.9759 64.8468L48.4315 65.272C48.0395 65.6708 47.4801 66.0795 47.0948 66.2739L46.9508 66.0893C47.2288 65.8356 47.5504 65.4664 47.7246 65.2028L46.4784 64.8963L46.4885 64.8996ZM47.5638 69.2302L46.9843 69.3258C46.9374 68.492 46.7531 67.2692 46.589 66.5112L46.7967 66.442C47.125 67.2198 47.4365 68.4096 47.5638 69.2269V69.2302Z" fill="#646464"/>
<path d="M98.8395 22.282L103.59 26.639L103.389 26.8499L98.6385 22.4929L98.8395 22.282ZM101.861 20.9801L104.685 23.5706L103.044 25.3009L100.22 22.7104L101.861 20.9801ZM100.558 20.4034L100.635 20.1859C101.687 20.5253 103.117 20.667 104.112 20.3935L102.384 18.8082L102.581 18.6006L104.618 20.4693L105.349 19.6981L105.727 20.0441L104.997 20.8153L107.027 22.6775L106.829 22.8851L104.95 21.1614C104.876 22.2951 105.275 23.4157 105.868 24.3583L105.278 24.5429C104.766 23.4981 104.528 22.216 104.752 21.0724L103.623 22.2622L103.245 21.9161L104.303 20.8022C103.228 21.1054 101.667 20.8582 100.561 20.4067L100.558 20.4034ZM100.772 22.8291L102.88 24.7604L103.442 24.1671L101.335 22.2358L100.772 22.8291ZM101.536 22.0249L103.643 23.9562L104.126 23.4454L102.019 21.5141L101.536 22.0249Z" fill="#646464"/>
<path d="M10.4923 42.3564C9.93956 42.3564 9.40691 42.1355 9.0183 41.7499C8.6297 42.1355 8.09369 42.3564 7.54429 42.3564C6.39857 42.3564 5.46391 41.4368 5.46391 40.3097C5.46391 39.9735 5.54766 39.6439 5.71181 39.3473C4.89441 39.0507 4.3517 38.2894 4.3517 37.4259C4.3517 36.2987 5.28636 35.3792 6.43207 35.3792C6.60627 35.3792 6.77713 35.399 6.94463 35.4418C7.00493 34.3707 7.91949 33.5105 9.02165 33.5105C10.1238 33.5105 11.0384 34.3707 11.0987 35.4451C11.2662 35.4023 11.4404 35.3792 11.6112 35.3792C12.7569 35.3792 13.6916 36.3449 13.6916 37.5346C13.6916 38.3981 13.1824 39.1858 12.4152 39.522C12.5224 39.7758 12.576 40.0394 12.576 40.3097C12.576 41.4368 11.6414 42.3564 10.4957 42.3564H10.4923ZM9.01495 41.5456L9.06855 41.6016C9.43706 41.9938 9.95296 42.2179 10.4923 42.2179C11.561 42.2179 12.4286 41.3643 12.4286 40.313C12.4286 40.0394 12.3683 39.7692 12.2511 39.5154L12.2209 39.4495L12.2913 39.4231C13.0417 39.1298 13.5476 38.3718 13.5476 37.5379C13.5476 36.4273 12.6799 35.5242 11.6112 35.5242C11.4236 35.5242 11.2327 35.5539 11.0518 35.6099L10.9613 35.6396V35.544C10.9513 34.5025 10.0803 33.6555 9.025 33.6555C7.96974 33.6555 7.10208 34.4992 7.08868 35.5374V35.6297L6.99823 35.6033C6.81398 35.5473 6.62637 35.5209 6.43542 35.5209C5.36676 35.5209 4.4991 36.3745 4.4991 37.4259C4.4991 38.2564 5.03846 38.9848 5.84247 39.2418L5.92622 39.2682L5.87932 39.344C5.70176 39.6373 5.60796 39.9735 5.60796 40.3097C5.60796 41.361 6.47562 42.2146 7.54429 42.2146C8.08029 42.2146 8.59955 41.9905 8.96805 41.5983L9.02165 41.5423L9.01495 41.5456Z" fill="#646464"/>
<path d="M10.4923 42.0596C9.99316 42.0596 9.5275 41.8586 9.1858 41.496C9.0987 41.4038 8.9312 41.4038 8.8441 41.496C8.50239 41.8586 8.04009 42.0596 7.53758 42.0596C6.55602 42.0596 5.76206 41.2752 5.76206 40.3129C5.76206 40.0031 5.84916 39.6966 6.00996 39.4263C6.04682 39.367 6.05352 39.2945 6.02671 39.2286C5.99991 39.1626 5.94966 39.1132 5.87931 39.0934C5.1423 38.8594 4.6465 38.1904 4.6465 37.4291C4.6465 36.4634 5.44381 35.6823 6.42202 35.6823C6.59622 35.6823 6.77042 35.7087 6.93792 35.7581C7.00828 35.7779 7.08533 35.7647 7.14228 35.7251C7.19923 35.6823 7.23608 35.6164 7.23608 35.5439C7.24613 34.5914 8.04344 33.8169 9.0116 33.8169C9.97976 33.8169 10.7771 34.5947 10.7871 35.5472C10.7871 35.6197 10.824 35.6889 10.8843 35.7284C10.9446 35.7713 11.0216 35.7812 11.092 35.7614C11.2595 35.7087 11.4303 35.6823 11.6045 35.6823C12.5861 35.6823 13.38 36.5161 13.38 37.5411C13.38 38.309 12.9177 39.0077 12.2276 39.278C12.1673 39.3011 12.1204 39.3472 12.097 39.4065C12.0735 39.4659 12.0769 39.5318 12.1003 39.5878C12.2109 39.8218 12.2645 40.0657 12.2645 40.3195C12.2645 41.2851 11.4672 42.0662 10.489 42.0662L10.4923 42.0596ZM9.01495 41.3148C9.10875 41.3148 9.1992 41.3543 9.26285 41.4235C9.58445 41.7663 10.02 41.9542 10.489 41.9542C11.4102 41.9542 12.1606 41.2159 12.1606 40.3129C12.1606 40.0756 12.107 39.8449 12.0065 39.6273C11.9663 39.545 11.9663 39.4494 11.9998 39.3637C12.0333 39.278 12.1037 39.2121 12.1908 39.1791C12.8407 38.9253 13.2762 38.2662 13.2762 37.5411C13.2762 36.5755 12.5258 35.7878 11.6079 35.7878C11.4471 35.7878 11.2863 35.8141 11.1288 35.8603C11.0283 35.8932 10.9144 35.8735 10.8273 35.8141C10.7402 35.7515 10.6866 35.6526 10.6866 35.5472C10.6766 34.6507 9.92951 33.9191 9.0183 33.9191C8.10709 33.9191 7.36003 34.6474 7.34998 35.5406C7.34998 35.646 7.29638 35.7449 7.21263 35.8042C7.12553 35.8669 7.01498 35.8833 6.91447 35.8537C6.75702 35.8075 6.59287 35.7845 6.43207 35.7845C5.51081 35.7845 4.7604 36.5227 4.7604 37.4291C4.7604 38.1442 5.22606 38.7737 5.91951 38.9946C6.01666 39.0242 6.09707 39.0967 6.13392 39.1923C6.17077 39.2879 6.16072 39.3933 6.11047 39.479C5.95971 39.7328 5.87596 40.0195 5.87596 40.3129C5.87596 41.2192 6.62637 41.9542 7.54763 41.9542C8.01664 41.9542 8.45214 41.7663 8.77375 41.4235C8.8374 41.3543 8.92785 41.3148 9.02165 41.3148H9.01495Z" fill="#646464"/>
<path d="M9.01495 39.0178C8.4756 39.0178 8.03674 38.586 8.03674 38.0554C8.03674 37.5248 8.4756 37.093 9.01495 37.093C9.55431 37.093 9.99316 37.5248 9.99316 38.0554C9.99316 38.586 9.55431 39.0178 9.01495 39.0178ZM9.01495 37.2347C8.556 37.2347 8.18079 37.6039 8.18079 38.0554C8.18079 38.5069 8.556 38.876 9.01495 38.876C9.47391 38.876 9.84911 38.5069 9.84911 38.0554C9.84911 37.6039 9.47391 37.2347 9.01495 37.2347Z" fill="#646464"/>
<path d="M8.98144 36.0746V37.1688C8.98144 37.1688 9.00489 37.1688 9.01829 37.1688C9.03169 37.1688 9.04174 37.1688 9.05514 37.1688V36.0746C9.18579 36.0581 9.2863 35.9493 9.2863 35.8142C9.2863 35.6692 9.16569 35.5505 9.01829 35.5505C8.87089 35.5505 8.75029 35.6692 8.75029 35.8142C8.75029 35.9493 8.85079 36.0581 8.98144 36.0746Z" fill="#646464"/>
<path d="M8.18413 36.2493L8.62299 37.2545C8.64309 37.2446 8.66654 37.2347 8.68999 37.2281L8.25114 36.2229C8.36504 36.157 8.41529 36.0153 8.36169 35.8933C8.30474 35.7582 8.14393 35.6989 8.00993 35.7549C7.87258 35.8109 7.81228 35.9691 7.86923 36.101C7.92283 36.2229 8.06018 36.2855 8.18749 36.2493H8.18413Z" fill="#646464"/>
<path d="M6.99487 38.0981H8.11044C8.11044 38.0981 8.11044 38.0718 8.11044 38.0586C8.11044 38.0487 8.11044 38.0388 8.11044 38.0289H6.99487C6.97812 37.9004 6.86757 37.8015 6.73022 37.8015C6.58282 37.8015 6.46222 37.9202 6.46222 38.0652C6.46222 38.2102 6.58282 38.3288 6.73022 38.3288C6.86757 38.3288 6.97812 38.23 6.99487 38.1014V38.0981Z" fill="#646464"/>
<path d="M6.76708 37.5708C6.89438 37.6137 7.03508 37.5576 7.09203 37.439L8.14394 37.7982C8.15064 37.7752 8.15734 37.7521 8.16739 37.7323L7.11548 37.3731C7.14228 37.2445 7.07193 37.116 6.94128 37.0699C6.80058 37.0204 6.64982 37.0962 6.59957 37.2314C6.54932 37.3665 6.62637 37.5181 6.76373 37.5675L6.76708 37.5708Z" fill="#646464"/>
<path d="M9.63806 36.1702L9.2796 37.2051C9.30305 37.2117 9.32315 37.2216 9.3466 37.2282L9.70506 36.1933C9.83571 36.2197 9.96636 36.1472 10.0099 36.0219C10.0568 35.8835 9.98311 35.7352 9.84241 35.6857C9.70171 35.6396 9.55095 35.7121 9.5007 35.8505C9.45715 35.9758 9.51745 36.1142 9.63471 36.1702H9.63806Z" fill="#646464"/>
<path d="M10.7838 37.1027L9.79886 37.6136C9.81226 37.6334 9.82231 37.6531 9.83236 37.6762L10.8173 37.1621C10.8943 37.2675 11.0384 37.3038 11.159 37.2412C11.2896 37.172 11.3399 37.0138 11.2695 36.8852C11.1992 36.7567 11.0384 36.7072 10.9077 36.7765C10.7871 36.8391 10.7369 36.9775 10.7838 37.0994V37.1027Z" fill="#646464"/>
<path d="M9.6347 37.4062C9.65145 37.4227 9.6682 37.4391 9.68496 37.4556L10.4722 36.6811C10.5761 36.7602 10.7268 36.7536 10.824 36.658C10.9278 36.5559 10.9278 36.3878 10.824 36.2856C10.7201 36.1834 10.5493 36.1834 10.4454 36.2856C10.3483 36.3812 10.3416 36.5295 10.422 36.6317L9.6347 37.4062Z" fill="#646464"/>
<path d="M7.56104 36.6811L8.34829 37.4556C8.36504 37.4391 8.38179 37.4227 8.39854 37.4062L7.61129 36.6317C7.69169 36.5295 7.68499 36.3812 7.58784 36.2856C7.48398 36.1834 7.31313 36.1834 7.20928 36.2856C7.10543 36.3878 7.10543 36.5559 7.20928 36.658C7.30643 36.7536 7.45718 36.7602 7.56104 36.6811Z" fill="#646464"/>
<path d="M11.2628 38.553C11.1355 38.5101 10.9948 38.5662 10.9379 38.6848L9.88261 38.3223C9.87591 38.3453 9.86586 38.3651 9.85916 38.3882L10.9144 38.7507C10.8876 38.8792 10.958 39.0078 11.0886 39.0539C11.2293 39.1034 11.3801 39.0276 11.4303 38.8924C11.4806 38.754 11.4035 38.6057 11.2662 38.5563L11.2628 38.553Z" fill="#646464"/>
<path d="M10.4689 39.443L9.6749 38.6619C9.65815 38.6783 9.6414 38.6948 9.62465 38.7113L10.4186 39.4924C10.3382 39.5946 10.3449 39.7429 10.4421 39.8385C10.5459 39.9406 10.7168 39.9406 10.8206 39.8385C10.9245 39.7363 10.9245 39.5682 10.8206 39.466C10.7235 39.3705 10.5727 39.3639 10.4689 39.443Z" fill="#646464"/>
<path d="M9.84575 39.8745L9.40355 38.8594C9.38345 38.8693 9.36 38.8792 9.33655 38.8857L9.77875 39.9008C9.66485 39.9668 9.6146 40.1085 9.6682 40.2304C9.72515 40.3655 9.88595 40.4249 10.02 40.3688C10.154 40.3128 10.2176 40.1546 10.1607 40.0228C10.1071 39.9008 9.9697 39.8382 9.8424 39.8745H9.84575Z" fill="#646464"/>
<path d="M11.303 37.7982C11.1657 37.7982 11.0551 37.8971 11.0384 38.0256H9.92281C9.92281 38.0256 9.92281 38.0454 9.92281 38.0553C9.92281 38.0685 9.92281 38.0817 9.92281 38.0948H11.0384C11.0551 38.2234 11.1657 38.3222 11.303 38.3222C11.4504 38.3222 11.571 38.2036 11.571 38.0586C11.571 37.9136 11.4504 37.7949 11.303 37.7949V37.7982Z" fill="#646464"/>
<path d="M9.0518 40.0526V38.9485C9.0518 38.9485 9.02835 38.9485 9.01495 38.9485C9.00155 38.9485 8.9915 38.9485 8.9781 38.9485V40.0526C8.84745 40.069 8.74695 40.1778 8.74695 40.3129C8.74695 40.458 8.86755 40.5766 9.01495 40.5766C9.16235 40.5766 9.28295 40.458 9.28295 40.3129C9.28295 40.1778 9.18245 40.069 9.0518 40.0526Z" fill="#646464"/>
<path d="M8.40524 38.7145C8.38849 38.698 8.37174 38.6815 8.35499 38.665L7.56104 39.4461C7.45718 39.367 7.30643 39.3736 7.20928 39.4692C7.10543 39.5714 7.10543 39.7395 7.20928 39.8416C7.31313 39.9438 7.48398 39.9438 7.58784 39.8416C7.68499 39.7461 7.69169 39.5977 7.61129 39.4956L8.40524 38.7145Z" fill="#646464"/>
<path d="M8.39519 39.957L8.75699 38.9122C8.73354 38.9056 8.71009 38.899 8.68999 38.8892L8.32819 39.9339C8.19753 39.9076 8.06688 39.9801 8.02333 40.1053C7.97643 40.2437 8.05013 40.392 8.19083 40.4415C8.33154 40.4876 8.48229 40.4151 8.53254 40.2767C8.57609 40.1514 8.51579 40.013 8.39854 39.957H8.39519Z" fill="#646464"/>
<path d="M7.24613 39.0243L8.23439 38.5101C8.22099 38.4904 8.21094 38.4706 8.20089 38.4475L7.21263 38.9616C7.13558 38.8562 6.99152 38.8199 6.87092 38.8826C6.74027 38.9518 6.69002 39.11 6.76037 39.2385C6.83072 39.367 6.99152 39.4165 7.12218 39.3473C7.24278 39.2846 7.29303 39.1462 7.24613 39.0243Z" fill="#646464"/>
<path d="M16.9043 56.6073C16.3515 56.6073 15.8189 56.3865 15.4303 56.0009C15.0417 56.3865 14.5057 56.6073 13.9563 56.6073C12.8105 56.6073 11.8759 55.6878 11.8759 54.5607C11.8759 54.2245 11.9596 53.8949 12.1238 53.5983C11.3064 53.3017 10.7637 52.5403 10.7637 51.6769C10.7637 50.5497 11.6983 49.6302 12.844 49.6302C13.0182 49.6302 13.1891 49.65 13.3566 49.6928C13.4169 48.6217 14.3315 47.7615 15.4336 47.7615C16.5358 47.7615 17.4503 48.6217 17.5106 49.6961C17.6781 49.6533 17.8523 49.6302 18.0232 49.6302C19.1689 49.6302 20.1036 50.5958 20.1036 51.7856C20.1036 52.6491 19.5944 53.4368 18.8272 53.773C18.9344 54.0267 18.988 54.2904 18.988 54.5607C18.988 55.6878 18.0534 56.6073 16.9076 56.6073H16.9043ZM15.4303 55.7966L15.4839 55.8526C15.8524 56.2448 16.3683 56.4689 16.9076 56.4689C17.9763 56.4689 18.844 55.6153 18.844 54.564C18.844 54.2904 18.7837 54.0201 18.6664 53.7664L18.6363 53.7005L18.7066 53.6741C19.457 53.3808 19.9629 52.6227 19.9629 51.7889C19.9629 50.6782 19.0952 49.7752 18.0266 49.7752C17.8389 49.7752 17.648 49.8049 17.4671 49.8609L17.3766 49.8905V49.795C17.3666 48.7535 16.4956 47.9065 15.4403 47.9065C14.3851 47.9065 13.5174 48.7502 13.504 49.7884V49.8807L13.4136 49.8543C13.2293 49.7983 13.0417 49.7719 12.8507 49.7719C11.7821 49.7719 10.9144 50.6255 10.9144 51.6769C10.9144 52.5074 11.4538 53.2358 12.2578 53.4928L12.3415 53.5192L12.2946 53.595C12.1171 53.8883 12.0233 54.2245 12.0233 54.5607C12.0233 55.612 12.8909 56.4656 13.9596 56.4656C14.4956 56.4656 15.0149 56.2415 15.3834 55.8493L15.437 55.7933L15.4303 55.7966Z" fill="#646464"/>
<path d="M16.9043 56.3106C16.4051 56.3106 15.9395 56.1096 15.5978 55.747C15.5107 55.6547 15.3432 55.6547 15.2561 55.747C14.9144 56.1096 14.4521 56.3106 13.9496 56.3106C12.968 56.3106 12.174 55.5262 12.174 54.5638C12.174 54.254 12.2611 53.9475 12.4219 53.6773C12.4588 53.618 12.4655 53.5454 12.4387 53.4795C12.4119 53.4136 12.3616 53.3642 12.2913 53.3444C11.5543 53.1104 11.0585 52.4414 11.0585 51.68C11.0585 50.7144 11.8558 49.9333 12.834 49.9333C13.0082 49.9333 13.1824 49.9596 13.3499 50.0091C13.4202 50.0289 13.4973 50.0157 13.5542 49.9761C13.6112 49.9333 13.6481 49.8674 13.6481 49.7949C13.6581 48.8424 14.4554 48.0679 15.4236 48.0679C16.3917 48.0679 17.189 48.8457 17.1991 49.7982C17.1991 49.8707 17.2359 49.9399 17.2962 49.9794C17.3565 50.0223 17.4336 50.0321 17.5039 50.0124C17.6714 49.9596 17.8423 49.9333 18.0165 49.9333C18.9981 49.9333 19.792 50.7671 19.792 51.7921C19.792 52.56 19.3297 53.2587 18.6396 53.529C18.5793 53.552 18.5324 53.5982 18.509 53.6575C18.4855 53.7168 18.4889 53.7827 18.5123 53.8388C18.6229 54.0728 18.6765 54.3167 18.6765 54.5704C18.6765 55.5361 17.8791 56.3172 16.9009 56.3172L16.9043 56.3106ZM15.4303 55.5658C15.5241 55.5658 15.6145 55.6053 15.6782 55.6745C15.9998 56.0173 16.4353 56.2051 16.9043 56.2051C17.8255 56.2051 18.576 55.4669 18.576 54.5638C18.576 54.3265 18.5224 54.0958 18.4219 53.8783C18.3817 53.7959 18.3817 53.7003 18.4152 53.6147C18.4487 53.529 18.519 53.4631 18.6061 53.4301C19.256 53.1763 19.6915 52.5172 19.6915 51.7921C19.6915 50.8264 18.9411 50.0387 18.0232 50.0387C17.8624 50.0387 17.7016 50.0651 17.5441 50.1112C17.4436 50.1442 17.3297 50.1244 17.2426 50.0651C17.1555 50.0025 17.1019 49.9036 17.1019 49.7982C17.0919 48.9017 16.3448 48.17 15.4336 48.17C14.5224 48.17 13.7754 48.8984 13.7653 49.7916C13.7653 49.897 13.7117 49.9959 13.628 50.0552C13.5408 50.1178 13.4303 50.1343 13.3298 50.1047C13.1723 50.0585 13.0082 50.0354 12.8474 50.0354C11.9261 50.0354 11.1757 50.7737 11.1757 51.68C11.1757 52.3952 11.6414 53.0247 12.3348 53.2455C12.432 53.2752 12.5124 53.3477 12.5492 53.4433C12.5861 53.5389 12.576 53.6443 12.5258 53.73C12.375 53.9838 12.2913 54.2705 12.2913 54.5638C12.2913 55.4702 13.0417 56.2051 13.963 56.2051C14.432 56.2051 14.8675 56.0173 15.1891 55.6745C15.2527 55.6053 15.3432 55.5658 15.437 55.5658H15.4303Z" fill="#646464"/>
<path d="M15.4303 53.2687C14.8909 53.2687 14.4521 52.837 14.4521 52.3064C14.4521 51.7757 14.8909 51.344 15.4303 51.344C15.9696 51.344 16.4085 51.7757 16.4085 52.3064C16.4085 52.837 15.9696 53.2687 15.4303 53.2687ZM15.4303 51.4857C14.9713 51.4857 14.5961 51.8548 14.5961 52.3064C14.5961 52.7579 14.9713 53.127 15.4303 53.127C15.8892 53.127 16.2644 52.7579 16.2644 52.3064C16.2644 51.8548 15.8892 51.4857 15.4303 51.4857Z" fill="#646464"/>
<path d="M15.3934 50.3224V51.4166C15.3934 51.4166 15.4169 51.4166 15.4303 51.4166C15.4437 51.4166 15.4537 51.4166 15.4671 51.4166V50.3224C15.5978 50.3059 15.6983 50.1971 15.6983 50.062C15.6983 49.917 15.5777 49.7983 15.4303 49.7983C15.2829 49.7983 15.1623 49.917 15.1623 50.062C15.1623 50.1971 15.2628 50.3059 15.3934 50.3224Z" fill="#646464"/>
<path d="M14.5995 50.5002L15.0383 51.5055C15.0584 51.4956 15.0819 51.4857 15.1053 51.4791L14.6665 50.4739C14.7804 50.408 14.8306 50.2662 14.777 50.1443C14.7201 50.0092 14.5593 49.9499 14.4253 50.0059C14.2879 50.0619 14.2276 50.2201 14.2846 50.3519C14.3382 50.4739 14.4755 50.5365 14.6028 50.5002H14.5995Z" fill="#646464"/>
<path d="M13.4068 52.3459H14.5224C14.5224 52.3459 14.5224 52.3196 14.5224 52.3064C14.5224 52.2965 14.5224 52.2866 14.5224 52.2767H13.4068C13.3901 52.1482 13.2795 52.0493 13.1422 52.0493C12.9948 52.0493 12.8742 52.168 12.8742 52.313C12.8742 52.458 12.9948 52.5766 13.1422 52.5766C13.2795 52.5766 13.3901 52.4778 13.4068 52.3492V52.3459Z" fill="#646464"/>
<path d="M13.1824 51.8221C13.3097 51.8649 13.4504 51.8089 13.5073 51.6902L14.5593 52.0495C14.566 52.0264 14.5727 52.0033 14.5827 51.9835L13.5308 51.6243C13.5576 51.4958 13.4872 51.3672 13.3566 51.3211C13.2159 51.2717 13.0651 51.3475 13.0149 51.4826C12.9646 51.6177 13.0417 51.7693 13.179 51.8188L13.1824 51.8221Z" fill="#646464"/>
<path d="M16.05 50.418L15.6916 51.4529C15.715 51.4595 15.7351 51.4694 15.7586 51.476L16.117 50.4411C16.2477 50.4675 16.3783 50.395 16.4219 50.2697C16.4688 50.1313 16.3951 49.983 16.2544 49.9336C16.1137 49.8874 15.9629 49.9599 15.9127 50.0983C15.8691 50.2236 15.9294 50.362 16.0467 50.418H16.05Z" fill="#646464"/>
<path d="M17.1991 51.3505L16.2142 51.8614C16.2276 51.8812 16.2376 51.9009 16.2477 51.924L17.2326 51.4099C17.3096 51.5153 17.4537 51.5516 17.5743 51.489C17.7049 51.4198 17.7552 51.2616 17.6848 51.133C17.6145 51.0045 17.4537 50.955 17.323 51.0243C17.2024 51.0869 17.1522 51.2253 17.1991 51.3472V51.3505Z" fill="#646464"/>
<path d="M16.0467 51.654C16.0634 51.6705 16.0802 51.6869 16.0969 51.7034L16.8842 50.9289C16.988 51.008 17.1388 51.0014 17.2359 50.9058C17.3398 50.8037 17.3398 50.6356 17.2359 50.5334C17.1321 50.4312 16.9612 50.4312 16.8574 50.5334C16.7602 50.629 16.7535 50.7773 16.8339 50.8795L16.0467 51.654Z" fill="#646464"/>
<path d="M13.973 50.9321L14.7603 51.7066C14.777 51.6901 14.7938 51.6736 14.8105 51.6571L14.0233 50.8826C14.1037 50.7805 14.097 50.6322 13.9998 50.5366C13.896 50.4344 13.7251 50.4344 13.6213 50.5366C13.5174 50.6388 13.5174 50.8068 13.6213 50.909C13.7184 51.0046 13.8692 51.0112 13.973 50.9321Z" fill="#646464"/>
<path d="M17.6748 52.8042C17.5475 52.7613 17.4068 52.8174 17.3498 52.936L16.2946 52.5735C16.2879 52.5966 16.2778 52.6163 16.2711 52.6394L17.3264 53.0019C17.2996 53.1305 17.3699 53.259 17.5006 53.3051C17.6413 53.3546 17.792 53.2788 17.8423 53.1437C17.8926 53.0052 17.8155 52.8569 17.6781 52.8075L17.6748 52.8042Z" fill="#646464"/>
<path d="M16.8842 53.6939L16.0902 52.9128C16.0735 52.9293 16.0567 52.9458 16.04 52.9623L16.8339 53.7434C16.7535 53.8455 16.7602 53.9939 16.8574 54.0894C16.9612 54.1916 17.1321 54.1916 17.2359 54.0894C17.3398 53.9873 17.3398 53.8192 17.2359 53.717C17.1388 53.6214 16.988 53.6148 16.8842 53.6939Z" fill="#646464"/>
<path d="M16.2611 54.1257L15.8189 53.1106C15.7988 53.1205 15.7753 53.1304 15.7519 53.137L16.1941 54.1521C16.0802 54.218 16.0299 54.3597 16.0835 54.4816C16.1405 54.6168 16.3013 54.6761 16.4353 54.6201C16.5693 54.564 16.6329 54.4058 16.576 54.274C16.5224 54.1521 16.385 54.0894 16.2577 54.1257H16.2611Z" fill="#646464"/>
<path d="M17.715 52.0494C17.5776 52.0494 17.4671 52.1483 17.4503 52.2769H16.3348C16.3348 52.2769 16.3348 52.2966 16.3348 52.3065C16.3348 52.3197 16.3348 52.3329 16.3348 52.3461H17.4503C17.4671 52.4746 17.5776 52.5735 17.715 52.5735C17.8624 52.5735 17.983 52.4548 17.983 52.3098C17.983 52.1648 17.8624 52.0461 17.715 52.0461V52.0494Z" fill="#646464"/>
<path d="M15.4638 54.3004V53.1963C15.4638 53.1963 15.4403 53.1963 15.4269 53.1963C15.4135 53.1963 15.4035 53.1963 15.3901 53.1963V54.3004C15.2594 54.3169 15.1589 54.4256 15.1589 54.5607C15.1589 54.7058 15.2795 54.8244 15.4269 54.8244C15.5743 54.8244 15.6949 54.7058 15.6949 54.5607C15.6949 54.4256 15.5944 54.3169 15.4638 54.3004Z" fill="#646464"/>
<path d="M14.8172 52.9623C14.8005 52.9458 14.7837 52.9293 14.767 52.9128L13.973 53.6939C13.8692 53.6148 13.7184 53.6214 13.6213 53.717C13.5174 53.8192 13.5174 53.9873 13.6213 54.0894C13.7251 54.1916 13.896 54.1916 13.9998 54.0894C14.097 53.9939 14.1037 53.8455 14.0233 53.7434L14.8172 52.9623Z" fill="#646464"/>
<path d="M14.8072 54.2048L15.169 53.16C15.1455 53.1534 15.1221 53.1469 15.102 53.137L14.7402 54.1817C14.6095 54.1554 14.4789 54.2279 14.4353 54.3531C14.3884 54.4915 14.4621 54.6398 14.6028 54.6893C14.7435 54.7354 14.8943 54.6629 14.9445 54.5245C14.9881 54.3992 14.9278 54.2608 14.8105 54.2048H14.8072Z" fill="#646464"/>
<path d="M13.6581 53.2755L14.6464 52.7614C14.633 52.7416 14.6229 52.7218 14.6129 52.6987L13.6246 53.2129C13.5475 53.1074 13.4035 53.0712 13.2829 53.1338C13.1522 53.203 13.102 53.3612 13.1723 53.4897C13.2427 53.6182 13.4035 53.6677 13.5341 53.5985C13.6548 53.5359 13.705 53.3974 13.6581 53.2755Z" fill="#646464"/>
<path d="M111.727 42.3564C111.174 42.3564 110.642 42.1355 110.253 41.7499C109.864 42.1355 109.328 42.3564 108.779 42.3564C107.633 42.3564 106.699 41.4368 106.699 40.3097C106.699 39.9735 106.782 39.6439 106.947 39.3473C106.129 39.0507 105.586 38.2894 105.586 37.4259C105.586 36.2987 106.521 35.3792 107.667 35.3792C107.841 35.3792 108.012 35.399 108.179 35.4418C108.24 34.3707 109.154 33.5105 110.256 33.5105C111.359 33.5105 112.273 34.3707 112.333 35.4451C112.501 35.4023 112.675 35.3792 112.846 35.3792C113.992 35.3792 114.926 36.3449 114.926 37.5346C114.926 38.3981 114.417 39.1858 113.65 39.522C113.757 39.7758 113.811 40.0394 113.811 40.3097C113.811 41.4368 112.876 42.3564 111.73 42.3564H111.727ZM110.25 41.5456L110.303 41.6016C110.672 41.9938 111.188 42.2179 111.727 42.2179C112.796 42.2179 113.663 41.3643 113.663 40.313C113.663 40.0394 113.603 39.7692 113.486 39.5154L113.456 39.4495L113.526 39.4231C114.276 39.1298 114.782 38.3718 114.782 37.5379C114.782 36.4273 113.915 35.5242 112.846 35.5242C112.658 35.5242 112.467 35.5539 112.287 35.6099L112.196 35.6396V35.544C112.186 34.5025 111.315 33.6555 110.26 33.6555C109.204 33.6555 108.337 34.4992 108.323 35.5374V35.6297L108.233 35.6033C108.049 35.5473 107.861 35.5209 107.67 35.5209C106.602 35.5209 105.734 36.3745 105.734 37.4259C105.734 38.2564 106.273 38.9848 107.077 39.2418L107.161 39.2682L107.114 39.344C106.937 39.6373 106.843 39.9735 106.843 40.3097C106.843 41.361 107.71 42.2146 108.779 42.2146C109.315 42.2146 109.834 41.9905 110.203 41.5983L110.256 41.5423L110.25 41.5456Z" fill="#646464"/>
<path d="M111.727 42.0596C111.228 42.0596 110.762 41.8586 110.421 41.496C110.333 41.4038 110.166 41.4038 110.079 41.496C109.737 41.8586 109.275 42.0596 108.772 42.0596C107.791 42.0596 106.997 41.2752 106.997 40.3129C106.997 40.0031 107.084 39.6966 107.245 39.4263C107.282 39.367 107.288 39.2945 107.261 39.2286C107.235 39.1626 107.184 39.1132 107.114 39.0934C106.377 38.8594 105.881 38.1904 105.881 37.4291C105.881 36.4634 106.679 35.6823 107.657 35.6823C107.831 35.6823 108.005 35.7087 108.173 35.7581C108.243 35.7779 108.32 35.7647 108.377 35.7251C108.434 35.6823 108.471 35.6164 108.471 35.5439C108.481 34.5914 109.278 33.8169 110.246 33.8169C111.215 33.8169 112.012 34.5947 112.022 35.5472C112.022 35.6197 112.059 35.6889 112.119 35.7284C112.179 35.7713 112.256 35.7812 112.327 35.7614C112.494 35.7087 112.665 35.6823 112.839 35.6823C113.821 35.6823 114.615 36.5161 114.615 37.5411C114.615 38.309 114.152 39.0077 113.462 39.278C113.402 39.3011 113.355 39.3472 113.332 39.4065C113.308 39.4659 113.312 39.5318 113.335 39.5878C113.446 39.8218 113.499 40.0657 113.499 40.3195C113.499 41.2851 112.702 42.0662 111.724 42.0662L111.727 42.0596ZM110.25 41.3148C110.344 41.3148 110.434 41.3543 110.498 41.4235C110.819 41.7663 111.255 41.9542 111.724 41.9542C112.645 41.9542 113.395 41.2159 113.395 40.3129C113.395 40.0756 113.342 39.8449 113.241 39.6273C113.201 39.545 113.201 39.4494 113.235 39.3637C113.268 39.278 113.338 39.2121 113.426 39.1791C114.075 38.9253 114.511 38.2662 114.511 37.5411C114.511 36.5755 113.761 35.7878 112.843 35.7878C112.682 35.7878 112.521 35.8141 112.364 35.8603C112.263 35.8932 112.149 35.8735 112.062 35.8141C111.975 35.7515 111.921 35.6526 111.921 35.5472C111.911 34.6507 111.164 33.9191 110.253 33.9191C109.342 33.9191 108.595 34.6474 108.585 35.5406C108.585 35.646 108.531 35.7449 108.447 35.8042C108.36 35.8669 108.25 35.8833 108.149 35.8537C107.992 35.8075 107.828 35.7845 107.667 35.7845C106.746 35.7845 105.995 36.5227 105.995 37.4291C105.995 38.1442 106.461 38.7737 107.154 38.9946C107.251 39.0242 107.332 39.0967 107.369 39.1923C107.406 39.2879 107.395 39.3933 107.345 39.479C107.194 39.7328 107.111 40.0195 107.111 40.3129C107.111 41.2192 107.861 41.9542 108.782 41.9542C109.251 41.9542 109.687 41.7663 110.009 41.4235C110.072 41.3543 110.163 41.3148 110.256 41.3148H110.25Z" fill="#646464"/>
<path d="M110.25 39.0178C109.71 39.0178 109.271 38.586 109.271 38.0554C109.271 37.5248 109.71 37.093 110.25 37.093C110.789 37.093 111.228 37.5248 111.228 38.0554C111.228 38.586 110.789 39.0178 110.25 39.0178ZM110.25 37.2347C109.791 37.2347 109.416 37.6039 109.416 38.0554C109.416 38.5069 109.791 38.876 110.25 38.876C110.709 38.876 111.084 38.5069 111.084 38.0554C111.084 37.6039 110.709 37.2347 110.25 37.2347Z" fill="#646464"/>
<path d="M110.216 36.0746V37.1688C110.216 37.1688 110.24 37.1688 110.253 37.1688C110.266 37.1688 110.277 37.1688 110.29 37.1688V36.0746C110.421 36.0581 110.521 35.9493 110.521 35.8142C110.521 35.6692 110.4 35.5505 110.253 35.5505C110.106 35.5505 109.985 35.6692 109.985 35.8142C109.985 35.9493 110.086 36.0581 110.216 36.0746Z" fill="#646464"/>
<path d="M109.419 36.2493L109.858 37.2545C109.878 37.2446 109.901 37.2347 109.925 37.2281L109.486 36.2229C109.6 36.157 109.65 36.0153 109.596 35.8933C109.539 35.7582 109.379 35.6989 109.245 35.7549C109.107 35.8109 109.047 35.9691 109.104 36.101C109.158 36.2229 109.295 36.2855 109.422 36.2493H109.419Z" fill="#646464"/>
<path d="M108.23 38.0981H109.345C109.345 38.0981 109.345 38.0718 109.345 38.0586C109.345 38.0487 109.345 38.0388 109.345 38.0289H108.23C108.213 37.9004 108.102 37.8015 107.965 37.8015C107.818 37.8015 107.697 37.9202 107.697 38.0652C107.697 38.2102 107.818 38.3288 107.965 38.3288C108.102 38.3288 108.213 38.23 108.23 38.1014V38.0981Z" fill="#646464"/>
<path d="M108.005 37.5708C108.132 37.6137 108.273 37.5576 108.33 37.439L109.382 37.7982C109.389 37.7752 109.395 37.7521 109.405 37.7323L108.354 37.3731C108.38 37.2445 108.31 37.116 108.179 37.0699C108.039 37.0204 107.888 37.0962 107.838 37.2314C107.787 37.3665 107.864 37.5181 108.002 37.5675L108.005 37.5708Z" fill="#646464"/>
<path d="M110.873 36.1702L110.514 37.2051C110.538 37.2117 110.558 37.2216 110.581 37.2282L110.94 36.1933C111.07 36.2197 111.201 36.1472 111.245 36.0219C111.292 35.8835 111.218 35.7352 111.077 35.6857C110.936 35.6396 110.786 35.7121 110.735 35.8505C110.692 35.9758 110.752 36.1142 110.869 36.1702H110.873Z" fill="#646464"/>
<path d="M112.022 37.1027L111.037 37.6136C111.05 37.6334 111.06 37.6531 111.07 37.6762L112.055 37.1621C112.132 37.2675 112.276 37.3038 112.397 37.2412C112.528 37.172 112.578 37.0138 112.508 36.8852C112.437 36.7567 112.276 36.7072 112.146 36.7765C112.025 36.8391 111.975 36.9775 112.022 37.0994V37.1027Z" fill="#646464"/>
<path d="M110.869 37.4062C110.886 37.4227 110.903 37.4391 110.92 37.4556L111.707 36.6811C111.811 36.7602 111.962 36.7536 112.059 36.658C112.163 36.5559 112.163 36.3878 112.059 36.2856C111.955 36.1834 111.784 36.1834 111.68 36.2856C111.583 36.3812 111.576 36.5295 111.657 36.6317L110.869 37.4062Z" fill="#646464"/>
<path d="M108.796 36.6811L109.583 37.4556C109.6 37.4391 109.617 37.4227 109.633 37.4062L108.846 36.6317C108.926 36.5295 108.92 36.3812 108.823 36.2856C108.719 36.1834 108.548 36.1834 108.444 36.2856C108.34 36.3878 108.34 36.5559 108.444 36.658C108.541 36.7536 108.692 36.7602 108.796 36.6811Z" fill="#646464"/>
<path d="M112.498 38.553C112.37 38.5101 112.23 38.5662 112.173 38.6848L111.117 38.3223C111.111 38.3453 111.101 38.3651 111.094 38.3882L112.149 38.7507C112.122 38.8792 112.193 39.0078 112.323 39.0539C112.464 39.1034 112.615 39.0276 112.665 38.8924C112.715 38.754 112.638 38.6057 112.501 38.5563L112.498 38.553Z" fill="#646464"/>
<path d="M111.707 39.443L110.913 38.6619C110.896 38.6783 110.879 38.6948 110.863 38.7113L111.657 39.4924C111.576 39.5946 111.583 39.7429 111.68 39.8385C111.784 39.9406 111.955 39.9406 112.059 39.8385C112.163 39.7363 112.163 39.5682 112.059 39.466C111.962 39.3705 111.811 39.3639 111.707 39.443Z" fill="#646464"/>
<path d="M111.08 39.8745L110.638 38.8594C110.618 38.8693 110.595 38.8792 110.571 38.8857L111.013 39.9008C110.9 39.9668 110.849 40.1085 110.903 40.2304C110.96 40.3655 111.121 40.4249 111.255 40.3688C111.389 40.3128 111.452 40.1546 111.395 40.0228C111.342 39.9008 111.204 39.8382 111.077 39.8745H111.08Z" fill="#646464"/>
<path d="M112.538 37.7982C112.4 37.7982 112.29 37.8971 112.273 38.0256H111.158C111.158 38.0256 111.158 38.0454 111.158 38.0553C111.158 38.0685 111.158 38.0817 111.158 38.0948H112.273C112.29 38.2234 112.4 38.3222 112.538 38.3222C112.685 38.3222 112.806 38.2036 112.806 38.0586C112.806 37.9136 112.685 37.7949 112.538 37.7949V37.7982Z" fill="#646464"/>
<path d="M110.287 40.0526V38.9485C110.287 38.9485 110.263 38.9485 110.25 38.9485C110.236 38.9485 110.226 38.9485 110.213 38.9485V40.0526C110.082 40.069 109.982 40.1778 109.982 40.3129C109.982 40.458 110.102 40.5766 110.25 40.5766C110.397 40.5766 110.518 40.458 110.518 40.3129C110.518 40.1778 110.417 40.069 110.287 40.0526Z" fill="#646464"/>
<path d="M109.64 38.7145C109.623 38.698 109.606 38.6815 109.59 38.665L108.796 39.4461C108.692 39.367 108.541 39.3736 108.444 39.4692C108.34 39.5714 108.34 39.7395 108.444 39.8416C108.548 39.9438 108.719 39.9438 108.823 39.8416C108.92 39.7461 108.926 39.5977 108.846 39.4956L109.64 38.7145Z" fill="#646464"/>
<path d="M109.63 39.957L109.992 38.9122C109.968 38.9056 109.945 38.899 109.925 38.8892L109.563 39.9339C109.432 39.9076 109.302 39.9801 109.258 40.1053C109.211 40.2437 109.285 40.392 109.426 40.4415C109.566 40.4876 109.717 40.4151 109.767 40.2767C109.811 40.1514 109.751 40.013 109.633 39.957H109.63Z" fill="#646464"/>
<path d="M108.481 39.0243L109.469 38.5101C109.456 38.4904 109.446 38.4706 109.436 38.4475L108.447 38.9616C108.37 38.8562 108.226 38.8199 108.106 38.8826C107.975 38.9518 107.925 39.11 107.995 39.2385C108.065 39.367 108.226 39.4165 108.357 39.3473C108.478 39.2846 108.528 39.1462 108.481 39.0243Z" fill="#646464"/>
<path d="M105.54 55.7306C104.987 55.7306 104.454 55.5098 104.066 55.1242C103.677 55.5098 103.141 55.7306 102.592 55.7306C101.446 55.7306 100.511 54.8111 100.511 53.6839C100.511 53.3478 100.595 53.0182 100.759 52.7216C99.9416 52.425 99.3989 51.6636 99.3989 50.8001C99.3989 49.673 100.334 48.7535 101.479 48.7535C101.654 48.7535 101.824 48.7732 101.992 48.8161C102.052 47.745 102.967 46.8848 104.069 46.8848C105.171 46.8848 106.086 47.745 106.146 48.8194C106.313 48.7765 106.488 48.7535 106.658 48.7535C107.804 48.7535 108.739 49.7191 108.739 50.9089C108.739 51.7724 108.23 52.5601 107.462 52.8963C107.57 53.15 107.623 53.4137 107.623 53.6839C107.623 54.8111 106.689 55.7306 105.543 55.7306H105.54ZM104.062 54.9199L104.116 54.9759C104.484 55.3681 105 55.5922 105.54 55.5922C106.608 55.5922 107.476 54.7386 107.476 53.6872C107.476 53.4137 107.416 53.1434 107.298 52.8897L107.268 52.8237L107.339 52.7974C108.089 52.5041 108.595 51.746 108.595 50.9122C108.595 49.8015 107.727 48.8985 106.658 48.8985C106.471 48.8985 106.28 48.9281 106.099 48.9842L106.009 49.0138V48.9183C105.999 47.8768 105.127 47.0298 104.072 47.0298C103.017 47.0298 102.149 47.8735 102.136 48.9117V49.0039L102.045 48.9776C101.861 48.9216 101.674 48.8952 101.483 48.8952C100.414 48.8952 99.5463 49.7488 99.5463 50.8001C99.5463 51.6307 100.086 52.359 100.89 52.6161L100.973 52.6425L100.927 52.7183C100.749 53.0116 100.655 53.3478 100.655 53.6839C100.655 54.7353 101.523 55.5889 102.592 55.5889C103.128 55.5889 103.647 55.3648 104.015 54.9726L104.069 54.9166L104.062 54.9199Z" fill="#646464"/>
<path d="M105.54 55.4339C105.04 55.4339 104.575 55.2329 104.233 54.8703C104.146 54.778 103.978 54.778 103.891 54.8703C103.55 55.2329 103.087 55.4339 102.585 55.4339C101.603 55.4339 100.809 54.6495 100.809 53.6871C100.809 53.3773 100.896 53.0708 101.057 52.8006C101.094 52.7412 101.101 52.6687 101.074 52.6028C101.047 52.5369 100.997 52.4875 100.927 52.4677C100.19 52.2337 99.6937 51.5647 99.6937 50.8033C99.6937 49.8377 100.491 49.0566 101.469 49.0566C101.643 49.0566 101.818 49.0829 101.985 49.1324C102.056 49.1521 102.133 49.139 102.19 49.0994C102.246 49.0566 102.283 48.9907 102.283 48.9181C102.293 47.9657 103.091 47.1912 104.059 47.1912C105.027 47.1912 105.824 47.969 105.834 48.9214C105.834 48.994 105.871 49.0632 105.931 49.1027C105.992 49.1456 106.069 49.1554 106.139 49.1357C106.307 49.0829 106.478 49.0566 106.652 49.0566C107.633 49.0566 108.427 49.8904 108.427 50.9154C108.427 51.6833 107.965 52.382 107.275 52.6523C107.215 52.6753 107.168 52.7215 107.144 52.7808C107.121 52.8401 107.124 52.906 107.148 52.9621C107.258 53.1961 107.312 53.4399 107.312 53.6937C107.312 54.6594 106.514 55.4405 105.536 55.4405L105.54 55.4339ZM104.062 54.689C104.156 54.689 104.246 54.7286 104.31 54.7978C104.632 55.1406 105.067 55.3284 105.536 55.3284C106.457 55.3284 107.208 54.5902 107.208 53.6871C107.208 53.4498 107.154 53.2191 107.054 53.0016C107.014 52.9192 107.014 52.8236 107.047 52.7379C107.081 52.6523 107.151 52.5863 107.238 52.5534C107.888 52.2996 108.323 51.6405 108.323 50.9154C108.323 49.9497 107.573 49.162 106.655 49.162C106.494 49.162 106.333 49.1884 106.176 49.2345C106.076 49.2675 105.962 49.2477 105.875 49.1884C105.787 49.1258 105.734 49.0269 105.734 48.9214C105.724 48.025 104.977 47.2933 104.066 47.2933C103.154 47.2933 102.407 48.0217 102.397 48.9149C102.397 49.0203 102.344 49.1192 102.26 49.1785C102.173 49.2411 102.062 49.2576 101.962 49.228C101.804 49.1818 101.64 49.1587 101.479 49.1587C100.558 49.1587 99.8076 49.897 99.8076 50.8033C99.8076 51.5185 100.273 52.148 100.967 52.3688C101.064 52.3985 101.144 52.471 101.181 52.5666C101.218 52.6621 101.208 52.7676 101.158 52.8533C101.007 53.1071 100.923 53.3938 100.923 53.6871C100.923 54.5935 101.674 55.3284 102.595 55.3284C103.064 55.3284 103.499 55.1406 103.821 54.7978C103.885 54.7286 103.975 54.689 104.069 54.689H104.062Z" fill="#646464"/>
<path d="M104.062 52.392C103.523 52.392 103.084 51.9603 103.084 51.4297C103.084 50.899 103.523 50.4673 104.062 50.4673C104.602 50.4673 105.04 50.899 105.04 51.4297C105.04 51.9603 104.602 52.392 104.062 52.392ZM104.062 50.609C103.603 50.609 103.228 50.9781 103.228 51.4297C103.228 51.8812 103.603 52.2503 104.062 52.2503C104.521 52.2503 104.896 51.8812 104.896 51.4297C104.896 50.9781 104.521 50.609 104.062 50.609Z" fill="#646464"/>
<path d="M104.029 49.4457V50.5399C104.029 50.5399 104.052 50.5399 104.066 50.5399C104.079 50.5399 104.089 50.5399 104.102 50.5399V49.4457C104.233 49.4292 104.334 49.3204 104.334 49.1853C104.334 49.0403 104.213 48.9216 104.066 48.9216C103.918 48.9216 103.798 49.0403 103.798 49.1853C103.798 49.3204 103.898 49.4292 104.029 49.4457Z" fill="#646464"/>
<path d="M103.231 49.6235L103.67 50.6287C103.69 50.6189 103.714 50.609 103.737 50.6024L103.298 49.5972C103.412 49.5313 103.463 49.3895 103.409 49.2676C103.352 49.1325 103.191 49.0731 103.057 49.1292C102.92 49.1852 102.86 49.3434 102.916 49.4752C102.97 49.5972 103.107 49.6598 103.235 49.6235H103.231Z" fill="#646464"/>
<path d="M102.042 51.4692H103.158C103.158 51.4692 103.158 51.4429 103.158 51.4297C103.158 51.4198 103.158 51.4099 103.158 51.4H102.042C102.025 51.2715 101.915 51.1726 101.777 51.1726C101.63 51.1726 101.509 51.2913 101.509 51.4363C101.509 51.5813 101.63 51.6999 101.777 51.6999C101.915 51.6999 102.025 51.6011 102.042 51.4725V51.4692Z" fill="#646464"/>
<path d="M101.814 50.9453C101.942 50.9882 102.082 50.9322 102.139 50.8135L103.191 51.1728C103.198 51.1497 103.205 51.1266 103.215 51.1068L102.163 50.7476C102.19 50.6191 102.119 50.4905 101.989 50.4444C101.848 50.3949 101.697 50.4708 101.647 50.6059C101.597 50.741 101.674 50.8926 101.811 50.9421L101.814 50.9453Z" fill="#646464"/>
<path d="M104.685 49.5413L104.327 50.5762C104.35 50.5828 104.37 50.5927 104.394 50.5993L104.752 49.5644C104.883 49.5908 105.014 49.5183 105.057 49.393C105.104 49.2546 105.03 49.1063 104.89 49.0568C104.749 49.0107 104.598 49.0832 104.548 49.2216C104.504 49.3469 104.565 49.4853 104.682 49.5413H104.685Z" fill="#646464"/>
<path d="M105.831 50.4738L104.846 50.9847C104.859 51.0045 104.87 51.0242 104.88 51.0473L105.865 50.5332C105.942 50.6386 106.086 50.6749 106.206 50.6123C106.337 50.543 106.387 50.3848 106.317 50.2563C106.246 50.1278 106.086 50.0783 105.955 50.1476C105.834 50.2102 105.784 50.3486 105.831 50.4705V50.4738Z" fill="#646464"/>
<path d="M104.682 50.7773C104.699 50.7937 104.715 50.8102 104.732 50.8267L105.519 50.0522C105.623 50.1313 105.774 50.1247 105.871 50.0291C105.975 49.927 105.975 49.7589 105.871 49.6567C105.767 49.5545 105.597 49.5545 105.493 49.6567C105.395 49.7523 105.389 49.9006 105.469 50.0028L104.682 50.7773Z" fill="#646464"/>
<path d="M102.608 50.0554L103.396 50.8299C103.412 50.8134 103.429 50.7969 103.446 50.7804L102.659 50.0059C102.739 49.9038 102.732 49.7555 102.635 49.6599C102.531 49.5577 102.36 49.5577 102.257 49.6599C102.153 49.762 102.153 49.9301 102.257 50.0323C102.354 50.1279 102.504 50.1345 102.608 50.0554Z" fill="#646464"/>
<path d="M106.31 51.9275C106.183 51.8846 106.042 51.9407 105.985 52.0593L104.93 51.6968C104.923 51.7198 104.913 51.7396 104.906 51.7627L105.962 52.1252C105.935 52.2538 106.005 52.3823 106.136 52.4284C106.277 52.4779 106.427 52.4021 106.478 52.2669C106.528 52.1285 106.451 51.9802 106.313 51.9308L106.31 51.9275Z" fill="#646464"/>
<path d="M105.516 52.8172L104.722 52.0361C104.705 52.0526 104.689 52.0691 104.672 52.0856L105.466 52.8667C105.385 52.9688 105.392 53.1171 105.489 53.2127C105.593 53.3149 105.764 53.3149 105.868 53.2127C105.972 53.1106 105.972 52.9425 105.868 52.8403C105.771 52.7447 105.62 52.7381 105.516 52.8172Z" fill="#646464"/>
<path d="M104.893 53.249L104.451 52.2339C104.431 52.2438 104.407 52.2537 104.384 52.2603L104.826 53.2754C104.712 53.3413 104.662 53.483 104.715 53.6049C104.772 53.7401 104.933 53.7994 105.067 53.7434C105.201 53.6873 105.265 53.5291 105.208 53.3973C105.154 53.2754 105.017 53.2127 104.89 53.249H104.893Z" fill="#646464"/>
<path d="M106.35 51.1727C106.213 51.1727 106.102 51.2716 106.086 51.4001H104.97C104.97 51.4001 104.97 51.4199 104.97 51.4298C104.97 51.443 104.97 51.4562 104.97 51.4693H106.086C106.102 51.5979 106.213 51.6968 106.35 51.6968C106.498 51.6968 106.618 51.5781 106.618 51.4331C106.618 51.2881 106.498 51.1694 106.35 51.1694V51.1727Z" fill="#646464"/>
<path d="M104.099 53.4237V52.3196C104.099 52.3196 104.076 52.3196 104.062 52.3196C104.049 52.3196 104.039 52.3196 104.025 52.3196V53.4237C103.895 53.4401 103.794 53.5489 103.794 53.684C103.794 53.829 103.915 53.9477 104.062 53.9477C104.21 53.9477 104.33 53.829 104.33 53.684C104.33 53.5489 104.23 53.4401 104.099 53.4237Z" fill="#646464"/>
<path d="M103.452 52.0856C103.436 52.0691 103.419 52.0526 103.402 52.0361L102.608 52.8172C102.504 52.7381 102.354 52.7447 102.257 52.8403C102.153 52.9425 102.153 53.1106 102.257 53.2127C102.36 53.3149 102.531 53.3149 102.635 53.2127C102.732 53.1171 102.739 52.9688 102.659 52.8667L103.452 52.0856Z" fill="#646464"/>
<path d="M103.442 53.3281L103.804 52.2833C103.781 52.2767 103.757 52.2701 103.737 52.2603L103.375 53.305C103.245 53.2786 103.114 53.3512 103.071 53.4764C103.024 53.6148 103.097 53.7631 103.238 53.8126C103.379 53.8587 103.53 53.7862 103.58 53.6478C103.623 53.5225 103.563 53.3841 103.446 53.3281H103.442Z" fill="#646464"/>
<path d="M102.293 52.3988L103.282 51.8846C103.268 51.8649 103.258 51.8451 103.248 51.822L102.26 52.3362C102.183 52.2307 102.039 52.1944 101.918 52.2571C101.788 52.3263 101.737 52.4845 101.808 52.613C101.878 52.7415 102.039 52.791 102.169 52.7218C102.29 52.6591 102.34 52.5207 102.293 52.3988Z" fill="#646464"/>
<path d="M59.5 74.4177C43.7749 74.4177 28.9611 70.6704 17.792 63.8647C6.31817 56.8743 0 47.4814 0 37.4161C0 27.3508 6.31817 17.9611 17.7887 10.9708C28.9611 4.16502 43.7749 0.417725 59.5 0.417725C75.2251 0.417725 90.0389 4.16502 101.208 10.9708C112.682 17.9611 118.997 27.3508 118.997 37.4161C118.997 47.4814 112.678 56.8743 101.208 63.8614C90.0356 70.6671 75.2251 74.4144 59.5 74.4144V74.4177ZM59.5 1.07688C43.8989 1.07688 29.209 4.79122 18.1438 11.5311C6.87427 18.3962 0.670007 27.5881 0.670007 37.4161C0.670007 47.2441 6.87427 56.436 18.1438 63.3011C29.2123 70.0442 43.8989 73.7553 59.5 73.7553C75.1011 73.7553 89.791 70.0409 100.856 63.3011C112.122 56.436 118.33 47.2441 118.33 37.4161C118.33 27.5881 112.126 18.3962 100.856 11.5311C89.7877 4.79122 75.1011 1.07688 59.5 1.07688Z" fill="#646464"/>
<path d="M59.5 72.6051C27.7081 72.6051 1.84251 56.8217 1.84251 37.4161C1.84251 18.0106 27.7081 2.23047 59.5 2.23047C91.2918 2.23047 117.157 18.0139 117.157 37.4161C117.157 56.8184 91.2918 72.6051 59.5 72.6051ZM59.5 2.56005C27.8924 2.56005 2.17752 18.1985 2.17752 37.4161C2.17752 56.6338 27.8924 72.2755 59.5 72.2755C91.1076 72.2755 116.822 56.6371 116.822 37.4161C116.822 18.1952 91.1076 2.56005 59.5 2.56005Z" fill="#646464"/>
<path d="M44.6761 35.3496C43.2088 35.1123 42.1569 34.1269 41.4299 32.7855C40.3579 33.5996 39.1519 34.2818 37.7516 34.7399L37.3194 33.8896C38.6661 33.1415 39.8051 32.2944 40.7566 31.2728C40.1368 29.4733 39.8587 27.3145 39.7549 25.3964H37.0112V27.6902C37.7717 27.4365 38.512 27.1629 39.2021 26.8927L39.5807 27.6902C38.837 28.2505 37.9593 28.7943 37.0079 29.2854V33.3623C37.0079 35.554 34.8504 35.9593 31.879 34.4334L32.0867 33.5831C34.7097 33.9555 34.9174 33.8039 34.9174 32.8185V30.2708C33.9158 30.6795 32.9141 31.0355 31.9493 31.3057L31.2424 29.2327C32.4686 28.9789 33.7114 28.6724 34.9208 28.3329V25.3931H31.5205V24.289H34.9208V22.5752C33.9191 22.7433 32.884 22.8455 31.9158 22.9147L31.7785 21.9984C34.3178 21.4546 36.4585 20.69 38.1502 19.7046L39.5505 21.3525C38.8604 21.659 37.9794 21.9292 37.0112 22.1665V24.289H39.7046C39.6711 23.0168 39.651 21.7579 39.6711 19.7705H41.7616C41.7448 21.7743 41.7616 23.03 41.7951 24.289H46.4918V25.3931H41.8487C41.9358 26.7015 42.0899 28.0264 42.3478 29.2129C42.9341 28.2802 43.4366 27.242 43.8687 26.072L45.8185 26.8861C45.1116 28.501 44.197 30.027 43.0044 31.3189C43.383 32.2022 43.9022 32.8646 44.5588 33.1546C45.1451 33.4084 45.2657 33.0854 45.249 30.3532H46.1468C47.0278 33.5633 46.8905 35.7188 44.6794 35.3463L44.6761 35.3496ZM44.2774 23.9034C43.7079 22.7993 42.8972 21.4744 42.2406 20.489L42.9475 19.8957C44.0697 20.6076 45.2791 21.7315 46.0195 22.6972L44.2774 23.9034Z" fill="#646464"/>
<path d="M65.7344 35.0794C64.6122 35.1486 63.6976 35.1651 62.5753 35.0958C60.7797 34.9772 60.3643 34.7564 60.3643 33.4315V32.2944H59.3124C58.5017 34.2126 56.4113 35.3002 52.4415 35.5045L52.2706 34.6905C55.1349 34.2653 56.5185 33.4348 57.1215 32.2944H54.7564V27.0278H64.6658V32.2944H62.3877V32.8547C62.3877 33.2469 62.4916 33.3985 63.2688 33.448C63.9589 33.4974 64.4949 33.4974 65.2353 33.448C65.8215 33.3985 66.0627 33.2436 65.979 31.2563H66.8064C67.7042 34.4334 67.0644 34.9937 65.7378 35.0761L65.7344 35.0794ZM54.4783 28.2176H52.5453V25.3634H53.8585C53.825 23.8507 53.7379 21.9325 53.6508 20.5417L55.0847 20.6933C55.6542 20.456 56.2572 20.1166 56.8099 19.6584L58.036 20.6604C57.2756 20.9998 56.3945 21.1877 55.5838 21.2899C55.6006 21.5272 55.6173 21.7644 55.6173 22.0017H57.5V22.9015H55.6542C55.6542 23.1388 55.6709 23.3761 55.6709 23.6134H57.5536V24.5131H55.7078C55.7078 24.8031 55.7245 25.0899 55.7245 25.3634H57.8149L57.6072 24.8526C58.0729 24.6482 58.5754 24.3615 59.0411 24.0385C58.6793 23.7683 58.3174 23.5277 58.0226 23.3431L58.3174 22.7499C58.7496 22.885 59.3191 23.1223 59.8719 23.4123C60.2002 23.1421 60.495 22.8521 60.6993 22.562L60.8032 22.6312C60.562 22.4104 60.2672 22.1566 59.9757 21.9193C59.3024 22.3115 58.5955 22.6148 57.9724 22.7697L57.7479 22.1566C58.2303 21.9523 58.7329 21.6458 59.1818 21.2899C58.7496 20.9504 58.3342 20.6604 58.0092 20.4395L58.3543 19.8793C58.8032 20.0309 59.3727 20.3044 59.9422 20.6274C60.2705 20.3044 60.5452 19.965 60.8065 19.6255L61.8752 20.3572C61.634 20.6637 61.3224 20.9504 60.9774 21.2404C61.3928 21.4942 61.7378 21.7315 61.9958 21.9358L61.1147 22.8685L61.7546 23.3102C61.5134 23.5475 61.2554 23.7848 60.9774 23.9891C61.3392 24.2099 61.6842 24.4142 61.9254 24.5823L61.2856 25.3634H63.8048C63.8216 25.0932 63.8216 24.8196 63.8383 24.5296H62.0594V23.6299H63.8886C63.8886 23.409 63.9053 23.1882 63.9221 22.9674H62.1097V22.0677H63.9556C63.9556 21.8139 63.9723 21.5733 63.9723 21.3722H62.0561V20.4362H63.8685L64.1968 20.0803L65.9053 20.5219C65.8182 22.0841 65.6976 24.0221 65.6105 25.3634H66.8868V28.2176H64.9706V26.3818H54.475V28.2176H54.4783ZM56.8602 28.5241H62.5586V27.9111H56.8602V28.5241ZM56.8602 29.9479H62.5586V29.3019H56.8602V29.9479ZM56.8602 31.4277H62.5586V30.7322H56.8602V31.4277ZM58.4313 25.3634H60.7462L59.9188 24.6845C59.4364 24.9745 58.9171 25.2118 58.4347 25.3634H58.4313Z" fill="#646464"/>
<path d="M76.9001 26.3325V35.4025H74.7594V28.5572C74.2402 28.9988 73.6706 29.4075 73.0676 29.7634L72.5852 29.101C74.277 27.5058 75.5735 25.3998 76.555 23.0367L78.488 23.9694C78.0391 24.7505 77.5198 25.5481 76.9001 26.3292V26.3325ZM73.1882 25.1592L72.7226 24.5132C74.0861 23.1719 75.1212 21.5932 75.9688 19.5894L77.9721 20.6407C76.8331 22.2721 75.1413 24.1046 73.1916 25.1592H73.1882ZM88.1395 28.9823V30.0172H85.7408V33.5667C85.7408 35.4849 83.7543 36.1144 80.9235 34.4994L81.1647 33.7183C83.235 34.127 83.5466 33.9886 83.5466 33.1053V30.0139H77.3322V28.979H83.5466V27.842H77.7811V26.8071H87.724V27.842H85.7375V28.979H88.1361L88.1395 28.9823ZM82.096 32.3967L80.5081 33.6524C79.9386 32.5483 79.3523 31.6123 78.7292 30.7324L79.3322 30.1721C80.2468 30.7159 81.3355 31.5827 82.096 32.3967ZM86.6018 25.9403H78.9034V20.3705H86.6018V25.9403ZM84.4779 21.4053H81.024V22.661H84.4779V21.4053ZM84.4779 23.6827H81.024V24.9219H84.4779V23.6827Z" fill="#646464"/>
<path d="M45.45 48.2527V56.9996H43.3796V50.4081C42.8604 50.8497 42.3277 51.2419 41.7917 51.5451L41.2557 50.8497C42.8604 49.337 44.3645 46.908 45.2791 44.6669L47.2288 45.6193C46.7799 46.4532 46.1568 47.3694 45.45 48.2527ZM41.8085 46.8585L41.3093 46.1467C42.6393 44.8547 43.795 43.0552 44.6225 41.1536L46.6426 42.1884C45.5706 43.8528 43.6543 45.8896 41.8085 46.8585ZM57.155 54.9793L55.8786 57.0689C53.5135 55.8296 51.2522 52.959 50.7665 48.9514H49.6442V54.4553C50.4382 54.2839 51.1986 54.1158 51.872 53.9445L52.2539 54.742C50.666 55.7275 48.197 56.68 46.4349 56.9996L45.8486 55.0452C46.3846 54.9958 46.9374 54.9101 47.5069 54.8244V42.172H55.7748V48.9481H51.7681C52.1132 50.0192 52.5286 50.9189 53.0445 51.6638C53.6676 50.9684 54.217 50.2202 54.7698 49.3205L56.4783 50.6289C55.6676 51.3243 54.6827 52.0395 53.7145 52.5471C54.6626 53.6182 55.8217 54.3465 57.1516 54.976L57.155 54.9793ZM49.6475 45.0755H53.6709V43.1904H49.6475V45.0755ZM49.6475 47.9297H53.6709V46.0774H49.6475V47.9297Z" fill="#646464"/>
<path d="M67.7176 45.0757H62.2269V44.0243H64.6256C64.1264 43.141 63.5736 42.2907 63.1415 41.6975L63.7277 41.1042C64.6423 41.6151 65.6942 42.4456 66.4044 43.2432L65.4028 44.0243H67.7143V45.0757H67.7176ZM67.319 47.386H62.7093V46.3676H67.319V47.386ZM62.7127 48.5593H67.3223V49.5777H62.7127V48.5593ZM67.3726 55.5233H64.5083V56.8811H62.7127V50.8004H67.3759V55.5233H67.3726ZM65.6306 51.8188H64.5083V54.5016H65.6306V51.8188ZM71.1347 54.2148L72.411 55.3519C71.3223 56.0835 69.1314 56.8646 67.2821 57.1514L67.0074 56.3373C68.4077 55.8462 69.6841 55.1311 70.7896 54.2148H68.4077V47.9825C68.2168 48.1177 68.0091 48.2363 67.8215 48.322L67.4429 47.7123C68.3407 46.9477 68.6523 46.2687 68.7025 45.2833H67.9588V44.433H69.721V43.5168H68.9605C68.8399 43.7705 68.6858 44.0441 68.4948 44.2979L67.8382 44.0441C68.0627 43.3816 68.2 42.3632 68.2871 41.6316L69.53 41.8689C69.463 42.1589 69.3759 42.4292 69.2888 42.7027H69.721V41.2921H71.2921V42.7027H72.277V43.5168H71.2921V44.433H72.4479V45.2833H71.7745V46.0479C72.0157 45.9787 72.2569 45.8963 72.4981 45.7941L72.7561 46.3709C72.066 46.8982 71.1347 47.3728 70.1129 47.7288L69.7344 46.5555C69.9756 46.506 70.2168 46.4698 70.458 46.4039V45.2833H69.9923C69.8885 46.6082 69.1649 47.475 68.4211 47.9825H72.1832L71.8884 47.4387C73.0107 46.7598 73.2687 46.216 73.3055 45.2635H72.6321V44.4132H74.1497V43.497H73.3021C73.1648 43.7672 72.9906 44.0243 72.8197 44.2286L72.2502 43.9913C72.4914 43.3289 72.6288 42.5148 72.7326 41.5953L73.8884 41.8326C73.8382 42.1029 73.7511 42.3929 73.664 42.6664H74.1464V41.3251H75.7175V42.6664H77.1346V43.5003H75.7175V44.4165H77.3925V45.2668H76.1162V46.1501C76.1162 46.4401 76.1865 46.4895 76.5316 46.4895C76.8264 46.4895 76.8599 46.3379 76.8599 45.692H77.4796C77.8247 47.2542 77.5299 47.6101 76.4445 47.6101C75.1145 47.6101 74.8566 47.4222 74.8566 46.5752V45.2668H74.5618C74.4412 46.7104 73.6472 47.5607 72.3708 47.9858H76.7024V54.2181H71.1246L71.1347 54.2148ZM70.324 49.7622H74.7795V48.9284H70.324V49.7622ZM70.324 51.5123H74.7795V50.629H70.324V51.5123ZM70.324 53.2788H74.7795V52.3791H70.324V53.2788ZM77.9219 55.6056L76.9738 57.303C75.9219 56.657 74.2469 55.688 73.0375 55.0783L73.349 54.2643C74.746 54.5016 76.4914 55.0124 77.9252 55.6056H77.9219Z" fill="#646464"/>
</g>
<defs>
<clipPath id="clip0_211_717">
<rect width="119" height="74" fill="white" transform="translate(0 0.417725)"/>
</clipPath>
</defs>
</svg>
