<svg width="86" height="54" viewBox="0 0 86 54" fill="none"
    xmlns="http://www.w3.org/2000/svg">
    <g clip-path="url(#clip0_58_5482)">
        <path d="M43 52.6772C20.0244 52.6772 1.33154 41.1596 1.33154 26.9988C1.33154 12.838 20.0244 1.32275 43 1.32275C65.9756 1.32275 84.6684 12.8404 84.6684 26.9988C84.6684 41.1572 65.9756 52.6772 43 52.6772ZM43 1.56326C20.1575 1.56326 1.57365 12.9751 1.57365 26.9988C1.57365 41.0225 20.1575 52.4367 43 52.4367C65.8424 52.4367 84.4263 41.0249 84.4263 26.9988C84.4263 12.9727 65.8424 1.56326 43 1.56326Z" fill="#666666"/>
        <path d="M43 45.7893C25.1763 45.7893 10.6743 37.3596 10.6743 26.9988C10.6743 16.638 25.1739 8.21075 43 8.21075C60.826 8.21075 75.3256 16.6404 75.3256 27.0012C75.3256 37.3621 60.8236 45.7917 43 45.7917V45.7893ZM43 8.45126C25.3095 8.45126 10.9164 16.7726 10.9164 27.0012C10.9164 37.2298 25.3095 45.5512 43 45.5512C60.6905 45.5512 75.0835 37.2298 75.0835 27.0012C75.0835 16.7726 60.6905 8.45126 43 8.45126Z" fill="#666666"/>
        <path d="M27.8008 30.2095C27.1035 30.0965 26.6024 29.6227 26.2562 28.9781C25.7477 29.3702 25.1715 29.6972 24.5082 29.9161L24.3024 29.5072C24.944 29.1489 25.4838 28.74 25.9366 28.2518C25.6412 27.386 25.5105 26.3519 25.4596 25.4283H24.1547V26.5298C24.5154 26.4072 24.8689 26.2773 25.1982 26.1474L25.3797 26.5298C25.0263 26.7992 24.6074 27.0613 24.1571 27.297V29.2547C24.1571 30.3081 23.1306 30.5029 21.7191 29.7694L21.8184 29.3605C23.0677 29.5409 23.1645 29.4664 23.1645 28.9926V27.7684C22.6875 27.9632 22.213 28.1364 21.753 28.2663L21.4165 27.2706C22 27.1479 22.5907 27.0012 23.1645 26.8377V25.4259H21.5472V24.8944H23.1645V24.0695C22.6875 24.1513 22.1961 24.1994 21.7361 24.233L21.6707 23.7929C22.8788 23.5308 23.8956 23.1652 24.7018 22.6914L25.3676 23.4827C25.0384 23.6294 24.6195 23.7592 24.1595 23.8747V24.8944H25.4403C25.4233 24.2835 25.4161 23.6799 25.4233 22.7251H26.4159C26.4087 23.6871 26.4159 24.2907 26.4329 24.8944H28.6675V25.4259H26.4595C26.5007 26.0536 26.5733 26.691 26.6968 27.261C26.9752 26.8112 27.2149 26.3158 27.4207 25.7506L28.3479 26.1426C28.0114 26.917 27.5756 27.653 27.0091 28.2711C27.1907 28.6943 27.4352 29.0142 27.7475 29.1513C28.0259 29.274 28.084 29.1176 28.0768 27.8045H28.5029C28.9217 29.3461 28.8563 30.3827 27.8056 30.2023L27.8008 30.2095ZM27.6119 24.7092C27.3408 24.1777 26.9558 23.5428 26.6435 23.069L26.98 22.7828C27.5127 23.1243 28.0889 23.663 28.4423 24.1296L27.6119 24.7092Z" fill="#666666"/>
        <path d="M37.9668 24.6948V30.2095H36.8507V26.2292C36.0372 27.1263 35.0204 27.8767 33.8946 28.3577L33.6719 27.9584C35.5942 26.6693 36.5287 25.2672 37.1461 23.74H33.96V23.1604H41.0633V23.74H38.4195C38.2961 24.0575 38.1484 24.3846 37.9668 24.6948ZM41.2763 27.5159L40.3321 28.3312C39.7898 27.4918 38.8795 26.2917 38.0661 25.4187L38.3614 25.0676C39.4364 25.6953 40.7195 26.8377 41.2763 27.5159Z" fill="#666666"/>
        <path d="M53.3621 23.9589V24.5385H49.29C48.9873 25.1085 48.6242 25.664 48.2296 26.1787V30.2648H47.1449V27.3524C46.8157 27.6458 46.4791 27.8911 46.1523 28.0787L45.915 27.7107C46.7188 26.9531 47.4742 25.8107 48.0431 24.5385H46.1862V23.9589H48.2804C48.4523 23.5091 48.6 23.0546 48.7162 22.5976L49.9727 22.891C49.8734 23.2422 49.7354 23.6005 49.5708 23.9589H53.3646H53.3621ZM51.2994 29.3437H53.2217V29.9233H48.4668V29.3437H50.2245V27.1984H48.6557V26.6525H50.2245V25.0051H51.2994V26.6525H52.8513V27.1984H51.2994V29.3437Z" fill="#666666"/>
        <path d="M59.4946 28.0234L59.8795 28.1628C59.79 28.9373 59.4438 29.6323 59.0491 30.0796L58.301 29.3774C58.8022 29.0503 59.1871 28.6679 59.4922 28.0234H59.4946ZM65.5617 25.3129H58.5649V24.8078H60.5526C60.3226 24.4735 60.1265 24.197 59.9449 23.9589H59.008V23.461H61.8575C61.4871 23.2806 61.1094 23.1099 60.7729 22.956L60.8722 22.5567C61.4145 22.6048 62.1771 22.7275 62.8429 22.98L62.5887 23.461H65.0678V23.9589H63.6709L64.0728 24.1296C63.8597 24.3749 63.6467 24.6034 63.407 24.8078H65.5593V25.3129H65.5617ZM64.5352 27.7275H59.4607V25.6231H64.5352V27.7275ZM63.9202 28.3408C64.3149 29.6467 64.0679 30.0051 63.2641 30.0532C62.6153 30.0941 62.0827 30.0941 61.4169 30.07C60.5211 30.0364 60.1265 29.9305 60.1265 29.1802V27.9488H61.1288V28.7473C61.1288 29.0984 61.2038 29.197 61.6881 29.2211C62.1819 29.2451 62.625 29.2379 63.0923 29.2042C63.4457 29.1802 63.5111 29.1056 63.528 28.3384H63.9227L63.9202 28.3408ZM63.5353 26.0969H60.463V26.4649H63.5353V26.0969ZM63.5353 26.881H60.463V27.273H63.5353V26.881ZM61.5065 24.6034L61.2523 24.8078H62.6807C62.8211 24.5457 62.9518 24.2619 63.0753 23.9589H60.71C60.9981 24.1465 61.2765 24.3677 61.5065 24.6034ZM61.4823 28.0883L61.6953 27.7299C62.1311 27.8766 62.6807 28.122 63.1407 28.4394L62.6323 29.1249C62.2546 28.7497 61.7946 28.3504 61.4823 28.0883ZM65.8183 29.2716L65.0218 29.8415C64.7507 29.2547 64.4795 28.74 64.1502 28.2013L64.4626 27.9656C64.9637 28.3071 65.4891 28.8314 65.8183 29.2716Z" fill="#666666"/>
        <path d="M23.5228 10.5172L23.472 10.9958C22.5568 10.9909 21.4262 10.6085 20.7653 9.6297L20.7096 9.64894C20.787 10.8106 20.2617 11.7052 19.1068 12.446L18.9955 12.3137C19.9687 11.5706 20.3682 10.7504 20.3295 9.7716L18.4072 10.3921L18.3418 10.1901L19.0584 9.95919L18.5427 8.3815L19.8961 7.94378L19.6056 7.05633L19.9663 6.94089L20.2568 7.82834L21.5908 7.39784L22.1065 8.97554L22.828 8.74225L22.8933 8.94427L20.9396 9.57439C21.5182 10.2286 22.4745 10.5604 23.5252 10.5172H23.5228ZM20.3125 9.55515C20.2786 9.22566 20.1987 8.87934 20.0753 8.50656L19.9566 8.1434L18.9374 8.47289L19.3901 9.85337L20.3125 9.55515ZM20.3174 8.02555L20.4747 8.50415C20.5813 8.83124 20.6539 9.13667 20.6878 9.43249L21.7627 9.08617L21.31 7.70569L20.3149 8.02796L20.3174 8.02555Z" fill="#666666"/>
        <path d="M42.5714 5.16119C42.6682 4.90866 42.7578 4.56715 42.8062 4.27133L42.2881 4.29057L42.3753 6.67876C42.3898 7.07559 42.1646 7.35457 41.2108 6.96977L41.2519 6.80863C41.9443 6.91686 42.0242 6.89281 42.0121 6.61142L41.9274 4.3026L41.0219 4.33627L41.0146 4.13424L42.3051 4.08614C42.1041 3.86007 41.7942 3.55463 41.5449 3.31894L41.6417 3.18907C41.7942 3.27325 41.9855 3.38869 42.1598 3.51615C42.322 3.27084 42.4915 2.95819 42.5738 2.72249L41.1284 2.77541L41.1212 2.5806L42.5665 2.52769L42.6803 2.44351L43.0507 2.64794C42.8498 3.00388 42.5544 3.38147 42.3075 3.62438C42.4285 3.71096 42.5375 3.80235 42.615 3.87931L42.4261 4.08855L42.7772 4.07652L42.8813 3.98754L43.2347 4.15108C43.0943 4.5431 42.8498 5.0241 42.7021 5.23093L42.5665 5.166L42.5714 5.16119ZM44.0482 6.11117L44.3871 6.32763C43.978 6.69319 43.3461 7.04913 42.7723 7.23432L42.7021 7.0828C43.1645 6.88078 43.685 6.51762 44.0482 6.11117ZM44.1862 2.74414L43.1476 2.78262L43.1403 2.57579L45.6872 2.4844L45.6945 2.69123L44.5808 2.73211C44.4816 2.96781 44.3678 3.2059 44.2782 3.36945L45.3822 3.32856L45.479 5.94523L43.4526 6.01978L43.3558 3.40312L44.0918 3.37666C44.1329 3.18426 44.162 2.93895 44.1862 2.74655V2.74414ZM45.0433 3.55223L43.7044 3.60033L43.7262 4.16791L45.065 4.11981L45.0433 3.55223ZM45.0699 4.32424L43.7311 4.37234L43.7528 4.97119L45.0917 4.92309L45.0699 4.32424ZM45.1014 5.12992L43.7625 5.17802L43.7843 5.79852L45.1231 5.75042L45.1014 5.12992ZM45.9802 6.72445L45.7623 7.07078C45.4766 6.8423 44.9609 6.48876 44.5469 6.24585L44.6171 6.09434C45.065 6.23142 45.5807 6.47193 45.9802 6.72445Z" fill="#666666"/>
        <path d="M45.7528 49.6205C45.5277 49.5748 45.242 49.4954 44.9442 49.3848L45.0047 51.0587L44.6585 51.0707L44.6488 50.8206L42.3779 50.9024L42.3876 51.1621L42.0462 51.1741L41.9833 49.4906C41.7 49.6229 41.4095 49.7383 41.1262 49.8297L41.0681 49.6782C41.763 49.4136 42.6006 48.9447 43.0025 48.4372L41.1746 48.5045L41.1674 48.2977L42.5328 48.2472C42.3658 48.062 42.1818 47.872 42.0389 47.7397L42.0995 47.658C42.0026 47.6676 41.9082 47.6748 41.8162 47.6796L41.7896 47.5209C42.9638 47.3934 43.9322 47.1505 44.4164 46.9701L44.7481 47.2491C44.4309 47.3357 44.0121 47.4247 43.5569 47.4944L43.5836 48.2087L43.9951 48.1943C44.1477 47.9827 44.3292 47.6724 44.4576 47.403L44.7723 47.5714C44.5835 47.8119 44.3995 48.0308 44.2179 48.1847L45.6511 48.1318L45.6584 48.3386L43.6707 48.4107C44.2929 48.9038 45.1718 49.1419 45.8957 49.2429L45.7552 49.6181L45.7528 49.6205ZM41.6007 47.848L41.2497 47.86L41.2134 46.8691L43.4746 46.7874C43.1962 46.6431 42.85 46.4915 42.5619 46.3809L42.6055 46.227C42.9057 46.2679 43.3729 46.3569 43.7191 46.4988L43.5908 46.785L45.5252 46.7152L45.5616 47.7013L45.2105 47.7133L45.1815 46.9389L41.5717 47.0687L41.6007 47.848ZM44.7602 49.3126C44.3268 49.1323 43.8838 48.8773 43.5957 48.5599L43.6199 49.2068L43.2688 49.2188L43.247 48.6248C42.9953 48.9158 42.6006 49.178 42.16 49.4064L44.7626 49.3126H44.7602ZM42.833 48.1101L42.7047 48.2424L43.2325 48.2232L43.2083 47.5449C42.879 47.5882 42.5328 47.6267 42.1987 47.6556C42.4263 47.7734 42.6587 47.9418 42.8355 48.1101H42.833ZM43.2906 49.5724L42.3319 49.606L42.3464 50.0341L43.3051 50.0005L43.2882 49.5724H43.2906ZM43.3148 50.2073L42.3561 50.241L42.3731 50.6955L43.3318 50.6619L43.3148 50.2073ZM44.6028 49.5243L43.632 49.5604L43.6489 49.9884L44.6198 49.9524L44.6052 49.5243H44.6028ZM44.627 50.1592L43.6562 50.1953L43.6731 50.6498L44.644 50.6138L44.627 50.1592Z" fill="#666666"/>
        <path d="M21.7507 45.0172L21.3028 46.8018C21.189 47.2539 20.7798 47.2395 20.1165 46.7921L20.1794 46.6551C20.8525 46.9052 20.9251 46.9052 20.9977 46.619L21.3706 45.1375C21.1212 45.2072 20.8767 45.265 20.6418 45.3058L20.5692 44.921C20.8258 44.9042 21.1381 44.8705 21.4529 44.8176L21.7507 43.6343L21.0268 43.454L21.0776 43.2544L21.8015 43.4347L22.0581 42.4126L22.3898 42.4944L22.1332 43.5165L22.6924 43.656L22.6416 43.8556L22.0823 43.7161L21.8209 44.7503C22 44.7142 22.1768 44.6685 22.3365 44.6228L22.3777 44.7695C22.184 44.8633 21.971 44.9475 21.7531 45.0196L21.7507 45.0172ZM24.852 47.771L24.6099 48.1029C24.363 47.9874 23.4986 47.4728 23.4042 46.4699H23.3994C22.8982 47.2347 22.109 47.403 21.2786 47.3188L21.2664 47.1697C22.063 47.1986 22.6561 46.9797 23.0532 46.3833L21.7652 46.0634L21.816 45.859L23.167 46.1933C23.2493 46.0394 23.3267 45.8614 23.3897 45.6594L23.7262 45.7652C23.6657 45.9576 23.5955 46.1308 23.5132 46.2799L25.0191 46.6527L24.9682 46.8595L23.5713 46.5132C23.7674 47.1529 24.3847 47.5618 24.8544 47.771H24.852ZM23.8255 42.807L24.1451 43.0187C24.0361 43.1437 23.9368 43.2568 23.8352 43.3578L24.4816 43.5189L24.6075 43.478L24.898 43.7426C24.7164 43.9422 24.3968 44.1851 24.162 44.3246L25.203 44.5843L24.76 46.3424L24.4332 46.2606L24.8254 44.7022L23.0556 44.2621L22.6585 45.8349L22.3317 45.7532L22.7433 44.1178C22.6295 44.1707 22.5133 44.2188 22.3946 44.2597L22.3317 44.1178C22.8885 43.8508 23.4309 43.3962 23.8231 42.8046L23.8255 42.807ZM24.0918 44.6324C24.0216 44.7358 23.9538 44.8272 23.8787 44.9114C24.1305 45.1591 24.3387 45.4405 24.4574 45.6498L24.1717 45.8253C24.07 45.5752 23.9272 45.2938 23.7674 45.0317C23.5011 45.2986 23.1984 45.4814 22.8619 45.5944L22.7941 45.4453C23.213 45.2265 23.5471 44.9234 23.8134 44.4545L24.0918 44.6324ZM22.9466 44.0216L23.9465 44.2693C24.1305 44.1081 24.3145 43.8965 24.438 43.7185L23.656 43.5237C23.4163 43.733 23.1839 43.8917 22.9491 44.0192L22.9466 44.0216Z" fill="#666666"/>
        <path d="M64.7046 43.858C64.6562 44.036 64.598 44.2164 64.5303 44.3871L66.8545 43.6367L67.6582 46.0971L67.3144 46.2077L67.2031 45.871L65.1428 46.5372L65.259 46.8955L64.9128 47.0062L64.2543 44.9956C64.0339 45.4189 63.7579 45.8085 63.4505 46.1356L63.3197 46.0273C63.8039 45.4141 64.1574 44.7094 64.3317 43.9783L62.9977 44.4088L62.9324 44.2067L64.3874 43.7353C64.4116 43.5886 64.4383 43.4419 64.4504 43.2928L63.0752 43.7378L63.0098 43.5405L64.4649 43.0692C64.477 42.9152 64.4746 42.7589 64.4649 42.6074C63.9347 42.8359 63.3803 43.0475 62.8864 43.2014L62.8162 43.0571C64.155 42.5352 65.2202 41.9532 65.9102 41.4554L66.3363 41.6454C66.0047 41.869 65.4551 42.1577 64.845 42.4342C64.8547 42.605 64.8619 42.7757 64.8498 42.9465L66.7479 42.3332L66.8133 42.5304L64.8353 43.1702C64.8184 43.3217 64.7917 43.4684 64.7578 43.6175L67.2442 42.8142L67.3096 43.0162L64.7022 43.858H64.7046ZM66.5736 43.9494L64.5133 44.6156L64.6561 45.0485L66.7165 44.3823L66.5736 43.9494ZM66.7794 44.5747L64.7191 45.2409L64.8668 45.6906L66.9271 45.0244L66.7794 44.5747ZM66.9876 45.2096L64.9273 45.8758L65.0798 46.34L67.1401 45.6738L66.9876 45.2096Z" fill="#666666"/>
        <path d="M67.1717 11.2723C66.978 11.1497 66.7407 10.9693 66.5059 10.7577L65.9466 12.3378L65.6198 12.2247L65.7021 11.989L63.5595 11.2387L63.4723 11.484L63.1503 11.3709L63.7144 9.78122C63.4021 9.80046 63.0898 9.80527 62.792 9.78362V9.62008C63.5377 9.6273 64.4891 9.49502 65.0508 9.16794L63.3246 8.56428L63.3948 8.36947L64.6828 8.81921C64.5957 8.58592 64.494 8.34301 64.4117 8.16745L64.4988 8.11454C64.4068 8.08808 64.3148 8.06163 64.2277 8.03036L64.2616 7.87403C65.4019 8.18188 66.3921 8.30934 66.9102 8.31656L67.1135 8.69655C66.7867 8.66048 66.3654 8.59314 65.9151 8.48972L65.6754 9.16553L66.0628 9.30021C66.2831 9.15832 66.564 8.93706 66.7843 8.73263L67.0167 9.0044C66.7528 9.15832 66.501 9.2954 66.2759 9.37477L67.6292 9.84856L67.559 10.0434L65.6827 9.38679C66.0798 10.0698 66.8085 10.611 67.4476 10.9693L67.1765 11.2675L67.1717 11.2723ZM64.6852 10.9308L63.7798 10.6134L63.6273 11.0439L64.5327 11.3613L64.6852 10.9308ZM63.9589 8.10973L63.6273 7.99429L63.9589 7.05873L66.0919 7.80429C65.8861 7.571 65.6198 7.30164 65.3946 7.09481L65.4915 6.96494C65.7553 7.11405 66.1572 7.36657 66.4284 7.62391L66.2032 7.84277L68.0287 8.4801L67.6994 9.41085L67.3678 9.2954L67.6268 8.56428L64.2204 7.37379L63.9589 8.10973ZM64.8983 10.3296L63.9928 10.0121L63.85 10.4161L64.7555 10.7336L64.8983 10.3296ZM66.3606 10.623C66.0241 10.2983 65.7069 9.89907 65.5544 9.49743L65.3389 10.1083L65.0072 9.99286L65.2058 9.43249C64.8644 9.61046 64.3996 9.71147 63.9057 9.76438L66.3606 10.623ZM65.0097 8.80237L64.8402 8.87933L65.3389 9.0525L65.5665 8.41276C65.2445 8.33339 64.908 8.24441 64.586 8.14821C64.7555 8.34301 64.908 8.58111 65.0097 8.80237ZM65.9224 11.3637L65.0072 11.0439L64.8547 11.4744L65.7699 11.7942L65.9224 11.3637ZM66.1354 10.7625L65.2203 10.4426L65.0774 10.8466L65.9926 11.1665L66.1354 10.7625Z" fill="#666666"/>
        <path d="M29.5947 6.73889C29.7496 6.42623 29.907 6.01738 30.0401 5.55321C29.7593 5.69511 29.4325 5.837 29.1855 5.9332L29.0354 5.61815L29.3066 5.56283C29.4131 5.12512 29.5027 4.53588 29.5317 3.93463L29.9094 3.97311C29.8077 4.495 29.6358 5.12512 29.4809 5.51713C29.6891 5.46422 29.8997 5.4065 30.0934 5.34638C30.1515 5.12271 30.2023 4.88702 30.2411 4.64652L30.6042 4.72588C30.4372 5.38486 30.1128 6.1689 29.8004 6.66914C30.0547 6.58496 30.3185 6.49117 30.5655 6.39256C30.4735 6.26029 30.3815 6.13282 30.3016 6.02459L30.4227 5.92599C30.6599 6.12801 30.9529 6.42142 31.1369 6.68598L30.8705 6.87838C30.8052 6.77256 30.7325 6.65231 30.6551 6.53205C30.2556 6.78458 29.7302 7.05154 29.43 7.17179L29.2581 6.82787C29.3622 6.80142 29.476 6.77496 29.5947 6.73889ZM29.7714 7.31369H29.9239C30.0256 7.87406 30.0329 8.41759 29.9675 8.79278L29.585 8.70139C29.7084 8.34063 29.7908 7.85482 29.7738 7.31369H29.7714ZM30.2871 7.15255C30.4808 7.49166 30.7132 8.01836 30.827 8.31418L30.4832 8.44645C30.4057 8.12177 30.2604 7.58305 30.1442 7.20065L30.2871 7.15015V7.15255ZM31.2361 7.67685L30.9577 7.85722C30.8221 7.559 30.6648 7.2728 30.5195 7.00825L30.6502 6.92167C30.8633 7.14534 31.057 7.40267 31.2385 7.67444L31.2361 7.67685ZM32.2166 6.29877L31.1974 6.50079L30.7592 4.32424L31.6743 4.14146C31.6985 3.93703 31.7058 3.70856 31.7034 3.47046L32.0811 3.48248C32.0205 3.69413 31.9431 3.92501 31.8632 4.10298L33.2698 3.824L33.708 6.00054L32.2578 6.28915C32.5459 6.39978 32.8994 6.58256 33.1778 6.78218L32.972 7.0828C32.7081 6.83268 32.391 6.5994 32.1416 6.42142L32.2142 6.29877H32.2166ZM31.4831 6.23383L31.7397 6.18333L31.6671 6.09434C31.885 5.90915 32.0907 5.68549 32.253 5.41131C32.1029 5.34397 31.9527 5.27663 31.8051 5.2141C31.73 5.3584 31.6477 5.48827 31.5678 5.60131L31.4371 5.52435C31.5049 5.39688 31.5605 5.27182 31.6041 5.13955C31.5218 5.10828 31.4395 5.07461 31.3572 5.04815L31.3935 4.90626L31.6622 4.96638C31.7203 4.76677 31.7639 4.55753 31.7905 4.33146L31.1272 4.46373L31.4855 6.23624L31.4831 6.23383ZM31.3935 6.97458L31.5557 6.96977C31.6404 7.4171 31.6429 7.82836 31.5484 8.22519L31.1829 8.10975C31.3499 7.72976 31.4104 7.42672 31.3935 6.97458ZM33.4151 7.01546C33.7056 7.67204 33.6862 7.92937 33.3037 8.03279C33.0446 8.10013 32.7832 8.15304 32.5604 8.1819C32.1222 8.24203 31.9963 8.14342 31.9189 7.75381L31.6961 6.65231L32.0351 6.58496L32.2505 7.65039C32.2917 7.85722 32.374 7.88608 32.575 7.86203C32.7493 7.83798 32.9696 7.7995 33.1657 7.73938C33.3666 7.67925 33.3884 7.63596 33.2577 7.05635L33.4126 7.02027L33.4151 7.01546ZM32.9793 4.09336L31.8874 4.31222L32.1101 4.33867C32.0859 4.43968 32.069 4.53588 32.0375 4.62968L32.466 4.5431L32.5604 4.44209L32.8679 4.53348C32.8122 4.82449 32.7299 5.0698 32.6258 5.27423C32.8146 5.35119 32.9938 5.42815 33.1705 5.51713L33.0083 5.79852C32.8461 5.69992 32.6718 5.61093 32.4902 5.51713C32.299 5.80814 32.0738 6.01016 31.8535 6.16168L33.34 5.86586L32.9817 4.09336H32.9793ZM31.8946 5.02651C32.0496 5.0698 32.207 5.12031 32.3643 5.17562C32.4273 5.03372 32.4733 4.8774 32.5072 4.70424L31.9794 4.81006C31.9503 4.88702 31.9213 4.95676 31.8922 5.02651H31.8946ZM34.2769 7.34255L34.0034 7.55419C33.8073 7.2247 33.6087 6.92407 33.3618 6.61623L33.4707 6.51281C33.7685 6.75091 34.0542 7.02989 34.2745 7.34255H34.2769Z" fill="#666666"/>
        <path d="M11.9187 15.2743L10.7372 16.0944L10.9721 16.4287L10.667 16.6404L9.33545 14.7452L10.822 13.7134L10.2288 12.8717L10.5435 12.6528L11.1367 13.4946L12.6281 12.4604L13.9427 14.3291L13.64 14.5384L13.4222 14.2305L12.2334 15.0554L13.4004 16.7149L13.0856 16.9338L11.9187 15.2743ZM11.7904 15.0915L10.9527 13.901L9.77124 14.7211L10.6089 15.9116L11.7904 15.0915ZM13.2938 14.0477L12.4562 12.8572L11.2674 13.6822L12.1051 14.8727L13.2938 14.0477Z" fill="#666666"/>
        <path d="M56.8556 8.13861L55.5362 7.81153L55.2917 8.77835L54.9503 8.69417L55.1924 7.72736L53.9867 7.42673C53.5993 8.03039 52.9432 8.16266 52.1177 8.0376L52.1274 7.86925C52.873 7.92457 53.3403 7.81153 53.6405 7.33774L52.3525 7.01787L52.4034 6.81826L53.7446 7.15015C53.8003 7.03952 53.8487 6.90965 53.8899 6.76534L53.2071 6.59459L53.6599 4.79563L56.7346 5.56043L56.2819 7.35939L55.6863 7.21027L55.587 7.6071L56.9065 7.93419L56.8556 8.1338V8.13861ZM52.8997 4.86778L52.8246 4.72829C53.2774 4.44209 53.7688 3.90818 54.0739 3.37186L54.4031 3.57388C54.316 3.70375 54.2167 3.83362 54.1029 3.95868L55.4732 4.3002L55.4224 4.49981L54.5266 4.27855C54.621 4.44931 54.6961 4.63209 54.7663 4.85816L54.4201 4.9255C54.3934 4.65614 54.362 4.45652 54.3208 4.22804L53.9383 4.13184C53.6163 4.45171 53.2386 4.72829 52.8997 4.86778ZM53.5945 6.48155L55.9962 7.078L56.0833 6.72927L53.6817 6.13282L53.5945 6.48155ZM53.7277 5.94764L56.1293 6.54408L56.2165 6.19535L53.8148 5.59891L53.7277 5.94764ZM53.8632 5.41132L56.2649 6.00776L56.3496 5.67346L53.948 5.07702L53.8632 5.41132ZM55.2457 7.52533L55.3449 7.1285L54.2385 6.85433C54.1973 6.99623 54.1489 7.1261 54.0932 7.23913L55.2481 7.52533H55.2457ZM54.9793 4.95677C55.3425 4.73551 55.7589 4.35311 56.0615 3.86489L56.3763 4.07412C56.277 4.2064 56.1632 4.32665 56.0543 4.43728L57.6691 4.83892L57.6183 5.03854L56.5215 4.76677C56.6184 4.94955 56.7055 5.15157 56.7709 5.37524L56.4271 5.43056C56.4005 5.16119 56.3714 4.95196 56.3254 4.71626L55.8654 4.60082C55.5798 4.83652 55.2868 4.99765 55.052 5.09866L54.9793 4.95436V4.95677Z" fill="#666666"/>
        <path d="M53.4154 47.0495L53.0692 47.1192L52.873 46.1476L55.0907 45.7051C54.7929 45.6065 54.4274 45.5127 54.1247 45.4477L54.1417 45.2866C54.4443 45.2794 54.9212 45.2938 55.2868 45.378L55.2069 45.681L57.105 45.3034L57.3011 46.2703L56.9549 46.34L56.8024 45.5824L53.2628 46.2871L53.4154 47.0519V47.0495ZM57.8023 48.139C57.5723 48.1317 57.2769 48.0981 56.9646 48.0355L57.2963 49.6782L56.9573 49.7455L56.9065 49.5002L54.6791 49.9427L54.73 50.1977L54.3959 50.265L54.0618 48.6127C53.8027 48.7883 53.5364 48.9494 53.2701 49.0841L53.1878 48.9446C53.8318 48.5743 54.5799 47.9754 54.897 47.4102L53.103 47.7686L53.0619 47.5666L54.4007 47.2996C54.207 47.1433 53.994 46.987 53.8318 46.8787L53.8778 46.7873C53.7858 46.8114 53.6914 46.8354 53.6042 46.8523L53.5509 46.7008C54.6912 46.3881 55.6064 45.9937 56.0543 45.7363L56.4247 45.96C56.1269 46.0947 55.7274 46.251 55.2868 46.3905L55.4297 47.0928L55.8316 47.0134C55.9478 46.7801 56.0761 46.4458 56.1608 46.1596L56.4998 46.2751C56.3521 46.542 56.2068 46.7873 56.0519 46.9701L57.4585 46.6911L57.4996 46.8932L55.5483 47.2828C56.2407 47.67 57.1462 47.7638 57.8773 47.7493L57.7999 48.1438L57.8023 48.139ZM54.6743 47.112L54.5678 47.2635L55.0859 47.1601L54.9527 46.4939C54.6356 46.5901 54.299 46.6839 53.9746 46.7633C54.2191 46.8451 54.4734 46.9725 54.6767 47.1096L54.6743 47.112ZM56.7709 47.9923C56.3133 47.884 55.8364 47.7036 55.4999 47.4343L55.6282 48.0692L55.282 48.139L55.1658 47.5569C54.9648 47.884 54.6162 48.2063 54.2191 48.5021L56.7709 47.9947V47.9923ZM55.3643 48.4829L54.4225 48.6705L54.5072 49.0913L55.449 48.9038L55.3643 48.4829ZM55.4902 49.1058L54.5484 49.2934L54.638 49.7407L55.5798 49.5531L55.4902 49.1058ZM56.6499 48.2279L55.6984 48.4179L55.7831 48.8388L56.7346 48.6488L56.6499 48.2279ZM56.7758 48.8508L55.8243 49.0408L55.9139 49.4882L56.8653 49.2982L56.7758 48.8508Z" fill="#666666"/>
        <path d="M31.4854 46.6214L30.5824 50.2097L30.2459 50.1255L30.9988 47.1385C30.7325 47.3838 30.4396 47.5954 30.1224 47.7614L30.0449 47.6123C30.7615 47.1024 31.3523 46.3256 31.8462 45.39L32.19 45.5944C31.9769 45.9624 31.7469 46.3087 31.4854 46.6214ZM32.5386 48.0091C32.2093 48.5719 31.6743 49.2356 31.1029 49.6469L30.9988 49.517C31.4564 49.0793 31.897 48.4348 32.1972 47.7974L32.541 48.0091H32.5386ZM33.5966 47.0543L32.788 50.2626C32.6742 50.7147 32.2747 50.7965 31.3499 50.1399L31.4225 50.0004C32.2747 50.354 32.3885 50.3323 32.4635 50.0341L33.2358 46.9653L32.4999 46.7825C32.2239 47.1409 31.8994 47.4583 31.5581 47.7012L31.4467 47.5714C31.9914 47.0735 32.4151 46.4073 32.7274 45.6546L33.0954 45.8325C32.9695 46.0899 32.8097 46.352 32.633 46.6021L34.5214 47.0711L34.6715 47.0158L35.0008 47.3261C34.7175 47.6171 34.3132 47.9153 34.0348 48.0572L33.9307 47.9225C34.1316 47.7373 34.364 47.468 34.4899 47.2756L33.5893 47.0519L33.5966 47.0543ZM34.3737 50.2145L33.9549 50.2842C33.921 49.6758 33.7878 48.7835 33.6692 48.2303L33.8193 48.1798C34.0566 48.7474 34.2817 49.6156 34.3737 50.2121V50.2145Z" fill="#666666"/>
        <path d="M71.4302 15.9549L74.8632 19.1344L74.7179 19.2883L71.2849 16.1089L71.4302 15.9549ZM73.6139 15.005L75.6549 16.8953L74.4686 18.1579L72.4276 16.2676L73.6139 15.005ZM72.6722 14.5841L72.7278 14.4253C73.4881 14.6731 74.5218 14.7765 75.2409 14.5769L73.9916 13.42L74.1345 13.2685L75.6065 14.6322L76.1342 14.0694L76.4078 14.3219L75.88 14.8847L77.3472 16.2435L77.2043 16.3951L75.8461 15.1372C75.7929 15.9646 76.081 16.7823 76.5095 17.4701L76.0834 17.6048C75.713 16.8424 75.5411 15.9068 75.7033 15.0723L74.8874 15.9405L74.6138 15.688L75.3789 14.8751C74.6017 15.0963 73.4735 14.916 72.6746 14.5865L72.6722 14.5841ZM72.8271 16.3542L74.3499 17.7635L74.7567 17.3306L73.2338 15.9213L72.8271 16.3542ZM73.3791 15.7673L74.9019 17.1767L75.2506 16.8039L73.7277 15.3946L73.3791 15.7673Z" fill="#666666"/>
        <path d="M7.58278 30.6039C7.18331 30.6039 6.79836 30.4428 6.51752 30.1614C6.23668 30.4428 5.84932 30.6039 5.45227 30.6039C4.62427 30.6039 3.9488 29.9329 3.9488 29.1104C3.9488 28.8651 4.00933 28.6246 4.12796 28.4081C3.53723 28.1917 3.14502 27.6361 3.14502 27.006C3.14502 26.1835 3.82049 25.5125 4.64848 25.5125C4.77438 25.5125 4.89785 25.5269 5.0189 25.5582C5.06248 24.7765 5.72342 24.1488 6.51994 24.1488C7.31646 24.1488 7.97741 24.7765 8.02098 25.5606C8.14204 25.5293 8.26793 25.5125 8.3914 25.5125C9.2194 25.5125 9.89486 26.2172 9.89486 27.0854C9.89486 27.7155 9.52687 28.2903 8.97245 28.5356C9.04992 28.7208 9.08866 28.9132 9.08866 29.1104C9.08866 29.9329 8.41319 30.6039 7.5852 30.6039H7.58278ZM6.5151 30.0123L6.55384 30.0532C6.82015 30.3394 7.19299 30.5029 7.58278 30.5029C8.35509 30.5029 8.98213 29.88 8.98213 29.1128C8.98213 28.9132 8.93856 28.716 8.85382 28.5308L8.83203 28.4827L8.88287 28.4634C9.42518 28.2494 9.79076 27.6962 9.79076 27.0878C9.79076 26.2773 9.16371 25.6183 8.3914 25.6183C8.25582 25.6183 8.11783 25.6399 7.98709 25.6808L7.92172 25.7025V25.6327C7.91446 24.8727 7.28499 24.2547 6.52236 24.2547C5.75974 24.2547 5.13269 24.8703 5.12301 25.6279V25.6953L5.05764 25.676C4.92448 25.6351 4.7889 25.6159 4.6509 25.6159C3.87859 25.6159 3.25155 26.2388 3.25155 27.006C3.25155 27.6121 3.64133 28.1436 4.22238 28.3312L4.28291 28.3504L4.24901 28.4057C4.1207 28.6198 4.05291 28.8651 4.05291 29.1104C4.05291 29.8776 4.67996 30.5005 5.45227 30.5005C5.83963 30.5005 6.21489 30.337 6.48121 30.0508L6.51994 30.0099L6.5151 30.0123Z" fill="#666666"/>
        <path d="M7.58286 30.3875C7.22213 30.3875 6.8856 30.2408 6.63866 29.9762C6.57571 29.9089 6.45466 29.9089 6.39171 29.9762C6.14477 30.2408 5.81066 30.3875 5.44751 30.3875C4.73814 30.3875 4.16436 29.8151 4.16436 29.1128C4.16436 28.8867 4.22731 28.6631 4.34352 28.4658C4.37015 28.4226 4.37499 28.3696 4.35562 28.3215C4.33625 28.2734 4.29994 28.2374 4.24909 28.2229C3.71647 28.0522 3.35815 27.564 3.35815 27.0084C3.35815 26.3037 3.93436 25.7337 4.6413 25.7337C4.7672 25.7337 4.89309 25.753 5.01414 25.7891C5.06498 25.8035 5.12067 25.7939 5.16183 25.765C5.20298 25.7337 5.22961 25.6856 5.22961 25.6327C5.23688 24.9377 5.81308 24.3725 6.51276 24.3725C7.21244 24.3725 7.78865 24.9401 7.79591 25.6351C7.79591 25.688 7.82254 25.7386 7.86612 25.7674C7.9097 25.7987 7.96538 25.8059 8.01623 25.7915C8.13728 25.753 8.26075 25.7337 8.38664 25.7337C9.09601 25.7337 9.66979 26.3422 9.66979 27.0902C9.66979 27.6505 9.33569 28.1604 8.83696 28.3576C8.79338 28.3745 8.75948 28.4081 8.74254 28.4514C8.72559 28.4947 8.72801 28.5428 8.74496 28.5837C8.82485 28.7545 8.86359 28.9324 8.86359 29.1176C8.86359 29.8223 8.28738 30.3923 7.58044 30.3923L7.58286 30.3875ZM6.51518 29.8439C6.58297 29.8439 6.64834 29.8728 6.69434 29.9233C6.92676 30.1734 7.24149 30.3105 7.58044 30.3105C8.24622 30.3105 8.78854 29.7718 8.78854 29.1128C8.78854 28.9396 8.7498 28.7713 8.67717 28.6126C8.64812 28.5524 8.64812 28.4827 8.67233 28.4202C8.69654 28.3576 8.74738 28.3095 8.81032 28.2855C9.28001 28.1003 9.59474 27.6193 9.59474 27.0902C9.59474 26.3855 9.05243 25.8107 8.38907 25.8107C8.27286 25.8107 8.15665 25.8299 8.04286 25.8636C7.97023 25.8877 7.88791 25.8732 7.82496 25.8299C7.76202 25.7842 7.72328 25.7121 7.72328 25.6351C7.71602 24.981 7.17613 24.4471 6.5176 24.4471C5.85908 24.4471 5.31919 24.9786 5.31193 25.6303C5.31193 25.7073 5.27319 25.7794 5.21267 25.8227C5.14972 25.8684 5.06983 25.8804 4.99719 25.8588C4.88341 25.8251 4.76478 25.8083 4.64857 25.8083C3.98278 25.8083 3.44047 26.347 3.44047 27.0084C3.44047 27.5303 3.77699 27.9897 4.27815 28.1508C4.34836 28.1724 4.40646 28.2253 4.43309 28.2951C4.45973 28.3648 4.45246 28.4418 4.41615 28.5043C4.3072 28.6895 4.24667 28.8988 4.24667 29.1128C4.24667 29.7742 4.78899 30.3105 5.45477 30.3105C5.79372 30.3105 6.10845 30.1734 6.34087 29.9233C6.38687 29.8728 6.45224 29.8439 6.52003 29.8439H6.51518Z" fill="#666666"/>
        <path d="M6.51505 28.1676C6.12526 28.1676 5.80811 27.8526 5.80811 27.4654C5.80811 27.0781 6.12526 26.7631 6.51505 26.7631C6.90483 26.7631 7.22199 27.0781 7.22199 27.4654C7.22199 27.8526 6.90483 28.1676 6.51505 28.1676ZM6.51505 26.8665C6.18337 26.8665 5.91221 27.1359 5.91221 27.4654C5.91221 27.7948 6.18337 28.0642 6.51505 28.0642C6.84673 28.0642 7.11789 27.7948 7.11789 27.4654C7.11789 27.1359 6.84673 26.8665 6.51505 26.8665Z" fill="#666666"/>
        <path d="M6.49078 26.0199V26.8184C6.49078 26.8184 6.50773 26.8184 6.51741 26.8184C6.5271 26.8184 6.53436 26.8184 6.54404 26.8184V26.0199C6.63846 26.0079 6.7111 25.9286 6.7111 25.8299C6.7111 25.7241 6.62394 25.6375 6.51741 25.6375C6.41089 25.6375 6.32373 25.7241 6.32373 25.8299C6.32373 25.9286 6.39636 26.0079 6.49078 26.0199Z" fill="#666666"/>
        <path d="M5.91465 26.1474L6.2318 26.881C6.24633 26.8737 6.26328 26.8665 6.28022 26.8617L5.96307 26.1282C6.04538 26.0801 6.0817 25.9767 6.04296 25.8877C6.0018 25.7891 5.88559 25.7458 5.78875 25.7867C5.68949 25.8276 5.64591 25.943 5.68707 26.0392C5.72581 26.1282 5.82507 26.1739 5.91707 26.1474H5.91465Z" fill="#666666"/>
        <path d="M5.05511 27.4966H5.86131C5.86131 27.4966 5.86131 27.4774 5.86131 27.4678C5.86131 27.4606 5.86131 27.4533 5.86131 27.4461H5.05511C5.043 27.3523 4.96311 27.2802 4.86385 27.2802C4.75732 27.2802 4.67017 27.3668 4.67017 27.4726C4.67017 27.5784 4.75732 27.665 4.86385 27.665C4.96311 27.665 5.043 27.5928 5.05511 27.499V27.4966Z" fill="#666666"/>
        <path d="M4.89051 27.1118C4.98251 27.1431 5.08419 27.1022 5.12535 27.0156L5.88555 27.2778C5.8904 27.2609 5.89524 27.2441 5.9025 27.2297L5.1423 26.9675C5.16166 26.8737 5.11082 26.7799 5.0164 26.7463C4.91472 26.7102 4.80577 26.7655 4.76946 26.8641C4.73314 26.9627 4.78883 27.0733 4.88809 27.1094L4.89051 27.1118Z" fill="#666666"/>
        <path d="M6.96535 26.0897L6.7063 26.8449C6.72325 26.8497 6.73777 26.8569 6.75472 26.8617L7.01377 26.1065C7.10819 26.1258 7.20261 26.0728 7.23408 25.9814C7.26798 25.8804 7.21472 25.7722 7.11303 25.7361C7.01135 25.7025 6.9024 25.7554 6.86609 25.8564C6.83461 25.9478 6.87819 26.0488 6.96293 26.0897H6.96535Z" fill="#666666"/>
        <path d="M7.79333 26.7703L7.08154 27.1431C7.09123 27.1575 7.09849 27.1719 7.10575 27.1888L7.81754 26.8136C7.87322 26.8906 7.97733 26.917 8.06448 26.8713C8.1589 26.8208 8.19522 26.7054 8.14438 26.6116C8.09354 26.5178 7.97733 26.4817 7.88291 26.5322C7.79575 26.5779 7.75943 26.6789 7.79333 26.7679V26.7703Z" fill="#666666"/>
        <path d="M6.96289 26.9916C6.975 27.0036 6.9871 27.0156 6.99921 27.0276L7.56815 26.4625C7.6432 26.5202 7.75215 26.5154 7.82236 26.4456C7.89741 26.3711 7.89741 26.2484 7.82236 26.1739C7.74731 26.0993 7.62383 26.0993 7.54878 26.1739C7.47857 26.2436 7.47373 26.3518 7.53183 26.4264L6.96289 26.9916Z" fill="#666666"/>
        <path d="M5.46431 26.4625L6.03325 27.0276C6.04535 27.0156 6.05746 27.0036 6.06956 26.9916L5.50062 26.4264C5.55873 26.3518 5.55388 26.2436 5.48367 26.1739C5.40862 26.0993 5.28515 26.0993 5.2101 26.1739C5.13505 26.2484 5.13505 26.3711 5.2101 26.4456C5.28031 26.5154 5.38925 26.5202 5.46431 26.4625Z" fill="#666666"/>
        <path d="M8.13941 27.8285C8.04741 27.7972 7.94573 27.8381 7.90457 27.9247L7.14195 27.6602C7.13711 27.677 7.12984 27.6914 7.125 27.7083L7.88763 27.9728C7.86826 28.0666 7.9191 28.1604 8.01352 28.1941C8.1152 28.2301 8.22415 28.1748 8.26046 28.0762C8.29678 27.9752 8.2411 27.867 8.14183 27.8309L8.13941 27.8285Z" fill="#666666"/>
        <path d="M7.56567 28.4779L6.99188 27.9079C6.97978 27.9199 6.96767 27.9319 6.95557 27.944L7.52935 28.514C7.47125 28.5885 7.47609 28.6967 7.5463 28.7665C7.62135 28.841 7.74482 28.841 7.81988 28.7665C7.89493 28.6919 7.89493 28.5693 7.81988 28.4947C7.74967 28.425 7.64072 28.4202 7.56567 28.4779Z" fill="#666666"/>
        <path d="M7.11531 28.7929L6.79573 28.0522C6.78121 28.0594 6.76426 28.0666 6.74731 28.0714L7.06689 28.8122C6.98458 28.8603 6.94826 28.9637 6.987 29.0527C7.02815 29.1513 7.14436 29.1946 7.24121 29.1537C7.33805 29.1128 7.38405 28.9974 7.34289 28.9012C7.30415 28.8122 7.20489 28.7665 7.11289 28.7929H7.11531Z" fill="#666666"/>
        <path d="M8.16861 27.2778C8.06935 27.2778 7.98945 27.3499 7.97735 27.4437H7.17114C7.17114 27.4437 7.17114 27.4581 7.17114 27.4654C7.17114 27.475 7.17114 27.4846 7.17114 27.4942H7.97735C7.98945 27.588 8.06935 27.6602 8.16861 27.6602C8.27513 27.6602 8.36229 27.5736 8.36229 27.4678C8.36229 27.3619 8.27513 27.2754 8.16861 27.2754V27.2778Z" fill="#666666"/>
        <path d="M6.5416 28.9228V28.1171C6.5416 28.1171 6.52466 28.1171 6.51497 28.1171C6.50529 28.1171 6.49802 28.1171 6.48834 28.1171V28.9228C6.39392 28.9348 6.32129 29.0142 6.32129 29.1128C6.32129 29.2186 6.40845 29.3052 6.51497 29.3052C6.6215 29.3052 6.70865 29.2186 6.70865 29.1128C6.70865 29.0142 6.63602 28.9348 6.5416 28.9228Z" fill="#666666"/>
        <path d="M6.07441 27.9464C6.0623 27.9343 6.0502 27.9223 6.03809 27.9103L5.46431 28.4803C5.38925 28.4225 5.28031 28.4274 5.2101 28.4971C5.13505 28.5717 5.13505 28.6943 5.2101 28.7689C5.28515 28.8434 5.40862 28.8434 5.48367 28.7689C5.55388 28.6991 5.55873 28.5909 5.50062 28.5163L6.07441 27.9464Z" fill="#666666"/>
        <path d="M6.06701 28.853L6.32848 28.0907C6.31154 28.0858 6.29459 28.081 6.28006 28.0738L6.01859 28.8362C5.92417 28.817 5.82975 28.8699 5.79828 28.9613C5.76438 29.0623 5.81765 29.1705 5.91933 29.2066C6.02101 29.2403 6.12996 29.1873 6.16627 29.0863C6.19775 28.9949 6.15417 28.8939 6.06943 28.853H6.06701Z" fill="#666666"/>
        <path d="M5.23662 28.1724L5.95083 27.7973C5.94114 27.7828 5.93388 27.7684 5.92662 27.7516L5.21241 28.1267C5.15673 28.0498 5.05262 28.0233 4.96547 28.069C4.87105 28.1195 4.83473 28.235 4.88557 28.3288C4.93641 28.4226 5.05262 28.4586 5.14704 28.4081C5.2342 28.3624 5.27052 28.2614 5.23662 28.1724Z" fill="#666666"/>
        <path d="M12.2166 41.0032C11.8171 41.0032 11.4322 40.8421 11.1513 40.5607C10.8705 40.8421 10.4831 41.0032 10.0861 41.0032C9.25806 41.0032 8.58259 40.3322 8.58259 39.5097C8.58259 39.2644 8.64312 39.0239 8.76175 38.8075C8.17102 38.591 7.77881 38.0354 7.77881 37.4053C7.77881 36.5828 8.45428 35.9118 9.28227 35.9118C9.40816 35.9118 9.53164 35.9262 9.65269 35.9575C9.69627 35.1759 10.3572 34.5482 11.1537 34.5482C11.9503 34.5482 12.6112 35.1759 12.6548 35.9599C12.7758 35.9286 12.9017 35.9118 13.0252 35.9118C13.8532 35.9118 14.5287 36.6165 14.5287 37.4847C14.5287 38.1148 14.1607 38.6896 13.6062 38.9349C13.6837 39.1201 13.7224 39.3125 13.7224 39.5097C13.7224 40.3322 13.047 41.0032 12.219 41.0032H12.2166ZM11.1513 40.4116L11.19 40.4525C11.4564 40.7387 11.8292 40.9022 12.219 40.9022C12.9913 40.9022 13.6183 40.2793 13.6183 39.5121C13.6183 39.3125 13.5748 39.1153 13.49 38.9301L13.4682 38.882L13.5191 38.8628C14.0614 38.6487 14.427 38.0956 14.427 37.4871C14.427 36.6766 13.7999 36.0176 13.0276 36.0176C12.892 36.0176 12.754 36.0393 12.6233 36.0802L12.5579 36.1018V36.0321C12.5507 35.2721 11.9212 34.654 11.1586 34.654C10.3959 34.654 9.7689 35.2697 9.75922 36.0272V36.0946L9.69385 36.0753C9.56069 36.0345 9.42511 36.0152 9.28711 36.0152C8.5148 36.0152 7.88776 36.6381 7.88776 37.4053C7.88776 38.0114 8.27754 38.5429 8.85859 38.7305L8.91912 38.7497L8.88522 38.8051C8.75691 39.0191 8.68912 39.2644 8.68912 39.5097C8.68912 40.2769 9.31616 40.8998 10.0885 40.8998C10.4758 40.8998 10.8511 40.7363 11.1174 40.4501L11.1562 40.4092L11.1513 40.4116Z" fill="#666666"/>
        <path d="M12.2166 40.7868C11.8559 40.7868 11.5194 40.6401 11.2724 40.3756C11.2095 40.3082 11.0884 40.3082 11.0255 40.3756C10.7786 40.6401 10.4445 40.7868 10.0813 40.7868C9.37193 40.7868 8.79815 40.2144 8.79815 39.5122C8.79815 39.2861 8.8611 39.0624 8.97731 38.8652C9.00394 38.8219 9.00878 38.769 8.98941 38.7209C8.97004 38.6728 8.93373 38.6367 8.88288 38.6223C8.35026 38.4515 7.99194 37.9633 7.99194 37.4078C7.99194 36.7031 8.56815 36.1331 9.27509 36.1331C9.40099 36.1331 9.52688 36.1523 9.64793 36.1884C9.69877 36.2028 9.75446 36.1932 9.79561 36.1644C9.83677 36.1331 9.8634 36.085 9.8634 36.0321C9.87067 35.337 10.4469 34.7719 11.1466 34.7719C11.8462 34.7719 12.4224 35.3394 12.4297 36.0345C12.4297 36.0874 12.4563 36.1379 12.4999 36.1668C12.5435 36.198 12.5992 36.2052 12.65 36.1908C12.7711 36.1523 12.8945 36.1331 13.0204 36.1331C13.7298 36.1331 14.3036 36.7416 14.3036 37.4895C14.3036 38.0499 13.9695 38.5598 13.4707 38.757C13.4272 38.7738 13.3933 38.8075 13.3763 38.8508C13.3594 38.8941 13.3618 38.9422 13.3787 38.983C13.4586 39.1538 13.4974 39.3318 13.4974 39.517C13.4974 40.2216 12.9212 40.7916 12.2142 40.7916L12.2166 40.7868ZM11.1514 40.2433C11.2192 40.2433 11.2846 40.2721 11.3306 40.3226C11.563 40.5728 11.8777 40.7099 12.2166 40.7099C12.8824 40.7099 13.4247 40.1711 13.4247 39.5122C13.4247 39.339 13.386 39.1706 13.3134 39.0119C13.2843 38.9518 13.2843 38.882 13.3085 38.8195C13.3327 38.757 13.3836 38.7089 13.4465 38.6848C13.9162 38.4996 14.231 38.0186 14.231 37.4895C14.231 36.7849 13.6886 36.2101 13.0253 36.2101C12.9091 36.2101 12.7929 36.2293 12.6791 36.263C12.6064 36.287 12.5241 36.2726 12.4612 36.2293C12.3982 36.1836 12.3595 36.1114 12.3595 36.0345C12.3522 35.3803 11.8123 34.8464 11.1538 34.8464C10.4953 34.8464 9.9554 35.3779 9.94814 36.0297C9.94814 36.1066 9.9094 36.1788 9.84888 36.2221C9.78593 36.2678 9.70604 36.2798 9.63341 36.2582C9.51962 36.2245 9.40099 36.2077 9.28478 36.2077C8.61899 36.2077 8.07668 36.7464 8.07668 37.4078C8.07668 37.9296 8.4132 38.389 8.91436 38.5501C8.98457 38.5718 9.04267 38.6247 9.0693 38.6944C9.09594 38.7642 9.08867 38.8411 9.05236 38.9037C8.94341 39.0889 8.88288 39.2981 8.88288 39.5122C8.88288 40.1735 9.4252 40.7099 10.091 40.7099C10.4299 40.7099 10.7447 40.5728 10.9771 40.3226C11.0231 40.2721 11.0884 40.2433 11.1562 40.2433H11.1514Z" fill="#666666"/>
        <path d="M11.1513 38.5669C10.7615 38.5669 10.4443 38.2519 10.4443 37.8647C10.4443 37.4775 10.7615 37.1624 11.1513 37.1624C11.5411 37.1624 11.8582 37.4775 11.8582 37.8647C11.8582 38.2519 11.5411 38.5669 11.1513 38.5669ZM11.1513 37.2658C10.8196 37.2658 10.5484 37.5352 10.5484 37.8647C10.5484 38.1942 10.8196 38.4635 11.1513 38.4635C11.483 38.4635 11.7541 38.1942 11.7541 37.8647C11.7541 37.5352 11.483 37.2658 11.1513 37.2658Z" fill="#666666"/>
        <path d="M11.1246 36.4169V37.2154C11.1246 37.2154 11.1415 37.2154 11.1512 37.2154C11.1609 37.2154 11.1681 37.2154 11.1778 37.2154V36.4169C11.2723 36.4049 11.3449 36.3255 11.3449 36.2269C11.3449 36.1211 11.2577 36.0345 11.1512 36.0345C11.0447 36.0345 10.9575 36.1211 10.9575 36.2269C10.9575 36.3255 11.0302 36.4049 11.1246 36.4169Z" fill="#666666"/>
        <path d="M10.5509 36.5467L10.868 37.2803C10.8826 37.2731 10.8995 37.2658 10.9165 37.261L10.5993 36.5275C10.6816 36.4794 10.7179 36.376 10.6792 36.287C10.638 36.1884 10.5218 36.1451 10.425 36.186C10.3257 36.2269 10.2821 36.3423 10.3233 36.4385C10.362 36.5275 10.4613 36.5732 10.5533 36.5467H10.5509Z" fill="#666666"/>
        <path d="M9.6889 37.8936H10.4951C10.4951 37.8936 10.4951 37.8743 10.4951 37.8647C10.4951 37.8575 10.4951 37.8503 10.4951 37.8431H9.6889C9.67679 37.7493 9.5969 37.6771 9.49764 37.6771C9.39111 37.6771 9.30396 37.7637 9.30396 37.8695C9.30396 37.9753 9.39111 38.0619 9.49764 38.0619C9.5969 38.0619 9.67679 37.9898 9.6889 37.896V37.8936Z" fill="#666666"/>
        <path d="M9.52674 37.5112C9.61874 37.5424 9.72042 37.5015 9.76158 37.415L10.5218 37.6771C10.5266 37.6603 10.5315 37.6434 10.5387 37.629L9.77853 37.3669C9.7979 37.2731 9.74705 37.1793 9.65263 37.1456C9.55095 37.1095 9.442 37.1648 9.40569 37.2635C9.36937 37.3621 9.42506 37.4727 9.52432 37.5088L9.52674 37.5112Z" fill="#666666"/>
        <path d="M11.5991 36.4866L11.3401 37.2418C11.357 37.2466 11.3716 37.2538 11.3885 37.2587L11.6476 36.5035C11.742 36.5227 11.8364 36.4698 11.8679 36.3784C11.9018 36.2774 11.8485 36.1692 11.7468 36.1331C11.6451 36.0994 11.5362 36.1523 11.4999 36.2534C11.4684 36.3448 11.512 36.4458 11.5967 36.4866H11.5991Z" fill="#666666"/>
        <path d="M12.4296 37.1673L11.7178 37.5401C11.7275 37.5545 11.7347 37.5689 11.742 37.5858L12.4538 37.2106C12.5095 37.2875 12.6136 37.314 12.7007 37.2683C12.7951 37.2178 12.8314 37.1023 12.7806 37.0085C12.7298 36.9148 12.6136 36.8787 12.5191 36.9292C12.432 36.9749 12.3957 37.0759 12.4296 37.1649V37.1673Z" fill="#666666"/>
        <path d="M11.5967 37.3885C11.6088 37.4005 11.6209 37.4126 11.633 37.4246L12.2019 36.8594C12.277 36.9171 12.3859 36.9123 12.4561 36.8426C12.5312 36.768 12.5312 36.6454 12.4561 36.5708C12.3811 36.4963 12.2576 36.4963 12.1826 36.5708C12.1124 36.6406 12.1075 36.7488 12.1656 36.8233L11.5967 37.3885Z" fill="#666666"/>
        <path d="M10.0981 36.8618L10.667 37.427C10.6791 37.4149 10.6912 37.4029 10.7034 37.3909L10.1344 36.8257C10.1925 36.7512 10.1877 36.6429 10.1175 36.5732C10.0424 36.4986 9.91894 36.4986 9.84389 36.5732C9.76883 36.6477 9.76883 36.7704 9.84389 36.845C9.9141 36.9147 10.023 36.9195 10.0981 36.8618Z" fill="#666666"/>
        <path d="M12.7732 38.2279C12.6812 38.1966 12.5795 38.2375 12.5384 38.3241L11.7757 38.0595C11.7709 38.0763 11.7636 38.0908 11.7588 38.1076L12.5214 38.3722C12.502 38.466 12.5529 38.5598 12.6473 38.5934C12.749 38.6295 12.8579 38.5742 12.8943 38.4756C12.9306 38.3746 12.8749 38.2663 12.7756 38.2303L12.7732 38.2279Z" fill="#666666"/>
        <path d="M12.2019 38.8772L11.6281 38.3073C11.616 38.3193 11.6039 38.3313 11.5918 38.3433L12.1656 38.9133C12.1075 38.9879 12.1123 39.0961 12.1825 39.1658C12.2576 39.2404 12.3811 39.2404 12.4561 39.1658C12.5312 39.0913 12.5312 38.9686 12.4561 38.8941C12.3859 38.8243 12.2769 38.8195 12.2019 38.8772Z" fill="#666666"/>
        <path d="M11.7515 39.1923L11.432 38.4515C11.4174 38.4588 11.4005 38.466 11.3835 38.4708L11.7031 39.2115C11.6208 39.2596 11.5845 39.363 11.6232 39.452C11.6644 39.5506 11.7806 39.5939 11.8774 39.553C11.9743 39.5122 12.0203 39.3967 11.9791 39.3005C11.9404 39.2115 11.8411 39.1658 11.7491 39.1923H11.7515Z" fill="#666666"/>
        <path d="M12.8024 37.6771C12.7031 37.6771 12.6232 37.7492 12.6111 37.843H11.8049C11.8049 37.843 11.8049 37.8575 11.8049 37.8647C11.8049 37.8743 11.8049 37.8839 11.8049 37.8935H12.6111C12.6232 37.9873 12.7031 38.0595 12.8024 38.0595C12.9089 38.0595 12.9961 37.9729 12.9961 37.8671C12.9961 37.7613 12.9089 37.6747 12.8024 37.6747V37.6771Z" fill="#666666"/>
        <path d="M11.1754 39.3197V38.514C11.1754 38.514 11.1584 38.514 11.1488 38.514C11.1391 38.514 11.1318 38.514 11.1221 38.514V39.3197C11.0277 39.3317 10.9551 39.4111 10.9551 39.5097C10.9551 39.6155 11.0422 39.7021 11.1488 39.7021C11.2553 39.7021 11.3424 39.6155 11.3424 39.5097C11.3424 39.4111 11.2698 39.3317 11.1754 39.3197Z" fill="#666666"/>
        <path d="M10.7082 38.3433C10.6961 38.3313 10.684 38.3193 10.6719 38.3073L10.0981 38.8772C10.023 38.8195 9.9141 38.8243 9.84389 38.8941C9.76883 38.9686 9.76883 39.0913 9.84389 39.1658C9.91894 39.2404 10.0424 39.2404 10.1175 39.1658C10.1877 39.0961 10.1925 38.9879 10.1344 38.9133L10.7082 38.3433Z" fill="#666666"/>
        <path d="M10.7008 39.25L10.9623 38.4876C10.9453 38.4828 10.9284 38.478 10.9139 38.4708L10.6524 39.2332C10.558 39.2139 10.4635 39.2668 10.4321 39.3582C10.3982 39.4592 10.4514 39.5675 10.5531 39.6035C10.6548 39.6372 10.7637 39.5843 10.8001 39.4833C10.8315 39.3919 10.788 39.2909 10.7032 39.25H10.7008Z" fill="#666666"/>
        <path d="M9.87041 38.5718L10.5846 38.1966C10.5749 38.1821 10.5677 38.1677 10.5604 38.1509L9.8462 38.5261C9.79052 38.4491 9.68641 38.4226 9.59925 38.4683C9.50483 38.5188 9.46852 38.6343 9.51936 38.7281C9.5702 38.8219 9.68641 38.858 9.78083 38.8074C9.86799 38.7618 9.9043 38.6607 9.87041 38.5718Z" fill="#666666"/>
        <path d="M80.7439 30.6039C80.3444 30.6039 79.9595 30.4428 79.6787 30.1614C79.3978 30.4428 79.0104 30.6039 78.6134 30.6039C77.7854 30.6039 77.1099 29.9329 77.1099 29.1104C77.1099 28.8651 77.1705 28.6246 77.2891 28.4081C76.6984 28.1917 76.3062 27.6361 76.3062 27.006C76.3062 26.1835 76.9816 25.5125 77.8096 25.5125C77.9355 25.5125 78.059 25.5269 78.18 25.5582C78.2236 24.7765 78.8846 24.1488 79.6811 24.1488C80.4776 24.1488 81.1385 24.7765 81.1821 25.5606C81.3032 25.5293 81.4291 25.5125 81.5525 25.5125C82.3805 25.5125 83.056 26.2172 83.056 27.0854C83.056 27.7155 82.688 28.2903 82.1336 28.5356C82.2111 28.7208 82.2498 28.9132 82.2498 29.1104C82.2498 29.9329 81.5743 30.6039 80.7463 30.6039H80.7439ZM79.6762 30.0123L79.715 30.0532C79.9813 30.3394 80.3541 30.5029 80.7439 30.5029C81.5162 30.5029 82.1433 29.88 82.1433 29.1128C82.1433 28.9132 82.0997 28.716 82.015 28.5308L81.9932 28.4827L82.044 28.4634C82.5863 28.2494 82.9519 27.6962 82.9519 27.0878C82.9519 26.2773 82.3248 25.6183 81.5525 25.6183C81.417 25.6183 81.279 25.6399 81.1482 25.6808L81.0829 25.7025V25.6327C81.0756 24.8727 80.4461 24.2547 79.6835 24.2547C78.9209 24.2547 78.2938 24.8703 78.2841 25.6279V25.6953L78.2188 25.676C78.0856 25.6351 77.95 25.6159 77.812 25.6159C77.0397 25.6159 76.4127 26.2388 76.4127 27.006C76.4127 27.6121 76.8025 28.1436 77.3835 28.3312L77.444 28.3504L77.4101 28.4057C77.2818 28.6198 77.214 28.8651 77.214 29.1104C77.214 29.8776 77.8411 30.5005 78.6134 30.5005C79.0008 30.5005 79.376 30.337 79.6423 30.0508L79.6811 30.0099L79.6762 30.0123Z" fill="#666666"/>
        <path d="M80.744 30.3875C80.3833 30.3875 80.0467 30.2408 79.7998 29.9762C79.7368 29.9089 79.6158 29.9089 79.5528 29.9762C79.3059 30.2408 78.9718 30.3875 78.6086 30.3875C77.8993 30.3875 77.3255 29.8151 77.3255 29.1128C77.3255 28.8867 77.3884 28.6631 77.5047 28.4658C77.5313 28.4226 77.5361 28.3696 77.5168 28.3215C77.4974 28.2734 77.4611 28.2374 77.4102 28.2229C76.8776 28.0522 76.5193 27.564 76.5193 27.0084C76.5193 26.3037 77.0955 25.7337 77.8024 25.7337C77.9283 25.7337 78.0542 25.753 78.1753 25.7891C78.2261 25.8035 78.2818 25.7939 78.323 25.765C78.3641 25.7337 78.3907 25.6856 78.3907 25.6327C78.398 24.9377 78.9742 24.3725 79.6739 24.3725C80.3736 24.3725 80.9498 24.9401 80.957 25.6351C80.957 25.688 80.9837 25.7386 81.0273 25.7674C81.0708 25.7987 81.1265 25.8059 81.1774 25.7915C81.2984 25.753 81.4219 25.7337 81.5478 25.7337C82.2571 25.7337 82.8309 26.3422 82.8309 27.0902C82.8309 27.6505 82.4968 28.1604 81.9981 28.3576C81.9545 28.3745 81.9206 28.4081 81.9037 28.4514C81.8867 28.4947 81.8891 28.5428 81.9061 28.5837C81.986 28.7545 82.0247 28.9324 82.0247 29.1176C82.0247 29.8223 81.4485 30.3923 80.7416 30.3923L80.744 30.3875ZM79.6763 29.8439C79.7441 29.8439 79.8095 29.8728 79.8555 29.9233C80.0879 30.1734 80.4026 30.3105 80.7416 30.3105C81.4074 30.3105 81.9497 29.7718 81.9497 29.1128C81.9497 28.9396 81.9109 28.7713 81.8383 28.6126C81.8092 28.5524 81.8093 28.4827 81.8335 28.4202C81.8577 28.3576 81.9085 28.3095 81.9715 28.2855C82.4411 28.1003 82.7559 27.6193 82.7559 27.0902C82.7559 26.3855 82.2136 25.8107 81.5502 25.8107C81.434 25.8107 81.3178 25.8299 81.204 25.8636C81.1314 25.8877 81.049 25.8732 80.9861 25.8299C80.9232 25.7842 80.8844 25.7121 80.8844 25.6351C80.8771 24.981 80.3373 24.4471 79.6787 24.4471C79.0202 24.4471 78.4803 24.9786 78.4731 25.6303C78.4731 25.7073 78.4343 25.7794 78.3738 25.8227C78.3109 25.8684 78.231 25.8804 78.1583 25.8588C78.0445 25.8251 77.9259 25.8083 77.8097 25.8083C77.1439 25.8083 76.6016 26.347 76.6016 27.0084C76.6016 27.5303 76.9381 27.9897 77.4393 28.1508C77.5095 28.1724 77.5676 28.2253 77.5942 28.2951C77.6209 28.3648 77.6136 28.4418 77.5773 28.5043C77.4683 28.6895 77.4078 28.8988 77.4078 29.1128C77.4078 29.7742 77.9501 30.3105 78.6159 30.3105C78.9548 30.3105 79.2696 30.1734 79.502 29.9233C79.548 29.8728 79.6134 29.8439 79.6812 29.8439H79.6763Z" fill="#666666"/>
        <path d="M79.6762 28.1676C79.2864 28.1676 78.9692 27.8526 78.9692 27.4654C78.9692 27.0781 79.2864 26.7631 79.6762 26.7631C80.066 26.7631 80.3831 27.0781 80.3831 27.4654C80.3831 27.8526 80.066 28.1676 79.6762 28.1676ZM79.6762 26.8665C79.3445 26.8665 79.0733 27.1359 79.0733 27.4654C79.0733 27.7948 79.3445 28.0642 79.6762 28.0642C80.0079 28.0642 80.279 27.7948 80.279 27.4654C80.279 27.1359 80.0079 26.8665 79.6762 26.8665Z" fill="#666666"/>
        <path d="M79.6519 26.0199V26.8184C79.6519 26.8184 79.6689 26.8184 79.6785 26.8184C79.6882 26.8184 79.6955 26.8184 79.7052 26.8184V26.0199C79.7996 26.0079 79.8722 25.9286 79.8722 25.8299C79.8722 25.7241 79.7851 25.6375 79.6785 25.6375C79.572 25.6375 79.4849 25.7241 79.4849 25.8299C79.4849 25.9286 79.5575 26.0079 79.6519 26.0199Z" fill="#666666"/>
        <path d="M79.0758 26.1474L79.3929 26.881C79.4075 26.8737 79.4244 26.8665 79.4414 26.8617L79.1242 26.1282C79.2065 26.0801 79.2428 25.9767 79.2041 25.8877C79.1629 25.7891 79.0467 25.7458 78.9499 25.7867C78.8506 25.8276 78.807 25.943 78.8482 26.0392C78.8869 26.1282 78.9862 26.1739 79.0782 26.1474H79.0758Z" fill="#666666"/>
        <path d="M78.2162 27.4966H79.0224C79.0224 27.4966 79.0224 27.4774 79.0224 27.4678C79.0224 27.4606 79.0224 27.4533 79.0224 27.4461H78.2162C78.2041 27.3523 78.1242 27.2802 78.025 27.2802C77.9185 27.2802 77.8313 27.3668 77.8313 27.4726C77.8313 27.5784 77.9185 27.665 78.025 27.665C78.1242 27.665 78.2041 27.5928 78.2162 27.499V27.4966Z" fill="#666666"/>
        <path d="M78.0541 27.1118C78.1461 27.1431 78.2478 27.1022 78.2889 27.0156L79.0491 27.2778C79.054 27.2609 79.0588 27.2441 79.0661 27.2297L78.3059 26.9675C78.3252 26.8737 78.2744 26.7799 78.18 26.7463C78.0783 26.7102 77.9693 26.7655 77.933 26.8641C77.8967 26.9627 77.9524 27.0733 78.0517 27.1094L78.0541 27.1118Z" fill="#666666"/>
        <path d="M80.1265 26.0897L79.8674 26.8449C79.8844 26.8497 79.8989 26.8569 79.9158 26.8617L80.1749 26.1065C80.2693 26.1258 80.3637 26.0728 80.3952 25.9814C80.4291 25.8804 80.3758 25.7722 80.2742 25.7361C80.1725 25.7025 80.0635 25.7554 80.0272 25.8564C79.9957 25.9478 80.0393 26.0488 80.1241 26.0897H80.1265Z" fill="#666666"/>
        <path d="M80.9569 26.7703L80.2451 27.1431C80.2548 27.1575 80.2621 27.1719 80.2693 27.1888L80.9811 26.8136C81.0368 26.8906 81.1409 26.917 81.2281 26.8713C81.3225 26.8208 81.3588 26.7054 81.3079 26.6116C81.2571 26.5178 81.1409 26.4817 81.0465 26.5322C80.9593 26.5779 80.923 26.6789 80.9569 26.7679V26.7703Z" fill="#666666"/>
        <path d="M80.124 26.9916C80.1361 27.0036 80.1482 27.0156 80.1603 27.0276L80.7293 26.4625C80.8043 26.5202 80.9133 26.5154 80.9835 26.4456C81.0585 26.3711 81.0585 26.2484 80.9835 26.1739C80.9084 26.0993 80.785 26.0993 80.7099 26.1739C80.6397 26.2436 80.6349 26.3518 80.693 26.4264L80.124 26.9916Z" fill="#666666"/>
        <path d="M78.6254 26.4625L79.1944 27.0276C79.2065 27.0156 79.2186 27.0036 79.2307 26.9916L78.6618 26.4264C78.7199 26.3518 78.715 26.2436 78.6448 26.1739C78.5698 26.0993 78.4463 26.0993 78.3712 26.1739C78.2962 26.2484 78.2962 26.3711 78.3712 26.4456C78.4414 26.5154 78.5504 26.5202 78.6254 26.4625Z" fill="#666666"/>
        <path d="M81.3005 27.8285C81.2085 27.7972 81.1069 27.8381 81.0657 27.9247L80.3031 27.6602C80.2982 27.677 80.291 27.6914 80.2861 27.7083L81.0488 27.9728C81.0294 28.0666 81.0802 28.1604 81.1747 28.1941C81.2763 28.2301 81.3853 28.1748 81.4216 28.0762C81.4579 27.9752 81.4022 27.867 81.303 27.8309L81.3005 27.8285Z" fill="#666666"/>
        <path d="M80.7292 28.4779L80.1555 27.9079C80.1433 27.9199 80.1312 27.9319 80.1191 27.944L80.6929 28.514C80.6348 28.5885 80.6397 28.6967 80.7099 28.7665C80.7849 28.841 80.9084 28.841 80.9835 28.7665C81.0585 28.6919 81.0585 28.5693 80.9835 28.4947C80.9132 28.425 80.8043 28.4202 80.7292 28.4779Z" fill="#666666"/>
        <path d="M80.2764 28.7929L79.9569 28.0522C79.9423 28.0594 79.9254 28.0666 79.9084 28.0714L80.228 28.8122C80.1457 28.8603 80.1094 28.9637 80.1481 29.0527C80.1893 29.1513 80.3055 29.1946 80.4023 29.1537C80.4992 29.1128 80.5452 28.9974 80.504 28.9012C80.4653 28.8122 80.366 28.7665 80.274 28.7929H80.2764Z" fill="#666666"/>
        <path d="M81.3297 27.2778C81.2305 27.2778 81.1506 27.3499 81.1385 27.4437H80.3323C80.3323 27.4437 80.3323 27.4581 80.3323 27.4654C80.3323 27.475 80.3323 27.4846 80.3323 27.4942H81.1385C81.1506 27.588 81.2305 27.6602 81.3297 27.6602C81.4363 27.6602 81.5234 27.5736 81.5234 27.4678C81.5234 27.3619 81.4363 27.2754 81.3297 27.2754V27.2778Z" fill="#666666"/>
        <path d="M79.7027 28.9228V28.1171C79.7027 28.1171 79.6858 28.1171 79.6761 28.1171C79.6664 28.1171 79.6592 28.1171 79.6495 28.1171V28.9228C79.5551 28.9348 79.4824 29.0142 79.4824 29.1128C79.4824 29.2186 79.5696 29.3052 79.6761 29.3052C79.7826 29.3052 79.8698 29.2186 79.8698 29.1128C79.8698 29.0142 79.7972 28.9348 79.7027 28.9228Z" fill="#666666"/>
        <path d="M79.2355 27.9464C79.2234 27.9343 79.2113 27.9223 79.1992 27.9103L78.6254 28.4803C78.5504 28.4225 78.4414 28.4274 78.3712 28.4971C78.2962 28.5717 78.2962 28.6943 78.3712 28.7689C78.4463 28.8434 78.5698 28.8434 78.6448 28.7689C78.715 28.6991 78.7199 28.5909 78.6618 28.5163L79.2355 27.9464Z" fill="#666666"/>
        <path d="M79.2281 28.853L79.4896 28.0907C79.4727 28.0858 79.4557 28.081 79.4412 28.0738L79.1797 28.8362C79.0853 28.817 78.9909 28.8699 78.9594 28.9613C78.9255 29.0623 78.9788 29.1705 79.0805 29.2066C79.1821 29.2403 79.2911 29.1873 79.3274 29.0863C79.3589 28.9949 79.3153 28.8939 79.2306 28.853H79.2281Z" fill="#666666"/>
        <path d="M78.3978 28.1724L79.112 27.7973C79.1023 27.7828 79.095 27.7684 79.0878 27.7516L78.3735 28.1267C78.3179 28.0498 78.2138 28.0233 78.1266 28.069C78.0322 28.1195 77.9959 28.235 78.0467 28.3288C78.0975 28.4226 78.2138 28.4586 78.3082 28.4081C78.3953 28.3624 78.4317 28.2614 78.3978 28.1724Z" fill="#666666"/>
        <path d="M76.2722 40.3635C75.8728 40.3635 75.4878 40.2024 75.207 39.921C74.9261 40.2024 74.5388 40.3635 74.1417 40.3635C73.3137 40.3635 72.6383 39.6925 72.6383 38.87C72.6383 38.6247 72.6988 38.3842 72.8174 38.1677C72.2267 37.9513 71.8345 37.3957 71.8345 36.7656C71.8345 35.9431 72.5099 35.2721 73.3379 35.2721C73.4638 35.2721 73.5873 35.2865 73.7084 35.3178C73.7519 34.5362 74.4129 33.9084 75.2094 33.9084C76.0059 33.9084 76.6669 34.5362 76.7104 35.3202C76.8315 35.2889 76.9574 35.2721 77.0809 35.2721C77.9089 35.2721 78.5843 35.9768 78.5843 36.845C78.5843 37.4751 78.2163 38.0499 77.6619 38.2952C77.7394 38.4804 77.7781 38.6728 77.7781 38.87C77.7781 39.6925 77.1026 40.3635 76.2746 40.3635H76.2722ZM75.2046 39.7719L75.2433 39.8128C75.5096 40.099 75.8824 40.2625 76.2722 40.2625C77.0445 40.2625 77.6716 39.6396 77.6716 38.8724C77.6716 38.6728 77.628 38.4756 77.5433 38.2904L77.5215 38.2423L77.5723 38.2231C78.1146 38.009 78.4802 37.4559 78.4802 36.8474C78.4802 36.0369 77.8532 35.3779 77.0809 35.3779C76.9453 35.3779 76.8073 35.3996 76.6765 35.4404L76.6112 35.4621V35.3923C76.6039 34.6324 75.9744 34.0143 75.2118 34.0143C74.4492 34.0143 73.8221 34.63 73.8125 35.3875V35.4549L73.7471 35.4356C73.6139 35.3947 73.4784 35.3755 73.3404 35.3755C72.568 35.3755 71.941 35.9984 71.941 36.7656C71.941 37.3717 72.3308 37.9032 72.9118 38.0908L72.9724 38.11L72.9385 38.1653C72.8101 38.3794 72.7424 38.6247 72.7424 38.87C72.7424 39.6372 73.3694 40.2601 74.1417 40.2601C74.5291 40.2601 74.9043 40.0966 75.1707 39.8104L75.2094 39.7695L75.2046 39.7719Z" fill="#666666"/>
        <path d="M76.2723 40.147C75.9116 40.147 75.5751 40.0003 75.3281 39.7358C75.2652 39.6684 75.1441 39.6684 75.0812 39.7358C74.8342 40.0003 74.5001 40.147 74.137 40.147C73.4276 40.147 72.8538 39.5747 72.8538 38.8724C72.8538 38.6463 72.9168 38.4226 73.033 38.2254C73.0596 38.1821 73.0644 38.1292 73.0451 38.0811C73.0257 38.033 72.9894 37.997 72.9385 37.9825C72.4059 37.8118 72.0476 37.3235 72.0476 36.768C72.0476 36.0633 72.6238 35.4933 73.3308 35.4933C73.4567 35.4933 73.5825 35.5126 73.7036 35.5486C73.7544 35.5631 73.8101 35.5535 73.8513 35.5246C73.8924 35.4933 73.9191 35.4452 73.9191 35.3923C73.9263 34.6973 74.5025 34.1321 75.2022 34.1321C75.9019 34.1321 76.4781 34.6997 76.4854 35.3947C76.4854 35.4476 76.512 35.4981 76.5556 35.527C76.5992 35.5583 76.6548 35.5655 76.7057 35.551C76.8267 35.5126 76.9502 35.4933 77.0761 35.4933C77.7855 35.4933 78.3592 36.1018 78.3592 36.8498C78.3592 37.4101 78.0251 37.92 77.5264 38.1172C77.4828 38.134 77.4489 38.1677 77.432 38.211C77.415 38.2543 77.4175 38.3024 77.4344 38.3433C77.5143 38.514 77.553 38.692 77.553 38.8772C77.553 39.5819 76.9768 40.1519 76.2699 40.1519L76.2723 40.147ZM75.2046 39.6035C75.2724 39.6035 75.3378 39.6324 75.3838 39.6829C75.6162 39.933 75.9309 40.0701 76.2699 40.0701C76.9357 40.0701 77.478 39.5314 77.478 38.8724C77.478 38.6992 77.4393 38.5309 77.3666 38.3721C77.3376 38.312 77.3376 38.2423 77.3618 38.1797C77.386 38.1172 77.4368 38.0691 77.4998 38.0451C77.9695 37.8599 78.2842 37.3789 78.2842 36.8498C78.2842 36.1451 77.7419 35.5703 77.0785 35.5703C76.9623 35.5703 76.8461 35.5895 76.7323 35.6232C76.6597 35.6472 76.5774 35.6328 76.5144 35.5895C76.4515 35.5438 76.4127 35.4717 76.4127 35.3947C76.4055 34.7406 75.8656 34.2066 75.2071 34.2066C74.5485 34.2066 74.0086 34.7381 74.0014 35.3899C74.0014 35.4669 73.9626 35.539 73.9021 35.5823C73.8392 35.628 73.7593 35.64 73.6866 35.6184C73.5729 35.5847 73.4542 35.5679 73.338 35.5679C72.6722 35.5679 72.1299 36.1066 72.1299 36.768C72.1299 37.2899 72.4665 37.7492 72.9676 37.9104C73.0378 37.932 73.0959 37.9849 73.1225 38.0547C73.1492 38.1244 73.1419 38.2014 73.1056 38.2639C72.9967 38.4491 72.9361 38.6583 72.9361 38.8724C72.9361 39.5338 73.4784 40.0701 74.1442 40.0701C74.4832 40.0701 74.7979 39.933 75.0303 39.6829C75.0763 39.6324 75.1417 39.6035 75.2095 39.6035H75.2046Z" fill="#666666"/>
        <path d="M75.2045 37.9272C74.8147 37.9272 74.4976 37.6122 74.4976 37.225C74.4976 36.8378 74.8147 36.5227 75.2045 36.5227C75.5943 36.5227 75.9114 36.8378 75.9114 37.225C75.9114 37.6122 75.5943 37.9272 75.2045 37.9272ZM75.2045 36.6261C74.8728 36.6261 74.6017 36.8955 74.6017 37.225C74.6017 37.5545 74.8728 37.8238 75.2045 37.8238C75.5362 37.8238 75.8073 37.5545 75.8073 37.225C75.8073 36.8955 75.5362 36.6261 75.2045 36.6261Z" fill="#666666"/>
        <path d="M75.1802 35.7772V36.5756C75.1802 36.5756 75.1972 36.5756 75.2069 36.5756C75.2166 36.5756 75.2238 36.5756 75.2335 36.5756V35.7772C75.3279 35.7651 75.4006 35.6858 75.4006 35.5872C75.4006 35.4814 75.3134 35.3948 75.2069 35.3948C75.1003 35.3948 75.0132 35.4814 75.0132 35.5872C75.0132 35.6858 75.0858 35.7651 75.1802 35.7772Z" fill="#666666"/>
        <path d="M74.6041 35.907L74.9213 36.6406C74.9358 36.6334 74.9527 36.6261 74.9697 36.6213L74.6525 35.8878C74.7348 35.8397 74.7712 35.7363 74.7324 35.6473C74.6913 35.5487 74.575 35.5054 74.4782 35.5463C74.3789 35.5872 74.3354 35.7026 74.3765 35.7988C74.4153 35.8878 74.5145 35.9335 74.6065 35.907H74.6041Z" fill="#666666"/>
        <path d="M73.7446 37.2539H74.5508C74.5508 37.2539 74.5508 37.2346 74.5508 37.225C74.5508 37.2178 74.5508 37.2106 74.5508 37.2034H73.7446C73.7325 37.1096 73.6526 37.0374 73.5533 37.0374C73.4468 37.0374 73.3596 37.124 73.3596 37.2298C73.3596 37.3356 73.4468 37.4222 73.5533 37.4222C73.6526 37.4222 73.7325 37.3501 73.7446 37.2563V37.2539Z" fill="#666666"/>
        <path d="M73.58 36.8715C73.672 36.9027 73.7736 36.8618 73.8148 36.7753L74.575 37.0374C74.5798 37.0206 74.5847 37.0037 74.592 36.9893L73.8317 36.7272C73.8511 36.6334 73.8003 36.5396 73.7059 36.5059C73.6042 36.4698 73.4952 36.5251 73.4589 36.6237C73.4226 36.7223 73.4783 36.833 73.5775 36.8691L73.58 36.8715Z" fill="#666666"/>
        <path d="M75.6548 35.8469L75.3958 36.6021C75.4127 36.6069 75.4272 36.6141 75.4442 36.6189L75.7032 35.8638C75.7976 35.883 75.8921 35.8301 75.9235 35.7387C75.9574 35.6377 75.9042 35.5295 75.8025 35.4934C75.7008 35.4597 75.5918 35.5126 75.5555 35.6137C75.5241 35.705 75.5676 35.8061 75.6524 35.8469H75.6548Z" fill="#666666"/>
        <path d="M76.4828 36.5276L75.771 36.9003C75.7807 36.9148 75.7879 36.9292 75.7952 36.946L76.507 36.5709C76.5627 36.6478 76.6668 36.6743 76.7539 36.6286C76.8484 36.5781 76.8847 36.4626 76.8338 36.3688C76.783 36.275 76.6668 36.239 76.5724 36.2895C76.4852 36.3352 76.4489 36.4362 76.4828 36.5252V36.5276Z" fill="#666666"/>
        <path d="M75.6523 36.7488C75.6644 36.7608 75.6766 36.7729 75.6887 36.7849L76.2576 36.2197C76.3327 36.2774 76.4416 36.2726 76.5118 36.2029C76.5869 36.1283 76.5869 36.0057 76.5118 35.9311C76.4368 35.8565 76.3133 35.8565 76.2382 35.9311C76.168 36.0008 76.1632 36.1091 76.2213 36.1836L75.6523 36.7488Z" fill="#666666"/>
        <path d="M74.1538 36.2221L74.7227 36.7873C74.7348 36.7752 74.7469 36.7632 74.759 36.7512L74.1901 36.186C74.2482 36.1115 74.2433 36.0032 74.1731 35.9335C74.0981 35.8589 73.9746 35.8589 73.8996 35.9335C73.8245 36.008 73.8245 36.1307 73.8996 36.2052C73.9698 36.275 74.0787 36.2798 74.1538 36.2221Z" fill="#666666"/>
        <path d="M76.8289 37.5882C76.7369 37.5569 76.6352 37.5978 76.594 37.6844L75.8314 37.4198C75.8266 37.4366 75.8193 37.4511 75.8145 37.4679L76.5771 37.7325C76.5577 37.8262 76.6086 37.92 76.703 37.9537C76.8047 37.9898 76.9136 37.9345 76.9499 37.8359C76.9862 37.7349 76.9306 37.6266 76.8313 37.5906L76.8289 37.5882Z" fill="#666666"/>
        <path d="M76.2551 38.2375L75.6813 37.6675C75.6692 37.6796 75.6571 37.6916 75.645 37.7036L76.2188 38.2736C76.1607 38.3482 76.1655 38.4564 76.2358 38.5261C76.3108 38.6007 76.4343 38.6007 76.5093 38.5261C76.5844 38.4516 76.5844 38.3289 76.5093 38.2544C76.4391 38.1846 76.3302 38.1798 76.2551 38.2375Z" fill="#666666"/>
        <path d="M75.8048 38.5526L75.4852 37.8118C75.4707 37.819 75.4537 37.8263 75.4368 37.8311L75.7563 38.5718C75.674 38.6199 75.6377 38.7233 75.6764 38.8123C75.7176 38.9109 75.8338 38.9542 75.9307 38.9133C76.0275 38.8724 76.0735 38.757 76.0323 38.6608C75.9936 38.5718 75.8943 38.5261 75.8023 38.5526H75.8048Z" fill="#666666"/>
        <path d="M76.8581 37.0374C76.7588 37.0374 76.6789 37.1095 76.6668 37.2033H75.8606C75.8606 37.2033 75.8606 37.2178 75.8606 37.225C75.8606 37.2346 75.8606 37.2442 75.8606 37.2538H76.6668C76.6789 37.3476 76.7588 37.4198 76.8581 37.4198C76.9646 37.4198 77.0517 37.3332 77.0517 37.2274C77.0517 37.1216 76.9646 37.035 76.8581 37.035V37.0374Z" fill="#666666"/>
        <path d="M75.2311 38.68V37.8743C75.2311 37.8743 75.2141 37.8743 75.2044 37.8743C75.1947 37.8743 75.1875 37.8743 75.1778 37.8743V38.68C75.0834 38.692 75.0107 38.7714 75.0107 38.87C75.0107 38.9758 75.0979 39.0624 75.2044 39.0624C75.311 39.0624 75.3981 38.9758 75.3981 38.87C75.3981 38.7714 75.3255 38.692 75.2311 38.68Z" fill="#666666"/>
        <path d="M74.7639 37.7036C74.7518 37.6916 74.7397 37.6796 74.7275 37.6675L74.1538 38.2375C74.0787 38.1798 73.9698 38.1846 73.8996 38.2544C73.8245 38.3289 73.8245 38.4516 73.8996 38.5261C73.9746 38.6007 74.0981 38.6007 74.1731 38.5261C74.2433 38.4564 74.2482 38.3482 74.1901 38.2736L74.7639 37.7036Z" fill="#666666"/>
        <path d="M74.7565 38.6103L75.0179 37.8479C75.001 37.8431 74.984 37.8383 74.9695 37.8311L74.708 38.5934C74.6136 38.5742 74.5192 38.6271 74.4877 38.7185C74.4538 38.8195 74.5071 38.9277 74.6088 38.9638C74.7105 38.9975 74.8194 38.9446 74.8557 38.8436C74.8872 38.7522 74.8436 38.6512 74.7589 38.6103H74.7565Z" fill="#666666"/>
        <path d="M73.9261 37.9297L74.6403 37.5545C74.6306 37.5401 74.6233 37.5256 74.6161 37.5088L73.9019 37.884C73.8462 37.807 73.7421 37.7806 73.6549 37.8263C73.5605 37.8768 73.5242 37.9922 73.575 38.086C73.6259 38.1798 73.7421 38.2159 73.8365 38.1654C73.9237 38.1197 73.96 38.0187 73.9261 37.9297Z" fill="#666666"/>
        <path d="M43 54C31.6357 54 20.9298 51.2655 12.8581 46.2991C4.56607 41.1981 0 34.3437 0 26.9988C0 19.6539 4.56607 12.8019 12.8557 7.70089C20.9298 2.73451 31.6357 0 43 0C54.3643 0 65.0702 2.73451 73.1419 7.70089C81.4339 12.8019 85.9976 19.6539 85.9976 26.9988C85.9976 34.3437 81.4315 41.1981 73.1419 46.2967C65.0677 51.2631 54.3643 53.9976 43 53.9976V54ZM43 0.481005C31.7252 0.481005 21.109 3.19147 13.1123 8.10974C4.96796 13.1194 0.484207 19.827 0.484207 26.9988C0.484207 34.1706 4.96796 40.8782 13.1123 45.8879C21.1114 50.8085 31.7252 53.5166 43 53.5166C54.2748 53.5166 64.891 50.8061 72.8877 45.8879C81.0296 40.8782 85.5158 34.1706 85.5158 26.9988C85.5158 19.827 81.032 13.1194 72.8877 8.10974C64.8886 3.19147 54.2748 0.481005 43 0.481005Z" fill="#666666"/>
        <path d="M43 52.6772C20.0244 52.6772 1.33154 41.1596 1.33154 26.9988C1.33154 12.838 20.0244 1.32275 43 1.32275C65.9756 1.32275 84.6684 12.8404 84.6684 26.9988C84.6684 41.1572 65.9756 52.6772 43 52.6772ZM43 1.56326C20.1575 1.56326 1.57365 12.9751 1.57365 26.9988C1.57365 41.0225 20.1575 52.4367 43 52.4367C65.8424 52.4367 84.4263 41.0249 84.4263 26.9988C84.4263 12.9727 65.8424 1.56326 43 1.56326Z" fill="#666666"/>
    </g>
    <defs>
        <clipPath id="clip0_58_5482">
            <rect width="86" height="54" fill="white"/>
        </clipPath>
    </defs>
</svg>
