<svg width="200" height="126" viewBox="0 0 200 126" fill="none"
    xmlns="http://www.w3.org/2000/svg">
    <g clip-path="url(#clip0_159_1190)">
        <path d="M100 123.182C46.4176 123.182 2.82324 96.1868 2.82324 62.9972C2.82324 29.8076 46.4176 2.81842 100 2.81842C153.583 2.81842 197.177 29.8132 197.177 62.9972C197.177 96.1812 153.583 123.182 100 123.182ZM100 3.3821C46.7282 3.3821 3.38786 30.1288 3.38786 62.9972C3.38786 95.8655 46.7282 122.618 100 122.618C153.272 122.618 196.612 95.8712 196.612 62.9972C196.612 30.1232 153.272 3.3821 100 3.3821Z" fill="#0019A9"/>
        <path d="M100 107.038C58.4326 107.038 24.6118 87.2806 24.6118 62.9972C24.6118 38.7137 58.427 18.9623 100 18.9623C141.573 18.9623 175.388 38.7194 175.388 63.0028C175.388 87.2863 141.567 107.043 100 107.043V107.038ZM100 19.526C58.7432 19.526 25.1764 39.0294 25.1764 63.0028C25.1764 86.9762 58.7432 106.48 100 106.48C141.257 106.48 174.824 86.9762 174.824 63.0028C174.824 39.0294 141.257 19.526 100 19.526Z" fill="#0019A9"/>
        <path d="M96.3354 54.4066L95.4489 57.0221C91.7789 57.2589 85.4551 57.3603 81.8528 57.1912C74.8177 56.8869 72.9826 55.5284 71.317 52.5747C69.8208 55.1845 68.4939 56.8812 66.896 58.5441L65.332 56.9489C66.8283 55.658 68.6294 54.029 70.0918 51.9941V44.1871H65.7047V42.8286H72.2995V51.8532C74.4055 54.6716 76.0034 55.1451 81.9883 55.2465C86.2682 55.2804 92.3209 54.8407 96.3297 54.3954L96.3354 54.4066ZM66.2862 34.7567L66.8622 33.9111C68.731 34.8581 71.142 36.521 72.881 38.1839L71.2154 39.982C69.9224 38.4206 67.9858 36.2842 66.2862 34.7567ZM67.9858 28.1052L68.5278 27.2597C70.2951 28.1052 72.706 29.6328 74.5466 31.2618L72.9149 33.0938C71.4864 31.3971 69.6853 29.6328 67.9858 28.1052ZM73.3609 40.7655C75.8735 37.1692 78.1885 31.5719 79.1031 26.9215L81.4858 27.5979C81.1132 29.2269 80.3961 31.1266 79.5153 33.0262H86.2456C85.5003 31.1942 84.5122 29.1931 83.6314 27.6317L84.4783 27.0229C85.8391 28.4152 87.2676 30.2134 88.4533 32.1806L87.0248 33.0318H94.3648V34.3565H87.8039V38.4262H93.6139V39.7509H87.8039V43.9954H93.6139V45.3201H87.8039V50.1057H94.9746V51.4304H79.3403V53.4653H77.0987V37.5525C76.1106 39.1139 75.0943 40.5062 74.1401 41.487L73.3609 40.7712V40.7655ZM85.5963 34.3508H79.3403V38.4206H85.5963V34.3508ZM85.5963 39.7453H79.3403V43.9898H85.5963V39.7453ZM85.5963 45.3144H79.3403V50.1001H85.5963V45.3144Z" fill="#0019A9"/>
        <path d="M120.382 30.9236H111.032V29.4299H122.319C122.251 41.5772 127.384 50.6356 136.491 55.7257L134.487 58.5441C128.4 54.8463 123.369 48.0258 121.873 37.9133C120.343 45.6865 114.736 54.2375 106.035 58.5441L105.459 57.5576C113.517 52.6367 119.496 43.5783 120.382 30.918V30.9236Z" fill="#0019A9"/>
        <path d="M96.0024 86.2547V87.5794H88.9333V92.7709C88.9333 95.5555 86.3869 96.3672 80.8084 94.2985L81.0456 93.2782C86.1102 93.9546 86.6523 93.6841 86.6523 92.055V87.5737H65.75V86.2491H86.6523V83.566H88.9277V86.2491H95.9967L96.0024 86.2547ZM79.6848 68.4705H66.7324V67.1121H79.6848V64.1584H81.9941V67.1121H94.9127V68.4705H81.9941V70.6745H92.0557V79.1918H89.848C91.4798 80.3135 93.1793 81.9031 94.6755 83.6674L92.976 85.0597C92.5695 84.4171 91.9541 83.566 91.3104 82.7204C85.4327 83.7407 72.7174 84.4848 67.1785 84.3157L66.9075 82.1455C70.2726 82.2808 75.0662 82.2808 79.6848 82.2131V79.1918H69.7249V70.6745H79.6848V68.4705ZM71.9326 74.2426H79.6792V72.0386H71.9326V74.2426ZM79.6848 77.8389V75.4997H71.9382V77.8389H79.6848ZM73.1917 87.9514C75.0945 88.8364 77.5054 90.2907 79.2727 91.8183L77.7764 93.5826C76.4496 92.1565 74.3097 90.2907 72.6101 88.8307L73.1861 87.9458L73.1917 87.9514ZM81.9941 74.2426H89.848V72.0386H81.9941V74.2426ZM81.9941 77.8389H89.848V75.4997H81.9941V77.8389ZM81.9941 79.1974V82.1511C85.2915 82.0496 88.3179 81.9144 90.5594 81.7453C90.0174 81.0688 89.5036 80.4206 89.0632 79.9133L89.7746 79.203H81.9885L81.9941 79.1974Z" fill="#0019A9"/>
        <path d="M136.931 90.9896L136.254 93.6051C131.494 94.0786 125.583 94.0448 121.128 93.7066C118.169 93.5037 113.409 92.9287 110.795 87.4272C110.219 90.1779 109.163 92.6187 107.091 94.9242L106.34 94.2816C108.582 91.0573 109.13 86.9875 109.163 80.2684L111.371 80.4713C111.337 82.3709 111.269 84.1353 111.032 85.7643C111.879 87.3934 112.867 88.5827 113.923 89.4282V78.6055H106.82V77.2809H121.946V78.6055H116.17V82.8839H121.472V84.2085H116.17V90.7585C117.836 91.435 119.502 91.6041 120.829 91.6773C125.893 91.9817 131.81 91.6435 136.937 91.0009L136.931 90.9896ZM119.733 74.8063H108.926V64.6938H119.733V74.8063ZM117.588 66.0185H111.094V68.9046H117.588V66.0185ZM117.588 70.2574H111.094V73.4817H117.588V70.2574ZM125.679 84.885L127.751 86.2434C125.238 88.2107 122.28 89.7383 119.66 90.5556L119.253 89.6706C121.732 88.5151 124.081 86.6493 125.679 84.885ZM127.514 66.6611H121.258V65.3364H135.91V66.6611H129.93C129.287 67.9858 128.569 69.0004 127.926 69.9192H134.08V84.1014H122.624V69.9192H126.734C127.039 68.8989 127.31 67.7152 127.514 66.6611ZM132.002 71.1706H124.696V74.1243H132.002V71.1706ZM132.002 75.3475H124.696V78.3688H132.002V75.3475ZM132.002 79.5863H124.696V82.8444H132.002V79.5863ZM129.62 84.7497C131.692 85.4937 134.379 86.8522 136.384 88.2445L135.023 90.1441C133.459 88.6504 131.116 87.0213 129.179 85.6967L129.62 84.744V84.7497Z" fill="#0019A9"/>
        <path d="M54.5707 24.3455L54.4521 25.4672C52.3178 25.4559 49.6811 24.5597 48.1396 22.2655L48.0098 22.3106C48.1905 25.0332 46.9652 27.1301 44.272 28.8662L44.0123 28.5562C46.282 26.8144 47.2137 24.8922 47.1233 22.598L42.6402 24.0523L42.4878 23.5789L44.1534 23.0377L42.9508 19.34L46.107 18.3141L45.4295 16.2341L46.2708 15.9635L46.9483 18.0435L50.0594 17.0345L51.262 20.7323L52.9446 20.1855L53.097 20.659L48.5405 22.1358C49.89 23.669 52.1202 24.4469 54.5707 24.3455ZM47.0838 22.0851C47.0048 21.3128 46.8184 20.5011 46.5305 19.6274L46.2538 18.7763L43.8768 19.5485L44.9326 22.7841L47.0838 22.0851ZM47.0951 18.5001L47.4621 19.6218C47.7105 20.3884 47.8799 21.1043 47.959 21.7976L50.4659 20.9859L49.41 17.7504L47.0895 18.5001H47.0951Z" fill="#0019A9"/>
        <path d="M99.0119 11.8542C99.2377 11.2624 99.4466 10.4619 99.5595 9.76862L98.3513 9.81371L98.5545 15.4111C98.5884 16.3412 98.0633 16.995 95.8387 16.0931L95.9347 15.7155C97.5495 15.9691 97.7358 15.9128 97.7076 15.2533L97.51 9.8419L95.3983 9.92081L95.3813 9.44732L98.3908 9.34022C97.9221 8.81036 97.1994 8.08884 96.6179 7.54207L96.8437 7.23768C97.1994 7.43497 97.6455 7.70554 98.052 8.00429C98.4303 7.42933 98.8255 6.69655 99.0175 6.14414L95.6467 6.26815L95.6298 5.81156L99.0006 5.68755L99.2659 5.49026L100.13 5.9694C99.6612 6.80365 98.9723 7.68863 98.3964 8.25795C98.6787 8.46087 98.9328 8.67507 99.1135 8.84981L98.6731 9.34022L99.4918 9.31203L99.7346 9.10347L100.559 9.48114C100.231 10.3999 99.6612 11.5273 99.3224 12.0121L99.0062 11.8599L99.0119 11.8542ZM102.456 14.0752L103.247 14.5825C102.292 15.4393 100.819 16.2735 99.4805 16.7076L99.3168 16.3524C100.395 15.8789 101.609 15.0278 102.456 14.0752ZM102.772 6.18359L100.35 6.27378L100.333 5.78902L106.273 5.57482L106.29 6.05958L103.693 6.15541C103.461 6.70782 103.196 7.26587 102.987 7.64917L105.561 7.55334L105.787 13.6862L101.061 13.8553L100.836 7.72245L102.552 7.66044C102.648 7.2095 102.716 6.63454 102.772 6.18359ZM104.771 8.07757L101.649 8.19031L101.699 9.5206L104.822 9.40786L104.771 8.07757ZM104.839 9.88699L101.716 9.99973L101.767 11.4033L104.89 11.2906L104.839 9.88699ZM104.907 11.7753L101.784 11.8881L101.835 13.3424L104.957 13.2296L104.907 11.7753ZM106.962 15.5125L106.454 16.3242C105.787 15.7887 104.585 14.9658 103.619 14.3908L103.783 14.0357C104.827 14.357 106.03 14.9207 106.962 15.5125Z" fill="#0019A9"/>
        <path d="M106.431 116.051C105.906 115.944 105.24 115.758 104.545 115.499L104.687 119.422L103.879 119.45L103.857 118.864L98.5605 119.055L98.5831 119.664L97.7869 119.692L97.6401 115.747C96.9795 116.057 96.302 116.327 95.6414 116.541L95.5059 116.186C97.1263 115.566 99.0799 114.467 100.017 113.278L95.7543 113.436L95.7374 112.951L98.9218 112.832C98.5322 112.398 98.1031 111.953 97.77 111.643L97.9111 111.451C97.6853 111.474 97.4651 111.491 97.2505 111.502L97.1884 111.13C99.9268 110.831 102.185 110.262 103.315 109.839L104.088 110.493C103.348 110.696 102.372 110.905 101.31 111.068L101.372 112.742L102.332 112.708C102.688 112.212 103.111 111.485 103.411 110.854L104.145 111.248C103.704 111.812 103.275 112.325 102.852 112.686L106.194 112.562L106.211 113.047L101.576 113.216C103.027 114.366 105.076 114.929 106.764 115.166L106.437 116.045L106.431 116.051ZM96.7424 111.897L95.9237 111.925L95.839 109.602L101.113 109.411C100.463 109.073 99.6558 108.717 98.9839 108.458L99.0799 108.092C99.78 108.193 100.87 108.396 101.677 108.729L101.378 109.4L105.889 109.236L105.974 111.547L105.155 111.575L105.087 109.766L96.669 110.07L96.7367 111.897H96.7424ZM104.116 115.329C103.106 114.907 102.072 114.309 101.401 113.565L101.457 115.081L100.638 115.11L100.587 113.717C100 114.399 99.0799 115.014 98.0523 115.549L104.122 115.329H104.116ZM99.6163 112.511L99.3171 112.821L100.548 112.776L100.491 111.186C99.7236 111.288 98.9162 111.378 98.137 111.446C98.6677 111.728 99.2098 112.116 99.622 112.511H99.6163ZM100.689 115.938L98.4532 116.023L98.4871 117.026L100.723 116.942L100.689 115.938ZM100.746 117.426L98.5096 117.511L98.5492 118.576L100.785 118.492L100.746 117.426ZM103.749 115.826L101.485 115.91L101.525 116.913L103.789 116.829L103.755 115.826H103.749ZM103.8 117.319L101.536 117.404L101.576 118.469L103.84 118.385L103.8 117.319Z" fill="#0019A9"/>
        <path d="M50.4208 105.206L49.3706 109.388C49.1053 110.448 48.1511 110.414 46.604 109.366L46.7508 109.044C48.3205 109.631 48.4898 109.631 48.6592 108.96L49.5287 105.488C48.9472 105.651 48.3769 105.786 47.8292 105.882L47.6598 104.98C48.2583 104.941 48.9867 104.862 49.7207 104.738L50.4152 101.965L48.727 101.542L48.8455 101.074L50.5338 101.497L51.1323 99.1011L51.9058 99.2927L51.3073 101.688L52.6116 102.015L52.493 102.483L51.1887 102.156L50.5846 104.58C51.0024 104.496 51.4146 104.388 51.7872 104.281L51.8832 104.625C51.4315 104.845 50.9346 105.042 50.4265 105.211L50.4208 105.206ZM57.6536 111.66L57.089 112.438C56.5131 112.167 54.4974 110.961 54.2772 108.61H54.2659C53.0971 110.403 51.2565 110.797 49.3198 110.6L49.2916 110.251C51.1492 110.318 52.5325 109.805 53.4585 108.407L50.4547 107.658L50.5733 107.179L53.7239 107.962C53.9158 107.601 54.0965 107.184 54.2433 106.711L55.0281 106.959C54.887 107.41 54.7233 107.816 54.5313 108.165L58.0432 109.039L57.9246 109.524L54.6668 108.712C55.1241 110.211 56.5639 111.17 57.6593 111.66H57.6536ZM55.2596 100.026L56.0106 100.522C55.7565 100.82 55.525 101.08 55.2879 101.316L56.7954 101.694L57.089 101.598L57.7666 102.218C57.3431 102.686 56.5978 103.255 56.0501 103.582L58.478 104.191L57.4447 108.312L56.6825 108.12L57.5972 104.467L53.4698 103.436L52.5438 107.122L51.7816 106.931L52.7414 103.098C52.4761 103.222 52.205 103.334 51.9284 103.43L51.7816 103.098C53.0802 102.472 54.345 101.407 55.2596 100.02V100.026ZM55.8807 104.304C55.717 104.546 55.5589 104.76 55.3839 104.958C55.9711 105.538 56.4566 106.198 56.7333 106.688L56.0671 107.1C55.8299 106.514 55.4911 105.854 55.1241 105.24C54.503 105.865 53.7973 106.294 53.0124 106.559L52.8544 106.209C53.8312 105.696 54.6103 104.986 55.2314 103.887L55.8807 104.304ZM53.2101 102.866L55.542 103.447C55.9711 103.069 56.4002 102.573 56.6881 102.156L54.8644 101.7C54.3054 102.19 53.7634 102.562 53.2157 102.861L53.2101 102.866Z" fill="#0019A9"/>
        <path d="M150.607 102.483C150.494 102.9 150.358 103.323 150.2 103.723L155.621 101.965L157.495 107.731L156.693 107.99L156.434 107.201L151.629 108.763L151.9 109.602L151.098 109.862L149.562 105.149C149.049 106.141 148.405 107.055 147.688 107.821L147.383 107.568C148.512 106.13 149.331 104.479 149.743 102.765L146.632 103.774L146.48 103.3L149.873 102.196C149.929 101.852 149.991 101.502 150.02 101.153L146.813 102.196L146.66 101.733L150.054 100.629C150.082 100.268 150.076 99.9015 150.054 99.5464C148.811 100.082 147.524 100.578 146.372 100.939L146.208 100.6C149.331 99.3773 151.815 98.0131 153.424 96.8463L154.418 97.2916C153.645 97.8159 152.363 98.4923 150.94 99.1405C150.963 99.5407 150.98 99.9409 150.951 100.341L155.378 98.9038L155.53 99.366L150.917 100.865C150.878 101.22 150.816 101.564 150.737 101.919L156.535 100.037L156.688 100.51L150.607 102.483ZM154.971 102.703L150.166 104.264L150.5 105.279L155.305 103.718L154.971 102.703ZM155.446 104.169L150.641 105.73L150.985 106.778L155.79 105.217L155.446 104.163V104.169ZM155.931 105.657L151.126 107.218L151.482 108.306L156.287 106.745L155.931 105.657Z" fill="#0019A9"/>
        <path d="M156.394 26.1154C155.942 25.8279 155.389 25.4052 154.841 24.9091L153.537 28.6125L152.775 28.3476L152.967 27.7952L147.97 26.0365L147.767 26.6115L147.016 26.3465L148.331 22.6206C147.603 22.6657 146.875 22.677 146.18 22.6262V22.2429C147.919 22.2598 150.138 21.9498 151.448 21.1832L147.422 19.7684L147.586 19.3118L150.59 20.3659C150.387 19.8191 150.149 19.2498 149.952 18.8383L150.155 18.7143C149.941 18.6523 149.726 18.5903 149.523 18.517L149.602 18.1506C152.261 18.8721 154.57 19.1709 155.779 19.1878L156.253 20.0784C155.491 19.9938 154.508 19.836 153.458 19.5936L152.899 21.1776L153.803 21.4932C154.316 21.1607 154.971 20.6421 155.485 20.1629L156.027 20.7999C155.412 21.1607 154.825 21.482 154.299 21.668L157.456 22.7784L157.292 23.235L152.916 21.6962C153.842 23.297 155.542 24.5653 157.027 25.4052L156.4 26.1042L156.394 26.1154ZM150.596 25.315L148.484 24.5709L148.128 25.5799L150.24 26.324L150.596 25.315ZM148.902 18.703L148.128 18.4324L148.902 16.2397L153.876 17.9871C153.396 17.4347 152.775 16.809 152.25 16.3243L152.476 16.0199C153.091 16.3694 154.028 16.9612 154.661 17.5644L154.136 18.0773L158.393 19.5767L157.625 21.7582L156.852 21.4876L157.456 19.774L149.511 16.9838L148.902 18.7086V18.703ZM151.092 23.9114L148.981 23.1674L148.648 24.1144L150.759 24.8584L151.092 23.9114ZM154.503 24.5935C153.718 23.8325 152.978 22.8968 152.623 21.9554L152.12 23.3872L151.346 23.1166L151.809 21.8033C151.013 22.2204 149.929 22.4571 148.777 22.5811L154.503 24.5935ZM151.352 20.3264L150.957 20.5068L152.12 20.9126L152.651 19.4132C151.9 19.2272 151.115 19.0187 150.364 18.7932C150.759 19.2498 151.115 19.8078 151.352 20.3264ZM153.481 26.3296L151.346 25.5799L150.991 26.5889L153.125 27.3386L153.481 26.3296ZM153.978 24.9261L151.843 24.1764L151.51 25.1233L153.644 25.873L153.978 24.9261Z" fill="#0019A9"/>
        <path d="M68.7652 15.5295C69.1266 14.7967 69.4936 13.8384 69.8041 12.7505C69.1492 13.0831 68.3869 13.4157 67.811 13.6411L67.4609 12.9027L68.0933 12.7787C68.3417 11.7528 68.5507 10.3661 68.6184 8.96256L69.4992 9.05275C69.2621 10.2759 68.8612 11.7528 68.4998 12.6716C68.9798 12.5476 69.4766 12.4123 69.9283 12.2714C70.0638 11.7528 70.1824 11.1947 70.2727 10.6311L71.1197 10.8171C70.7301 12.3616 69.9735 14.1992 69.2451 15.3716C69.838 15.1743 70.4534 14.9545 71.0293 14.7234C70.8148 14.4134 70.6002 14.1146 70.4139 13.861L70.6962 13.6242C71.2495 14.0977 71.9327 14.7854 72.3618 15.4055L71.7408 15.8564C71.5883 15.6084 71.4189 15.3265 71.2326 15.0447C70.301 15.6366 69.0814 16.2623 68.3756 16.5441L67.9747 15.738C68.2175 15.676 68.4829 15.6084 68.7596 15.5295H68.7652ZM69.1774 16.8823H69.5331C69.7702 18.1957 69.7872 19.4696 69.6347 20.349L68.7426 20.1348C69.0306 19.2892 69.2226 18.1506 69.183 16.8823H69.1774ZM70.38 16.499C70.8317 17.2938 71.3738 18.5283 71.6391 19.2272L70.8374 19.5373C70.6567 18.7763 70.3179 17.5136 70.0469 16.6174L70.38 16.499ZM72.5933 17.7278L71.944 18.1506C71.6278 17.4516 71.2608 16.7808 70.9221 16.1608L71.227 15.9635C71.7238 16.4821 72.1755 17.0909 72.5933 17.7278ZM74.8744 14.4979L72.4974 14.9714L71.4754 9.87009L73.6097 9.44169C73.6661 8.96256 73.6831 8.42706 73.6774 7.86902L74.5582 7.8972C74.4171 8.39324 74.2364 8.94002 74.0501 9.3515L77.3305 8.692L78.3525 13.7933L74.9704 14.4697C75.6423 14.729 76.4666 15.1574 77.116 15.6253L76.636 16.3299C76.0206 15.7437 75.2809 15.1969 74.6994 14.7798L74.8688 14.4923L74.8744 14.4979ZM73.1693 14.3457L73.7677 14.2274L73.5984 14.0188C74.1065 13.5904 74.5865 13.0605 74.9647 12.4179C74.6147 12.2601 74.2646 12.1023 73.9202 11.9557C73.7452 12.2939 73.5532 12.5983 73.3669 12.8632L73.062 12.6829C73.2201 12.3841 73.3499 12.091 73.4516 11.781C73.2596 11.7077 73.0676 11.6288 72.8757 11.5668L72.9603 11.2342L73.5871 11.3751C73.7226 10.9073 73.8242 10.4169 73.8863 9.887L72.3393 10.197L73.1749 14.3514L73.1693 14.3457ZM72.9603 16.0819L73.3386 16.0706C73.5363 17.1191 73.5419 18.0829 73.3217 19.013L72.4691 18.7425C72.8644 17.8518 72.9999 17.1416 72.966 16.0875L72.9603 16.0819ZM77.6749 16.1777C78.3525 17.7166 78.3073 18.3197 77.4152 18.5621C76.8111 18.7199 76.2013 18.8439 75.6818 18.9059C74.6598 19.0468 74.3719 18.8157 74.1856 17.9026L73.6661 15.3209L74.4566 15.1631L74.9591 17.6602C75.0551 18.145 75.2471 18.2126 75.7157 18.1562C76.1222 18.0999 76.636 18.0097 77.0934 17.8688C77.562 17.7278 77.6128 17.6264 77.3079 16.2679L77.6693 16.1833L77.6749 16.1777ZM76.6586 9.32896L74.1122 9.84191L74.6316 9.90391C74.5808 10.1407 74.5356 10.3661 74.4622 10.586L75.4616 10.3887L75.6818 10.1519L76.3989 10.3661C76.269 11.0482 76.077 11.6231 75.8343 12.1023C76.2747 12.277 76.6925 12.463 77.1047 12.6716L76.7264 13.3311C76.3481 13.1 75.9415 12.8914 75.5181 12.6716C75.072 13.3537 74.5469 13.8271 74.0331 14.1879L77.4999 13.4946L76.6643 9.34023L76.6586 9.32896ZM74.1291 11.5217C74.4905 11.6231 74.8575 11.7415 75.2301 11.8712C75.3769 11.5386 75.4842 11.1722 75.5632 10.7663L74.3324 11.0144C74.2646 11.1891 74.1969 11.3582 74.1291 11.5217ZM79.6793 16.9443L79.0413 17.4404C78.584 16.6681 78.121 15.9635 77.5451 15.242L77.7991 14.9996C78.4936 15.5577 79.1599 16.2115 79.6737 16.9443H79.6793Z" fill="#0019A9"/>
        <path d="M27.5253 35.5346L24.7699 37.4567L25.3176 38.2402L24.6005 38.7363L21.4951 34.2945L24.9619 31.8763L23.5786 29.9034L24.3126 29.3904L25.6959 31.3633L29.174 28.9395L32.2399 33.3193L31.5341 33.8097L31.0259 33.0882L28.2536 35.0216L30.9751 38.911L30.2411 39.424L27.5196 35.5346H27.5253ZM27.226 35.1062L25.2724 32.3159L22.5171 34.2381L24.4707 37.0283L27.226 35.1062ZM30.738 32.6598L28.7844 29.8696L26.0121 31.803L27.9657 34.5932L30.738 32.6598Z" fill="#0019A9"/>
        <path d="M132.296 18.7706L129.219 18.004L128.649 20.27L127.853 20.0727L128.417 17.8067L125.605 17.1021C124.702 18.5113 123.172 18.827 121.247 18.5339L121.269 18.1393C123.008 18.2633 124.098 17.9984 124.798 16.8936L121.794 16.1439L121.913 15.676L125.041 16.4539C125.171 16.189 125.284 15.8902 125.38 15.552L123.787 15.1518L124.843 10.9354L132.014 12.728L130.958 16.9443L129.569 16.6005L129.338 17.5305L132.415 18.2971L132.296 18.765V18.7706ZM123.07 11.0989L122.895 10.772C123.951 10.1012 125.097 8.84982 125.809 7.5928L126.577 8.0663C126.373 8.37069 126.142 8.67507 125.876 8.96819L129.072 9.76862L128.954 10.2365L126.865 9.71789C127.085 10.1181 127.26 10.5465 127.424 11.0707L126.616 11.2286C126.554 10.5972 126.481 10.1294 126.385 9.59388L125.493 9.3684C124.742 10.1181 123.861 10.7663 123.07 11.0933V11.0989ZM124.685 14.8869L130.286 16.2848L130.489 15.4675L124.888 14.0695L124.685 14.8869ZM125.001 13.6298L130.602 15.0278L130.806 14.2104L125.205 12.8125L125.001 13.6298ZM125.317 12.3785L130.919 13.7764L131.116 12.9929L125.515 11.595L125.317 12.3785ZM128.536 17.3332L128.767 16.4088L126.187 15.7662C126.091 16.0988 125.978 16.4032 125.848 16.6681L128.541 17.3389L128.536 17.3332ZM127.915 11.3131C128.762 10.7945 129.733 9.89827 130.439 8.75399L131.173 9.24439C130.941 9.56006 130.676 9.83626 130.422 10.0956L134.188 11.0369L134.069 11.5048L131.511 10.8678C131.737 11.2962 131.94 11.7697 132.093 12.2939L131.291 12.4236C131.229 11.7922 131.161 11.3018 131.054 10.7494L129.981 10.4789C129.315 11.0313 128.632 11.4089 128.084 11.6457L127.915 11.3075V11.3131Z" fill="#0019A9"/>
        <path d="M124.318 110.014L123.511 110.177L123.054 107.9L128.226 106.863C127.531 106.632 126.679 106.412 125.973 106.26L126.012 105.882C126.718 105.865 127.83 105.899 128.683 106.096L128.497 106.807L132.923 105.922L133.375 108.188L132.568 108.351L132.212 106.57L123.951 108.221L124.313 110.014H124.318ZM134.549 112.562C134.013 112.545 133.324 112.466 132.596 112.319L133.369 116.169L132.579 116.327L132.466 115.752L127.271 116.789L127.39 117.387L126.611 117.545L125.832 113.672C125.228 114.084 124.606 114.461 123.985 114.777L123.793 114.45C125.295 113.582 127.04 112.179 127.78 110.854L123.596 111.688L123.5 111.215L126.622 110.589C126.17 110.223 125.674 109.856 125.295 109.602L125.403 109.388C125.188 109.445 124.968 109.501 124.759 109.54L124.635 109.185C127.294 108.453 129.428 107.528 130.473 106.931L131.337 107.455C130.637 107.771 129.711 108.137 128.683 108.464L129.01 110.11L129.948 109.924C130.219 109.377 130.518 108.593 130.716 107.923L131.506 108.193C131.162 108.819 130.823 109.394 130.462 109.822L133.742 109.168L133.838 109.642L129.287 110.549C130.902 111.457 133.014 111.677 134.719 111.643L134.538 112.567L134.549 112.562ZM127.249 110.161L127 110.516L128.209 110.273L127.898 108.712C127.159 108.937 126.374 109.157 125.617 109.343C126.187 109.535 126.78 109.834 127.254 110.155L127.249 110.161ZM132.144 112.218C131.077 111.964 129.965 111.536 129.18 110.91L129.479 112.398L128.672 112.562L128.395 111.198C127.926 111.964 127.113 112.72 126.187 113.413L132.138 112.224L132.144 112.218ZM128.858 113.368L126.662 113.808L126.859 114.794L129.056 114.354L128.858 113.368ZM129.152 114.833L126.955 115.273L127.164 116.322L129.361 115.882L129.152 114.833ZM131.862 112.77L129.643 113.216L129.84 114.202L132.059 113.757L131.862 112.77ZM132.155 114.23L129.936 114.676L130.145 115.724L132.364 115.279L132.155 114.23Z" fill="#0019A9"/>
        <path d="M73.1241 108.966L71.0181 117.376L70.2333 117.178L71.9893 110.177C71.3682 110.752 70.685 111.248 69.9453 111.637L69.7646 111.282C71.4359 110.087 72.8136 108.267 73.9711 106.074L74.7728 106.553C74.276 107.415 73.7396 108.227 73.1298 108.96L73.1241 108.966ZM75.5802 112.218C74.8124 113.537 73.5645 115.093 72.232 116.057L71.9893 115.752C73.0564 114.726 74.084 113.216 74.7785 111.728L75.5802 112.224V112.218ZM78.0533 109.98L76.1674 117.5C75.9021 118.559 74.9705 118.751 72.8136 117.212L72.983 116.885C74.9705 117.714 75.2358 117.663 75.4109 116.964L77.212 109.772L75.4956 109.343C74.8519 110.183 74.1009 110.927 73.3048 111.496L73.0451 111.186C74.3155 110.02 75.3036 108.464 76.0319 106.694L76.8902 107.111C76.5966 107.714 76.2239 108.329 75.8117 108.915L80.2158 110.014L80.5658 109.884L81.3337 110.611C80.6731 111.294 79.7302 111.992 79.0809 112.325L78.8381 112.009C79.3067 111.575 79.8488 110.944 80.1424 110.493L78.042 109.969L78.0533 109.98ZM79.8657 117.381L78.8889 117.545C78.8099 116.119 78.4993 114.027 78.2227 112.731L78.5727 112.613C79.1261 113.943 79.6512 115.978 79.8657 117.376V117.381Z" fill="#0019A9"/>
        <path d="M166.326 37.1072L174.332 44.5591L173.994 44.9199L165.987 37.468L166.326 37.1072ZM171.413 34.8863L176.173 39.3169L173.406 42.2762L168.647 37.8457L171.413 34.8863ZM169.223 33.8999L169.352 33.5278C171.125 34.1084 173.536 34.3508 175.213 33.883L172.3 31.1716L172.633 30.8165L176.06 34.0126L177.291 32.6936L177.929 33.2855L176.698 34.6045L180.12 37.7893L179.787 38.1444L176.619 35.1963C176.495 37.1354 177.167 39.0519 178.166 40.6641L177.172 40.9797C176.309 39.1929 175.908 37.0001 176.286 35.0441L174.383 37.079L173.745 36.4872L175.524 34.5819C173.711 35.1005 171.08 34.6778 169.217 33.9055L169.223 33.8999ZM169.578 38.0486L173.13 41.3518L174.078 40.3371L170.527 37.0339L169.578 38.0486ZM170.866 36.6676L174.411 39.9707L175.224 39.097L171.673 35.7938L170.86 36.6676H170.866Z" fill="#0019A9"/>
        <path d="M17.4017 71.4468C16.4701 71.4468 15.5724 71.0691 14.9174 70.4096C14.2625 71.0691 13.3591 71.4468 12.4331 71.4468C10.5021 71.4468 8.92679 69.8741 8.92679 67.9463C8.92679 67.3714 9.06794 66.8077 9.34461 66.3004C7.96693 65.793 7.05225 64.4909 7.05225 63.0141C7.05225 61.0863 8.62754 59.5136 10.5585 59.5136C10.8521 59.5136 11.1401 59.5474 11.4224 59.6207C11.524 57.7887 13.0655 56.3175 14.9231 56.3175C16.7807 56.3175 18.3221 57.7887 18.4237 59.6264C18.706 59.5531 18.9996 59.5136 19.2876 59.5136C21.2186 59.5136 22.7939 61.1652 22.7939 63.2001C22.7939 64.6769 21.9357 66.0242 20.6427 66.5991C20.8233 67.0331 20.9137 67.4841 20.9137 67.9463C20.9137 69.8741 19.3384 71.4468 17.4074 71.4468H17.4017ZM14.9118 70.0601L15.0021 70.1559C15.6232 70.8267 16.4927 71.21 17.4017 71.21C19.2029 71.21 20.6653 69.7501 20.6653 67.9519C20.6653 67.4841 20.5636 67.0219 20.366 66.5878L20.3152 66.4751L20.4338 66.43C21.6985 65.9283 22.5511 64.6319 22.5511 63.2057C22.5511 61.3061 21.0887 59.7616 19.2876 59.7616C18.9714 59.7616 18.6496 59.8124 18.3447 59.9082L18.1922 59.9589V59.7955C18.1753 58.0142 16.7073 56.5656 14.9287 56.5656C13.1502 56.5656 11.6878 58.0086 11.6652 59.7842V59.942L11.5128 59.8969C11.2022 59.8011 10.886 59.756 10.5642 59.756C8.76305 59.756 7.30068 61.2159 7.30068 63.0141C7.30068 64.4346 8.20972 65.6803 9.56481 66.12L9.70596 66.1651L9.62692 66.2947C9.32767 66.7964 9.16957 67.3714 9.16957 67.9463C9.16957 69.7445 10.6319 71.2044 12.4331 71.2044C13.3365 71.2044 14.2116 70.8211 14.8327 70.1503L14.9231 70.0545L14.9118 70.0601Z" fill="#0019A9"/>
        <path d="M17.402 70.9395C16.5607 70.9395 15.7758 70.5956 15.1999 69.9756C15.0531 69.8177 14.7708 69.8177 14.624 69.9756C14.0481 70.5956 13.2689 70.9395 12.422 70.9395C10.7677 70.9395 9.4295 69.5979 9.4295 67.952C9.4295 67.4221 9.57631 66.8979 9.84732 66.4356C9.90943 66.3342 9.92072 66.2102 9.87555 66.0974C9.83038 65.9847 9.74569 65.9001 9.62712 65.8663C8.38495 65.4661 7.54932 64.3218 7.54932 63.0197C7.54932 61.3681 8.89311 60.0322 10.5418 60.0322C10.8354 60.0322 11.129 60.0773 11.4113 60.1619C11.5299 60.1957 11.6598 60.1731 11.7557 60.1055C11.8517 60.0322 11.9138 59.9195 11.9138 59.7955C11.9308 58.1664 13.2746 56.8418 14.9063 56.8418C16.5381 56.8418 17.8819 58.1721 17.8988 59.8011C17.8988 59.9251 17.9609 60.0435 18.0626 60.1111C18.1642 60.1844 18.2941 60.2013 18.4126 60.1675C18.6949 60.0773 18.9829 60.0322 19.2765 60.0322C20.9308 60.0322 22.269 61.4583 22.269 63.2114C22.269 64.5248 21.4898 65.7198 20.3267 66.182C20.2251 66.2215 20.146 66.3004 20.1065 66.4018C20.067 66.5033 20.0726 66.616 20.1121 66.7119C20.2985 67.1121 20.3888 67.5292 20.3888 67.9632C20.3888 69.6148 19.045 70.9507 17.3963 70.9507L17.402 70.9395ZM14.912 69.6655C15.0701 69.6655 15.2225 69.7332 15.3298 69.8516C15.8718 70.4378 16.6058 70.7591 17.3963 70.7591C18.949 70.7591 20.2138 69.4964 20.2138 67.952C20.2138 67.5461 20.1234 67.1515 19.954 66.7795C19.8863 66.6386 19.8863 66.4751 19.9427 66.3285C19.9992 66.182 20.1178 66.0693 20.2646 66.0129C21.3599 65.5789 22.094 64.4515 22.094 63.2114C22.094 61.5598 20.8292 60.2126 19.2821 60.2126C19.0111 60.2126 18.7401 60.2577 18.4747 60.3366C18.3053 60.393 18.1134 60.3591 17.9666 60.2577C17.8198 60.1506 17.7294 59.9815 17.7294 59.8011C17.7125 58.2679 16.4534 57.0165 14.9176 57.0165C13.3818 57.0165 12.1227 58.2622 12.1058 59.7898C12.1058 59.9702 12.0155 60.1393 11.8743 60.2408C11.7275 60.3479 11.5412 60.3761 11.3718 60.3253C11.1064 60.2464 10.8298 60.207 10.5587 60.207C9.00604 60.207 7.74129 61.4696 7.74129 63.0197C7.74129 64.2429 8.52611 65.3196 9.69488 65.6972C9.85862 65.748 9.99412 65.872 10.0562 66.0354C10.1183 66.1989 10.1014 66.3793 10.0167 66.5258C9.76263 66.9599 9.62148 67.4503 9.62148 67.952C9.62148 69.5021 10.8862 70.7591 12.4389 70.7591C13.2294 70.7591 13.9634 70.4378 14.5054 69.8516C14.6127 69.7332 14.7652 69.6655 14.9233 69.6655H14.912Z" fill="#0019A9"/>
        <path d="M14.9119 65.7367C14.0028 65.7367 13.2632 64.9982 13.2632 64.0907C13.2632 63.1832 14.0028 62.4448 14.9119 62.4448C15.8209 62.4448 16.5606 63.1832 16.5606 64.0907C16.5606 64.9982 15.8209 65.7367 14.9119 65.7367ZM14.9119 62.6871C14.1383 62.6871 13.506 63.3185 13.506 64.0907C13.506 64.863 14.1383 65.4943 14.9119 65.4943C15.6854 65.4943 16.3178 64.863 16.3178 64.0907C16.3178 63.3185 15.6854 62.6871 14.9119 62.6871Z" fill="#0019A9"/>
        <path d="M14.8495 60.703V62.5744C14.8495 62.5744 14.8891 62.5744 14.9117 62.5744C14.9342 62.5744 14.9512 62.5744 14.9738 62.5744V60.703C15.194 60.6748 15.3634 60.4888 15.3634 60.2577C15.3634 60.0097 15.1601 59.8067 14.9117 59.8067C14.6632 59.8067 14.46 60.0097 14.46 60.2577C14.46 60.4888 14.6293 60.6748 14.8495 60.703Z" fill="#0019A9"/>
        <path d="M13.5116 61.0017L14.2512 62.721C14.2851 62.7041 14.3246 62.6871 14.3641 62.6759L13.6245 60.9566C13.8165 60.8439 13.9012 60.6015 13.8108 60.393C13.7148 60.1618 13.4438 60.0604 13.218 60.1562C12.9865 60.252 12.8848 60.5226 12.9808 60.7481C13.0712 60.9566 13.3027 61.0637 13.5172 61.0017H13.5116Z" fill="#0019A9"/>
        <path d="M11.5071 64.164H13.3873C13.3873 64.164 13.3873 64.1189 13.3873 64.0963C13.3873 64.0794 13.3873 64.0625 13.3873 64.0456H11.5071C11.4789 63.8258 11.2926 63.6567 11.0611 63.6567C10.8126 63.6567 10.6094 63.8596 10.6094 64.1076C10.6094 64.3556 10.8126 64.5586 11.0611 64.5586C11.2926 64.5586 11.4789 64.3895 11.5071 64.1696V64.164Z" fill="#0019A9"/>
        <path d="M11.1233 63.2621C11.3378 63.3354 11.575 63.2396 11.671 63.0366L13.4439 63.651C13.4552 63.6116 13.4664 63.5721 13.4834 63.5383L11.7105 62.9239C11.7556 62.7041 11.6371 62.4842 11.4169 62.4053C11.1797 62.3208 10.9257 62.4504 10.841 62.6815C10.7563 62.9126 10.8861 63.1719 11.1176 63.2565L11.1233 63.2621Z" fill="#0019A9"/>
        <path d="M15.9562 60.8665L15.3521 62.6364C15.3916 62.6477 15.4255 62.6646 15.465 62.6759L16.0691 60.9059C16.2893 60.951 16.5095 60.827 16.5829 60.6128C16.662 60.3761 16.5378 60.1224 16.3006 60.0379C16.0635 59.9589 15.8094 60.083 15.7247 60.3197C15.6513 60.5339 15.7529 60.7706 15.9505 60.8665H15.9562Z" fill="#0019A9"/>
        <path d="M17.8929 62.4617L16.2329 63.3354C16.2555 63.3692 16.2724 63.403 16.2894 63.4425L17.9494 62.5631C18.0792 62.7435 18.322 62.8055 18.5253 62.6984C18.7455 62.5801 18.8302 62.3095 18.7116 62.0897C18.593 61.8698 18.322 61.7853 18.1018 61.9036C17.8985 62.0107 17.8138 62.2475 17.8929 62.456V62.4617Z" fill="#0019A9"/>
        <path d="M15.9507 62.9803C15.9789 63.0084 16.0071 63.0366 16.0354 63.0648L17.3622 61.7402C17.5373 61.8754 17.7913 61.8642 17.9551 61.7007C18.1301 61.526 18.1301 61.2385 17.9551 61.0637C17.7801 60.889 17.4921 60.889 17.3171 61.0637C17.1533 61.2272 17.142 61.4809 17.2775 61.6556L15.9507 62.9803Z" fill="#0019A9"/>
        <path d="M12.4614 61.7402L13.7883 63.0648C13.8165 63.0366 13.8448 63.0084 13.873 62.9803L12.5461 61.6556C12.6816 61.4809 12.6703 61.2272 12.5066 61.0637C12.3316 60.889 12.0436 60.889 11.8686 61.0637C11.6935 61.2385 11.6935 61.526 11.8686 61.7007C12.0323 61.8642 12.2864 61.8754 12.4614 61.7402Z" fill="#0019A9"/>
        <path d="M18.7002 64.9419C18.4857 64.8686 18.2485 64.9644 18.1526 65.1674L16.374 64.5473C16.3627 64.5868 16.3458 64.6206 16.3345 64.66L18.113 65.2801C18.0679 65.4999 18.1864 65.7198 18.4066 65.7987C18.6438 65.8832 18.8979 65.7536 18.9825 65.5225C19.0672 65.2857 18.9374 65.0321 18.7059 64.9475L18.7002 64.9419Z" fill="#0019A9"/>
        <path d="M17.3623 66.4638L16.0241 65.1279C15.9959 65.1561 15.9677 65.1843 15.9395 65.2125L17.2776 66.5484C17.1421 66.7231 17.1534 66.9768 17.3171 67.1402C17.4922 67.315 17.7801 67.315 17.9551 67.1402C18.1302 66.9655 18.1302 66.678 17.9551 66.5033C17.7914 66.3398 17.5373 66.3285 17.3623 66.4638Z" fill="#0019A9"/>
        <path d="M16.3118 67.2022L15.5665 65.4661C15.5327 65.483 15.4931 65.4999 15.4536 65.5112L16.1989 67.2473C16.0069 67.3601 15.9222 67.6025 16.0126 67.811C16.1086 68.0421 16.3796 68.1436 16.6054 68.0478C16.8313 67.9519 16.9386 67.6814 16.8426 67.4559C16.7522 67.2473 16.5207 67.1402 16.3062 67.2022H16.3118Z" fill="#0019A9"/>
        <path d="M18.7681 63.651C18.5366 63.651 18.3503 63.8202 18.3221 64.04H16.4419C16.4419 64.04 16.4419 64.0738 16.4419 64.0907C16.4419 64.1133 16.4419 64.1358 16.4419 64.1584H18.3221C18.3503 64.3782 18.5366 64.5473 18.7681 64.5473C19.0166 64.5473 19.2198 64.3444 19.2198 64.0964C19.2198 63.8483 19.0166 63.6454 18.7681 63.6454V63.651Z" fill="#0019A9"/>
        <path d="M14.9738 67.5067V65.6183C14.9738 65.6183 14.9342 65.6183 14.9117 65.6183C14.8891 65.6183 14.8721 65.6183 14.8495 65.6183V67.5067C14.6293 67.5348 14.46 67.7209 14.46 67.952C14.46 68.2 14.6632 68.4029 14.9117 68.4029C15.1601 68.4029 15.3634 68.2 15.3634 67.952C15.3634 67.7209 15.194 67.5348 14.9738 67.5067Z" fill="#0019A9"/>
        <path d="M13.8843 65.2181C13.856 65.1899 13.8278 65.1617 13.7996 65.1335L12.4614 66.4695C12.2864 66.3342 12.0323 66.3455 11.8686 66.5089C11.6935 66.6837 11.6935 66.9712 11.8686 67.1459C12.0436 67.3206 12.3316 67.3206 12.5066 67.1459C12.6703 66.9824 12.6816 66.7288 12.5461 66.554L13.8843 65.2181Z" fill="#0019A9"/>
        <path d="M13.8673 67.3432L14.4771 65.5563C14.4376 65.545 14.398 65.5338 14.3642 65.5168L13.7544 67.3037C13.5342 67.2586 13.314 67.3826 13.2406 67.5968C13.1615 67.8336 13.2857 68.0872 13.5229 68.1718C13.76 68.2507 14.0141 68.1267 14.0988 67.8899C14.1722 67.6758 14.0706 67.439 13.8729 67.3432H13.8673Z" fill="#0019A9"/>
        <path d="M11.9305 65.7479L13.5961 64.8686C13.5735 64.8348 13.5566 64.801 13.5397 64.7615L11.874 65.6408C11.7442 65.4605 11.5014 65.3985 11.2981 65.5056C11.0779 65.6239 10.9932 65.8945 11.1118 66.1143C11.2304 66.3342 11.5014 66.4187 11.7216 66.3004C11.9249 66.1933 12.0095 65.9565 11.9305 65.7479Z" fill="#0019A9"/>
        <path d="M28.2084 95.8204C27.2768 95.8204 26.379 95.4428 25.7241 94.7833C25.0691 95.4428 24.1657 95.8204 23.2397 95.8204C21.3087 95.8204 19.7334 94.2478 19.7334 92.32C19.7334 91.745 19.8746 91.1813 20.1512 90.674C18.7736 90.1667 17.8589 88.8646 17.8589 87.3877C17.8589 85.46 19.4342 83.8873 21.3652 83.8873C21.6588 83.8873 21.9467 83.9211 22.2291 83.9944C22.3307 82.1624 23.8721 80.6912 25.7297 80.6912C27.5873 80.6912 29.1287 82.1624 29.2304 84C29.5127 83.9267 29.8063 83.8873 30.0942 83.8873C32.0252 83.8873 33.6005 85.5389 33.6005 87.5738C33.6005 89.0506 32.7423 90.3978 31.4493 90.9728C31.63 91.4068 31.7203 91.8577 31.7203 92.32C31.7203 94.2478 30.145 95.8204 28.214 95.8204H28.2084ZM25.7241 94.4338L25.8144 94.5296C26.4355 95.2004 27.305 95.5837 28.214 95.5837C30.0152 95.5837 31.4775 94.1238 31.4775 92.3256C31.4775 91.8577 31.3759 91.3955 31.1783 90.9615L31.1275 90.8488L31.246 90.8037C32.5108 90.302 33.3634 89.0055 33.3634 87.5794C33.3634 85.6798 31.901 84.1353 30.0999 84.1353C29.7837 84.1353 29.4618 84.186 29.1569 84.2819L29.0045 84.3326V84.1691C28.9876 82.3879 27.5196 80.9392 25.741 80.9392C23.9624 80.9392 22.5001 82.3822 22.4775 84.1578V84.3157L22.325 84.2706C22.0145 84.1748 21.6983 84.1297 21.3765 84.1297C19.5753 84.1297 18.113 85.5896 18.113 87.3877C18.113 88.8082 19.022 90.054 20.3771 90.4936L20.5183 90.5387L20.4392 90.6684C20.14 91.1701 19.9819 91.745 19.9819 92.32C19.9819 94.1181 21.4442 95.5781 23.2454 95.5781C24.1488 95.5781 25.0239 95.1948 25.645 94.524L25.7353 94.4281L25.7241 94.4338Z" fill="#0019A9"/>
        <path d="M28.2086 95.3131C27.3673 95.3131 26.5825 94.9693 26.0066 94.3492C25.8598 94.1914 25.5775 94.1914 25.4307 94.3492C24.8547 94.9693 24.0756 95.3131 23.2286 95.3131C21.5743 95.3131 20.2361 93.9716 20.2361 92.3256C20.2361 91.7957 20.3829 91.2715 20.654 90.8093C20.7161 90.7078 20.7274 90.5838 20.6822 90.4711C20.637 90.3584 20.5523 90.2738 20.4338 90.24C19.1916 89.8398 18.356 88.6955 18.356 87.3934C18.356 85.7418 19.6998 84.4059 21.3484 84.4059C21.6421 84.4059 21.9357 84.451 22.218 84.5355C22.3365 84.5693 22.4664 84.5468 22.5624 84.4791C22.6584 84.4059 22.7205 84.2931 22.7205 84.1691C22.7374 82.5401 24.0812 81.2154 25.713 81.2154C27.3447 81.2154 28.6885 82.5457 28.7055 84.1748C28.7055 84.2988 28.7676 84.4171 28.8692 84.4848C28.9708 84.5581 29.1007 84.575 29.2193 84.5411C29.5016 84.451 29.7895 84.4059 30.0831 84.4059C31.7375 84.4059 33.0756 85.832 33.0756 87.585C33.0756 88.8984 32.2964 90.0934 31.1333 90.5556C31.0317 90.5951 30.9526 90.674 30.9131 90.7755C30.8736 90.8769 30.8792 90.9897 30.9188 91.0855C31.1051 91.4857 31.1954 91.9028 31.1954 92.3369C31.1954 93.9885 29.8516 95.3244 28.2029 95.3244L28.2086 95.3131ZM25.7243 94.0392C25.8824 94.0392 26.0348 94.1068 26.1421 94.2252C26.6841 94.8115 27.4181 95.1328 28.2086 95.1328C29.7613 95.1328 31.0261 93.8701 31.0261 92.3256C31.0261 91.9198 30.9357 91.5252 30.7663 91.1532C30.6986 91.0122 30.6986 90.8488 30.755 90.7022C30.8115 90.5556 30.9301 90.4429 31.0769 90.3865C32.1722 89.9525 32.9062 88.8251 32.9062 87.585C32.9062 85.9334 31.6415 84.5862 30.0944 84.5862C29.8234 84.5862 29.5524 84.6313 29.287 84.7103C29.1176 84.7666 28.9257 84.7328 28.7789 84.6313C28.6321 84.5242 28.5417 84.3551 28.5417 84.1748C28.5248 82.6415 27.2657 81.3902 25.7299 81.3902C24.1941 81.3902 22.935 82.6359 22.9181 84.1635C22.9181 84.3439 22.8278 84.513 22.6866 84.6144C22.5398 84.7215 22.3535 84.7497 22.1841 84.699C21.9187 84.6201 21.6421 84.5806 21.371 84.5806C19.8183 84.5806 18.5536 85.8433 18.5536 87.3934C18.5536 88.6166 19.3384 89.6932 20.5072 90.0709C20.6709 90.1216 20.8064 90.2456 20.8685 90.4091C20.9306 90.5726 20.9137 90.7529 20.829 90.8995C20.5749 91.3335 20.4338 91.8239 20.4338 92.3256C20.4338 93.8757 21.6985 95.1328 23.2512 95.1328C24.0417 95.1328 24.7757 94.8115 25.3177 94.2252C25.425 94.1068 25.5775 94.0392 25.7356 94.0392H25.7243Z" fill="#0019A9"/>
        <path d="M25.7239 90.1103C24.8148 90.1103 24.0752 89.3719 24.0752 88.4644C24.0752 87.5568 24.8148 86.8184 25.7239 86.8184C26.6329 86.8184 27.3726 87.5568 27.3726 88.4644C27.3726 89.3719 26.6329 90.1103 25.7239 90.1103ZM25.7239 87.0608C24.9504 87.0608 24.318 87.6921 24.318 88.4644C24.318 89.2366 24.9504 89.8679 25.7239 89.8679C26.4974 89.8679 27.1298 89.2366 27.1298 88.4644C27.1298 87.6921 26.4974 87.0608 25.7239 87.0608Z" fill="#0019A9"/>
        <path d="M25.6621 85.071V86.9424C25.6621 86.9424 25.7016 86.9424 25.7242 86.9424C25.7467 86.9424 25.7637 86.9424 25.7863 86.9424V85.071C26.0065 85.0428 26.1759 84.8568 26.1759 84.6257C26.1759 84.3777 25.9726 84.1747 25.7242 84.1747C25.4757 84.1747 25.2725 84.3777 25.2725 84.6257C25.2725 84.8568 25.4418 85.0428 25.6621 85.071Z" fill="#0019A9"/>
        <path d="M24.3236 85.3754L25.0632 87.0946C25.0971 87.0777 25.1366 87.0608 25.1762 87.0495L24.4365 85.3303C24.6285 85.2176 24.7132 84.9752 24.6228 84.7666C24.5268 84.5355 24.2558 84.434 24.03 84.5299C23.7985 84.6257 23.6969 84.8963 23.7928 85.1217C23.8832 85.3303 24.1147 85.4374 24.3292 85.3754H24.3236Z" fill="#0019A9"/>
        <path d="M22.3138 88.532H24.1939C24.1939 88.532 24.1939 88.4869 24.1939 88.4644C24.1939 88.4475 24.1939 88.4305 24.1939 88.4136H22.3138C22.2855 88.1938 22.0992 88.0247 21.8677 88.0247C21.6193 88.0247 21.416 88.2276 21.416 88.4756C21.416 88.7237 21.6193 88.9266 21.8677 88.9266C22.0992 88.9266 22.2855 88.7575 22.3138 88.5376V88.532Z" fill="#0019A9"/>
        <path d="M21.9353 87.6358C22.1498 87.709 22.387 87.6132 22.483 87.4103L24.2559 88.0247C24.2672 87.9852 24.2785 87.9458 24.2954 87.912L22.5225 87.2976C22.5677 87.0777 22.4491 86.8579 22.2289 86.779C21.9917 86.6944 21.7377 86.8241 21.653 87.0552C21.5683 87.2863 21.6981 87.5456 21.9296 87.6301L21.9353 87.6358Z" fill="#0019A9"/>
        <path d="M26.7687 85.2345L26.1646 87.0044C26.2041 87.0157 26.238 87.0326 26.2775 87.0439L26.8816 85.2739C27.1018 85.319 27.322 85.195 27.3954 84.9808C27.4745 84.744 27.3503 84.4904 27.1131 84.4058C26.876 84.3269 26.6219 84.4509 26.5372 84.6877C26.4638 84.9019 26.5654 85.1386 26.763 85.2345H26.7687Z" fill="#0019A9"/>
        <path d="M28.7054 86.8297L27.0454 87.7034C27.068 87.7372 27.0849 87.771 27.1019 87.8105L28.7619 86.9312C28.8917 87.1115 29.1345 87.1735 29.3378 87.0664C29.558 86.9481 29.6427 86.6775 29.5241 86.4577C29.4055 86.2378 29.1345 86.1533 28.9143 86.2717C28.711 86.3788 28.6263 86.6155 28.7054 86.8241V86.8297Z" fill="#0019A9"/>
        <path d="M26.7632 87.3483C26.7914 87.3765 26.8196 87.4046 26.8479 87.4328L28.1747 86.1082C28.3498 86.2434 28.6038 86.2322 28.7676 86.0687C28.9426 85.894 28.9426 85.6065 28.7676 85.4317C28.5926 85.257 28.3046 85.257 28.1296 85.4317C27.9658 85.5952 27.9545 85.8489 28.09 86.0236L26.7632 87.3483Z" fill="#0019A9"/>
        <path d="M23.2681 86.1138L24.5949 87.4385C24.6232 87.4103 24.6514 87.3821 24.6796 87.3539L23.3528 86.0293C23.4883 85.8545 23.477 85.6009 23.3132 85.4374C23.1382 85.2627 22.8503 85.2627 22.6752 85.4374C22.5002 85.6121 22.5002 85.8996 22.6752 86.0743C22.839 86.2378 23.093 86.2491 23.2681 86.1138Z" fill="#0019A9"/>
        <path d="M29.5069 89.3155C29.2923 89.2423 29.0552 89.3381 28.9592 89.541L27.1806 88.921C27.1693 88.9604 27.1524 88.9942 27.1411 89.0337L28.9197 89.6537C28.8745 89.8736 28.9931 90.0934 29.2133 90.1723C29.4504 90.2569 29.7045 90.1272 29.7892 89.8961C29.8739 89.6594 29.744 89.4057 29.5125 89.3212L29.5069 89.3155Z" fill="#0019A9"/>
        <path d="M28.1743 90.8375L26.8362 89.5016C26.8079 89.5297 26.7797 89.5579 26.7515 89.5861L28.0896 90.922C27.9541 91.0968 27.9654 91.3504 28.1291 91.5139C28.3042 91.6886 28.5921 91.6886 28.7672 91.5139C28.9422 91.3392 28.9422 91.0517 28.7672 90.8769C28.6034 90.7135 28.3493 90.7022 28.1743 90.8375Z" fill="#0019A9"/>
        <path d="M27.1243 91.5759L26.379 89.8398C26.3452 89.8567 26.3056 89.8736 26.2661 89.8848L27.0114 91.621C26.8194 91.7337 26.7347 91.9761 26.8251 92.1847C26.9211 92.4158 27.1921 92.5172 27.4179 92.4214C27.6438 92.3256 27.7511 92.055 27.6551 91.8296C27.5647 91.621 27.3332 91.5139 27.1187 91.5759H27.1243Z" fill="#0019A9"/>
        <path d="M29.5748 88.0247C29.3433 88.0247 29.157 88.1938 29.1287 88.4136H27.2485C27.2485 88.4136 27.2485 88.4474 27.2485 88.4644C27.2485 88.4869 27.2485 88.5094 27.2485 88.532H29.1287C29.157 88.7518 29.3433 88.9209 29.5748 88.9209C29.8232 88.9209 30.0265 88.718 30.0265 88.47C30.0265 88.222 29.8232 88.019 29.5748 88.019V88.0247Z" fill="#0019A9"/>
        <path d="M25.7804 91.8746V89.9863C25.7804 89.9863 25.7409 89.9863 25.7183 89.9863C25.6957 89.9863 25.6788 89.9863 25.6562 89.9863V91.8746C25.436 91.9028 25.2666 92.0888 25.2666 92.3199C25.2666 92.568 25.4699 92.7709 25.7183 92.7709C25.9667 92.7709 26.17 92.568 26.17 92.3199C26.17 92.0888 26.0006 91.9028 25.7804 91.8746Z" fill="#0019A9"/>
        <path d="M24.6909 89.5861C24.6627 89.5579 24.6345 89.5297 24.6062 89.5016L23.2681 90.8375C23.093 90.7022 22.839 90.7135 22.6752 90.8769C22.5002 91.0517 22.5002 91.3392 22.6752 91.5139C22.8503 91.6886 23.1382 91.6886 23.3132 91.5139C23.477 91.3504 23.4883 91.0968 23.3528 90.922L24.6909 89.5861Z" fill="#0019A9"/>
        <path d="M24.6739 91.7112L25.2837 89.9243C25.2442 89.913 25.2047 89.9018 25.1708 89.8849L24.561 91.6717C24.3408 91.6266 24.1206 91.7506 24.0472 91.9648C23.9682 92.2016 24.0924 92.4552 24.3295 92.5398C24.5667 92.6187 24.8207 92.4947 24.9054 92.258C24.9788 92.0438 24.8772 91.807 24.6796 91.7112H24.6739Z" fill="#0019A9"/>
        <path d="M22.7371 90.1216L24.4028 89.2423C24.3802 89.2084 24.3632 89.1746 24.3463 89.1352L22.6807 90.0145C22.5508 89.8341 22.308 89.7721 22.1048 89.8792C21.8846 89.9976 21.7999 90.2682 21.9184 90.488C22.037 90.7078 22.308 90.7924 22.5282 90.674C22.7315 90.5669 22.8162 90.3302 22.7371 90.1216Z" fill="#0019A9"/>
        <path d="M188.024 71.4468C187.093 71.4468 186.195 71.0691 185.54 70.4096C184.885 71.0691 183.982 71.4468 183.056 71.4468C181.125 71.4468 179.549 69.8741 179.549 67.9463C179.549 67.3714 179.69 66.8077 179.967 66.3004C178.589 65.793 177.675 64.4909 177.675 63.0141C177.675 61.0863 179.25 59.5136 181.181 59.5136C181.475 59.5136 181.763 59.5474 182.045 59.6207C182.147 57.7887 183.688 56.3175 185.546 56.3175C187.403 56.3175 188.945 57.7887 189.046 59.6264C189.329 59.5531 189.622 59.5136 189.91 59.5136C191.841 59.5136 193.416 61.1652 193.416 63.2001C193.416 64.6769 192.558 66.0242 191.265 66.5991C191.446 67.0331 191.536 67.4841 191.536 67.9463C191.536 69.8741 189.961 71.4468 188.03 71.4468H188.024ZM185.534 70.0601L185.625 70.1559C186.246 70.8267 187.115 71.21 188.024 71.21C189.825 71.21 191.288 69.7501 191.288 67.9519C191.288 67.4841 191.186 67.0219 190.989 66.5878L190.938 66.4751L191.056 66.43C192.321 65.9283 193.174 64.6319 193.174 63.2057C193.174 61.3061 191.711 59.7616 189.91 59.7616C189.594 59.7616 189.272 59.8124 188.967 59.9082L188.815 59.9589V59.7955C188.798 58.0142 187.33 56.5656 185.551 56.5656C183.773 56.5656 182.31 58.0086 182.288 59.7842V59.942L182.135 59.8969C181.825 59.8011 181.509 59.756 181.187 59.756C179.386 59.756 177.923 61.2159 177.923 63.0141C177.923 64.4346 178.832 65.6803 180.187 66.12L180.329 66.1651L180.249 66.2947C179.95 66.7964 179.792 67.3714 179.792 67.9463C179.792 69.7445 181.255 71.2044 183.056 71.2044C183.959 71.2044 184.834 70.8211 185.455 70.1503L185.546 70.0545L185.534 70.0601Z" fill="#0019A9"/>
        <path d="M188.025 70.9395C187.183 70.9395 186.398 70.5956 185.822 69.9756C185.676 69.8177 185.393 69.8177 185.247 69.9756C184.671 70.5956 183.891 70.9395 183.045 70.9395C181.39 70.9395 180.052 69.5979 180.052 67.952C180.052 67.4221 180.199 66.8979 180.47 66.4356C180.532 66.3342 180.543 66.2102 180.498 66.0974C180.453 65.9847 180.368 65.9001 180.25 65.8663C179.008 65.4661 178.172 64.3218 178.172 63.0197C178.172 61.3681 179.516 60.0322 181.164 60.0322C181.458 60.0322 181.752 60.0773 182.034 60.1619C182.152 60.1957 182.282 60.1731 182.378 60.1055C182.474 60.0322 182.536 59.9195 182.536 59.7955C182.553 58.1664 183.897 56.8418 185.529 56.8418C187.161 56.8418 188.504 58.1721 188.521 59.8011C188.521 59.9251 188.583 60.0435 188.685 60.1111C188.787 60.1844 188.917 60.2013 189.035 60.1675C189.317 60.0773 189.605 60.0322 189.899 60.0322C191.553 60.0322 192.892 61.4583 192.892 63.2114C192.892 64.5248 192.112 65.7198 190.949 66.182C190.848 66.2215 190.769 66.3004 190.729 66.4018C190.69 66.5033 190.695 66.616 190.735 66.7119C190.921 67.1121 191.011 67.5292 191.011 67.9632C191.011 69.6148 189.668 70.9507 188.019 70.9507L188.025 70.9395ZM185.535 69.6655C185.693 69.6655 185.845 69.7332 185.952 69.8516C186.494 70.4378 187.228 70.7591 188.019 70.7591C189.572 70.7591 190.836 69.4964 190.836 67.952C190.836 67.5461 190.746 67.1515 190.577 66.7795C190.509 66.6386 190.509 66.4751 190.565 66.3285C190.622 66.182 190.74 66.0693 190.887 66.0129C191.982 65.5789 192.717 64.4515 192.717 63.2114C192.717 61.5598 191.452 60.2126 189.905 60.2126C189.634 60.2126 189.363 60.2577 189.097 60.3366C188.928 60.393 188.736 60.3591 188.589 60.2577C188.442 60.1506 188.352 59.9815 188.352 59.8011C188.335 58.2679 187.076 57.0165 185.54 57.0165C184.004 57.0165 182.745 58.2622 182.728 59.7898C182.728 59.9702 182.638 60.1393 182.497 60.2408C182.35 60.3479 182.164 60.3761 181.994 60.3253C181.729 60.2464 181.452 60.207 181.181 60.207C179.629 60.207 178.364 61.4696 178.364 63.0197C178.364 64.2429 179.149 65.3196 180.317 65.6972C180.481 65.748 180.617 65.872 180.679 66.0354C180.741 66.1989 180.724 66.3793 180.639 66.5258C180.385 66.9599 180.244 67.4503 180.244 67.952C180.244 69.5021 181.509 70.7591 183.061 70.7591C183.852 70.7591 184.586 70.4378 185.128 69.8516C185.235 69.7332 185.388 69.6655 185.546 69.6655H185.535Z" fill="#0019A9"/>
        <path d="M185.534 65.7367C184.625 65.7367 183.886 64.9982 183.886 64.0907C183.886 63.1832 184.625 62.4448 185.534 62.4448C186.443 62.4448 187.183 63.1832 187.183 64.0907C187.183 64.9982 186.443 65.7367 185.534 65.7367ZM185.534 62.6871C184.761 62.6871 184.129 63.3185 184.129 64.0907C184.129 64.863 184.761 65.4943 185.534 65.4943C186.308 65.4943 186.94 64.863 186.94 64.0907C186.94 63.3185 186.308 62.6871 185.534 62.6871Z" fill="#0019A9"/>
        <path d="M185.478 60.703V62.5744C185.478 62.5744 185.517 62.5744 185.54 62.5744C185.563 62.5744 185.58 62.5744 185.602 62.5744V60.703C185.822 60.6748 185.992 60.4888 185.992 60.2577C185.992 60.0097 185.789 59.8067 185.54 59.8067C185.292 59.8067 185.088 60.0097 185.088 60.2577C185.088 60.4888 185.258 60.6748 185.478 60.703Z" fill="#0019A9"/>
        <path d="M184.134 61.0017L184.874 62.721C184.908 62.7041 184.947 62.6871 184.987 62.6759L184.247 60.9566C184.439 60.8439 184.524 60.6015 184.433 60.393C184.337 60.1618 184.066 60.0604 183.841 60.1562C183.609 60.252 183.507 60.5226 183.603 60.7481C183.694 60.9566 183.925 61.0637 184.14 61.0017H184.134Z" fill="#0019A9"/>
        <path d="M182.13 64.164H184.01C184.01 64.164 184.01 64.1189 184.01 64.0963C184.01 64.0794 184.01 64.0625 184.01 64.0456H182.13C182.101 63.8258 181.915 63.6567 181.684 63.6567C181.435 63.6567 181.232 63.8596 181.232 64.1076C181.232 64.3556 181.435 64.5586 181.684 64.5586C181.915 64.5586 182.101 64.3895 182.13 64.1696V64.164Z" fill="#0019A9"/>
        <path d="M181.751 63.2621C181.966 63.3354 182.203 63.2396 182.299 63.0366L184.072 63.651C184.083 63.6116 184.094 63.5721 184.111 63.5383L182.338 62.9239C182.384 62.7041 182.265 62.4842 182.045 62.4053C181.808 62.3208 181.554 62.4504 181.469 62.6815C181.384 62.9126 181.514 63.1719 181.746 63.2565L181.751 63.2621Z" fill="#0019A9"/>
        <path d="M186.585 60.8665L185.98 62.6364C186.02 62.6477 186.054 62.6646 186.093 62.6759L186.698 60.9059C186.918 60.951 187.138 60.827 187.211 60.6128C187.29 60.3761 187.166 60.1224 186.929 60.0379C186.692 59.9589 186.438 60.083 186.353 60.3197C186.28 60.5339 186.381 60.7706 186.579 60.8665H186.585Z" fill="#0019A9"/>
        <path d="M188.521 62.4617L186.861 63.3354C186.884 63.3692 186.901 63.403 186.918 63.4425L188.578 62.5631C188.708 62.7435 188.95 62.8055 189.154 62.6984C189.374 62.5801 189.459 62.3095 189.34 62.0897C189.221 61.8698 188.95 61.7853 188.73 61.9036C188.527 62.0107 188.442 62.2475 188.521 62.456V62.4617Z" fill="#0019A9"/>
        <path d="M186.579 62.9803C186.607 63.0084 186.636 63.0366 186.664 63.0648L187.991 61.7402C188.166 61.8754 188.42 61.8642 188.583 61.7007C188.759 61.526 188.759 61.2385 188.583 61.0637C188.408 60.889 188.121 60.889 187.945 61.0637C187.782 61.2272 187.77 61.4809 187.906 61.6556L186.579 62.9803Z" fill="#0019A9"/>
        <path d="M183.084 61.7402L184.411 63.0648C184.439 63.0366 184.467 63.0084 184.496 62.9803L183.169 61.6556C183.304 61.4809 183.293 61.2272 183.129 61.0637C182.954 60.889 182.666 60.889 182.491 61.0637C182.316 61.2385 182.316 61.526 182.491 61.7007C182.655 61.8642 182.909 61.8754 183.084 61.7402Z" fill="#0019A9"/>
        <path d="M189.323 64.9419C189.108 64.8686 188.871 64.9644 188.775 65.1674L186.997 64.5473C186.985 64.5868 186.968 64.6206 186.957 64.66L188.736 65.2801C188.69 65.4999 188.809 65.7198 189.029 65.7987C189.266 65.8832 189.52 65.7536 189.605 65.5225C189.69 65.2857 189.56 65.0321 189.328 64.9475L189.323 64.9419Z" fill="#0019A9"/>
        <path d="M187.99 66.4638L186.652 65.1279C186.624 65.1561 186.596 65.1843 186.567 65.2125L187.906 66.5484C187.77 66.7231 187.781 66.9768 187.945 67.1402C188.12 67.315 188.408 67.315 188.583 67.1402C188.758 66.9655 188.758 66.678 188.583 66.5033C188.419 66.3398 188.165 66.3285 187.99 66.4638Z" fill="#0019A9"/>
        <path d="M186.934 67.2022L186.189 65.4661C186.155 65.483 186.116 65.4999 186.076 65.5112L186.821 67.2473C186.63 67.3601 186.545 67.6025 186.635 67.811C186.731 68.0421 187.002 68.1436 187.228 68.0478C187.454 67.9519 187.561 67.6814 187.465 67.4559C187.375 67.2473 187.143 67.1402 186.929 67.2022H186.934Z" fill="#0019A9"/>
        <path d="M189.391 63.651C189.159 63.651 188.973 63.8202 188.945 64.04H187.064C187.064 64.04 187.064 64.0738 187.064 64.0907C187.064 64.1133 187.064 64.1358 187.064 64.1584H188.945C188.973 64.3782 189.159 64.5473 189.391 64.5473C189.639 64.5473 189.842 64.3444 189.842 64.0964C189.842 63.8483 189.639 63.6454 189.391 63.6454V63.651Z" fill="#0019A9"/>
        <path d="M185.596 67.5067V65.6183C185.596 65.6183 185.557 65.6183 185.534 65.6183C185.512 65.6183 185.495 65.6183 185.472 65.6183V67.5067C185.252 67.5348 185.083 67.7209 185.083 67.952C185.083 68.2 185.286 68.4029 185.534 68.4029C185.783 68.4029 185.986 68.2 185.986 67.952C185.986 67.7209 185.817 67.5348 185.596 67.5067Z" fill="#0019A9"/>
        <path d="M184.507 65.2181C184.479 65.1899 184.45 65.1617 184.422 65.1335L183.084 66.4695C182.909 66.3342 182.655 66.3455 182.491 66.5089C182.316 66.6837 182.316 66.9712 182.491 67.1459C182.666 67.3206 182.954 67.3206 183.129 67.1459C183.293 66.9824 183.304 66.7288 183.169 66.554L184.507 65.2181Z" fill="#0019A9"/>
        <path d="M184.49 67.3432L185.1 65.5563C185.06 65.545 185.021 65.5338 184.987 65.5168L184.377 67.3037C184.157 67.2586 183.937 67.3826 183.863 67.5968C183.784 67.8336 183.908 68.0872 184.145 68.1718C184.383 68.2507 184.637 68.1267 184.721 67.8899C184.795 67.6758 184.693 67.439 184.495 67.3432H184.49Z" fill="#0019A9"/>
        <path d="M182.553 65.7479L184.219 64.8686C184.196 64.8348 184.179 64.801 184.162 64.7615L182.497 65.6408C182.367 65.4605 182.124 65.3985 181.921 65.5056C181.7 65.6239 181.616 65.8945 181.734 66.1143C181.853 66.3342 182.124 66.4187 182.344 66.3004C182.547 66.1933 182.632 65.9565 182.553 65.7479Z" fill="#0019A9"/>
        <path d="M177.596 94.321C176.664 94.321 175.766 93.9434 175.111 93.2839C174.456 93.9434 173.553 94.321 172.627 94.321C170.696 94.321 169.121 92.7484 169.121 90.8206C169.121 90.2456 169.262 89.6819 169.538 89.1746C168.161 88.6673 167.246 87.3652 167.246 85.8883C167.246 83.9606 168.821 82.3879 170.752 82.3879C171.046 82.3879 171.334 82.4217 171.616 82.495C171.718 80.663 173.259 79.1918 175.117 79.1918C176.975 79.1918 178.516 80.663 178.618 82.5006C178.9 82.4273 179.193 82.3879 179.481 82.3879C181.412 82.3879 182.988 84.0395 182.988 86.0744C182.988 87.5512 182.13 88.8984 180.837 89.4734C181.017 89.9074 181.108 90.3584 181.108 90.8206C181.108 92.7484 179.532 94.321 177.601 94.321H177.596ZM175.106 92.9344L175.196 93.0302C175.817 93.701 176.687 94.0843 177.596 94.0843C179.397 94.0843 180.859 92.6244 180.859 90.8262C180.859 90.3584 180.757 89.8961 180.56 89.4621L180.509 89.3494L180.628 89.3043C181.892 88.8026 182.745 87.5061 182.745 86.08C182.745 84.1804 181.283 82.6359 179.481 82.6359C179.165 82.6359 178.843 82.6866 178.539 82.7825L178.386 82.8332V82.6697C178.369 80.8885 176.901 79.4398 175.123 79.4398C173.344 79.4398 171.882 80.8828 171.859 82.6584V82.8163L171.707 82.7712C171.396 82.6754 171.08 82.6303 170.758 82.6303C168.957 82.6303 167.495 84.0902 167.495 85.8883C167.495 87.3088 168.404 88.5546 169.759 88.9942L169.9 89.0393L169.821 89.169C169.522 89.6707 169.363 90.2456 169.363 90.8206C169.363 92.6187 170.826 94.0787 172.627 94.0787C173.53 94.0787 174.405 93.6954 175.027 93.0246L175.117 92.9287L175.106 92.9344Z" fill="#0019A9"/>
        <path d="M177.596 93.8137C176.755 93.8137 175.97 93.4699 175.394 92.8498C175.247 92.692 174.965 92.692 174.818 92.8498C174.242 93.4699 173.463 93.8137 172.616 93.8137C170.962 93.8137 169.623 92.4721 169.623 90.8262C169.623 90.2963 169.77 89.7721 170.041 89.3099C170.103 89.2084 170.115 89.0844 170.069 88.9717C170.024 88.8589 169.94 88.7744 169.821 88.7406C168.579 88.3403 167.743 87.1961 167.743 85.894C167.743 84.2424 169.087 82.9064 170.736 82.9064C171.029 82.9064 171.323 82.9515 171.605 83.0361C171.724 83.0699 171.854 83.0474 171.95 82.9797C172.046 82.9065 172.108 82.7937 172.108 82.6697C172.125 81.0407 173.468 79.716 175.1 79.716C176.732 79.716 178.076 81.0463 178.093 82.6753C178.093 82.7993 178.155 82.9177 178.256 82.9854C178.358 83.0586 178.488 83.0756 178.606 83.0417C178.889 82.9515 179.177 82.9064 179.47 82.9064C181.125 82.9064 182.463 84.3326 182.463 86.0856C182.463 87.399 181.684 88.594 180.521 89.0562C180.419 89.0957 180.34 89.1746 180.3 89.2761C180.261 89.3775 180.266 89.4903 180.306 89.5861C180.492 89.9863 180.583 90.4034 180.583 90.8375C180.583 92.4891 179.239 93.825 177.59 93.825L177.596 93.8137ZM175.106 92.5398C175.264 92.5398 175.416 92.6074 175.524 92.7258C176.066 93.312 176.8 93.6333 177.59 93.6333C179.143 93.6333 180.408 92.3707 180.408 90.8262C180.408 90.4203 180.317 90.0258 180.148 89.6537C180.08 89.5128 180.08 89.3493 180.137 89.2028C180.193 89.0562 180.312 88.9435 180.458 88.8871C181.554 88.4531 182.288 87.3257 182.288 86.0856C182.288 84.434 181.023 83.0868 179.476 83.0868C179.205 83.0868 178.934 83.1319 178.669 83.2108C178.499 83.2672 178.307 83.2334 178.16 83.1319C178.014 83.0248 177.923 82.8557 177.923 82.6753C177.906 81.1421 176.647 79.8907 175.111 79.8907C173.576 79.8907 172.317 81.1365 172.3 82.6641C172.3 82.8444 172.209 83.0135 172.068 83.115C171.921 83.2221 171.735 83.2503 171.566 83.1996C171.3 83.1207 171.024 83.0812 170.753 83.0812C169.2 83.0812 167.935 84.3438 167.935 85.894C167.935 87.1172 168.72 88.1938 169.889 88.5715C170.052 88.6222 170.188 88.7462 170.25 88.9097C170.312 89.0731 170.295 89.2535 170.211 89.4001C169.956 89.8341 169.815 90.3245 169.815 90.8262C169.815 92.3763 171.08 93.6333 172.633 93.6333C173.423 93.6333 174.157 93.312 174.699 92.7258C174.807 92.6074 174.959 92.5398 175.117 92.5398H175.106Z" fill="#0019A9"/>
        <path d="M175.106 88.6109C174.197 88.6109 173.457 87.8725 173.457 86.965C173.457 86.0575 174.197 85.319 175.106 85.319C176.015 85.319 176.754 86.0575 176.754 86.965C176.754 87.8725 176.015 88.6109 175.106 88.6109ZM175.106 85.5614C174.332 85.5614 173.7 86.1927 173.7 86.965C173.7 87.7372 174.332 88.3686 175.106 88.3686C175.879 88.3686 176.512 87.7372 176.512 86.965C176.512 86.1927 175.879 85.5614 175.106 85.5614Z" fill="#0019A9"/>
        <path d="M175.043 83.5716V85.443C175.043 85.443 175.083 85.443 175.106 85.443C175.128 85.443 175.145 85.443 175.168 85.443V83.5716C175.388 83.5434 175.557 83.3574 175.557 83.1263C175.557 82.8783 175.354 82.6754 175.106 82.6754C174.857 82.6754 174.654 82.8783 174.654 83.1263C174.654 83.3574 174.823 83.5434 175.043 83.5716Z" fill="#0019A9"/>
        <path d="M173.705 83.876L174.445 85.5952C174.479 85.5783 174.518 85.5614 174.558 85.5501L173.818 83.8309C174.01 83.7182 174.095 83.4758 174.005 83.2672C173.909 83.0361 173.638 82.9347 173.412 83.0305C173.18 83.1263 173.079 83.3969 173.175 83.6223C173.265 83.8309 173.497 83.938 173.711 83.876H173.705Z" fill="#0019A9"/>
        <path d="M171.701 87.0326H173.581C173.581 87.0326 173.581 86.9875 173.581 86.965C173.581 86.9481 173.581 86.9312 173.581 86.9142H171.701C171.673 86.6944 171.486 86.5253 171.255 86.5253C171.006 86.5253 170.803 86.7282 170.803 86.9762C170.803 87.2243 171.006 87.4272 171.255 87.4272C171.486 87.4272 171.673 87.2581 171.701 87.0383V87.0326Z" fill="#0019A9"/>
        <path d="M171.317 86.1364C171.532 86.2097 171.769 86.1138 171.865 85.9109L173.638 86.5253C173.649 86.4859 173.66 86.4464 173.677 86.4126L171.904 85.7982C171.949 85.5783 171.831 85.3585 171.611 85.2796C171.374 85.195 171.12 85.3247 171.035 85.5558C170.95 85.7869 171.08 86.0462 171.311 86.1307L171.317 86.1364Z" fill="#0019A9"/>
        <path d="M176.156 83.7351L175.552 85.505C175.591 85.5163 175.625 85.5332 175.665 85.5445L176.269 83.7745C176.489 83.8196 176.709 83.6956 176.783 83.4814C176.862 83.2447 176.737 82.991 176.5 82.9064C176.263 82.8275 176.009 82.9515 175.924 83.1883C175.851 83.4025 175.953 83.6392 176.15 83.7351H176.156Z" fill="#0019A9"/>
        <path d="M178.087 85.3303L176.427 86.204C176.449 86.2378 176.466 86.2717 176.483 86.3111L178.143 85.4318C178.273 85.6121 178.516 85.6742 178.719 85.5671C178.939 85.4487 179.024 85.1781 178.905 84.9583C178.787 84.7384 178.516 84.6539 178.296 84.7723C178.092 84.8794 178.008 85.1161 178.087 85.3247V85.3303Z" fill="#0019A9"/>
        <path d="M176.15 85.8489C176.179 85.8771 176.207 85.9052 176.235 85.9334L177.562 84.6088C177.737 84.7441 177.991 84.7328 178.155 84.5693C178.33 84.3946 178.33 84.1071 178.155 83.9324C177.98 83.7576 177.692 83.7576 177.517 83.9324C177.353 84.0958 177.342 84.3495 177.477 84.5242L176.15 85.8489Z" fill="#0019A9"/>
        <path d="M172.655 84.6144L173.982 85.9391C174.01 85.9109 174.039 85.8827 174.067 85.8545L172.74 84.5299C172.875 84.3551 172.864 84.1015 172.7 83.938C172.525 83.7633 172.237 83.7633 172.062 83.938C171.887 84.1127 171.887 84.4002 172.062 84.575C172.226 84.7384 172.48 84.7497 172.655 84.6144Z" fill="#0019A9"/>
        <path d="M178.894 87.8161C178.68 87.7429 178.442 87.8387 178.346 88.0416L176.568 87.4216C176.557 87.461 176.54 87.4948 176.528 87.5343L178.307 88.1544C178.262 88.3742 178.38 88.594 178.6 88.6729C178.838 88.7575 179.092 88.6279 179.176 88.3967C179.261 88.16 179.131 87.9063 178.9 87.8218L178.894 87.8161Z" fill="#0019A9"/>
        <path d="M177.556 89.3381L176.218 88.0022C176.19 88.0304 176.162 88.0585 176.133 88.0867L177.471 89.4226C177.336 89.5974 177.347 89.8511 177.511 90.0145C177.686 90.1893 177.974 90.1893 178.149 90.0145C178.324 89.8398 178.324 89.5523 178.149 89.3776C177.985 89.2141 177.731 89.2028 177.556 89.3381Z" fill="#0019A9"/>
        <path d="M176.506 90.0765L175.76 88.3404C175.727 88.3573 175.687 88.3742 175.647 88.3855L176.393 90.1216C176.201 90.2343 176.116 90.4767 176.206 90.6853C176.302 90.9164 176.573 91.0179 176.799 90.922C177.025 90.8262 177.132 90.5556 177.036 90.3302C176.946 90.1216 176.715 90.0145 176.5 90.0765H176.506Z" fill="#0019A9"/>
        <path d="M178.962 86.5253C178.73 86.5253 178.544 86.6944 178.516 86.9143H176.636C176.636 86.9143 176.636 86.9481 176.636 86.965C176.636 86.9875 176.636 87.0101 176.636 87.0326H178.516C178.544 87.2525 178.73 87.4216 178.962 87.4216C179.21 87.4216 179.414 87.2186 179.414 86.9706C179.414 86.7226 179.21 86.5197 178.962 86.5197V86.5253Z" fill="#0019A9"/>
        <path d="M175.168 90.3752V88.4869C175.168 88.4869 175.128 88.4869 175.106 88.4869C175.083 88.4869 175.066 88.4869 175.043 88.4869V90.3752C174.823 90.4034 174.654 90.5894 174.654 90.8206C174.654 91.0686 174.857 91.2715 175.106 91.2715C175.354 91.2715 175.557 91.0686 175.557 90.8206C175.557 90.5894 175.388 90.4034 175.168 90.3752Z" fill="#0019A9"/>
        <path d="M174.078 88.0867C174.05 88.0585 174.022 88.0304 173.993 88.0022L172.655 89.3381C172.48 89.2028 172.226 89.2141 172.062 89.3776C171.887 89.5523 171.887 89.8398 172.062 90.0145C172.237 90.1893 172.525 90.1893 172.7 90.0145C172.864 89.8511 172.875 89.5974 172.74 89.4226L174.078 88.0867Z" fill="#0019A9"/>
        <path d="M174.061 90.2118L174.671 88.4249C174.631 88.4136 174.592 88.4024 174.558 88.3855L173.948 90.1723C173.728 90.1272 173.508 90.2513 173.434 90.4655C173.355 90.7022 173.48 90.9559 173.717 91.0404C173.954 91.1193 174.208 90.9953 174.293 90.7586C174.366 90.5444 174.264 90.3076 174.067 90.2118H174.061Z" fill="#0019A9"/>
        <path d="M172.124 88.6166L173.79 87.7372C173.767 87.7034 173.75 87.6696 173.734 87.6301L172.068 88.5095C171.938 88.3291 171.695 88.2671 171.492 88.3742C171.272 88.4926 171.187 88.7631 171.306 88.983C171.424 89.2028 171.695 89.2874 171.915 89.169C172.119 89.0619 172.203 88.8251 172.124 88.6166Z" fill="#0019A9"/>
        <path d="M100 126C73.5475 126 48.6364 119.602 29.8515 107.99C10.6036 96.091 0 80.1106 0 62.9972C0 45.8838 10.6036 29.909 29.8515 18.0097C48.6364 6.3978 73.5475 0 100 0C126.452 0 151.364 6.3978 170.148 18.0097C189.396 29.909 200 45.8894 200 63.0028C200 80.1162 189.396 96.0966 170.148 107.996C151.364 119.608 126.452 126.006 100 126.006V126ZM100 0.563683C73.6548 0.563683 48.8454 6.92766 30.1508 18.4888C11.0722 30.281 0.564621 46.0867 0.564621 62.9972C0.564621 79.9077 11.0722 95.7133 30.1451 107.511C48.8397 119.072 73.6491 125.436 99.9944 125.436C126.34 125.436 151.149 119.072 169.844 107.511C188.922 95.719 199.424 79.9077 199.424 62.9972C199.424 46.0867 188.916 30.281 169.844 18.4832C151.155 6.92766 126.345 0.563683 100 0.563683Z" fill="#0019A9"/>
        <path d="M100 123.182C46.4176 123.182 2.82324 96.1868 2.82324 62.9972C2.82324 29.8076 46.4176 2.81842 100 2.81842C153.583 2.81842 197.177 29.8132 197.177 62.9972C197.177 96.1812 153.583 123.182 100 123.182ZM100 3.3821C46.7282 3.3821 3.38786 30.1288 3.38786 62.9972C3.38786 95.8655 46.7282 122.618 100 122.618C153.272 122.618 196.612 95.8712 196.612 62.9972C196.612 30.1232 153.272 3.3821 100 3.3821Z" fill="#0019A9"/>
    </g>
    <defs>
        <clipPath id="clip0_159_1190">
            <rect width="200" height="126" fill="white"/>
        </clipPath>
    </defs>
</svg>
