<svg width="140" height="43" viewBox="0 0 140 43" fill="none" xmlns="http://www.w3.org/2000/svg">
<g clip-path="url(#clip0_26_5193)">
<path d="M121.19 11.8376H118.14V31.6278H121.19V11.8376Z" fill="#191919"/>
<path d="M62.9217 22.4409H71.9553V19.9925H62.9217V14.0433H72.2094V11.3925H62.9217V14.0433H59.9888V31.6278H72.6005V29.1793H62.9217V22.4409Z" fill="#191919"/>
<path d="M104.316 11.3925H97.5111V31.6278H100.522V13.9016H104.316C108.422 13.9016 110.181 16.4715 110.181 21.5101C110.181 26.5487 108.422 28.8758 104.316 28.8758H103.514V31.6278H104.316C109.654 31.6278 113.369 28.4711 113.369 21.5101C113.369 14.5492 109.654 11.3925 104.316 11.3925Z" fill="#191919"/>
<path d="M83.0419 11.3925L76.1201 31.6278H78.9358L80.6564 26.6094H86.8743L86.0726 24.3026H81.4386L84.4888 14.5896L90.4134 31.6278H93.5224L86.4832 11.3925H83.0419Z" fill="#191919"/>
<path d="M43.3296 20.7614V13.6588H47.7877C49.9581 13.6588 51.1508 15.2574 51.1508 17.4226V20.7614H53.2625C53.9274 19.7699 54.2206 18.3332 54.2206 17.3619C54.2206 13.5779 51.3855 11.3722 48.0028 11.3722H40.3771V31.6075H43.3296V23.0278H48.9022L52.3436 31.6075H55.5307L51.1508 20.7412H43.3296V20.7614Z" fill="#191919"/>
<path d="M128.112 11.2306C124.221 11.2104 121.307 12.5864 121.19 17.0179H123.771C123.947 14.7111 124.905 13.416 127.818 13.5172H129.07V11.2306H128.112Z" fill="#191919"/>
<path d="M17.5196 18.0904C20.2625 18.0904 22.4861 16.5593 22.4861 14.6706C22.4861 12.7819 20.2625 11.2508 17.5196 11.2508C14.7767 11.2508 12.5531 12.7819 12.5531 14.6706C12.5531 16.5593 14.7767 18.0904 17.5196 18.0904Z" fill="#2550AF"/>
<path d="M27.4526 23.1896C30.1955 23.1896 32.419 21.6586 32.419 19.7699C32.419 17.8812 30.1955 16.3501 27.4526 16.3501C24.7097 16.3501 22.4861 17.8812 22.4861 19.7699C22.4861 21.6586 24.7097 23.1896 27.4526 23.1896Z" fill="#75B4F8"/>
<path d="M15.8967 26.6296C18.6396 26.6296 20.8631 25.0986 20.8631 23.2099C20.8631 21.3212 18.6396 19.7901 15.8967 19.7901C13.1537 19.7901 10.9302 21.3212 10.9302 23.2099C10.9302 25.0986 13.1537 26.6296 15.8967 26.6296Z" fill="#C7B7F9"/>
<path d="M25.8101 31.7694C28.553 31.7694 30.7766 30.2383 30.7766 28.3497C30.7766 26.461 28.553 24.9299 25.8101 24.9299C23.0672 24.9299 20.8436 26.461 20.8436 28.3497C20.8436 30.2383 23.0672 31.7694 25.8101 31.7694Z" fill="#EEE500"/>
<path d="M17.5196 18.0904C20.2625 18.0904 22.4861 16.5593 22.4861 14.6706C22.4861 12.7819 20.2625 11.2508 17.5196 11.2508C14.7767 11.2508 12.5531 12.7819 12.5531 14.6706C12.5531 16.5593 14.7767 18.0904 17.5196 18.0904Z" fill="#2550AF"/>
<path d="M15.8967 26.6296C18.6396 26.6296 20.8631 25.0986 20.8631 23.2099C20.8631 21.3212 18.6396 19.7901 15.8967 19.7901C13.1537 19.7901 10.9302 21.3212 10.9302 23.2099C10.9302 25.0986 13.1537 26.6296 15.8967 26.6296Z" fill="#C7B7F9"/>
<path d="M25.8101 31.7694C28.553 31.7694 30.7766 30.2383 30.7766 28.3497C30.7766 26.461 28.553 24.9299 25.8101 24.9299C23.0672 24.9299 20.8436 26.461 20.8436 28.3497C20.8436 30.2383 23.0672 31.7694 25.8101 31.7694Z" fill="#EEE500"/>
</g>
<defs>
<clipPath id="clip0_26_5193">
<rect width="140" height="43" fill="white"/>
</clipPath>
</defs>
</svg>
