<svg width="92" height="28" viewBox="0 0 92 28" fill="none"
    xmlns="http://www.w3.org/2000/svg">
    <g clip-path="url(#clip0_88_8107)">
        <path d="M79.6392 7.70824H77.6348V20.5948H79.6392V7.70824Z" fill="#191919"/>
        <path d="M41.3488 14.6127H47.2851V13.0184H41.3488V9.14447H47.4521V7.41835H41.3488V9.14447H39.4214V20.5948H47.7091V19.0005H41.3488V14.6127Z" fill="#191919"/>
        <path d="M68.5501 7.41835H64.0786V20.5948H66.0574V9.05223H68.5501C71.2484 9.05223 72.4049 10.7256 72.4049 14.0066C72.4049 17.2875 71.2484 18.8028 68.5501 18.8028H68.0233V20.5948H68.5501C72.0579 20.5948 74.4993 18.5393 74.4993 14.0066C74.4993 9.47388 72.0579 7.41835 68.5501 7.41835Z" fill="#191919"/>
        <path d="M54.5706 7.41835L50.022 20.5948H51.8723L53.003 17.3271H57.089L56.5622 15.8249H53.5169L55.5214 9.50023L59.4147 20.5948H61.4577L56.832 7.41835H54.5706Z" fill="#191919"/>
        <path d="M28.4739 13.5191V8.89412H31.4035C32.8298 8.89412 33.6136 9.93506 33.6136 11.3449V13.5191H35.0013C35.4382 12.8734 35.6309 11.9379 35.6309 11.3054C35.6309 8.84141 33.7678 7.40517 31.5449 7.40517H26.5337V20.5816H28.4739V14.9948H32.1359L34.3974 20.5816H36.4918L33.6136 13.5059H28.4739V13.5191Z" fill="#191919"/>
        <path d="M84.1878 7.31294C81.6308 7.29976 79.7163 8.19576 79.6392 11.0814H81.3353C81.4509 9.57929 82.0805 8.736 83.995 8.80188H84.8174V7.31294H84.1878Z" fill="#191919"/>
        <path d="M11.5127 11.7798C13.3152 11.7798 14.7764 10.7828 14.7764 9.55294C14.7764 8.3231 13.3152 7.32612 11.5127 7.32612C9.71023 7.32612 8.24902 8.3231 8.24902 9.55294C8.24902 10.7828 9.71023 11.7798 11.5127 11.7798Z" fill="#2550AF"/>
        <path d="M18.0401 15.1002C19.8425 15.1002 21.3037 14.1033 21.3037 12.8734C21.3037 11.6436 19.8425 10.6466 18.0401 10.6466C16.2376 10.6466 14.7764 11.6436 14.7764 12.8734C14.7764 14.1033 16.2376 15.1002 18.0401 15.1002Z" fill="#75B4F8"/>
        <path d="M10.4463 17.3402C12.2488 17.3402 13.71 16.3433 13.71 15.1134C13.71 13.8836 12.2488 12.8866 10.4463 12.8866C8.64382 12.8866 7.18262 13.8836 7.18262 15.1134C7.18262 16.3433 8.64382 17.3402 10.4463 17.3402Z" fill="#C7B7F9"/>
        <path d="M16.961 20.6871C18.7634 20.6871 20.2246 19.6901 20.2246 18.4602C20.2246 17.2304 18.7634 16.2334 16.961 16.2334C15.1585 16.2334 13.6973 17.2304 13.6973 18.4602C13.6973 19.6901 15.1585 20.6871 16.961 20.6871Z" fill="#EEE500"/>
        <path d="M11.5127 11.7798C13.3152 11.7798 14.7764 10.7828 14.7764 9.55294C14.7764 8.3231 13.3152 7.32612 11.5127 7.32612C9.71023 7.32612 8.24902 8.3231 8.24902 9.55294C8.24902 10.7828 9.71023 11.7798 11.5127 11.7798Z" fill="#2550AF"/>
        <path d="M10.4463 17.3402C12.2488 17.3402 13.71 16.3433 13.71 15.1134C13.71 13.8836 12.2488 12.8866 10.4463 12.8866C8.64382 12.8866 7.18262 13.8836 7.18262 15.1134C7.18262 16.3433 8.64382 17.3402 10.4463 17.3402Z" fill="#C7B7F9"/>
        <path d="M16.961 20.6871C18.7634 20.6871 20.2246 19.6901 20.2246 18.4602C20.2246 17.2304 18.7634 16.2334 16.961 16.2334C15.1585 16.2334 13.6973 17.2304 13.6973 18.4602C13.6973 19.6901 15.1585 20.6871 16.961 20.6871Z" fill="#EEE500"/>
    </g>
    <defs>
        <clipPath id="clip0_88_8107">
            <rect width="92" height="28" fill="white"/>
        </clipPath>
    </defs>
</svg>
